<?xml version="1.0" encoding="UTF-8"?><svg id="Layer_2" xmlns="http://www.w3.org/2000/svg" xmlns:xlink="http://www.w3.org/1999/xlink" viewBox="0 0 16.07 17.33"><defs><style>.cls-1{font-family:'DMSans_600.000wght', 'DM Sans';font-size:9px;font-variation-settings:'opsz' 9, 'wght' 600;}.cls-1,.cls-2{fill:#ff0;}.cls-3{clip-path:url(#clippath);}.cls-4{fill:none;}</style><clipPath id="clippath"><polyline class="cls-4" points="0 16 4 16 4 13 3 13 3 3 13 3 12.93 7 16 7 16.07 0 0 0"/></clipPath></defs><g id="JS"><g class="cls-3"><path class="cls-2" d="m14,2v12H2V2h12m0-1H2c-.55,0-1,.45-1,1v12c0,.55.45,1,1,1h12c.55,0,1-.45,1-1V2c0-.55-.45-1-1-1h0Z"/></g><text id="Text" class="cls-1" transform="translate(4.84 14.99)"><tspan x="0" y="0">JS</tspan></text></g></svg>