<?xml version="1.0" encoding="UTF-8"?><svg id="Layer_37" xmlns="http://www.w3.org/2000/svg" viewBox="0 0 16 16"><defs><style>.cls-1{fill:#fafafa;}.cls-2{fill:#fff8e1;}.cls-3{fill:#999;}.cls-3,.cls-4{fill-rule:evenodd;}</style></defs><path class="cls-2" d="m11.59,5.87c0-.29-.05-.59-.12-.87h0c-.34-1.11-1.13-2.04-2.18-2.55-1.32-.71-1.98-1.26-2.57-1.44h0c-.74-.26-1.49.31-2.2.73-1.71.94-3.62,2.06-3.51,4.32,0-.01,0-.02,0-.03.08,1.09.62,2.09,1.49,2.75h0c2.94,2.56,9.11.98,9.09-2.89Z"/><path d="m7.24,6.09c-.06-.06-.14-.09-.23-.09h-2.46c-.08,0-.17.03-.23.09-.05.05-.07.11-.05.18.1.36.32.67.62.88.25.21.56.33.89.35.32-.02.63-.15.89-.35.3-.22.52-.53.62-.88.01-.06,0-.13-.05-.18h0Z"/><path d="m8,5.63c.55,0,1-.44,1-1,0-.55-.44-1-1-1-.55,0-1,.44-1,1h0c0,.55.45,1,1,1Z"/><circle class="cls-1" cx="7.39" cy="4.19" r=".5"/><path d="m4,5.63c.55,0,1-.44,1-1,0-.55-.44-1-1-1-.55,0-1,.44-1,1h0c0,.55.45,1,1,1Z"/><circle class="cls-1" cx="3.39" cy="4.13" r=".5"/><g id="Lock"><path class="cls-4" d="m6,15v-5c-.02-.82.35-1.45,1-1.77v-.23c0-1.78,1.56-3.77,3.64-3.77s3.36,1.96,3.36,3.77v.22c.62.31.99.93,1,1.76v5.02H6Z"/><path id="lock" class="cls-3" d="m8,8c0-1.31,1.19-2.77,2.64-2.77s2.36,1.46,2.36,2.77v1c.62.01.99.3,1,1v4h-7v-4c-.02-.67.35-.96,1-1v-1Zm1,0c0-.64.25-1.25.7-1.7l.3-.3h1l.29.29c.45.45.71,1.07.71,1.71v1h-3v-1.01Z"/><rect x="10" y="10" width="1" height="2"/><polygon class="cls-4" points="13.23 8.5 7.71 8.5 7.74 9 13.26 9 13.23 8.5"/></g></svg>