<?xml version="1.0" encoding="UTF-8"?><svg id="Layer_36" xmlns="http://www.w3.org/2000/svg" viewBox="0 0 16 16"><defs><style>.cls-1{fill:#0054a0;}.cls-2{fill:#f8b64c;}.cls-3{fill:#4ee01e;}.cls-4{fill:#3d8c2a;}.cls-4,.cls-5{stroke:#0c3500;stroke-miterlimit:10;}.cls-5{fill:#71b263;}.cls-6{fill:#7cff5c;}.cls-7{fill:#006fff;}</style></defs><rect class="cls-1" x="1.5" y="1.5" width="13" height="13" rx=".81" ry=".81"/><path class="cls-7" d="m13.69,2c.17,0,.31.14.31.31v11.39c0,.17-.14.31-.31.31H2.31c-.17,0-.31-.14-.31-.31V2.31c0-.17.14-.31.31-.31h11.39m0-1H2.31c-.72,0-1.31.58-1.31,1.31v11.39c0,.72.58,1.31,1.31,1.31h11.39c.72,0,1.31-.58,1.31-1.31V2.31c0-.72-.58-1.31-1.31-1.31h0Z"/><path class="cls-4" d="m1.53,11.75s-.03.09-.03.13v1.32c0,.35.14.68.38.92.24.24.58.38.92.38h1.22s.09,0,.13-.03h0s.08-.04.12-.08l3.37-2.1c.06-.06.57-.63.57-.72,0-.09-.67.44-.72.37.9-.89-.43-1.67-.44-1.68l-1.61-1.63c-.07-.07-.36-.37-.46-.38-.09,0-1.75,1.72-1.82,1.79l-1.57,1.57s-.06.07-.08.12h0Z"/><path class="cls-3" d="m1.03,12.25s-.03.09-.03.13v1.32c0,.35.14.68.38.92.24.24.58.38.92.38h1.22s.09,0,.13-.03h0s.08-.04.12-.08l3.62-3.62c.06-.06.1-.14.1-.23,0-.09-.02-.17-.07-.24,0-.01-.02-.03-.03-.04l-2.22-2.22c-.07-.07-.16-.1-.25-.1-.09,0-.18.04-.25.1l-3.57,3.58s-.06.07-.08.12h0Z"/><path class="cls-5" d="m6.5,14.5s2-1,2-1c.04.02,2,0,2,0,.35,0,3-.65,3-1,0,0,1.02-.96,1-1-.02-.04.03-.97,0-1l-3.37-3.46s-.07-.06-.12-.08c-.04-.02-.09-.03-.14-.03s-.09,0-.14.03c-.04.02-.08.04-.12.08l-7.36,7.36s-.24.44,1.57-.47c0,0,1.66-.42,1.66.58Z"/><path class="cls-6" d="m3.2,14.52s-.03.09-.03.13,0,.09.03.13h0c.04.09.11.16.19.19h0s.09.03.13.03h10.17c.35,0,.68-.14.92-.38s.38-.58.38-.92v-2.65h0s0-.09-.03-.13c-.02-.04-.04-.08-.08-.12l-3.76-3.75s-.07-.06-.12-.08c-.04-.02-.09-.03-.14-.03s-.09,0-.14.03c-.04.02-.08.04-.12.08l-7.36,7.36h0s-.06.07-.08.12h0Z"/><path class="cls-2" d="m3.54,6c-.57,0-1.12-.24-1.54-.56v-3.11c0-.24.15-.33.34-.33h3.19c.32.42.51.94.51,1.5,0,1.38-1.12,2.5-2.5,2.5Z"/></svg>