<?xml version="1.0" encoding="UTF-8"?><svg id="Layer_27" xmlns="http://www.w3.org/2000/svg" viewBox="0 0 16 16"><defs><style>.cls-1{fill:#ffcf00;}.cls-2{fill:#ffce00;}</style></defs><path class="cls-2" d="m14.79,7.33c-.18-.18-.79-.33-.79-.33v-2c0-1.34-.07-3-2-3v1c1.24,0,1,.58,1,2v1c0,.55.45,2,1,2-.55,0-1,1.45-1,2v1c0,1.42.24,2-1,2v1c1.93,0,2-1.66,2-3v-2s.61-.15.79-.33c.18-.18.21-.67.21-.67,0,0-.03-.49-.21-.67Z"/><path class="cls-2" d="m1.21,7.33c.18-.18.79-.33.79-.33v-2c0-1.34.07-3,2-3v1c-1.24,0-1,.58-1,2v1c0,.55-.45,2-1,2,.55,0,1,1.45,1,2v1c0,1.42-.24,2,1,2v1c-1.93,0-2-1.66-2-3v-2s-.61-.15-.79-.33c-.18-.18-.21-.67-.21-.67,0,0,.03-.49.21-.67Z"/><path class="cls-1" d="m6.81,6.75c0-.14.03-.28.08-.41s.13-.24.23-.34.21-.17.34-.23.27-.08.41-.08.28.03.41.08.24.13.34.23.17.21.23.34.08.27.08.41-.03.28-.08.41-.13.24-.23.34-.21.17-.34.23-.27.08-.41.08-.28-.03-.41-.08-.24-.13-.34-.23-.17-.21-.23-.34-.08-.27-.08-.41Zm0,4.58c0-.14.03-.27.08-.4s.13-.23.23-.33.21-.17.34-.22.27-.08.41-.08.28.03.41.08.24.13.34.23.17.21.23.34.08.27.08.42-.03.32-.09.5-.14.36-.23.55-.21.36-.33.54-.26.33-.39.46-.27.24-.41.32-.27.12-.38.12c-.1,0-.17-.02-.21-.07s-.06-.11-.06-.19.01-.17.04-.3.05-.24.07-.34c0-.03.01-.08.02-.13s.01-.12.02-.18,0-.12.01-.18,0-.11,0-.14c0-.09,0-.18-.03-.26s-.04-.17-.06-.25-.04-.16-.06-.24-.03-.16-.03-.24Z"/></svg>