<?xml version="1.0" encoding="UTF-8"?><svg id="Layer_22_copy" xmlns="http://www.w3.org/2000/svg" viewBox="0 0 16 16"><defs><style>.cls-1{fill:#777;}</style></defs><path class="cls-1" d="m7.45,1.24c.34-.19.76-.19,1.1,0,1.65.93,3.29,1.86,4.94,2.79.31.17.52.52.51.88v5.67c0,.37-.22.72-.55.89-1.63.92-3.25,1.84-4.88,2.75-.33.19-.76.17-1.08-.03-.49-.28-.98-.56-1.46-.85-.1-.06-.21-.11-.28-.2.06-.08.17-.09.26-.13.2-.06.39-.17.58-.27.05-.03.11-.02.15,0,.42.24.83.49,1.25.72.09.05.18-.02.26-.06,1.6-.9,3.19-1.8,4.79-2.7.06-.03.09-.09.09-.16,0-1.83,0-3.66,0-5.49,0-.07-.04-.14-.1-.17-1.62-.91-3.24-1.83-4.86-2.74-.06-.04-.13-.04-.19,0-1.62.91-3.24,1.83-4.86,2.74-.07.03-.11.1-.1.17,0,1.83,0,5.55,0,5.55,0,0,.66.66,1.1.91.25.13.56.21.83.11.24-.09.41-.34.41-.59,0-1.87,0-3.74,0-5.6,0-.08.07-.15.15-.14.21,0,.43,0,.64,0,.09,0,.15.09.14.17,0,1.88,0,3.76,0,5.64,0,.5-.21,1.05-.67,1.29-.57.3-1.28.23-1.84-.05-.49-.24-.95-.53-1.43-.79-.33-.17-.33-.91-.33-.91v-5.73c0-.36.21-.72.53-.89,1.64-.93,3.28-1.85,4.92-2.78Z"/><path class="cls-1" d="m8.78,5.15c.73-.05,1.51-.03,2.16.33.51.27.79.85.8,1.42-.01.08-.09.12-.17.11-.21,0-.42,0-.63,0-.09,0-.14-.08-.15-.16-.06-.27-.21-.54-.46-.67-.39-.2-.84-.19-1.27-.18-.31.02-.64.04-.91.23-.2.14-.26.42-.19.64.07.16.25.21.41.26.88.23,1.81.21,2.67.51.36.12.71.36.83.74.16.5.09,1.1-.27,1.5-.29.33-.71.51-1.13.61-.56.12-1.14.13-1.7.07-.53-.06-1.09-.2-1.5-.56-.35-.31-.52-.78-.51-1.24,0-.08.08-.13.16-.13.21,0,.43,0,.64,0,.08,0,.15.07.15.15.04.26.14.53.36.68.43.28.98.26,1.47.27.41-.02.87-.02,1.21-.29.18-.15.23-.41.18-.64-.05-.19-.25-.28-.42-.33-.87-.27-1.81-.17-2.67-.48-.35-.12-.69-.36-.82-.71-.19-.51-.1-1.13.29-1.52.38-.39.94-.53,1.46-.59h0Z"/></svg>