<?xml version="1.0" encoding="UTF-8"?><svg id="Layer_52" xmlns="http://www.w3.org/2000/svg" viewBox="0 0 16 16"><defs><style>.cls-1{fill:#fff;}.cls-2{fill:#b4ef11;}.cls-2,.cls-3,.cls-4,.cls-5{fill-rule:evenodd;}.cls-3{fill:#ce7730;}.cls-4{fill:#e6bb7e;}.cls-5{fill:#7d9c32;}</style></defs><g id="_2220002388688"><path class="cls-3" d="m5.67,9.32s-.05,0-.06-.02c-.19-.14-.42-.2-.66-.17-.03,0-.06,0-.08-.02s-.52.4-.52.4c-.33-1.49-.33-4.49.67-5.16,0-.04.03-.07.07-.09.04-.01.08,0,.11.02.08.08.19.12.3.12.08,0,.16-.02.22-.06.04-.02.08-.02.12,0,.04.02.18.63.18.68,0,1,0,3,.25,4.73,0,.04-.49-.45-.53-.43-.02,0-.03.01-.05.01h0Z"/><path class="cls-2" d="m8.58,7.65s-.03-.1-.01-.16v-.03s-.05-.05-.05-.05c-.02.01-.08.03-.18.07h-.02s-.11.02-.11.02c-.4,0-.57-.66-.6-.79.07-.19.15-.26.21-.3.02-.03.04-.08.05-.14,0,0-.01,0-.02,0-.04,0-.09-.01-.13-.03-.01.03-.03.05-.05.07l-.04.03-.13.03s-.03,0-.04,0c-.05.02-.1.03-.15.03-.44,0-1.13-.62-1.53-1.77-.03,0-.06-.07-.07-.14,0-.07,0-.14.04-.2.05-.08.08-.18.08-.28,0-.07.03-.14.07-.19l.04-.04.14-.04c.85.08,3.2.63,4.02,2.2t.01,1.06l-1.17,2.37-.37-1.72Z"/><path d="m6.09,3.86s0,0,0,0c.89.09,3.12.65,3.9,2.14,0,0,0,1,0,1l-1,2-.3-1.38s-.02-.07-.01-.11l.08-.42-.2.18s-.01.01-.01.01c0,0,0,0,0,0-.02,0-.07.01-.26.08-.03.01-.06.02-.08.02-.32,0-.48-.7-.48-.7.08-.15.22-.19.23-.25,0,0,.07-.14.02-.44-.04.12-.08.15-.13.15s-.13-.04-.22-.07c0,.06-.01.11-.05.15-.02.02-.05.03-.08.03-.02,0-.04,0-.05-.01-.04.03-.08.04-.14.04-.35,0-1.01-.53-1.41-1.69h-.01s-.04-.07-.05-.11c0-.04,0-.08.02-.11.06-.1.1-.22.1-.35,0-.04.02-.08.04-.11.02-.03.05-.04.09-.04m2.47,3.41s0,0,0,0c0,0,0,0,0,0m-2.47-3.66c-.1,0-.2.04-.27.12-.07.07-.11.17-.11.27,0,.08-.02.16-.06.22-.05.08-.07.18-.06.28,0,.08.04.16.09.22.42,1.18,1.13,1.8,1.62,1.8.06,0,.12,0,.17-.03,0,0,.02,0,.02,0,.02,0,.03,0,.05,0-.01.02-.02.04-.04.06l-.05.08.02.09c.03.15.23.89.72.89.06,0,.11-.01.17-.03.02,0,.04-.01.05-.02,0,.04.01.09.03.13l.29,1.35.15.69.32-.63,1-2,.03-.05v-.06q0-1.05-.03-1.12c-.85-1.62-3.24-2.19-4.1-2.27h-.01s-.02,0-.02,0h0Z"/><path class="cls-2" d="m.89,7.06q-.02-1.08,0-1.12c.82-1.57,3.16-2.12,4-2.2h0c.09,0,.15.03.19.08.05.05.07.12.08.19,0,.1.03.2.08.28.04.06.05.13.04.2,0,.07-.04.14-.09.18-.53,1.05-1.48,1.61-1.58,1.67l-.03.02h-.09c-.06.01-.12,0-.16-.05-.02-.02-.04-.04-.05-.06,0,.06.02.11.02.15.02.09,0,.18-.06.25l-.56.68c-.05.06-.12.09-.19.09h-.05l-.04-.02.02.09c.01.06,0,.13-.02.19l-.37,1.7-1.16-2.32Z"/><path d="m4.91,3.86s.06.01.09.04c.03.03.04.07.04.11,0,.13.04.25.1.35.02.03.03.07.02.11,0,.04-.02.08-.05.1h-.01c-.55,1.09-1.51,1.64-1.55,1.66-.02,0-.04.01-.05.01-.03,0-.05-.01-.08-.03-.04-.04-.06-.09-.05-.15.02-.15-.05-.44-.12-.68-.2.38-.07,1.02-.07,1.03.01.05,0,.11-.03.15l-.56.68s-.06.05-.09.05c-.03,0-.05-.01-.08-.03l-.2-.18.08.42s0,.08-.01.11l-.3,1.38-1-2s0-.99,0-1c.77-1.48,3-2.05,3.9-2.14,0,0,0,0,0,0m0-.25h-.03c-.85.08-3.25.65-4.1,2.27q-.03.06-.03,1.12v.06s.03.05.03.05l1,2,.32.63.15-.69.29-1.35c.02-.05.03-.1.03-.16.08-.02.16-.06.22-.13l.56-.68c.05-.07.09-.15.09-.23.02,0,.04,0,.06,0,.06,0,.12-.02.17-.05.04-.02,1.05-.59,1.63-1.72.06-.07.1-.15.11-.23.01-.1-.01-.19-.06-.27-.04-.06-.06-.14-.06-.22,0-.1-.04-.2-.11-.27-.07-.08-.17-.12-.27-.12h0Z"/><path class="cls-2" d="m4.91,4.25s-.01,0-.02,0l-1.17-.25s-.08-.04-.09-.09c-.02-.05-.01-.1.01-.15l.19-.33c-.21.07-.48.22-.56.51-.02.07-.07.11-.13.1l-.77-.1c-.06,0-.1-.07-.11-.14v-.26s-.13.23-.13.23c-.02.04-.06.07-.1.07l-.88.02s-.08-.03-.11-.07c-.02-.05-.02-.1,0-.15.03-.07.61-1.64,2.23-1.64.16,0-.74,0,0,0,.03.02,1.37.53,1.97,1.38.02.03.03.07.03.12s-.02.08-.05.11c-.13.11-.2.29-.2.49,0,.04-.02.09-.04.12-.02.02-.05.04-.08.04h0Z"/><path class="cls-2" d="m6.26,3.85s-.06.01-.09,0c-.03-.01-.06-.04-.07-.07-.06-.15-.19-.25-.35-.29-.04,0-.07-.03-.08-.06-.02-.03-.67.59-.66.56.34-.9,2.19-2.38,2.21-2.4,0,0-.16.07,0,0,1.55-.64,2.61.16,2.76.28.02.01.04.03.06.06.03.06,0,.14-.07.16,0,0,0,0,0,0h0s-.79.31-.79.31c-.03.01-.07.01-.1,0l-.32-.12.07.22c.02.06,0,.12-.07.15l-.74.39c-.05.03-.12.02-.16-.03-.17-.19-.48-.19-.72-.16l.29.17s.06.06.06.11c0,.05-.03.09-.07.11l-1.14.58s0,0-.01,0h0Z"/><path class="cls-5" d="m5.43,4.84c-.52,0-.93-.42-.93-.93s.42-.93.93-.93.94.42.94.93-.42.93-.94.93Z"/><path class="cls-4" d="m1,11c0-.62.38-1,1-1,.04,0,0-.89,1-1,.65-.07,1.08-.22,2,0,2.92,0,3.62.04,3.9.94,1.1.06,1.14,1.06,1.14,1.06H1Z"/></g><g id="Layer_53_copy"><path d="m10.15,16c-.6,0-1.11-.45-1.19-1.04l-.06-.42-.61.24h-.26c-.43.01-.82-.21-1.04-.58l-.81-1.38c-.3-.54-.17-1.18.29-1.55l.34-.26-.34-.26c-.48-.38-.61-1.05-.3-1.56l.81-1.38c.21-.37.61-.59,1.04-.59h.16l.23.06.48.19.06-.44c.08-.58.59-1.02,1.19-1.02h1.62c.59,0,1.1.44,1.19,1.02l.06.44.61-.24h.26c.43-.01.83.22,1.04.58l.81,1.38c.3.54.17,1.18-.29,1.55l-.34.26.34.26c.47.37.6,1.01.31,1.53l-.82,1.41c-.21.36-.61.59-1.04.59h-.16l-.23-.06-.48-.19-.06.44c-.08.58-.59,1.02-1.19,1.02h-1.62Z"/></g><g id="Layer_53"><path class="cls-1" d="m13.98,11.39c.02-.13.03-.26.03-.39s-.01-.26-.03-.39l.86-.66c.08-.06.1-.17.05-.26l-.81-1.38c-.05-.09-.15-.12-.25-.09l-1.01.4c-.21-.16-.44-.29-.69-.39l-.15-1.06c-.01-.1-.1-.17-.2-.17h-1.62c-.1,0-.19.07-.2.17l-.15,1.06c-.25.1-.47.24-.69.39l-1.01-.4s-.05-.01-.07-.01c-.07,0-.14.04-.17.1l-.81,1.38c-.05.09-.03.2.05.26l.86.66c-.02.13-.03.26-.03.39s.01.26.03.39l-.86.66c-.08.06-.1.17-.05.26l.81,1.38c.05.09.15.12.25.09l1.01-.4c.21.16.44.29.69.39l.15,1.06c.01.1.1.17.2.17h1.62c.1,0,.19-.07.2-.17l.15-1.06c.25-.1.47-.24.69-.39l1.01.4s.05.01.07.01c.07,0,.14-.04.17-.1l.81-1.38c.05-.09.03-.2-.05-.26l-.86-.66Z"/><circle cx="11" cy="11" r="2"/></g></svg>