<?xml version="1.0" encoding="UTF-8"?><svg id="Done" xmlns="http://www.w3.org/2000/svg" viewBox="0 0 16 16"><defs><style>.cls-1{fill:#00bdff;}.cls-2{fill:#1976d2;}.cls-3{fill:#999;}.cls-3,.cls-4{fill-rule:evenodd;}</style></defs><g id="Layer_14"><path class="cls-2" d="m1,1v13c3.45.06,6.6-.25,8.91-2.82L1,1Z"/><path class="cls-1" d="m.99,1l8.92,10.18c2.46-2.81,3.85-6.44,3.82-10.18H.99Z"/><g id="Lock"><path class="cls-4" d="m6,15v-5c-.02-.82.35-1.45,1-1.77v-.23c0-1.78,1.56-3.77,3.64-3.77s3.36,1.96,3.36,3.77v.22c.62.31.99.93,1,1.76v5.02H6Z"/><path id="lock" class="cls-3" d="m8,8c0-1.31,1.19-2.77,2.64-2.77s2.36,1.46,2.36,2.77v1c.62.01.99.3,1,1v4h-7v-4c-.02-.67.35-.96,1-1v-1Zm1,0c0-.64.25-1.25.7-1.7l.3-.3h1l.29.29c.45.45.71,1.07.71,1.71v1h-3v-1.01Z"/><rect x="10" y="10" width="1" height="2"/><polygon class="cls-4" points="13.23 8.5 7.71 8.5 7.74 9 13.26 9 13.23 8.5"/></g></g></svg>