<?xml version="1.0" encoding="UTF-8"?><svg id="Layer_44_copy" xmlns="http://www.w3.org/2000/svg" viewBox="0 0 16 16"><defs><style>.cls-1{fill:#7f7c6e;}.cls-2{fill:#6e7e7f;}</style></defs><path class="cls-2" d="m6,1c-1.23.22-2,.79-2,1.63v2.37h-1c-1,0-1.73.85-2,2v2c.24,1.02,1,2,2,2h1v-1c0-1.11.9-2,2-2h4c.55,0,1-.45,1-1v-3h1s0-1.36,0-1.36c0-.78-1.21-1.51-2-1.64m-4.55.89"/><path class="cls-1" d="m12,5v2c0,1.1-.9,2-2,2h-3.55c-.8,0-1.45.65-1.45,1.45v1.55h-1v1.37c0,.9,1.07,1.36,2,1.63h4c.88-.24,2-.66,2-1.63v-2.37h1c.91,0,1.68-.94,2-2v-2c-.22-.99-.91-2-1.82-2h-1.18Z"/><circle cx="6" cy="3" r="1"/><circle cx="10" cy="13" r="1"/></svg>