<?xml version="1.0" encoding="UTF-8"?><svg id="Done" xmlns="http://www.w3.org/2000/svg" xmlns:xlink="http://www.w3.org/1999/xlink" viewBox="0 0 16 16"><defs><style>.cls-1{clip-path:url(#clippath);}.cls-2{fill:none;}.cls-3{fill:#ff5c00;}</style><clipPath id="clippath"><polyline class="cls-2" points="0 16 4 16 4 13 3 12 3 3 11 3 13 6 16 6 16 0 0 0"/></clipPath></defs><g id="SH"><g class="cls-1"><path class="cls-3" d="m14,2h0v4.27s0,0,0,0v7.72s-12,0-12,0V2s12,0,12,0m0-1H2c-.55,0-1,.45-1,1v12c0,.55.45,1,1,1h12c.55,0,1-.45,1-1v-7.72c0-.18.09-.12,0-.28V2c0-.55-.45-1-1-1h0Z"/></g><g id="Text"><path class="cls-3" d="m4.58,12.39l1.22-.14c.14.96.58,1.44,1.34,1.44.38,0,.67-.1.89-.29.22-.2.32-.44.32-.73,0-.17-.04-.32-.11-.44-.08-.12-.19-.22-.34-.29s-.53-.21-1.12-.39c-.53-.16-.92-.33-1.16-.52-.25-.19-.44-.43-.59-.74-.15-.31-.22-.63-.22-.99,0-.41.09-.78.28-1.11.19-.33.44-.58.77-.74.33-.17.73-.25,1.22-.25.72,0,1.29.2,1.7.59s.62.96.65,1.69l-1.25.07c-.05-.4-.17-.69-.35-.85-.18-.16-.44-.24-.77-.24s-.59.07-.77.21-.27.31-.27.52.08.38.25.52c.16.14.54.29,1.13.46.63.18,1.08.37,1.36.57.28.2.49.46.64.77.15.32.22.7.22,1.15,0,.65-.2,1.2-.6,1.65-.4.44-1.03.67-1.88.67-1.51,0-2.35-.86-2.52-2.58Z"/><path class="cls-3" d="m10.01,14.84v-7.52h1.24v2.96h2.45v-2.96h1.24v7.52h-1.24v-3.29h-2.45v3.29h-1.24Z"/></g></g></svg>