<?xml version="1.0" encoding="UTF-8"?><svg id="TS_copy" xmlns="http://www.w3.org/2000/svg" viewBox="0 0 16 16"><defs><style>.cls-1{fill:#fff;}.cls-2{fill:#0070ff;}.cls-3{fill:#006fff;}</style></defs><rect class="cls-2" x="1.5" y="1.5" width="10" height="10"/><path class="cls-3" d="m11,2v9H2V2h9m1-1H1v11h11V1h0Z"/><path d="m10.87,14.89c-.43,0-.72-.19-1.17-.64-.42.42-.72.62-1.15.62h-.2l-.27-.1-1.29-.56-.21-.49-.05-.22c-.03-.22-.05-.43-.06-.65-.53,0-1.23-.03-1.53-.78l-.35-.86c-.25-.63-.02-1.04.54-1.62-.39-.4-.48-.55-.55-.73l-.12-.31.05-.39.02-.07.05-.14.35-.84c.33-.76,1.04-.76,1.52-.76,0-.79.13-1.27.77-1.53l1.03-.41.27-.02c.43,0,.72.19,1.17.64.42-.42.72-.62,1.15-.62h.22l.28.11,1.25.54.22.48.06.22c.03.21.05.43.06.65.54,0,1.23.04,1.53.77l.35.86c.26.63.02,1.05-.54,1.63.39.4.49.56.56.73l.13.32-.07.4-.06.19-.35.85c-.32.76-1.04.76-1.53.76,0,.79-.13,1.27-.77,1.53l-1.02.41-.27.02Z"/><path class="cls-1" d="m11.92,12.18l.27-.27c1.27.04,1.29,0,1.35-.13l.35-.85.02-.08-.03-.07s-.06-.15-.86-.9v-.4c.91-.88.9-.92.84-1.05l-.35-.85c-.05-.13-.08-.18-1.34-.14l-.28-.28c.03-.42.01-.83-.04-1.25l-.04-.08-.91-.39c-.13-.06-.18-.08-1.04.85h-.39c-.88-.94-.93-.93-1.06-.87l-.84.34c-.13.05-.18.08-.13,1.35l-.27.27c-1.27-.04-1.29,0-1.35.13l-.35.84-.02.08.03.07s.06.15.86.9v.39c-.91.88-.9.92-.84,1.05l.35.86c.05.13.08.18,1.34.14l.27.28c-.03.42-.01.83.04,1.24l.04.08.91.4c.13.06.18.08,1.03-.85h.39c.88.94.93.93,1.06.87l.84-.34c.13-.05.18-.07.13-1.35Z"/><ellipse cx="9.7" cy="9.64" rx="2" ry="2.01"/></svg>