<?xml version="1.0" encoding="UTF-8"?><svg xmlns="http://www.w3.org/2000/svg" viewBox="0 0 16 16"><defs><style>.cls-1{isolation:isolate;}.cls-2{fill:#008aaa;}.cls-2,.cls-3,.cls-4,.cls-5{fill-rule:evenodd;}.cls-3{mix-blend-mode:saturation;}.cls-4{fill:#1f9ef3;}.cls-5{fill:#00677f;}</style></defs><g class="cls-1"><g id="Layer_20_copy"><path id="path36" class="cls-5" d="m15,2l-4-1h0L1,10l1,2"/><path id="path37" class="cls-2" d="m15,14l-2,1h-2L1,5.64l1-1.64"/><path id="path38" class="cls-4" d="m13,15h-2l1-1V2l-1-1h2l2,1v12l-2,1Z"/><path class="cls-3" d="m13,1h-2l-5.94,5.35-3.06-2.35-1,1.64,2.38,2.22-2.38,2.14,1,2,3.18-2.45,5.82,5.45h2l2-1V2l-2-1Zm-1,10.69l-4.8-3.69,4.8-3.69v7.38Z"/></g></g></svg>