<?xml version="1.0" encoding="UTF-8"?><svg id="Layer_82_copy" xmlns="http://www.w3.org/2000/svg" xmlns:xlink="http://www.w3.org/1999/xlink" viewBox="0 0 14 14"><defs><style>.cls-1{fill:#afafaf;}.cls-2{fill:none;}.cls-3{fill:#00ade4;}.cls-4{fill:#f2f2f2;}</style><clipPath id="clippath"><path class="cls-2" d="m-39.5539-14.7231l-4.998,2.499c-.2821.141-.6141.141-.8962,0l-4.998-2.499c-.3395-.1697-.5539-.5167-.5539-.8962v-5.7615c0-.3795.2144-.7265.5539-.8962l4.998-2.499c.2821-.141.6141-.141.8962,0l4.998,2.499c.3395.1697.5539.5167.5539.8962v5.7615c0,.3795-.2144.7265-.5539.8962Z"/></clipPath></defs><path class="cls-3" d="m4.9483,5.692c-.1769.3035-.1684.6586-.0258.9571l.2064-.3522c.3163-.5406.8538-.9042,1.4572-1.03l.3834-.5991c.3269.1307.6979-.0283.8287-.3553.1307-.327-.0283-.6979-.3553-.8287-.3269-.1307-.6979.0283-.8287.3552-.0971.2429-.036.5205.1541.7001l-.4763.7437c-.4053-.1974-.8917-.1089-1.2015.2186l-.5969-.4448c.1912-.3707.0458-.826-.3248-1.0173-.3705-.1912-.8259-.0458-1.0172.3247-.079.1531-.1033.3286-.0687.4974h-.0007c.0835.4085.4824.6721.8909.5886.1428-.0292.2742-.0991.3781-.2012l.597.4431Z"/><path class="cls-3" d="m4.3779,9.9961c-.1294-.1981-.2148-.4155-.275-.6396-.7634-.4297-1.3914-1.115-1.6995-1.9515-.3592-.9597-.3073-2.0341.1432-2.9546.3967-.8118,1.071-1.4548,1.9008-1.8125.96-.4161,2.0924-.4011,3.041.0406.6363.2925,1.1676.7604,1.5531,1.3372.0376-.002.0719-.0157.1099-.0157h1.5153c-.1-.2253-.2139-.4446-.3455-.654.205-.2886.4016-.5837.5837-.8962l-1.4078-1.4036c-.3203.1876-.6238.3907-.9208.6028-.428-.2549-.8911-.446-1.3744-.567-.0598-.3585-.1333-.7212-.2277-1.0821h-1.9946c-.0932.3537-.1631.7074-.2229,1.0611-.4976.1157-.9751.305-1.4168.5616-.285-.2025-.5772-.3973-.8849-.5765l-1.4085,1.4077c.1697.2899.352.5665.5414.8365-.2966.4579-.5185.9601-.6573,1.4877-.3126.0551-.623.1221-.9304.2008v1.9921c.2886.0753.576.1362.8647.1888.1187.5735.3345,1.1226.6382,1.6234-.1595.2301-.3132.4667-.4566.7128l1.4085,1.4084c.239-.1387.4655-.2856.6878-.4386.2876.1846.5953.3314.9125.4551.0416-.3282.1391-.6467.3228-.9249Z"/><path class="cls-4" d="m12.9779,10.392c.0162-.128.0284-.256.0284-.392s-.0122-.264-.0284-.392l.8562-.66c.0771-.06.0974-.168.0487-.256l-.8116-1.384c-.0494-.0853-.1543-.1225-.2475-.088l-1.0104.4c-.211-.16-.4382-.292-.6857-.392l-.1542-1.06c-.0139-.0974-.0991-.1694-.1988-.168h-1.6231c-.1014,0-.1867.072-.1989.168l-.1542,1.06c-.2475.1-.4748.236-.6858.392l-1.0104-.4c-.0235-.0079-.0482-.0119-.073-.012-.069,0-.138.036-.1745.1l-.8116,1.384c-.0528.088-.0284.196.0487.256l.8562.66c-.0163.128-.0284.26-.0284.392s.0121.264.0284.392l-.8562.66c-.0771.06-.0974.168-.0487.256l.8116,1.384c.0494.0853.1543.1226.2475.088l1.0104-.4c.211.16.4383.292.6858.392l.1542,1.06c.0122.096.0974.168.1989.168h1.6231c.1014,0,.1867-.072.1988-.168l.1542-1.06c.2475-.1.4747-.236.6857-.392l1.0104.4c.0243.008.0487.012.073.012.069,0,.138-.036.1745-.1l.8116-1.384c.0487-.088.0284-.196-.0487-.256l-.8562-.66Z"/><path class="cls-1" d="m12.9779,10.392c.0162-.128.0284-.256.0284-.392s-.0122-.264-.0284-.392l.8562-.66c.0771-.06.0974-.168.0487-.256l-.8116-1.384c-.0494-.0853-4.2728,5.464-4.2728,5.464l.1542,1.06c.0229.1039.0892.1599.1989.168h1.6231c.1014,0,.1867-.072.1988-.168l.1542-1.06c.2475-.1.4747-.236.6857-.392l1.0104.4c.0243.008.0487.012.073.012.069,0,.138-.036.1745-.1l.8116-1.384c.0487-.088.0284-.196-.0487-.256l-.8562-.66Z"/><circle cx="9.9631" cy="9.9426" r="1.5"/></svg>