<?xml version="1.0" encoding="UTF-8"?><svg id="Done" xmlns="http://www.w3.org/2000/svg" xmlns:xlink="http://www.w3.org/1999/xlink" viewBox="0 0 14 14"><defs><style>.cls-1{fill:#40c057;}.cls-2{fill:none;}</style><clipPath id="clippath"><path class="cls-2" d="m12.4461,141.2769l-4.998,2.499c-.2821.141-.6141.141-.8962,0l-4.998-2.499c-.3395-.1697-.5539-.5167-.5539-.8962v-5.7615c0-.3795.2144-.7265.5539-.8962l4.998-2.499c.2821-.141.6141-.141.8962,0l4.998,2.499c.3395.1697.5539.5167.5539.8962v5.7615c0,.3795-.2144.7265-.5539.8962Z"/></clipPath></defs><g id="Layer_12"><path id="path1-4" class="cls-1" d="m11.0255,0H2.9015C1.299,0,0,1.3058,0,2.9167v8.1667C0,12.6942,1.299,14,2.9015,14h8.1241c1.6024,0,2.9015-1.3058,2.9015-2.9167V2.9167C13.927,1.3058,12.628,0,11.0255,0Zm-.0255,10l-2,1v-4l-4,2v3l-2,1V4l2-1v4l4-2v-3l2-1v9Z"/></g></svg>