<?xml version="1.0" encoding="UTF-8"?><svg id="Done" xmlns="http://www.w3.org/2000/svg" width="16" height="16" xmlns:xlink="http://www.w3.org/1999/xlink" viewBox="0 0 16 16"><defs><style>.cls-1{fill:lime;}.cls-2{clip-path:url(#clippath);}.cls-3{fill:none;}</style><clipPath id="clippath"><polyline class="cls-3" points="0 8 3 8 3 3 10 3 13 8 16 8 16 5.3044 16 0 0 0"/></clipPath></defs><g id="AHK"><g class="cls-2"><path class="cls-1" d="m14,2v12H2V2h12m0-1H2c-.5523,0-1,.4477-1,1v12c0,.5523.4477,1,1,1h12c.5523,0,1-.4477,1-1V2c0-.5523-.4477-1-1-1h0Z"/></g><g id="Text"><path class="cls-1" d="m5.9863,15h-1.085l-.4346-1.2158h-1.9854l-.4102,1.2158h-1.0645l1.9316-5.3687h1.0605l1.9873,5.3687Zm-1.8418-2.124l-.6846-1.9922-.6719,1.9922h1.3564Z"/><path class="cls-1" d="m6.0078,15v-5.3687h.998v2.1128h1.9678v-2.1128h.999v5.3687h-.999v-2.3477h-1.9678v2.3477h-.998Z"/><path class="cls-1" d="m10.5098,15v-5.3687h.999v2.3896l2.0273-2.3896h1.3496l-1.8711,2.0923,1.9697,3.2764h-1.2959l-1.3682-2.5229-.8115.9009v1.6221h-.999Z"/></g></g></svg>