<?xml version="1.0" encoding="UTF-8"?><svg id="Done" xmlns="http://www.w3.org/2000/svg" xmlns:xlink="http://www.w3.org/1999/xlink" viewBox="0 0 14 14"><defs><style>.cls-1{fill:lime;}.cls-2{clip-path:url(#clippath);}.cls-3{fill:none;}</style><clipPath id="clippath"><polyline class="cls-3" points="-1 7 2 7 2 2 9 2 12 7 15 7 15 4.3044 15 -1 -1 -1"/></clipPath><clipPath id="clippath-1"><path class="cls-3" d="m38.4461,141.2769l-4.998,2.499c-.2821.141-.6141.141-.8962,0l-4.998-2.499c-.3395-.1697-.5539-.5167-.5539-.8962v-5.7615c0-.3795.2144-.7265.5539-.8962l4.998-2.499c.2821-.141.6141-.141.8962,0l4.998,2.499c.3395.1697.5539.5167.5539.8962v5.7615c0,.3795-.2144.7265-.5539.8962Z"/></clipPath></defs><g id="AHK"><g class="cls-2"><path class="cls-1" d="m13,1v12H1V1h12m0-1H1C.4477,0,0,.4477,0,1v12c0,.5523.4477,1,1,1h12c.5523,0,1-.4477,1-1V1c0-.5523-.4477-1-1-1h0Z"/></g><g id="Text"><path class="cls-1" d="m4.9863,14h-1.085l-.4346-1.2158h-1.9854l-.4102,1.2158H.0068l1.9316-5.3687h1.0605l1.9873,5.3687Zm-1.8418-2.124l-.6846-1.9922-.6719,1.9922h1.3564Z"/><path class="cls-1" d="m5.0078,14v-5.3687h.998v2.1128h1.9678v-2.1128h.999v5.3687h-.999v-2.3477h-1.9678v2.3477h-.998Z"/><path class="cls-1" d="m9.5098,14v-5.3687h.999v2.3896l2.0273-2.3896h1.3496l-1.8711,2.0923,1.9697,3.2764h-1.2959l-1.3682-2.5229-.8115.9009v1.6221h-.999Z"/></g></g></svg>