<svg xmlns="http://www.w3.org/2000/svg" id="Done" viewBox="0 0 14 14"><defs><clipPath id="clippath"><path fill="none" d="M-1 7h3V2h7l3 5h3v-8H-1"/></clipPath><clipPath id="clippath-1"/><style>.cls-1{fill:#0f0}</style></defs><g id="AHK"><path d="M13 1v12H1V1zm0-1H1a1 1 0 0 0-1 1v12a1 1 0 0 0 1 1h12a1 1 0 0 0 1-1V1a1 1 0 0 0-1-1" class="cls-1" clip-path="url(#clippath)"/><path id="Text" d="M4.986 14H3.901l-.434-1.216H1.48L1.071 14H.007l1.931-5.369h1.06zm-1.841-2.124L2.46 9.884l-.672 1.992zM5.008 14V8.631h.998v2.113h1.968V8.631h.999V14h-1v-2.348H6.007V14zm4.502 0V8.631h.999v2.39l2.027-2.39h1.35l-1.871 2.093L13.985 14h-1.297l-1.368-2.523-.811.901V14z" class="cls-1"/></g></svg>