<?xml version="1.0" encoding="UTF-8"?><svg id="Done" xmlns="http://www.w3.org/2000/svg" xmlns:xlink="http://www.w3.org/1999/xlink" viewBox="0 0 14 14"><defs><style>.cls-1{clip-path:url(#clippath);}.cls-2{fill:none;}.cls-3{fill:#00c7ff;}</style><clipPath id="clippath"><polyline class="cls-2" points="-1 6 2 6 2 2 9 2 12 6 15 6 15 3.6739 15 -1 -1 -1"/></clipPath><clipPath id="clippath-1"><path class="cls-2" d="m64.4461,11.2769l-4.998,2.499c-.2821.141-.6141.141-.8962,0l-4.998-2.499c-.3395-.1697-.5539-.5167-.5539-.8962v-5.7615c0-.3795.2144-.7265.5539-.8962l4.998-2.499c.2821-.141.6141-.141.8962,0l4.998,2.499c.3395.1697.5539.5167.5539.8962v5.7615c0,.3795-.2144.7265-.5539.8962Z"/></clipPath></defs><g id="txt_copy"><g class="cls-1"><path class="cls-3" d="m13,1v12H1V1h12m0-1H1C.4477,0,0,.4477,0,1v12c0,.5523.4477,1,1,1h12c.5523,0,1-.4477,1-1V1c0-.5523-.4477-1-1-1h0Z"/></g><g id="Text"><path class="cls-3" d="m2.8633,8.2539c.5137,0,.9287.2168,1.2461.6504.3164.4336.4756,1.1914.4756,2.2734,0,1.0801-.1592,1.8369-.4756,2.2695-.3174.4336-.7305.6504-1.2412.6504-.5137,0-.9287-.2148-1.2451-.6445-.3174-.4287-.4756-1.1914-.4756-2.2871,0-1.0742.1582-1.8281.4756-2.2617.3164-.4336.7305-.6504,1.2402-.6504Zm.0029.9102c-.2002,0-.3604.1172-.4795.3516s-.1787.7881-.1787,1.6621.0596,1.4277.1787,1.6602c.1191.2334.2793.3496.4795.3496.2031,0,.3633-.1172.4814-.3516.1172-.2344.1758-.7871.1758-1.6582,0-.874-.0586-1.4277-.1758-1.6621-.1182-.2344-.2783-.3516-.4814-.3516Z"/><path class="cls-3" d="m7.8545,14h-1.0127v-4.1367c-.3779.377-.8154.6543-1.3115.832v-.9961c.2822-.1016.5742-.2822.876-.543.3027-.2617.5117-.5625.6299-.9023h.8184v5.7461Z"/><path class="cls-3" d="m11.084,8.2539c.5137,0,.9287.2168,1.2461.6504.3164.4336.4756,1.1914.4756,2.2734,0,1.0801-.1592,1.8369-.4756,2.2695-.3174.4336-.7305.6504-1.2412.6504-.5137,0-.9287-.2148-1.2451-.6445-.3174-.4287-.4756-1.1914-.4756-2.2871,0-1.0742.1582-1.8281.4756-2.2617.3164-.4336.7305-.6504,1.2402-.6504Zm.0029.9102c-.2002,0-.3604.1172-.4795.3516s-.1787.7881-.1787,1.6621.0596,1.4277.1787,1.6602c.1191.2334.2793.3496.4795.3496.2031,0,.3633-.1172.4814-.3516.1172-.2344.1758-.7871.1758-1.6582,0-.874-.0586-1.4277-.1758-1.6621-.1182-.2344-.2783-.3516-.4814-.3516Z"/></g></g></svg>