<svg xmlns="http://www.w3.org/2000/svg" id="Done" viewBox="0 0 14 14"><defs><clipPath id="clippath"><path fill="none" d="M-1 6h3V2h7l3 4h3v-7H-1"/></clipPath><clipPath id="clippath-1"/><style>.cls-3{fill:#00c7ff}</style></defs><g id="txt_copy"><path d="M13 1v12H1V1zm0-1H1a1 1 0 0 0-1 1v12a1 1 0 0 0 1 1h12a1 1 0 0 0 1-1V1a1 1 0 0 0-1-1" class="cls-3" clip-path="url(#clippath)"/><path id="Text" d="M2.863 8.254q.77 0 1.246.65.476.651.476 2.274-.001 1.62-.476 2.27t-1.24.65q-.772 0-1.246-.645-.476-.643-.476-2.287 0-1.611.476-2.262.475-.65 1.24-.65m.003.91q-.3 0-.48.352c-.18.352-.178.788-.178 1.662s.06 1.427.179 1.66q.178.35.48.35.304 0 .48-.352.176-.351.176-1.658 0-1.311-.175-1.662-.178-.352-.482-.352M7.855 14H6.842V9.863a3.5 3.5 0 0 1-1.312.832V9.7q.425-.152.876-.543.454-.393.63-.902h.819zm3.229-5.746q.77 0 1.246.65.475.651.476 2.274-.001 1.62-.476 2.27t-1.241.65q-.771 0-1.245-.645-.476-.643-.476-2.287 0-1.611.476-2.262.475-.65 1.24-.65m.003.91q-.3 0-.48.352c-.18.352-.178.788-.178 1.662s.06 1.427.178 1.66q.18.35.48.35.304 0 .481-.352.176-.351.176-1.658 0-1.311-.176-1.662-.177-.352-.481-.352" class="cls-3"/></g></svg>