<svg xmlns="http://www.w3.org/2000/svg" id="Done" viewBox="0 0 14 14"><defs><clipPath id="clippath"/><style>.cls-1{fill:#fafafa}</style></defs><g id="Layer_35_copy"><path fill="#fff8e1" d="M4.297 9.823c-.357-.666-.375-1.482.031-2.16l.802-1.367a2.2 2.2 0 0 1 1.9-1.088h.15A2.21 2.21 0 0 1 9.152 4h1.623c.237 0 .464.047.68.119a4.67 4.67 0 0 0-2.279-2.523C7.712.804 6.98.203 6.328 0h.001C5.513-.291 4.676.343 3.89.807 1.998 1.846-.118 3.089.005 5.587l.011-.033a4.17 4.17 0 0 0 1.647 3.038l-.004-.003c.736.642 1.658 1.037 2.638 1.234"/><path d="M4.494 7.38 5.337 6h-1.41a.33.33 0 0 0-.249.099.21.21 0 0 0-.057.194c.112.394.354.739.687.979.056.046.125.07.186.109m2.923-2.514A2.34 2.34 0 0 1 9.15 4h.053A1.102 1.102 0 0 0 7 4.02v.003c0 .345.168.641.417.844"/><circle id="Eyelight" cx="7.552" cy="3.216" r=".552" class="cls-1"/><path d="M3.103 5.128A1.105 1.105 0 1 0 2 4.02v.002c0 .61.493 1.103 1.103 1.105"/><circle cx="2.552" cy="3.216" r=".552" class="cls-1"/><path fill="#f2f2f2" d="M12.978 10.392q.026-.19.028-.392c.002-.202-.012-.264-.028-.392l.856-.66a.2.2 0 0 0 .049-.256l-.812-1.384a.204.204 0 0 0-.247-.088l-1.01.4a3 3 0 0 0-.686-.392l-.155-1.06A.2.2 0 0 0 10.775 6H9.15a.2.2 0 0 0-.198.168l-.155 1.06a3 3 0 0 0-.685.392l-1.01-.4a.2.2 0 0 0-.074-.012.2.2 0 0 0-.174.1l-.812 1.384a.195.195 0 0 0 .049.256l.856.66q-.026.193-.028.392c-.002.199.012.264.028.392l-.856.66a.2.2 0 0 0-.049.256l.812 1.384c.05.085.154.123.247.088l1.01-.4q.317.241.686.392l.155 1.06A.2.2 0 0 0 9.15 14h1.624a.2.2 0 0 0 .198-.168l.155-1.06c.247-.1.474-.236.685-.392l1.01.4a.2.2 0 0 0 .074.012.2.2 0 0 0 .174-.1l.812-1.384a.2.2 0 0 0-.049-.256z"/><path fill="#afafaf" d="M12.978 10.392q.026-.19.028-.392c.002-.202-.012-.264-.028-.392l.856-.66a.2.2 0 0 0 .049-.256l-.812-1.384c-.05-.085-4.273 5.464-4.273 5.464l.155 1.06q.034.156.198.168h1.624a.2.2 0 0 0 .198-.168l.155-1.06c.247-.1.474-.236.685-.392l1.01.4a.2.2 0 0 0 .074.012.2.2 0 0 0 .174-.1l.812-1.384a.2.2 0 0 0-.049-.256z"/><circle cx="9.963" cy="9.943" r="1.5"/></g></svg>