<?xml version="1.0" encoding="UTF-8"?><svg id="Done" xmlns="http://www.w3.org/2000/svg" xmlns:xlink="http://www.w3.org/1999/xlink" viewBox="0 0 14 14"><defs><style>.cls-1{fill:#fafafa;}.cls-2{fill:#b1b1b1;}.cls-2,.cls-3,.cls-4{fill-rule:evenodd;}.cls-5{fill:#fff8e1;}.cls-6{fill:none;}.cls-3{fill:#f2f2f2;}</style><clipPath id="clippath"><path class="cls-6" d="m-117.5539,89.2769l-4.998,2.499c-.2821.141-.6141.141-.8962,0l-4.998-2.499c-.3395-.1697-.5539-.5167-.5539-.8962v-5.7615c0-.3795.2144-.7265.5539-.8962l4.998-2.499c.2821-.141.6141-.141.8962,0l4.998,2.499c.3395.1697.5539.5167.5539.8962v5.7615c0,.3795-.2144.7265-.5539.8962Z"/></clipPath></defs><g id="Layer_37"><path class="cls-5" d="m5,9.9274v-.9274c-.0225-.8179.3452-1.6792,1-2h0c0-1.7793,1.5552-3.769,3.6362-3.769l1.0854-.0076c-.4533-.9188-.6147-1.1688-1.5464-1.6277-1.4633-.7913-2.1952-1.3926-2.8471-1.5956h.0013c-.8165-.291-1.6534.3433-2.4389.8068C1.998,1.8456-.1176,3.0887.0051,5.587c.0034-.0121.0071-.0218.0109-.0335.084,1.2033.6847,2.3113,1.6471,3.0385l-.0042-.0025c.9105.7932,2.101,1.2164,3.3411,1.338Z"/><path d="m5.4985,7.6125c.16-.1475.3055-.2643.5015-.3792v-.2334c.0414-.3453.0836-.6745.1713-1h-2.2437c-.0934-.0037-.184.0322-.2495.0988-.0505.0508-.0721.1237-.0574.1938.1127.3943.3547.7392.6871.9793.2802.2274.6236.3627.9835.3877.0715-.0051.1373-.0335.2072-.0471Z"/><path d="m8.9347,3.3138c-.2021-.2366-.4922-.3949-.8278-.3956-.6101-.0012-1.1057.4924-1.1069,1.1025v.0022c0,.1376.0323.2664.0782.3879.4929-.5323,1.1287-.9349,1.8564-1.097Z"/><path class="cls-1" d="m7.5007,4.0195c.1649-.1331.3431-.2466.5287-.35.0241-.062.0402-.1284.0402-.1989,0-.3051-.2473-.5524-.5524-.5524s-.5523.2473-.5523.5524c0,.2992.2389.5397.5358.549Z"/><path d="m3.1025,5.1276c.6101.0012,1.1057-.4924,1.1069-1.1025.0012-.6101-.4924-1.1057-1.1025-1.1069-.6101-.0012-1.1057.4924-1.1069,1.1025v.0022c0,.6092.4932,1.1035,1.1025,1.1047Z"/><circle class="cls-1" cx="2.6463" cy="3.4706" r=".5523"/><g id="Lock"><path id="lock" class="cls-3" d="m8,8c0-1.3071,1.1913-2.7692,2.6362-2.7692,1.442,0,2.3638,1.4633,2.3638,2.7692v1c.6223.0113.9895.3045,1,1v4h-7v-4c-.018-.6651.3521-.9636,1-1v-1Zm1-.0069c0-.6359.2526-1.2457.7022-1.6954l.2978-.2978h1l.2907.2907c.4541.4541.7093,1.0701.7093,1.7123v.9969h-3v-1.0069Z"/><path id="lock-2" class="cls-2" d="m14,10v4h-7c-.0006-1,7-5,7-4Zm-2-1h-3"/><rect x="10" y="10" width="1" height="2"/><polygon class="cls-4" points="13.2315 8.5 7.7085 8.5 7.738 9 13.261 9 13.2315 8.5"/></g></g></svg>