<?xml version="1.0" encoding="UTF-8"?><svg id="Done" xmlns="http://www.w3.org/2000/svg" width="16" height="16" viewBox="0 0 16 16"><defs><style>.cls-1{fill:#fafafa;}.cls-2{fill:#fff8e1;}.cls-3{fill:#afafaf;}.cls-4{fill:#f2f2f2;}</style></defs><g id="Layer_35_copy"><path class="cls-2" d="m5.2966,10.8231c-.3563-.6663-.3751-1.4822.0315-2.16l.8018-1.3667c.3887-.6699,1.1172-1.0884,1.8994-1.0884h.1514c.3613-.7178,1.1172-1.208,1.9707-1.208h1.623c.237,0,.4632.0468.6796.1185-.4224-1.0923-1.2206-2.0016-2.2788-2.5229-1.4633-.7913-2.1952-1.3926-2.8471-1.5956h.0013c-.8165-.291-1.6534.3433-2.4389.8068C2.998,2.8456.8824,4.0887,1.0051,6.587c.0034-.0121.0071-.0218.0109-.0335.084,1.2033.6847,2.3113,1.6471,3.0385l-.0042-.0025c.7361.6413,1.6577,1.037,2.6377,1.2336Z"/><path d="m5.4938,8.3806l.8432-1.3806h-1.4094c-.0934-.0037-.184.0322-.2495.0988-.0505.0508-.0721.1237-.0574.1938.1127.3943.3547.7392.6871.9793.0564.0458.1249.0704.186.1086Z"/><path d="m8.4169,5.8668c.4044-.5215,1.1064-.8607,1.7345-.8668h.053c-.0129-.5978-.4963-1.0806-1.0975-1.0818-.6101-.0012-1.1057.4924-1.1069,1.1025v.0022c0,.3455.1684.6414.4169.8439Z"/><circle id="Eyelight" class="cls-1" cx="8.5523" cy="4.2161" r=".5523"/><path d="m4.1025,6.1276c.6101.0012,1.1057-.4924,1.1069-1.1025.0012-.6101-.4924-1.1057-1.1025-1.1069-.6101-.0012-1.1057.4924-1.1069,1.1025v.0022c0,.6092.4932,1.1035,1.1025,1.1047Z"/><circle class="cls-1" cx="3.5523" cy="4.2161" r=".5523"/><path class="cls-4" d="m13.9779,11.392c.0162-.128.0284-.256.0284-.392s-.0122-.264-.0284-.392l.8562-.66c.0771-.06.0974-.168.0487-.256l-.8116-1.384c-.0494-.0853-.1543-.1225-.2475-.088l-1.0104.4c-.211-.16-.4382-.292-.6857-.392l-.1542-1.06c-.0139-.0974-.0991-.1694-.1988-.168h-1.6231c-.1014,0-.1867.072-.1989.168l-.1542,1.06c-.2475.1-.4748.236-.6858.392l-1.0104-.4c-.0235-.0079-.0482-.0119-.073-.012-.069,0-.138.036-.1745.1l-.8116,1.384c-.0528.088-.0284.196.0487.256l.8562.66c-.0163.128-.0284.26-.0284.392s.0121.264.0284.392l-.8562.66c-.0771.06-.0974.168-.0487.256l.8116,1.384c.0494.0853.1543.1226.2475.088l1.0104-.4c.211.16.4383.292.6858.392l.1542,1.06c.0122.096.0974.168.1989.168h1.6231c.1014,0,.1867-.072.1988-.168l.1542-1.06c.2475-.1.4747-.236.6857-.392l1.0104.4c.0243.008.0487.012.073.012.069,0,.138-.036.1745-.1l.8116-1.384c.0487-.088.0284-.196-.0487-.256l-.8562-.66Z"/><path class="cls-3" d="m13.9779,11.392c.0162-.128.0284-.256.0284-.392s-.0122-.264-.0284-.392l.8562-.66c.0771-.06.0974-.168.0487-.256l-.8116-1.384c-.0494-.0853-4.2728,5.464-4.2728,5.464l.1542,1.06c.0229.1039.0892.1599.1989.168h1.6231c.1014,0,.1867-.072.1988-.168l.1542-1.06c.2475-.1.4747-.236.6857-.392l1.0104.4c.0243.008.0487.012.073.012.069,0,.138-.036.1745-.1l.8116-1.384c.0487-.088.0284-.196-.0487-.256l-.8562-.66Z"/><circle cx="10.9631" cy="10.9426" r="1.5"/></g></svg>