<svg xmlns="http://www.w3.org/2000/svg" id="Done" viewBox="0 0 14 14"><defs><clipPath id="clippath"/><style>.cls-1{fill:#fafafa}</style></defs><g id="Layer_37"><path fill="#fff8e1" d="M5 9.927V9c-.022-.818.345-1.68 1-2 0-1.78 1.555-3.769 3.636-3.769l1.086-.008c-.454-.918-.615-1.168-1.547-1.627C7.712.804 6.98.203 6.328 0h.001c-.816-.29-1.653.343-2.438.807C1.997 1.846-.119 3.089.004 5.587l.011-.033a4.17 4.17 0 0 0 1.647 3.038l-.004-.003c.91.794 2.1 1.217 3.341 1.338"/><path d="M5.499 7.613A2.8 2.8 0 0 1 6 7.233V7c.041-.345.084-.675.171-1H3.928a.33.33 0 0 0-.25.099.21.21 0 0 0-.057.193c.112.395.354.74.687.98.28.227.623.363.983.388.072-.006.138-.034.208-.048m3.436-4.298a1.09 1.09 0 0 0-.828-.396A1.105 1.105 0 0 0 7 4.021v.002c0 .138.032.266.078.388.493-.532 1.129-.935 1.857-1.097"/><path d="M7.5 4.02a4 4 0 0 1 .53-.35.6.6 0 0 0 .04-.2.552.552 0 1 0-1.105 0c0 .3.239.54.536.55" class="cls-1"/><path d="M3.103 5.128A1.105 1.105 0 1 0 2 4.02v.002c0 .61.493 1.103 1.103 1.105"/><circle cx="2.646" cy="3.471" r=".552" class="cls-1"/><g id="Lock"><path id="lock" fill="#f2f2f2" fill-rule="evenodd" d="M8 8c0-1.307 1.191-2.77 2.636-2.77C12.078 5.23 13 6.695 13 8v1c.622.011.99.305 1 1v4H7v-4c-.018-.665.352-.964 1-1zm1-.007c0-.636.253-1.246.702-1.695L10 6h1l.29.29c.455.455.71 1.07.71 1.713V9H9z"/><path id="lock-2" fill="#b1b1b1" fill-rule="evenodd" d="M14 10v4H7c0-1 7-5 7-4m-2-1H9"/><path d="M10 10h1v2h-1z"/><path fill-rule="evenodd" d="M13.232 8.5H7.709l.029.5h5.523z"/></g></g></svg>