<svg xmlns="http://www.w3.org/2000/svg" id="Done" viewBox="0 0 14 14"><defs><clipPath id="clippath"/><style>.cls-1{fill:#fafafa}.cls-2{fill:#181f21}</style></defs><g id="Layer_35"><path fill="#fff8e1" d="M13.973 7.422a5 5 0 0 0-.16-1.15l-.001.016a5.58 5.58 0 0 0-2.876-3.386C9.192 1.959 8.32 1.242 7.543 1h.001c-.973-.347-1.97.41-2.907.962C2.382 3.2-.14 4.682.007 7.659l.012-.04a4.97 4.97 0 0 0 1.963 3.622l-.005-.003c3.885 3.385 12.021 1.298 11.996-3.816"/><path d="M8.91 9.118A.4.4 0 0 0 8.615 9H5.363a.4.4 0 0 0-.298.118.25.25 0 0 0-.068.23c.134.47.423.882.819 1.168a2.1 2.1 0 0 0 1.172.462 2.1 2.1 0 0 0 1.17-.462c.396-.286.685-.697.819-1.167a.25.25 0 0 0-.066-.231" class="cls-2"/><circle cx="9.981" cy="7.347" r=".998" class="cls-2"/><circle cx="9.482" cy="6.848" r=".499" class="cls-1"/><path d="M3.996 8.345a.998.998 0 1 0-.996-1v.002c0 .55.446.997.996.998" class="cls-2"/><circle cx="3.493" cy="6.848" r=".499" class="cls-1"/></g></svg>