<?xml version="1.0" encoding="UTF-8"?><svg id="Done" xmlns="http://www.w3.org/2000/svg" width="16" height="16" viewBox="0 0 16 16"><defs><style>.cls-1{fill:#fafafa;}.cls-2{fill:#181f21;}.cls-3{fill:#fff8e1;}</style></defs><g id="Layer_35"><path class="cls-3" d="m14.9734,8.4222c-.0072-.3886-.0609-.7749-.1597-1.1508l-.002.017c-.4488-1.478-1.4899-2.704-2.8755-3.3865-1.7442-.9432-2.6165-1.6598-3.3935-1.9019h.0015c-.9731-.3468-1.9707.4092-2.9069.9617C3.3815,4.1998.8599,5.6815,1.0061,8.6593c.004-.0145.0085-.026.013-.0399.1002,1.4342.8161,2.7549,1.9632,3.6216l-.005-.003c3.8851,3.3845,12.021,1.298,11.9961-3.8157Z"/><path class="cls-2" d="m9.9105,10.1178c-.0786-.0784-.186-.1209-.2969-.1178h-3.2508c-.1113-.0044-.2193.0384-.2974.1178-.0603.0606-.086.1474-.0684.2311.1343.4699.4227.8811.8189,1.1673.3339.271.7433.4324,1.1723.4621.428-.0303.8362-.1917,1.1693-.4621.3964-.2861.685-.6973.8194-1.1673.0188-.0832-.006-.1703-.0659-.2311h-.0005Z"/><circle class="cls-2" cx="10.981" cy="8.3466" r=".9981"/><circle class="cls-1" cx="10.482" cy="7.8476" r=".499"/><path class="cls-2" d="m4.9961,9.3447c.5512.0011.999-.4449,1.0001-.9961.0011-.5512-.4449-.999-.9961-1.0001-.5512-.0011-.999.4449-1.0001.9961v.002c0,.5505.4456.997.9961.9981Z"/><circle class="cls-1" cx="4.4934" cy="7.8476" r=".499"/></g></svg>