<?xml version="1.0" encoding="UTF-8"?><svg id="Done" xmlns="http://www.w3.org/2000/svg" xmlns:xlink="http://www.w3.org/1999/xlink" viewBox="0 0 14 14"><defs><style>.cls-1{fill:#fff;}.cls-2{fill:rgba(19,19,19,0);}.cls-3{fill:none;}.cls-4{fill:#00599c;}</style><clipPath id="clippath"><path class="cls-3" d="m-91.5539,115.2769l-4.998,2.499c-.2821.141-.6141.141-.8962,0l-4.998-2.499c-.3395-.1697-.5539-.5167-.5539-.8962v-5.7615c0-.3795.2144-.7265.5539-.8962l4.998-2.499c.2821-.141.6141-.141.8962,0l4.998,2.499c.3395.1697.5539.5167.5539.8962v5.7615c0,.3795-.2144.7265-.5539.8962Z"/></clipPath></defs><g id="Layer_21"><rect id="rect72" class="cls-2" x="-.1" y="0" width="13.9946" height="13.9946"/><g id="g79"><path id="path75" class="cls-4" d="m.9,3v8l6,3,6-3V3L6.9,0,.9,3Z"/><path id="path76" class="cls-1" d="m7.1159,10.2846c-1.8159,0-3.2873-1.4759-3.2873-3.2873s1.4759-3.2873,3.2873-3.2873c1.1718,0,2.2631.6306,2.849,1.6459l-1.4223.823c-.2952-.5054-.8408-.823-1.4268-.823-.9079,0-1.6459.738-1.6459,1.6459s.738,1.6459,1.6459,1.6459c.5859,0,1.1316-.3131,1.4268-.823l1.4223.823c-.5859,1.0108-1.6772,1.637-2.849,1.637Z"/></g></g></svg>