<?xml version="1.0" encoding="UTF-8"?><svg id="Done" xmlns="http://www.w3.org/2000/svg" width="16" height="16" viewBox="0 0 16 16"><defs><style>.cls-1{fill:#fff;}.cls-2{fill:rgba(19,19,19,0);}.cls-3{fill:#00599c;}</style></defs><g id="Layer_21"><rect id="rect72" class="cls-2" x=".9" y="1" width="13.9946" height="13.9946"/><g id="g79"><path id="path75" class="cls-3" d="m1.9,4v8l6,3,6-3V4L7.9,1,1.9,4Z"/><path id="path76" class="cls-1" d="m8.1159,11.2846c-1.8159,0-3.2873-1.4759-3.2873-3.2873s1.4759-3.2873,3.2873-3.2873c1.1718,0,2.2631.6306,2.849,1.6459l-1.4223.823c-.2952-.5054-.8408-.823-1.4268-.823-.9079,0-1.6459.738-1.6459,1.6459s.738,1.6459,1.6459,1.6459c.5859,0,1.1316-.3131,1.4268-.823l1.4223.823c-.5859,1.0108-1.6772,1.637-2.849,1.637Z"/></g></g></svg>