<?xml version="1.0" encoding="UTF-8"?><svg id="Done" xmlns="http://www.w3.org/2000/svg" width="16" height="16" viewBox="0 0 16 16"><defs><style>.cls-1{fill:#fff;}.cls-2{fill:#b3b3b3;}.cls-3{fill:#f2f2f2;}</style></defs><g id="Layer_38"><path id="Gear" class="cls-3" d="m13.5435,8l1.3337-1.841c.1368-.105.0864-.448.0864-.448l-1.4393-2.422s-.2736-.2144-.439-.154l-2.0853.1521-1.1962-1.9931c-.0249-.1689-.3405-.294-.3405-.294h-2.8906s-.3311.126-.3527.294l-1.22,1.9686-2.0616-.1276c-.0417-.0137-.0854-.0209-.1295-.021-.1223,0-.3094.175-.3094.175l-1.4393,2.422s-.0504.343.0864.448l1.4039,1.841-1.4039,1.841c-.1367.105-.0864.448-.0864.448l1.4393,2.422s.2736.2144.439.154l2.0616-.0956,1.22,1.9366c.0216.168.1727.294.3527.294h2.8785c.1799,0,.331-.126.3526-.294l1.1962-1.9363,2.0853.0953c.0432.014.0864.021.1295.021.1224,0,.2447-.063.3094-.175l1.4393-2.422c.0864-.154.0504-.343-.0864-.448l-1.3337-1.841Zm-5.5435,4c-2.2091,0-4-1.7909-4-4s1.7909-4,4-4,4,1.7908,4,4-1.7908,4-4,4Z"/><path id="Gear-2" class="cls-2" d="m13.5435,8l1.3337-1.841c.1368-.105.0864-.448.0864-.448l-1.4393-2.422L5,12.7693l1.22,1.9366c.0216.168.1727.294.3527.294h2.8785c.1799,0,.331-.126.3526-.294l1.1962-1.9363,2.0853.0953c.0432.014.0864.021.1295.021.1224,0,.2447-.063.3094-.175l1.4393-2.422c.0864-.154.0504-.343-.0864-.448l-1.3337-1.841Zm-5.5435,4c-2.2091,0-4-1.7909-4-4s1.7909-4,4-4,4,1.7908,4,4-1.7908,4-4,4Z"/><g id="Clock"><circle id="Clock_Border" cx="8" cy="8" r="4"/><circle id="Clock_Face" class="cls-1" cx="8" cy="8" r="3"/><polyline points="7.2 8.4 8.7516 9.5039 9.2121 8.8033 8.0119 8"/><polyline points="8.2 8.4 8.2 6.7581 7.2 6.7581 7.2 8.4"/></g></g></svg>