<svg xmlns="http://www.w3.org/2000/svg" viewBox="0 0 14 14"><path fill="#f2f2f2" d="m12.544 7 1.333-1.841c.137-.105.087-.448.087-.448l-1.44-2.422s-.273-.214-.439-.154L10 2.287 8.804.294C8.779.125 8.464 0 8.464 0H5.572s-.331.126-.353.294L4 2.263l-2.062-.128a.4.4 0 0 0-.13-.021c-.121 0-.308.175-.308.175L.06 4.711s-.05.343.087.448L1.55 7 .147 8.841c-.137.105-.087.448-.087.448l1.44 2.422s.273.214.439.154L4 11.769l1.22 1.937a.35.35 0 0 0 .353.294H8.45c.18 0 .331-.126.353-.294L10 11.77l2.085.095a.4.4 0 0 0 .13.021.36.36 0 0 0 .31-.175l1.439-2.422a.35.35 0 0 0-.087-.448zM7 11a4 4 0 1 1 0-8 4 4 0 0 1 0 8"/><path fill="#b3b3b3" d="m12.544 7 1.333-1.841c.137-.105.087-.448.087-.448l-1.44-2.422L4 11.769l1.22 1.937a.35.35 0 0 0 .353.294H8.45c.18 0 .331-.126.353-.294L10 11.77l2.085.095a.4.4 0 0 0 .13.02.36.36 0 0 0 .31-.174l1.439-2.422a.35.35 0 0 0-.087-.448zM7 11a4 4 0 1 1 0-8 4 4 0 0 1 0 8"/><circle cx="7" cy="7" r="4"/><circle cx="7" cy="7" r="3" fill="#fff"/><path d="m6.2 7.4 1.552 1.104.46-.7L7.012 7"/><path d="M7.2 7.4V5.758h-1V7.4"/></svg>