<?xml version="1.0" encoding="UTF-8"?><svg id="Done" xmlns="http://www.w3.org/2000/svg" xmlns:xlink="http://www.w3.org/1999/xlink" viewBox="0 0 14 14"><defs><style>.cls-1{fill:#ff3600;}.cls-2{fill:none;}</style><clipPath id="clippath"><path class="cls-2" d="m38.4461,37.2769l-4.998,2.499c-.2821.141-.6141.141-.8962,0l-4.998-2.499c-.3395-.1697-.5539-.5167-.5539-.8962v-5.7615c0-.3795.2144-.7265.5539-.8962l4.998-2.499c.2821-.141.6141-.141.8962,0l4.998,2.499c.3395.1697.5539.5167.5539.8962v5.7615c0,.3795-.2144.7265-.5539.8962Z"/></clipPath></defs><g id="Layer_39"><path class="cls-1" d="m14,7.913c.0004,1.9391-.8208,3.7875-2.26,5.087h-1.68c.035-.162-.052-.274-.165-.35-.236-.162-.385-.431-.35-.71.093-.735.545-1.674,2.194-2.536,1.115-.588,1.32-1.8,1.398-1.978.113-.294.082-.543-.154-.781-.427-.431-.889-.822-1.449-1.075-.786-.365-1.588-.345-2.384-.051-.139.05-.108-.056-.118-.101-.1068-.5181-.2905-1.0173-.545-1.481-.519-.923-1.243-1.603-2.322-1.831-.16-.036-.324-.046-.488-.066-.077-.01-.118.01-.098.101.144.68.345,1.334.781,1.892.2.259.473.431.74.609.283.192.58.37.848.588.252.213.457.461.555.817-.036-.037-.053-.047-.063-.061-.822-1.289-2.43-1.857-4.048-1.39-.15.04-.129.091-.057.198.468.71,1.11,1.217,1.87,1.608.565.289,1.151.527,1.788.608.288.036.15.228.195.457.062.355.211.466.16.436-.977-.386-1.788-.538-2.461-.538-2.78,0-3.232,2.617-3.211,2.648-.041-.016-.71-.259-.858.4-.154.67.755,1.106.755,1.106.118-.791.837-.964.925-.984-.072.04-.54.31-.684,1.045-.123.65.396,1.222.591,1.42h-1.15C.8191,11.6985,0,9.8509,0,7.913,0,4.093,3.129,1,6.997,1c3.87,0,7.003,3.094,7.003,6.913Zm-5.086,5.087h-.74c.0377-.039.0628-.0885.072-.142.062-.355-.247-.426-.247-.858h-1.705c0,.432.678.402,1.3.148.616-.259,1.114-.71,1.202-.832-.2165.4803-.2277,1.0282-.031,1.517.0278.0719.0807.1312.149.167Z"/></g></svg>