<svg xmlns="http://www.w3.org/2000/svg" viewBox="0 0 14 14"><path fill="#330c00" fill-rule="evenodd" stroke="#bf7445" stroke-miterlimit="10" stroke-width=".5" d="M10.74 3.9c0 .621-1.988 1.125-4.74 1.125S1.259 4.52 1.259 3.9 3.248 2.775 6 2.775s4.74.504 4.74 1.125Z"/><path fill="#a5531c" fill-rule="evenodd" d="M1 4v7c0 .867.741 1.928 1.472 2.393C3.213 13.865 5 14 6 14s2.731-.135 3.472-.607C10.203 12.928 11 11.867 11 11V4c-1 1-4 1-5 1S2 5 1 4"/><path fill-rule="evenodd" d="M6 14c1 0 2.731-.135 3.472-.607C10.203 12.928 11 11.867 11 11V4c-.42.42-1.19.663-2.017.804C11 12 5 14 6 14" opacity=".25"/><path fill="#fff" fill-rule="evenodd" d="M1 4v7c0 .867.741 1.928 1.472 2.393.14.089.315.165.515.231L2.99 4.8C2.173 4.657 1.415 4.415 1 4" opacity=".1"/><path fill="#aa592d" fill-rule="evenodd" d="M11 4.975V6c1 0 2 0 2 2s-1 2-2 2v1c2 0 3 0 3-3s-1-3-3-3.025"/></svg>