<?xml version="1.0" encoding="UTF-8"?><svg id="Done" xmlns="http://www.w3.org/2000/svg" xmlns:xlink="http://www.w3.org/1999/xlink" viewBox="0 0 14 14"><defs><style>.cls-1{fill:#0070ff;}.cls-2{clip-path:url(#clippath);}.cls-3{fill:none;}</style><clipPath id="clippath"><polyline class="cls-3" points="-1 6 2 6 2 2 9 2 12 6 15 6 15 3.6739 15 -1 -1 -1"/></clipPath><clipPath id="clippath-1"><path class="cls-3" d="m-117.5539,115.2769l-4.998,2.499c-.2821.141-.6141.141-.8962,0l-4.998-2.499c-.3395-.1697-.5539-.5167-.5539-.8962v-5.7615c0-.3795.2144-.7265.5539-.8962l4.998-2.499c.2821-.141.6141-.141.8962,0l4.998,2.499c.3395.1697.5539.5167.5539.8962v5.7615c0,.3795-.2144.7265-.5539.8962Z"/></clipPath></defs><g id="Layer_29"><g class="cls-2"><path class="cls-1" d="m13,1v12H1V1h12m0-1H1C.4477,0,0,.4477,0,1v12c0,.5523.4477,1,1,1h12c.5523,0,1-.4477,1-1V1c0-.5523-.4477-1-1-1h0Z"/></g><g id="Text"><path class="cls-1" d="m4.168,11.3315l1.1641.3999c-.1816.7207-.4844,1.2476-.9062,1.5801-.4229.3325-.9424.4985-1.5596.4985-.7754,0-1.4043-.2651-1.8867-.7954-.5547-.6123-.8311-1.4385-.8311-2.4785,0-1.0986.2783-1.9585.8369-2.5796.4854-.5391,1.1387-.8086,1.958-.8086.667,0,1.2256.2021,1.6748.6064.3203.2871.5547.7134.7041,1.2788l-1.1885.3076c-.0762-.3486-.2275-.6157-.4541-.8018s-.4932-.2793-.8008-.2793c-.4404,0-.7988.1699-1.0762.5098-.2783.3398-.417.9009-.417,1.6831,0,.8115.1357,1.3887.4062,1.7314s.6221.5142,1.0547.5142c.3164,0,.5908-.1089.8213-.3271.2314-.2183.3975-.5649.5-1.0396Z"/><path class="cls-1" d="m7.0459,12.7729v-1.6743h-1.5596v-1.1558h1.5596v-1.6743h1.0391v1.6743h1.5654v1.1558h-1.5654v1.6743h-1.0391Z"/><path class="cls-1" d="m11.2939,12.7729v-1.6743h-1.5596v-1.1558h1.5596v-1.6743h1.0391v1.6743h1.5654v1.1558h-1.5654v1.6743h-1.0391Z"/></g></g></svg>