<svg xmlns="http://www.w3.org/2000/svg" viewBox="0 0 14 14"><defs><clipPath id="a"><path fill="none" d="M-1 6h3V2h7l3 4h3v-7H-1"/></clipPath></defs><g clip-path="url(#a)"><path fill="#0087ff" d="M13 1v12H1V1zm0-1H1a1 1 0 0 0-1 1v12a1 1 0 0 0 1 1h12a1 1 0 0 0 1-1V1a1 1 0 0 0-1-1"/></g><path fill="#0086ff" d="m4.168 11.332 1.164.4q-.272 1.08-.906 1.58-.634.498-1.56.498-1.163 0-1.886-.795-.832-.92-.831-2.479 0-1.648.836-2.58.73-.808 1.958-.808 1.001 0 1.675.606.48.43.704 1.28l-1.188.307q-.114-.523-.454-.802c-.34-.28-.493-.28-.801-.28q-.66 0-1.076.51-.418.51-.417 1.684 0 1.217.406 1.73c.406.514.622.515 1.055.515q.474 0 .82-.327.348-.327.5-1.04m2.879 1.442v-1.674h-1.56V9.943h1.56V8.269h1.039v1.674H9.65v1.156H8.085v1.674zm4.248 0v-1.674h-1.56V9.943h1.56V8.269h1.039v1.674h1.565v1.156h-1.565v1.674z"/></svg>