<svg xmlns="http://www.w3.org/2000/svg" viewBox="0 0 14 14"><defs><clipPath id="a"><path fill="none" d="M-1.005 15 2 15.024v-3L1.995 12V2h7l3 3h3v-6h-16"/></clipPath></defs><g clip-path="url(#a)"><path fill="#00baff" d="M12.994 1v12h-12L.996 1zm0-1h-12a1 1 0 0 0-1 1v12a1 1 0 0 0 1 1h12a1 1 0 0 0 1-1V1a1 1 0 0 0-1-1"/></g><path fill="#00b9fd" d="m7.417 11.075 1.205.467q-.283 1.26-.939 1.843t-1.615.582q-1.205 0-1.953-.928-.861-1.072-.861-2.891 0-1.923.867-3.01.755-.944 2.027-.944 1.037 0 1.735.708.498.502.728 1.492l-1.23.359q-.119-.61-.47-.936a1.18 1.18 0 0 0-.83-.325q-.683 0-1.114.594c-.431.594-.432 1.052-.432 1.964q0 1.42.42 2.02.421.6 1.093.6.492 0 .851-.382.359-.383.518-1.213M10 12H9v-1h1V9H9V8h1V7h1v1h1V7h1v1h1v1h-1v2h1v1h-1v1h-1v-1h-1v1h-1zm1-3v2h1V9z"/></svg>