<?xml version="1.0" encoding="UTF-8"?><svg id="Done" xmlns="http://www.w3.org/2000/svg" xmlns:xlink="http://www.w3.org/1999/xlink" viewBox="0 0 14 14"><defs><style>.cls-1{fill:#00baff;}.cls-2{clip-path:url(#clippath);}.cls-3{fill:none;}.cls-4{fill:#00b9fd;}</style><clipPath id="clippath"><polyline class="cls-3" points="-1.0054 15 2 15.0245 2 12.0245 1.9946 12 1.9946 2 8.9946 2 11.9946 5 14.9946 5 14.9946 -1 -1.0054 -1"/></clipPath><clipPath id="clippath-1"><path class="cls-3" d="m116.4461,89.2769l-4.998,2.499c-.2821.141-.6141.141-.8962,0l-4.998-2.499c-.3395-.1697-.5539-.5167-.5539-.8962v-5.7615c0-.3795.2144-.7265.5539-.8962l4.998-2.499c.2821-.141.6141-.141.8962,0l4.998,2.499c.3395.1697.5539.5167.5539.8962v5.7615c0,.3795-.2144.7265-.5539.8962Z"/></clipPath></defs><g id="Layer_10_copy_6"><g class="cls-2"><path class="cls-1" d="m12.9944,1l.0003.0003v3.9997l-.0003,8-11.9997-.0003.0003-11.9997h11.9995m0-1H.9949C.4425,0-.0054.4478-.0054,1.0003v11.9995c0,.5524.4478,1.0003,1.0003,1.0003h11.9995c.5524,0,1.0003-.4478,1.0003-1.0003V1.0003c0-.5524-.4478-1.0003-1.0003-1.0003h0Z"/></g><path class="cls-4" d="m7.4167,11.0752l1.2051.4668c-.1885.8408-.501,1.4551-.9385,1.8428-.4375.3887-.9761.582-1.6152.582-.8032,0-1.4541-.3086-1.9531-.9277-.5742-.7139-.8613-1.6787-.8613-2.8916,0-1.2817.2891-2.2847.8672-3.0098.5029-.6284,1.1787-.9434,2.0273-.9434.6909,0,1.269.2363,1.7344.708.332.335.5747.832.7285,1.4917l-1.2305.3589c-.0786-.4067-.2354-.7188-.4697-.9355-.2344-.2173-.5112-.3257-.8296-.3257-.4556,0-.8271.1982-1.1147.5947s-.4312,1.0513-.4312,1.9634c0,.9473.1401,1.6201.4204,2.0205.2803.3994.644.5996,1.0918.5996.3281,0,.6118-.127.8516-.3818.2388-.2549.4116-.6592.5176-1.2129Z"/><path class="cls-4" d="m10,12h-1v-1h1v-2h-1v-1h1v-1h1v1h1v-1h1v1h1v1h-1v2h1v1h-1v1h-1v-1h-1v1h-1v-1Zm1-3v2h1v-2h-1Z"/></g></svg>