<?xml version="1.0" encoding="UTF-8"?><svg id="Layer_73" xmlns="http://www.w3.org/2000/svg" xmlns:xlink="http://www.w3.org/1999/xlink" viewBox="0 0 14 14"><defs><style>.cls-1{fill:#f50637;stroke:#d20f39;stroke-linecap:round;stroke-linejoin:round;}.cls-2{fill:#71c6ff;}.cls-3{fill:none;}</style><clipPath id="clippath"><path class="cls-3" d="m-65.5539,11.2769l-4.998,2.499c-.2821.141-.6141.141-.8962,0l-4.998-2.499c-.3395-.1697-.5539-.5167-.5539-.8962v-5.7615c0-.3795.2144-.7265.5539-.8962l4.998-2.499c.2821-.141.6141-.141.8962,0l4.998,2.499c.3395.1697.5539.5167.5539.8962v5.7615c0,.3795-.2144.7265-.5539.8962Z"/></clipPath></defs><path class="cls-2" d="m4.8735,2H1v2h3.5028c.007-.7099.1385-1.3826.3707-2Z"/><path class="cls-2" d="m5.5068,7.2705c-.273-.3909-.4811-.8227-.6459-1.2705H1v2h4.9206l-.4138-.7295Z"/><path class="cls-2" d="m10.2363,12.4893c-.0771.0068-.1553.0107-.2344.0107h-.0029c-.6681,0-1.301-.2656-1.7841-.7149l-.2149.2149h-4l-1-1v-1H1v2l2,2h6l1.4038-1.4038-.1675-.1069Z"/><path id="Path" class="cls-1" d="m6.5,4.0622c-.0012.7683.2428,1.5162.6953,2.1312l2.2449,3.9577c.0131.0255.0262.0509.0422.0742l.0049.0088c.1201.1674.3113.2667.5146.2659.1931,0,.3616-.0893.4772-.2271l.0058.0031.0222-.0391c.0336-.0448.0614-.0937.0828-.1456l2.1993-3.8777c.4621-.6185.7118-1.3744.7108-2.1514,0-1.9673-1.6845-3.5622-3.6183-3.5622s-3.3817,1.5949-3.3817,3.5622Z"/><g id="Marker"><circle id="Oval" cx="10" cy="4" r="1.5"/></g></svg>