<?xml version="1.0" encoding="UTF-8"?><svg id="Layer_74" xmlns="http://www.w3.org/2000/svg" xmlns:xlink="http://www.w3.org/1999/xlink" viewBox="0 0 14 14"><defs><style>.cls-1{fill:#71c6ff;}.cls-2{fill:none;}</style><clipPath id="clippath"><path class="cls-2" d="m-39.5539,11.2769l-4.998,2.499c-.2821.141-.6141.141-.8962,0l-4.998-2.499c-.3395-.1697-.5539-.5167-.5539-.8962v-5.7615c0-.3795.2144-.7265.5539-.8962l4.998-2.499c.2821-.141.6141-.141.8962,0l4.998,2.499c.3395.1697.5539.5167.5539.8962v5.7615c0,.3795-.2144.7265-.5539.8962Z"/></clipPath></defs><path class="cls-1" d="m14,1v10l-3,3h-7l-3-3v-2h2v1l2,2h5l2-2v-3H1v-2h11v-2H1V1h13Z"/></svg>