<svg xmlns="http://www.w3.org/2000/svg" viewBox="0 0 14 14"><path fill="#10c7ff" d="M14 5s-1 0-2.037.821C12 4 11 3 11 3s-1 2-.485 3.764A2.26 2.26 0 0 1 9.47 7H0c0 2 .352 6 5 6 3.334 0 6-2 6.694-5.495C13.445 7.64 14 5 14 5"/><path fill="none" d="M8.145 5H8zC8.068 5 8 4.906 8 4.812 8 4.906 7.932 5 7.836 5c.106 0 .164.084.164.168C8 5.074 8.068 5 8.145 5"/><path fill="#0288d1" d="M4 5.168v1.664c0 .094.068.168.145.168h1.71C5.932 7 6 6.926 6 6.832V5.16A.16.16 0 0 0 5.84 5H4.145C4.068 5 4 5.074 4 5.168m4-.328V3.18C8 3.074 7.932 3 7.855 3h-1.71C6.068 3 6 3.064 6 3.18v1.65c0 .085.068.17.145.17H7.84A.16.16 0 0 0 8 4.84m0 1.992V5.168C8 5.084 7.932 5 7.845 5h-1.7C6.068 5 6 5.074 6 5.168v1.664c0 .094.068.168.145.168h1.7C7.932 7 8 6.926 8 6.832m-5 0V5.168C3 5.084 2.942 5 2.836 5H1.145C1.068 5 1 5.074 1 5.168v1.664c0 .094.058.168.145.168h1.69A.16.16 0 0 0 3 6.832m0-2.02V3.166C3 3.073 2.942 3 2.836 3H1.145C1.068 3 1 3.063 1 3.167v1.644c0 .095.058.189.145.189h1.69C2.933 5 3 4.906 3 4.812"/></svg>