<?xml version="1.0" encoding="UTF-8"?><svg id="Done" xmlns="http://www.w3.org/2000/svg" xmlns:xlink="http://www.w3.org/1999/xlink" viewBox="0 0 14 14"><defs><style>.cls-1{fill:#fafafa;}.cls-2{fill:#efebe9;}.cls-3{fill:none;}.cls-4{fill:#ede7f6;}.cls-5{fill:#eee;}</style><clipPath id="clippath"><path class="cls-3" d="m116.4461,89.2769l-4.998,2.499c-.2821.141-.6141.141-.8962,0l-4.998-2.499c-.3395-.1697-.5539-.5167-.5539-.8962v-5.7615c0-.3795.2144-.7265.5539-.8962l4.998-2.499c.2821-.141.6141-.141.8962,0l4.998,2.499c.3395.1697.5539.5167.5539.8962v5.7615c0,.3795-.2144.7265-.5539.8962Z"/></clipPath></defs><g id="Layer_34"><path class="cls-4" d="m3.3807,8.167c.1993-.13.364-.455.2643-.6846-.273.117-.26.3856-.2643.6846Zm3.0851.7453c.2166-.0693.4246-.312.3076-.5633-.169.117-.2773.2773-.3076.5633h0Z"/><path class="cls-1" d="m.4039,12.5c0,.273.0693.5676.26.6716.7019.3943,3.1631.0867,3.9994-.0997.4376-.0997.7929-.4246,1.2046-.6023.9273-.403,1.5989-.7279,2.3398-1.2696.5373-.3943,1.3909-1.5036,1.4819-2.1665l-.7323-.1647c-.0173.7453-.1863.9143-.8493,1.0876-.4463.1213-1.3172.1473-1.7722.0693-.6023-.0997-.8753-.416-1.1482-.7756-.5286-.7019.117-1.1916-.7193-1.2392-.8796,1.0789-2.4308.3033-3.1111.195-.2903.4203-.9706,3.1501-.9619,3.774.4203-.143.6846.013,1.0616.1603,1.3346.5156.169.9706-.364.8363-.364-.0867-.4766-.325-.6889-.4766h0Zm1.7462-6.2265c.5416.104,1.0226.3293,1.4819.559.7496.3726.8839.3206.9533.8406.0087.0953-.0087.1473.2643.234.4593.143-.2643-.1127.9663-.1083.7323.0043,2.4091.299,2.9508.6413.2253.143.182.325.9446.3033-.0087-.8969-.247-2.2358-.598-3.0591-.429-.9966-.9966-1.1482-2.1535-1.5209-.6759-.2167-2.6605-.455-3.2757-.0737-.5763.3596-.6846.7886-1.2219,1.5426-.156.221-.2123.39-.312.6413h0Z"/><path class="cls-1" d="m6.9208,8.115c.4333.1777-.0217,1.3259-.6239,1.0486-.195-.5503.2686-.8623.3943-1.1093-.26-.039-1.0009-.156-1.2219-.0737-.286.1083-.351.7193-.2037,1.0053.6933,1.3606,3.7567,1.0703,3.4317.013-.13-.429-.2513-.4983-.6889-.6456-.351-.117-.7019-.2383-1.0876-.2383h0Zm-5.4466-.1517c.3466.3336,1.1309.3856,1.6379.4116.065-.6716.1213-1.1742.6586-1.1352.2643.3596.1257.7843-.1517,1.0572.4723-.0043.7453-.3596.6759-.8753-.3986-.286-1.6075-.8579-2.2142-.9403-.169.182-.585,1.1786-.6066,1.4819Z"/><path d="m.6596,12.253c.286-.026,1.0313.1906,1.0919.4333-.4636.0563-1.0529.013-1.0919-.4333h0Zm-.2556.247c.2123.1517.325.39.6889.4766.533.1343,1.6985-.3206.364-.8363-.377-.1473-.6413-.3033-1.0616-.1603-.0087-.624.6716-3.3537.9619-3.774.6803.1083,2.2315.8839,3.1111-.195.8363.0477.1906.5373.7193,1.2392.273.3596.546.6759,1.1482.7756.455.078,1.3259.052,1.7722-.0693.6629-.1733.8319-.3423.8493-1.0876l.7323.1647c-.091.663-.9446,1.7722-1.4819,2.1665-.7409.5416-1.4126.8666-2.3398,1.2696-.4116.1777-.7669.5026-1.2046.6023-.8363.1863-3.2974.494-3.9994.0997-.1907-.104-.26-.3986-.26-.6716h0Zm6.0619-3.5877c.0303-.286.1387-.4463.3076-.5633.117.2513-.091.494-.3076.5633Zm.455-.7973c.3856,0,.7366.1213,1.0876.2383.4376.1473.559.2166.6889.6456.325,1.0572-2.7385,1.3476-3.4317-.013-.1473-.286-.0823-.8969.2037-1.0053.221-.0823.9619.0347,1.2219.0737-.1257.247-.5893.559-.3943,1.1093.6023.2773,1.0572-.8709.6239-1.0486h0Zm-3.5401.052c.0043-.299-.0087-.5676.2643-.6846.0997.2296-.065.5546-.2643.6846h0Zm-1.9065-.2037c.0217-.3033.4376-1.2999.6066-1.4819.6066.0823,1.8155.6543,2.2142.9403.0693.5156-.2036.8709-.6759.8753.2773-.273.416-.6976.1517-1.0572-.5373-.039-.5936.4636-.6586,1.1352-.507-.026-1.2912-.078-1.6379-.4116Zm-.4333-.3466c-.1603-.442-.1603-1.1309.52-1.1872l-.3466.9663c-.091.208-.091.1603-.1733.221h0Zm1.1092-1.3432c.0997-.2513.156-.4203.312-.6413.5373-.7539.6456-1.1829,1.2219-1.5426.6153-.3813,2.5998-.143,3.2757.0737,1.1569.3726,1.7245.5243,2.1535,1.5209.351.8233.5893,2.1622.598,3.0591-.7626.0217-.7193-.1603-.9446-.3033-.5416-.3423-2.2185-.637-2.9508-.6413-1.2306-.0043-.507.2513-.9663.1083-.273-.0867-.2556-.1387-.2643-.234-.0693-.52-.2037-.468-.9533-.8406-.4593-.2296-.9403-.455-1.4819-.559h0Zm7.6694-.2123c-.0823-.273.0693-.2556.3336-.442.1517-.1083.273-.221.4593-.325.6976-.39,1.9975-.455,2.5521.0087.2253.1863.5936.5503.5373,1.0269-.117.9489-.7669,1.4689-1.2999,1.9022-.5416.442-1.4429.8969-2.3745.5936-.078-.1907-.0173-1.3996-.1083-1.8459-.0823-.3986-.039-.442.1907-.6803.6759-.7019,2.1405-1.2132,2.9724-.611.351.26.2513.3596.4333.559.2253-.2427-.195-1.0573-1.7462-1.0053-1.0529.0347-1.5079.8579-1.9498.8189h0ZM3.5107,3.5957c.0217-.6023.5763-1.8502,1.1309-2.2835.6716-.52,1.3736-1.0096,2.4048-.4246.2556.143.2427.2167.2686.572.0217.3423-.0087.468-.0953.7453-.6846,2.2098-1.2566.9403-3.4491,1.4646.0823-.7193.7063-1.3606,1.0529-1.6942.5936-.5763,1.0226-.9489,1.9152-.8276.247.4116.273.6716-.026,1.1526-.3986.6413-.4983.6023-.4376,1.0399.312-.078.4073-.3813.5503-.6846.8709-1.8199-.3943-2.0408-1.1699-1.7072-.52.221-1.4472,1.2436-1.7505,1.8589-.0607.1213-.1257.2773-.182.4116l-.2123.377Zm3.4317.091c.091-.5416.6283-.6759.6283-2.3442,0-.7193-.8839-1.3649-2.0408-.8839-.9923.4073-1.1439.7193-1.6725,1.5165-.4983.7539-.481,1.5816-.9099,2.2792-.1257.1993-.2383.2686-.377.468-.0997.1473-.1733.3336-.273.507-.2036.3336-.4116.5763-.5763.9749-.52.013-.9576.0217-1.0096.559-.0693.7366.2773.9186.2773,1.1959-.0043.299-1.2176,3.3147-.8796,5.1129.0953.494.4203.4983.9403.559,1.2522.1517,2.8771.0997,3.9994-.351l2.0365-.9749c.5156-.2903,1.3822-.8406,1.7679-1.2436.273-.2816.416-.52.6499-.8536.3206-.468.3293-.4593.3986-1.0962.4246.078,1.2176.2643,1.4819.494-.0303.299-.1777.156-.1777.4246.169.0043.4506-.208.52-.442-.1777-.26-.364-.2166-.6196-.4246.2037-.1603.572-.234.8536-.351.6066-.2513,1.6422-1.0139,1.8979-1.7072.2036-.559.052-1.4905-.2773-1.8545-.3466-.3813-1.1526-.5763-1.8112-.5763-.7843,0-1.5945.5633-2.2272.8059-.2427-.2123-.26-.455-.4376-.6889-.2036-.2773-1.5295-.9706-2.1622-1.1049h0Z"/><path class="cls-2" d="m9.8195,6.0612c.442.039.8969-.7843,1.9498-.8189,1.5512-.052,1.9715.7626,1.7462,1.0053-.182-.1993-.0823-.299-.4333-.559-.8319-.6023-2.2965-.091-2.9724.611-.2296.2383-.273.2816-.1906.6803.091.4463.0303,1.6552.1083,1.8459.9316.3033,1.8329-.1517,2.3745-.5936.533-.4333,1.1829-.9533,1.2999-1.9022.0563-.4766-.312-.8406-.5373-1.0269-.5546-.4636-1.8545-.3986-2.5521-.0087-.1863.104-.3076.2167-.4593.325-.2643.1863-.416.169-.3336.442ZM3.5107,3.5957l.2123-.377c.0563-.1343.1213-.2903.182-.4116.3033-.6153,1.2306-1.6379,1.7505-1.8589.7756-.3336,2.0408-.1127,1.1699,1.7072-.143.3033-.2383.6066-.5503.6846-.0607-.4376.039-.3986.4376-1.0399.299-.481.273-.7409.026-1.1526-.8926-.1213-1.3216.2513-1.9152.8276-.3466.3336-.9706.9749-1.0529,1.6942,2.1925-.5243,2.7645.7453,3.4491-1.4646.0867-.2773.117-.403.0953-.7453-.026-.3553-.013-.429-.2686-.572-1.0312-.585-1.7332-.0953-2.4048.4246-.5546.4333-1.1092,1.6812-1.1309,2.2835h0Z"/><path class="cls-5" d="m1.0409,7.6167c.0823-.0607.0823-.013.1733-.221l.3466-.9663c-.6803.0563-.6803.7453-.52,1.1872h0Z"/><path class="cls-2" d="m1.7515,12.6863c-.0607-.2427-.8059-.4593-1.0919-.4333.039.4463.6283.4896,1.0919.4333Z"/></g></svg>