<svg xmlns="http://www.w3.org/2000/svg" id="Done" viewBox="0 0 14 14"><defs><clipPath id="clippath"/><style>.cls-1{fill:#fafafa}.cls-2{fill:#efebe9}</style></defs><g id="Layer_34"><path fill="#ede7f6" d="M3.38 8.167c.2-.13.365-.455.265-.685-.273.117-.26.386-.264.685m3.086.745c.216-.069.424-.312.307-.563-.169.117-.277.277-.307.563"/><path d="M.404 12.5c0 .273.07.568.26.672.702.394 3.163.086 4-.1.437-.1.792-.425 1.204-.602.927-.403 1.599-.728 2.34-1.27.537-.394 1.39-1.504 1.482-2.166l-.733-.165c-.017.745-.186.914-.849 1.087-.446.122-1.317.148-1.772.07-.603-.1-.876-.416-1.148-.776-.529-.702.117-1.192-.72-1.24-.88 1.08-2.43.304-3.11.196-.291.42-.971 3.15-.963 3.774.42-.143.685.013 1.062.16 1.334.516.169.97-.364.836-.364-.086-.477-.325-.689-.476M2.15 6.274c.542.104 1.023.329 1.482.559.75.372.884.32.953.84.009.095-.008.147.265.234.459.143-.265-.113.966-.108.732.004 2.409.299 2.95.641.226.143.183.325.945.303-.008-.896-.247-2.235-.598-3.059-.429-.996-.996-1.148-2.153-1.52-.676-.217-2.66-.456-3.276-.074-.576.36-.685.788-1.222 1.542-.156.221-.212.39-.312.642" class="cls-1"/><path d="M6.92 8.115c.434.178-.02 1.326-.623 1.049-.195-.55.269-.863.394-1.11-.26-.039-1-.156-1.222-.073-.286.108-.35.719-.203 1.005.693 1.36 3.756 1.07 3.431.013-.13-.43-.251-.498-.689-.646-.35-.117-.701-.238-1.087-.238m-5.446-.152c.347.334 1.131.386 1.638.412.065-.672.121-1.174.659-1.135.264.36.125.784-.152 1.057.472-.004.745-.36.676-.875-.399-.286-1.608-.858-2.214-.94-.17.181-.585 1.178-.607 1.481" class="cls-1"/><path d="M.66 12.253c.286-.026 1.03.19 1.092.433-.464.057-1.053.013-1.092-.433m-.256.247c.212.152.325.39.689.477.533.134 1.698-.321.364-.837-.377-.147-.641-.303-1.062-.16-.008-.624.672-3.354.962-3.774.68.108 2.232.884 3.111-.195.837.048.19.537.72 1.24.273.359.546.675 1.148.775.455.078 1.326.052 1.772-.07.663-.173.832-.342.85-1.087l.732.165c-.091.663-.945 1.772-1.482 2.166-.741.542-1.413.867-2.34 1.27-.412.177-.767.502-1.205.602-.836.186-3.297.494-4 .1-.19-.104-.26-.399-.26-.672m6.062-3.588c.03-.286.139-.446.307-.563.117.251-.09.494-.307.563m.455-.797c.385 0 .736.121 1.087.238.438.148.56.217.69.646.324 1.057-2.74 1.348-3.432-.013-.148-.286-.083-.897.203-1.005.221-.083.962.034 1.222.073-.125.247-.589.56-.394 1.11.602.277 1.057-.871.624-1.049m-3.54.052c.004-.299-.009-.568.264-.685.1.23-.065.555-.264.685m-1.907-.204c.022-.303.438-1.3.607-1.482.606.083 1.815.655 2.214.94.07.516-.204.872-.676.876.277-.273.416-.698.152-1.057-.537-.04-.594.463-.659 1.135-.507-.026-1.29-.078-1.638-.412m-.433-.346c-.16-.442-.16-1.131.52-1.188l-.347.967c-.09.208-.09.16-.173.22Zm1.11-1.344c.099-.25.155-.42.311-.64.537-.755.646-1.184 1.222-1.543.615-.382 2.6-.143 3.276.073 1.157.373 1.724.525 2.153 1.521.351.823.59 2.162.598 3.06-.762.021-.719-.161-.944-.304-.542-.342-2.219-.637-2.951-.641-1.23-.005-.507.251-.966.108-.273-.087-.256-.139-.265-.234-.069-.52-.203-.468-.953-.84-.46-.23-.94-.456-1.482-.56Zm7.669-.212c-.083-.273.069-.255.333-.442.152-.108.273-.22.46-.325.697-.39 1.997-.455 2.552.009.225.186.593.55.537 1.027-.117.949-.767 1.469-1.3 1.902-.542.442-1.443.897-2.374.594-.078-.191-.018-1.4-.109-1.846-.082-.399-.039-.442.19-.68.677-.702 2.141-1.214 2.973-.612.351.26.252.36.434.56.225-.243-.195-1.058-1.747-1.006-1.052.035-1.507.858-1.95.819ZM3.51 3.596c.022-.603.577-1.85 1.132-2.284.671-.52 1.373-1.01 2.404-.424.256.143.243.216.269.572.022.342-.009.468-.095.745-.685 2.21-1.257.94-3.45 1.464.083-.719.707-1.36 1.054-1.694.593-.576 1.022-.949 1.915-.827.247.411.273.671-.026 1.152-.399.642-.499.603-.438 1.04.312-.078.407-.381.55-.684C7.696.836 6.431.615 5.655.948c-.52.221-1.447 1.244-1.75 1.86-.06.12-.126.277-.182.41zm3.432.09c.091-.54.629-.675.629-2.343 0-.72-.884-1.365-2.041-.884-.992.407-1.144.719-1.673 1.516-.498.754-.48 1.582-.91 2.28-.125.199-.238.268-.376.467-.1.148-.174.334-.274.507-.203.334-.411.577-.576.975-.52.013-.957.022-1.01.56-.069.736.278.918.278 1.195-.004.3-1.218 3.315-.88 5.113.096.494.42.498.94.559 1.253.152 2.878.1 4-.351l2.036-.975c.516-.29 1.383-.84 1.768-1.244.273-.281.416-.52.65-.853.32-.468.33-.46.399-1.096.425.078 1.218.264 1.482.494-.03.299-.178.156-.178.424.17.005.45-.208.52-.442-.178-.26-.364-.216-.62-.424.204-.16.573-.234.854-.351.607-.252 1.642-1.014 1.898-1.708.204-.559.052-1.49-.277-1.854-.347-.381-1.153-.576-1.811-.576-.785 0-1.595.563-2.228.806-.242-.213-.26-.455-.437-.69-.204-.277-1.53-.97-2.162-1.104Z"/><path d="M9.82 6.061c.441.04.896-.784 1.95-.819 1.55-.052 1.97.763 1.745 1.006-.182-.2-.082-.3-.433-.56-.832-.602-2.296-.09-2.972.612-.23.238-.273.281-.19.68.09.446.03 1.655.108 1.846.931.303 1.832-.152 2.374-.594.533-.433 1.183-.953 1.3-1.902.056-.477-.312-.84-.537-1.027-.555-.464-1.855-.399-2.553-.009-.186.104-.307.217-.459.325-.264.187-.416.17-.333.442M3.51 3.596l.213-.377c.056-.135.121-.29.182-.412.303-.615 1.23-1.638 1.75-1.859.776-.333 2.041-.112 1.17 1.707-.143.304-.238.607-.55.685-.06-.438.04-.399.438-1.04.299-.48.273-.74.026-1.152-.893-.122-1.322.25-1.916.827-.346.334-.97.975-1.052 1.694 2.192-.524 2.764.746 3.449-1.464.086-.278.117-.403.095-.746-.026-.355-.013-.429-.269-.572-1.03-.585-1.733-.095-2.404.425-.555.433-1.11 1.681-1.131 2.284Z" class="cls-2"/><path fill="#eee" d="M1.04 7.617c.083-.061.083-.013.174-.221l.347-.967c-.68.057-.68.746-.52 1.188Z"/><path d="M1.752 12.686c-.061-.242-.806-.459-1.092-.433.039.446.628.49 1.092.433" class="cls-2"/></g></svg>