<?xml version="1.0" encoding="UTF-8"?><svg id="Done" xmlns="http://www.w3.org/2000/svg" xmlns:xlink="http://www.w3.org/1999/xlink" viewBox="0 0 14 14"><defs><style>.cls-1{fill:#b4ef11;}.cls-1,.cls-2,.cls-3,.cls-4{fill-rule:evenodd;}.cls-2{fill:#ce7730;}.cls-5{fill:#afafaf;}.cls-3{fill:#e6bb7e;}.cls-6{fill:none;}.cls-4{fill:#7d9c32;}.cls-7{fill:#f2f2f2;}</style><clipPath id="clippath"><path class="cls-6" d="m-13.5539,37.2769l-4.998,2.499c-.2821.141-.6141.141-.8962,0l-4.998-2.499c-.3395-.1697-.5539-.5167-.5539-.8962v-5.7615c0-.3795.2144-.7265.5539-.8962l4.998-2.499c.2821-.141.6141-.141.8962,0l4.998,2.499c.3395.1697.5539.5167.5539.8962v5.7615c0,.3795-.2144.7265-.5539.8962Z"/></clipPath></defs><g id="Layer_52"><g id="Layer_53"><g id="_2220002388688"><path class="cls-3" d="m4.3789,9.9971c-.0406-.0622-.0599-.1335-.0938-.1989-.8834-.1801-1.3472-.046-2.0169.0266-1.0813.1171-1.0458,1.0876-1.0876,1.0876-.6779,0-1.0876.4099-1.0876,1.0876h4.0998c-.2592-.6832-.1954-1.4211.1862-2.0029Z"/><path class="cls-2" d="m4.3281,7.6631l.8018-1.3667c.1102-.1899.253-.3529.4113-.4986-.0078-.4452-.0096-.8482-.0098-1.173-.2013-.1456-.3887-.3439-.5313-.6248-.3206.3565-.7906.5955-1.1951.7515-.3293,1.0355-.8885,3.6605-.8192,4.9836.3666-.0427.7544-.0505,1.2982.0604-.3422-.6611-.3569-1.4632.0443-2.1324Z"/><path class="cls-1" d="m7,5l.1918.1918c.345-.6698,1.037-1.1243,1.827-1.173l-.0189-.0189s-1.937-.506-2.8794-.7147c.3679-.1251.8303-.2808.8666-.2853h3c.0289-.1496,0-1,0-1l-.9872-1h-1l-2,1-1,1-1-1-2-1h-1l-1,1s-.0289.8504,0,1h3c.0365.0045.5029.1616.8715.2869-.9454.2098-2.8715.7131-2.8715.7131l-1,1v1l1,2,1-2,1-1c.0386-.0216,1.339-.265,2-1,.5967,1.175,1.9556.9752,2,1Z"/><path class="cls-4" d="m5.0191,4.2419c-.5375,0-.9747-.4373-.9747-.9748s.4372-.9747.9747-.9747.975.4372.975.9747-.4374.9748-.975.9748Z"/></g><path class="cls-7" d="m12.9779,10.392c.0162-.128.0284-.256.0284-.392s-.0122-.264-.0284-.392l.8562-.66c.0771-.06.0974-.168.0487-.256l-.8116-1.384c-.0494-.0853-.1543-.1225-.2475-.088l-1.0104.4c-.211-.16-.4382-.292-.6857-.392l-.1542-1.06c-.0139-.0974-.0991-.1694-.1988-.168h-1.6231c-.1014,0-.1867.072-.1989.168l-.1542,1.06c-.2475.1-.4748.236-.6858.392l-1.0104-.4c-.0235-.0079-.0482-.0119-.073-.012-.069,0-.138.036-.1745.1l-.8116,1.384c-.0528.088-.0284.196.0487.256l.8562.66c-.0163.128-.0284.26-.0284.392s.0121.264.0284.392l-.8562.66c-.0771.06-.0974.168-.0487.256l.8116,1.384c.0494.0853.1543.1226.2475.088l1.0104-.4c.211.16.4383.292.6858.392l.1542,1.06c.0122.096.0974.168.1989.168h1.6231c.1014,0,.1867-.072.1988-.168l.1542-1.06c.2475-.1.4747-.236.6857-.392l1.0104.4c.0243.008.0487.012.073.012.069,0,.138-.036.1745-.1l.8116-1.384c.0487-.088.0284-.196-.0487-.256l-.8562-.66Z"/><path class="cls-5" d="m12.9779,10.392c.0162-.128.0284-.256.0284-.392s-.0122-.264-.0284-.392l.8562-.66c.0771-.06.0974-.168.0487-.256l-.8116-1.384c-.0494-.0853-4.2728,5.464-4.2728,5.464l.1542,1.06c.0229.1039.0892.1599.1989.168h1.6231c.1014,0,.1867-.072.1988-.168l.1542-1.06c.2475-.1.4747-.236.6857-.392l1.0104.4c.0243.008.0487.012.073.012.069,0,.138-.036.1745-.1l.8116-1.384c.0487-.088.0284-.196-.0487-.256l-.8562-.66Z"/><circle cx="9.9631" cy="9.9426" r="1.5"/></g></g></svg>