<svg xmlns="http://www.w3.org/2000/svg" viewBox="0 0 14 14"><path fill="#e6bb7e" fill-rule="evenodd" d="M4.379 9.997c-.04-.062-.06-.133-.094-.199-.883-.18-1.347-.046-2.017.027-1.081.117-1.046 1.087-1.087 1.087-.678 0-1.088.41-1.088 1.088h4.1c-.26-.683-.196-1.421.186-2.003"/><path fill="#ce7730" fill-rule="evenodd" d="m4.328 7.663.802-1.367c.11-.19.253-.353.411-.498a69 69 0 0 1-.01-1.173A1.7 1.7 0 0 1 5.001 4c-.322.357-.792.596-1.196.752-.33 1.035-.889 3.66-.82 4.983a3.9 3.9 0 0 1 1.299.06c-.342-.66-.357-1.463.044-2.132"/><path fill="#b4ef11" fill-rule="evenodd" d="m7 5 .192.192a2.2 2.2 0 0 1 1.827-1.173l-.02-.02s-1.936-.505-2.879-.714c.368-.125.83-.28.867-.285h3c.029-.15 0-1 0-1L9 1H8L6 2 5 3 4 2 2 1H1L0 2s-.029.85 0 1h3c.036.004.503.161.871.287C2.926 3.497 1 4 1 4L0 5v1l1 2 1-2 1-1c.038-.022 1.339-.265 2-1 .597 1.175 1.955.975 2 1"/><path fill="#7d9c32" fill-rule="evenodd" d="M5.02 4.242a.976.976 0 0 1 0-1.95.976.976 0 0 1 0 1.95"/><path fill="#f2f2f2" d="M12.978 10.392q.026-.19.028-.392c.002-.202-.012-.264-.028-.392l.856-.66a.2.2 0 0 0 .049-.256l-.812-1.384a.204.204 0 0 0-.247-.088l-1.01.4a3 3 0 0 0-.686-.392l-.155-1.06A.2.2 0 0 0 10.775 6H9.15a.2.2 0 0 0-.198.168l-.155 1.06a3 3 0 0 0-.685.392l-1.01-.4a.2.2 0 0 0-.074-.012.2.2 0 0 0-.174.1l-.812 1.384a.195.195 0 0 0 .049.256l.856.66q-.026.193-.028.392c-.002.199.012.264.028.392l-.856.66a.2.2 0 0 0-.049.256l.812 1.384c.05.085.154.123.247.088l1.01-.4q.317.241.686.392l.155 1.06A.2.2 0 0 0 9.15 14h1.624a.2.2 0 0 0 .198-.168l.155-1.06c.247-.1.474-.236.685-.392l1.01.4a.2.2 0 0 0 .074.012.2.2 0 0 0 .174-.1l.812-1.384a.2.2 0 0 0-.049-.256z"/><path fill="#afafaf" d="M12.978 10.392q.026-.19.028-.392c.002-.202-.012-.264-.028-.392l.856-.66a.2.2 0 0 0 .049-.256l-.812-1.384c-.05-.085-4.273 5.464-4.273 5.464l.155 1.06q.034.156.198.168h1.624a.2.2 0 0 0 .198-.168l.155-1.06c.247-.1.474-.236.685-.392l1.01.4a.2.2 0 0 0 .074.012.2.2 0 0 0 .174-.1l.812-1.384a.2.2 0 0 0-.049-.256z"/><circle cx="9.963" cy="9.943" r="1.5"/></svg>