<?xml version="1.0" encoding="UTF-8"?><svg id="Done" xmlns="http://www.w3.org/2000/svg" xmlns:xlink="http://www.w3.org/1999/xlink" viewBox="0 0 14 14"><defs><style>.cls-1{fill:#b4ef11;}.cls-1,.cls-2,.cls-3{fill-rule:evenodd;}.cls-2{fill:#e6bb7e;}.cls-4{fill:none;}.cls-3{fill:#e77825;}</style><clipPath id="clippath"><path class="cls-4" d="m12.4461,37.2769l-4.998,2.499c-.2821.141-.6141.141-.8962,0l-4.998-2.499c-.3395-.1697-.5539-.5167-.5539-.8962v-5.7615c0-.3795.2144-.7265.5539-.8962l4.998-2.499c.2821-.141.6141-.141.8962,0l4.998,2.499c.3395.1697.5539.5167.5539.8962v5.7615c0,.3795-.2144.7265-.5539.8962Z"/></clipPath></defs><g id="Layer_51"><g id="Layer_1"><g id="_2220002388688"><path class="cls-1" d="m11.9059,7.5206c-.0025,0-.0047-.0002-.007-.0002-.0561-.0024-.107-.0333-.1351-.0818l-.5652-.9788c-.021-.0363-.0271-.0794-.0175-.1201l.1078-.4506-.2548.1892c-.065.0485-.1561.042-.2137-.0157l-.7227-.7227c-.0409-.0408-.0572-.1007-.0428-.1568.0021-.008.1729-.6941-.0859-1.0941-.0905.2375-.1745.5289-.1564.6971.005.0158.0077.0326.0077.0501,0,.0905-.0735.164-.164.164h-.0023c-.0232,0-.0466-.0049-.0686-.0149-.0527-.0243-1.29-.6024-1.9983-1.7509l-.0185-.0139c-.0349-.0261-.058-.065-.0641-.1082s.0052-.0869.0313-.1217c.0808-.1072.1255-.235.1294-.3694.0014-.0449.021-.0873.0545-.1173.0335-.0299.0777-.0449.1225-.0414,1.1533.0914,3.2375.4802,4.2371,2.0568.0063.0097.0114.0201.0153.0308.0278.0753.6735,1.8549-.0545,2.9002-.0303.0444-.0808.0704-.1342.0704Z"/><path class="cls-1" d="m7.83,2.2777c-.0409,0-.0805-.0153-.111-.0431-.0339-.0311-.0532-.075-.0532-.1208,0-.2084-.1014-.4054-.2714-.5267-.0378-.027-.0622-.0686-.0677-.1148-.0052-.0462.0092-.0923.04-.1271C8.1901.4104,9.9598.0145,10,0c.0103-.0038-.2172,0,0,0,2.0879,0,2.9286,1.515,3.0549,1.7344.022.0279.0352.0631.0352.1016,0,.0905-.0735.164-.164.164-.0005,0-.0014.0002-.0023,0h-.0026l-1.0619-.0176c-.0422-.0007-.0823-.0175-.1123-.0472l-.3094-.3044-.0248.3065c-.0064.079-.0682.142-.1469.15l-1.0399.1058c-.0761.0076-.1487-.0391-.1726-.1127-.1016-.3133-.4674-.474-.7586-.5539l.2548.3548c.0344.0478.0403.1105.0158.1641-.0247.0536-.0762.0899-.1349.0949l-1.5864.1366c-.0046.0007-.0094.0007-.0141.0007h0Z"/><path class="cls-1" d="m6.2083,2.4322c-.0093,0-.0185-.0008-.0279-.0025l-1.5864-.2733c-.0557-.0096-.1025-.0472-.1239-.0995-.0214-.0522-.0144-.1119.0185-.1578l.2548-.3548c-.2911.08-.6571.2407-.7587.5539-.0238.0736-.0967.12-.1725.1125l-1.0399-.1057c-.0795-.008-.1418-.0724-.1471-.1522l-.0187-.2809-.154.2501c-.0294.0477-.0812.0773-.1374.078l-1.1985.0176c-.0581.0012-.1124-.0291-.1426-.079-.0302-.0498-.0317-.1118-.0042-.1629.039-.0724.8288-1.7757,3.0302-1.7757.2173,0-1,0,0,0,.0397.0201,1.8546.5722,2.6712,1.4992.0307.0349.0451.0809.0399.1271s-.0299.0878-.0677.1148c-.1699.1214-.2714.3183-.2714.5267,0,.0484-.0214.0943-.0583.1254-.0297.0253-.0672.0388-.1055.0388l.0002.0002Z"/><path class="cls-1" d="m2.1324,7.1858c-.0536,0-.1039-.0261-.1346-.0703-.7281-1.0453-.0823-2.825-.0545-2.9002.004-.0108.0091-.0212.0153-.0308.9997-1.5765,3.0838-1.9653,4.2373-2.0568.0449-.0033.0891.0115.1225.0415.0334.0301.0531.0724.0545.1173.0039.1344.0486.262.1294.3693.0262.0349.0374.0786.0313.1216-.0061.0431-.0291.082-.064.1082l-.0185.0139c-.7083,1.1484-1.9456,1.7266-1.9983,1.7509-.0554.0253-.1203.0181-.1686-.0191-.0483-.0372-.072-.0982-.0615-.1582.0287-.1642-.0588-.4711-.1532-.719-.2589.4-.0881,1.0862-.0861,1.0942.0144.0561-.002.1159-.0428.1568l-.7227.7227c-.0574.0575-.1484.0642-.2137.0157l-.2549-.1892.1078.4506c.0098.0408.0035.0838-.0175.1201l-.5652.9788c-.0281.0486-.0791.0795-.1351.0818-.0024,0-.0047.0002-.0069.0002v-.0002Z"/><path class="cls-3" d="m7.3046,10.3476c-.0346,0-.069-.0111-.0979-.0325-.2862-.2132-.6404-.3066-1.0012-.2598-.0449.0063-.0902-.0071-.1252-.0358s-.0565-.0708-.0595-.1159c-.1482-2.2587-.0548-4.6377.2775-7.0708.0083-.061.0501-.1122.1082-.1326.058-.0203.1227-.0065.1673.0358.1207.1148.2789.178.4455.178.1187,0,.2345-.0323.335-.0935.0534-.0326.121-.0317.1737.0021.0528.0339.0817.0949.0744.157-.2444,2.0861-.2881,4.4395-.1341,7.1946.0035.0636-.0301.1235-.0861.1536-.0244.0129-.051.0194-.0777.0194v.0002Z"/><path class="cls-2" d="m0,13C0,12.0608.7639,11.1328,1.7031,11.1328c.102,0,.2035.0091.3034.0271.2459-.6595.8811-1.1078,1.596-1.1078.4302,0,.8423.1643,1.1539.451.2129-.7058.8626-1.2042,1.6296-1.2042.8268,0,1.5177.5922,1.6713,1.3747.2965-.2313.6631-.3595,1.0466-.3595.4892,0,.9449.2049,1.268.5661.1617-.0498.3296-.075.5005-.075.5031,0,.9696.216,1.2939.5958.895-.0771,1.6768.5404,1.8253,1.407.0082.0476.0084.1919.0084.1919H0Z"/></g></g></g></svg>