<svg xmlns="http://www.w3.org/2000/svg" id="Done" viewBox="0 0 14 14"><defs><clipPath id="clippath"/><style>.cls-1{fill:#b4ef11;fill-rule:evenodd}</style></defs><g id="Layer_51"><g id="Layer_1"><g id="_2220002388688"><path d="M11.906 7.52h-.007a.16.16 0 0 1-.135-.081l-.565-.98a.17.17 0 0 1-.018-.12l.108-.45-.255.19a.164.164 0 0 1-.214-.016l-.722-.723a.16.16 0 0 1-.043-.157c.002-.008.173-.694-.086-1.094-.09.238-.174.529-.156.697A.164.164 0 0 1 9.657 5h-.003a.2.2 0 0 1-.069-.015c-.052-.024-1.29-.602-1.998-1.75L7.57 3.22a.164.164 0 0 1-.033-.23.64.64 0 0 0 .13-.37.164.164 0 0 1 .176-.159c1.154.092 3.238.48 4.237 2.057q.01.015.016.031c.027.075.673 1.855-.055 2.9a.16.16 0 0 1-.134.07M7.83 2.278a.165.165 0 0 1-.164-.164.65.65 0 0 0-.272-.527.165.165 0 0 1-.027-.242C8.19.41 9.96.015 10 0c.01-.004-.217 0 0 0 2.088 0 2.929 1.515 3.055 1.734a.164.164 0 0 1-.129.266h-.005l-1.062-.018a.16.16 0 0 1-.112-.047l-.31-.304-.024.306a.164.164 0 0 1-.147.15l-1.04.106a.165.165 0 0 1-.173-.113c-.101-.313-.467-.474-.758-.553l.255.354a.164.164 0 0 1-.12.26l-1.586.136zm-1.622.154L6.18 2.43l-1.586-.274a.164.164 0 0 1-.105-.257l.254-.355c-.29.08-.657.241-.758.554a.165.165 0 0 1-.173.113l-1.04-.106a.164.164 0 0 1-.147-.152l-.018-.281-.154.25A.16.16 0 0 1 2.315 2l-1.198.018a.164.164 0 0 1-.147-.242C1.009 1.703 1.799 0 4 0c.217 0-1 0 0 0 .04.02 1.855.572 2.671 1.5a.164.164 0 0 1-.028.241.65.65 0 0 0-.271.527.164.164 0 0 1-.164.164" class="cls-1"/><path d="M2.132 7.186a.16.16 0 0 1-.134-.07c-.728-1.046-.082-2.825-.055-2.9l.016-.031c1-1.577 3.083-1.966 4.237-2.057a.165.165 0 0 1 .177.159.64.64 0 0 0 .13.369.164.164 0 0 1-.033.23l-.02.014c-.708 1.148-1.946 1.726-1.998 1.75a.164.164 0 0 1-.23-.177c.028-.164-.06-.471-.153-.719-.26.4-.089 1.086-.087 1.094a.17.17 0 0 1-.042.157l-.723.723a.164.164 0 0 1-.214.016l-.255-.19.108.45a.16.16 0 0 1-.017.121l-.566.979a.16.16 0 0 1-.135.082z" class="cls-1"/><path fill="#e77825" fill-rule="evenodd" d="M7.305 10.348a.17.17 0 0 1-.098-.033 1.37 1.37 0 0 0-1.002-.26.165.165 0 0 1-.185-.152c-.147-2.258-.054-4.637.278-7.07a.164.164 0 0 1 .276-.097.644.644 0 0 0 .78.084.164.164 0 0 1 .248.16c-.244 2.086-.288 4.44-.134 7.194a.164.164 0 0 1-.164.173Z"/><path fill="#e6bb7e" fill-rule="evenodd" d="M0 13c0-.94.764-1.867 1.703-1.867q.154 0 .304.027a1.71 1.71 0 0 1 1.596-1.108c.43 0 .842.164 1.153.451A1.69 1.69 0 0 1 6.386 9.3c.827 0 1.518.592 1.671 1.375.297-.232.663-.36 1.047-.36.49 0 .945.205 1.268.566q.244-.075.5-.075c.504 0 .97.216 1.294.596a1.697 1.697 0 0 1 1.826 1.407C14 12.856 14 13 14 13z"/></g></g></g></svg>