<?xml version="1.0" encoding="UTF-8"?><svg id="Done" xmlns="http://www.w3.org/2000/svg" xmlns:xlink="http://www.w3.org/1999/xlink" viewBox="0 0 14 14"><defs><style>.cls-1{fill:#4b32c3;}.cls-2{fill:none;}.cls-3{fill:#8080f2;}</style><clipPath id="clippath"><path class="cls-2" d="m90.4461,89.2769l-4.998,2.499c-.2821.141-.6141.141-.8962,0l-4.998-2.499c-.3395-.1697-.5539-.5167-.5539-.8962v-5.7615c0-.3795.2144-.7265.5539-.8962l4.998-2.499c.2821-.141.6141-.141.8962,0l4.998,2.499c.3395.1697.5539.5167.5539.8962v5.7615c0,.3795-.2144.7265-.5539.8962Z"/></clipPath></defs><g id="Layer_24"><path class="cls-3" d="m7,5l-2,1v2l2,1,2-1v-2l-2-1Z"/><path class="cls-1" d="m3,1h8l3,5.9943-3,6.0057H3L0,7,3,1Zm4,11l4-3v-4l-4-3-4,3v4l4,3Z"/></g></svg>