<?xml version="1.0" encoding="UTF-8"?><svg id="Done" xmlns="http://www.w3.org/2000/svg" xmlns:xlink="http://www.w3.org/1999/xlink" viewBox="0 0 14 14"><defs><style>.cls-1{fill:#fff;}.cls-2{fill:none;}</style><clipPath id="clippath"><path class="cls-2" d="m-65.5539,37.2769l-4.998,2.499c-.2821.141-.6141.141-.8962,0l-4.998-2.499c-.3395-.1697-.5539-.5167-.5539-.8962v-5.7615c0-.3795.2144-.7265.5539-.8962l4.998-2.499c.2821-.141.6141-.141.8962,0l4.998,2.499c.3395.1697.5539.5167.5539.8962v5.7615c0,.3795-.2144.7265-.5539.8962Z"/></clipPath></defs><g id="Layer_59"><g id="Layer_26"><path class="cls-1" d="m12,7c-1-1,0-1,0-2,0-3-3-4-6-4C2.3588,1,0,6,3,10c1,2,0,3,0,4,1.3073-.0256,5,0,5,0-1-4,4,1,3.9998-3.0002-1-1.9998,1.0002-1.9998,1.0002-1.9998v-1.0156.0156l-1-1Zm-2-2c0,1-1,2-2,2-1.2021,0-3.2807,2.3707-3,3,0,0-.7255-1.7255-1-2C0,4,8.7582-.2908,10,5Z"/></g></g></svg>