<?xml version="1.0" encoding="UTF-8"?><svg id="Done" xmlns="http://www.w3.org/2000/svg" xmlns:xlink="http://www.w3.org/1999/xlink" viewBox="0 0 14 14"><defs><style>.cls-1{fill:#fff;}.cls-2{fill:none;}</style><clipPath id="clippath"><path class="cls-2" d="m-39.5539,63.2769l-4.998,2.499c-.2821.141-.6141.141-.8962,0l-4.998-2.499c-.3395-.1697-.5539-.5167-.5539-.8962v-5.7615c0-.3795.2144-.7265.5539-.8962l4.998-2.499c.2821-.141.6141-.141.8962,0l4.998,2.499c.3395.1697.5539.5167.5539.8962v5.7615c0,.3795-.2144.7265-.5539.8962Z"/></clipPath></defs><g id="Layer_42"><rect class="cls-1" x="7" y="7" width="1" height="4"/><rect class="cls-1" x="1" y="12" width="13" height="1"/><rect class="cls-1" x="6" y="11" width="3" height="3" rx=".9842" ry=".9842"/><path class="cls-1" d="m3,9h9V0H3s-.0002,8,0,9Z"/><rect x="7" y="12" width="1" height="1"/><rect x="4" y="1" width="7" height="7"/></g></svg>