<?xml version="1.0" encoding="UTF-8"?><svg id="Done" xmlns="http://www.w3.org/2000/svg" xmlns:xlink="http://www.w3.org/1999/xlink" viewBox="0 0 14 14"><defs><style>.cls-1,.cls-2{fill:#f50637;stroke-linecap:round;stroke-linejoin:round;}.cls-1,.cls-3{stroke:#d20f39;}.cls-2{stroke:#f50637;}.cls-4,.cls-3{fill:none;}.cls-3{stroke-miterlimit:10;}</style><clipPath id="clippath"><path class="cls-4" d="m-39.5539,37.2769l-4.998,2.499c-.2821.141-.6141.141-.8962,0l-4.998-2.499c-.3395-.1697-.5539-.5167-.5539-.8962v-5.7615c0-.3795.2144-.7265.5539-.8962l4.998-2.499c.2821-.141.6141-.141.8962,0l4.998,2.499c.3395.1697.5539.5167.5539.8962v5.7615c0,.3795-.2144.7265-.5539.8962Z"/></clipPath></defs><g id="Layer_60"><line class="cls-1" x1="8.5022" y1="5.5" x2="10.5" y2=".5"/><path class="cls-3" d="m11.5,4.5c0-.4818-.9065-.7831-2.2412-.9173l-.2935-.0276c-.4523-.0355-.9425-.0551-1.4631-.0551"/><path class="cls-3" d="m2.5,4.5c0-.4818,1.9109-.7831,3.2456-.9173l.2935-.0276c.4523-.0355.9425-.0551,1.4631-.0551"/><path class="cls-2" d="m7.5022,5.5c-2.2429,0-5.0022-.3271-5.0022-1l1,1,1,8h5l1-8,1-1c0,.6729-1.7549,1-3.9978,1Z"/></g></svg>