<?xml version="1.0" encoding="UTF-8"?><svg id="Done" xmlns="http://www.w3.org/2000/svg" width="16" height="16" viewBox="0 0 16 16"><defs><style>.cls-1,.cls-2{fill:#f50637;stroke-linecap:round;stroke-linejoin:round;}.cls-1,.cls-3{stroke:#d20f39;}.cls-2{stroke:#f50637;}.cls-3{fill:none;stroke-miterlimit:10;}</style></defs><g id="Layer_60"><path class="cls-1" d="m9.5022,6.5l1.9978-5"/><path class="cls-3" d="m12.5,5.5c0-.4818-.9065-.7831-2.2412-.9173l-.2935-.0276c-.4523-.0355-.9425-.0551-1.4631-.0551"/><path class="cls-3" d="m3.5,5.5c0-.4818,1.9109-.7831,3.2456-.9173l.2935-.0276c.4523-.0355.9425-.0551,1.4631-.0551"/><path class="cls-2" d="m8.5022,6.5c-2.2429,0-5.0022-.3271-5.0022-1l1,1,1,8h5l1-8,1-1c0,.6729-1.7549,1-3.9978,1Z"/></g></svg>