<svg xmlns="http://www.w3.org/2000/svg" id="Done" viewBox="0 0 14 14"><defs><clipPath id="clippath"/><style>.cls-3{stroke:#d20f39;fill:none;stroke-miterlimit:10}</style></defs><g id="Layer_60"><path fill="#f50637" stroke="#d20f39" stroke-linecap="round" stroke-linejoin="round" d="M8.502 5.5 10.5.5"/><path d="M11.5 4.5c0-.482-.906-.783-2.241-.917l-.294-.028A19 19 0 0 0 7.502 3.5" class="cls-3"/><path d="M2.5 4.5c0-.482 1.91-.783 3.246-.917l.293-.028c.452-.035.943-.055 1.463-.055" class="cls-3"/><path fill="#f50637" stroke="#f50637" stroke-linecap="round" stroke-linejoin="round" d="M7.502 5.5C5.26 5.5 2.5 5.173 2.5 4.5l1 1 1 8h5l1-8 1-1c0 .673-1.755 1-3.998 1"/></g></svg>