<?xml version="1.0" encoding="UTF-8"?><svg id="Done" xmlns="http://www.w3.org/2000/svg" width="16" height="16" viewBox="0 0 16 16"><defs><style>.cls-1{fill:#0054a0;}.cls-2{fill:#f8b64c;}.cls-3{fill:#4ee01e;}.cls-4{fill:#3d8c2a;}.cls-4,.cls-5{stroke:#0c3500;stroke-miterlimit:10;}.cls-5{fill:#71b263;}.cls-6{fill:#7cff5c;}.cls-7{fill:#006fff;}</style></defs><g id="Layer_36"><rect class="cls-1" x="1.5" y="1.5" width="13" height="13" rx=".8052" ry=".8052"/><path class="cls-7" d="m13.6949,2c.1682,0,.3051.1369.3051.3051v11.3898c0,.1682-.1369.3051-.3051.3051H2.3051c-.1682,0-.3051-.1369-.3051-.3051V2.3051c0-.1682.1369-.3051.3051-.3051h11.3898m0-1H2.3051c-.7208,0-1.3051.5843-1.3051,1.3051v11.3898c0,.7208.5843,1.3051,1.3051,1.3051h11.3898c.7208,0,1.3051-.5843,1.3051-1.3051V2.3051c0-.7208-.5843-1.3051-1.3051-1.3051h0Z"/><path class="cls-4" d="m1.5261,11.7474c-.017.0414-.0259.0857-.0261.1305v1.3169c.0006.3459.1383.6775.383.9221.2446.2446.5762.3823.9221.383h1.2244c.0448-.0002.0891-.0091.1305-.0261h0c.0437-.0179.0833-.0446.1163-.0783l3.3705-2.1021c.0603-.0606.5658-.6321.5707-.7174.0048-.0853-.6655.4419-.7185.375.8973-.8856-.429-1.6668-.4391-1.6793l-1.6141-1.6304c-.0667-.0668-.3622-.3749-.4565-.375-.0943,0-1.7489,1.7248-1.8156,1.7916l-1.5692,1.5733c-.0337.033-.0604.0726-.0783.1163h0Z"/><path class="cls-3" d="m1.0261,12.2474c-.017.0414-.0259.0857-.0261.1305v1.3169c.0006.3459.1383.6775.383.9221.2446.2446.5762.3823.9221.383h1.2244c.0448-.0002.0891-.0091.1305-.0261h0c.0437-.0179.0833-.0446.1163-.0783l3.621-3.6234c.0603-.0606.0962-.1411.101-.2264.0048-.0853-.0218-.1694-.0749-.2363-.0073-.0143-.016-.0278-.0261-.0403l-2.2163-2.2186c-.0667-.0668-.1572-.1043-.2515-.1044-.0943,0-.1848.0376-.2515.1044l-3.5736,3.5807c-.0337.033-.0604.0726-.0783.1163h0Z"/><path class="cls-5" d="m6.5,14.5c.0448,0,2-1,2-1,.0414.0171,2,0,2,0,.3459-.0006,2.9994-.6541,3-1,0,0,1.0171-.9586,1-1-.0179-.0437.0338-.967,0-1l-3.3678-3.4587c-.0329-.0333-.072-.0597-.1152-.0777-.0432-.0181-.0895-.0273-.1363-.0273s-.0931.0093-.1363.0273c-.0432.018-.0823.0445-.1152.0777l-7.3559,7.3559s-.2406.4397,1.5692-.4734c0,0,1.6576-.4239,1.6576.5761Z"/><path class="cls-6" d="m3.1997,14.5183c-.0172.0413-.0261.0857-.0261.1305,0,.0448.0089.0891.0261.1305h0c.037.0877.1069.1575.1946.1946h0c.0414.0171.0857.0259.1305.0261h10.1702c.3459-.0006.6775-.1383.9221-.383s.3823-.5762.3829-.9221v-2.6529h0c-.0002-.0448-.009-.0891-.0261-.1305-.0179-.0437-.0446-.0833-.0783-.1163l-3.7634-3.7539c-.0329-.0333-.072-.0597-.1152-.0777-.0432-.0181-.0895-.0273-.1363-.0273s-.0931.0093-.1363.0273c-.0432.018-.0823.0445-.1152.0777l-7.3559,7.3559h0c-.0337.033-.0604.0726-.0783.1163l.0047.0047Z"/><path class="cls-2" d="m3.5424,6c-.5655,0-1.1215-.2405-1.5403-.557v-3.112c0-.2394.1535-.3253.3437-.3325l3.1853.0015c.3165.4188.5113.9345.5113,1.5,0,1.3807-1.1193,2.5-2.5,2.5Z"/></g></svg>