<svg xmlns="http://www.w3.org/2000/svg" viewBox="0 0 14 14"><rect width="13" height="13" x=".5" y=".5" fill="#0054a0" rx=".805" ry=".805"/><path fill="#006fff" d="M12.695 1c.168 0 .305.137.305.305v11.39a.305.305 0 0 1-.305.305H1.305A.305.305 0 0 1 1 12.695V1.305C1 1.137 1.137 1 1.305 1zm0-1H1.305C.585 0 0 .584 0 1.305v11.39C0 13.415.584 14 1.305 14h11.39c.72 0 1.305-.584 1.305-1.305V1.305C14 .585 13.416 0 12.695 0"/><path fill="#3d8c2a" stroke="#0c3500" stroke-miterlimit="10" d="M.526 10.747a.4.4 0 0 0-.026.13v1.318A1.307 1.307 0 0 0 1.805 13.5H3.03q.067-.001.13-.026a.4.4 0 0 0 .116-.078l3.37-2.103c.061-.06.567-.632.571-.717s-.665.442-.718.375c.897-.886-.429-1.667-.44-1.68l-1.613-1.63c-.067-.066-.362-.375-.457-.375-.094 0-1.749 1.725-1.815 1.792L.604 10.63a.4.4 0 0 0-.078.117Z"/><path fill="#4ee01e" d="M.026 11.247a.4.4 0 0 0-.026.13v1.318A1.307 1.307 0 0 0 1.305 14H2.53q.067-.001.13-.026a.4.4 0 0 0 .116-.078l3.621-3.624a.35.35 0 0 0 .026-.463.2.2 0 0 0-.026-.04L4.181 7.551a.356.356 0 0 0-.503 0L.104 11.13a.4.4 0 0 0-.078.116"/><path fill="#71b263" stroke="#0c3500" stroke-miterlimit="10" d="M5.5 13.5c.045 0 2-1 2-1 .041.017 2 0 2 0 .346 0 3-.654 3-1 0 0 1.017-.959 1-1-.018-.044.034-.967 0-1l-3.368-3.459a.35.35 0 0 0-.503 0l-7.356 7.356s-.24.44 1.57-.473c0 0 1.657-.424 1.657.576Z"/><path fill="#7cff5c" d="M2.2 13.518a.34.34 0 0 0 0 .261.37.37 0 0 0 .194.195.4.4 0 0 0 .13.026h10.171A1.307 1.307 0 0 0 14 12.695v-2.653a.35.35 0 0 0-.104-.247l-3.764-3.754a.35.35 0 0 0-.503 0l-7.356 7.356a.4.4 0 0 0-.078.116z"/><path fill="#f8b64c" d="M2.542 5c-.565 0-1.121-.24-1.54-.557V1.331c0-.24.154-.325.344-.333L4.53 1c.317.419.511.934.511 1.5a2.5 2.5 0 0 1-2.5 2.5"/></svg>