<svg xmlns="http://www.w3.org/2000/svg" id="Done" viewBox="0 0 14 14"><defs><clipPath id="clippath"><path fill="none" d="M-1-1v16h4v-3H2v-1.977L-.105 6.312a4.7 4.7 0 0 1-.85-2.666C-1 0 .963-.9 3.413-.9 5.323-.9 6.996.323 7.68 2H9l3 3h3v-6z"/></clipPath><clipPath id="clippath-1"/><style>.cls-4{fill:#ff0}</style></defs><g id="Layer_10_copy_4"><path d="M13 1v12H1V1zm0-1H1a1 1 0 0 0-1 1v12a1 1 0 0 0 1 1h12a1 1 0 0 0 1-1V1a1 1 0 0 0-1-1" class="cls-4" clip-path="url(#clippath)"/><path fill="#f50637" d="M3.532 10.06a.62.62 0 0 0 .476-.227L5.67 6.911V5.323h.932a3.6 3.6 0 0 0 .414-1.676C7.016 1.689 5.34.1 3.413.1S.045 1.688.045 3.648c-.001.765.242 1.51.692 2.122L3.02 9.794c.12.167.31.266.512.265M1.674 3.41a1.903 1.903 0 1 1 3.805 0 1.903 1.903 0 0 1-3.805 0"/><path id="Text" d="M6.67 6.323h1.242v4.758q0 1.152-.231 1.717c-.231.565-.384.665-.69.867q-.46.302-1.13.302-.888 0-1.39-.61t-.508-1.84l1.175-.164q.02.661.17.937.2.38.601.38.39 0 .576-.274c.186-.274.185-.588.185-1.218zm2.246 5.065 1.215-.143q.206 1.44 1.344 1.44.564 0 .886-.294a.95.95 0 0 0 .323-.73.8.8 0 0 0-.112-.436.83.83 0 0 0-.344-.295q-.231-.115-1.118-.386-.794-.24-1.163-.522a2 2 0 0 1-.587-.74 2.3 2.3 0 0 1-.219-.987q0-.615.28-1.106t.772-.743 1.215-.252q1.086 0 1.697.59c.61.59.622.956.646 1.687l-1.246.067q-.083-.605-.354-.847-.272-.24-.774-.24c-.502 0-.593.07-.774.21s-.272.313-.272.52q0 .307.247.517.246.21 1.133.46.938.273 1.356.573.417.3.638.773.22.475.22 1.151 0 .98-.602 1.646-.603.666-1.885.666-2.265 0-2.522-2.58Z" class="cls-4"/></g></svg>