<?xml version="1.0" encoding="UTF-8"?><svg id="Done" xmlns="http://www.w3.org/2000/svg" width="16" height="16" xmlns:xlink="http://www.w3.org/1999/xlink" viewBox="0 0 16 16"><defs><style>.cls-1{clip-path:url(#clippath);}.cls-2{fill:none;}.cls-3{fill:#ff0;}</style><clipPath id="clippath"><polyline class="cls-2" points="0 16 4 16 4 13 3 13 3 3 10 3 13 6 16 6 16 0 0 0"/></clipPath></defs><g id="Layer_10"><g class="cls-1"><path class="cls-3" d="m13.9997,2l.0003.0003v3.9997l-.0003,8-11.9997-.0003.0003-11.9997h11.9995m0-1H2.0003c-.5524,0-1.0003.4478-1.0003,1.0003v11.9995c0,.5524.4478,1.0003,1.0003,1.0003h11.9995c.5524,0,1.0003-.4478,1.0003-1.0003V2.0003c0-.5524-.4478-1.0003-1.0003-1.0003h0Z"/></g><g id="Text"><path class="cls-3" d="m7.6704,7.3228h1.2412v4.7578c0,.769-.0771,1.3413-.231,1.7173s-.3838.665-.6895.8672c-.3062.2012-.6831.3018-1.1304.3018-.5918,0-1.0547-.2031-1.3896-.6104-.335-.4062-.5044-1.0195-.5078-1.8398l1.1743-.1641c.0137.4404.0703.7539.1699.9375.1333.2539.334.3799.6016.3799.2607,0,.4526-.0918.5762-.2744s.1851-.5879.1851-1.2178v-4.855Z"/><path class="cls-3" d="m9.916,12.3877l1.2153-.1426c.1367.96.5845,1.4404,1.3433,1.4404.376,0,.6719-.0986.8867-.2949.2158-.1963.3232-.4395.3232-.7305,0-.1709-.0376-.3154-.1128-.4355-.0752-.1191-.1899-.2178-.3433-.2944-.1543-.0771-.5269-.2056-1.1182-.3867-.5298-.1602-.9175-.3345-1.1636-.522-.2461-.188-.4419-.4346-.5869-.7402-.1455-.3057-.2183-.6348-.2183-.9863,0-.4097.0933-.7788.2798-1.1064.186-.3276.4434-.5757.7715-.7427.3281-.1675.7329-.2515,1.2153-.2515.7241,0,1.29.1968,1.6968.5898s.6221.9556.646,1.6865l-1.2461.0669c-.0547-.4033-.1724-.6851-.3535-.8462-.1812-.1602-.4395-.2407-.7744-.2407s-.5928.0698-.7739.2095-.272.3135-.272.5215c0,.2046.0825.3765.2471.5161.1641.1396.542.2935,1.1333.4609.6255.1812,1.0771.3721,1.3555.5718.2783.2002.4912.458.6382.7739.1475.3164.2197.6997.2197,1.1509,0,.6523-.2002,1.2012-.6021,1.6455-.4014.4443-1.0298.666-1.8843.666-1.5107,0-2.3516-.8594-2.5225-2.5791Z"/></g></g></svg>