<?xml version="1.0" encoding="UTF-8"?><svg id="Layer_78" xmlns="http://www.w3.org/2000/svg" xmlns:xlink="http://www.w3.org/1999/xlink" viewBox="0 0 14 14"><defs><style>.cls-1{fill:#afafaf;}.cls-2{fill:none;}.cls-3{fill:#ff283a;}.cls-4{fill:#f2f2f2;}</style><clipPath id="clippath"><path class="cls-2" d="m116.4461-14.7231l-4.998,2.499c-.2821.141-.6141.141-.8962,0l-4.998-2.499c-.3395-.1697-.5539-.5167-.5539-.8962v-5.7615c0-.3795.2144-.7265.5539-.8962l4.998-2.499c.2821-.141.6141-.141.8962,0l4.998,2.499c.3395.1697.5539.5167.5539.8962v5.7615c0,.3795-.2144.7265-.5539.8962Z"/></clipPath></defs><g id="Layer_77"><path class="cls-3" d="m4.3281,7.6631l.8018-1.3672c.377-.6621,1.1099-1.0879,1.8994-1.0879h.1504c.3594-.7139,1.1157-1.208,1.9717-1.208h1.623c.5563,0,1.0599.2253,1.4521.5746.2578-.5901.242-1.4031-.2266-2.5746-.6196-1.0924,0-2,0-2h-6c0,3-1.3441,4.7196-3,5-.8079-.3344-2-2-2-3-1.7603,3.5206-.9183,7.8376,3.1572,6.0708.0483-.1383.093-.278.1709-.4077Z"/><circle class="cls-3" cx="1.5" cy="1.5" r="1.5"/></g><path class="cls-4" d="m12.9779,10.392c.0162-.128.0284-.256.0284-.392s-.0122-.264-.0284-.392l.8562-.66c.0771-.06.0974-.168.0487-.256l-.8116-1.384c-.0494-.0853-.1543-.1225-.2475-.088l-1.0104.4c-.211-.16-.4382-.292-.6857-.392l-.1542-1.06c-.0139-.0974-.0991-.1694-.1988-.168h-1.6231c-.1014,0-.1867.072-.1989.168l-.1542,1.06c-.2475.1-.4748.236-.6858.392l-1.0104-.4c-.0235-.0079-.0482-.0119-.073-.012-.069,0-.138.036-.1745.1l-.8116,1.384c-.0528.088-.0284.196.0487.256l.8562.66c-.0163.128-.0284.26-.0284.392s.0121.264.0284.392l-.8562.66c-.0771.06-.0974.168-.0487.256l.8116,1.384c.0494.0853.1543.1226.2475.088l1.0104-.4c.211.16.4383.292.6858.392l.1542,1.06c.0122.096.0974.168.1989.168h1.6231c.1014,0,.1867-.072.1988-.168l.1542-1.06c.2475-.1.4747-.236.6857-.392l1.0104.4c.0243.008.0487.012.073.012.069,0,.138-.036.1745-.1l.8116-1.384c.0487-.088.0284-.196-.0487-.256l-.8562-.66Z"/><path class="cls-1" d="m12.9779,10.392c.0162-.128.0284-.256.0284-.392s-.0122-.264-.0284-.392l.8562-.66c.0771-.06.0974-.168.0487-.256l-.8116-1.384c-.0494-.0853-4.2728,5.464-4.2728,5.464l.1542,1.06c.0229.1039.0892.1599.1989.168h1.6231c.1014,0,.1867-.072.1988-.168l.1542-1.06c.2475-.1.4747-.236.6857-.392l1.0104.4c.0243.008.0487.012.073.012.069,0,.138-.036.1745-.1l.8116-1.384c.0487-.088.0284-.196-.0487-.256l-.8562-.66Z"/><circle cx="9.9631" cy="9.9426" r="1.5"/></svg>