<svg xmlns="http://www.w3.org/2000/svg" id="Layer_78" viewBox="0 0 14 14"><defs><clipPath id="clippath"/><style>.cls-3{fill:#ff283a}</style></defs><g id="Layer_77"><path d="m4.328 7.663.802-1.367a2.2 2.2 0 0 1 1.9-1.088h.15A2.22 2.22 0 0 1 9.15 4h1.623c.557 0 1.06.225 1.453.575.257-.59.241-1.404-.227-2.575-.62-1.092 0-2 0-2H6c0 3-1.344 4.72-3 5-.808-.334-2-2-2-3C-.76 5.52.082 9.838 4.157 8.07c.048-.138.093-.277.171-.407" class="cls-3"/><circle cx="1.5" cy="1.5" r="1.5" class="cls-3"/></g><path fill="#f2f2f2" d="M12.978 10.392q.026-.19.028-.392c.002-.202-.012-.264-.028-.392l.856-.66a.2.2 0 0 0 .049-.256l-.812-1.384a.204.204 0 0 0-.247-.088l-1.01.4a3 3 0 0 0-.686-.392l-.155-1.06A.2.2 0 0 0 10.775 6H9.15a.2.2 0 0 0-.198.168l-.155 1.06a3 3 0 0 0-.685.392l-1.01-.4a.2.2 0 0 0-.074-.012.2.2 0 0 0-.174.1l-.812 1.384a.195.195 0 0 0 .049.256l.856.66q-.026.193-.028.392c-.002.199.012.264.028.392l-.856.66a.2.2 0 0 0-.049.256l.812 1.384c.05.085.154.123.247.088l1.01-.4q.317.241.686.392l.155 1.06A.2.2 0 0 0 9.15 14h1.624a.2.2 0 0 0 .198-.168l.155-1.06c.247-.1.474-.236.685-.392l1.01.4a.2.2 0 0 0 .074.012.2.2 0 0 0 .174-.1l.812-1.384a.2.2 0 0 0-.049-.256z"/><path fill="#afafaf" d="M12.978 10.392q.026-.19.028-.392c.002-.202-.012-.264-.028-.392l.856-.66a.2.2 0 0 0 .049-.256l-.812-1.384c-.05-.085-4.273 5.464-4.273 5.464l.155 1.06q.034.156.198.168h1.624a.2.2 0 0 0 .198-.168l.155-1.06c.247-.1.474-.236.685-.392l1.01.4a.2.2 0 0 0 .074.012.2.2 0 0 0 .174-.1l.812-1.384a.2.2 0 0 0-.049-.256z"/><circle cx="9.963" cy="9.943" r="1.5"/></svg>