<svg xmlns="http://www.w3.org/2000/svg" viewBox="0 0 14 14"><defs><clipPath id="a"><path fill="none" d="m12.446 11.277-4.998 2.499a1 1 0 0 1-.896 0l-4.998-2.5A1 1 0 0 1 1 10.382V4.619a1 1 0 0 1 .554-.896l4.998-2.499c.282-.14.614-.14.896 0l4.998 2.5a1 1 0 0 1 .554.895v5.762a1 1 0 0 1-.554.896"/></clipPath></defs><g clip-path="url(#a)"><path fill="#00dd80" d="M7 1 1 4l6 3 6-3z"/><path fill="#002c41" d="M7 14V7L1 4v7z"/><path fill="#0086f8" d="m13 11-6 3V7l6-3z"/><path fill="#00c069" d="m3 5 4-2 4 2-4 2z"/><path fill="#0071b6" d="M7 7v4.978L11 10V5z"/><path fill="#000f12" d="M7 7v4.978L3 10V5z"/><path fill="#fff" d="m9 9-2 1-2-1V6l2-1 2 1"/></g></svg>