<?xml version="1.0" encoding="UTF-8"?><svg id="Done" xmlns="http://www.w3.org/2000/svg" xmlns:xlink="http://www.w3.org/1999/xlink" viewBox="0 0 14 14"><defs><style>.cls-1{fill:#fff;}.cls-2{fill:#0086f8;}.cls-3{clip-path:url(#clippath);}.cls-4{fill:none;}.cls-5{fill:#00c069;}.cls-6{fill:#002c41;}.cls-7{fill:#0071b6;}.cls-8{fill:#00dd80;}.cls-9{fill:#000f12;}</style><clipPath id="clippath"><path class="cls-4" d="m12.4461,11.2769l-4.998,2.499c-.2821.141-.6141.141-.8962,0l-4.998-2.499c-.3395-.1697-.5539-.5167-.5539-.8962v-5.7615c0-.3795.2144-.7265.5539-.8962L6.5519,1.2241c.2821-.141.6141-.141.8962,0l4.998,2.499c.3395.1697.5539.5167.5539.8962v5.7615c0,.3795-.2144.7265-.5539.8962Z"/></clipPath></defs><g id="Layer_68"><g id="Layer_71"><g class="cls-3"><g id="Layer_69"><polygon class="cls-8" points="7 1 1 4 7 7 13 4 7 1"/><polygon class="cls-6" points="7 14 7 7 1 4 1 11 7 14"/><polygon class="cls-2" points="13 11 7 14 7 7 13 4 13 11"/><g id="Layer_70"><polygon class="cls-5" points="3 5 7 3 11 5 7 7 3 5"/><polygon class="cls-7" points="7 7 7 11.9783 11 10 11 5 7 7"/><polygon class="cls-9" points="7 7 7 11.9783 3 10 3 5 7 7"/></g><polyline class="cls-1" points="9 9 7 10 5 9 5 6 7 5 9 6"/></g></g></g></g></svg>