<?xml version="1.0" encoding="UTF-8"?><svg id="Done" xmlns="http://www.w3.org/2000/svg" xmlns:xlink="http://www.w3.org/1999/xlink" viewBox="0 0 14 14"><defs><style>.cls-1{stroke:#ffd000;stroke-linecap:round;stroke-linejoin:round;}.cls-1,.cls-2{fill:none;}.cls-3{fill:#ffcf00;}</style><clipPath id="clippath"><path class="cls-2" d="m-13.5539,89.2769l-4.998,2.499c-.2821.141-.6141.141-.8962,0l-4.998-2.499c-.3395-.1697-.5539-.5167-.5539-.8962v-5.7615c0-.3795.2144-.7265.5539-.8962l4.998-2.499c.2821-.141.6141-.141.8962,0l4.998,2.499c.3395.1697.5539.5167.5539.8962v5.7615c0,.3795-.2144.7265-.5539.8962Z"/></clipPath></defs><g id="Layer_63"><g id="Layer_62"><g id="json"><path id="Combined-Shape" class="cls-1" d="m3.5,1.5c-1,0-2,1.1768-2,2v1.5c0,1.1046-1.0067,1.5-1.0033,2s1.0033.8954,1.0033,2v1.5c0,1,1,2,2,2M10.5,1.5c1,0,2,1,2,2v1.5c0,1.1046,1.0067,1.5,1.0033,2s-1.0033.8954-1.0033,2v1.5c0,1-1,2-2,2"/></g><rect class="cls-3" x="6" y="7" width="2" height="2" rx=".75" ry=".75"/><rect class="cls-3" x="9" y="7" width="2" height="2" rx=".75" ry=".75"/><rect class="cls-3" x="3" y="7" width="2" height="2" rx=".75" ry=".75"/></g></g></svg>