<svg xmlns="http://www.w3.org/2000/svg" id="Done" viewBox="0 0 14 14"><defs><clipPath id="clippath"/><style>.cls-3{fill:#ffcf00}</style></defs><g id="Layer_63"><g id="Layer_62"><g id="json"><path id="Combined-Shape" fill="none" stroke="#ffd000" stroke-linecap="round" stroke-linejoin="round" d="M3.5 1.5c-1 0-2 1.177-2 2V5C1.5 6.105.493 6.5.497 7S1.5 7.895 1.5 9v1.5c0 1 1 2 2 2m7-11c1 0 2 1 2 2V5c0 1.105 1.007 1.5 1.003 2S12.5 7.895 12.5 9v1.5c0 1-1 2-2 2"/></g><rect width="2" height="2" x="6" y="7" class="cls-3" rx=".75" ry=".75"/><rect width="2" height="2" x="9" y="7" class="cls-3" rx=".75" ry=".75"/><rect width="2" height="2" x="3" y="7" class="cls-3" rx=".75" ry=".75"/></g></g></svg>