<?xml version="1.0" encoding="UTF-8"?><svg id="Done" xmlns="http://www.w3.org/2000/svg" width="16" height="16" viewBox="0 0 16 16"><defs><style>.cls-1{fill:none;stroke:#ffd000;stroke-linecap:round;stroke-linejoin:round;}.cls-2{fill:#ffcf00;}</style></defs><g id="Layer_63"><g id="Layer_62"><g id="json"><path id="Combined-Shape" class="cls-1" d="m4.5,2.5c-1,0-2,1.1768-2,2v1.5c0,1.1046-.1733,2-1.0033,2,.83,0,1.0033.8954,1.0033,2v1.5c0,1,1,2,2,2M11.5,2.5c1,0,2,1,2,2v1.5c0,1.1046.1733,2,1.0033,2-.83,0-1.0033.8954-1.0033,2v1.5c0,1-1,2-2,2"/></g><rect class="cls-2" x="7" y="8" width="2" height="2" rx=".75" ry=".75"/><rect class="cls-2" x="10" y="8" width="2" height="2" rx=".75" ry=".75"/><rect class="cls-2" x="4" y="8" width="2" height="2" rx=".75" ry=".75"/></g></g></svg>