<?xml version="1.0" encoding="UTF-8"?><svg id="Done" xmlns="http://www.w3.org/2000/svg" xmlns:xlink="http://www.w3.org/1999/xlink" viewBox="0 0 14 14"><defs><style>.cls-1{fill:#fff;}.cls-2{fill:none;}.cls-3{fill:red;}</style><clipPath id="clippath"><path class="cls-2" d="m-91.5539,141.2769l-4.998,2.499c-.2821.141-.6141.141-.8962,0l-4.998-2.499c-.3395-.1697-.5539-.5167-.5539-.8962v-5.7615c0-.3795.2144-.7265.5539-.8962l4.998-2.499c.2821-.141.6141-.141.8962,0l4.998,2.499c.3395.1697.5539.5167.5539.8962v5.7615c0,.3795-.2144.7265-.5539.8962Z"/></clipPath></defs><g id="Layer_7"><path id="path5" class="cls-1" d="m10.9991,3l-.0564-2.5005c-.0002-.2762-.2243-.4998-.5004-.4995H2.4773c-.2641,0-.4782.2141-.4782.4782v11.0437c0,.2641.2141.4782.4782.4782h4.5218v-1H2.9991V1h7v2"/><rect class="cls-1" x="3.9991" y="6" width="3" height="1"/><rect class="cls-1" x="3.9991" y="3" width="5" height="1"/><path class="cls-3" d="m10.4606,5.0469c-1.2121.2106-2.2029,1.2079-2.4147,2.4199-.1921,1.0988.2236,2.0973.9532,2.7546v3.0588c0,.2656.3211.3986.5089.2108l1.0359-1.0359c.2513-.2513.6589-.2513.9103,0l1.0374,1.0374c.1873.1873.5074.0546.5074-.2102v-3.0609c.6096-.5491,1-1.3364,1-2.2214,0-1.8332-1.6442-3.2823-3.5385-2.9531Zm.5385,4.9531c-1.1046,0-2-.8954-2-2s.8954-2,2-2,2,.8954,2,2-.8954,2-2,2Z"/></g></svg>