<svg xmlns="http://www.w3.org/2000/svg" id="Done" viewBox="0 0 14 14"><defs><clipPath id="clippath"/><style>.cls-1{fill:#fff}</style></defs><g id="Layer_7"><path id="path5" d="M11 3 10.942.5a.5.5 0 0 0-.5-.5H2.476A.48.48 0 0 0 2 .478v11.044c0 .264.214.478.478.478H7v-1H3V1h7v2" class="cls-1"/><path d="M3.999 6h3v1h-3zm0-3h5v1h-5z" class="cls-1"/><path fill="red" d="M10.46 5.047c-1.212.21-2.202 1.208-2.414 2.42a2.98 2.98 0 0 0 .953 2.754v3.06c0 .265.321.398.509.21l1.036-1.036a.644.644 0 0 1 .91 0l1.038 1.037a.297.297 0 0 0 .507-.21v-3.06c.61-.55 1-1.337 1-2.222a3.002 3.002 0 0 0-3.538-2.953M11 10a2 2 0 1 1-.001-4 2 2 0 0 1 0 4"/></g></svg>