<?xml version="1.0" encoding="UTF-8"?><svg id="Done" xmlns="http://www.w3.org/2000/svg" xmlns:xlink="http://www.w3.org/1999/xlink" viewBox="0 0 14 14"><defs><style>.cls-1{fill:none;}.cls-2{fill:#00a7f8;}</style><clipPath id="clippath"><path class="cls-1" d="m-65.5539,141.2769l-4.998,2.499c-.2821.141-.6141.141-.8962,0l-4.998-2.499c-.3395-.1697-.5539-.5167-.5539-.8962v-5.7615c0-.3795.2144-.7265.5539-.8962l4.998-2.499c.2821-.141.6141-.141.8962,0l4.998,2.499c.3395.1697.5539.5167.5539.8962v5.7615c0,.3795-.2144.7265-.5539.8962Z"/></clipPath></defs><g id="Layer_11"><path class="cls-2" d="m0,7V0h4v1l3,2,3-2V0h4v7h-3V3l-1,1-3,2-3-2-1-1v4H0Z"/><polyline class="cls-2" points="0 9 7.001 14 14 9"/><polygon class="cls-2" points="10 10 4 10 4 6 7 8 10 6 10 10"/></g></svg>