<?xml version="1.0" encoding="UTF-8"?><svg id="Done" xmlns="http://www.w3.org/2000/svg" xmlns:xlink="http://www.w3.org/1999/xlink" viewBox="0 0 14 14"><defs><style>.cls-1{fill:#fff;}.cls-2{fill:none;}</style><clipPath id="clippath"><path class="cls-2" d="m-13.5539,63.2769l-4.998,2.499c-.2821.141-.6141.141-.8962,0l-4.998-2.499c-.3395-.1697-.5539-.5167-.5539-.8962v-5.7615c0-.3795.2144-.7265.5539-.8962l4.998-2.499c.2821-.141.6141-.141.8962,0l4.998,2.499c.3395.1697.5539.5167.5539.8962v5.7615c0,.3795-.2144.7265-.5539.8962Z"/></clipPath></defs><g id="Layer_41"><path class="cls-1" d="m0,4v2c0,2,3,3,7,3s7-1,7-3v-2c-1,1-3,2-7,2S1,5,0,4Z"/><path class="cls-1" d="m0,9v2c0,2,2.9658,3,7,3,4.011,0,7-1,7-3v-2c-1,1-3,2-7,2S.9796,9.9796,0,9Z"/><ellipse class="cls-1" cx="7" cy="2" rx="7" ry="2"/></g></svg>