<?xml version="1.0" encoding="UTF-8"?><svg id="Done" xmlns="http://www.w3.org/2000/svg" xmlns:xlink="http://www.w3.org/1999/xlink" viewBox="0 0 14 14"><defs><style>.cls-1{fill:#777;}.cls-2{fill:none;}</style><clipPath id="clippath"><path class="cls-2" d="m12.4461,89.2769l-4.998,2.499c-.2821.141-.6141.141-.8962,0l-4.998-2.499c-.3395-.1697-.5539-.5167-.5539-.8962v-5.7615c0-.3795.2144-.7265.5539-.8962l4.998-2.499c.2821-.141.6141-.141.8962,0l4.998,2.499c.3395.1697.5539.5167.5539.8962v5.7615c0,.3795-.2144.7265-.5539.8962Z"/></clipPath></defs><g id="Layer_22_copy"><path class="cls-1" d="m6.4495.2367c.3417-.193.7594-.1928,1.1011.0002,1.645.9295,3.2905,1.8576,4.9353,2.7877.3099.1746.5173.5195.5141.8767v5.6667c.0023.3683-.2233.718-.547.8869-1.6265.917-3.2522,1.8352-4.8785,2.7522-.3314.1895-.7627.1749-1.0837-.0301-.4876-.2827-.9761-.564-1.4638-.8464-.0997-.0594-.212-.1067-.2824-.2033.0622-.0838.1734-.0943.2638-.1309.2035-.0647.3905-.1686.5775-.2694.0473-.0324.105-.02.1503.009.417.2391.8303.4851,1.2487.7219.0893.0515.1796-.0169.2559-.0594,1.5961-.9021,3.1942-1.8008,4.7901-2.7032.0591-.0284.0918-.0912.087-.156.0011-1.8301.0003-3.6605.0006-5.4906.0068-.0735-.0358-.1411-.1022-.1711-1.6209-.9128-3.2409-1.8271-4.8616-2.7401-.0575-.0395-.1333-.0396-.1909-.0003-1.6206.9133-3.2404,1.8284-4.861,2.7412-.0662.0301-.1107.0966-.1028.1703.0003,1.8301,0,5.5525,0,5.5525,0,0,.6577.6601,1.1021.911.2503.1347.5577.2148.8335.1116.2434-.0873.414-.3357.4094-.5941.0023-1.8683-.0011-3.7369.0017-5.6049-.0061-.0829.0726-.1515.1532-.1437.2134-.0014.427-.0029.6404.0006.0891-.002.1504.0873.1393.1709-.0009,1.8801.0023,3.7603-.0014,5.6404.0006.5011-.2053,1.0463-.6688,1.2915-.571.2958-1.2767.2331-1.8408-.0506-.4883-.2437-.9544-.5314-1.434-.7925-.3333-.1725-.3347-.9109-.3347-.9109V3.9012c-.0034-.3645.2121-.7157.5317-.8878,1.6395-.9252,3.2786-1.8511,4.9178-2.7768Z"/><path class="cls-1" d="m7.78,4.1487c.7283-.0469,1.5081-.0278,2.1635.331.5074.275.7888.852.7977,1.4158-.0142.076-.0937.118-.1663.1128-.2113-.0003-.4227.0029-.634-.0014-.0896.0034-.1417-.0792-.153-.1585-.0607-.2697-.2078-.5369-.4617-.667-.3897-.1951-.8416-.1853-1.2666-.1812-.3102.0165-.6439.0433-.9067.2258-.2018.1382-.2631.4172-.1911.6419.0679.1613.2541.2134.4065.2614.8777.2296,1.8079.2067,2.6688.5088.3565.1232.7052.3626.8272.7358.1596.5002.0896,1.0981-.2662,1.4997-.2886.3305-.7089.5103-1.1282.608-.5577.1244-1.1365.1275-1.7029.0723-.5326-.0607-1.0868-.2006-1.4979-.5635-.3516-.3053-.5233-.7809-.5062-1.24.0041-.0775.0813-.1316.1555-.1252.2128-.0017.4256-.0023.6384.0003.085-.0061.148.0674.1524.1475.0393.257.1359.5267.36.6791.4325.279.9752.2599,1.4704.2677.4103-.0182.8708-.0237,1.2057-.2949.1766-.1547.229-.4134.1812-.6361-.0517-.1879-.2483-.2755-.4172-.3328-.8665-.2741-1.807-.1746-2.6651-.4846-.3484-.1231-.6852-.3559-.8191-.7138-.1868-.5065-.1012-1.1331.292-1.5211.3834-.386.9368-.5346,1.4629-.5878h0Z"/></g></svg>