<svg xmlns="http://www.w3.org/2000/svg" id="Done" viewBox="0 0 14 14"><defs><clipPath id="clippath"/><style>.cls-1{fill:#8cc84b}</style></defs><g id="Layer_22"><path d="M6.45.237a1.12 1.12 0 0 1 1.1 0l4.936 2.788c.31.174.517.52.514.876v5.667a1.02 1.02 0 0 1-.547.887l-4.878 2.752c-.332.19-.763.175-1.084-.03l-1.464-.846c-.1-.06-.212-.107-.282-.204.062-.084.173-.094.263-.13.204-.065.39-.17.578-.27.047-.032.105-.02.15.009.417.24.83.485 1.249.722.09.051.18-.017.256-.06 1.596-.902 3.194-1.8 4.79-2.703a.16.16 0 0 0 .087-.156V4.05a.17.17 0 0 0-.102-.171l-4.861-2.74a.17.17 0 0 0-.191 0l-4.861 2.74a.17.17 0 0 0-.103.17v5.553s.658.66 1.102.911c.25.135.558.215.834.112a.63.63 0 0 0 .409-.594c.002-1.869-.001-3.737.002-5.605-.006-.083.072-.152.153-.144q.32-.003.64 0c.09-.001.15.088.14.172-.001 1.88.002 3.76-.002 5.64 0 .501-.205 1.046-.669 1.291-.57.296-1.276.234-1.84-.05-.489-.244-.955-.531-1.434-.793C1 10.37 1 9.631 1 9.631V3.9a1.02 1.02 0 0 1 .532-.888z" class="cls-1"/><path d="M7.78 4.149c.728-.047 1.508-.028 2.164.33.507.276.788.853.797 1.417-.014.076-.093.118-.166.112-.211 0-.423.003-.634-.001-.09.003-.142-.08-.153-.159-.06-.27-.208-.537-.462-.667-.39-.195-.841-.185-1.266-.18-.31.016-.644.043-.907.225-.202.138-.263.417-.191.642.068.161.254.213.406.261.878.23 1.808.207 2.67.51.356.122.704.362.826.735.16.5.09 1.098-.266 1.5-.289.33-.709.51-1.128.608-.558.124-1.137.127-1.703.072-.533-.06-1.087-.2-1.498-.564-.351-.305-.523-.78-.506-1.24.004-.077.081-.131.155-.125q.32-.002.639 0c.085-.006.148.068.152.148.04.257.136.527.36.68.433.278.975.259 1.47.267.41-.018.871-.024 1.206-.295.177-.155.23-.413.182-.636-.052-.188-.249-.276-.418-.333-.866-.274-1.807-.175-2.665-.485-.348-.123-.685-.355-.819-.713-.187-.507-.101-1.133.292-1.521.384-.386.937-.535 1.463-.588" class="cls-1"/></g></svg>