<?xml version="1.0" encoding="UTF-8"?><svg id="Done" xmlns="http://www.w3.org/2000/svg" width="16" height="16" viewBox="0 0 16 16"><defs><style>.cls-1{fill:#d48a08;}.cls-1,.cls-2,.cls-3,.cls-4,.cls-5,.cls-6,.cls-7{fill-rule:evenodd;}.cls-2{fill:#f6a009;}.cls-3{fill:#815405;}.cls-4{fill:#b1b1b1;}.cls-5{fill:#f2f2f2;}.cls-6{fill:#ffd491;}</style></defs><g id="Layer_32"><path class="cls-3" d="m13,1l-2,2v1h2V1Z"/><path class="cls-1" d="m6,10c-.0225-.8179.3452-1.4458,1-1.7666v-.2334c0-1.7793,2-4,4-4v-1H1v10h5v-3Z"/><polygon class="cls-2" points="13 1 3 1 1 3 11 3 13 1"/><polygon class="cls-6" points="9 1 6 1 4 3 7 3 9 1"/><path class="cls-6" d="m6,10c-.0225-.8179.3452-1.4458,1-1.7666V3h-3v10h2v-3Z"/><g id="Lock"><path id="lock" class="cls-5" d="m9,9c0-1.3071,1.1913-2.7692,2.6362-2.7692,1.442,0,2.3638,1.4633,2.3638,2.7692v1c.6223.0113.9895.3045,1,1v4h-7v-4c-.018-.6651.3521-.9636,1-1v-1Zm1-.0069c0-.6359.2526-1.2457.7022-1.6954l.2978-.2978h1l.2907.2907c.4541.4541.7093,1.0701.7093,1.7123v.9969h-3v-1.0069Z"/><path id="lock-2" class="cls-4" d="m15,11v4h-7c-.0006-1,7-5,7-4Zm-2-1h-3"/><rect x="11" y="11" width="1" height="2"/><polygon class="cls-7" points="14.2315 9.5 8.7085 9.5 8.738 10 14.261 10 14.2315 9.5"/></g></g></svg>