<?xml version="1.0" encoding="UTF-8"?><svg id="Done" xmlns="http://www.w3.org/2000/svg" xmlns:xlink="http://www.w3.org/1999/xlink" viewBox="0 0 14 14"><defs><style>.cls-1{fill:#d48a08;}.cls-1,.cls-2,.cls-3,.cls-4{fill-rule:evenodd;}.cls-2{fill:#f6a009;}.cls-3{fill:#815405;}.cls-5{fill:none;}.cls-4{fill:#ffd491;}</style><clipPath id="clippath"><path class="cls-5" d="m64.4461,115.2769l-4.998,2.499c-.2821.141-.6141.141-.8962,0l-4.998-2.499c-.3395-.1697-.5539-.5167-.5539-.8962v-5.7615c0-.3795.2144-.7265.5539-.8962l4.998-2.499c.2821-.141.6141-.141.8962,0l4.998,2.499c.3395.1697.5539.5167.5539.8962v5.7615c0,.3795-.2144.7265-.5539.8962Z"/></clipPath></defs><g id="Layer_15"><path id="polygon117" class="cls-3" d="m12,14V2L14,0v12l-2,2Z"/><path id="rect117" class="cls-1" d="m0,2h12v12H0V2Z"/><path id="polygon118" class="cls-2" d="m12,2L14,0H2s-2,2-2,2h12Z"/><path id="polygon119" class="cls-4" d="m7,2L9,0h-3l-2,2h3Z"/><path id="rect119" class="cls-4" d="m4,2h3v12h-3V2Z"/></g></svg>