<svg xmlns="http://www.w3.org/2000/svg" viewBox="0 0 14 14"><path fill="#815405" fill-rule="evenodd" d="m12 0-2 2v1h2z"/><path fill="#d48a08" fill-rule="evenodd" d="M5 9c-.022-.818.345-1.446 1-1.767V7c0-1.78 2-4 4-4V2H0v10h5z"/><path fill="#f6a009" fill-rule="evenodd" d="M12 0H2L0 2h10z"/><path fill="#ffd491" fill-rule="evenodd" d="M8 0H5L3 2h3zM5 9c-.022-.818.345-1.446 1-1.767V2H3v10h2z"/><path fill="#f2f2f2" fill-rule="evenodd" d="M8 8c0-1.307 1.191-2.77 2.636-2.77C12.078 5.23 13 6.695 13 8v1c.622.011.99.305 1 1v4H7v-4c-.018-.665.352-.964 1-1zm1-.007c0-.636.253-1.246.702-1.695L10 6h1l.29.29c.455.455.71 1.07.71 1.713V9H9z"/><path fill="#b1b1b1" fill-rule="evenodd" d="M14 10v4H7c0-1 7-5 7-4m-2-1H9"/><path d="M10 10h1v2h-1z"/><path fill-rule="evenodd" d="M13.232 8.5H7.709l.029.5h5.523z"/></svg>