<svg xmlns="http://www.w3.org/2000/svg" id="Done" viewBox="0 0 14 14"><defs><clipPath id="clippath"/><style>.cls-1{fill:#282828}.cls-7{fill:#606060}</style></defs><g id="Layer_67"><path d="M0 10h2v2H0zm12 0h2v2h-2zm-8 0h2v2H4zm4 0h2v2H8z" class="cls-7"/><path d="M2 10h2v2H2zm4 0h2v2H6zm4 0h2v2h-2z" class="cls-1"/><path d="M2 8h2v2H2zm4 0h2v2H6zm4 0h2v2h-2z" class="cls-7"/><path d="M4 8h2v2H4zm4 0h2v2H8zm4 0h2v2h-2zM0 8h2v2H0z" class="cls-1"/><path d="M0 6h2v2H0zm12 0h2v2h-2zM4 6h2v2H4zm4 0h2v2H8z" class="cls-7"/><path d="M2 6h2v2H2zm4 0h2v2H6zm4 0h2v2h-2z" class="cls-1"/><path d="M2 4h2v2H2zm4 0h2v2H6zm4 0h2v2h-2z" class="cls-7"/><path d="M4 4h2v2H4zm4 0h2v2H8zm4 0h2v2h-2zM0 4h2v2H0z" class="cls-1"/><path d="M0 2h2v2H0zm12 0h2v2h-2zM4 2h2v2H4zm4 0h2v2H8z" class="cls-7"/><path d="M2 2h2v2H2zm4 0h2v2H6zm4 0h2v2h-2z" class="cls-1"/><path d="M2 0h2v2H2zm4 0h2v2H6zm4 0h2v2h-2z" class="cls-7"/><path d="M4 0h2v2H4zm4 0h2v2H8zm4 0h.997C13.551 0 14 .45 14 1.003V2h-2zM1.005 0H2v2H0v-.995C0 .45.45 0 1.005 0" class="cls-1"/><path fill="#3d8c2a" stroke="#0c3500" stroke-miterlimit="10" d="M.526 10.747a.4.4 0 0 0-.026.13v1.318A1.307 1.307 0 0 0 1.805 13.5H3.03q.067-.001.13-.026a.4.4 0 0 0 .116-.078l3.37-2.103c.061-.06.567-.632.571-.717s-.665.442-.718.375c.897-.886-.429-1.667-.44-1.68l-1.613-1.63c-.067-.066-.362-.375-.457-.375-.094 0-1.749 1.725-1.815 1.792L.604 10.63a.4.4 0 0 0-.078.117Z"/><path fill="#4ee01e" d="M.026 11.247a.4.4 0 0 0-.026.13v1.318A1.307 1.307 0 0 0 1.305 14H2.53q.067-.001.13-.026a.4.4 0 0 0 .116-.078l3.621-3.624a.35.35 0 0 0 .026-.463.2.2 0 0 0-.026-.04L4.181 7.551a.356.356 0 0 0-.503 0L.104 11.13a.4.4 0 0 0-.078.116"/><path fill="#71b263" stroke="#0c3500" stroke-miterlimit="10" d="M5.5 13.5c.045 0 2-1 2-1 .041.017 2 0 2 0 .346 0 3-.654 3-1 0 0 1.017-.959 1-1-.018-.044.034-.967 0-1l-3.368-3.459a.35.35 0 0 0-.503 0l-7.356 7.356s-.24.44 1.57-.473c0 0 1.657-.424 1.657.576Z"/><path fill="#7cff5c" d="M2.2 13.518a.34.34 0 0 0 0 .261.37.37 0 0 0 .194.195.4.4 0 0 0 .13.026h10.171A1.307 1.307 0 0 0 14 12.695v-2.653a.35.35 0 0 0-.104-.247l-3.764-3.754a.35.35 0 0 0-.503 0l-7.356 7.356a.4.4 0 0 0-.078.116z"/></g></svg>