<svg xmlns="http://www.w3.org/2000/svg" viewBox="0 0 14 14"><path fill="#1976d2" d="M5 9c-.022-.818.345-1.446 1-1.767V7c0-.042.036-.521.26-1L.004 0 0 13c1.773.032 3.462-.04 5-.458z"/><path fill="#00bdff" d="M10 3h2.438c.193-.984.297-1.987.287-3H-.01l6.18 6.224C6.511 4.895 8.04 3.196 10 3"/><path fill="#f2f2f2" fill-rule="evenodd" d="M8 8c0-1.307 1.191-2.77 2.636-2.77C12.078 5.23 13 6.695 13 8v1c.622.011.99.305 1 1v4H7v-4c-.018-.665.352-.964 1-1zm1-.007c0-.636.253-1.246.702-1.695L10 6h1l.29.29c.455.455.71 1.07.71 1.713V9H9z"/><path fill="#b1b1b1" fill-rule="evenodd" d="M14 10v4H7c0-1 7-5 7-4m-2-1H9"/><path d="M10 10h1v2h-1z"/><path fill-rule="evenodd" d="M13.232 8.5H7.709l.029.5h5.523z"/></svg>