<?xml version="1.0" encoding="UTF-8"?><svg id="Done" xmlns="http://www.w3.org/2000/svg" xmlns:xlink="http://www.w3.org/1999/xlink" viewBox="0 0 14 14"><defs><style>.cls-1{fill:#00bdff;}.cls-2{fill:#b1b1b1;}.cls-2,.cls-3,.cls-4{fill-rule:evenodd;}.cls-5{fill:none;}.cls-3{fill:#f2f2f2;}.cls-6{fill:#1976d2;}</style><clipPath id="clippath"><path class="cls-5" d="m90.4461,115.2769l-4.998,2.499c-.2821.141-.6141.141-.8962,0l-4.998-2.499c-.3395-.1697-.5539-.5167-.5539-.8962v-5.7615c0-.3795.2144-.7265.5539-.8962l4.998-2.499c.2821-.141.6141-.141.8962,0l4.998,2.499c.3395.1697.5539.5167.5539.8962v5.7615c0,.3795-.2144.7265-.5539.8962Z"/></clipPath></defs><g id="Layer_14"><path class="cls-6" d="m5,9c-.0225-.8179.3452-1.4458,1-1.7666v-.2334c0-.0419.0363-.5212.2607-1L.0031,0l-.0031,13c1.7728.0323,3.4617-.0393,5-.4584v-3.5416Z"/><path class="cls-1" d="m10,3h2.4382c.1932-.9836.2972-1.9869.2873-3H-.0113l6.1804,6.224c.3418-1.3286,1.8703-3.0283,3.8309-3.224Z"/><g id="Lock"><path id="lock" class="cls-3" d="m8,8c0-1.3071,1.1913-2.7692,2.6362-2.7692,1.442,0,2.3638,1.4633,2.3638,2.7692v1c.6223.0113.9895.3045,1,1v4h-7v-4c-.018-.6651.3521-.9636,1-1v-1Zm1-.0069c0-.6359.2526-1.2457.7022-1.6954l.2978-.2978h1l.2907.2907c.4541.4541.7093,1.0701.7093,1.7123v.9969h-3v-1.0069Z"/><path id="lock-2" class="cls-2" d="m14,10v4h-7c-.0006-1,7-5,7-4Zm-2-1h-3"/><rect x="10" y="10" width="1" height="2"/><polygon class="cls-4" points="13.2315 8.5 7.7085 8.5 7.738 9 13.261 9 13.2315 8.5"/></g></g></svg>