<?xml version="1.0" encoding="UTF-8"?><svg id="Done" xmlns="http://www.w3.org/2000/svg" xmlns:xlink="http://www.w3.org/1999/xlink" viewBox="0 0 14 14"><defs><style>.cls-1{fill:#29b6f6;}.cls-2{fill:none;}.cls-3{fill:#3f51b5;}.cls-4{fill:#1976d2;}</style><clipPath id="clippath"><path class="cls-2" d="m116.4461,115.2769l-4.998,2.499c-.2821.141-.6141.141-.8962,0l-4.998-2.499c-.3395-.1697-.5539-.5167-.5539-.8962v-5.7615c0-.3795.2144-.7265.5539-.8962l4.998-2.499c.2821-.141.6141-.141.8962,0l4.998,2.499c.3395.1697.5539.5167.5539.8962v5.7615c0,.3795-.2144.7265-.5539.8962Z"/></clipPath></defs><g id="Layer_13"><path class="cls-3" d="m9,8c-1.8148,2.028-4.2874,3.0496-7,3l3,3c2.5683-.6362,4.2962-2.0195,6-4l-2-2Z"/><path class="cls-4" d="m2,0v11c2.7125.0496,5.1852-.972,7-3L2,0Z"/><path class="cls-1" d="m1.9887,0l7.0113,8c1.9321-2.2073,3.0287-5.0617,3-8H1.9887Z"/></g></svg>