<?xml version="1.0" encoding="UTF-8"?><svg id="Done" xmlns="http://www.w3.org/2000/svg" width="16" height="16" viewBox="0 0 16 16"><defs><style>.cls-1{fill:#7f7c6e;}.cls-2{fill:#6e7e7f;}</style></defs><g id="Layer_44_copy"><path class="cls-2" d="m6,1c-1.2329.2207-2,.7915-2,1.6286v2.3714h-1c-1.0013,0-1.7294.8544-2,2v2c.2436,1.0193.9987,2,2,2h1v-.9973c0-1.1061.8966-2.0027,2.0027-2.0027h3.9973c.5523,0,1-.4477,1-1v-3h1s0-1.3638,0-1.3638c0-.7839-1.2085-1.5069-2-1.6362"/><path class="cls-1" d="m12,5v2c0,1.1046-.8954,2-2,2h-3.5464c-.7995,0-1.4536.6541-1.4536,1.4536v1.5464h-1v1.3737c0,.9012,1.0734,1.3638,2,1.6263h4c.8807-.245,2-.6638,2-1.6263v-2.3737h1c.9077,0,1.6811-.9446,2-2v-2c-.2208-.9923-.9147-2-1.8224-2h-1.1776Z"/><circle cx="6" cy="3" r="1"/><circle cx="10" cy="13" r="1"/></g></svg>