<svg xmlns="http://www.w3.org/2000/svg" viewBox="0 0 14 14"><path fill="#6e7e7f" d="M5 0C3.767.22 3 .792 3 1.629V4H2C.999 4 .27 4.854 0 6v2c.244 1.02.999 2 2 2h1v-.997C3 7.897 3.897 7 5.003 7H9a1 1 0 0 0 1-1V3h1V1.636C11 .852 9.792.13 9 0"/><path fill="#7f7c6e" d="M11 4v2a2 2 0 0 1-2 2H5.454C4.654 8 4 8.654 4 9.454V11H3v1.374c0 .9 1.073 1.363 2 1.626h4c.88-.245 2-.664 2-1.626V10h1c.908 0 1.681-.945 2-2V6c-.22-.992-.915-2-1.822-2z"/><circle cx="5" cy="2" r="1"/><circle cx="9" cy="12" r="1"/></svg>