<?xml version="1.0" encoding="UTF-8"?><svg id="Layer_75" xmlns="http://www.w3.org/2000/svg" xmlns:xlink="http://www.w3.org/1999/xlink" viewBox="0 0 14 14"><defs><style>.cls-1{fill:#005468;}.cls-2{opacity:.22;}.cls-3{fill:#71c6ff;}.cls-4{fill:#005369;}.cls-5{fill:none;}.cls-6{fill:#ffd028;}.cls-7{opacity:.3;}</style><clipPath id="clippath"><path class="cls-5" d="m-91.5539,11.2769l-4.998,2.499c-.2821.141-.6141.141-.8962,0l-4.998-2.499c-.3395-.1697-.5539-.5167-.5539-.8962v-5.7615c0-.3795.2144-.7265.5539-.8962l4.998-2.499c.2821-.141.6141-.141.8962,0l4.998,2.499c.3395.1697.5539.5167.5539.8962v5.7615c0,.3795-.2144.7265-.5539.8962Z"/></clipPath></defs><path class="cls-3" d="m10.9918,8v-3.0327H.9864C.4341,4.9673-.0136,5.4151-.0136,5.9673v7.0327c0,.5523.4477,1,1,1h1.0299v-3.4963c0-.8304.6732-1.5037,1.5037-1.5037h6.4719c.5523,0,1-.4477,1-1Z"/><path class="cls-7" d="m-.0136,13c0,.5523.4477,1,1,1h1.0299v-3.4963C1,14-.0136,13-.0136,13Z"/><path class="cls-6" d="m12,5v3.4938c0,.8319-.6744,1.5062-1.5062,1.5062h-6.4666c-.5523,0-1,.4477-1,1v2.9946h9.9728c.5523,0,1-.4477,1-1v-6.9946c0-.5523-.4477-1-1-1h-1Z"/><path class="cls-2" d="m3.0272,13.9946h9.9728c.5523,0,1-.4477,1-1v-6.9946c0,8-10.9728,7.9946-10.9728,7.9946Z"/><polygon class="cls-3" points="4 2 4 4 5 4 5 3 9 3 9 4 10 4 10 2 4 2"/><rect class="cls-4" x="4" y="4" width="1" height="1"/><rect class="cls-1" x="9" y="4" width="1" height="1"/><circle cx="8" cy="7" r="1"/><circle cx="6" cy="12" r="1"/></svg>