<svg xmlns="http://www.w3.org/2000/svg" id="Layer_75" viewBox="0 0 14 14"><defs><clipPath id="clippath"/><style>.cls-4{fill:#71c6ff}</style></defs><path d="M10.992 8V4.967H.986a1 1 0 0 0-1 1V13a1 1 0 0 0 1 1h1.03v-3.496C2.016 9.674 2.69 9 3.52 9h6.472a1 1 0 0 0 1-1" class="cls-4"/><path d="M-.014 13a1 1 0 0 0 1 1h1.03v-3.496C1 14-.014 13-.014 13" opacity=".3"/><path fill="#ffd028" d="M12 5v3.494C12 9.326 11.326 10 10.494 10H4.027a1 1 0 0 0-1 1v2.995H13a1 1 0 0 0 1-1V6a1 1 0 0 0-1-1z"/><path d="M3.027 13.995H13a1 1 0 0 0 1-1V6c0 8-10.973 7.995-10.973 7.995" opacity=".22"/><path d="M4 2v2h1V3h4v1h1V2z" class="cls-4"/><path fill="#005369" d="M4 4h1v1H4z"/><path fill="#005468" d="M9 4h1v1H9z"/><circle cx="8" cy="7" r="1"/><circle cx="6" cy="12" r="1"/></svg>