<svg xmlns="http://www.w3.org/2000/svg" viewBox="0 0 14 14"><defs><clipPath id="a"><path fill="none" d="M-1 15h5v-3H2V2h7l3 2h3v-5H-1"/></clipPath></defs><g clip-path="url(#a)"><path fill="#00c6fe" d="M13 1v12H1V1zm0-1H1a1 1 0 0 0-1 1v12a1 1 0 0 0 1 1h12a1 1 0 0 0 1-1V1a1 1 0 0 0-1-1"/></g><path fill="#00c6fd" d="M8 5v1H7v1h2v1H6L5 9v2l1 1h1l2-1h1v-1h2V6l-1-1z"/><path fill="#ffe319" d="m11 9-1 1H9l-1 1-1 1v1l1 1h3v-1h1v-1h-2v-1h3l1-1V8l-1-1h-1v1z"/><path d="m7 11 1-1h1l-1 1v1l-1 1zm2.71-2H11l-1 1H8l1-1zM11 7l1-1v2.136L11 9h-1l1-1z"/></svg>