<?xml version="1.0" encoding="UTF-8"?><svg id="Done" xmlns="http://www.w3.org/2000/svg" xmlns:xlink="http://www.w3.org/1999/xlink" viewBox="0 0 14 14"><defs><style>.cls-1{fill:#00c6fd;}.cls-2{fill:#00c6fe;}.cls-3{clip-path:url(#clippath);}.cls-4{fill:none;}.cls-5{fill:#ffe319;}</style><clipPath id="clippath"><polyline class="cls-4" points="-1 15 4 15 4 12 2 12 2 2 9 2 12 4 15 4 15 -1 -1 -1"/></clipPath><clipPath id="clippath-1"><path class="cls-4" d="m-117.5539,63.2769l-4.998,2.499c-.2821.141-.6141.141-.8962,0l-4.998-2.499c-.3395-.1697-.5539-.5167-.5539-.8962v-5.7615c0-.3795.2144-.7265.5539-.8962l4.998-2.499c.2821-.141.6141-.141.8962,0l4.998,2.499c.3395.1697.5539.5167.5539.8962v5.7615c0,.3795-.2144.7265-.5539.8962Z"/></clipPath></defs><g id="Layer_10_copy"><g class="cls-3"><path class="cls-2" d="m13,1v12H1V1h12m0-1H1C.4477,0,0,.4477,0,1v12c0,.5523.4477,1,1,1h12c.5523,0,1-.4477,1-1V1c0-.5523-.4477-1-1-1h0Z"/></g><g id="Layer_46"><g id="g231"><path id="path226" class="cls-1" d="m8,5v1h-1v1h2v1h-3l-1,1v2l1,1h1l2-1h1v-1h2v-4l-1-1h-3Z"/><path id="path227" class="cls-5" d="m11,9l-1,1h-1l-1,1-1,1v1l1,1h3v-1h1v-1h-2v-1h3l1-1v-2l-1-1h-1v1l-1,1Z"/><path id="path229" d="m7,11l1-1h1l-1,1v1l-1,1v-1s0-1,0-1Z"/><path id="path230" d="m9.7109,9h1.2891l-1,1h-2l1-1h.7109Z"/><path id="path231" d="m11,7l1-1v2.136l-1,.864h-1l1-1v-1Z"/></g></g></g></svg>