<?xml version="1.0" encoding="UTF-8"?><svg id="Done" xmlns="http://www.w3.org/2000/svg" width="16" height="16" xmlns:xlink="http://www.w3.org/1999/xlink" viewBox="0 0 16 16"><defs><style>.cls-1{fill:#00c6fd;}.cls-2{fill:#00c6fe;}.cls-3{clip-path:url(#clippath);}.cls-4{fill:none;}.cls-5{fill:#ffe319;}</style><clipPath id="clippath"><polyline class="cls-4" points="0 16 5 16 5 13 3 13 3 3 10 3 13 5 16 5 16 0 0 0"/></clipPath></defs><g id="Layer_10_copy"><g class="cls-3"><path class="cls-2" d="m14,2v12H2V2h12m0-1H2c-.5523,0-1,.4477-1,1v12c0,.5523.4477,1,1,1h12c.5523,0,1-.4477,1-1V2c0-.5523-.4477-1-1-1h0Z"/></g><g id="Layer_46"><g id="g231"><path id="path226" class="cls-1" d="m9,6v1h-1v1h2v1h-3l-1,1v2l1,1h1l2-1h1v-1h2v-4l-1-1h-3Z"/><path id="path227" class="cls-5" d="m12,10l-1,1h-1l-1,1-1,1v1l1,1h3v-1h1v-1h-2v-1h3l1-1v-2l-1-1h-1v1l-1,1Z"/><path id="path229" d="m8,12l1-1h1l-1,1v1l-1,1v-1s0-1,0-1Z"/><path id="path230" d="m10.7109,10h1.2891l-1,1h-2l1-1h.7109Z"/><path id="path231" d="m12,8l1-1v2.136l-1,.864h-1l1-1v-1Z"/></g></g></g></svg>