<?xml version="1.0" encoding="UTF-8"?><svg id="Done" xmlns="http://www.w3.org/2000/svg" width="16" height="16" viewBox="0 0 16 16"><defs><style>.cls-1{fill:#35b6e1;}</style></defs><g id="Layer_19"><path class="cls-1" d="m11.4087,2h-.8189c-.3879,0-.7705.0903-1.1174.2638l-1.4724.7362-1.471-.7355c-.3479-.1739-.7315-.2645-1.1204-.2645h-.7943c-.404,0-.8024.0941-1.1637.2747l-1.4506.7253h-1v12h14V3h-1l-1.4711-.7356c-.3478-.1739-.7313-.2644-1.1201-.2644Zm-2.9962,11.5875l-.4125.4125-.4117-.4117c-.3767-.3767-.8876-.5883-1.4204-.5883h-1.2387l-1.9292,1h-1V4h1l1.0055-.5027c.6326-.3163,1.3703-.3473,2.0272-.0851l1.0162.5878v8l.9511,1V4l1.9609-.5844c.6609-.2644,1.4034-.2335,2.0401.0849l.999.4995h1v10h-1l-1.9403-1h-1.2288c-.532,0-1.0422.2113-1.4184.5875Z"/></g></svg>