<svg xmlns="http://www.w3.org/2000/svg" id="Done" viewBox="0 0 14 14"><defs><clipPath id="clippath"><path fill="none" d="M-1 15h4v-3l-1-1V2h8l2 3h3v-6H-1"/></clipPath><clipPath id="clippath-1"/><style>.cls-3{fill:#ff5c00}</style></defs><g id="SH"><path d="M13 1v12H1V1zm0-1H1a1 1 0 0 0-1 1v12a1 1 0 0 0 1 1h12a1 1 0 0 0 1-1V5.277c0-.181.093-.122 0-.277V1a1 1 0 0 0-1-1" class="cls-3" clip-path="url(#clippath)"/><path id="Text" d="m3.582 11.388 1.215-.143q.205 1.44 1.344 1.44.564 0 .886-.294a.95.95 0 0 0 .324-.73.8.8 0 0 0-.113-.436.83.83 0 0 0-.344-.295q-.231-.115-1.118-.386-.795-.24-1.163-.522a2 2 0 0 1-.587-.74 2.3 2.3 0 0 1-.219-.987q0-.615.28-1.106t.772-.743 1.215-.252q1.086 0 1.697.59c.61.59.622.956.646 1.687l-1.246.067q-.083-.605-.354-.847-.272-.24-.774-.24c-.502 0-.593.07-.774.21s-.272.313-.272.52q0 .307.247.517.246.21 1.133.46.938.273 1.356.573.417.3.638.773.22.475.22 1.151 0 .98-.602 1.646-.603.666-1.885.666-2.265 0-2.522-2.58Zm5.431 2.451V6.323h1.24V9.28h2.446V6.323h1.24v7.516H12.7v-3.286h-2.446v3.286z" class="cls-3"/></g></svg>