<?xml version="1.0" encoding="UTF-8"?><svg id="Done" xmlns="http://www.w3.org/2000/svg" xmlns:xlink="http://www.w3.org/1999/xlink" viewBox="0 0 14 14"><defs><style>.cls-1{clip-path:url(#clippath);}.cls-2{fill:none;}.cls-3{fill:#ff5c00;}</style><clipPath id="clippath"><polyline class="cls-2" points="-1 15 3 15 3 12 2 11 2 2 10 1.9997 12 4.9999 15 4.9997 15 -1 -1 -1"/></clipPath><clipPath id="clippath-1"><path class="cls-2" d="m64.4461,141.2769l-4.998,2.499c-.2821.141-.6141.141-.8962,0l-4.998-2.499c-.3395-.1697-.5539-.5167-.5539-.8962v-5.7615c0-.3795.2144-.7265.5539-.8962l4.998-2.499c.2821-.141.6141-.141.8962,0l4.998,2.499c.3395.1697.5539.5167.5539.8962v5.7615c0,.3795-.2144.7265-.5539.8962Z"/></clipPath></defs><g id="SH"><g class="cls-1"><path class="cls-3" d="m13,1h0v4.2717c0,.0018,0,.0035,0,.0053v7.723s-12,0-12,0V1s12,0,12,0m0-1H1C.4477,0,0,.4477,0,1v12.0001C0,13.5523.4477,14,1,14h12.0001c.5523,0,1-.4477,1-1v-7.723c0-.1813.0933-.1216,0-.277V1c0-.5523-.4477-1-1-1h0Z"/></g><g id="Text"><path class="cls-3" d="m3.582,11.3877l1.2153-.1426c.1367.96.5845,1.4404,1.3433,1.4404.376,0,.6719-.0986.8867-.2949.2158-.1963.3232-.4395.3232-.7305,0-.1709-.0376-.3154-.1128-.4355-.0752-.1191-.1899-.2178-.3433-.2944-.1543-.0771-.5269-.2056-1.1182-.3867-.5298-.1602-.9175-.3345-1.1636-.522-.2461-.188-.4419-.4346-.5869-.7402-.1455-.3057-.2183-.6348-.2183-.9863,0-.4097.0933-.7788.2798-1.1064.186-.3276.4434-.5757.7715-.7427.3281-.1675.7329-.2515,1.2153-.2515.7241,0,1.29.1968,1.6968.5898s.6221.9556.646,1.6865l-1.2461.0669c-.0547-.4033-.1724-.6851-.3535-.8462-.1812-.1602-.4395-.2407-.7744-.2407s-.5928.0698-.7739.2095-.272.3135-.272.5215c0,.2046.0825.3765.2471.5161.1641.1396.542.2935,1.1333.4609.6255.1812,1.0771.3721,1.3555.5718.2783.2002.4912.458.6382.7739.147.3164.2202.6997.2202,1.1509,0,.6523-.2007,1.2012-.6025,1.6455-.4014.4443-1.0298.666-1.8843.666-1.5107,0-2.3516-.8594-2.5225-2.5791Z"/><path class="cls-3" d="m9.0127,13.8389v-7.5161h1.2402v2.9585h2.4458v-2.9585h1.2407v7.5161h-1.2407v-3.2861h-2.4458v3.2861h-1.2402Z"/></g></g></svg>