<?xml version="1.0" encoding="UTF-8"?><svg id="Done" xmlns="http://www.w3.org/2000/svg" width="16" height="16" viewBox="0 0 16 16"><defs><style>.cls-1{stroke:#7f8c8d;stroke-width:2px;}.cls-1,.cls-2{fill:none;stroke-linecap:round;stroke-linejoin:round;}.cls-2{stroke:#f1c40f;stroke-width:1.2px;}</style></defs><g id="layer1"><g id="g4529"><path id="path4496" class="cls-1" d="m9.0245,4.0118H2.0543"/><path id="path4479" class="cls-2" d="m9.9312,2.8397c.6567-1.1063,2.1004-1.4851,3.2323-.848s1.5274,2.051.8855,3.1657c-.6419,1.1146-2.0804,1.512-3.2207.8895-1.1403-.6224-1.5546-2.0312-.9277-3.154"/><path id="path4479-2" class="cls-2" d="m2.6665,11.5025c.497-.8373,1.5897-1.124,2.4463-.6418s1.156,1.5523.6702,2.3959c-.4858.8436-1.5745,1.1443-2.4375.6732-.863-.4711-1.1766-1.5373-.7021-2.3871"/><path id="path4496-4" class="cls-2" d="m6.5,12.5c2,0,5.4823-.413,5.4823-5.9891"/></g></g></svg>