<svg xmlns="http://www.w3.org/2000/svg" id="Done" viewBox="0 0 14 14"><defs><clipPath id="clippath"/><style>.cls-3{fill:none;stroke-linecap:round;stroke-linejoin:round;stroke:#f1c40f;stroke-width:1.2px}</style></defs><g id="layer1"><g id="g4529"><path id="path4496" fill="none" stroke="#7f8c8d" stroke-linecap="round" stroke-linejoin="round" stroke-width="2" d="M8.025 3.012h-6.97"/><path id="path4479" d="M8.931 1.84c.657-1.107 2.1-1.485 3.233-.848s1.527 2.05.885 3.165-2.08 1.512-3.22.89A2.306 2.306 0 0 1 8.9 1.893" class="cls-3"/><path id="path4479-2" d="M1.667 10.503c.497-.838 1.59-1.125 2.446-.642s1.156 1.552.67 2.396a1.815 1.815 0 0 1-2.437.673 1.745 1.745 0 0 1-.703-2.387" class="cls-3"/><path id="path4496-4" d="M5.5 11.5c2 0 5.482-.413 5.482-5.99" class="cls-3"/></g></g></svg>