<?xml version="1.0" encoding="UTF-8"?><svg id="Done" xmlns="http://www.w3.org/2000/svg" xmlns:xlink="http://www.w3.org/1999/xlink" viewBox="0 0 14 14"><defs><style>.cls-1{stroke:#7f8c8d;stroke-width:2px;}.cls-1,.cls-2,.cls-3{fill:none;}.cls-1,.cls-3{stroke-linecap:round;stroke-linejoin:round;}.cls-3{stroke:#f1c40f;stroke-width:1.2px;}</style><clipPath id="clippath"><path class="cls-2" d="m90.4461,37.2769l-4.998,2.499c-.2821.141-.6141.141-.8962,0l-4.998-2.499c-.3395-.1697-.5539-.5167-.5539-.8962v-5.7615c0-.3795.2144-.7265.5539-.8962l4.998-2.499c.2821-.141.6141-.141.8962,0l4.998,2.499c.3395.1697.5539.5167.5539.8962v5.7615c0,.3795-.2144.7265-.5539.8962Z"/></clipPath></defs><g id="layer1"><g id="g4529"><path id="path4496" class="cls-1" d="m8.0245,3.0118H1.0543"/><path id="path4479" class="cls-3" d="m8.9312,1.8397c.6567-1.1063,2.1004-1.4851,3.2323-.848s1.5274,2.051.8855,3.1657c-.6419,1.1146-2.0804,1.512-3.2207.8895-1.1403-.6224-1.5546-2.0312-.9277-3.154"/><path id="path4479-2" class="cls-3" d="m1.6665,10.5025c.497-.8373,1.5897-1.124,2.4463-.6418s1.156,1.5523.6702,2.3959c-.4858.8436-1.5745,1.1443-2.4375.6732-.863-.4711-1.1766-1.5373-.7021-2.3871"/><path id="path4496-4" class="cls-3" d="m5.5,11.5c2,0,5.4823-.413,5.4823-5.9891"/></g></g></svg>