<?xml version="1.0" encoding="UTF-8"?><svg id="Done" xmlns="http://www.w3.org/2000/svg" width="16" height="16" viewBox="0 0 16 16"><defs><style>.cls-1{fill:#ffb13b;}</style></defs><g id="svgstar"><path id="svgbar" class="cls-1" d="m3.2106,7c-2.7842-1.5372-2.7088,3.7354,0,2h9.5783c2.7116,1.7352,2.7814-3.5377,0-2H3.2106Z"/><g id="use1"><path id="svgbar-2" class="cls-1" d="m5.1526,3.8799c-.6657-3.4121-4.732.6583-1.3216,1.3216l7.016,7.016c.6657,3.4121,4.732-.6583,1.3216-1.3216L5.1526,3.8799Z"/></g><g id="use2"><path id="svgbar-3" class="cls-1" d="m9,3.2595c1.6366-2.7485-3.638-2.7453-2,0v9.5783c-1.6376,2.7481,3.637,2.7457,2,0V3.2595Z"/></g><g id="use3"><path id="svgbar-4" class="cls-1" d="m12.1685,5.2015c3.4121-.6657-.6583-4.732-1.3216-1.3216l-7.016,7.016c-3.4121.6657.6583,4.732,1.3216,1.3216l7.016-7.016Z"/></g></g></svg>