<?xml version="1.0" encoding="UTF-8"?><svg id="Done" xmlns="http://www.w3.org/2000/svg" xmlns:xlink="http://www.w3.org/1999/xlink" viewBox="0 0 14 14"><defs><style>.cls-1{fill:#ffb13b;}.cls-2{fill:none;}</style><clipPath id="clippath"><path class="cls-2" d="m116.4461,37.2769l-4.998,2.499c-.2821.141-.6141.141-.8962,0l-4.998-2.499c-.3395-.1697-.5539-.5167-.5539-.8962v-5.7615c0-.3795.2144-.7265.5539-.8962l4.998-2.499c.2821-.141.6141-.141.8962,0l4.998,2.499c.3395.1697.5539.5167.5539.8962v5.7615c0,.3795-.2144.7265-.5539.8962Z"/></clipPath></defs><g id="svgstar"><path id="svgbar" class="cls-1" d="m2.2106,6c-2.7842-1.5372-2.7088,3.7354,0,2h9.5783c2.7116,1.7352,2.7814-3.5377,0-2H2.2106Z"/><g id="use1"><path id="svgbar-2" class="cls-1" d="m4.1526,2.8799c-.6657-3.4121-4.732.6583-1.3216,1.3216l7.016,7.016c.6657,3.4121,4.732-.6583,1.3216-1.3216L4.1526,2.8799Z"/></g><g id="use2"><path id="svgbar-3" class="cls-1" d="m8,2.2595c1.6366-2.7485-3.638-2.7453-2,0v9.5783c-1.6376,2.7481,3.637,2.7457,2,0V2.2595Z"/></g><g id="use3"><path id="svgbar-4" class="cls-1" d="m11.1685,4.2015c3.4121-.6657-.6583-4.732-1.3216-1.3216l-7.016,7.016c-3.4121.6657.6583,4.732,1.3216,1.3216l7.016-7.016Z"/></g></g></svg>