<svg xmlns="http://www.w3.org/2000/svg" id="Layer_82_copy" viewBox="0 0 14 14"><defs><clipPath id="clippath"/><style>.cls-3{fill:#00ade4}</style></defs><path d="M4.948 5.692a1.02 1.02 0 0 0-.026.957l.207-.352c.316-.54.854-.904 1.457-1.03l.383-.6a.638.638 0 1 0-.2-.128l-.477.744a1.03 1.03 0 0 0-1.201.218l-.597-.444a.755.755 0 1 0-1.411-.196.755.755 0 0 0 1.268.388z" class="cls-3"/><path d="M4.378 9.996a2.2 2.2 0 0 1-.275-.64c-.763-.43-1.391-1.114-1.7-1.951a3.75 3.75 0 0 1 .144-2.955 3.78 3.78 0 0 1 1.9-1.812 3.76 3.76 0 0 1 3.041.04c.637.293 1.168.76 1.553 1.338.038-.002.072-.016.11-.016h1.516a5 5 0 0 0-.346-.654c.205-.289.402-.584.584-.896L9.497 1.046c-.32.188-.624.39-.92.603a5.1 5.1 0 0 0-1.375-.567C7.142.724 7.069.361 6.974 0H4.98c-.094.354-.163.707-.223 1.061a5.1 5.1 0 0 0-1.417.562 12 12 0 0 0-.885-.577L1.047 2.454c.17.29.352.566.54.836-.296.458-.518.96-.656 1.488q-.47.083-.93.2v1.993q.431.111.864.189a5.1 5.1 0 0 0 .638 1.623q-.24.345-.456.713l1.408 1.408q.357-.208.688-.438c.287.184.595.331.912.455.042-.328.14-.647.323-.925" class="cls-3"/><path fill="#f2f2f2" d="M12.978 10.392q.026-.19.028-.392c.002-.202-.012-.264-.028-.392l.856-.66a.2.2 0 0 0 .049-.256l-.812-1.384a.204.204 0 0 0-.247-.088l-1.01.4a3 3 0 0 0-.686-.392l-.155-1.06A.2.2 0 0 0 10.775 6H9.15a.2.2 0 0 0-.198.168l-.155 1.06a3 3 0 0 0-.685.392l-1.01-.4a.2.2 0 0 0-.074-.012.2.2 0 0 0-.174.1l-.812 1.384a.195.195 0 0 0 .049.256l.856.66q-.026.193-.028.392c-.002.199.012.264.028.392l-.856.66a.2.2 0 0 0-.049.256l.812 1.384c.05.085.154.123.247.088l1.01-.4q.317.241.686.392l.155 1.06A.2.2 0 0 0 9.15 14h1.624a.2.2 0 0 0 .198-.168l.155-1.06c.247-.1.474-.236.685-.392l1.01.4a.2.2 0 0 0 .074.012.2.2 0 0 0 .174-.1l.812-1.384a.2.2 0 0 0-.049-.256z"/><path fill="#afafaf" d="M12.978 10.392q.026-.19.028-.392c.002-.202-.012-.264-.028-.392l.856-.66a.2.2 0 0 0 .049-.256l-.812-1.384c-.05-.085-4.273 5.464-4.273 5.464l.155 1.06q.034.156.198.168h1.624a.2.2 0 0 0 .198-.168l.155-1.06c.247-.1.474-.236.685-.392l1.01.4a.2.2 0 0 0 .074.012.2.2 0 0 0 .174-.1l.812-1.384a.2.2 0 0 0-.049-.256z"/><circle cx="9.963" cy="9.943" r="1.5"/></svg>