<svg xmlns="http://www.w3.org/2000/svg" viewBox="0 0 14 14"><defs><linearGradient id="a" x1="64.175" x2="54.934" y1="11.604" y2="3.056" gradientTransform="rotate(179.929 33.201 7.213)" gradientUnits="userSpaceOnUse"><stop offset="0" stop-color="#44aae0"/><stop offset=".211" stop-color="#43a6dd"/><stop offset=".42" stop-color="#419ad4"/><stop offset=".629" stop-color="#3e86c5"/><stop offset=".837" stop-color="#3a6ab1"/><stop offset="1" stop-color="#364f9e"/></linearGradient><linearGradient id="b" x1="2.374" x2="11.643" y1="2.639" y2="11.376" gradientUnits="userSpaceOnUse"><stop offset="0" stop-color="#44aae0"/><stop offset=".215" stop-color="#43a6dd"/><stop offset=".423" stop-color="#419ad4"/><stop offset=".628" stop-color="#3e86c6"/><stop offset=".831" stop-color="#3a6bb2"/><stop offset="1" stop-color="#364f9e"/></linearGradient></defs><path fill="url(#a)" d="M3.61 5.695a.885.885 0 0 0 1.488.454l.699.52c-.31.53-.17 1.208.323 1.574l-.568.973a.603.603 0 1 0 .242.14l.563-.97a1.206 1.206 0 0 0 1.557-.551L9 8.305v.012a.559.559 0 1 0 .104-.273l-1.088-.469a1.21 1.21 0 0 0-.41-1.235l.559-.872a.747.747 0 1 0-.236-.15l-.558.87a1.21 1.21 0 0 0-1.407.257l-.7-.521a.885.885 0 1 0-1.652-.229z"/><path fill="url(#b)" d="M12.816 5.583a6 6 0 0 0-.725-1.663c.24-.338.47-.684.684-1.05l-1.65-1.644c-.375.22-.73.458-1.078.706a6 6 0 0 0-1.61-.664Q8.333.636 8.17 0H5.833c-.109.415-.19.829-.26 1.243a6 6 0 0 0-1.66.658 14 14 0 0 0-1.037-.675l-1.65 1.649q.3.508.634.98a6 6 0 0 0-.77 1.743q-.55.096-1.09.235v2.334q.507.131 1.013.22c.14.673.392 1.316.748 1.903q-.282.403-.535.835l1.65 1.65c.28-.163.545-.335.805-.514a6 6 0 0 0 1.95.812q.084.464.202.927h2.334c.083-.317.15-.633.21-.951a6 6 0 0 0 1.9-.82q.414.287.85.546l1.65-1.65a14 14 0 0 0-.587-.91 6 6 0 0 0 .7-1.814c.37-.065.74-.14 1.11-.236V5.833q-.592-.151-1.184-.25m-1.722 3.01a4.42 4.42 0 0 1-2.36 2.562 4.4 4.4 0 0 1-3.488.046 4.44 4.44 0 0 1-2.43-2.526 4.4 4.4 0 0 1 .167-3.461A4.43 4.43 0 0 1 5.21 3.09a4.4 4.4 0 0 1 3.563.048 4.4 4.4 0 0 1 2.321 5.456Z"/></svg>