<?xml version="1.0" encoding="UTF-8"?><svg id="Done" xmlns="http://www.w3.org/2000/svg" xmlns:xlink="http://www.w3.org/1999/xlink" viewBox="0 0 14 14"><defs><style>.cls-1{fill:#072d00;}.cls-2{fill:lime;}.cls-3{fill:none;}.cls-4{fill:#006d00;}</style><clipPath id="clippath"><path class="cls-3" d="m38.4461,11.2769l-4.998,2.499c-.2821.141-.6141.141-.8962,0l-4.998-2.499c-.3395-.1697-.5539-.5167-.5539-.8962v-5.7615c0-.3795.2144-.7265.5539-.8962l4.998-2.499c.2821-.141.6141-.141.8962,0l4.998,2.499c.3395.1697.5539.5167.5539.8962v5.7615c0,.3795-.2144.7265-.5539.8962Z"/></clipPath></defs><g id="Layer_61"><path class="cls-1" d="m1.001,13.5c-.2764,0-.501-.2246-.501-.501V1.001c0-.2764.2246-.501.501-.501h11.9414c.2764,0,.501.2246.501.501v7.8721l.0454,4.1211c.0015.1348-.0498.2607-.1445.3574-.0947.0957-.2217.1484-.3564.1484H1.001Z"/><path class="cls-4" d="m12.9423,1l.0008.0008v7.8832s.0449,4.116.0449,4.116l-11.988-.0008V3.1689l.0008-2.1689h11.9415m0-1H1.0008C.4481,0,0,.4481,0,1.0008v11.9984c0,.5527.4481,1.0008,1.0008,1.0008h11.9872c.5571,0,1.0069-.4549,1.0008-1.0119l-.0456-4.1152V1.0008c0-.5527-.4481-1.0008-1.0008-1.0008h0Z"/><polygon class="cls-2" points="3 5 3 7 5 8 3 9 3 11 7 8 3 5"/><rect class="cls-2" x="7" y="10" width="4" height="1"/></g></svg>