<svg xmlns="http://www.w3.org/2000/svg" id="Done" viewBox="0 0 14 14"><defs><clipPath id="clippath"><path fill="none" d="M-1 6h3V2h7l3 4h3v-7H-1"/></clipPath><clipPath id="clippath-1"/><style>.cls-1{fill:#fff}</style></defs><g id="txt_copy_2"><path d="M13 1v12H1V1zm0-1H1a1 1 0 0 0-1 1v12a1 1 0 0 0 1 1h12a1 1 0 0 0 1-1V1a1 1 0 0 0-1-1" class="cls-1" clip-path="url(#clippath)"/><path id="Text" d="M1.751 14V9.242H.18v-.969h4.203v.97H2.816V14zm2.791 0 1.828-2.98-1.66-2.747h1.248l1.049 1.713 1.052-1.713h1.237l-1.661 2.74L9.462 14H8.174l-1.175-1.94L5.822 14zm6.653 0V9.242H9.624v-.969h4.203v.97h-1.566V14z" class="cls-1"/></g></svg>