<?xml version="1.0" encoding="UTF-8"?><svg id="Done" xmlns="http://www.w3.org/2000/svg" xmlns:xlink="http://www.w3.org/1999/xlink" viewBox="0 0 14 14"><defs><style>.cls-1{fill:#fff;}.cls-2{clip-path:url(#clippath);}.cls-3{fill:none;}</style><clipPath id="clippath"><polyline class="cls-3" points="-1 6 2 6 2 2 9 2 12 6 15 6 15 3.6739 15 -1 -1 -1"/></clipPath><clipPath id="clippath-1"><path class="cls-3" d="m-13.5539,141.2769l-4.998,2.499c-.2821.141-.6141.141-.8962,0l-4.998-2.499c-.3395-.1697-.5539-.5167-.5539-.8962v-5.7615c0-.3795.2144-.7265.5539-.8962l4.998-2.499c.2821-.141.6141-.141.8962,0l4.998,2.499c.3395.1697.5539.5167.5539.8962v5.7615c0,.3795-.2144.7265-.5539.8962Z"/></clipPath></defs><g id="txt"><g class="cls-2"><path class="cls-1" d="m13,1v12H1V1h12m0-1H1C.4477,0,0,.4477,0,1v12c0,.5523.4477,1,1,1h12c.5523,0,1-.4477,1-1V1c0-.5523-.4477-1-1-1h0Z"/></g><g id="Text"><path class="cls-1" d="m1.751,14v-4.7578H.1797v-.9688h4.2031v.9688h-1.5664v4.7578h-1.0654Z"/><path class="cls-1" d="m4.542,14l1.8281-2.9805-1.6611-2.7461h1.248l1.0488,1.7129,1.0527-1.7129h1.2363l-1.6611,2.7393,1.8281,2.9873h-1.2881l-1.1748-1.9409-1.1768,1.9409h-1.2803Z"/><path class="cls-1" d="m11.1953,14v-4.7578h-1.5713v-.9688h4.2031v.9688h-1.5664v4.7578h-1.0654Z"/></g></g></svg>