<?xml version="1.0" encoding="UTF-8"?><svg id="Done" xmlns="http://www.w3.org/2000/svg" width="16" height="16" xmlns:xlink="http://www.w3.org/1999/xlink" viewBox="0 0 16 16"><defs><style>.cls-1{fill:#fff;}.cls-2{clip-path:url(#clippath);}.cls-3{fill:none;}</style><clipPath id="clippath"><polyline class="cls-3" points="0 7 3 7 3 3 10 3 13 7 16 7 16 4.6739 16 0 0 0"/></clipPath></defs><g id="txt"><g class="cls-2"><path class="cls-1" d="m14,2v12H2V2h12m0-1H2c-.5523,0-1,.4477-1,1v12c0,.5523.4477,1,1,1h12c.5523,0,1-.4477,1-1V2c0-.5523-.4477-1-1-1h0Z"/></g><g id="Text"><path class="cls-1" d="m2.751,15v-4.7578h-1.5713v-.9688h4.2031v.9688h-1.5664v4.7578h-1.0654Z"/><path class="cls-1" d="m5.542,15l1.8281-2.9805-1.6611-2.7461h1.248l1.0488,1.7129,1.0527-1.7129h1.2363l-1.6611,2.7393,1.8281,2.9873h-1.2881l-1.1748-1.9409-1.1768,1.9409h-1.2803Z"/><path class="cls-1" d="m12.1953,15v-4.7578h-1.5713v-.9688h4.2031v.9688h-1.5664v4.7578h-1.0654Z"/></g></g></svg>