<?xml version="1.0" encoding="UTF-8"?><svg id="Done" xmlns="http://www.w3.org/2000/svg" xmlns:xlink="http://www.w3.org/1999/xlink" viewBox="0 0 14 14"><defs><style>.cls-1{fill:#0070ff;}.cls-2{fill:#afafaf;}.cls-3{fill:none;}.cls-4{fill:#f2f2f2;}.cls-5{fill:#006fff;}</style><clipPath id="clippath"><path class="cls-3" d="m-39.5539,89.2769l-4.998,2.499c-.2821.141-.6141.141-.8962,0l-4.998-2.499c-.3395-.1697-.5539-.5167-.5539-.8962v-5.7615c0-.3795.2144-.7265.5539-.8962l4.998-2.499c.2821-.141.6141-.141.8962,0l4.998,2.499c.3395.1697.5539.5167.5539.8962v5.7615c0,.3795-.2144.7265-.5539.8962Z"/></clipPath></defs><g id="TS_copy"><path class="cls-1" d="m.5,10.5V.5h10v3h-1.3486c-.9092,0-1.7646.4668-2.2598,1.2114-.9062.0464-1.7383.5483-2.1943,1.334l-.8008,1.3647c-.4707.7842-.499,1.771-.0918,2.5889-.0762.1577-.1367.3252-.1816.501H.5Z"/><path class="cls-5" d="m10,1v2h-.8486c-.9919,0-1.9306.4698-2.5307,1.2343-.9778.1262-1.8564.6995-2.3533,1.5561l-.7968,1.3583c-.5184.8643-.5872,1.9297-.2136,2.8513H1V1h9m1-1H0v11h4.0446c.0322-.356.137-.7018.3344-1.0024-.4521-.6919-.4922-1.5986-.0508-2.3345l.8018-1.3667c.3887-.6699,1.1172-1.0884,1.8994-1.0884h.1514c.3613-.7178,1.1172-1.208,1.9707-1.208h1.623c.0778,0,.1495.0243.2256.0324V0h0Z"/><path class="cls-4" d="m12.9779,10.392c.0162-.128.0284-.256.0284-.392s-.0122-.264-.0284-.392l.8562-.66c.0771-.06.0974-.168.0487-.256l-.8116-1.384c-.0494-.0853-.1543-.1225-.2475-.088l-1.0104.4c-.211-.16-.4382-.292-.6857-.392l-.1542-1.06c-.0139-.0974-.0991-.1694-.1988-.168h-1.6231c-.1014,0-.1867.072-.1989.168l-.1542,1.06c-.2475.1-.4748.236-.6858.392l-1.0104-.4c-.0235-.0079-.0482-.0119-.073-.012-.069,0-.138.036-.1745.1l-.8116,1.384c-.0528.088-.0284.196.0487.256l.8562.66c-.0163.128-.0284.26-.0284.392s.0121.264.0284.392l-.8562.66c-.0771.06-.0974.168-.0487.256l.8116,1.384c.0494.0853.1543.1226.2475.088l1.0104-.4c.211.16.4383.292.6858.392l.1542,1.06c.0122.096.0974.168.1989.168h1.6231c.1014,0,.1867-.072.1988-.168l.1542-1.06c.2475-.1.4747-.236.6857-.392l1.0104.4c.0243.008.0487.012.073.012.069,0,.138-.036.1745-.1l.8116-1.384c.0487-.088.0284-.196-.0487-.256l-.8562-.66Z"/><path class="cls-2" d="m12.9779,10.392c.0162-.128.0284-.256.0284-.392s-.0122-.264-.0284-.392l.8562-.66c.0771-.06.0974-.168.0487-.256l-.8116-1.384c-.0494-.0853-4.2728,5.464-4.2728,5.464l.1542,1.06c.0229.1039.0892.1599.1989.168h1.6231c.1014,0,.1867-.072.1988-.168l.1542-1.06c.2475-.1.4747-.236.6857-.392l1.0104.4c.0243.008.0487.012.073.012.069,0,.138-.036.1745-.1l.8116-1.384c.0487-.088.0284-.196-.0487-.256l-.8562-.66Z"/><circle cx="9.9631" cy="9.9426" r="1.5"/></g></svg>