<svg xmlns="http://www.w3.org/2000/svg" viewBox="0 0 14 14"><path fill="#0070ff" d="M.5 10.5V.5h10v3H9.151c-.909 0-1.764.467-2.26 1.211a2.7 2.7 0 0 0-2.194 1.334l-.8 1.365A2.71 2.71 0 0 0 3.805 10a2.7 2.7 0 0 0-.182.501z"/><path fill="#006fff" d="M10 1v2h-.849c-.991 0-1.93.47-2.53 1.234-.978.127-1.857.7-2.354 1.556l-.796 1.36A3.22 3.22 0 0 0 3.257 10H1V1zm1-1H0v11h4.045c.032-.356.137-.702.334-1.002a2.2 2.2 0 0 1-.05-2.335l.801-1.367a2.2 2.2 0 0 1 1.9-1.088h.15A2.21 2.21 0 0 1 9.152 4h1.623c.078 0 .15.024.226.032z"/><path fill="#f2f2f2" d="M12.978 10.392q.026-.19.028-.392c.002-.202-.012-.264-.028-.392l.856-.66a.2.2 0 0 0 .049-.256l-.812-1.384a.204.204 0 0 0-.247-.088l-1.01.4a3 3 0 0 0-.686-.392l-.155-1.06A.2.2 0 0 0 10.775 6H9.15a.2.2 0 0 0-.198.168l-.155 1.06a3 3 0 0 0-.685.392l-1.01-.4a.2.2 0 0 0-.074-.012.2.2 0 0 0-.174.1l-.812 1.384a.195.195 0 0 0 .049.256l.856.66q-.026.193-.028.392c-.002.199.012.264.028.392l-.856.66a.2.2 0 0 0-.049.256l.812 1.384c.05.085.154.123.247.088l1.01-.4q.317.241.686.392l.155 1.06A.2.2 0 0 0 9.15 14h1.624a.2.2 0 0 0 .198-.168l.155-1.06c.247-.1.474-.236.685-.392l1.01.4a.2.2 0 0 0 .074.012.2.2 0 0 0 .174-.1l.812-1.384a.2.2 0 0 0-.049-.256z"/><path fill="#afafaf" d="M12.978 10.392q.026-.19.028-.392c.002-.202-.012-.264-.028-.392l.856-.66a.2.2 0 0 0 .049-.256l-.812-1.384c-.05-.085-4.273 5.464-4.273 5.464l.155 1.06q.034.156.198.168h1.624a.2.2 0 0 0 .198-.168l.155-1.06c.247-.1.474-.236.685-.392l1.01.4a.2.2 0 0 0 .074.012.2.2 0 0 0 .174-.1l.812-1.384a.2.2 0 0 0-.049-.256z"/><circle cx="9.963" cy="9.943" r="1.5"/></svg>