<?xml version="1.0" encoding="UTF-8"?><svg id="Done" xmlns="http://www.w3.org/2000/svg" xmlns:xlink="http://www.w3.org/1999/xlink" viewBox="0 0 14 14"><defs><style>.cls-1{fill:#0070ff;}.cls-2{clip-path:url(#clippath);}.cls-3{fill:none;}.cls-4{fill:#006fff;}</style><clipPath id="clippath"><polyline class="cls-3" points="-1 15 4 15 4 12 2 12 2 2 10 1.9997 12 4.9993 15 4.999 15 -1 -1 -1"/></clipPath><clipPath id="clippath-1"><path class="cls-3" d="m64.4461,141.2769l-4.998,2.499c-.2821.141-.6141.141-.8962,0l-4.998-2.499c-.3395-.1697-.5539-.5167-.5539-.8962v-5.7615c0-.3795.2144-.7265.5539-.8962l4.998-2.499c.2821-.141.6141-.141.8962,0l4.998,2.499c.3395.1697.5539.5167.5539.8962v5.7615c0,.3795-.2144.7265-.5539.8962Z"/></clipPath></defs><g id="TS"><g class="cls-2"><path class="cls-4" d="m12.9973,1l.0027.0027v3.9973l-.0027,8-11.9973-.0027.0027-11.9973h11.9946m0-1H1.0027C.4489,0,0,.4489,0,1.0027v11.9946c0,.5538.4489,1.0027,1.0027,1.0027h11.9946c.5538,0,1.0027-.4489,1.0027-1.0027V1.0027c0-.5538-.4489-1.0027-1.0027-1.0027h0Z"/></g><g id="Text"><path class="cls-1" d="m5.8096,13.8389v-6.2446h-1.8301v-1.2715h4.8965v1.2715h-1.8252v6.2446h-1.2412Z"/><path class="cls-1" d="m8.9478,11.3877l1.2153-.1426c.1367.96.5845,1.4404,1.3433,1.4404.376,0,.6719-.0986.8867-.2949.2158-.1963.3232-.4395.3232-.7305,0-.1709-.0376-.3154-.1128-.4355-.0752-.1191-.1899-.2178-.3433-.2944-.1543-.0771-.5269-.2056-1.1182-.3867-.5298-.1602-.9175-.3345-1.1636-.522-.2461-.188-.4419-.4346-.5869-.7402-.1455-.3057-.2183-.6348-.2183-.9863,0-.4097.0933-.7788.2798-1.1064.186-.3276.4434-.5757.7715-.7427.3281-.1675.7329-.2515,1.2153-.2515.7241,0,1.29.1968,1.6968.5898s.6221.9556.646,1.6865l-1.2461.0669c-.0547-.4033-.1724-.6851-.3535-.8462-.1812-.1602-.4395-.2407-.7744-.2407s-.5928.0698-.7739.2095-.272.3135-.272.5215c0,.2046.0825.3765.2471.5161.1641.1396.542.2935,1.1333.4609.6255.1812,1.0771.3721,1.3555.5718.2783.2002.4912.458.6382.7739.1475.3164.2197.6997.2197,1.1509,0,.6523-.2002,1.2012-.6021,1.6455-.4014.4443-1.0298.666-1.8843.666-1.5107,0-2.3516-.8594-2.5225-2.5791Z"/></g></g></svg>