<?xml version="1.0" encoding="UTF-8"?><svg xmlns="http://www.w3.org/2000/svg" width="16" height="16" viewBox="0 0 16 16"><defs><style>.cls-1{isolation:isolate;}.cls-2{fill:#008aaa;}.cls-2,.cls-3,.cls-4,.cls-5{fill-rule:evenodd;}.cls-3{mix-blend-mode:saturation;}.cls-4{fill:#1f9ef3;}.cls-5{fill:#00677f;}</style></defs><g class="cls-1"><g id="Done"><g id="Layer_20_copy"><path id="path36" class="cls-5" d="m15,2l-4-1h0L1,10l1,2"/><path id="path37" class="cls-2" d="m15,14l-2,1h-2L1,5.6368l1-1.6368"/><path id="path38" class="cls-4" d="m13,15h-2l1-1V2l-1-1h2l2,1v12l-2,1Z"/><path class="cls-3" d="m13,1h-2l-5.9447,5.3502-3.0553-2.3502-1,1.6368,2.376,2.2247-2.376,2.1384,1,2,3.1819-2.4476,5.8181,5.4476h2l2-1V2l-2-1Zm-1,10.6923l-4.8-3.6923,4.8-3.6923v7.3846Z"/></g></g></g></svg>