<?xml version="1.0" encoding="UTF-8"?><svg xmlns="http://www.w3.org/2000/svg" xmlns:xlink="http://www.w3.org/1999/xlink" viewBox="0 0 14 14"><defs><style>.cls-1{isolation:isolate;}.cls-2{fill:#008aaa;}.cls-2,.cls-3,.cls-4,.cls-5{fill-rule:evenodd;}.cls-3{mix-blend-mode:saturation;}.cls-4{fill:#1f9ef3;}.cls-6{fill:none;}.cls-5{fill:#00677f;}</style><clipPath id="clippath"><path class="cls-6" d="m-65.5539,115.2769l-4.998,2.499c-.2821.141-.6141.141-.8962,0l-4.998-2.499c-.3395-.1697-.5539-.5167-.5539-.8962v-5.7615c0-.3795.2144-.7265.5539-.8962l4.998-2.499c.2821-.141.6141-.141.8962,0l4.998,2.499c.3395.1697.5539.5167.5539.8962v5.7615c0,.3795-.2144.7265-.5539.8962Z"/></clipPath></defs><g class="cls-1"><g id="Done"><g id="Layer_20_copy"><path id="path36" class="cls-5" d="m14,1l-4-1h0L0,9l1,2"/><path id="path37" class="cls-2" d="m14,13l-2,1h-2L0,4.6368l1-1.6368"/><path id="path38" class="cls-4" d="m12,14h-2l1-1V1l-1-1h2l2,1v12l-2,1Z"/><path class="cls-3" d="m12,0h-2l-5.9447,5.3502L1,3l-1,1.6368,2.376,2.2247-2.376,2.1384,1,2,3.1819-2.4476,5.8181,5.4476h2l2-1V1l-2-1Zm-1,10.6923l-4.8-3.6923,4.8-3.6923v7.3846Z"/></g></g></g></svg>