<?xml version="1.0" encoding="UTF-8"?><svg id="Done" xmlns="http://www.w3.org/2000/svg" xmlns:xlink="http://www.w3.org/1999/xlink" viewBox="0 0 14 14"><defs><style>.cls-1{fill:#008aaa;}.cls-1,.cls-2,.cls-3{fill-rule:evenodd;}.cls-2{fill:#1f9ef3;}.cls-4{fill:none;}.cls-3{fill:#00677f;}</style><clipPath id="clippath"><path class="cls-4" d="m-39.5539,115.2769l-4.998,2.499c-.2821.141-.6141.141-.8962,0l-4.998-2.499c-.3395-.1697-.5539-.5167-.5539-.8962v-5.7615c0-.3795.2144-.7265.5539-.8962l4.998-2.499c.2821-.141.6141-.141.8962,0l4.998,2.499c.3395.1697.5539.5167.5539.8962v5.7615c0,.3795-.2144.7265-.5539.8962Z"/></clipPath></defs><g id="Layer_20"><path id="path36" class="cls-3" d="m14,1l-4-1h0L0,9l1,2"/><path id="path37" class="cls-1" d="m14,13l-2,1h-2L0,4.6368l1-1.6368"/><path id="path38" class="cls-2" d="m12,14h-2l1-1V1l-1-1h2l2,1v12l-2,1Z"/></g></svg>