<?xml version="1.0" encoding="UTF-8"?><svg id="Done" xmlns="http://www.w3.org/2000/svg" xmlns:xlink="http://www.w3.org/1999/xlink" viewBox="0 0 14 14"><defs><style>.cls-1{fill:#0070ff;}.cls-2{fill:none;}</style><clipPath id="clippath"><path class="cls-2" d="m12.4461,63.2769l-4.998,2.499c-.2821.141-.6141.141-.8962,0l-4.998-2.499c-.3395-.1697-.5539-.5167-.5539-.8962v-5.7615c0-.3795.2144-.7265.5539-.8962l4.998-2.499c.2821-.141.6141-.141.8962,0l4.998,2.499c.3395.1697.5539.5167.5539.8962v5.7615c0,.3795-.2144.7265-.5539.8962Z"/></clipPath></defs><g id="Layer_40"><polygon class="cls-1" points="7.0519 .2567 1.7199 3.1874 7 6.3043 12.3839 3.1874 7.0519 .2567"/><polygon class="cls-1" points="8 13 13 10 13 5 8 8 8 13"/><polygon class="cls-1" points="1 10 6 13 6 8 1 5 1 10"/></g></svg>