<?xml version="1.0" encoding="UTF-8"?><svg id="Done" xmlns="http://www.w3.org/2000/svg" xmlns:xlink="http://www.w3.org/1999/xlink" viewBox="0 0 14 14"><defs><style>.cls-1{fill:#fff;}.cls-2{fill:#ff2c3c;}.cls-3{fill:none;}</style><clipPath id="clippath"><path class="cls-3" d="m64.4461,37.2769l-4.998,2.499c-.2821.141-.6141.141-.8962,0l-4.998-2.499c-.3395-.1697-.5539-.5167-.5539-.8962v-5.7615c0-.3795.2144-.7265.5539-.8962l4.998-2.499c.2821-.141.6141-.141.8962,0l4.998,2.499c.3395.1697.5539.5167.5539.8962v5.7615c0,.3795-.2144.7265-.5539.8962Z"/></clipPath></defs><g id="AHK_copy"><path id="Y" class="cls-1" d="m6,0l-1.2764,1.9145c-.4719.7078-.7236,1.5394-.7236,2.39v2.6954h-2v-2.6933c0-.852-.2522-1.685-.7248-2.394L0,0h2l1,3L4,0h2Z"/><path id="A" class="cls-2" d="m9,4l-1,2h-2l1-2,1-2,1-2h1l1,2,1,2,1,2h-2l-1-2h-1Z"/><polygon id="M" class="cls-1" points="0 8 0 14 2 14 2 10 3 13 5 13 6 10 6 14 8 14 8 8 5 8 4 11 3 8 2 8 0 8"/><polygon id="L" class="cls-1" points="12 12 12 8 10 8 10 14 14 14 14 12 12 12"/></g></svg>