<?xml version="1.0" encoding="UTF-8"?><svg id="Done" xmlns="http://www.w3.org/2000/svg" width="16" height="16" viewBox="0 0 16 16"><defs><style>.cls-1{fill:#fff;}.cls-2{fill:#ff2c3c;}</style></defs><g id="AHK_copy"><path id="Y" class="cls-1" d="m7,1l-1.2764,1.9145c-.4719.7078-.7236,1.5394-.7236,2.39v2.6954h-2v-2.6933c0-.852-.2522-1.685-.7248-2.394L1,1h2l1,3,1-3h2Z"/><path id="A" class="cls-2" d="m10,5l-1,2h-2l1-2,1-2,1-2h1l1,2,1,2,1,2h-2l-1-2h-1Z"/><polygon id="M" class="cls-1" points="1 9 1 15 3 15 3 11 4 14 6 14 7 11 7 15 9 15 9 9 6 9 5 12 4 9 3 9 1 9"/><polygon id="L" class="cls-1" points="13 13 13 9 11 9 11 15 15 15 15 13 13 13"/></g></svg>