<?xml version="1.0" encoding="UTF-8"?><svg id="Layer_80" xmlns="http://www.w3.org/2000/svg" xmlns:xlink="http://www.w3.org/1999/xlink" viewBox="0 0 14 14"><defs><style>.cls-1{fill:#36cbff;}.cls-2{fill:none;}</style><clipPath id="clippath"><path class="cls-2" d="m90.4461-14.7231l-4.998,2.499c-.2821.141-.6141.141-.8962,0l-4.998-2.499c-.3395-.1697-.5539-.5167-.5539-.8962v-5.7615c0-.3795.2144-.7265.5539-.8962l4.998-2.499c.2821-.141.6141-.141.8962,0l4.998,2.499c.3395.1697.5539.5167.5539.8962v5.7615c0,.3795-.2144.7265-.5539.8962Z"/></clipPath></defs><path class="cls-1" d="m11,12c-.659.4551-2.3028,1.4323-2.3028,1.4323,0,0-.1262.1893-.4913.275-.631.1533-3.0065.284-3.2229.2885-.5815.0045-.9376-.1487-1.0367-.3876-.302-.7212.4327-1.0367.4327-1.0367,0,0-.1623-.0992-.2569-.1893-.0856-.0856-.1758-.2569-.2028-.1938-.1127.275-.6173,1.5097-.9193,1.8117H1c-.5093-.2705,1-2,1-2,0,0-1,1-1,0v-1c0-1,1-2,1-2v-1c0-2,2-2,2-2,0,0-1,0-1-2,0-1-.0766-.973,0-1,.2704-.1037,1.1131-.4713,1.3069-.6832.6931-1.3168,1.6931-1.3168,1.6931-1.3168l1-1,1,1v1l1-1h1c.3876.7528.1713,2.1255,0,3-.2885,1.4424-1,3-2,3-.0676.1127.2929.2929,1,1,1,1,.432,3.4445.5086,3.5707.0135.0225.018.0316.018.0316,0,0,.342.0964,1.4734-.6023.604-.3741,1.1841-.991,2-1,.7888-.0135.8716.9432,0,1s-1.341.5449-2,1Z"/></svg>