<?xml version="1.0" encoding="UTF-8"?><svg id="Layer_79_copy" xmlns="http://www.w3.org/2000/svg" xmlns:xlink="http://www.w3.org/1999/xlink" viewBox="0 0 14 14"><defs><style>.cls-1{fill:#36cbff;}.cls-2{fill:#afafaf;}.cls-3{fill:none;}.cls-4{fill:#f2f2f2;}</style><clipPath id="clippath"><path class="cls-3" d="m64.4461-14.7231l-4.998,2.499c-.2821.141-.6141.141-.8962,0l-4.998-2.499c-.3395-.1697-.5539-.5167-.5539-.8962v-5.7615c0-.3795.2144-.7265.5539-.8962l4.998-2.499c.2821-.141.6141-.141.8962,0l4.998,2.499c.3395.1697.5539.5167.5539.8962v5.7615c0,.3795-.2144.7265-.5539.8962Z"/></clipPath></defs><path class="cls-1" d="m4.3784,9.9971c-.4531-.6924-.4917-1.5986-.0503-2.334l.8018-1.3672c.377-.6621,1.1099-1.0879,1.8994-1.0879h.0024c.303-.4923.5273-1.1502.6544-1.7853.1465-.7482.3317-1.9229,0-2.5671h-.8557l-.8557.8557v-.8557l-.8557-.8557-.8557.8557s-.8557,0-1.4487,1.1268c-.1658.1813-.8869.4958-1.1183.5846-.0656.0231,0,0,0,.8557,0,1.7114.8557,1.7114.8557,1.7114,0,0-1.7114,0-1.7114,1.7114v.8557S-.0151,8.5569-.0151,9.4126v.8557c0,.7399.6377.2018.8109.0422-.171.1649-.7958.826-.7958,1.6896l1.6962-.0204c.2584-.2584.6902-1.315.7866-1.5503.0232-.054.1003.0926.1736.1659.081.0771.2198.162.2198.162,0,0-.6287.27-.3702.8871.0848.2045.3895.3356.8871.3317.0671-.0014.3802-.0173.774-.0429-.2305-.6705-.157-1.3763.2112-1.936Z"/><path class="cls-4" d="m12.9779,10.392c.0162-.128.0284-.256.0284-.392s-.0122-.264-.0284-.392l.8562-.66c.0771-.06.0974-.168.0487-.256l-.8116-1.384c-.0494-.0853-.1543-.1225-.2475-.088l-1.0104.4c-.211-.16-.4382-.292-.6857-.392l-.1542-1.06c-.0139-.0974-.0991-.1694-.1988-.168h-1.6231c-.1014,0-.1867.072-.1989.168l-.1542,1.06c-.2475.1-.4748.236-.6858.392l-1.0104-.4c-.0235-.0079-.0482-.0119-.073-.012-.069,0-.138.036-.1745.1l-.8116,1.384c-.0528.088-.0284.196.0487.256l.8562.66c-.0163.128-.0284.26-.0284.392s.0121.264.0284.392l-.8562.66c-.0771.06-.0974.168-.0487.256l.8116,1.384c.0494.0853.1543.1226.2475.088l1.0104-.4c.211.16.4383.292.6858.392l.1542,1.06c.0122.096.0974.168.1989.168h1.6231c.1014,0,.1867-.072.1988-.168l.1542-1.06c.2475-.1.4747-.236.6857-.392l1.0104.4c.0243.008.0487.012.073.012.069,0,.138-.036.1745-.1l.8116-1.384c.0487-.088.0284-.196-.0487-.256l-.8562-.66Z"/><path class="cls-2" d="m12.9779,10.392c.0162-.128.0284-.256.0284-.392s-.0122-.264-.0284-.392l.8562-.66c.0771-.06.0974-.168.0487-.256l-.8116-1.384c-.0494-.0853-4.2728,5.464-4.2728,5.464l.1542,1.06c.0229.1039.0892.1599.1989.168h1.6231c.1014,0,.1867-.072.1988-.168l.1542-1.06c.2475-.1.4747-.236.6857-.392l1.0104.4c.0243.008.0487.012.073.012.069,0,.138-.036.1745-.1l.8116-1.384c.0487-.088.0284-.196-.0487-.256l-.8562-.66Z"/><circle cx="9.9631" cy="9.9426" r="1.5"/></svg>