<svg xmlns="http://www.w3.org/2000/svg" viewBox="0 0 14 14"><path fill="#36cbff" d="M11 12c-.659.455-2.303 1.432-2.303 1.432s-.126.19-.491.275c-.631.154-3.007.284-3.223.289-.581.004-.938-.149-1.037-.388-.302-.721.433-1.037.433-1.037s-.162-.099-.257-.189c-.086-.085-.176-.257-.203-.194-.112.275-.617 1.51-.919 1.812H1c-.51-.27 1-2 1-2s-1 1-1 0v-1c0-1 1-2 1-2V8c0-2 2-2 2-2S3 6 3 4c0-1-.077-.973 0-1 .27-.104 1.113-.471 1.307-.683C5 1 6 1 6 1l1-1 1 1v1l1-1h1c.388.753.171 2.126 0 3-.288 1.442-1 3-2 3-.068.113.293.293 1 1 1 1 .432 3.445.509 3.57l.018.032S9.869 11.7 11 11c.604-.374 1.184-.99 2-1 .789-.013.872.943 0 1s-1.341.545-2 1"/></svg>