<svg xmlns="http://www.w3.org/2000/svg" viewBox="0 0 14 14"><path fill="#36cbff" d="M4.378 9.997a2.2 2.2 0 0 1-.05-2.334l.802-1.367a2.2 2.2 0 0 1 1.9-1.088h.055c.267-.475.466-1.082.582-1.67.142-.74.323-1.901 0-2.538h-.834L6 1.846V1L5.167.154 4.333 1S3.5 1 2.923 2.114c-.162.18-.864.49-1.09.578-.064.023 0 0 0 .846 0 1.693.834 1.693.834 1.693S1 5.23 1 6.923v.778s-1.015.856-1 1.711v.856c-.015.856.84 0 .84 0L-.014 12h1.848c.252-.256.673-1.3.767-1.533.022-.053.097.092.168.164.08.076.215.16.215.16s-.613.267-.361.877c.083.203.38.332.864.329.062-.002.34-.016.691-.039-.241-.678-.171-1.394.202-1.96Z"/><path fill="#f2f2f2" d="M12.978 10.392q.026-.19.028-.392c.002-.202-.012-.264-.028-.392l.856-.66a.2.2 0 0 0 .049-.256l-.812-1.384a.204.204 0 0 0-.247-.088l-1.01.4a3 3 0 0 0-.686-.392l-.155-1.06A.2.2 0 0 0 10.775 6H9.15a.2.2 0 0 0-.198.168l-.155 1.06a3 3 0 0 0-.685.392l-1.01-.4a.2.2 0 0 0-.074-.012.2.2 0 0 0-.174.1l-.812 1.384a.195.195 0 0 0 .049.256l.856.66q-.026.193-.028.392c-.002.199.012.264.028.392l-.856.66a.2.2 0 0 0-.049.256l.812 1.384c.05.085.154.123.247.088l1.01-.4q.317.241.686.392l.155 1.06A.2.2 0 0 0 9.15 14h1.624a.2.2 0 0 0 .198-.168l.155-1.06c.247-.1.474-.236.685-.392l1.01.4a.2.2 0 0 0 .074.012.2.2 0 0 0 .174-.1l.812-1.384a.2.2 0 0 0-.049-.256z"/><path fill="#afafaf" d="M12.978 10.392q.026-.19.028-.392c.002-.202-.012-.264-.028-.392l.856-.66a.2.2 0 0 0 .049-.256l-.812-1.384c-.05-.085-4.273 5.464-4.273 5.464l.155 1.06q.034.156.198.168h1.624a.2.2 0 0 0 .198-.168l.155-1.06c.247-.1.474-.236.685-.392l1.01.4a.2.2 0 0 0 .074.012.2.2 0 0 0 .174-.1l.812-1.384a.2.2 0 0 0-.049-.256z"/><circle cx="9.963" cy="9.943" r="1.5"/></svg>