<?xml version="1.0" encoding="UTF-8"?><svg id="Layer_79" xmlns="http://www.w3.org/2000/svg" xmlns:xlink="http://www.w3.org/1999/xlink" viewBox="0 0 14 14"><defs><style>.cls-1{fill:#36cbff;}.cls-2{fill:#b1b1b1;}.cls-2,.cls-3,.cls-4{fill-rule:evenodd;}.cls-5{fill:none;}.cls-3{fill:#f2f2f2;}</style><clipPath id="clippath"><path class="cls-5" d="m38.4461-14.7231l-4.998,2.499c-.2821.141-.6141.141-.8962,0l-4.998-2.499c-.3395-.1697-.5539-.5167-.5539-.8962v-5.7615c0-.3795.2144-.7265.5539-.8962l4.998-2.499c.2821-.141.6141-.141.8962,0l4.998,2.499c.3395.1697.5539.5167.5539.8962v5.7615c0,.3795-.2144.7265-.5539.8962Z"/></clipPath></defs><path class="cls-1" d="m5,10c-.0269-.9648.3491-1.7812,1.0122-2.3184.0339-.4374.1531-.8756.3164-1.3027-.2579-.2242-.3919-.3259-.3539-.3892.2569,0,.4883-.1301.6976-.3317.1501-.2614.3221-.5085.5176-.7422.2222-.4466.3926-.9758.4962-1.4932.1465-.7482.3317-1.9229,0-2.5671h-.8557l-.8557.8557v-.8557l-.8557-.8557-.8557.8557s-.8557,0-1.4487,1.1268c-.1658.1813-.8869.4958-1.1183.5846-.0656.0231,0,0,0,.8557,0,1.7114.8557,1.7114.8557,1.7114,0,0-1.7114,0-1.7114,1.7114v.8557S-.0151,8.5569-.0151,9.4126v.8557c0,.7399.6377.2018.8109.0422-.171.1649-.7958.826-.7958,1.6896l1.6962-.0204c.2584-.2584.6902-1.315.7866-1.5503.0232-.054.1003.0926.1736.1659.081.0771.2198.162.2198.162,0,0-.6287.27-.3702.8871.0848.2045.3895.3356.8871.3317.1111-.0023.887-.0439,1.6069-.1049v-1.8712Z"/><path id="lock" class="cls-3" d="m8,8c0-1.3071,1.1913-2.7692,2.6362-2.7692,1.442,0,2.3638,1.4633,2.3638,2.7692v1c.6223.0113.9895.3045,1,1v4h-7v-4c-.018-.6651.3521-.9636,1-1v-1Zm1-.0069c0-.6359.2526-1.2457.7022-1.6954l.2978-.2978h1l.2907.2907c.4541.4541.7093,1.0701.7093,1.7123v.9969h-3v-1.0069Z"/><g id="Lock"><path id="lock-2" class="cls-3" d="m8,8c0-1.3071,1.1913-2.7692,2.6362-2.7692,1.442,0,2.3638,1.4633,2.3638,2.7692v1c.6223.0113.9895.3045,1,1v4h-7v-4c-.018-.6651.3521-.9636,1-1v-1Zm1-.0069c0-.6359.2526-1.2457.7022-1.6954l.2978-.2978h1l.2907.2907c.4541.4541.7093,1.0701.7093,1.7123v.9969h-3v-1.0069Z"/><path id="lock-3" class="cls-2" d="m14,10v4h-7c-.0006-1,7-5,7-4Zm-2-1h-3"/><rect x="10" y="10" width="1" height="2"/><polygon class="cls-4" points="13.2315 8.5 7.7085 8.5 7.738 9 13.261 9 13.2315 8.5"/></g></svg>