<svg xmlns="http://www.w3.org/2000/svg" id="Layer_79" viewBox="0 0 14 14"><defs><clipPath id="clippath"/><style>.cls-3{fill-rule:evenodd;fill:#f2f2f2}</style></defs><path fill="#36cbff" d="M5 10c-.027-.965.35-1.781 1.012-2.318.034-.438.153-.876.317-1.303-.258-.224-.392-.326-.354-.39.257 0 .488-.13.697-.331q.225-.391.518-.742c.222-.447.392-.976.496-1.493.147-.749.332-1.923 0-2.567H6.83l-.855.855V.856L5.119 0l-.856.856s-.855 0-1.448 1.126c-.166.182-.887.496-1.119.585-.065.023 0 0 0 .856 0 1.711.856 1.711.856 1.711s-1.711 0-1.711 1.711v.856s-.856.856-.856 1.712v.855c0 .74.638.202.81.042C.626 10.475 0 11.137 0 12l1.696-.02c.259-.259.69-1.315.787-1.55.023-.055.1.092.173.165.081.077.22.162.22.162s-.629.27-.37.887c.085.205.39.336.887.332.111-.002.887-.044 1.607-.105z"/><path id="lock" d="M8 8c0-1.307 1.191-2.77 2.636-2.77C12.078 5.23 13 6.695 13 8v1c.622.011.99.305 1 1v4H7v-4c-.018-.665.352-.964 1-1zm1-.007c0-.636.253-1.246.702-1.695L10 6h1l.29.29c.455.455.71 1.07.71 1.713V9H9z" class="cls-3"/><g id="Lock"><path id="lock-2" d="M8 8c0-1.307 1.191-2.77 2.636-2.77C12.078 5.23 13 6.695 13 8v1c.622.011.99.305 1 1v4H7v-4c-.018-.665.352-.964 1-1zm1-.007c0-.636.253-1.246.702-1.695L10 6h1l.29.29c.455.455.71 1.07.71 1.713V9H9z" class="cls-3"/><path id="lock-3" fill="#b1b1b1" fill-rule="evenodd" d="M14 10v4H7c0-1 7-5 7-4m-2-1H9"/><path d="M10 10h1v2h-1z"/><path fill-rule="evenodd" d="M13.232 8.5H7.709l.029.5h5.523z"/></g></svg>