<?xml version="1.0" encoding="UTF-8"?><svg id="Done" xmlns="http://www.w3.org/2000/svg" xmlns:xlink="http://www.w3.org/1999/xlink" viewBox="0 0 14 14"><defs><style>.cls-1{fill:#fff;}.cls-2{fill:#7a7674;}.cls-3{fill:#7c7775;}.cls-4{fill:none;}</style><clipPath id="clippath"><path class="cls-4" d="m38.4461,63.2769l-4.998,2.499c-.2821.141-.6141.141-.8962,0l-4.998-2.499c-.3395-.1697-.5539-.5167-.5539-.8962v-5.7615c0-.3795.2144-.7265.5539-.8962l4.998-2.499c.2821-.141.6141-.141.8962,0l4.998,2.499c.3395.1697.5539.5167.5539.8962v5.7615c0,.3795-.2144.7265-.5539.8962Z"/></clipPath></defs><g id="Layer_65"><polygon class="cls-3" points="12 1 2 1 2 6 12 6 12 1"/><rect class="cls-2" x="2" y="7" width="10" height="5"/><path d="m8.5,11h-3c-.2761,0-.5-.2239-.5-.5h0c0-.2761.2239-.5.5-.5h3c.2761,0,.5.2239.5.5h0c0,.2761-.2239.5-.5.5Z"/><path d="m8.5,5h-3c-.2761,0-.5-.2239-.5-.5h0c0-.2761.2239-.5.5-.5h3c.2761,0,.5.2239.5.5h0c0,.2761-.2239.5-.5.5Z"/><rect class="cls-1" x="5" y="2" width="4" height="1"/><rect class="cls-1" x="5" y="8" width="4" height="1"/><rect class="cls-3" x="1" y="13" width="12" height="1"/><rect class="cls-2" width="1" height="14"/><rect class="cls-2" x="13" width="1" height="14"/></g></svg>