<?xml version="1.0" encoding="UTF-8"?><svg id="Done" xmlns="http://www.w3.org/2000/svg" width="16" height="16" viewBox="0 0 16 16"><defs><style>.cls-1{fill:#fff;}.cls-2{fill:#7a7674;}.cls-3{fill:#7c7775;}</style></defs><g id="Layer_65"><polygon class="cls-3" points="13 2 3 2 3 7 13 7 13 2"/><rect class="cls-2" x="3" y="8" width="10" height="5"/><path d="m9.5,12h-3c-.2761,0-.5-.2239-.5-.5h0c0-.2761.2239-.5.5-.5h3c.2761,0,.5.2239.5.5h0c0,.2761-.2239.5-.5.5Z"/><path d="m9.5,6h-3c-.2761,0-.5-.2239-.5-.5h0c0-.2761.2239-.5.5-.5h3c.2761,0,.5.2239.5.5h0c0,.2761-.2239.5-.5.5Z"/><rect class="cls-1" x="6" y="3" width="4" height="1"/><rect class="cls-1" x="6" y="9" width="4" height="1"/><rect class="cls-3" x="2" y="14" width="12" height="1"/><rect class="cls-2" x="1" y="1" width="1" height="14"/><rect class="cls-2" x="14" y="1" width="1" height="14"/></g></svg>