<?xml version="1.0" encoding="UTF-8"?><svg id="Done" xmlns="http://www.w3.org/2000/svg" width="16" height="16" viewBox="0 0 16 16"><defs><style>.cls-1{fill:#f78f00;stroke-linecap:square;}.cls-1,.cls-2,.cls-3{stroke:#df8e1d;}.cls-1,.cls-3{stroke-linejoin:round;}.cls-2,.cls-3{fill:none;}.cls-3{stroke-linecap:round;}</style></defs><g id="Layer_66"><g id="zip"><path id="Path" class="cls-3" d="m3.5,12.5c-1.1046,0-2,.1046-2-1V2.5c0-1.1046.8954-1,2-1h9c1.1046,0,2-.1046,2,1v9c0,1.1046-.8954,1-2,1"/><polygon id="Line-23" class="cls-1" points="6.5 14.5 6.5 10.5 7.5 9.5 8.5 9.5 9.5 10.5 9.5 14.5 6.5 14.5"/><path id="_" class="cls-2" d="m6,2.5h2m0,1h2m-4,1h2m0,1h2m-4,1h2m0,1h2m-4,1h2"/></g><rect x="7" y="13" width="2" height="1"/></g></svg>