<?xml version="1.0" encoding="UTF-8"?><svg id="Done" xmlns="http://www.w3.org/2000/svg" xmlns:xlink="http://www.w3.org/1999/xlink" viewBox="0 0 14 14"><defs><style>.cls-1{fill:#f78f00;stroke-linecap:square;}.cls-1,.cls-2,.cls-3{stroke:#df8e1d;}.cls-1,.cls-3{stroke-linejoin:round;}.cls-2,.cls-4,.cls-3{fill:none;}.cls-3{stroke-linecap:round;}</style><clipPath id="clippath"><path class="cls-4" d="m64.4461,63.2769l-4.998,2.499c-.2821.141-.6141.141-.8962,0l-4.998-2.499c-.3395-.1697-.5539-.5167-.5539-.8962v-5.7615c0-.3795.2144-.7265.5539-.8962l4.998-2.499c.2821-.141.6141-.141.8962,0l4.998,2.499c.3395.1697.5539.5167.5539.8962v5.7615c0,.3795-.2144.7265-.5539.8962Z"/></clipPath></defs><g id="Layer_66"><g id="zip"><path id="Path" class="cls-3" d="m2.5,11.5c-1.1046,0-2,.1046-2-1V1.5C.5.3954,1.3954.5,2.5.5h9c1.1046,0,2-.1046,2,1v9c0,1.1046-.8954,1-2,1"/><polygon id="Line-23" class="cls-1" points="5.5 13.5 5.5 9.5 6.5 8.5 7.5 8.5 8.5 9.5 8.5 13.5 5.5 13.5"/><path id="_" class="cls-2" d="m5,1.5h2m0,1h2m-4,1h2m0,1h2m-4,1h2m0,1h2m-4,1h2"/></g><rect x="6" y="12" width="2" height="1"/></g></svg>