<svg xmlns="http://www.w3.org/2000/svg" id="Done" viewBox="0 0 14 14"><defs><radialGradient id="radial-gradient" cx="135.246" cy="-92.076" r="1.587" fx="135.246" fy="-92.076" gradientTransform="matrix(3.43528 2.2902 1.25984 -1.88975 -344.606 -480.74)" gradientUnits="userSpaceOnUse"><stop offset="0"/><stop offset="1" stop-opacity="0"/></radialGradient><linearGradient id="linear-gradient" x1="96.774" x2="97.303" y1="-136.21" y2="-136.21" gradientTransform="matrix(3.7795 0 0 -3.7795 -360.758 -506.308)" gradientUnits="userSpaceOnUse"><stop offset="0"/><stop offset="1" stop-opacity="0"/></linearGradient><style>.cls-1{fill:#a040ff}.cls-5{fill-rule:evenodd}</style></defs><g id="Layer_30"><path id="folder" d="M0 0v12l4.113 1.936A.62.62 0 0 0 5 13.37V11h6V1c-.004-.745-.409-.99-1-1z" class="cls-1"/><path id="folder_shadow" d="m-.018 0 4.086 1.588c.562.219.932.76.932 1.363V11h6V1c-.004-.745-.41-.99-1.002-1z" opacity=".3" style="isolation:isolate"/><path id="flap_shadow" fill="url(#radial-gradient)" d="M10 11c.706-.08 1.081-.38 1-.984V5q.997-.003 1-1V1c.005-.64-.31-.99-1-1H0v11z" opacity=".711" style="isolation:isolate"/><path id="path464" d="m4 3 10-.005v9.003s-.138 1.958-2.002 2.002l-7.078.005C1.916 14.005 1.916 10 1.916 10H4z" class="cls-5"/><path id="path465" fill="#ffe9a3" fill-rule="evenodd" d="m5 4 8-.005v8.003S13 13 11.998 13l-7.086.005C2.907 13.005 2.907 11 2.907 11H5z"/><path id="path466" d="M11.042 10 5 10.005V11l5.046-.005s0 .996.995.996c0 0 .996 0 .996-.996-.996 0-.996-.995-.996-.995" class="cls-5"/><path id="icon_shadow" fill="url(#linear-gradient)" d="M5 4h2v9H5z"/><path id="flap" d="M5 2.951c0-.603-.37-1.145-.931-1.363L0 .006V12l4.113 1.935c.31.147.681.014.828-.298a.6.6 0 0 0 .05-.224z" class="cls-1"/></g></svg>