<svg xmlns="http://www.w3.org/2000/svg" id="Done" viewBox="0 0 14 14"><defs><radialGradient id="radial-gradient" cx="157.554" cy="-207.576" r="1.587" fx="157.554" fy="-207.576" gradientTransform="matrix(3.43528 2.2902 1.25984 -1.88975 -275.729 -750.097)" gradientUnits="userSpaceOnUse"><stop offset="0"/><stop offset="1" stop-opacity="0"/></radialGradient><linearGradient id="linear-gradient" x1="100.355" x2="101.149" y1="-201.968" y2="-201.968" gradientTransform="matrix(3.7795 0 0 -3.7795 -375.294 -754.844)" gradientUnits="userSpaceOnUse"><stop offset="0"/><stop offset="1" stop-opacity="0"/></linearGradient><style>.cls-4{fill:#40a0ff}</style></defs><g id="Layer_40_copy_8"><path id="folder" d="M0 0v12l4.113 1.936A.62.62 0 0 0 5 13.37V11h6V1c-.004-.745-.409-.99-1-1z" class="cls-4"/><path id="back_shadow" d="m-.018 0 4.085 1.588c.562.219.933.76.933 1.364V11h6V1c-.004-.745-.41-.99-1.002-1z" opacity=".3" style="isolation:isolate"/><path id="flap_shadow" fill="url(#radial-gradient)" d="M10 11c.706-.08 1.081-.38 1-.984V5q.997-.003 1-1V1c.005-.64-.31-.99-1-1H0v11z" opacity=".711" style="isolation:isolate"/><path d="M10.45 4.323V6h-.447V4.323h-3.24v.953c-.06-.07-.11-.147-.177-.211-.599-.578-1.403-.87-2.392-.87-.638 0-1.2.121-1.668.36A2.8 2.8 0 0 0 1.34 5.694a3.2 3.2 0 0 0-.411 1.601 3.27 3.27 0 0 0 .746 2.09L.61 9.509l.097.978C2 12 3 13 4.225 13.967c1.095 0 1.943-.315 2.538-.919v.791h3.24V12h.446v1.839h3.24V4.323z"/><path id="Text" fill="#ff6700" d="m1.702 10.388 1.216-.143q.205 1.44 1.343 1.44.564 0 .886-.294a.95.95 0 0 0 .324-.73.8.8 0 0 0-.113-.436.83.83 0 0 0-.343-.294q-.232-.116-1.119-.387-.794-.24-1.163-.522c-.369-.282-.442-.435-.587-.74a2.3 2.3 0 0 1-.218-.987q0-.615.28-1.106.278-.491.771-.743.492-.252 1.215-.252 1.087.001 1.697.59.611.59.646 1.687l-1.246.067q-.082-.604-.354-.847-.271-.24-.774-.24c-.503 0-.593.07-.773.21a.64.64 0 0 0-.273.52q0 .309.247.517c.247.208.542.293 1.134.461q.938.271 1.355.572.419.3.638.774.221.475.22 1.15 0 .98-.602 1.646c-.602.666-1.03.666-1.884.666q-2.266 0-2.523-2.58m6.061 2.452V5.323h1.24v2.958h2.446V5.323h1.24v7.516h-1.24V9.553H9.003v3.286z"/><path id="icon_shadow" fill="url(#linear-gradient)" d="m4 4 2 1 1 1v7H4z"/><path id="flap" d="M5 2.951c0-.603-.37-1.145-.931-1.363L0 .006V12l4.113 1.935c.31.147.681.014.828-.298a.6.6 0 0 0 .05-.224z" class="cls-4"/></g></svg>