<svg xmlns="http://www.w3.org/2000/svg" id="Done" viewBox="0 0 14 14"><defs><radialGradient id="radial-gradient" cx="90.232" cy="49.426" r="1.587" fx="90.232" fy="49.426" gradientTransform="matrix(3.43528 2.2902 1.25984 -1.88975 -368.24 -110.25)" gradientUnits="userSpaceOnUse"><stop offset="0"/><stop offset="1" stop-opacity="0"/></radialGradient><linearGradient id="linear-gradient" x1="72.29" x2="72.819" y1="-30.561" y2="-30.561" gradientTransform="matrix(3.7795 0 0 -3.7795 -268.223 -107.505)" gradientUnits="userSpaceOnUse"><stop offset="0"/><stop offset="1" stop-opacity="0"/></linearGradient><style>.cls-8{fill:#ff13c0}</style></defs><g id="Layer_23_copy_8"><path id="folder" d="M0-.006v12l4.113 1.936A.62.62 0 0 0 5 13.366v-2.372h6v-10c-.004-.745-.409-.989-1-1z" class="cls-8"/><path id="folder_shadow" d="m-.018-.006 4.085 1.588c.562.219.933.76.933 1.364v8.048h6v-10c-.004-.745-.41-.989-1.002-1z" opacity=".3" style="isolation:isolate"/><path id="flap_shadow" fill="url(#radial-gradient)" d="M10 10.994c.706-.08 1.081-.38 1-.984V4.994q.997-.002 1-1v-3c.005-.64-.31-.99-1-1H0v11z" opacity=".711" style="isolation:isolate"/><path fill-rule="evenodd" d="M3 14v-3L2 8.236v-1.65L2.586 6h-.412l-.156-.81c-.016-.086-.05-.26-.017-1.224l.013-.394L3.586 2h1.65l2.356 1.178.258.257a2 2 0 0 1 .297.003L9.586 2 11 1h3v7.414L13 10v1l1 2v1z"/><g id="_2220002388688"><path fill="#ce7730" fill-rule="evenodd" d="M8.672 11.317a.1.1 0 0 1-.065-.021.9.9 0 0 0-.665-.173q-.047.006-.083-.024C7.823 11.07 8 12 8 12c-1-1-2-4 0-7 1 0 .038 1.256.077 1.243a.11.11 0 0 1 .11.024.43.43 0 0 0 .519.056.11.11 0 0 1 .115.001c.035.023.185-1.365.18-1.324 0 2-1 5 1 7 .002.042-1.24-.716-1.277-.696a.1.1 0 0 1-.051.013Z"/><path fill="#b4ef11" fill-rule="evenodd" d="M2.75 8.059V6.897l1.121-1.122.066-.017s1.078-.281 2.019-.512l-3.162.004-.04-.203c-.03-.16-.013-.791-.004-1.056l.003-.098L3.897 2.75h1.162l2.053 1.026.887.872 1.824-1.825 2.226-1.127 1.201 1.2v2.707L12 4.353l-.883.883s-.559.066-.749.09c.848.211 1.695.432 1.695.432l.066.017 1.121 1.121v1.207L12 9.353 9.882 7.235c-.7-.092-1.324-.39-1.882-.891-.43.384-1.066.795-1.883.892l-.94.94L4 10.559z"/><path d="m12 2 1 1v2l-1-1-1 1c-.036.005-1.511.16-1.88.285C10.064 5.494 12 6 12 6l1 1v1l-1 1-1-1-1-1c-.044-.025-1 0-2-1-1 1-1.961.978-2 1L5 8l-1 2-1-2V7l1-1s1.926-.503 2.872-.713A24 24 0 0 0 6 5H3c-.029-.15 0-1 0-1l1-1h1l2 1 1 1 1-1 1-1zm.099-.608-.323.16-2 1-.072.037-.058.058-1 1L8 4.293l-.647-.646-.057-.058-.073-.036-2-1-.105-.053H3.793l-.147.146-1 1-.14.14-.006.197c-.02.602-.017.976.009 1.112l.078.405h1.349l-.062.016-.132.035-.096.095-1 1-.146.147v1.325l.053.106 1 2 .447.894.447-.894.964-1.928.824-.824a3.7 3.7 0 0 0 1.764-.8c.538.438 1.13.706 1.766.8l.881.881 1 1 .354.354.354-.354 1-1 .146-.146V6.793l-.146-.147-1-1-.096-.095-.132-.035-.743-.192.617-.617.646.647.854.853V2.793l-.146-.146-1-1z"/><path fill="#7d9c32" fill-rule="evenodd" d="M7.992 6.898c-.636 0-1.246-.617-1.246-1.253s.598-1.213 1.233-1.213 1.259.611 1.259 1.247-.61 1.22-1.246 1.22"/><path fill="#e6bb7e" fill-rule="evenodd" d="M4 13c0-.623.377-1 1-1 .038 0 .006-.892 1-1 .655-.07 1.08-.218 2 0 2.918 0 3.618.04 3.898.94A1.125 1.125 0 0 1 13.033 13z"/></g><path id="icon_shadow" fill="url(#linear-gradient)" d="M5 3h1l1 1v9H5z"/><path id="flap" d="M5 2.946c0-.603-.37-1.145-.931-1.364L0 0v11.994l4.113 1.936c.31.146.681.013.828-.298a.6.6 0 0 0 .05-.224z" class="cls-8"/></g></svg>