<svg xmlns="http://www.w3.org/2000/svg" viewBox="0 0 14 14"><defs><linearGradient id="a" x1="554.861" x2="554.861" y1="-737.009" y2="-733.009" gradientTransform="matrix(.5 0 0 -.5 -274.43 -366.505)" gradientUnits="userSpaceOnUse"><stop offset="0"/><stop offset="1" stop-opacity=".151"/></linearGradient></defs><path fill="#ff6700" d="M1 0C.529 0 0 .529 0 1v7c0 .471.529 1 1 1h10c.471 0 1-.529 1-1V2c0-.471-.529-1-1-1H6c0-.471-.529-1-1-1z"/><path fill="url(#a)" d="M1 0C.529 0 0 .529 0 1s.529 1 1 1h4c.471 0 1-.529 1-1s-.529-1-1-1z" opacity=".723" style="isolation:isolate"/><path fill-rule="evenodd" d="M8 5 7 6H6L5 5 4 6 3 7l1 1v1l-1 1 2 2 1-1h1l2 2 1 1h2l2-2V5l-2-2h-2z"/><path fill="#007dd2" fill-rule="evenodd" d="M11.07 4h-1l-6 6 1 1 7-5 1-1z"/><path fill="#0098ff" fill-rule="evenodd" d="M11.07 13h-1l-6-6 .51-.511L5.07 6l7 5 1.01.989z"/><path fill="#41b3ff" fill-rule="evenodd" d="M11 13h-1l1-1V5l-1-1h1l2 1v7z"/></svg>