<?xml version="1.0" encoding="UTF-8"?><svg id="Layer_23_copy_10" xmlns="http://www.w3.org/2000/svg" xmlns:xlink="http://www.w3.org/1999/xlink" viewBox="0 0 14 14"><defs><style>.cls-1{stroke:#680019;}.cls-1,.cls-2,.cls-3,.cls-4,.cls-5,.cls-6{stroke-linecap:round;}.cls-1,.cls-3,.cls-5,.cls-6{fill:none;}.cls-1,.cls-6{stroke-miterlimit:10;}.cls-2{stroke:#d20f39;}.cls-2,.cls-3,.cls-4{stroke-linejoin:round;}.cls-2,.cls-4{fill:#f50637;}.cls-7{fill:aqua;}.cls-8{opacity:.3;}.cls-8,.cls-9{isolation:isolate;}.cls-3,.cls-5{stroke:#000;}.cls-4{stroke:#f50637;}.cls-5{stroke-linejoin:bevel;}.cls-6{stroke:#ff0135;}.cls-10{fill:url(#linear-gradient);}.cls-9{fill:url(#radial-gradient);opacity:.711;}</style><radialGradient id="radial-gradient" cx="69.6701" cy="-151.0241" fx="69.6701" fy="-151.0241" r="1.5875" gradientTransform="translate(-45.0697 -441.9626) rotate(33.6901) scale(4.1287 -2.2712)" gradientUnits="userSpaceOnUse"><stop offset="0" stop-color="#000"/><stop offset="1" stop-color="#000" stop-opacity="0"/></radialGradient><linearGradient id="linear-gradient" x1="34.0486" y1="-227.8358" x2="34.5777" y2="-227.8358" gradientTransform="translate(-123.6875 -853.1116) scale(3.7795 -3.7795)" gradientUnits="userSpaceOnUse"><stop offset="0" stop-color="#000"/><stop offset="1" stop-color="#000" stop-opacity="0"/></linearGradient></defs><path id="folder" class="cls-7" d="m0-.0056v12l4.1131,1.9355c.3105.1468.681.0135.8275-.2976.0393-.0834.0596-.1746.0594-.2668v-2.3711h6V.9944c-.004-.745-.4086-.9893-1-1H0Z"/><path id="folder_shadow" class="cls-8" d="m-.0179-.0056l4.0848,1.5879c.5625.2187.9331.7603.9331,1.3638v8.0482h6V.9944c-.004-.745-.4093-.9893-1.0016-1H-.0179Z"/><path id="flap_shadow" class="cls-9" d="m10,10.9944c.7057-.0798,1.0812-.3798,1-.9844v-5.0156c.6647-.0018.998-.3352,1-1V.9944c.0053-.6399-.3093-.9903-1-1H0v11h10Z"/><g id="Layer_89_copy_3"><polygon points="9.9199 6.127 8.1055 5.2852 9.5908 2.084 11.1826 1.5518 11.8174 3.4482 11.042 3.707 9.9199 6.127"/><path d="m9.0127,7.2061c-.2217,0-.4434-.0498-.6416-.1445-.3525-.1631-.6289-.4639-.7666-.8398s-.1211-.7832.0479-1.1475l1.3037-2.8096c.1709-.3711.4941-.6611.8838-.792l1.1846-.3955c.1553-.0518.3145-.0771.4756-.0771.6455,0,1.2178.4111,1.4229,1.0244.2607.7852-.1641,1.6357-.9463,1.8984l-.5713.1904-1.0322,2.2236c-.2422.5264-.7773.8691-1.3604.8691Z"/><polygon points="4.0811 13.5 3.4248 4.5 11.5723 4.5 10.9434 13.5 4.0811 13.5"/><path d="m5.0107,14c-.7812,0-1.4385-.6104-1.4961-1.3896l-.4619-6.3359c-.9053-.5508-1.0527-1.3271-1.0527-1.7744,0-.6094.3633-1.1533.9268-1.3857.1855-.0762.377-.1143.5732-.1143.4014,0,.7773.1562,1.0605.4395l.3838.3838c.3916.082,1.1475.1768,2.5557.1768,1.418,0,2.1699-.0947,2.5566-.1777l.3828-.3828c.2764-.2783.6641-.4395,1.0605-.4395.1992,0,.3926.0391.5752.1143.5615.2324.9248.7764.9248,1.3857,0,.4463-.1475,1.2227-1.0508,1.7734l-.4414,6.3311c-.0557.7832-.7129,1.3955-1.4971,1.3955h-5Zm3.6016-3l.2803-4.0186c-.4473.0312-.917.0469-1.3945.0469-.4746,0-.9404-.0156-1.3857-.0459l.293,4.0176h2.207Z"/><path class="cls-5" d="m10.6465,4.8584c-.1123-.084-.6729-.3584-3.1465-.3584v-2c1.7471,0,5,0,5,2h-2c0,.1865.1006.3242.1465.3584Z"/><path class="cls-3" d="m4.3535,4.8584c.0459-.0342.1465-.1719.1465-.3584h-2c0-2,3.2529-2,5-2v2c-2.4736,0-3.0342.2744-3.1465.3584Z"/><path class="cls-4" d="m7.5,5.5h-3l.5109,7h5l.4891-7h-3Z"/><polyline class="cls-2" points="9.0131 5.7065 10.3167 2.8953 11.5 2.5"/><path class="cls-1" d="m11.5,4.5c0,1-3,1-4,1"/><path class="cls-6" d="m11.5,4.5c0,1-3,1-4,1"/><path class="cls-6" d="m3.5,4.5c0,1,3,1,4,1"/><path class="cls-6" d="m11.5,4.5c0-1-3-1-4-1"/><path class="cls-6" d="m3.5,4.5c0-1,3-1,4-1"/></g><path id="icon_shadow" class="cls-10" d="m5,3h2v10h-2V3Z"/><path id="flap" class="cls-7" d="m5,2.9456c.0005-.6031-.3694-1.1446-.9315-1.3632L0,0v11.994l4.1131,1.9355c.3105.1468.681.0135.8275-.2976.033-.0701.0446-.1472.0499-.2242l.0095-10.4621Z"/></svg>