<?xml version="1.0" encoding="UTF-8"?><svg id="Done" xmlns="http://www.w3.org/2000/svg" xmlns:xlink="http://www.w3.org/1999/xlink" viewBox="0 0 14 14"><defs><style>.cls-1{fill:#ff6700;}.cls-2{opacity:.3;}.cls-2,.cls-3{isolation:isolate;}.cls-4{fill:#00b8ff;}.cls-5{fill:url(#linear-gradient);}.cls-3{fill:url(#radial-gradient);opacity:.711;}</style><radialGradient id="radial-gradient" cx="67.5267" cy="-111.1261" fx="67.5267" fy="-111.1261" r="1.5875" gradientTransform="translate(-87.9717 -361.6507) rotate(33.6901) scale(4.1287 -2.2712)" gradientUnits="userSpaceOnUse"><stop offset="0" stop-color="#000"/><stop offset="1" stop-color="#000" stop-opacity="0"/></radialGradient><linearGradient id="linear-gradient" x1="24.1361" y1="-136.2097" x2="24.6652" y2="-136.2097" gradientTransform="translate(-86.2229 -506.3085) scale(3.7795 -3.7795)" gradientUnits="userSpaceOnUse"><stop offset="0" stop-color="#000"/><stop offset="1" stop-color="#000" stop-opacity="0"/></linearGradient></defs><g id="Layer_40_copy"><path id="path332" class="cls-1" d="m0,0v12l4.1131,1.9355c.3105.1468.681.0135.8275-.2976.0393-.0834.0596-.1746.0594-.2668v-2.3711h6V1c-.004-.745-.4086-.9893-1-1H0Z"/><g id="g337"><path id="path333" class="cls-2" d="m-.0179,0l4.0848,1.5879c.5625.2187.9331.7603.9331,1.3638v8.0482h6V1c-.004-.745-.4093-.9893-1.0016-1H-.0179Z"/><path id="path334" class="cls-3" d="m10,11c.7057-.0798,1.0812-.3798,1-.9844v-5.0156c.6647-.0018.998-.3352,1-1V1C12.0053.3601,11.6907.0097,11,0H0v11h10Z"/><path d="m8,2.962h1l4.2491,1.7874c.455.1914.7509.6369.7509,1.1305v5.2783c0,.5004-.3041.9507-.7683,1.1376l-4.2317,1.7042h-1l-4.2412-1.7495c-.4592-.1894-.7588-.6371-.7588-1.1338v-5.2369c0-.4936.2959-.9391.7509-1.1305l4.2491-1.7874Z"/><polygon class="cls-4" points="8 4 4 6 8 8 9 8 13 6 9 4 8 4"/><polygon class="cls-4" points="9 13 12.9273 11.118 12.998 7.116 9 9 9 13"/><polygon class="cls-4" points="4 11 8 13 8 9 4 7 4 11"/><path id="path337" class="cls-5" d="m5.0113,5.3474l.9887-.3474,1-1v9l-1-1-1-.3306.0113-6.322Z"/></g><path class="cls-1" d="m5,2.9511c.0005-.6031-.3694-1.1446-.9315-1.3632L0,.0056v11.994l4.1131,1.9355c.3105.1468.681.0135.8275-.2976.033-.0701.0446-.1472.0499-.2242l.0095-10.4621Z"/></g></svg>