<svg xmlns="http://www.w3.org/2000/svg" viewBox="0 0 14 14"><defs><linearGradient id="a" x1="710.861" x2="710.861" y1="-737.009" y2="-733.009" gradientTransform="matrix(.5 0 0 -.5 -352.43 -366.505)" gradientUnits="userSpaceOnUse"><stop offset="0"/><stop offset="1" stop-opacity=".151"/></linearGradient></defs><path fill="#ff13c0" d="M1 0C.529 0 0 .529 0 1v7c0 .471.529 1 1 1h10c.471 0 1-.529 1-1V2c0-.471-.529-1-1-1H6c0-.471-.529-1-1-1z"/><path fill="url(#a)" d="M1 0C.529 0 0 .529 0 1s.529 1 1 1h4c.471 0 1-.529 1-1s-.529-1-1-1z" opacity=".723" style="isolation:isolate"/><path d="M6 4s4.13-.645 6 1c.548.482 1 .984 1 .984.496.493.877 1.07 1 2.016v2c-.204.796-.312 2.133-1 3l-1 1H8l-1-1v-1H4l-2-2V8l1-2 1-1a5.3 5.3 0 0 1 2-1"/><path fill="#fff" d="M7 5c-2.716.406-4.031 2.234-4.031 3.79.034 1.115.473 1.61 1.458 2.072C5.06 11.07 7 11 7 11h2v1l-1 1h2s3 0 2.933-4.21C12.592 5.406 9.903 4.565 7 5"/><path d="M7 8v1l-1 1H5L4 9V8l1-1h1z"/></svg>