<?xml version="1.0" encoding="UTF-8"?><svg id="Done" xmlns="http://www.w3.org/2000/svg" xmlns:xlink="http://www.w3.org/1999/xlink" viewBox="0 0 14 14"><defs><style>.cls-1{fill:#a040ff;}.cls-2{fill:#00ff06;}.cls-3{fill:url(#linear-gradient);isolation:isolate;opacity:.723;}.cls-4{fill:#ccc;}.cls-5{fill:#586977;}</style><linearGradient id="linear-gradient" x1="424.8608" y1="-893.0094" x2="424.8608" y2="-889.0094" gradientTransform="translate(-209.4304 -444.5047) scale(.5 -.5)" gradientUnits="userSpaceOnUse"><stop offset="0" stop-color="#000"/><stop offset="1" stop-color="#000" stop-opacity=".151"/></linearGradient></defs><g id="Layer_39_copy_5"><g id="Folder"><path id="Folder_Back" class="cls-1" d="m1,0C.5286,0,0,.5286,0,1v7c0,.4714.5286,1,1,1h10c.4714,0,1-.5286,1-1V2c0-.4714-.5286-1-1-1h-5C6,.5286,5.4714,0,5,0H1Z"/><path id="Tab" class="cls-3" d="m1,0C.5286,0,0,.5286,0,1s.5286,1,1,1h4c.4714,0,1-.5286,1-1S5.4714,0,5,0H1Z"/></g><g id="_01"><path d="m5.5,13.5v-1.0835c-.3887-.1284-.7734-.415-.9287-.9165h-1.0713v-6h1.0835c.1284-.3887.415-.7734.9165-.9287v-1.0713h2v1-1h2v1-1h2v1.0713c.5015.1553.7881.54.9165.9287h1.0835v2h-1,1v2h-1,1v2h-1.0835c-.1284.3887-.415.7734-.9165.9287v1.0713h-6Z"/><path d="m11,4v1c1,0,1,1,1,1h1v1h-1v1h1v1h-1v1h1v1h-1s0,1-1,1v1h-1v-1h-1v1h-1v-1h-1v1h-1v-1s-1,0-1-1h-1v-1h1v-1h-1v-1h1v-1h-1v-1h1s0-1,1-1v-1h1v1h1v-1h1v1h1v-1h1m1-1h-7v1.246c-.3259.1808-.5752.4476-.7433.754h-1.2567v7h1.246c.1808.3259.4476.5752.754.7433v1.2567h7v-1.246c.3259-.1808.5752-.4476.7433-.754h1.2567v-7h-1.2567c-.1681-.3063-.4174-.5732-.7433-.754v-1.246h0Z"/><polygon points="3 5 5 3.041 5 5 3 5"/><polygon points="3 12 5 14 5 12 3 12"/><polygon points="12 14 14 12 11.9323 12 12 14"/><polygon points="14 5 12 3.041 12 5 14 5"/><path class="cls-5" d="m6,5h5c1,0,1,1,1,1v5s0,1-1,1h-5s-1,0-1-1v-5s0-1,1-1Z"/><rect class="cls-2" x="7" y="7" width="3" height="3"/><rect class="cls-4" x="6" y="4" width="1" height="1"/><rect class="cls-4" x="8" y="4" width="1" height="1"/><rect class="cls-4" x="10" y="4" width="1" height="1"/><rect class="cls-4" x="6" y="12" width="1" height="1"/><rect class="cls-4" x="8" y="12" width="1" height="1"/><rect class="cls-4" x="10" y="12" width="1" height="1"/><rect class="cls-4" x="4" y="6" width="1" height="1"/><rect class="cls-4" x="4" y="8" width="1" height="1"/><rect class="cls-4" x="4" y="10" width="1" height="1"/><rect class="cls-4" x="12" y="6" width="1" height="1"/><rect class="cls-4" x="12" y="8" width="1" height="1"/><rect class="cls-4" x="12" y="10" width="1" height="1"/></g></g></svg>