<?xml version="1.0" encoding="UTF-8"?><svg id="Done" xmlns="http://www.w3.org/2000/svg" xmlns:xlink="http://www.w3.org/1999/xlink" viewBox="0 0 14 14"><defs><style>.cls-1{fill:#ffedaf;}.cls-2{fill:url(#linear-gradient);isolation:isolate;opacity:.723;}</style><linearGradient id="linear-gradient" x1="866.8608" y1="-910.0094" x2="866.8608" y2="-906.0094" gradientTransform="translate(-430.4304 -451.0047) scale(.5 -.5)" gradientUnits="userSpaceOnUse"><stop offset="0" stop-color="#000"/><stop offset="1" stop-color="#000" stop-opacity=".151"/></linearGradient></defs><g id="Layer_7"><path id="path427" class="cls-1" d="m1,2c-.4714,0-1,.5286-1,1v8c0,.4714.5286,1,1,1h11c.4714,0,1-.5286,1-1V4c0-.4714-.5286-1-1-1h-6c0-.4714-.5286-1-1-1H1Z"/><path id="path438" class="cls-2" d="m1,2c-.4714,0-1,.5286-1,1s.5286,1,1,1h4c.4714,0,1-.5286,1-1s-.5286-1-1-1H1Z"/></g></svg>