<svg xmlns="http://www.w3.org/2000/svg" viewBox="0 0 14 14"><defs><linearGradient id="a" x1="1074.861" x2="1074.861" y1="-893.008" y2="-889.008" gradientTransform="matrix(.5 0 0 -.5 -534.43 -444.505)" gradientUnits="userSpaceOnUse"><stop offset="0"/><stop offset="1" stop-opacity=".151"/></linearGradient></defs><path fill="#0ff" d="M1 0C.529 0 0 .527 0 1v7c0 .47.529 1 1 1h8c.471 0 3-2.53 3-3V2c0-.472-.529-1-1-1H6c0-.472-.529-1-1-1z"/><path fill="url(#a)" d="M1 0C.529 0 0 .527 0 1s.529 1 1 1h4c.471 0 1-.53 1-1s-.529-1-1-1z" opacity=".723" style="isolation:isolate"/><path fill-rule="evenodd" d="M5.802 6.202.616 11.484a.75.75 0 0 0-.01 1.041l1.172 1.24a.75.75 0 0 0 .545.235H3.69a.75.75 0 0 0 .53-.22l4.56-4.56A.75.75 0 0 1 9.31 9h1.226a.75.75 0 0 0 .671-.415l.586-1.17a.75.75 0 0 1 .67-.415H14V6l-.946-1.891a.8.8 0 0 0-.14-.195L13 2l-1.914.086a.8.8 0 0 0-.195-.14L9 1H8v1.548a.75.75 0 0 1-.4.663l-1.115.59a.75.75 0 0 0-.399.623l-.07 1.293a.75.75 0 0 1-.214.485"/><path fill="#e3b486" fill-rule="evenodd" d="m3 13 5-5-1-1-5 5z"/><path fill="#ff0" fill-rule="evenodd" d="M13 6h-2l-1 2-1-2-2-1 2-1V2l1 1h2v2z"/></svg>