<svg xmlns="http://www.w3.org/2000/svg" viewBox="0 0 14 14"><defs><linearGradient id="a" x1="892.86" x2="892.86" y1="-1049.009" y2="-1045.009" gradientTransform="matrix(.5 0 0 -.5 -443.43 -522.505)" gradientUnits="userSpaceOnUse"><stop offset="0"/><stop offset="1" stop-opacity=".151"/></linearGradient></defs><path fill="#ff6700" d="M1 0C.528 0 0 .529 0 1v7c0 .471.528 1 1 1h10c.47 0 1-.529 1-1V2c0-.471-.53-1-1-1H6c0-.471-.53-1-1-1z"/><path fill="url(#a)" d="M1 0C.528 0 0 .529 0 1s.528 1 1 1h4c.47 0 1-.529 1-1s-.53-1-1-1z" opacity=".723" style="isolation:isolate"/><path fill-rule="evenodd" d="M7.002 13.999A2.005 2.005 0 0 1 5 11.997v-.266A2.002 2.002 0 0 1 2 10V9a2.002 2.002 0 0 1 3-1.731V7c0-1.102.897-2 2-2h.269A2.002 2.002 0 0 1 9 2h1a2.002 2.002 0 0 1 1.731 3h.27A2 2 0 0 1 14 6.998v5.004A2 2 0 0 1 12 14z"/><path fill="#40a0ff" fill-rule="evenodd" d="M6 9V7a1 1 0 0 1 1-1h2V5a1 1 0 1 1 0-2h1a1 1 0 1 1 0 2v1h2.002c.551 0 .998.447.998.998V8h-1.015a.985.985 0 0 0-.985.985v1.03c0 .544.44.985.985.985H13v1.002a1 1 0 0 1-.998.998H11v-1.004a.996.996 0 0 0-.996-.996H8.996a.996.996 0 0 0-.996.996V13h-.998A1 1 0 0 1 6 11.996V10H5a1 1 0 1 1-2 0V9a1 1 0 1 1 2 0z"/></svg>