<?xml version="1.0" encoding="UTF-8"?><svg id="Done" xmlns="http://www.w3.org/2000/svg" xmlns:xlink="http://www.w3.org/1999/xlink" viewBox="0 0 14 14"><defs><style>.cls-1{fill:#fff;}.cls-2{opacity:.3;}.cls-2,.cls-3{isolation:isolate;}.cls-4{clip-path:url(#clippath);}.cls-5{fill:none;}.cls-6{fill:#ff13c0;}.cls-7{fill:url(#linear-gradient);}.cls-3{fill:url(#radial-gradient);opacity:.711;}</style><clipPath id="clippath"><path class="cls-5" d="m0,0l4.0781,1.5879c.5619.2189.9318.7603.9316,1.3633l-.0098,11.0488h9S14,0,14,0H0Z"/></clipPath><radialGradient id="radial-gradient" cx="124.7665" cy="-104.7761" fx="124.7665" fy="-104.7761" r="1.5875" gradientTransform="translate(-292.606 -480.7402) rotate(33.6901) scale(4.1287 -2.2712)" gradientUnits="userSpaceOnUse"><stop offset="0" stop-color="#000"/><stop offset="1" stop-color="#000" stop-opacity="0"/></radialGradient><linearGradient id="linear-gradient" x1="83.0152" y1="-136.2097" x2="83.5444" y2="-136.2097" gradientTransform="translate(-308.7584 -506.3085) scale(3.7795 -3.7795)" gradientUnits="userSpaceOnUse"><stop offset="0" stop-color="#000"/><stop offset="1" stop-color="#000" stop-opacity="0"/></linearGradient></defs><g id="Layer_34"><path id="path549" class="cls-6" d="m0,0v12l4.1131,1.9355c.3105.1468.681.0135.8275-.2976.0393-.0834.0596-.1746.0594-.2668v-2.3711h6V1c-.004-.745-.4086-.9893-1-1H0Z"/><g class="cls-4"><g id="g559"><path id="path550" class="cls-2" d="m-.0179,0l4.0848,1.5879c.5625.2187.9331.7603.9331,1.3638v8.0482h6V1c-.004-.745-.4093-.9893-1.0016-1H-.0179Z"/><path id="path551" class="cls-3" d="m10,11c.7057-.0798,1.0812-.3798,1-.9844v-5.0156c.6647-.0018.998-.3352,1-1V1C12.0053.3601,11.6907.0097,11,0H0v11h10Z"/><g id="g422"><path id="path420" d="m6,4s4.1306-.6447,6,1c.5476.4817,1,.9844,1,.9844.4963.4924.8768,1.0701,1,2.0156v2c-.2036.7964-.3117,2.1326-1,3l-1,1h-3s-1,0-1,0l-1-1v-1h-3s-2-2-2-2v-2l1-2,1-1c.5362-.4265,1.1728-.7813,2-1Z"/><path id="path421" class="cls-1" d="m7,5c-2.716.4063-4.0312,2.2338-4.0312,3.7893.0337,1.1158.4733,1.6108,1.4579,2.0723.6345.2087,2.5734.1385,2.5734.1385h2v1l-1,1h2s3,0,2.9325-4.2107c-.3406-3.3828-3.0298-4.2234-5.9325-3.7893Z"/><path id="path422" d="m7,8v1l-1,1h-1l-1-1v-1l1-1h1l1,1Z"/></g><path id="path559" class="cls-7" d="m5,5h1l1-1v9-1h-2v-7Z"/></g></g><path class="cls-6" d="m5,2.9511c.0005-.6031-.3694-1.1446-.9315-1.3632L0,.0056v11.994l4.1131,1.9355c.3105.1468.681.0135.8275-.2976.033-.0701.0446-.1472.0499-.2242l.0095-10.4621Z"/></g></svg>