<?xml version="1.0" encoding="UTF-8"?><svg id="Done" xmlns="http://www.w3.org/2000/svg" width="16" height="16" xmlns:xlink="http://www.w3.org/1999/xlink" viewBox="0 0 16 16"><defs><style>.cls-1{fill:#86ffb5;}.cls-2{fill:url(#linear-gradient);isolation:isolate;opacity:.723;}.cls-3{fill:#006eff;}.cls-4{fill:#ff13c0;}.cls-5{fill:#ff0;}</style><linearGradient id="linear-gradient" x1="633.8608" y1="-840.0094" x2="633.8608" y2="-836.0094" gradientTransform="translate(-312.9304 -417.0047) scale(.5 -.5)" gradientUnits="userSpaceOnUse"><stop offset="0" stop-color="#000"/><stop offset="1" stop-color="#000" stop-opacity=".151"/></linearGradient></defs><g id="Layer_13"><g id="g413"><path id="path412" class="cls-4" d="m2,1c-.4714,0-1,.5286-1,1v7c0,.4714.5286,1,1,1h10c.4714,0,1-.5286,1-1V3c0-.4714-.5286-1-1-1h-5c0-.4714-.5286-1-1-1H2Z"/><path id="path413" class="cls-2" d="m2,1c-.4714,0-1,.5286-1,1s.5286,1,1,1h4c.4714,0,1-.5286,1-1s-.5286-1-1-1H2Z"/></g><g id="g371"><path id="path369" d="m4.0433,5h10.9567l-.0433,10H4l.0433-10Z"/><path id="path370" class="cls-3" d="m5,14l-.0131-8h9.0131l.0131,8H5Z"/><path id="path371" class="cls-1" d="m5,14v-1h1c0-1,.9946-1,.9946-1,0,0,1.0054,0,1.0054,1h2s1-1,1-1v-1l1,.0019.0138-1.0019h.9862l1,1v2l.0131,1H5Z"/><rect id="rect371" class="cls-5" x="7" y="7" width="2" height="2"/></g></g></svg>