<?xml version="1.0" encoding="UTF-8"?><svg id="Done" xmlns="http://www.w3.org/2000/svg" xmlns:xlink="http://www.w3.org/1999/xlink" viewBox="0 0 14 14"><defs><style>.cls-1{fill:#ff6700;}.cls-2{fill:#40a0ff;}.cls-3{fill:url(#linear-gradient);isolation:isolate;opacity:.723;}</style><linearGradient id="linear-gradient" x1="502.8608" y1="-893.0094" x2="502.8608" y2="-889.0094" gradientTransform="translate(-248.4304 -444.5047) scale(.5 -.5)" gradientUnits="userSpaceOnUse"><stop offset="0" stop-color="#000"/><stop offset="1" stop-color="#000" stop-opacity=".151"/></linearGradient></defs><g id="Layer_39_copy_8"><g id="Folder"><path id="Folder_Back" class="cls-2" d="m1,0C.5286,0,0,.5286,0,1v7c0,.4714.5286,1,1,1h10c.4714,0,1-.5286,1-1V2c0-.4714-.5286-1-1-1h-5C6,.5286,5.4714,0,5,0H1Z"/><path id="Tab" class="cls-3" d="m1,0C.5286,0,0,.5286,0,1s.5286,1,1,1h4c.4714,0,1-.5286,1-1S5.4714,0,5,0H1Z"/></g><path d="m4.2246,13.9668c-1.1846,0-3.2168-.4521-3.5176-3.48l-.0967-.978,1.0635-.1245c-.1699-.2007-.3135-.4263-.4316-.6758-.208-.4375-.3145-.9141-.3145-1.4136,0-.583.1387-1.1221.4111-1.6011.2822-.498.6816-.8823,1.1875-1.1392.4678-.2388,1.0293-.3604,1.668-.3604.9883,0,1.793.293,2.3916.8701.5996.5801.9189,1.3784.9502,2.374l.0322.9785-.5674.0303c.1572.1919.29.4048.3975.6367.208.4453.3135.9746.3135,1.5713,0,.9048-.2891,1.6836-.8604,2.3159-.5967.6606-1.4805.9956-2.627.9956Zm-.085-3.2988"/><polygon points="10.4492 13.8389 10.4492 12 10.0029 12 10.0029 13.8389 6.7627 13.8389 6.7627 4.3228 10.0029 4.3228 10.0029 6 10.4492 6 10.4492 4.3228 13.6895 4.3228 13.6895 13.8389 10.4492 13.8389"/><g id="Text"><path class="cls-1" d="m1.7021,10.3877l1.2158-.1426c.1367.96.584,1.4404,1.3428,1.4404.376,0,.6719-.0986.8867-.2949.2158-.1963.3232-.4395.3232-.7305,0-.1709-.0371-.3154-.1123-.4355-.0752-.1191-.1904-.2178-.3438-.2944-.1543-.0771-.5264-.2056-1.1182-.3867-.5293-.1602-.917-.3345-1.1631-.522-.2461-.188-.4424-.4346-.5869-.7402-.1455-.3057-.2188-.6348-.2188-.9863,0-.4097.0938-.7788.2803-1.1064.1855-.3276.4434-.5757.7715-.7427.3281-.1675.7324-.2515,1.2148-.2515.7246,0,1.29.1968,1.6973.5898.4062.3931.6221.9556.6455,1.6865l-1.2461.0669c-.0547-.4033-.1719-.6851-.3535-.8462-.1807-.1602-.4395-.2407-.7744-.2407s-.5928.0698-.7734.2095c-.1816.1396-.2725.3135-.2725.5215,0,.2046.083.3765.2471.5161s.542.2935,1.1338.4609c.625.1812,1.0771.3721,1.3555.5718.2783.2002.4912.458.6377.7739.1475.3164.2207.6997.2207,1.1509,0,.6523-.2012,1.2012-.6025,1.6455s-1.0303.666-1.8848.666c-1.5107,0-2.3516-.8594-2.5225-2.5791Z"/><path class="cls-1" d="m7.7627,12.8389v-7.5161h1.2402v2.9585h2.4463v-2.9585h1.2402v7.5161h-1.2402v-3.2861h-2.4463v3.2861h-1.2402Z"/></g></g></svg>