<?xml version="1.0" encoding="UTF-8"?><svg id="Done" xmlns="http://www.w3.org/2000/svg" width="16" height="16" xmlns:xlink="http://www.w3.org/1999/xlink" viewBox="0 0 16 16"><defs><style>.cls-1{stroke:#000;stroke-width:2px;}.cls-2{fill:aqua;}.cls-3{fill:#ff2011;stroke:#003768;stroke-width:.0352px;}.cls-4{fill:url(#linear-gradient);isolation:isolate;opacity:.723;}</style><linearGradient id="linear-gradient" x1="763.8608" y1="-840.0094" x2="763.8608" y2="-836.0094" gradientTransform="translate(-377.9304 -417.0047) scale(.5 -.5)" gradientUnits="userSpaceOnUse"><stop offset="0" stop-color="#000"/><stop offset="1" stop-color="#000" stop-opacity=".151"/></linearGradient></defs><g id="Layer_11"><g id="g454"><path id="path453" class="cls-2" d="m2,1c-.4714,0-1,.5286-1,1v7c0,.4714.5286,1,1,1h10c.4714,0,1-.5286,1-1V3c0-.4714-.5286-1-1-1h-5c0-.4714-.5286-1-1-1H2Z"/><path id="path454" class="cls-4" d="m2,1c-.4714,0-1,.5286-1,1s.5286,1,1,1h4c.4714,0,1-.5286,1-1s-.5286-1-1-1H2Z"/></g><g id="g305"><path id="path304" class="cls-1" d="m9,5l-4,4v1l4,4h1l4-4v-1l-4-4h-1Z"/><path id="path305" class="cls-3" d="m13.0696,8l-3-3h-1.0696v2h1v1h1v1h1v1h-1v-1h-1v3h-1v-4h-1v-2l-3,3v1l4,4h1l3-3,1-1v-1"/></g></g></svg>