<svg xmlns="http://www.w3.org/2000/svg" id="Layer_23_copy_4" viewBox="0 0 14 14"><defs><radialGradient id="radial-gradient" cx="152.711" cy="-176.424" r="1.587" fx="152.711" fy="-176.424" gradientTransform="matrix(3.43528 2.2902 1.25984 -1.88975 -298.338 -680.142)" gradientUnits="userSpaceOnUse"><stop offset="0"/><stop offset="1" stop-opacity="0"/></radialGradient><linearGradient id="linear-gradient" x1="110.532" x2="111.061" y1="-227.836" y2="-227.836" gradientTransform="matrix(3.7795 0 0 -3.7795 -412.758 -853.112)" gradientUnits="userSpaceOnUse"><stop offset="0"/><stop offset="1" stop-opacity="0"/></linearGradient><style>.cls-4{fill:#ff2020}</style></defs><path id="folder" d="M0-.006v12l4.113 1.936A.62.62 0 0 0 5 13.366v-2.372h6v-10c-.004-.745-.409-.989-1-1z" class="cls-4"/><path id="folder_shadow" d="m-.018-.006 4.085 1.588c.562.219.933.76.933 1.364v8.048h6v-10c-.004-.745-.41-.989-1.002-1z" opacity=".3" style="isolation:isolate"/><path id="flap_shadow" fill="url(#radial-gradient)" d="M10 10.994c.706-.08 1.081-.38 1-.984V4.994q.997-.002 1-1v-3c.005-.64-.31-.99-1-1H0v11z" opacity=".711" style="isolation:isolate"/><g id="Layer_69_copy"><path d="M8.509 14.017C5.98 14.017 4 12.69 4 11V5c0-1.626 2.065-3 4.509-3C10.985 2 13 3.346 13 5v6c0 1.691-1.973 3.017-4.491 3.017"/><path fill="#fff" d="M5 7.008V8c0 1.06 1.496 2 3.428 2S12 9.06 12 8V7c-.686.686-2.076 1.13-3.572 1.13S5.685 7.693 5 7.008M5 10v1c0 1.06 1.576 2.016 3.509 2.016S12 12.06 12 11v-1c-.686.686-1.995 1.272-3.491 1.272S5.686 10.686 5 10m3.509-7C10.402 3 12 3.967 12 5s-1.598 1.933-3.491 1.933S5 6.033 5 5s1.615-2 3.509-2"/></g><path id="icon_shadow" fill="url(#linear-gradient)" d="m5 4 2-1v10l-2-1z"/><path id="flap" d="M5 2.946c0-.603-.37-1.145-.931-1.364L0 0v11.994l4.113 1.936c.31.146.681.013.828-.298a.6.6 0 0 0 .05-.224z" class="cls-4"/></svg>