<?xml version="1.0" encoding="UTF-8"?><svg id="Done" xmlns="http://www.w3.org/2000/svg" width="16" height="16" xmlns:xlink="http://www.w3.org/1999/xlink" viewBox="0 0 16 16"><defs><style>.cls-1{fill:url(#linear-gradient);isolation:isolate;opacity:.723;}.cls-2{fill:#ff13c0;}.cls-3{fill:#ff0;}</style><linearGradient id="linear-gradient" x1="529.8608" y1="-892.0094" x2="529.8608" y2="-888.0094" gradientTransform="translate(-260.9304 -443.0047) scale(.5 -.5)" gradientUnits="userSpaceOnUse"><stop offset="0" stop-color="#000"/><stop offset="1" stop-color="#000" stop-opacity=".151"/></linearGradient></defs><g id="Layer_39_copy_9"><path id="Folder_Back" class="cls-2" d="m2,1c-.4714,0-1,.5286-1,1v7c0,.4714.5286,1,1,1h10c.4714,0,1-.5286,1-1V3c0-.4714-.5286-1-1-1h-5c0-.4714-.5286-1-1-1H2Z"/><path id="Tab" class="cls-1" d="m2,1c-.4714,0-1,.5286-1,1s.5286,1,1,1h4c.4714,0,1-.5286,1-1s-.5286-1-1-1H2Z"/><rect x="6" y="7" width="6" height="6"/><polygon points="11.0044 15 8.9934 15 9 5 11 5 11.0044 15"/><path d="m10,15v-3h1l2-.999h-1l-.6602-.7515c.1611-.1416.2256-.2363.25-.2793-.0234-.0112-.0811-.0835-.2109-.1865l-.3789-.3003v-1.4834h-1v-3h1c2.5518,0,3,.4487,3,3,0,.0762,0,.0859.207.293.2969.2964.793.793.793,1.707s-.4961,1.4106-.793,1.707c-.207.207-.207.2168-.207.293,0,2.5513-.4482,3-3,3h-1Z"/><path d="m8,15c-2.5518,0-3-.4487-3-3,0-.0762,0-.0859-.207-.293-.2969-.2964-.793-.793-.793-1.707s.4961-1.4106.793-1.707c.207-.207.207-.2168.207-.293,0-2.5513.4482-3,3-3h1v3h-1v1.4834l-.3789.3003c-.1328.105-.1904.1782-.2129.2134.0234.0127.0869.1079.252.2524l-.6602.7515h-1l2,.999h1v3h-1Z"/><path class="cls-3" d="m11,13q1,0,1-1t0-.9991c.798-.7004.7985-1.3674,0-2.0009v-1q0-1-1-1v-1q2,0,2,2c0,1,1,1,1,2s-1,1-1,2q0,2-2,2v-1Z"/><path class="cls-3" d="m8,14q-2,0-2-2c0-1-1-1-1-2s1-1,1-2q0-2,2-2v1q-1,0-1,1v1c-.7985.6335-.798,1.3005,0,2.0009t0,.9991q0,1,1,1v1Z"/></g></svg>