<?xml version="1.0" encoding="UTF-8"?><svg id="Done" xmlns="http://www.w3.org/2000/svg" xmlns:xlink="http://www.w3.org/1999/xlink" viewBox="0 0 14 14"><defs><style>.cls-1{fill:silver;}.cls-2{opacity:.3;}.cls-2,.cls-3{isolation:isolate;}.cls-4{fill:#ff13c0;}.cls-5{fill:url(#linear-gradient);}.cls-3{fill:url(#radial-gradient);opacity:.711;}</style><radialGradient id="radial-gradient" cx="240.595" cy="-232.9762" fx="240.595" fy="-232.9762" r="1.5875" gradientTransform="translate(-528.9974 -988.2765) rotate(33.6901) scale(4.1287 -2.2712)" gradientUnits="userSpaceOnUse"><stop offset="0" stop-color="#000"/><stop offset="1" stop-color="#000" stop-opacity="0"/></radialGradient><linearGradient id="linear-gradient" x1="176.8382" y1="-202.1004" x2="177.6319" y2="-202.1004" gradientTransform="translate(-664.3646 -754.8439) scale(3.7795 -3.7795)" gradientUnits="userSpaceOnUse"><stop offset=".3243" stop-color="#000"/><stop offset="1" stop-color="#000" stop-opacity="0"/></linearGradient></defs><g id="Layer_40_copy_4"><path id="path332" class="cls-4" d="m0,0v12l4.1131,1.9355c.3105.1468.681.0135.8275-.2976.0393-.0834.0596-.1746.0594-.2668v-2.3711l4.2337-.5707,1.4511-1.5489.3152-2.0054V1c-.004-.745-.4086-.9893-1-1H0Z"/><path id="back_shadow" class="cls-2" d="m-.0179,0l4.0848,1.5879c.5625.2187.9331.7603.9331,1.3638v8.0482h4.5435l.5054-1.0598.9511-1.3859V1c-.004-.745-.4093-.9893-1.0016-1H-.0179Z"/><path id="flap_shadow" class="cls-3" d="m10,11c.7057-.0798,1.0812-.3798,1-.9844v-5.0156c.6647-.0018.998-.3352,1-1V1c.0053-.6399-.3093-.9903-1-1H0v11h10Z"/><g id="Layer_57_copy"><path d="m11.7974,4.4004l.707-.707-.707.707Z"/><path d="m12.1509,4.0467s.0004.0004.0006.0006l-.0006-.0006m.0006.0006l.0033.0033s-.0008-.0005-.0011-.0009c-.0008-.0007-.0014-.0016-.0022-.0024m-.0006-1.0006c-.5523,0-1,.4477-1,1,0,.2454.0884.4702.2352.6443l.0416.051.061.0546.0003-.0003c.1763.1558.4081.2504.6619.2504.5523,0,1-.4477,1-1,0-.2742-.1103-.5225-.289-.7032h0c-.1813-.1833-.4329-.2968-.711-.2968h0Z"/><path d="m10.8301,9.8062c-.1689,0-.334-.0317-.4902-.0942-.1655-.0654-.3213-.1675-.4482-.2949-.1289-.1289-.2285-.2803-.2954-.4502-.0669-.167-.0986-.3457-.0933-.5293.0049-.1802.0464-.3564.124-.5225.0776-.1655.1855-.3101.3213-.4312l.7471-.748c.146-.1396.23-.3174.2451-.5073.0073-.1074-.0127-.2236-.0581-.3296-.0449-.105-.1152-.1997-.2031-.2729-.125-.0996-.2944-.1582-.4673-.1582-.2393.0137-.417.0957-.5498.2324l-.7695.7695c-.124.124-.269.2212-.4312.2881-.1597.0664-.3311.1006-.5078.1006-.1763,0-.3477-.0342-.5093-.1016-.1587-.0654-.3032-.1621-.4282-.2861-.251-.2544-.3877-.5869-.3877-.9399,0-.3525.1367-.6851.3843-.9365l.7515-.751c.6128-.6289,1.4404-.9956,2.3247-1.0278l.1245-.0024c.8374,0,1.6445.3062,2.272.8628.3462.3159.6147.6846.8052,1.1016.1914.4185.2939.8652.3052,1.3271.0107.4604-.0703.9116-.2417,1.3398-.1719.4287-.4243.8115-.75,1.1372l-.7998.7998c-.0996.1138-.2441.2222-.4097.2998-.1675.0776-.3428.1187-.5239.1245l-.0405.0005Z"/><path d="m10.2131,3.3132c.7139,0,1.4046.2614,1.9406.7366.2878.2627.52.5804.6818.9349.1624.3557.2509.7406.2602,1.1316.0093.3909-.0608.7797-.2061,1.1427-.1453.363-.3628.6928-.6392.9694l-.7996.7996c-.0751.0844-.1666.1527-.2689.2005s-.2134.0741-.3263.0775c-.008.0002-.016.0004-.0241.0004-.1047,0-.2087-.0198-.3062-.0586-.105-.0416-.2003-.1044-.2802-.1842-.0799-.0798-.1426-.1752-.1842-.2802-.0417-.105-.0615-.2174-.0582-.3303.0033-.1129.0297-.2239.0774-.3263.0478-.1024.116-.1939.2005-.2689l.7684-.7684c.2261-.2167.3649-.5089.39-.8211.0126-.1934-.0206-.3871-.0969-.5653-.0762-.1782-.1934-.3359-.342-.4605-.2247-.1784-.5026-.2747-.7879-.2747-.0271,0-.0543.0009-.0814.0026-.3135.0202-.6084.1561-.8274.3813l-.7645.7645c-.0768.0769-.168.1379-.2684.1796-.1004.0416-.208.063-.3167.063s-.2163-.0214-.3167-.063c-.1004-.0417-.1916-.1027-.2684-.1796-.1539-.1558-.2402-.3661-.2402-.5851s.0863-.4292.2402-.5851l.749-.7489c.525-.5388,1.2375-.8546,1.9893-.8818.0354-.0013.0708-.0019.1061-.0019m0-1c-.0475,0-.0949.0009-.1425.0026-1.0133.0367-1.9613.4569-2.6691,1.1832l-.7399.7397c-.3454.3499-.533.8072-.533,1.2922s.1877.9425.5286,1.2877c.1747.1748.374.3081.5966.4005.2237.0926.459.1394.7.1394.2412,0,.4765-.0468.6994-.1392.2235-.0927.4228-.2262.5932-.3968l.7641-.7641c.0561-.0575.1182-.0862.1846-.0904.001,0,.002,0,.003,0,.0757,0,.1338.0205.1803.0574.0074.0066.0299.0369.0443.0706.0144.0336.0207.0707.0184.1072-.0044.0528-.0346.1165-.084.1638l-.7669.7666c-.1753.1618-.3152.3533-.4163.5699-.106.2272-.1635.4693-.1709.7198-.0074.2507.0358.4959.1283.7289.0924.2328.2292.4409.4065.6182.1773.1773.3855.3142.6185.4066.2155.0856.4427.129.675.129h.0143l.0384-.0008c.2519-.0076.4939-.0651.7207-.171.2166-.1011.4081-.2411.5698-.4162l.7828-.7828c.3743-.3745.6637-.8134.8604-1.3048.1967-.4913.29-1.0088.2774-1.5381-.0126-.5292-.1304-1.0417-.3503-1.5232-.2185-.4786-.5271-.9019-.9172-1.2581-.7297-.6471-1.6545-.998-2.6148-.998h0Z"/><path d="m6.2378,13.561c-.5464-.0103-.9946-.1143-1.4155-.3081-.4204-.1938-.79-.4668-1.0986-.812-.5879-.665-.8921-1.5171-.8579-2.4009.0337-.8838.4019-1.71,1.0356-2.3262l.811-.8091c.1006-.1143.2456-.2222.4106-.2993.1636-.0767.3398-.1187.5225-.1245h.0059c.2046,0,.3677.0317.5229.0933.1724.0688.3237.1685.4512.2969.1265.126.2266.2769.2944.4468.0669.1694.0981.3472.0938.5293-.0059.1846-.0479.3604-.125.5254-.0762.1631-.1836.3076-.3193.4292l-.8135.812c-.1392.1343-.2217.3066-.2378.4912-.0161.1836.0352.3672.144.5166.0552.0703.1367.1392.2285.1875.0933.0498.1938.0781.2983.085h.0176c.126,0,.2095-.0156.2896-.0459.0981-.0371.186-.0933.2598-.167l.8677-.8677c.1226-.1235.2676-.2207.4292-.2886.1621-.0669.3325-.1011.5073-.1021l.4121-.002.0166.0825c.1104.0376.2158.0898.314.1558.2183.147.3867.353.4868.5962.1006.2427.1265.5078.0757.7656-.0513.2583-.1758.4932-.3608.6797l-.8691.8696c-.3154.3169-.6855.5645-1.0991.7354-.4106.1694-.8433.2554-1.2856.2554h-.0127Z"/><path d="m5.685,6.9806c.1046,0,.2085.0199.3059.0585.105.0417.2004.1044.2802.1843.0799.0799.1426.1752.1842.2802.0417.1049.0615.2174.0582.3303-.0033.1129-.0297.2239-.0775.3263-.0478.1023-.116.1938-.2004.2689l-.8328.8308c-.2202.2119-.3561.4965-.3826.8009-.0265.3044.0581.6081.2383.8549.1074.1388.243.2531.3979.3353.1549.0823.3256.1307.5007.1419.0264.0017.0528.0025.0792.0025.1485,0,.2961-.0267.4355-.0792.1642-.0618.3133-.1577.4376-.2816l.8679-.8679c.0766-.0772.1678-.1385.2682-.1804.1004-.0418.2081-.0634.3169-.0635l.0019.0098c.1636.001.3233.0502.4591.1416.1357.0913.2415.2207.304.372.0625.1512.0789.3176.0473.4781-.0317.1605-.1101.3082-.2253.4243l-.8679.8679c-.2676.2689-.5858.4819-.9364.6269-.3474.1437-.7197.2177-1.0955.2177-.0033,0-.0067,0-.01,0h-.0741c-.3918-.009-.7776-.0983-1.1335-.2623-.3559-.164-.6744-.3994-.9358-.6914-.4978-.5636-.7595-1.2971-.7309-2.0484.0287-.7514.3456-1.4628.885-1.9868l.8152-.8133c.075-.0844.1665-.1526.2689-.2004.1024-.0478.2134-.0742.3263-.0775.0081-.0002.0162-.0004.0243-.0004m0-1h-.0148l-.0391.0008c-.2503.0074-.4925.0649-.7197.1709-.2166.1011-.408.2409-.5695.4159l-.7979.796c-.7176.697-1.1393,1.6438-1.178,2.6566-.0386,1.0129.3097,1.989.9806,2.7486.3591.4013.7839.7151,1.2668.9376.4828.2226.9973.3416,1.5291.3539l.0971.0003c.5195,0,1.0167-.0987,1.4877-.2935.4752-.1965.9002-.481,1.263-.8455l.8662-.8663c.2576-.2598.4292-.583.4992-.9378.07-.3549.034-.7193-.1041-1.0536-.1382-.3344-.3698-.6178-.6699-.8197-.0499-.0336-.1012-.0646-.1538-.093l-.0439-.2195-.8223-.0092c-.2417.0002-.4775.0474-.7007.1403-.2236.0932-.4232.2274-.5936.3991l-.8652.8652c-.0228.0227-.051.0408-.0826.0527-.0267.01-.0547.0151-.0833.0151-.0489-.0026-.081-.0118-.1108-.0276-.0299-.0159-.0554-.0374-.0761-.0641-.0209-.0293-.0386-.0926-.033-.1562.0055-.0636.0339-.123.0799-.1673l.8291-.8269c.1754-.1618.3155-.3535.4167-.5701.1063-.2276.1637-.47.171-.7206.0074-.2502-.0359-.4955-.1284-.7285-.0922-.2324-.229-.4406-.4064-.618-.1771-.1772-.3851-.3139-.618-.4065-.2163-.0858-.4433-.1292-.6752-.1292h0Z"/><path d="m7.8145,10.7363c-.167-.1494-.272-.2314-.335-.2764-.1147.0381-.2275.0566-.3423.0605h-.0049c-.188,0-.3379-.0293-.4814-.0859-.1577-.0615-.2979-.1533-.417-.2734-.1157-.1152-.2075-.2549-.2705-.4121-.0625-.1592-.0913-.3223-.0864-.4883.0054-.167.0449-.335.1157-.4844.0703-.1504.1704-.2842.2954-.3955l2.0825-2.0801c.2305-.2305.5376-.3574.8647-.3574.3267,0,.6338.127.8647.3564.2319.2373.3574.5439.3574.8672l-.0039.1074c-.0063.1162-.0142.2607.2437.7627l.1665.3252-2.6973,2.6904-.3521-.3164Z"/><path d="m9.2354,6.4429c.1917,0,.3757.076.5115.2113v.0017c.1349.136.2107.3199.2107.5115s-.0757.3754.2948,1.0984l-2.1039,2.0988c-.4009-.3603-.5598-.4382-.6498-.4382-.0382,0-.064.014-.0907.0265-.0894.0418-.1865.0648-.2852.0678-.007.0002-.0141.0003-.0211.0003-.0916,0-.1824-.0173-.2676-.0512-.0918-.0364-.1751-.0913-.2449-.1611-.0698-.0698-.1246-.1531-.1611-.2449-.0364-.0918-.0537-.19-.0508-.2887.0029-.0987.026-.1957.0677-.2852.0418-.0895.1014-.1695.1752-.2351l2.1039-2.1005c.1358-.1353.3197-.2113.5115-.2113m0-1c-.4594,0-.8917.1786-1.2173.5029l-2.0885,2.0851c-.1645.1522-.296.3324-.391.536-.0999.2141-.1541.4424-.1611.6785-.007.2363.0337.4676.121.6873.0873.2199.2164.4161.3837.5833.167.167.3631.2959.5828.3832.2035.0808.4177.1218.6367.1218h.0148l.0359-.0007c.0695-.0021.1383-.0082.2062-.0184.0349.0297.0752.065.1215.1066l.7043.6329.6704-.6687,2.1039-2.0988.5163-.515-.3326-.649c-.1773-.346-.1911-.464-.1912-.4651.0046-.0886.0065-.1328.0065-.1772,0-.2939-.0731-.5769-.2107-.8279v-.0989l-.2943-.2948c-.3255-.3243-.7578-.5029-1.2172-.5029h0Z"/><path class="cls-1" d="m12.1548,4.0506c-.5627-.4994-1.2961-.7628-2.0479-.7356-.7518.0272-1.4642.3431-1.9893.8819l-.7489.7489c-.1539.1559-.2402.3661-.2402.5851s.0863.4292.2402.5851c.0768.0769.168.1379.2684.1795.1004.0416.208.0631.3167.0631s.2163-.0214.3167-.0631c.1004-.0416.1916-.1026.2684-.1795l.7645-.7645c.219-.2252.5139-.3611.8274-.3813.3135-.0202.6233.0768.8694.272.1486.1245.2657.2823.3419.4605.0762.1782.1094.3719.0969.5653-.0251.3122-.1639.6044-.3901.8211l-.7684.7684c-.0844.075-.1527.1665-.2004.2689-.0478.1024-.0742.2134-.0775.3263-.0033.1129.0165.2253.0582.3303.0417.105.1044.2004.1843.2802.0799.0799.1752.1426.2802.1843.105.0417.2174.0615.3303.0582.1129-.0033.224-.0297.3263-.0775.1023-.0478.1938-.116.2689-.2004l.7996-.7996c.2764-.2766.4939-.6063.6392-.9694.1453-.363.2154-.7518.2061-1.1427-.0093-.3909-.0978-.7759-.2602-1.1316-.1624-.3557-.3953-.6748-.6845-.9379l.0039.0039Z"/><path class="cls-1" d="m8.5624,9.9231c-.1088,0-.2165.0216-.3169.0635-.1004.0418-.1916.1031-.2682.1803l-.8679.8679c-.1242.1238-.2734.2198-.4376.2816-.1642.0618-.3396.0879-.5147.0766-.1751-.0112-.3457-.0596-.5006-.1419-.1549-.0823-.2906-.1966-.3979-.3353-.1802-.2468-.2649-.5505-.2383-.855.0265-.3044.1625-.589.3827-.8009l.8328-.8308c.0844-.075.1526-.1665.2004-.2689.0478-.1024.0742-.2134.0775-.3263.0033-.1129-.0165-.2253-.0582-.3303-.0417-.105-.1044-.2003-.1842-.2802-.0799-.0799-.1752-.1426-.2802-.1843-.105-.0417-.2174-.0615-.3303-.0581-.1129.0033-.224.0297-.3263.0775-.1024.0478-.1939.116-.2689.2004l-.8152.8133c-.5393.5239-.8562,1.2354-.8849,1.9868-.0287.7514.233,1.4849.7308,2.0485.2613.292.5798.5274.9358.6914.3559.164.7417.2533,1.1335.2623h.0741c.3793.0013.7551-.0727,1.1056-.2176.3505-.145.6688-.358.9364-.6269l.8679-.8679c.1152-.1162.1936-.2638.2253-.4243.0317-.1606.0152-.3269-.0473-.4781-.0625-.1512-.1682-.2806-.304-.372-.1358-.0914-.2955-.1406-.4591-.1415l-.002-.0098Z"/><path class="cls-1" d="m9.7469,6.6542c-.1358-.1353-.3197-.2113-.5115-.2113s-.3757.076-.5115.2113l-2.1039,2.1005c-.0738.0656-.1334.1456-.1752.2351s-.0648.1865-.0677.2852c-.0029.0987.0144.197.0508.2887.0364.0918.0913.1751.1611.2449s.1532.1246.2449.1611.19.0537.2887.0508c.0987-.0029.1958-.026.2853-.0677.0895-.0418.1695-.1014.2351-.1752l2.1039-2.0988c.1349-.136.2106-.3199.2106-.5115s-.0757-.3754-.2106-.5115v-.0017Z"/></g><path id="icon_shadow" class="cls-5" d="m4,6l2,1,1-3v9l-1,1-2-1v-7Z"/><path class="cls-4" d="m5,2.9511c.0005-.6031-.3694-1.1446-.9315-1.3632L0,.0056v11.994l4.1131,1.9355c.3105.1468.681.0135.8275-.2976.033-.0701.0446-.1472.0499-.2242l.0095-10.4621Z"/></g></svg>