<?xml version="1.0" encoding="UTF-8"?><svg id="Done" xmlns="http://www.w3.org/2000/svg" xmlns:xlink="http://www.w3.org/1999/xlink" viewBox="0 0 14 14"><defs><style>.cls-1{fill:#a040ff;}.cls-2{opacity:.3;}.cls-2,.cls-3{isolation:isolate;}.cls-4{fill:#00ff05;}.cls-4,.cls-5{fill-rule:evenodd;}.cls-6{fill:url(#linear-gradient);}.cls-3{fill:url(#radial-gradient);opacity:.711;}</style><radialGradient id="radial-gradient" cx="126.513" cy="-130.176" fx="126.513" fy="-130.176" r="1.5875" gradientTransform="translate(-266.606 -532.7402) rotate(33.6901) scale(4.1287 -2.2712)" gradientUnits="userSpaceOnUse"><stop offset="0" stop-color="#000"/><stop offset="1" stop-color="#000" stop-opacity="0"/></radialGradient><linearGradient id="linear-gradient" x1="76.1361" y1="-149.9679" x2="76.6652" y2="-149.9679" gradientTransform="translate(-282.7584 -558.3085) scale(3.7795 -3.7795)" gradientUnits="userSpaceOnUse"><stop offset="0" stop-color="#000"/><stop offset="1" stop-color="#000" stop-opacity="0"/></linearGradient></defs><g id="Layer_16"><path id="path506" class="cls-1" d="m0-.0005v12l4.1131,1.9355c.3105.1468.681.0135.8275-.2976.0393-.0834.0596-.5452.0594-.6375v-2.0005h6V.9995c-.004-.745-.4086-.9893-1-1H0Z"/><g id="g512"><path id="path507" class="cls-2" d="m-.0179-.0005l4.0855,1.5882c.5621.2185.9324.7597.9324,1.3628v8.049h6V.9995c-.004-.745-.4093-.9893-1.0016-1H-.0179Z"/><path id="path508" class="cls-3" d="m10,10.9995c.7057-.0798,1.0812-.3798,1-.9844v-5.0156c.6647-.0018.998-.3352,1-1V.9995c.0053-.6399-.3093-.9903-1-1H0v11h10Z"/><g id="g455"><path id="path447" class="cls-5" d="m4,4.9949l5-2,5,2v7l-5,2-5-2v-7Z"/><path id="path448" class="cls-4" d="m13,10.9949l-4,2-4-2v-5l4-2,4,2v5Z"/><rect id="rect449" x="7" y="6" width="1" height="7"/><rect id="rect450" x="9" y="6" width="3" height="1"/><rect id="rect451" x="9" y="7" width="1" height="2"/><rect id="rect452" x="9" y="8" width="3" height="1"/><rect id="rect453" x="11" y="9" width="1" height="2"/><rect id="rect454" x="9" y="10" width="2" height="1"/><rect id="rect455" x="6" y="11" width="1" height="1"/></g><path id="path512" class="cls-6" d="m5,4.9995h1l1-1v9l-1-1h-1v-7Z"/></g><path id="Flap" class="cls-1" d="m5,2.9511c.0005-.6031-.3694-1.1446-.9315-1.3632L0,.0056v11.994l4.1131,1.9355c.3105.1468.681.0135.8275-.2976.033-.0701.0446-.1472.0499-.2242l.0095-10.4621Z"/></g></svg>