<svg xmlns="http://www.w3.org/2000/svg" id="Done" viewBox="0 0 14 14"><defs><radialGradient id="radial-gradient" cx="109.047" cy="-97.826" r="1.587" fx="109.047" fy="-97.826" gradientTransform="matrix(3.43528 2.2902 1.25984 -1.88975 -247.362 -431.606)" gradientUnits="userSpaceOnUse"><stop offset="0"/><stop offset="1" stop-opacity="0"/></radialGradient><linearGradient id="linear-gradient" x1="62.378" x2="62.907" y1="-110.21" y2="-110.21" gradientTransform="matrix(3.7795 0 0 -3.7795 -230.758 -408.04)" gradientUnits="userSpaceOnUse"><stop offset="0"/><stop offset="1" stop-opacity="0"/></linearGradient><style>.cls-9{fill:#40a0ff}.cls-10{fill:#fc0}</style></defs><g id="Layer_20"><path id="folder" d="M0 0v12l4.113 1.935A.62.62 0 0 0 5 13.371v-2.372h6V1c-.004-.745-.409-.989-1-1z" class="cls-9"/><path id="folder_shadow" d="m-.018 0 4.086 1.588c.562.218.932.76.932 1.363v8.048h6V1c-.004-.745-.41-.989-1.002-1z" opacity=".3" style="isolation:isolate"/><path id="flap_shadow" fill="url(#radial-gradient)" d="M10 11c.706-.08 1.081-.38 1-.985V5q.997-.002 1-1V1c.005-.64-.31-.99-1-1H0v11z" opacity=".711" style="isolation:isolate"/><g id="g408"><path id="path402" fill-rule="evenodd" stroke="#000" stroke-linejoin="round" stroke-width="2" d="M7 4S6 4 6 5v1H4c-1 0-1 .79-1 .79V12s0 1 1 1h8s1 0 1-1V7a1 1 0 0 0-1-1h-2V5c0-1-1-1-1-1zm0 1h2v1H7z"/><path id="path403" fill="#fd741a" fill-rule="evenodd" d="M4 6c-1 0-1 .79-1 .79V12s0 1 1 1h8s1 0 1-1V7c0-1-1-1-1-1z"/><path id="path404" fill="#8e3d00" fill-rule="evenodd" d="M3.012 8.005 5.007 10l5.934.053 2.047-2.048s-.997 3.99-3.062 3.995h-3.99c-1.927-.005-2.924-3.995-2.924-3.995"/><path id="path405" fill="#502d16" fill-rule="evenodd" d="M5 10h6l-1 1H6z"/><path id="path406" fill="#fc0" fill-rule="evenodd" d="M9 9v2l-1.016 1L7 11V9z"/><path id="path407" fill="#c6c6c6" fill-rule="evenodd" d="M6 5c0-1 1-1 1-1h2s1 0 1 1v1H9V5H7v1H6z"/><path id="rect407" d="M6 6h1v1H6z" class="cls-10"/><path id="rect408" d="M9 6h1v1H9z" class="cls-10"/></g><path id="icon_shadow" fill="url(#linear-gradient)" d="m5 5 1-1h1v9H5z"/><path id="Flap" d="M5 2.951c0-.603-.37-1.145-.931-1.363L0 .006V12l4.113 1.935c.31.147.681.014.828-.298a.6.6 0 0 0 .05-.224z" class="cls-9"/></g></svg>