<svg xmlns="http://www.w3.org/2000/svg" viewBox="0 0 14 14"><defs><linearGradient id="a" x1="632.861" x2="632.861" y1="-841.009" y2="-837.009" gradientTransform="matrix(.5 0 0 -.5 -313.43 -418.505)" gradientUnits="userSpaceOnUse"><stop offset="0"/><stop offset="1" stop-opacity=".151"/></linearGradient></defs><path fill="#ff13c0" d="M1 0C.529 0 0 .529 0 1v7c0 .471.529 1 1 1h10c.471 0 1-.529 1-1V2c0-.471-.529-1-1-1H6c0-.471-.529-1-1-1z"/><path fill="url(#a)" d="M1 0C.529 0 0 .529 0 1s.529 1 1 1h4c.471 0 1-.529 1-1s-.529-1-1-1z" opacity=".723" style="isolation:isolate"/><path d="M3.043 4H14l-.043 10H3z"/><path fill="#006eff" d="m4 13-.013-8H13l.013 8z"/><path fill="#86ffb5" d="M4 13v-1h1c0-1 .995-1 .995-1S7 11 7 12h2l1-1v-1l1 .002L11.014 9H12l1 1v2l.013 1z"/><path fill="#ff0" d="M6 6h2v2H6z"/></svg>