<svg xmlns="http://www.w3.org/2000/svg" id="Done" viewBox="0 0 14 14"><defs><radialGradient id="radial-gradient" cx="-41.117" cy="-48.224" r="1.587" fx="-41.117" fy="-48.224" gradientTransform="matrix(3.43528 2.2902 1.25984 -1.88975 206.005 6.029)" gradientUnits="userSpaceOnUse"><stop offset="0"/><stop offset="1" stop-opacity="0"/></radialGradient><linearGradient id="linear-gradient" x1="-61.556" x2="-61.026" y1="-162.341" y2="-162.341" gradientTransform="matrix(3.7795 0 0 -3.7795 237.651 -604.576)" gradientUnits="userSpaceOnUse"><stop offset="0"/><stop offset="1" stop-opacity="0"/></linearGradient><style>.cls-1{fill:#0ff}</style></defs><g id="Layer_23_copy_3"><path id="folder" d="M0-.006v12l4.113 1.936A.62.62 0 0 0 5 13.366v-2.372h6v-10c-.004-.745-.409-.989-1-1z" class="cls-1"/><path id="folder_shadow" d="m-.018-.006 4.085 1.588c.562.219.933.76.933 1.364v8.048h6v-10c-.004-.745-.41-.989-1.002-1z" opacity=".3" style="isolation:isolate"/><path id="flap_shadow" fill="url(#radial-gradient)" d="M10 10.994c.706-.08 1.081-.38 1-.984V4.994q.997-.002 1-1v-3c.005-.64-.31-.99-1-1H0v11z" opacity=".711" style="isolation:isolate"/><g id="Layer_1"><path fill-rule="evenodd" d="M6.016 5.718a.75.75 0 0 1-.214.484L.11 12h1.768q.121 0 .238.039l2.444.814c.27.09.567.02.768-.18L8.78 9.22A.75.75 0 0 1 9.31 9h1.227a.75.75 0 0 0 .67-.415l.586-1.17a.75.75 0 0 1 .67-.415H14V6l-.946-1.891a.8.8 0 0 0-.14-.195L13 2l-1.914.086a.8.8 0 0 0-.195-.14L9.001 1H8v1.548a.75.75 0 0 1-.4.663l-1.116.59a.75.75 0 0 0-.399.623z"/><path fill="#e3b486" fill-rule="evenodd" d="m3 13 5-5-1-1-5 5z"/><path fill="#ff0" fill-rule="evenodd" d="M13 6h-2l-1 2-1-2-2-1 2-1V2l1 1h2v2z"/></g><path id="icon_shadow" fill="url(#linear-gradient)" d="m5 8 2-2.006V11l-2 1z"/><path id="flap" d="M5 2.946c0-.603-.37-1.145-.931-1.364L0 0v11.994l4.113 1.936c.31.146.681.013.828-.298a.6.6 0 0 0 .05-.224z" class="cls-1"/></g></svg>