<svg xmlns="http://www.w3.org/2000/svg" viewBox="0 0 14 14"><defs><linearGradient id="a" x1="892.86" x2="892.86" y1="-581.009" y2="-577.009" gradientTransform="matrix(.5 0 0 -.5 -443.43 -288.505)" gradientUnits="userSpaceOnUse"><stop offset="0"/><stop offset="1" stop-opacity=".151"/></linearGradient></defs><path fill="#ff13c0" d="M1 0C.528 0 0 .529 0 1v7c0 .471.528 1 1 1h10c.47 0 1-.529 1-1V2c0-.471-.53-1-1-1H6c0-.471-.53-1-1-1z"/><path fill="url(#a)" d="M1 0C.528 0 0 .529 0 1s.528 1 1 1h4c.47 0 1-.529 1-1s-.53-1-1-1z" opacity=".723" style="isolation:isolate"/><path fill-rule="evenodd" d="M3 14v-3L2 8.236v-1.65L2.586 6h-.412l-.156-.81c-.016-.086-.05-.26-.017-1.224l.013-.394L3.586 2h1.65l2.356 1.178.258.257a2 2 0 0 1 .297.003L9.586 2 11 1h3v7.414L13 10v1l1 2v1z"/><path fill="#ce7730" fill-rule="evenodd" d="M8.672 11.317a.1.1 0 0 1-.065-.021.9.9 0 0 0-.665-.173q-.047.006-.083-.024C7.823 11.07 8 12 8 12c-1-1-2-4 0-7 1 0 .038 1.256.077 1.243a.11.11 0 0 1 .11.024.43.43 0 0 0 .519.056.11.11 0 0 1 .115.001c.035.023.185-1.365.18-1.324 0 2-1 5 1 7 .002.042-1.24-.716-1.277-.696a.1.1 0 0 1-.051.013Z"/><path fill="#b4ef11" fill-rule="evenodd" d="M2.75 8.059V6.897l1.121-1.122.066-.017s1.078-.281 2.019-.512l-3.162.004-.04-.203c-.03-.16-.013-.791-.004-1.056l.003-.098L3.897 2.75h1.162l2.053 1.026.887.872 1.824-1.825 2.226-1.127 1.201 1.2v2.707L12 4.353l-.883.883s-.559.066-.749.09c.848.211 1.695.432 1.695.432l.066.017 1.121 1.121v1.207L12 9.353 9.882 7.235c-.7-.092-1.324-.39-1.882-.891-.43.384-1.066.795-1.883.892l-.94.94L4 10.559z"/><path d="m12 2 1 1v2l-1-1-1 1c-.036.005-1.511.16-1.88.285C10.064 5.494 12 6 12 6l1 1v1l-1 1-1-1-1-1c-.044-.025-1 0-2-1-1 1-1.961.978-2 1L5 8l-1 2-1-2V7l1-1s1.926-.503 2.872-.713A24 24 0 0 0 6 5H3c-.029-.15 0-1 0-1l1-1h1l2 1 1 1 1-1 1-1zm.099-.608-.323.16-2 1-.072.037-.058.058-1 1L8 4.293l-.647-.646-.057-.058-.073-.036-2-1-.105-.053H3.793l-.147.147-1 1-.14.139-.006.197c-.02.602-.017.976.009 1.112l.078.405h1.349l-.062.016-.132.035-.096.096-1 1-.146.146v1.325l.053.106 1 2 .447.894.447-.894.964-1.928.824-.824a3.7 3.7 0 0 0 1.764-.8c.538.438 1.13.706 1.766.8l.881.882 1 1 .354.353.354-.353 1-1 .146-.147V6.793l-.146-.146-1-1-.096-.096-.132-.035-.743-.192.617-.617.646.647.854.853V2.793l-.146-.146-1-1z"/><path fill="#7d9c32" fill-rule="evenodd" d="M7.992 6.898c-.636 0-1.246-.617-1.246-1.253s.598-1.213 1.233-1.213 1.259.611 1.259 1.247-.61 1.22-1.246 1.22"/><path fill="#e6bb7e" fill-rule="evenodd" d="M4 13c0-.623.377-1 1-1 .038 0 .006-.892 1-1 .655-.07 1.08-.218 2 0 2.918 0 3.618.04 3.898.94A1.125 1.125 0 0 1 13.033 13z"/></svg>