<?xml version="1.0" encoding="UTF-8"?><svg id="Layer_24_copy_7" xmlns="http://www.w3.org/2000/svg" width="16" height="16" xmlns:xlink="http://www.w3.org/1999/xlink" viewBox="0 0 16 16"><defs><style>.cls-1,.cls-2{fill:#fff;}.cls-2,.cls-3{fill-rule:evenodd;}.cls-4{fill:url(#linear-gradient);isolation:isolate;opacity:.723;}.cls-5{fill:#ff13c0;}</style><linearGradient id="linear-gradient" x1="919.8598" y1="-1048.0094" x2="919.8598" y2="-1044.0094" gradientTransform="translate(-455.9304 -521.0047) scale(.5 -.5)" gradientUnits="userSpaceOnUse"><stop offset="0" stop-color="#000"/><stop offset="1" stop-color="#000" stop-opacity=".151"/></linearGradient></defs><path id="folder" class="cls-5" d="m1.9995,1c-.4714,0-1,.5286-1,1v7c0,.4714.5286,1,1,1h10c.4714,0,1-.5286,1-1V3c0-.4714-.5286-1-1-1h-5c0-.4714-.5286-1-1-1H1.9995Z"/><path id="tab" class="cls-4" d="m1.9995,1c-.4714,0-1,.5286-1,1s.5286,1,1,1h4c.4714,0,1-.5286,1-1s-.5286-1-1-1H1.9995Z"/><g id="Layer_93"><path class="cls-3" d="m12,15c-1.3906,0-2.5664-.9551-2.9023-2.2441l-1.2236-.417c-.5254.4258-1.1792.6611-1.874.6611-1.6543,0-3-1.3457-3-3s1.3457-3,3-3c.3228,0,.6392.0518.9409.1523l1.1973-1.2529c-.0913-.2891-.1382-.5918-.1382-.8994,0-1.6543,1.3457-3,3-3s3,1.3457,3,3-1.3457,3-3,3c-.2407,0-.4775-.0293-.7095-.0879l-1.3096,1.3711,1.1367.3877c.5288-.4277,1.1938-.6709,1.8823-.6709,1.6235,0,2.8477,1.29,2.8477,3s-1.2241,3-2.8477,3Z"/><circle class="cls-1" cx="11" cy="5" r="2"/><circle class="cls-1" cx="6" cy="10" r="2"/><circle class="cls-1" cx="12" cy="12" r="2"/><polygon class="cls-2" points="10.9544 5.7696 6.8099 10.1083 6.1326 9.4462 10.2771 5.1075 10.9544 5.7696"/><polygon class="cls-2" points="11.5474 12.5357 5.8691 10.5974 6.3357 9.4369 12.0139 11.3752 11.5474 12.5357"/></g></svg>