<svg xmlns="http://www.w3.org/2000/svg" viewBox="0 0 14 14"><defs><linearGradient id="a" x1="918.86" x2="918.86" y1="-1049.009" y2="-1045.009" gradientTransform="matrix(.5 0 0 -.5 -456.43 -522.505)" gradientUnits="userSpaceOnUse"><stop offset="0"/><stop offset="1" stop-opacity=".151"/></linearGradient></defs><path fill="#ff13c0" d="M1 0C.528 0 0 .529 0 1v7c0 .471.528 1 1 1h10c.47 0 1-.529 1-1V2c0-.471-.53-1-1-1H6c0-.471-.53-1-1-1z"/><path fill="url(#a)" d="M1 0C.528 0 0 .529 0 1s.528 1 1 1h4c.47 0 1-.529 1-1s-.53-1-1-1z" opacity=".723" style="isolation:isolate"/><path fill-rule="evenodd" d="M11 14a3.01 3.01 0 0 1-2.902-2.244l-1.224-.417A2.96 2.96 0 0 1 5 12c-1.654 0-3-1.346-3-3a3.003 3.003 0 0 1 3.941-2.848L7.138 4.9A3.003 3.003 0 0 1 10 1c1.654.001 3 1.347 3 3.001s-1.346 3-3 3q-.36 0-.71-.088l-1.308 1.37 1.137.388A3 3 0 0 1 11 8c1.624 0 2.848 1.29 2.848 3S12.624 14 11 14"/><path fill="#fff" fill-rule="evenodd" d="M11 9c-.662 0-1.245.326-1.609.821L7 9.005V9c0-.327-.086-.63-.224-.902l2.253-2.36C9.318 5.9 9.646 6 10 6a2 2 0 1 0-1.67-.902L6.158 7.374A2 2 0 0 0 5 7a2 2 0 1 0 0 4 1.99 1.99 0 0 0 1.6-.811l2.4.819A2 2 0 1 0 11 9"/></svg>