<svg xmlns="http://www.w3.org/2000/svg" id="Done" viewBox="0 0 14 14"><defs><radialGradient id="radial-gradient" cx="121.273" cy="-136.526" r="1.587" fx="121.273" fy="-136.526" gradientTransform="matrix(3.43528 2.2902 1.25984 -1.88975 -240.606 -532.74)" gradientUnits="userSpaceOnUse"><stop offset="0"/><stop offset="1" stop-opacity="0"/></radialGradient><linearGradient id="linear-gradient" x1="69.257" x2="69.786" y1="-149.968" y2="-149.968" gradientTransform="matrix(3.7795 0 0 -3.7795 -256.758 -558.308)" gradientUnits="userSpaceOnUse"><stop offset="0"/><stop offset="1" stop-opacity="0"/></linearGradient><style>.cls-1{fill:#a040ff}</style></defs><g id="Layer_18"><path id="folder" d="M0 0v12l4.113 1.935A.62.62 0 0 0 5 13.371v-2.372h6V1c-.004-.745-.409-.989-1-1z" class="cls-1"/><path id="folder_shadow" d="m-.018 0 4.086 1.588c.562.218.932.76.932 1.363v8.048h6V1c-.004-.745-.41-.989-1.002-1z" opacity=".3" style="isolation:isolate"/><path id="flap_shadow" fill="url(#radial-gradient)" d="M10 11c.706-.08 1.081-.38 1-.985V5q.997-.002 1-1V1c.005-.64-.31-.99-1-1H0v11z" opacity=".711" style="isolation:isolate"/><path id="path583" fill-rule="evenodd" d="M4 3h10v11H4z"/><path id="path584" fill="#ffe68f" fill-rule="evenodd" d="M5 4v9h8V4zm1 1h6v1H6zm0 2h5v1H6zm2 4h4v1H8z"/><path id="icon_shadow" fill="url(#linear-gradient)" d="M5 4h2v9H5z"/><path id="Flap" d="M5 2.951c0-.603-.37-1.145-.931-1.363L0 .006V12l4.113 1.935c.31.147.681.014.828-.298a.6.6 0 0 0 .05-.224z" class="cls-1"/></g></svg>