<svg xmlns="http://www.w3.org/2000/svg" viewBox="0 0 14 14"><defs><linearGradient id="a" x1="762.861" x2="762.861" y1="-841.009" y2="-837.009" gradientTransform="matrix(.5 0 0 -.5 -378.43 -418.505)" gradientUnits="userSpaceOnUse"><stop offset="0"/><stop offset="1" stop-opacity=".151"/></linearGradient></defs><path fill="#0ff" d="M1 0C.529 0 0 .529 0 1v7c0 .471.529 1 1 1h10c.471 0 1-.529 1-1V2c0-.471-.529-1-1-1H6c0-.471-.529-1-1-1z"/><path fill="url(#a)" d="M1 0C.529 0 0 .529 0 1s.529 1 1 1h4c.471 0 1-.529 1-1s-.529-1-1-1z" opacity=".723" style="isolation:isolate"/><path stroke="#000" stroke-width="2" d="M8 4 4 8v1l4 4h1l4-4V8L9 4z"/><path fill="#ff2011" stroke="#003768" stroke-width=".035" d="m12.07 7-3-3H8v2h1v1h1v1h1v1h-1V8H9v3H8V7H7V5L4 8v1l4 4h1l3-3 1-1V8"/></svg>