<?xml version="1.0" encoding="UTF-8"?><svg id="Done" xmlns="http://www.w3.org/2000/svg" width="16" height="16" xmlns:xlink="http://www.w3.org/1999/xlink" viewBox="0 0 16 16"><defs><style>.cls-1{fill:#a040ff;}.cls-2{fill:#00ff06;}.cls-3{fill:url(#linear-gradient);isolation:isolate;opacity:.723;}.cls-4{fill:#ccc;}.cls-5{fill:#586977;}</style><linearGradient id="linear-gradient" x1="425.8608" y1="-892.0094" x2="425.8608" y2="-888.0094" gradientTransform="translate(-208.9304 -443.0047) scale(.5 -.5)" gradientUnits="userSpaceOnUse"><stop offset="0" stop-color="#000"/><stop offset="1" stop-color="#000" stop-opacity=".151"/></linearGradient></defs><g id="Layer_39_copy_5"><g id="Folder"><path id="Folder_Back" class="cls-1" d="m2,1c-.4714,0-1,.5286-1,1v7c0,.4714.5286,1,1,1h10c.4714,0,1-.5286,1-1V3c0-.4714-.5286-1-1-1h-5c0-.4714-.5286-1-1-1H2Z"/><path id="Tab" class="cls-3" d="m2,1c-.4714,0-1,.5286-1,1s.5286,1,1,1h4c.4714,0,1-.5286,1-1s-.5286-1-1-1H2Z"/></g><g id="_01"><path d="m6.5,14.5v-1.0835c-.3887-.1284-.7734-.415-.9287-.9165h-1.0713v-6h1.0835c.1284-.3887.415-.7734.9165-.9287v-1.0713h2v1-1h2v1-1h2v1.0713c.5015.1553.7881.54.9165.9287h1.0835v2h-1,1v2h-1,1v2h-1.0835c-.1284.3887-.415.7734-.9165.9287v1.0713h-6Z"/><path d="m12,5v1c1,0,1,1,1,1h1v1h-1v1h1v1h-1v1h1v1h-1s0,1-1,1v1h-1v-1h-1v1h-1v-1h-1v1h-1v-1s-1,0-1-1h-1v-1h1v-1h-1v-1h1v-1h-1v-1h1s0-1,1-1v-1h1v1h1v-1h1v1h1v-1h1m1-1h-7v1.246c-.3259.1808-.5752.4476-.7433.754h-1.2567v7h1.246c.1808.3259.4476.5752.754.7433v1.2567h7v-1.246c.3259-.1808.5752-.4476.7433-.754h1.2567v-7h-1.2567c-.1681-.3063-.4174-.5732-.7433-.754v-1.246h0Z"/><polygon points="4 6 6 4.041 6 6 4 6"/><polygon points="4 13 6 15 6 13 4 13"/><polygon points="13 15 15 13 12.9323 13 13 15"/><polygon points="15 6 13 4.041 13 6 15 6"/><path class="cls-5" d="m7,6h5c1,0,1,1,1,1v5s0,1-1,1h-5s-1,0-1-1v-5s0-1,1-1Z"/><rect class="cls-2" x="8" y="8" width="3" height="3"/><rect class="cls-4" x="7" y="5" width="1" height="1"/><rect class="cls-4" x="9" y="5" width="1" height="1"/><rect class="cls-4" x="11" y="5" width="1" height="1"/><rect class="cls-4" x="7" y="13" width="1" height="1"/><rect class="cls-4" x="9" y="13" width="1" height="1"/><rect class="cls-4" x="11" y="13" width="1" height="1"/><rect class="cls-4" x="5" y="7" width="1" height="1"/><rect class="cls-4" x="5" y="9" width="1" height="1"/><rect class="cls-4" x="5" y="11" width="1" height="1"/><rect class="cls-4" x="13" y="7" width="1" height="1"/><rect class="cls-4" x="13" y="9" width="1" height="1"/><rect class="cls-4" x="13" y="11" width="1" height="1"/></g></g></svg>