<svg xmlns="http://www.w3.org/2000/svg" id="Done" viewBox="0 0 14 14"><defs><linearGradient id="linear-gradient" x1="164.861" x2="164.861" y1="-997.009" y2="-993.009" gradientTransform="matrix(.5 0 0 -.5 -79.43 -496.505)" gradientUnits="userSpaceOnUse"><stop offset="0"/><stop offset="1" stop-opacity=".151"/></linearGradient><style>.cls-2{fill:#decd87;fill-rule:evenodd}</style></defs><g id="Layer_27"><path id="folder" fill="#a040ff" d="M1 0C.529 0 0 .529 0 1v7c0 .471.529 1 1 1h10c.471 0 1-.529 1-1V2c0-.471-.529-1-1-1H6c0-.471-.529-1-1-1z"/><path id="tab" fill="url(#linear-gradient)" d="M1 0C.529 0 0 .529 0 1s.529 1 1 1h4c.471 0 1-.529 1-1s-.529-1-1-1z" opacity=".723" style="isolation:isolate"/><path id="rect12" fill-rule="evenodd" d="M2 4h12v3l-1 1v6H3V8L2 7z"/><path id="rect7" d="M3 7h10l-1 1v5H4V8z" class="cls-2"/><path id="rect8" d="M3 5h10v2H3z" class="cls-2"/><path id="rect9" fill="#504416" fill-rule="evenodd" d="M4.07 7h9l-1 1h-8l-1-1z"/><path id="rect10" fill="#100c00" fill-rule="evenodd" d="M6 9h4v1H6z"/></g></svg>