<?xml version="1.0" encoding="UTF-8"?><svg id="Done" xmlns="http://www.w3.org/2000/svg" width="16" height="16" xmlns:xlink="http://www.w3.org/1999/xlink" viewBox="0 0 16 16"><defs><style>.cls-1{opacity:.3;}.cls-1,.cls-2{isolation:isolate;}.cls-3{fill:#00c6fd;}.cls-4{fill:none;stroke:#000;stroke-miterlimit:1.8391;stroke-width:2px;}.cls-5{fill:#ffe319;}.cls-6{fill:#ff13c0;}.cls-7{fill:url(#linear-gradient);}.cls-2{fill:url(#radial-gradient);opacity:.711;}</style><radialGradient id="radial-gradient" cx="89.287" cy="-90.4761" fx="89.287" fy="-90.4761" r="1.5875" gradientTransform="translate(-187.7398 -371.462) rotate(33.6901) scale(4.1287 -2.2712)" gradientUnits="userSpaceOnUse"><stop offset="0" stop-color="#000"/><stop offset="1" stop-color="#000" stop-opacity="0"/></radialGradient><linearGradient id="linear-gradient" x1="44.2569" y1="-109.2097" x2="44.7861" y2="-109.2097" gradientTransform="translate(-161.2702 -403.2612) scale(3.7795 -3.7795)" gradientUnits="userSpaceOnUse"><stop offset="0" stop-color="#000"/><stop offset="1" stop-color="#000" stop-opacity="0"/></linearGradient></defs><g id="Layer_21"><path id="path539" class="cls-6" d="m1,1v12l4.1131,1.9355c.3105.1468.681.0135.8275-.2976.0393-.0834.0596-.1746.0594-.2668v-2.3711h6V2c-.004-.745-.4086-.9893-1-1H1Z"/><path id="path542" class="cls-1" d="m.9821,1l4.0855,1.5882c.5621.2185.9324.7597.9324,1.3628v8.049h6V2c-.004-.745-.4093-.9893-1.0016-1H.9821Z"/><path id="path543" class="cls-2" d="m11,12c.7057-.0798,1.0812-.3798,1-.9844v-5.0156c.6647-.0018.998-.3352,1-1V2c.0053-.6399-.3093-.9903-1-1H1v11h10Z"/><path id="path429" class="cls-4" d="m8,6h-1v1h2v1h-3l-1,1v2l1,1h1v1l1,1h3v-1h1v-1h-2v-1h3l1-1v-2l-1-1h-1v-1l-1-1h-3v1Z"/><path id="path430" class="cls-3" d="m8,5v1h-1v1h2v1h-3l-1,1v2l1,1h1l2-1h1v-1h2v-4l-1-1h-3Z"/><path id="path431" class="cls-5" d="m11,9l-1,1h-1l-1,1-1,1v1l1,1h3v-1h1v-1h-2v-1h3l1-1v-2l-1-1h-1v1l-1,1Z"/><path id="path433" d="m7,11l1-1h1l-1,1v1l-1,1v-1s0-1,0-1Z"/><path id="path434" d="m10.0696,9h1l-1,1h-2l1-1h1Z"/><path id="path435" d="m11,7l1-1v2.136l-1,.864h-1l1-1v-1Z"/><path id="path547" class="cls-7" d="m6,6h1l1-1v9l-1-1h-1v-7Z"/><path id="Flap" class="cls-6" d="m6,3.9511c.0005-.6031-.3694-1.1446-.9315-1.3632L1,1.0056v11.994l4.1131,1.9355c.3105.1468.681.0135.8275-.2976.033-.0701.0446-.1472.0499-.2242l.0095-10.4621Z"/></g></svg>