<?xml version="1.0" encoding="UTF-8"?><svg id="Done" xmlns="http://www.w3.org/2000/svg" width="16" height="16" xmlns:xlink="http://www.w3.org/1999/xlink" viewBox="0 0 16 16"><defs><style>.cls-1{fill:#a040ff;}.cls-2{fill:#ffe9a3;}.cls-2,.cls-3{fill-rule:evenodd;}.cls-4{fill:url(#linear-gradient);isolation:isolate;opacity:.723;}</style><linearGradient id="linear-gradient" x1="815.8608" y1="-736.0094" x2="815.8608" y2="-732.0094" gradientTransform="translate(-403.9304 -365.0047) scale(.5 -.5)" gradientUnits="userSpaceOnUse"><stop offset="0" stop-color="#000"/><stop offset="1" stop-color="#000" stop-opacity=".151"/></linearGradient></defs><g id="Layer_29"><g id="g42"><g id="g400"><path id="path399" class="cls-1" d="m2,1c-.4714,0-1,.5286-1,1v7c0,.4714.5286,1,1,1h10c.4714,0,1-.5286,1-1V3c0-.4714-.5286-1-1-1h-5c0-.4714-.5286-1-1-1H2Z"/><path id="path400" class="cls-4" d="m2,1c-.4714,0-1,.5286-1,1s.5286,1,1,1h4c.4714,0,1-.5286,1-1s-.5286-1-1-1H2Z"/></g><g id="g468"><path id="path464" class="cls-3" d="m5,4l10-.0047v9.0023s-.1384,1.9581-2.0023,2.0023l-7.0779.0047c-3.0035,0-3.0035-4.0047-3.0035-4.0047h2.0837V4Z"/><path id="path465" class="cls-2" d="m6,5l8-.0047v8.0023s0,1.0023-1.0023,1.0023l-7.0861.0047c-2.0047,0-2.0047-2.0047-2.0047-2.0047h2.0931v-7Z"/><path id="path466" class="cls-3" d="m12.0415,11l-6.0415.0046v.9954l5.0461-.0046s0,.9954.9954.9954c0,0,.9954,0,.9954-.9954-.9954,0-.9954-.9954-.9954-.9954Z"/></g></g></g></svg>