<svg xmlns="http://www.w3.org/2000/svg" id="Done" viewBox="0 0 14 14"><defs><linearGradient id="linear-gradient" x1="554.861" x2="554.861" y1="-841.009" y2="-837.009" gradientTransform="matrix(.5 0 0 -.5 -274.43 -418.505)" gradientUnits="userSpaceOnUse"><stop offset="0"/><stop offset="1" stop-opacity=".151"/></linearGradient><style>.cls-9{fill:#fc0}</style></defs><g id="Layer_19"><path id="folder" fill="#40a0ff" d="M1 0C.529 0 0 .529 0 1v7c0 .471.529 1 1 1h10c.471 0 1-.529 1-1V2c0-.471-.529-1-1-1H6c0-.471-.529-1-1-1z"/><path id="tab" fill="url(#linear-gradient)" d="M1 0C.529 0 0 .529 0 1s.529 1 1 1h4c.471 0 1-.529 1-1s-.529-1-1-1z" opacity=".723" style="isolation:isolate"/><g id="g408"><path id="path402" fill-rule="evenodd" stroke="#000" stroke-linejoin="round" stroke-width="2" d="M7 4S6 4 6 5v1H4c-1 0-1 .79-1 .79V12s0 1 1 1h8s1 0 1-1V7c0-1-1-1-1-1h-2V5c0-1-1-1-1-1zm0 1h2v1H7z"/><path id="path403" fill="#fd741a" fill-rule="evenodd" d="M4 6c-1 0-1 .79-1 .79V12s0 1 1 1h8s1 0 1-1V7c0-1-1-1-1-1z"/><path id="path404" fill="#8e3d00" fill-rule="evenodd" d="M3.012 8.005 5.007 10l5.934.053 2.047-2.048s-.997 3.99-3.062 3.995h-3.99c-1.927-.005-2.924-3.995-2.924-3.995"/><path id="path405" fill="#502d16" fill-rule="evenodd" d="M5 10h6l-1 1H6z"/><path id="path406" fill="#fc0" fill-rule="evenodd" d="M9 9v2l-1.016 1L7 11V9z"/><path id="path407" fill="#c6c6c6" fill-rule="evenodd" d="M6 5c0-1 1-1 1-1h2s1 0 1 1v1H9V5H7v1H6z"/><path id="rect407" d="M6 6h1v1H6z" class="cls-9"/><path id="rect408" d="M9 6h1v1H9z" class="cls-9"/></g></g></svg>