<?xml version="1.0" encoding="UTF-8"?><svg id="Done" xmlns="http://www.w3.org/2000/svg" width="16" height="16" xmlns:xlink="http://www.w3.org/1999/xlink" viewBox="0 0 16 16"><defs><style>.cls-1{fill:#06b7ff;}.cls-2{fill:#ff6700;}.cls-3{opacity:.3;}.cls-3,.cls-4{isolation:isolate;}.cls-5{fill:url(#linear-gradient);}.cls-4{fill:url(#radial-gradient);opacity:.711;}</style><radialGradient id="radial-gradient" cx="179.3143" cy="-212.9262" fx="179.3143" fy="-212.9262" r="1.5875" gradientTransform="translate(-342.7409 -809.0426) rotate(33.6901) scale(4.1287 -2.2712)" gradientUnits="userSpaceOnUse"><stop offset="0" stop-color="#000"/><stop offset="1" stop-color="#000" stop-opacity="0"/></radialGradient><linearGradient id="linear-gradient" x1="120.4757" y1="-201.1004" x2="121.2694" y2="-201.1004" gradientTransform="translate(-450.341 -750.0644) scale(3.7795 -3.7795)" gradientUnits="userSpaceOnUse"><stop offset="0" stop-color="#000"/><stop offset="1" stop-color="#000" stop-opacity="0"/></linearGradient></defs><g id="Layer_40_copy_2"><path id="path332" class="cls-2" d="m1,1.0024v12l4.1131,1.9355c.3105.1468.681.0135.8275-.2976.0393-.0834.0596-.1746.0594-.2668v-2.3711h6V2.0024c-.004-.745-.4086-.9893-1-1H1Z"/><path id="back_shadow" class="cls-3" d="m.9821,1l4.0848,1.5879c.5625.2187.9331.7603.9331,1.3638v8.0482h6V2c-.004-.745-.4093-.9893-1.0016-1H.9821Z"/><path id="flap_shadow" class="cls-4" d="m11,12c.7057-.0798,1.0812-.3798,1-.9844v-5.0156c.6647-.0018.998-.3352,1-1V2c.0053-.6399-.3093-.9903-1-1H1v11h10Z"/><polygon points="4.3579 14.8389 4.3579 8.5938 2.5278 8.5938 2.5278 5.3223 9.4243 5.3223 9.4243 12 7.5991 12 7.5991 14.8389 4.3579 14.8389"/><path d="m11.4385,14.9668c-1.1846,0-3.2168-.4521-3.5176-3.48l-.0972-.978,1.0635-.1245c-.1689-.2002-.3125-.4253-.4307-.6743-.209-.4385-.3149-.915-.3149-1.415,0-.5835.1382-1.1226.4106-1.6011.2832-.499.6831-.8828,1.187-1.1392.4678-.2388,1.0298-.3604,1.6689-.3604.9893,0,1.7939.293,2.3916.8706.5981.5781.918,1.3765.9507,2.373l.0322.979-.5684.0303c.1572.1919.2896.4038.3975.6353.2075.4453.313.9751.313,1.5728,0,.9058-.2896,1.6851-.8604,2.3164-.5962.6602-1.48.9951-2.626.9951Zm-.085-3.2988"/><g id="Text"><path class="cls-1" d="m5.3579,13.8389v-6.2441h-1.8301v-1.2715h4.8965v1.2715h-1.8252v6.2441h-1.2412Z"/><path class="cls-1" d="m8.916,11.3877l1.2153-.1426c.1367.96.5845,1.4404,1.3433,1.4404.376,0,.6719-.0986.8867-.2949.2158-.1963.3232-.4395.3232-.7305,0-.1709-.0376-.3154-.1128-.4355-.0752-.1191-.1899-.2178-.3433-.2939-.1543-.0771-.5269-.2061-1.1182-.3867-.5298-.1602-.9175-.335-1.1636-.5225s-.4419-.4346-.5869-.7402c-.1455-.3057-.2183-.6348-.2183-.9863,0-.4092.0933-.7783.2798-1.1064.186-.3271.4434-.5752.7715-.7422.3281-.168.7329-.252,1.2153-.252.7241,0,1.29.1973,1.6968.5898.4067.3936.6221.9561.646,1.6865l-1.2461.0674c-.0547-.4033-.1724-.6855-.3535-.8467-.1812-.1602-.4395-.2402-.7744-.2402s-.5928.0693-.7739.209-.272.3135-.272.5215c0,.2051.0825.377.2471.5166.1641.1396.542.293,1.1333.4609.6255.1807,1.0771.3721,1.3555.5713.2783.2002.4912.458.6382.7744.1475.3164.2197.6992.2197,1.1504,0,.6523-.2002,1.2012-.6021,1.6455-.4014.4443-1.0298.666-1.8843.666-1.5107,0-2.3516-.8594-2.5225-2.5791Z"/></g><path id="icon_shadow" class="cls-5" d="m5,6h3v8s-3,0-3,0V6Z"/><path class="cls-2" d="m6,3.9511c.0005-.6031-.3694-1.1446-.9315-1.3632L1,1.0056v11.994l4.1131,1.9355c.3105.1468.681.0135.8275-.2976.033-.0701.0446-.1472.0499-.2242l.0095-10.4621Z"/></g></svg>