<?xml version="1.0" encoding="UTF-8"?><svg id="Done" xmlns="http://www.w3.org/2000/svg" width="16" height="16" xmlns:xlink="http://www.w3.org/1999/xlink" viewBox="0 0 16 16"><defs><style>.cls-1,.cls-2,.cls-3{fill:#fff;fill-rule:evenodd;}.cls-4{opacity:.3;}.cls-4,.cls-5{isolation:isolate;}.cls-6{fill:#ff2020;}.cls-7{clip-path:url(#clippath);}.cls-8{fill:none;}.cls-9{fill:url(#linear-gradient);}.cls-2{stroke-width:2px;}.cls-2,.cls-3{stroke:#000;stroke-linejoin:round;}.cls-3{stroke-width:2px;}.cls-5{fill:url(#radial-gradient);opacity:.711;}</style><clipPath id="clippath"><path class="cls-8" d="m1,1l4.0781,1.5879c.5619.2189.9318.7603.9316,1.3633l-.0098,11.0488h9s0-14,0-14H1Z"/></clipPath><radialGradient id="radial-gradient" cx="131.0062" cy="-97.4261" fx="131.0062" fy="-97.4261" r="1.5875" gradientTransform="translate(-322.3012 -480.1406) rotate(33.6901) scale(4.1287 -2.2712)" gradientUnits="userSpaceOnUse"><stop offset="0" stop-color="#000"/><stop offset="1" stop-color="#000" stop-opacity="0"/></radialGradient><linearGradient id="linear-gradient" x1="90.8944" y1="-135.342" x2="91.4236" y2="-135.342" gradientTransform="translate(-337.5379 -501.5289) scale(3.7795 -3.7795)" gradientUnits="userSpaceOnUse"><stop offset="0" stop-color="#000"/><stop offset="1" stop-color="#000" stop-opacity="0"/></linearGradient></defs><g id="Layer_32"><path id="path268" class="cls-6" d="m1,1v12l4.1131,1.9355c.3105.1468.681.0135.8275-.2976.0393-.0834.0596-.1746.0594-.2668v-2.3711h6V2c-.004-.745-.4086-.9893-1-1H1Z"/><g class="cls-7"><g id="g276"><path id="path269" class="cls-4" d="m.9821,1l4.0855,1.5882c.5621.2185.9324.7597.9324,1.3628v8.049h6V2c-.004-.745-.4093-.9893-1.0016-1H.9821Z"/><path id="path327" class="cls-5" d="m11,12c.7057-.0798,1.0812-.3798,1-.9844v-5.0156c.6647-.0018.998-.3352,1-1V2c.0053-.6399-.3093-.9903-1-1H1v11h10Z"/><g id="g273"><rect id="rect269" x="8" y="5" width="2" height="10"/><rect id="rect270" x="6" y="8" width="6" height="4"/><path id="path270" class="cls-2" d="m8,13v-1l-2-2,2-2v-2l-.5791.5791-.4209.4209-1,1-2,2,1,1,1,1,1,1,1,1v-1Z"/><path id="path271" class="cls-3" d="m10,13v-1l2-2-2-2v-2l.5791.5791.4209.4209,1,1,2,2-1,1-1,1-1,1-1,1v-1Z"/><path id="path272" class="cls-1" d="m10,13v-1l2-2-2-2v-2l.5791.5791.4209.4209,1,1,2,2-1,1-1,1-1,1-1,1v-1Z"/><path id="path273" class="cls-1" d="m8,13v-1l-2-2,2-2v-2l-.5791.5791-.4209.4209-1,1-2,2,1,1,1,1,1,1,1,1v-1Z"/></g><path id="path275" class="cls-9" d="m6,6.7127l1-.7127,1-1v10s-1.0777-1.0777-2-2h0v-6.2873Z"/></g></g><path class="cls-6" d="m6,3.9511c.0005-.6031-.3694-1.1446-.9315-1.3632L1,1.0056v11.994l4.1131,1.9355c.3105.1468.681.0135.8275-.2976.033-.0701.0446-.1472.0499-.2242l.0095-10.4621Z"/></g></svg>