<svg xmlns="http://www.w3.org/2000/svg" id="Done" viewBox="0 0 14 14"><defs><radialGradient id="radial-gradient" cx="93.725" cy="-53.376" r="1.587" fx="93.725" fy="-53.376" gradientTransform="matrix(3.43528 2.2902 1.25984 -1.88975 -250.727 -312.517)" gradientUnits="userSpaceOnUse"><stop offset="0"/><stop offset="1" stop-opacity="0"/></radialGradient><linearGradient id="linear-gradient" x1="58.532" x2="59.061" y1="-110.21" y2="-110.21" gradientTransform="matrix(3.7795 0 0 -3.7795 -216.223 -408.04)" gradientUnits="userSpaceOnUse"><stop offset="0"/><stop offset="1" stop-opacity="0"/></linearGradient><style>.cls-5{fill:#ff13c0}</style></defs><g id="Layer_14"><path id="folder" d="M0 0v12l4.113 1.935A.62.62 0 0 0 5 13.371v-2.372h6V1c-.004-.745-.409-.989-1-1z" class="cls-5"/><path id="folder_shadow" d="m-.018 0 4.086 1.588c.562.218.932.76.932 1.363v8.048h6V1c-.004-.745-.41-.989-1.002-1z" opacity=".3" style="isolation:isolate"/><path id="flap_shadow" fill="url(#radial-gradient)" d="M10 11c.706-.08 1.081-.38 1-.985V5q.997-.002 1-1V1c.005-.64-.31-.99-1-1H0v11z" opacity=".711" style="isolation:isolate"/><g id="icon"><path id="path366" d="M3.009 4H14l-.008 10H4.37L3 13.34z"/><path id="path367" fill="#006eff" d="m4 13-.013-8H13l.013 8z"/><path id="path368" fill="#86ffb5" d="M4 13v-1h1c0-1 .995-1 .995-1S7 11 7 12h2l1-1v-1l1 .002L11.014 9H12l1 1v2l.013 1z"/><path id="rect368" fill="#ff0" d="M6 6h2v2H6z"/></g><path id="icon_shadow" fill="url(#linear-gradient)" d="M5 5h1l1-1v9H5z"/><path id="Flap" d="M5 2.951c0-.603-.37-1.145-.931-1.363L0 .006V12l4.113 1.935c.31.147.681.014.828-.298a.6.6 0 0 0 .05-.224z" class="cls-5"/></g></svg>