<svg xmlns="http://www.w3.org/2000/svg" id="Done" viewBox="0 0 14 14"><defs><linearGradient id="linear-gradient" x1="762.861" x2="762.861" y1="-737.009" y2="-733.009" gradientTransform="matrix(.5 0 0 -.5 -378.43 -366.505)" gradientUnits="userSpaceOnUse"><stop offset="0"/><stop offset="1" stop-opacity=".151"/></linearGradient><style>.cls-1{fill:#fff;fill-rule:evenodd}</style></defs><g id="Layer_31"><path id="folder" fill="#ff2020" d="M1 0C.529 0 0 .529 0 1v7c0 .471.529 1 1 1h10c.471 0 1-.529 1-1V2c0-.471-.529-1-1-1H6c0-.471-.529-1-1-1z"/><path id="tab" fill="url(#linear-gradient)" d="M1 0C.529 0 0 .529 0 1s.529 1 1 1h4c.471 0 1-.529 1-1s-.529-1-1-1z" opacity=".723" style="isolation:isolate"/><g id="g289"><path fill-rule="evenodd" stroke="#000" stroke-linejoin="round" stroke-width="2" d="m11 7-1-1-.42-.42L9 5H7l-.58.58L6 6 5 7 3 9l1 1 1 1 1 1 1 1h2l1-1 1-1 1-1 1-1z"/><path id="path285" d="M9 12v-1l2-2-2-2V5l.58.58L10 6l1 1 2 2-1 1-1 1-1 1-1 1z" class="cls-1"/><path id="path289" d="M7 12v-1L5 9l2-2V5l-.58.58L6 6 5 7 3 9l1 1 1 1 1 1 1 1z" class="cls-1"/></g></g></svg>