<?xml version="1.0" encoding="UTF-8"?><svg id="Done" xmlns="http://www.w3.org/2000/svg" width="16" height="16" xmlns:xlink="http://www.w3.org/1999/xlink" viewBox="0 0 16 16"><defs><style>.cls-1{opacity:.3;}.cls-1,.cls-2{isolation:isolate;}.cls-3{fill:#40a0ff;}.cls-4{fill:#f29b00;}.cls-5{fill:url(#linear-gradient);}.cls-6{fill:#efe39a;}.cls-7{fill:red;}.cls-2{fill:url(#radial-gradient);opacity:.711;}</style><radialGradient id="radial-gradient" cx="1.403" cy="-59.9241" fx="1.403" fy="-59.9241" r="1.5875" gradientTransform="translate(75.675 -112.461) rotate(33.6901) scale(4.1287 -2.2712)" gradientUnits="userSpaceOnUse"><stop offset="0" stop-color="#000"/><stop offset="1" stop-color="#000" stop-opacity="0"/></radialGradient><linearGradient id="linear-gradient" x1="-22.3139" y1="-161.209" x2="-21.7848" y2="-161.209" gradientTransform="translate(90.3361 -599.7967) scale(3.7795 -3.7795)" gradientUnits="userSpaceOnUse"><stop offset="0" stop-color="#000"/><stop offset="1" stop-color="#000" stop-opacity="0"/></linearGradient></defs><g id="Layer_23_copy"><path id="path599" class="cls-3" d="m1,.9944v12l4.1131,1.9355c.3105.1468.681.0135.8275-.2976.0393-.0834.0596-.1746.0594-.2668v-2.3711h6V1.9944c-.004-.745-.4086-.9893-1-1H1Z"/><path id="path600" class="cls-1" d="m.9821.9944l4.0848,1.5879c.5625.2187.9331.7603.9331,1.3638v8.0482h6V1.9944c-.004-.745-.4093-.9893-1.0016-1H.9821Z"/><path id="path601" class="cls-2" d="m11,11.9944c.7057-.0798,1.0812-.3798,1-.9844v-5.0156c.6647-.0018.998-.3352,1-1V1.9944c.0053-.6399-.3093-.9903-1-1H1v11h10Z"/><rect x="4" y="4" width="11" height="11" rx="1.4932" ry="1.4932"/><path class="cls-4" d="m5,9.0027v3.9986c0,.5515.4471.9986.9986.9986h7.0027c.5515,0,.9986-.4471.9986-.9986v-4.0027c0-.5515-.4471-.9986-.9986-.9986h-6.9986c-.5538,0-1.0027.4489-1.0027,1.0027Z"/><rect x="5" y="7" width="9" height="1"/><rect class="cls-6" x="5" y="5" width="9" height="2" rx="1" ry="1"/><path class="cls-7" d="m7,11l1,1v-4.9973c0-.5538-.4489-1.0027-1.0027-1.0027h0c-.5508,0-.9973.4465-.9973.9973v5.0027l1-1Z"/><path id="path613" class="cls-5" d="m6,5l1-.0056h1v9h-1l-1,.0056V5Z"/><path class="cls-3" d="m6,3.9456c.0005-.6031-.3694-1.1446-.9315-1.3632L1,1v11.994l4.1131,1.9355c.3105.1468.681.0135.8275-.2976.033-.0701.0446-.1472.0499-.2242l.0095-10.4621Z"/></g></svg>