<svg xmlns="http://www.w3.org/2000/svg" id="Layer_24_copy_9" viewBox="0 0 14 14"><defs><linearGradient id="linear-gradient" x1="970.86" x2="970.86" y1="-1049.009" y2="-1045.009" gradientTransform="matrix(.5 0 0 -.5 -482.43 -522.505)" gradientUnits="userSpaceOnUse"><stop offset="0"/><stop offset="1" stop-opacity=".151"/></linearGradient><style>.cls-3{fill:#0f0}</style></defs><path id="folder" fill="#a040ff" d="M1 0C.528 0 0 .529 0 1v7c0 .471.528 1 1 1h10c.47 0 1-.529 1-1V2c0-.471-.53-1-1-1H6c0-.471-.53-1-1-1z"/><path id="tab" fill="url(#linear-gradient)" d="M1 0C.528 0 0 .529 0 1s.528 1 1 1h4c.47 0 1-.529 1-1s-.53-1-1-1z" opacity=".723" style="isolation:isolate"/><g id="Layer_89"><path d="M8 13V9.908c-.491-.094-.843-.243-1.09-.346l-.054-.024q-.036.04-.085.099L5 11.779V8c0-.584 0-2.363 1.589-2.363.299 0 .586.069.919.15q.23.056.491.11V3h2.463L14 7.163V8.88L10.459 13z"/><path d="M5 10.39v.345C5.963 9.57 7 9 9 9v3l4-4.03L9 4v3c-2.21 0-4 1.098-4 3.39" class="cls-3"/><path d="M5 13V9.894a3 3 0 0 1-.35-.112L3 11.78l-.003-4.31c-.008-.736-.012-1.14.353-1.508l.294-.296.49-.028c.239 0 .428.07.612.139q.111.042.254.087V3h2.618l2.5 5-2.5 5z"/><path d="m4 8 1 1c.963-1.165-1 0 1 0v3l4-4.03L6 4v3C3.79 7 4 5.708 4 8" class="cls-3"/><path d="M2 13V3h2.618l2.5 5-2.5 5z"/><path d="M3 10v2l4-4.03L3 4z" class="cls-3"/></g></svg>