<svg xmlns="http://www.w3.org/2000/svg" viewBox="0 0 14 14"><defs><linearGradient id="a" x1="944.86" x2="944.86" y1="-1049.009" y2="-1045.009" gradientTransform="matrix(.5 0 0 -.5 -469.43 -522.505)" gradientUnits="userSpaceOnUse"><stop offset="0"/><stop offset="1" stop-opacity=".151"/></linearGradient></defs><path fill="#0ff" d="M1 0C.528 0 0 .529 0 1v7c0 .471.528 1 1 1h10c.47 0 1-.529 1-1V2c0-.471-.53-1-1-1H6c0-.471-.53-1-1-1z"/><path fill="url(#a)" d="M1 0C.528 0 0 .529 0 1s.528 1 1 1h4c.47 0 1-.529 1-1s-.53-1-1-1z" opacity=".723" style="isolation:isolate"/><path d="M4.549 13.073 4.08 6.66c-.02-.267-.128-.532-.338-.7C3.115 5.458 3 4.867 3 4.5 3 2.434 5.99 2 8.5 2c.526 0 1.05.025 1.545.072l.184-.394 1.795-.6c.104-.05.296-.09.492-.09.69 0 1.3.507 1.45 1.206.098.46-.022.91-.31 1.253.283.391.346.785.344 1.066-.003.362-.122.948-.744 1.447-.207.165-.314.426-.333.69l-.448 6.42a1 1 0 0 1-.998.93H5.546a1 1 0 0 1-.997-.927"/><path fill="#f50637" stroke="#f50637" stroke-linecap="round" stroke-linejoin="round" d="M8.5 5.5h-3l.51 7h5l.49-7z"/><ellipse cx="8.5" cy="4.5" stroke="#ff0135" stroke-linecap="round" stroke-miterlimit="10" rx="4" ry="1"/><path fill="#f50637" stroke="#ff0135" stroke-linecap="round" stroke-linejoin="round" d="m10.013 5.707 1.304-2.812L12.5 2.5"/></svg>