<svg xmlns="http://www.w3.org/2000/svg" viewBox="0 0 14 14"><defs><linearGradient id="a" x1="528.861" x2="528.861" y1="-971.009" y2="-967.009" gradientTransform="matrix(.5 0 0 -.5 -261.43 -483.505)" gradientUnits="userSpaceOnUse"><stop offset="0"/><stop offset="1" stop-opacity=".151"/></linearGradient></defs><path fill="#a040ff" d="M1 0C.529 0 0 .529 0 1v7c0 .471.529 1 1 1h10c.471 0 1-.529 1-1V2c0-.471-.529-1-1-1H6c0-.471-.529-1-1-1z"/><path fill="url(#a)" d="M1 0C.529 0 0 .529 0 1s.529 1 1 1h4c.471 0 1-.529 1-1s-.529-1-1-1z" opacity=".723" style="isolation:isolate"/><path fill-rule="evenodd" d="M4 3h10v11H4z"/><path fill="#ffe68f" fill-rule="evenodd" d="M5 4v9h8V4zm1 1h6v1H6zm0 2h5v1H6zm2 4h4v1H8z"/></svg>