<?xml version="1.0" encoding="UTF-8"?><svg id="Done" xmlns="http://www.w3.org/2000/svg" width="16" height="16" xmlns:xlink="http://www.w3.org/1999/xlink" viewBox="0 0 16 16"><defs><style>.cls-1{fill:lime;}.cls-1,.cls-2{fill-rule:evenodd;}.cls-3{fill:#a040ff;}.cls-4{fill:url(#linear-gradient);isolation:isolate;opacity:.723;}</style><linearGradient id="linear-gradient" x1="1049.8608" y1="-892.0094" x2="1049.8608" y2="-888.0094" gradientTransform="translate(-520.9304 -443.0047) scale(.5 -.5)" gradientUnits="userSpaceOnUse"><stop offset="0" stop-color="#000"/><stop offset="1" stop-color="#000" stop-opacity=".151"/></linearGradient></defs><g id="Layer_24_copy_2"><path id="folder" class="cls-3" d="m2,1c-.4714,0-1,.5286-1,1v7c0,.4714.5286,1,1,1h10c.4714,0,1-.5286,1-1V3c0-.4714-.5286-1-1-1h-5c0-.4714-.5286-1-1-1H2Z"/><path id="tab" class="cls-4" d="m2,1c-.4714,0-1,.5286-1,1s.5286,1,1,1h4c.4714,0,1-.5286,1-1s-.5286-1-1-1H2Z"/><polygon points="9.0015 4.9923 9 4 11 4 15 8.9969 11 14 9 14 9.0015 4.9923"/><polygon points="10.7067 13.7061 9.0015 13.7023 9.0127 10.6454 10.5245 10.6454 10.7067 13.7061"/><polygon class="cls-2" points="10.6987 4.2856 9.0127 4.253 9.0127 7.9511 10.0063 7.2233 9.9361 4.8864 10.2364 5 10.6987 4.2856"/><path class="cls-2" d="m9.0518,12.6836l.5605-1.6836h-5.6123v-4h5.6123l-.5605-1.6836,1.6553-1.0234,2.5693,2.5693-.2646.603c.0283.0327.0723.0859.1182.1377.1035.0942.1729.1455.2422.1968l-.4336.6675.4814-.6313-.0303.0552.0381-.0493-.041.0542-.0957.1714.1621-.2061.2266.1777.1035.2754.8867.8359-1.0195.6567c-.0957.0684-.1553.1099-.2129.1562-.043.0405-.0781.1011-.1172.1558-.0068.0195-.0264.0615-.0449.1113l.2305.5508-.4346.5615-2.3643,2.3643-1.6553-1.0234Z"/><path id="path968" class="cls-1" d="m5,10h6l-1,3,4-4-4-4,1,3h-6v2Z"/></g></svg>