<?xml version="1.0" encoding="UTF-8"?><svg id="Layer_24_copy_4" xmlns="http://www.w3.org/2000/svg" width="16" height="16" xmlns:xlink="http://www.w3.org/1999/xlink" viewBox="0 0 16 16"><defs><style>.cls-1{fill:#fff;}.cls-2{fill:url(#linear-gradient);isolation:isolate;opacity:.723;}.cls-3{fill:#ff2020;}</style><linearGradient id="linear-gradient" x1="841.8598" y1="-1048.0094" x2="841.8598" y2="-1044.0094" gradientTransform="translate(-416.9304 -521.0047) scale(.5 -.5)" gradientUnits="userSpaceOnUse"><stop offset="0" stop-color="#000"/><stop offset="1" stop-color="#000" stop-opacity=".151"/></linearGradient></defs><path id="folder" class="cls-3" d="m1.9995,1c-.4714,0-1,.5286-1,1v7c0,.4714.5286,1,1,1h10c.4714,0,1-.5286,1-1V3c0-.4714-.5286-1-1-1h-5c0-.4714-.5286-1-1-1H1.9995Z"/><path id="tab" class="cls-2" d="m1.9995,1c-.4714,0-1,.5286-1,1s.5286,1,1,1h4c.4714,0,1-.5286,1-1s-.5286-1-1-1H1.9995Z"/><g id="Layer_69"><path d="m9.4282,12.5c-2.4829,0-4.4282-1.3174-4.4282-3v-3.4062l1.707,1.707c.4009.4004,1.3262.8291,2.7212.8291,1.2241,0,2.3677-.5029,2.8647-1l1.707-1.707v3.5771c0,1.6543-2.0508,3-4.5718,3Z"/><path d="m9.5088,15.0166c-2.5283,0-4.5088-1.3252-4.5088-3.0166v-3.4141l1.707,1.707c.4873.4873,1.5425.9785,2.8018.9785,1.2471,0,2.2969-.4912,2.7842-.9785l1.707-1.707v3.4141c0,1.6914-1.9727,3.0166-4.4912,3.0166Z"/><path d="m9.5088,8.9336c-2.5283,0-4.5088-1.2891-4.5088-2.9336,0-1.626,2.0649-3,4.5088-3,2.4766,0,4.4912,1.3457,4.4912,3,0,1.6445-1.9727,2.9336-4.4912,2.9336Z"/><path class="cls-1" d="m5.9995,8.0077v.9923c0,1.0598,1.4961,2,3.4286,2s3.5718-.9402,3.5718-2v-1c-.6857.6857-2.0757,1.1298-3.5718,1.1298s-2.7429-.4364-3.4286-1.1221Z"/><path class="cls-1" d="m6,11v1c0,1.0598,1.5762,2.0163,3.5087,2.0163s3.4913-.9565,3.4913-2.0163v-1c-.6857.6857-1.9951,1.2717-3.4913,1.2717s-2.823-.586-3.5087-1.2717Z"/><path class="cls-1" d="m9.5087,4c1.8936,0,3.4913.9671,3.4913,2s-1.5977,1.9332-3.4913,1.9332-3.5087-.9003-3.5087-1.9332,1.6152-2,3.5087-2Z"/></g></svg>