<?xml version="1.0" encoding="UTF-8"?><svg id="Done" xmlns="http://www.w3.org/2000/svg" width="16" height="16" xmlns:xlink="http://www.w3.org/1999/xlink" viewBox="0 0 16 16"><defs><style>.cls-1{fill:#a040ff;}.cls-2{fill:url(#linear-gradient);isolation:isolate;opacity:.723;}.cls-3{fill:#ffe68f;}.cls-3,.cls-4{fill-rule:evenodd;}</style><linearGradient id="linear-gradient" x1="529.8608" y1="-970.0094" x2="529.8608" y2="-966.0094" gradientTransform="translate(-260.9304 -482.0047) scale(.5 -.5)" gradientUnits="userSpaceOnUse"><stop offset="0" stop-color="#000"/><stop offset="1" stop-color="#000" stop-opacity=".151"/></linearGradient></defs><g id="Layer_17"><g id="g398"><path id="path397" class="cls-1" d="m2,1c-.4714,0-1,.5286-1,1v7c0,.4714.5286,1,1,1h10c.4714,0,1-.5286,1-1V3c0-.4714-.5286-1-1-1h-5c0-.4714-.5286-1-1-1H2Z"/><path id="path398" class="cls-2" d="m2,1c-.4714,0-1,.5286-1,1s.5286,1,1,1h4c.4714,0,1-.5286,1-1s-.5286-1-1-1H2Z"/></g><g id="g30"><path id="rect30" class="cls-4" d="m5,4h10v11H5V4Z"/><path id="note-text" class="cls-3" d="m6,5v9h8V5H6Zm1,1h6v1h-6v-1Zm0,2h5v1h-5v-1Zm2,4h4v1h-4v-1Z"/></g></g></svg>