<svg xmlns="http://www.w3.org/2000/svg" id="Done" viewBox="0 0 14 14"><defs><radialGradient id="radial-gradient" cx="114.854" cy="-176.466" r="1.587" fx="114.854" fy="-176.466" gradientTransform="matrix(3.7795 0 0 -3.1496 -431.093 -551.797)" gradientUnits="userSpaceOnUse"><stop offset="0"/><stop offset="1" stop-opacity="0"/></radialGradient><style>.cls-4{fill:#ffecb1}</style></defs><g id="Layer_8"><g id="g125"><path id="path118" d="M9.99 11c.685-.026 1.009-.37 1.01-1V5c.778-.014.999-.428 1-1V1c0-.676-.343-1-1-1H0v10l2.02 1z" class="cls-4"/><path id="path169" d="M10 11c.671.02.992-.327 1-1V5q1.008-.013 1-1V1c-.004-.745-.409-.99-1-1H0v10l2 1z" opacity=".3" style="isolation:isolate"/><path id="path170" fill="url(#radial-gradient)" d="M10 11c.706-.08 1.081-.38 1-.984V5q.997-.003 1-1V1c.005-.64-.31-.99-1-1H0v11z" opacity=".307" style="isolation:isolate"/><path id="path298" d="M5 2.912v10.42a.627.627 0 0 1-.89.57L0 12.005v-12l4.066 1.55C4.628 1.77 5 2.31 5 2.913" class="cls-4"/></g><path id="Flap" fill="#ffeead" d="M5 2.951c0-.603-.37-1.145-.931-1.363L0 .006V12l4.113 1.935c.31.147.681.014.828-.298a.6.6 0 0 0 .05-.224z"/></g></svg>