<svg xmlns="http://www.w3.org/2000/svg" id="Layer_23_copy_6" viewBox="0 0 14 14"><defs><radialGradient id="radial-gradient" cx="111.191" cy="-163.724" r="1.587" fx="111.191" fy="-163.724" gradientTransform="matrix(3.43528 2.2902 1.25984 -1.88975 -171.704 -561.052)" gradientUnits="userSpaceOnUse"><stop offset="0"/><stop offset="1" stop-opacity="0"/></radialGradient><linearGradient id="linear-gradient" x1="72.29" x2="72.819" y1="-228.1" y2="-228.1" gradientTransform="matrix(3.7795 0 0 -3.7795 -268.223 -853.112)" gradientUnits="userSpaceOnUse"><stop offset="0"/><stop offset="1" stop-opacity="0"/></linearGradient><style>.cls-1{fill:#ff6700}</style></defs><path id="folder" d="M0-.006v12l4.113 1.936A.62.62 0 0 0 5 13.366v-2.372h6v-10c-.004-.745-.409-.989-1-1z" class="cls-1"/><path id="folder_shadow" d="m-.018-.006 4.085 1.588c.562.219.933.76.933 1.364v8.048h6v-10c-.004-.745-.41-.989-1.002-1z" opacity=".3" style="isolation:isolate"/><path id="flap_shadow" fill="url(#radial-gradient)" d="M10 10.994c.706-.08 1.081-.38 1-.984V4.994q.997-.002 1-1v-3c.005-.64-.31-.99-1-1H0v11z" opacity=".711" style="isolation:isolate"/><g id="Layer_90_copy"><path fill-rule="evenodd" d="M7.002 13.999A2.005 2.005 0 0 1 5 11.997v-.266A2.002 2.002 0 0 1 2 10V9a2.002 2.002 0 0 1 3-1.731V7c0-1.102.897-2 2-2h.269A2.002 2.002 0 0 1 9 2h1a2.002 2.002 0 0 1 1.731 3h.27A2 2 0 0 1 14 6.998v5.004A2 2 0 0 1 12 14z"/><path fill="#40a0ff" fill-rule="evenodd" d="M6 9V7a1 1 0 0 1 1-1h2V5a1 1 0 1 1 0-2h1a1 1 0 1 1 0 2v1h2.002c.551 0 .998.447.998.998V8h-1.015a.985.985 0 0 0-.985.985v1.03c0 .544.44.985.985.985H13v1.002a1 1 0 0 1-.998.998H11v-1.004a.996.996 0 0 0-.996-.996H8.996a.996.996 0 0 0-.996.996V13h-.998A1 1 0 0 1 6 11.996V10H5a1 1 0 1 1-2 0V9a1 1 0 1 1 2 0z"/></g><path id="icon_shadow" fill="url(#linear-gradient)" d="m5 7 2-2v8H5z"/><path id="flap" d="M5 2.946c0-.603-.37-1.145-.931-1.364L0 0v11.994l4.113 1.936c.31.146.681.013.828-.298a.6.6 0 0 0 .05-.224z" class="cls-1"/></svg>