<?xml version="1.0" encoding="UTF-8"?><svg id="Done" xmlns="http://www.w3.org/2000/svg" width="16" height="16" xmlns:xlink="http://www.w3.org/1999/xlink" viewBox="0 0 16 16"><defs><style>.cls-1{fill:lime;}.cls-1,.cls-2{fill-rule:evenodd;}.cls-3{fill:#a040ff;}.cls-4{opacity:.3;}.cls-4,.cls-5{isolation:isolate;}.cls-6{fill:url(#linear-gradient);}.cls-5{fill:url(#radial-gradient);opacity:.711;}</style><radialGradient id="radial-gradient" cx="-19.3572" cy="-53.5741" fx="-19.3572" fy="-53.5741" r="1.5875" gradientTransform="translate(138.9922 -52.9162) rotate(33.6901) scale(4.1287 -2.2712)" gradientUnits="userSpaceOnUse"><stop offset="0" stop-color="#000"/><stop offset="1" stop-color="#000" stop-opacity="0"/></radialGradient><linearGradient id="linear-gradient" x1="-41.4348" y1="-161.0775" x2="-40.9056" y2="-161.0775" gradientTransform="translate(162.6038 -599.7967) scale(3.7795 -3.7795)" gradientUnits="userSpaceOnUse"><stop offset="0" stop-color="#000"/><stop offset="1" stop-color="#000" stop-opacity="0"/></linearGradient></defs><g id="Layer_23_copy_2"><path id="path599" class="cls-3" d="m1,.9944v12l4.1131,1.9355c.3105.1468.681.0135.8275-.2976.0393-.0834.0596-.1746.0594-.2668v-2.3711h6V1.9944c-.004-.745-.4086-.9893-1-1H1Z"/><path id="path600" class="cls-4" d="m.9821.9944l4.0848,1.5879c.5625.2187.9331.7603.9331,1.3638v8.0482h6V1.9944c-.004-.745-.4093-.9893-1.0016-1H.9821Z"/><path id="path601" class="cls-5" d="m11,11.9944c.7057-.0798,1.0812-.3798,1-.9844v-5.0156c.6647-.0018.998-.3352,1-1V1.9944c.0053-.6399-.3093-.9903-1-1H1v11h10Z"/><polygon points="9.0015 4.9923 9 4 11 4 15 8.9969 11 14 9 14 9.0015 4.9923"/><polygon points="10.7067 13.7061 9.0015 13.7023 9.0127 10.6454 10.5245 10.6454 10.7067 13.7061"/><polygon class="cls-2" points="10.6987 4.2856 9.0127 4.253 9.0127 7.9511 10.0063 7.2233 9.9361 4.8864 10.2364 5 10.6987 4.2856"/><path class="cls-2" d="m9.0518,12.6836l.5605-1.6836h-5.6123v-4h5.6123l-.5605-1.6836,1.6553-1.0234,2.5693,2.5693-.2646.6035c.0283.0322.0713.085.1162.1357.1055.0967.1729.1455.2402.1953l-.5146.79.625-.7031.1895.168.1133.2588.8867.8359-1.0176.6611c-.0889.0635-.1523.1074-.2129.1562-.0439.041-.0781.0996-.1162.1543-.0068.0195-.0273.0625-.0459.1123l.2305.5508-.4346.5615-2.3643,2.3643-1.6553-1.0234Z"/><path id="path968" class="cls-1" d="m5,10h6l-1,3,4-4-4-4,1,3h-6v2Z"/><path id="path613" class="cls-6" d="m6,7l2-.0056v4.0056l-2,.0056v-4.0056Z"/><path class="cls-3" d="m6,3.9456c.0005-.6031-.3694-1.1446-.9315-1.3632L1,1v11.994l4.1131,1.9355c.3105.1468.681.0135.8275-.2976.033-.0701.0446-.1472.0499-.2242l.0095-10.4621Z"/></g></svg>