<svg xmlns="http://www.w3.org/2000/svg" id="Done" viewBox="0 0 14 14"><defs><radialGradient id="radial-gradient" cx="124.766" cy="-104.776" r="1.587" fx="124.766" fy="-104.776" gradientTransform="matrix(3.43528 2.2902 1.25984 -1.88975 -292.606 -480.74)" gradientUnits="userSpaceOnUse"><stop offset="0"/><stop offset="1" stop-opacity="0"/></radialGradient><linearGradient id="linear-gradient" x1="83.015" x2="83.544" y1="-136.21" y2="-136.21" gradientTransform="matrix(3.7795 0 0 -3.7795 -308.758 -506.308)" gradientUnits="userSpaceOnUse"><stop offset="0"/><stop offset="1" stop-opacity="0"/></linearGradient><style>.cls-4{fill:#ff13c0}</style></defs><g id="Layer_34"><path id="folder" d="M0 0v12l4.113 1.936A.62.62 0 0 0 5 13.37V11h6V1c-.004-.745-.409-.99-1-1z" class="cls-4"/><path id="folder_shadow" d="m-.018 0 4.085 1.588c.562.219.933.76.933 1.364V11h6V1c-.004-.745-.41-.99-1.002-1z" opacity=".3" style="isolation:isolate"/><path id="flap_shadow" fill="url(#radial-gradient)" d="M10 11c.706-.08 1.081-.38 1-.984V5q.997-.003 1-1V1c.005-.64-.31-.99-1-1H0v11z" opacity=".711" style="isolation:isolate"/><g id="g422"><path id="path420" d="M6 4s4.13-.645 6 1c.548.482 1 .984 1 .984.496.493.877 1.07 1 2.016v2c-.204.796-.312 2.133-1 3l-1 1H8l-1-1v-1H4l-2-2V8l1-2 1-1a5.3 5.3 0 0 1 2-1"/><path id="path421" fill="#fff" d="M7 5c-2.716.406-4.031 2.234-4.031 3.79.034 1.115.473 1.61 1.458 2.072C5.06 11.07 7 11 7 11h2v1l-1 1h2s3 0 2.933-4.21C12.592 5.406 9.903 4.565 7 5"/><path id="path422" d="M7 8v1l-1 1H5L4 9V8l1-1h1z"/></g><path id="icon_shadow" fill="url(#linear-gradient)" d="M5 5h1l1-1v9-1H5z"/><path id="flap" d="M5 2.951c0-.603-.37-1.145-.931-1.363L0 .006V12l4.113 1.935c.31.147.681.014.828-.298a.6.6 0 0 0 .05-.224z" class="cls-4"/></g></svg>