<svg xmlns="http://www.w3.org/2000/svg" id="Done" viewBox="0 0 14 14"><defs><radialGradient id="radial-gradient" cx=".403" cy="-60.924" r="1.587" fx=".403" fy="-60.924" gradientTransform="matrix(3.43528 2.2902 1.25984 -1.88975 79.37 -113.06)" gradientUnits="userSpaceOnUse"><stop offset="0"/><stop offset="1" stop-opacity="0"/></radialGradient><linearGradient id="linear-gradient" x1="-23.314" x2="-22.785" y1="-162.209" y2="-162.209" gradientTransform="matrix(3.7795 0 0 -3.7795 93.116 -604.576)" gradientUnits="userSpaceOnUse"><stop offset="0"/><stop offset="1" stop-opacity="0"/></linearGradient><style>.cls-3{fill:#40a0ff}</style></defs><g id="Layer_23_copy"><path id="folder" d="M0-.006v12l4.113 1.936A.62.62 0 0 0 5 13.366v-2.372h6v-10c-.004-.745-.409-.989-1-1z" class="cls-3"/><path id="folder_shadow" d="m-.018-.006 4.085 1.588c.562.219.933.76.933 1.364v8.048h6v-10c-.004-.745-.41-.989-1.002-1z" opacity=".3" style="isolation:isolate"/><path id="flap_shadow" fill="url(#radial-gradient)" d="M10 10.994c.706-.08 1.081-.38 1-.984V4.994q.997-.002 1-1v-3c.005-.64-.31-.99-1-1H0v11z" opacity=".711" style="isolation:isolate"/><rect width="11" height="11" x="3" y="3" rx="1.493" ry="1.493"/><path fill="#f29b00" d="M4 8.003V12c0 .552.447.999.999.999H12A1 1 0 0 0 13 12V8a1 1 0 0 0-1-1H5.003C4.449 7 4 7.449 4 8.003"/><path d="M4 6h9v1H4z"/><rect width="9" height="2" x="4" y="4" fill="#efe39a" rx="1" ry="1"/><path fill="red" d="m6 10 1 1V6.003C7 5.449 6.551 5 5.997 5A.997.997 0 0 0 5 5.997V11z"/><path id="icon_shadow" fill="url(#linear-gradient)" d="m5 4 1-.006h1v9H6L5 13z"/><path id="flap" d="M5 2.946c0-.603-.37-1.145-.931-1.364L0 0v11.994l4.113 1.936c.31.146.681.013.828-.298a.6.6 0 0 0 .05-.224z" class="cls-3"/></g></svg>