<svg xmlns="http://www.w3.org/2000/svg" id="Done" viewBox="0 0 14 14"><defs><linearGradient id="linear-gradient" x1="398.861" x2="398.861" y1="-893.009" y2="-889.009" gradientTransform="matrix(.5 0 0 -.5 -196.43 -444.505)" gradientUnits="userSpaceOnUse"><stop offset="0"/><stop offset="1" stop-opacity=".151"/></linearGradient><style>.cls-1{fill:silver}</style></defs><g id="Layer_39_copy_4"><path id="Folder_Back" fill="#ff13c0" d="M1 0C.529 0 0 .529 0 1v7c0 .471.529 1 1 1h10c.471 0 1-.529 1-1V2c0-.471-.529-1-1-1H6c0-.471-.529-1-1-1z"/><path id="Tab" fill="url(#linear-gradient)" d="M1 0C.529 0 0 .529 0 1s.529 1 1 1h4c.471 0 1-.529 1-1s-.529-1-1-1z" opacity=".723" style="isolation:isolate"/><g id="Layer_57_copy_2"><path d="M13.745 4.57C12.365.856 5.85 2.227 6.217 6.067c-3.096-.371-5.114 4.535-2.87 6.701 2.013 2.668 7.368.727 6.943-2.553 1.807.292 3.71-2.458 3.71-3.324 0-.819 0-1.54-.255-2.323Z"/><path d="M12.155 4.05a2.926 2.926 0 0 0-4.037.147l-.75.749a.833.833 0 0 0 .27 1.35.83.83 0 0 0 .9-.18l.765-.764A1.27 1.27 0 0 1 11 5.241a1.23 1.23 0 0 1 .439 1.026 1.28 1.28 0 0 1-.39.821l-.768.768a.827.827 0 0 0 .244 1.39.83.83 0 0 0 .926-.22l.8-.799a2.89 2.89 0 0 0-.1-4.181zM8.562 9.923a.82.82 0 0 0-.585.244l-.868.868a1.237 1.237 0 0 1-1.85-.12 1.26 1.26 0 0 1 .144-1.655l.833-.83a.829.829 0 1 0-1.17-1.171l-.816.813a2.926 2.926 0 0 0-.154 4.036 2.86 2.86 0 0 0 2.07.953h.074a2.87 2.87 0 0 0 2.042-.844l.868-.868a.832.832 0 0 0-.585-1.416z" class="cls-1"/><path d="M9.747 6.654a.725.725 0 0 0-1.023 0l-2.104 2.1a.725.725 0 1 0 1.023 1.024l2.104-2.1a.726.726 0 0 0 0-1.022z" class="cls-1"/></g></g></svg>