<svg xmlns="http://www.w3.org/2000/svg" id="Done" viewBox="0 0 14 14"><defs><radialGradient id="radial-gradient" cx="109.047" cy="-123.826" r="1.587" fx="109.047" fy="-123.826" gradientTransform="matrix(3.43528 2.2902 1.25984 -1.88975 -214.606 -480.74)" gradientUnits="userSpaceOnUse"><stop offset="0"/><stop offset="1" stop-opacity="0"/></radialGradient><linearGradient id="linear-gradient" x1="62.378" x2="62.907" y1="-136.212" y2="-136.212" gradientTransform="matrix(3.7795 0 0 -3.7795 -230.758 -506.308)" gradientUnits="userSpaceOnUse"><stop offset="0"/><stop offset="1" stop-opacity="0"/></linearGradient><style>.cls-1{fill:#ff6700}</style></defs><g id="Layer_40"><path id="folder" d="M0 0v12l4.113 1.936A.62.62 0 0 0 5 13.37V11h6V1c-.004-.745-.409-.99-1-1z" class="cls-1"/><path id="folder_shadow" d="m-.018 0 4.085 1.588c.562.219.933.76.933 1.364V11h6V1c-.004-.745-.41-.99-1.002-1z" opacity=".3" style="isolation:isolate"/><path id="flap_shadow" fill="url(#radial-gradient)" d="M10 11c.706-.08 1.081-.38 1-.984V5q.997-.003 1-1V1c.005-.64-.31-.99-1-1H0v11z" opacity=".711" style="isolation:isolate"/><g id="g523"><path id="path518" fill-rule="evenodd" d="M8 5 7 6H6L5 5 4 6 3 7l1 1v1l-1 1 2 2 1-1h1l2 2 1 1h2l2-2V5l-2-2h-2z"/><path id="path520" fill="#007dd2" fill-rule="evenodd" d="M11.07 4h-1l-6 6 1 1 7-5 1-1z"/><path id="path521" fill="#0098ff" fill-rule="evenodd" d="M11.07 13h-1l-6-6 .51-.511L5.07 6l7 5 1.01.989z"/><path id="path522" fill="#41b3ff" fill-rule="evenodd" d="M11 13h-1l1-1V5l-1-1h1l2 1v7z"/></g><path id="icon_shadow" fill="url(#linear-gradient)" d="m5.011 5.347.99.655.999.195V10l-1 .999-1 .671z"/><path id="flap" d="M5 2.951c0-.603-.37-1.145-.931-1.363L0 .006V12l4.113 1.935c.31.147.681.014.828-.298a.6.6 0 0 0 .05-.224z" class="cls-1"/></g></svg>