<?xml version="1.0" encoding="UTF-8"?><svg id="Done" xmlns="http://www.w3.org/2000/svg" xmlns:xlink="http://www.w3.org/1999/xlink" viewBox="0 0 14 14"><defs><style>.cls-1{fill:lime;}.cls-1,.cls-2{fill-rule:evenodd;}.cls-3{fill:#a040ff;}.cls-4{fill:url(#linear-gradient);isolation:isolate;opacity:.723;}</style><linearGradient id="linear-gradient" x1="1048.8608" y1="-893.0094" x2="1048.8608" y2="-889.0094" gradientTransform="translate(-521.4304 -444.5047) scale(.5 -.5)" gradientUnits="userSpaceOnUse"><stop offset="0" stop-color="#000"/><stop offset="1" stop-color="#000" stop-opacity=".151"/></linearGradient></defs><g id="Layer_24_copy_2"><path id="folder" class="cls-3" d="m1,0C.5286,0,0,.5286,0,1v7c0,.4714.5286,1,1,1h10c.4714,0,1-.5286,1-1V2c0-.4714-.5286-1-1-1h-5C6,.5286,5.4714,0,5,0H1Z"/><path id="tab" class="cls-4" d="m1,0C.5286,0,0,.5286,0,1s.5286,1,1,1h4c.4714,0,1-.5286,1-1S5.4714,0,5,0H1Z"/><polygon points="8.0015 3.9923 8 3 10 3 14 7.9969 10 13 8 13 8.0015 3.9923"/><polygon points="9.7067 12.7061 8.0015 12.7023 8.0127 9.6454 9.5245 9.6454 9.7067 12.7061"/><polygon class="cls-2" points="9.6987 3.2856 8.0127 3.253 8.0127 6.9511 9.0063 6.2233 8.9361 3.8864 9.2364 4 9.6987 3.2856"/><path class="cls-2" d="m8.0518,11.6836l.5605-1.6836H3v-4h5.6123l-.5605-1.6836,1.6553-1.0234,2.5693,2.5693-.2646.603c.0283.0327.0723.0859.1182.1377.1035.0942.1729.1455.2422.1968l-.4336.6675.4814-.6313-.0303.0552.0381-.0493-.041.0542-.0957.1714.1621-.2061.2266.1777.1035.2754.8867.8359-1.0195.6567c-.0957.0684-.1553.1099-.2129.1562-.043.0405-.0781.1011-.1172.1558-.0068.0195-.0264.0615-.0449.1113l.2305.5508-.4346.5615-2.3643,2.3643-1.6553-1.0234Z"/><path id="path968" class="cls-1" d="m4,9h6l-1,3,4-4-4-4,1,3h-6v2Z"/></g></svg>