<?xml version="1.0" encoding="UTF-8"?><svg id="Done" xmlns="http://www.w3.org/2000/svg" xmlns:xlink="http://www.w3.org/1999/xlink" viewBox="0 0 14 14"><defs><style>.cls-1,.cls-2,.cls-3{fill:#fff;fill-rule:evenodd;}.cls-4{fill:url(#linear-gradient);isolation:isolate;opacity:.723;}.cls-5{fill:#ff2020;}.cls-2{stroke-width:2px;}.cls-2,.cls-3{stroke:#000;stroke-linejoin:round;}.cls-3{stroke-width:2px;}</style><linearGradient id="linear-gradient" x1="762.8608" y1="-737.0094" x2="762.8608" y2="-733.0094" gradientTransform="translate(-378.4304 -366.5047) scale(.5 -.5)" gradientUnits="userSpaceOnUse"><stop offset="0" stop-color="#000"/><stop offset="1" stop-color="#000" stop-opacity=".151"/></linearGradient></defs><g id="Layer_31"><g id="g290"><path id="path310" class="cls-5" d="m1,0C.5286,0,0,.5286,0,1v7c0,.4714.5286,1,1,1h10c.4714,0,1-.5286,1-1V2c0-.4714-.5286-1-1-1h-5c0-.4714-.5286-1-1-1H1Z"/><path id="path311" class="cls-4" d="m1,0C.5286,0,0,.5286,0,1s.5286,1,1,1h4c.4714,0,1-.5286,1-1S5.4714,0,5,0H1Z"/><g id="g289"><rect id="rect281" x="7" y="4" width="2" height="10"/><rect id="rect282" x="5" y="7" width="6" height="4"/><path id="path283" class="cls-3" d="m7,12v-1l-2-2,2-2v-2l-.5791.5791-.4209.4209-1,1-2,2,1,1,1,1,1,1,1,1v-1Z"/><path id="path284" class="cls-2" d="m9,12v-1l2-2-2-2v-2l.5791.5791.4209.4209,1,1,2,2-1,1-1,1-1,1-1,1v-1Z"/><path id="path285" class="cls-1" d="m9,12v-1l2-2-2-2v-2l.5791.5791.4209.4209,1,1,2,2-1,1-1,1-1,1-1,1v-1Z"/><path id="path289" class="cls-1" d="m7,12v-1l-2-2,2-2v-2l-.5791.5791-.4209.4209-1,1-2,2,1,1,1,1,1,1,1,1v-1Z"/></g></g></g></svg>