<svg xmlns="http://www.w3.org/2000/svg" id="Done" viewBox="0 0 14 14"><defs><radialGradient id="radial-gradient" cx="219.835" cy="-226.626" r="1.587" fx="219.835" fy="-226.626" gradientTransform="matrix(3.43528 2.2902 1.25984 -1.88975 -465.68 -928.732)" gradientUnits="userSpaceOnUse"><stop offset="0"/><stop offset="1" stop-opacity="0"/></radialGradient><linearGradient id="linear-gradient" x1="157.982" x2="158.511" y1="-201.968" y2="-201.968" gradientTransform="matrix(3.7795 0 0 -3.7795 -592.097 -754.844)" gradientUnits="userSpaceOnUse"><stop offset="0"/><stop offset="1" stop-opacity="0"/></linearGradient><style>.cls-1{fill:#a040ff}</style></defs><g id="Layer_40_copy_5"><path id="folder" d="M0 0v12l4.113 1.936A.62.62 0 0 0 5 13.37V11h6V1c-.004-.745-.409-.99-1-1z" class="cls-1"/><path id="back_shadow" d="m-.018 0 4.085 1.588c.562.219.933.76.933 1.364V11h6V1c-.004-.745-.41-.99-1.002-1z" opacity=".3" style="isolation:isolate"/><path id="flap_shadow" fill="url(#radial-gradient)" d="M10 11c.706-.08 1.081-.38 1-.984V5q.997-.003 1-1V1c.005-.64-.31-.99-1-1H0v11z" opacity=".711" style="isolation:isolate"/><g id="_01"><path d="M12 3.041V3H5v.041L3 5v7l2 2h7l2-2V5z"/><path fill="#ccc" d="M13 7V6h-1s0-1-1-1V4h-1v1H9V4H8v1H7V4H6v1C5 5 5 6 5 6H4v1h1v1H4v1h1v1H4v1h1c0 1 1 1 1 1v1h1v-1h1v1h1v-1h1v1h1v-1c1 0 1-1 1-1h1v-1h-1V9h1V8h-1V7z"/><path fill="#586977" d="M6 5h5c1 0 1 1 1 1v5s0 1-1 1H6s-1 0-1-1V6s0-1 1-1"/><path fill="#00ff06" d="M7 7h3v3H7z"/></g><path id="icon_shadow" fill="url(#linear-gradient)" d="M5 4h2v9H5z"/><path id="flap" d="M5 2.951c0-.603-.37-1.145-.931-1.363L0 .006V12l4.113 1.935c.31.147.681.014.828-.298a.6.6 0 0 0 .05-.224z" class="cls-1"/></g></svg>