<?xml version="1.0" encoding="UTF-8"?><svg id="Done" xmlns="http://www.w3.org/2000/svg" width="16" height="16" xmlns:xlink="http://www.w3.org/1999/xlink" viewBox="0 0 16 16"><defs><style>.cls-1{fill:#a040ff;}.cls-2{fill:#decd87;}.cls-2,.cls-3,.cls-4,.cls-5{fill-rule:evenodd;}.cls-3{fill:#504416;}.cls-6{fill:url(#linear-gradient);isolation:isolate;opacity:.723;}.cls-4{fill:#100c00;}</style><linearGradient id="linear-gradient" x1="165.8607" y1="-996.0094" x2="165.8607" y2="-992.0094" gradientTransform="translate(-78.9304 -495.0047) scale(.5 -.5)" gradientUnits="userSpaceOnUse"><stop offset="0" stop-color="#000"/><stop offset="1" stop-color="#000" stop-opacity=".151"/></linearGradient></defs><g id="Layer_27"><g id="g68"><path id="path338" class="cls-1" d="m2,1c-.4714,0-1,.5286-1,1v7c0,.4714.5286,1,1,1h10c.4714,0,1-.5286,1-1V3c0-.4714-.5286-1-1-1h-5c0-.4714-.5286-1-1-1h-4Z"/><path id="path339" class="cls-6" d="m2,1c-.4714,0-1,.5286-1,1s.5286,1,1,1h4c.4714,0,1-.5286,1-1s-.5286-1-1-1h-4Z"/><g id="g12"><path id="rect12" class="cls-5" d="m3,5h12v3l-1,1v6H4v-6l-1-1v-3Z"/><path id="rect7" class="cls-2" d="m4,8h10l-1,1v5s-8,0-8,0v-5s-1-1-1-1Z"/><path id="rect8" class="cls-2" d="m4,6h10v2H4v-2Z"/><path id="rect9" class="cls-3" d="m5.0696,8h9l-1,1h-8l-1-1h1Z"/><path id="rect10" class="cls-4" d="m7,10h4v1h-4v-1Z"/></g></g></g></svg>