<?xml version="1.0" encoding="UTF-8"?><svg id="Done" xmlns="http://www.w3.org/2000/svg" xmlns:xlink="http://www.w3.org/1999/xlink" viewBox="0 0 14 14"><defs><style>.cls-1{fill:#a040ff;}.cls-2{opacity:.3;}.cls-2,.cls-3{isolation:isolate;}.cls-4{fill:#ffe68f;}.cls-4,.cls-5{fill-rule:evenodd;}.cls-6{fill:url(#linear-gradient);}.cls-3{fill:url(#radial-gradient);opacity:.711;}</style><radialGradient id="radial-gradient" cx="121.2733" cy="-136.526" fx="121.2733" fy="-136.526" r="1.5875" gradientTransform="translate(-240.606 -532.7402) rotate(33.6901) scale(4.1287 -2.2712)" gradientUnits="userSpaceOnUse"><stop offset="0" stop-color="#000"/><stop offset="1" stop-color="#000" stop-opacity="0"/></radialGradient><linearGradient id="linear-gradient" x1="69.2569" y1="-149.9679" x2="69.7861" y2="-149.9679" gradientTransform="translate(-256.7584 -558.3085) scale(3.7795 -3.7795)" gradientUnits="userSpaceOnUse"><stop offset="0" stop-color="#000"/><stop offset="1" stop-color="#000" stop-opacity="0"/></linearGradient></defs><g id="Layer_18"><path id="path472" class="cls-1" d="m0-.0005v12l4.1131,1.9355c.3105.1468.681.0135.8275-.2976.0393-.0834.0596-.1746.0594-.2668v-2.3711h6V.9995c-.004-.745-.4086-.9893-1-1H0Z"/><path id="path473" class="cls-2" d="m-.0179-.0005l4.0855,1.5882c.5621.2185.9324.7597.9324,1.3628v8.049h6V.9995c-.004-.745-.4093-.9893-1.0016-1H-.0179Z"/><path id="path474" class="cls-3" d="m10,10.9995c.7057-.0798,1.0812-.3798,1-.9844v-5.0156c.6647-.0018.998-.3352,1-1V.9995c.0053-.6399-.3093-.9903-1-1H0v11h10Z"/><path id="path583" class="cls-5" d="m4,3h10v11H4V3Z"/><path id="path584" class="cls-4" d="m5,4v9h8V4H5Zm1,1h6v1h-6v-1Zm0,2h5v1h-5v-1Zm2,4h4v1h-4v-1Z"/><path id="path480" class="cls-6" d="m5,3.9995h2v9h-2V3.9995Z"/><path id="Flap" class="cls-1" d="m5,2.9511c.0005-.6031-.3694-1.1446-.9315-1.3632L0,.0056v11.994l4.1131,1.9355c.3105.1468.681.0135.8275-.2976.033-.0701.0446-.1472.0499-.2242l.0095-10.4621Z"/></g></svg>