<svg xmlns="http://www.w3.org/2000/svg" id="Done" viewBox="0 0 14 14"><defs><radialGradient id="radial-gradient" cx="105.554" cy="-155.576" r="1.587" fx="105.554" fy="-155.576" gradientTransform="matrix(3.43528 2.2902 1.25984 -1.88975 -162.606 -532.74)" gradientUnits="userSpaceOnUse"><stop offset="0"/><stop offset="1" stop-opacity="0"/></radialGradient><linearGradient id="linear-gradient" x1="48.619" x2="49.149" y1="-149.968" y2="-149.968" gradientTransform="matrix(3.7795 0 0 -3.7795 -178.758 -558.308)" gradientUnits="userSpaceOnUse"><stop offset="0"/><stop offset="1" stop-opacity="0"/></linearGradient><style>.cls-5{fill:#999}</style></defs><g id="Layer_26"><path id="folder" d="M0 0v12l4.113 1.935A.62.62 0 0 0 5 13.371v-2.372h6V1c-.004-.745-.409-.989-1-1z" class="cls-5"/><path id="folder_shadow" d="m-.018 0 4.086 1.588c.562.218.932.76.932 1.363v8.048h6V1c-.004-.745-.41-.989-1.002-1z" opacity=".3" style="isolation:isolate"/><path id="flap_shadow" fill="url(#radial-gradient)" d="M10 11c.706-.08 1.081-.38 1-.985V5q.997-.002 1-1V1c.005-.64-.31-.99-1-1H0v11z" opacity=".711" style="isolation:isolate"/><g id="g231"><path id="path225" stroke="#000" stroke-miterlimit="1.839" stroke-width="2" d="M7 5H6v1h2v1H5L4 8v2l1 1h1v1l1 1h3v-1h1v-1H9v-1h3l1-1V7l-1-1h-1V5l-1-1H7z"/><path id="path226" fill="#95afae" d="M7 4v1H6v1h2v1H5L4 8v2l1 1h1l2-1h1V9h2V5l-1-1z"/><path id="path227" fill="#afaa95" d="M10 8 9 9H8l-1 1-1 1v1l1 1h3v-1h1v-1H9v-1h3l1-1V7l-1-1h-1v1z"/><path d="m11 5-1 1v1L9 8h-.93l-1 1H7l-1 1v2l1-1v-1l1-1h1.07l1-1H10l1-.864z"/></g><path id="icon_shadow" fill="url(#linear-gradient)" d="m5 6 1-1 1-1v9l-1-1-1-1z"/><path id="Flap" d="M5 2.951c0-.603-.37-1.145-.931-1.363L0 .006V12l4.113 1.935c.31.147.681.014.828-.298a.6.6 0 0 0 .05-.224z" class="cls-5"/></g></svg>