<?xml version="1.0" encoding="UTF-8"?><svg id="Done" xmlns="http://www.w3.org/2000/svg" width="16" height="16" xmlns:xlink="http://www.w3.org/1999/xlink" viewBox="0 0 16 16"><defs><style>.cls-1{fill:#ff6700;}.cls-2{fill:url(#linear-gradient);isolation:isolate;opacity:.723;}.cls-3{fill:#41b3ff;}.cls-3,.cls-4,.cls-5,.cls-6{fill-rule:evenodd;}.cls-4{fill:#007dd2;}.cls-6{fill:#0098ff;}</style><linearGradient id="linear-gradient" x1="555.8608" y1="-736.0094" x2="555.8608" y2="-732.0094" gradientTransform="translate(-273.9304 -365.0047) scale(.5 -.5)" gradientUnits="userSpaceOnUse"><stop offset="0" stop-color="#000"/><stop offset="1" stop-color="#000" stop-opacity=".151"/></linearGradient></defs><g id="Layer_39"><g id="g1915"><path id="path278" class="cls-1" d="m2,1c-.4714,0-1,.5286-1,1v7c0,.4714.5286,1,1,1h10c.4714,0,1-.5286,1-1V3c0-.4714-.5286-1-1-1h-5c0-.4714-.5286-1-1-1H2Z"/><path id="path279" class="cls-2" d="m2,1c-.4714,0-1,.5286-1,1s.5286,1,1,1h4c.4714,0,1-.5286,1-1s-.5286-1-1-1H2Z"/><g id="g87"><path id="path83" class="cls-5" d="m9,6l-1,1h-1l-1-1-1,1-1,1,1,1v1l-1,1,2,2,1-1h1l2,2,1,1h2l2-2v-7l-2-2h-2l-2,2Z"/><g id="g88"><path id="path85" class="cls-4" d="m12.0696,5h-1l-6,6,1,1,7-5,1-1h0l-2-1Z"/><path id="path86" class="cls-6" d="m12.0696,14h-1l-6-6,.5111-.5111.4889-.4889,7,5,1.0103.9888h0l-2.0103,1.0112Z"/><path id="path87" class="cls-3" d="m12,14h-1l1-1v-7l-1-1h1l2,1v7l-2,1Z"/></g></g></g></g></svg>