<?xml version="1.0" encoding="UTF-8"?><svg id="Done" xmlns="http://www.w3.org/2000/svg" width="16" height="16" xmlns:xlink="http://www.w3.org/1999/xlink" viewBox="0 0 16 16"><defs><style>.cls-1{fill:#a040ff;}.cls-2{opacity:.3;}.cls-2,.cls-3{isolation:isolate;}.cls-4{fill:#decd87;}.cls-4,.cls-5,.cls-6,.cls-7{fill-rule:evenodd;}.cls-5{fill:#504416;}.cls-6{fill:#100c00;}.cls-8{fill:url(#linear-gradient);}.cls-3{fill:url(#radial-gradient);opacity:.711;}</style><radialGradient id="radial-gradient" cx="141.4858" cy="-84.7261" fx="141.4858" fy="-84.7261" r="1.5875" gradientTransform="translate(-374.3012 -480.1406) rotate(33.6901) scale(4.1287 -2.2712)" gradientUnits="userSpaceOnUse"><stop offset="0" stop-color="#000"/><stop offset="1" stop-color="#000" stop-opacity="0"/></radialGradient><linearGradient id="linear-gradient" x1="104.6527" y1="-135.2097" x2="105.1819" y2="-135.2097" gradientTransform="translate(-389.5379 -501.5289) scale(3.7795 -3.7795)" gradientUnits="userSpaceOnUse"><stop offset="0" stop-color="#000"/><stop offset="1" stop-color="#000" stop-opacity="0"/></linearGradient></defs><g id="Layer_28"><path id="path340" class="cls-1" d="m1,1v12l4.1131,1.9355c.3105.1468.681.0135.8275-.2976.0393-.0834.0596-.1746.0594-.2668v-2.3711h6V2c-.004-.745-.4086-.9893-1-1H1Z"/><g id="g353"><path id="path341" class="cls-2" d="m.9821,1l4.0855,1.5882c.5621.2185.9324.7597.9324,1.3628v8.049h6V2c-.004-.745-.4093-.9893-1.0016-1H.9821Z"/><path id="path342" class="cls-3" d="m11,12c.7057-.0798,1.0812-.3798,1-.9844v-5.0156c.6647-.0018.998-.3352,1-1V2c.0053-.6399-.3093-.9903-1-1H1v11h10Z"/><g id="g76"><path id="path70" class="cls-7" d="m3,5h12v3l-1,1v6H5.376l-1.376-.6542v-5.3458l-1-1v-3Z"/><path id="path71" class="cls-4" d="m4,8h10l-1,1v5s-8,0-8,0v-5s-1-1-1-1Z"/><path id="path74" class="cls-4" d="m4,6h10v2H4v-2Z"/><path id="path75" class="cls-5" d="m5.0696,8h9l-1,1h-8l-1-1h1Z"/><path id="path76" class="cls-6" d="m7,10h4v1h-4v-1Z"/></g><path id="path352" class="cls-8" d="m6,5h2v9h-2V5Z"/></g><path class="cls-1" d="m6,3.9511c.0005-.6031-.3694-1.1446-.9315-1.3632L1,1.0056v11.994l4.1131,1.9355c.3105.1468.681.0135.8275-.2976.033-.0701.0446-.1472.0499-.2242l.0095-10.4621Z"/></g></svg>