<?xml version="1.0" encoding="UTF-8"?><svg id="Done" xmlns="http://www.w3.org/2000/svg" width="16" height="16" xmlns:xlink="http://www.w3.org/1999/xlink" viewBox="0 0 16 16"><defs><style>.cls-1,.cls-2{fill:silver;}.cls-3{opacity:.3;}.cls-3,.cls-4{isolation:isolate;}.cls-5{fill:#40a0ff;}.cls-2,.cls-6{fill-rule:evenodd;}.cls-7{fill:url(#linear-gradient);}.cls-8{fill:red;}.cls-4{fill:url(#radial-gradient);opacity:.711;}</style><radialGradient id="radial-gradient" cx="120.5267" cy="-110.1261" fx="120.5267" fy="-110.1261" r="1.5875" gradientTransform="translate(-270.3012 -480.1406) rotate(33.6901) scale(4.1287 -2.2712)" gradientUnits="userSpaceOnUse"><stop offset="0" stop-color="#000"/><stop offset="1" stop-color="#000" stop-opacity="0"/></radialGradient><linearGradient id="linear-gradient" x1="77.1361" y1="-135.2097" x2="77.6652" y2="-135.2097" gradientTransform="translate(-285.5379 -501.5289) scale(3.7795 -3.7795)" gradientUnits="userSpaceOnUse"><stop offset="0" stop-color="#000"/><stop offset="1" stop-color="#000" stop-opacity="0"/></linearGradient></defs><g id="Layer_36"><path id="path560" class="cls-5" d="m1,1v12l4.1131,1.9355c.3105.1468.681.0135.8275-.2976.0393-.0834.0596-.1746.0594-.2668v-2.3711h6V2c-.004-.745-.4086-.9893-1-1H1Z"/><g id="g567"><path id="path561" class="cls-3" d="m.9821,1l4.0855,1.5882c.5621.2185.9324.7597.9324,1.3628v8.049h6V2c-.004-.745-.4093-.9893-1.0016-1H.9821Z"/><path id="path562" class="cls-4" d="m11,12c.7057-.0798,1.0812-.3798,1-.9844v-5.0156c.6647-.0018.998-.3352,1-1V2c.0053-.6399-.3093-.9903-1-1H1v11h10Z"/><g id="g201"><rect id="rect197" x="6" y="5" width="7" height="3"/><polygon id="rect198" class="cls-6" points="4 7 15 7 15 15 5.3802 15 4 14 4 7"/><path id="path198" class="cls-2" d="m7,6h5v2h-1v-1h-3l.0313,1h-1.0313v-2Z"/><rect id="rect199" class="cls-8" x="5" y="8" width="9" height="6"/><rect id="rect200" x="4" y="10" width="10" height="1"/><rect id="rect201" class="cls-1" x="9" y="10" width="1" height="2"/></g><path id="path567" class="cls-7" d="m6,5h2v9h-2V5Z"/></g><path class="cls-5" d="m6,3.9511c.0005-.6031-.3694-1.1446-.9315-1.3632L1,1.0056v11.994l4.1131,1.9355c.3105.1468.681.0135.8275-.2976.033-.0701.0446-.1472.0499-.2242l.0095-10.4621Z"/></g></svg>