<?xml version="1.0" encoding="UTF-8"?><svg id="Done" xmlns="http://www.w3.org/2000/svg" width="16" height="16" xmlns:xlink="http://www.w3.org/1999/xlink" viewBox="0 0 16 16"><defs><style>.cls-1{fill:#ffeead;}.cls-2{opacity:.3;}.cls-2,.cls-3{isolation:isolate;}.cls-3{fill:url(#radial-gradient);opacity:.307;}.cls-4{fill:#ffecb1;}</style><radialGradient id="radial-gradient" cx="115.8538" cy="-175.4657" fx="115.8538" fy="-175.4657" r="1.5875" gradientTransform="translate(-433.8726 -547.6476) scale(3.7795 -3.1496)" gradientUnits="userSpaceOnUse"><stop offset="0" stop-color="#000"/><stop offset="1" stop-color="#000" stop-opacity="0"/></radialGradient></defs><g id="Layer_8"><g id="g125"><path id="path118" class="cls-4" d="m10.99,12c.6854-.0256,1.009-.3705,1.01-1v-5c.7783-.0143.999-.4284,1-1V2c-.0008-.6765-.343-1.0006-1-1l-11-.0005h0v10.0005s2.0201,1,2.0201,1h7.9699Z"/><path id="path169" class="cls-2" d="m11,12c.6712.0196.9916-.3273,1-1v-5c.6732-.0083,1.0045-.3435,1-1V2c-.004-.745-.4086-.9893-1-1l-11-.0005h0v10.0005s2,1,2,1h8Z"/><path id="path170" class="cls-3" d="m11,12c.7057-.0798,1.0812-.3798,1-.9844v-5.0156c.6647-.0018.998-.3352,1-1V2c.0053-.6399-.3093-.9903-1-1H1v11h10Z"/><path id="path298" class="cls-4" d="m6,3.9121v10.4198c0,.3465-.2809.6274-.6274.6274-.0908,0-.1805-.0197-.2629-.0577l-4.1096-1.8965V1.0051l4.0656,1.5506c.5626.2146.9344.7542.9344,1.3564Z"/></g><path id="Flap" class="cls-1" d="m6,3.9511c.0005-.6031-.3694-1.1446-.9315-1.3632L1,1.0056v11.994l4.1131,1.9355c.3105.1468.681.0135.8275-.2976.033-.0701.0446-.1472.0499-.2242l.0095-10.4621Z"/></g></svg>