<svg xmlns="http://www.w3.org/2000/svg" id="Layer_23_copy_9" viewBox="0 0 14 14"><defs><radialGradient id="radial-gradient" cx="48.91" cy="-144.674" r="1.587" fx="48.91" fy="-144.674" gradientTransform="matrix(3.43528 2.2902 1.25984 -1.88975 18.247 -382.418)" gradientUnits="userSpaceOnUse"><stop offset="0"/><stop offset="1" stop-opacity="0"/></radialGradient><linearGradient id="linear-gradient" x1="14.663" x2="15.457" y1="-227.968" y2="-227.968" gradientTransform="matrix(3.7795 0 0 -3.7795 -51.42 -853.112)" gradientUnits="userSpaceOnUse"><stop offset="0"/><stop offset="1" stop-opacity="0"/></linearGradient><style>.cls-1{fill:#a040ff}.cls-4{fill:#0f0}</style></defs><path id="folder" d="M0-.006v12l4.113 1.936A.62.62 0 0 0 5 13.366v-2.372h6v-10c-.004-.745-.409-.989-1-1z" class="cls-1"/><path id="folder_shadow" d="m-.018-.006 4.085 1.588c.562.219.933.76.933 1.364v8.048h6v-10c-.004-.745-.41-.989-1.002-1z" opacity=".3" style="isolation:isolate"/><path id="flap_shadow" fill="url(#radial-gradient)" d="M10 10.994c.706-.08 1.081-.38 1-.984V4.994q.997-.002 1-1v-3c.005-.64-.31-.99-1-1H0v11z" opacity=".711" style="isolation:isolate"/><g id="Layer_89_copy"><path d="M8 14v-3.092c-.491-.094-.843-.243-1.09-.346l-.054-.024q-.036.04-.085.099L5 12.779V9c0-.584 0-2.363 1.589-2.363.299 0 .586.069.919.15q.23.056.491.11V4h2.463L14 8.163V9.88L10.459 14z"/><path d="M5 11.39v.345C5.963 10.57 7 10 9 10v3l4-4.03L9 5v3c-2.21 0-4 1.098-4 3.39" class="cls-4"/><path d="M5 14v-3.106a3 3 0 0 1-.35-.112L3 12.78l-.003-4.31c-.008-.736-.012-1.14.353-1.508l.294-.296.49-.028c.239 0 .428.07.612.139q.111.042.254.087V4h2.618l2.5 5-2.5 5z"/><path d="m4 9 1 1c.963-1.165-1 0 1 0v3l4-4.03L6 5v3C3.79 8 4 6.708 4 9" class="cls-4"/><path d="M2 11.414V4h2.618l2.536 5.072-2.999 4.497z"/><path d="M3 11v2l4-4.03L3 5z" class="cls-4"/></g><path id="icon_shadow" fill="url(#linear-gradient)" d="M4 4h3v9H4z"/><path id="flap" d="M5 2.946c0-.603-.37-1.145-.931-1.364L0 0v11.994l4.113 1.936c.31.146.681.013.828-.298a.6.6 0 0 0 .05-.224z" class="cls-1"/></svg>