<svg xmlns="http://www.w3.org/2000/svg" id="Done" viewBox="0 0 14 14"><defs><radialGradient id="radial-gradient" cx="240.595" cy="-232.976" r="1.587" fx="240.595" fy="-232.976" gradientTransform="matrix(3.43528 2.2902 1.25984 -1.88975 -528.997 -988.277)" gradientUnits="userSpaceOnUse"><stop offset="0"/><stop offset="1" stop-opacity="0"/></radialGradient><linearGradient id="linear-gradient" x1="176.838" x2="177.632" y1="-202.1" y2="-202.1" gradientTransform="matrix(3.7795 0 0 -3.7795 -664.365 -754.844)" gradientUnits="userSpaceOnUse"><stop offset=".324"/><stop offset="1" stop-opacity="0"/></linearGradient><style>.cls-1{fill:silver}.cls-4{fill:#ff13c0}</style></defs><g id="Layer_40_copy_4"><path id="path332" d="M0 0v12l4.113 1.936A.62.62 0 0 0 5 13.37V11l4.234-.57 1.45-1.55L11 6.875V1c-.004-.745-.409-.99-1-1z" class="cls-4"/><path id="back_shadow" d="m-.018 0 4.085 1.588c.562.219.933.76.933 1.364V11h4.544l.505-1.06L11 8.554V1c-.004-.745-.41-.99-1.002-1z" opacity=".3" style="isolation:isolate"/><path id="flap_shadow" fill="url(#radial-gradient)" d="M10 11c.706-.08 1.081-.38 1-.984V5q.997-.003 1-1V1c.005-.64-.31-.99-1-1H0v11z" opacity=".711" style="isolation:isolate"/><g id="Layer_57_copy"><path d="M13.745 4.57C12.365.856 5.85 2.227 6.217 6.067c-3.096-.371-5.114 4.535-2.87 6.701 2.013 2.668 7.368.727 6.943-2.553 1.807.292 3.71-2.458 3.71-3.324 0-.819 0-1.54-.255-2.323Z"/><path d="M12.155 4.05a2.926 2.926 0 0 0-4.037.147l-.75.749a.833.833 0 0 0 .27 1.35.83.83 0 0 0 .9-.18l.765-.764A1.27 1.27 0 0 1 11 5.241a1.23 1.23 0 0 1 .439 1.026 1.28 1.28 0 0 1-.39.821l-.768.768a.827.827 0 0 0 .244 1.39.83.83 0 0 0 .926-.22l.8-.799a2.89 2.89 0 0 0-.1-4.181zM8.562 9.923a.82.82 0 0 0-.585.244l-.868.868a1.237 1.237 0 0 1-1.85-.12 1.26 1.26 0 0 1 .144-1.655l.833-.83a.829.829 0 1 0-1.17-1.171l-.816.813a2.926 2.926 0 0 0-.154 4.036 2.86 2.86 0 0 0 2.07.953h.074a2.87 2.87 0 0 0 2.042-.844l.868-.868a.832.832 0 0 0-.585-1.416z" class="cls-1"/><path d="M9.747 6.654a.725.725 0 0 0-1.023 0l-2.104 2.1a.725.725 0 1 0 1.023 1.024l2.104-2.1a.726.726 0 0 0 0-1.022z" class="cls-1"/></g><path id="icon_shadow" fill="url(#linear-gradient)" d="m4 6 2 1 1-3v9l-1 1-2-1z"/><path d="M5 2.951c0-.603-.37-1.145-.931-1.363L0 .006V12l4.113 1.935c.31.147.681.014.828-.298a.6.6 0 0 0 .05-.224z" class="cls-4"/></g></svg>