<svg xmlns="http://www.w3.org/2000/svg" id="Done" viewBox="0 0 14 14"><defs><radialGradient id="radial-gradient" cx="-20.357" cy="-54.574" r="1.587" fx="-20.357" fy="-54.574" gradientTransform="matrix(3.43528 2.2902 1.25984 -1.88975 142.687 -53.516)" gradientUnits="userSpaceOnUse"><stop offset="0"/><stop offset="1" stop-opacity="0"/></radialGradient><linearGradient id="linear-gradient" x1="-42.435" x2="-41.906" y1="-162.077" y2="-162.077" gradientTransform="matrix(3.7795 0 0 -3.7795 165.383 -604.576)" gradientUnits="userSpaceOnUse"><stop offset="0"/><stop offset="1" stop-opacity="0"/></linearGradient><style>.cls-3{fill:#a040ff}</style></defs><g id="Layer_23_copy_2"><path id="folder" d="M0-.006v12l4.113 1.936A.62.62 0 0 0 5 13.366v-2.372h6v-10c-.004-.745-.409-.989-1-1z" class="cls-3"/><path id="folder_shadow" d="m-.018-.006 4.085 1.588c.562.219.933.76.933 1.364v8.048h6v-10c-.004-.745-.41-.989-1.002-1z" opacity=".3" style="isolation:isolate"/><path id="flap_shadow" fill="url(#radial-gradient)" d="M10 10.994c.706-.08 1.081-.38 1-.984V4.994q.997-.002 1-1v-3c.005-.64-.31-.99-1-1H0v11z" opacity=".711" style="isolation:isolate"/><path fill-rule="evenodd" d="M10 3H8l.002.992V6H4v4h4v3h2l4-5.003z"/><path id="path968" fill="#0f0" fill-rule="evenodd" d="M4 9h6l-1 3 4-4-4-4 1 3H4z"/><path id="icon_shadow" fill="url(#linear-gradient)" d="m5 6 2-.006V10l-2 .006z"/><path id="flap" d="M5 2.946c0-.603-.37-1.145-.931-1.364L0 0v11.994l4.113 1.936c.31.146.681.013.828-.298a.6.6 0 0 0 .05-.224z" class="cls-3"/></g></svg>