<?xml version="1.0" encoding="UTF-8"?><svg id="Done" xmlns="http://www.w3.org/2000/svg" width="16" height="16" xmlns:xlink="http://www.w3.org/1999/xlink" viewBox="0 0 16 16"><defs><style>.cls-1{fill:#06b7ff;}.cls-2{fill:#ff6700;}.cls-3{fill:url(#linear-gradient);isolation:isolate;opacity:.723;}</style><linearGradient id="linear-gradient" x1="477.8608" y1="-892.0094" x2="477.8608" y2="-888.0094" gradientTransform="translate(-234.9304 -443.0047) scale(.5 -.5)" gradientUnits="userSpaceOnUse"><stop offset="0" stop-color="#000"/><stop offset="1" stop-color="#000" stop-opacity=".151"/></linearGradient></defs><g id="Layer_39_copy_2"><g id="Folder"><path id="Folder_Back" class="cls-2" d="m2,1c-.4714,0-1,.5286-1,1v7c0,.4714.5286,1,1,1h10c.4714,0,1-.5286,1-1V3c0-.4714-.5286-1-1-1h-5c0-.4714-.5286-1-1-1H2Z"/><path id="Tab" class="cls-3" d="m2,1c-.4714,0-1,.5286-1,1s.5286,1,1,1h4c.4714,0,1-.5286,1-1s-.5286-1-1-1H2Z"/></g><polygon points="4.3579 14.8389 4.3579 8.5942 2.5278 8.5942 2.5278 5.3228 9.4243 5.3228 9.4243 10 7.5991 10 7.5991 14.8389 4.3579 14.8389"/><path d="m11.4385,14.9668c-1.1846,0-3.2168-.4521-3.5176-3.48l-.0972-.978,1.0635-.1245c-.1689-.2002-.3125-.4253-.4307-.6743-.209-.4385-.3149-.915-.3149-1.415,0-.5835.1382-1.1226.4106-1.6011.2832-.499.6831-.8828,1.187-1.1392.4678-.2388,1.0298-.3604,1.6689-.3604.9893,0,1.7939.293,2.3916.8706.5981.5781.918,1.3765.9507,2.373l.0322.979-.5684.0303c.1572.1919.2896.4038.3975.6353.2075.4453.313.9751.313,1.5728,0,.9058-.2896,1.6851-.8604,2.3164-.5962.6602-1.48.9951-2.626.9951Zm-.085-3.2988"/><g id="Text"><path class="cls-1" d="m5.3579,13.8389v-6.2446h-1.8301v-1.2715h4.8965v1.2715h-1.8252v6.2446h-1.2412Z"/><path class="cls-1" d="m8.916,11.3877l1.2153-.1426c.1367.96.5845,1.4404,1.3433,1.4404.376,0,.6719-.0986.8867-.2949.2158-.1963.3232-.4395.3232-.7305,0-.1709-.0376-.3154-.1128-.4355-.0752-.1191-.1899-.2178-.3433-.2944-.1543-.0771-.5269-.2056-1.1182-.3867-.5298-.1602-.9175-.3345-1.1636-.522-.2461-.188-.4419-.4346-.5869-.7402-.1455-.3057-.2183-.6348-.2183-.9863,0-.4097.0933-.7788.2798-1.1064.186-.3276.4434-.5757.7715-.7427.3281-.1675.7329-.2515,1.2153-.2515.7241,0,1.29.1968,1.6968.5898s.6221.9556.646,1.6865l-1.2461.0669c-.0547-.4033-.1724-.6851-.3535-.8462-.1812-.1602-.4395-.2407-.7744-.2407s-.5928.0698-.7739.2095-.272.3135-.272.5215c0,.2046.0825.3765.2471.5161.1641.1396.542.2935,1.1333.4609.6255.1812,1.0771.3721,1.3555.5718.2783.2002.4912.458.6382.7739.1475.3164.2197.6997.2197,1.1509,0,.6523-.2002,1.2012-.6021,1.6455-.4014.4443-1.0298.666-1.8843.666-1.5107,0-2.3516-.8594-2.5225-2.5791Z"/></g></g></svg>