<svg xmlns="http://www.w3.org/2000/svg" viewBox="0 0 14 14"><defs><linearGradient id="a" x1="1022.861" x2="1022.861" y1="-893.009" y2="-889.009" gradientTransform="matrix(.5 0 0 -.5 -508.43 -444.505)" gradientUnits="userSpaceOnUse"><stop offset="0"/><stop offset="1" stop-opacity=".151"/></linearGradient></defs><path fill="#40a0ff" d="M1 0C.529 0 0 .529 0 1v7c0 .471.529 1 1 1h10c.471 0 1-.529 1-1V2c0-.471-.529-1-1-1H6c0-.471-.529-1-1-1z"/><path fill="url(#a)" d="M1 0C.529 0 0 .529 0 1s.529 1 1 1h4c.471 0 1-.529 1-1s-.529-1-1-1z" opacity=".723" style="isolation:isolate"/><rect width="11" height="11" x="3" y="3" rx="1.493" ry="1.493"/><path fill="#f29b00" d="M4 8.003V12c0 .552.447.999.999.999H12A1 1 0 0 0 13 12V8a1 1 0 0 0-1-1H5.003C4.449 7 4 7.449 4 8.003"/><path d="M4 6h9v1H4z"/><rect width="9" height="2" x="4" y="4" fill="#efe39a" rx="1" ry="1"/><path fill="red" d="m6 10 1 1V6.003C7 5.449 6.551 5 5.997 5A.997.997 0 0 0 5 5.997V11z"/></svg>