<?xml version="1.0" encoding="UTF-8"?><svg id="Layer_24_copy_9" xmlns="http://www.w3.org/2000/svg" xmlns:xlink="http://www.w3.org/1999/xlink" viewBox="0 0 14 14"><defs><style>.cls-1{fill:#a040ff;}.cls-2{fill:url(#linear-gradient);isolation:isolate;opacity:.723;}.cls-3{fill:lime;}</style><linearGradient id="linear-gradient" x1="970.8599" y1="-1049.0094" x2="970.8599" y2="-1045.0094" gradientTransform="translate(-482.4304 -522.5047) scale(.5 -.5)" gradientUnits="userSpaceOnUse"><stop offset="0" stop-color="#000"/><stop offset="1" stop-color="#000" stop-opacity=".151"/></linearGradient></defs><path id="folder" class="cls-1" d="m.9995,0C.5281,0-.0005.5286-.0005,1v7c0,.4714.5286,1,1,1h10c.4714,0,1-.5286,1-1V2c0-.4714-.5286-1-1-1h-5C5.9995.5286,5.4709,0,4.9995,0H.9995Z"/><path id="tab" class="cls-2" d="m.9995,0C.5281,0-.0005.5286-.0005,1s.5286,1,1,1h4c.4714,0,1-.5286,1-1S5.4709,0,4.9995,0H.9995Z"/><g id="Layer_89"><path d="m8,13v-3.0918c-.4912-.0947-.8428-.2432-1.0898-.3467-.0186-.0078-.0361-.0156-.0537-.0234-.0244.0264-.0527.0596-.0859.0986l-1.7705,2.1426v-3.7793c0-.584,0-2.3633,1.5898-2.3633.2988,0,.5859.0693.9189.1494.1543.0371.3174.0762.4912.1104v-2.8965h2.4629l3.5371,4.1631v1.7168l-3.541,4.1201h-2.459Z"/><path class="cls-3" d="m5,10.3896v.3458c.963-1.1655,2-1.7354,4-1.7354v3l4-4.0309-4-3.9691v3c-2.2091,0-4,1.0979-4,3.3896Z"/><path d="m5,13v-3.1064c-.1289-.0322-.2451-.0693-.3496-.1113l-1.6504,1.9971-.0029-4.3105c-.0078-.7354-.0117-1.1406.3525-1.5078l.2939-.2959.4912-.0283c.2383,0,.4277.0703.6113.1387.0752.0273.1582.0586.2539.0879v-2.8633h2.6182l2.5,5-2.5,5h-2.6182Z"/><path class="cls-3" d="m4,8l1,1c.963-1.1655-1,0,1,0v3l4-4.0309-4-3.9691v3c-2.2091,0-2-1.2917-2,1Z"/><polygon points="2 13 2 3 4.6182 3 7.1182 8 4.6182 13 2 13"/><path class="cls-3" d="m3,10v2l4-4.0309-4-3.9691v2s0,4,0,4Z"/></g></svg>