<?xml version="1.0" encoding="UTF-8"?><svg id="Done" xmlns="http://www.w3.org/2000/svg" width="16" height="16" xmlns:xlink="http://www.w3.org/1999/xlink" viewBox="0 0 16 16"><defs><style>.cls-1{fill:#a040ff;}.cls-2{opacity:.3;}.cls-2,.cls-3{isolation:isolate;}.cls-4{fill:url(#linear-gradient);}.cls-5{fill:#d9d9d9;}.cls-3{fill:url(#radial-gradient);opacity:.711;}</style><radialGradient id="radial-gradient" cx="115.287" cy="-116.4761" fx="115.287" fy="-116.4761" r="1.5875" gradientTransform="translate(-244.3012 -480.1406) rotate(33.6901) scale(4.1287 -2.2712)" gradientUnits="userSpaceOnUse"><stop offset="0" stop-color="#000"/><stop offset="1" stop-color="#000" stop-opacity="0"/></radialGradient><linearGradient id="linear-gradient" x1="70.2569" y1="-135.2097" x2="70.7861" y2="-135.2097" gradientTransform="translate(-259.5379 -501.5289) scale(3.7795 -3.7795)" gradientUnits="userSpaceOnUse"><stop offset="0" stop-color="#000"/><stop offset="1" stop-color="#000" stop-opacity="0"/></linearGradient></defs><g id="Layer_38"><path id="path481" class="cls-1" d="m1,1v12l4.1131,1.9355c.3105.1468.681.0135.8275-.2976.0393-.0834.0596-.1746.0594-.2668v-2.3711h6V2c-.004-.745-.4086-.9893-1-1H1Z"/><g id="g486"><path id="path482" class="cls-2" d="m.9821,1l4.0855,1.5882c.5621.2185.9324.7597.9324,1.3628v8.049h6V2c-.004-.745-.4093-.9893-1.0016-1H.9821Z"/><path id="path483" class="cls-3" d="m11,12c.7057-.0798,1.0812-.3798,1-.9844v-5.0156c.6647-.0018.998-.3352,1-1V2c.0053-.6399-.3093-.9903-1-1H1v11h10Z"/><g id="g485"><path id="path484" d="m4,5h11v10h-3.9515l-1.0485-1h-1.0828l-.8739,1h-2.6774l-1.3659-1V5Z"/><path id="path485" class="cls-5" d="m5,6v7s0,1,0,1h2l1-1h3l1,1h2V6H5Zm2,1h2s3,0,3,0v5s-5,0-5,0l-1,1v-1.9687s0-1.0312,0-1.0312h1v1h4v-3h-4v1h-1v-1l1-1Z"/></g><path id="path486" class="cls-4" d="m6,5h2v9h-2V5Z"/></g><path class="cls-1" d="m6,3.9511c.0005-.6031-.3694-1.1446-.9315-1.3632L1,1.0056v11.994l4.1131,1.9355c.3105.1468.681.0135.8275-.2976.033-.0701.0446-.1472.0499-.2242l.0095-10.4621Z"/></g></svg>