<?xml version="1.0" encoding="UTF-8"?><svg id="Layer_23_copy_9" xmlns="http://www.w3.org/2000/svg" width="16" height="16" xmlns:xlink="http://www.w3.org/1999/xlink" viewBox="0 0 16 16"><defs><style>.cls-1{fill:#a040ff;}.cls-2{opacity:.3;}.cls-2,.cls-3{isolation:isolate;}.cls-4{fill:lime;}.cls-5{fill:url(#linear-gradient);}.cls-3{fill:url(#radial-gradient);opacity:.711;}</style><radialGradient id="radial-gradient" cx="49.9099" cy="-143.6741" fx="49.9099" fy="-143.6741" r="1.5875" gradientTransform="translate(14.5524 -381.8182) rotate(33.6901) scale(4.1287 -2.2712)" gradientUnits="userSpaceOnUse"><stop offset="0" stop-color="#000"/><stop offset="1" stop-color="#000" stop-opacity="0"/></radialGradient><linearGradient id="linear-gradient" x1="15.6632" y1="-226.9681" x2="16.4569" y2="-226.9681" gradientTransform="translate(-54.1993 -848.3321) scale(3.7795 -3.7795)" gradientUnits="userSpaceOnUse"><stop offset="0" stop-color="#000"/><stop offset="1" stop-color="#000" stop-opacity="0"/></linearGradient></defs><path id="folder" class="cls-1" d="m1,.9944v12l4.1131,1.9355c.3105.1468.681.0135.8275-.2976.0393-.0834.0596-.1746.0594-.2668v-2.3711h6V1.9944c-.004-.745-.4086-.9893-1-1H1Z"/><path id="folder_shadow" class="cls-2" d="m.9821.9944l4.0848,1.5879c.5625.2187.9331.7603.9331,1.3638v8.0482h6V1.9944c-.004-.745-.4093-.9893-1.0016-1H.9821Z"/><path id="flap_shadow" class="cls-3" d="m11,11.9944c.7057-.0798,1.0812-.3798,1-.9844v-5.0156c.6647-.0018.998-.3352,1-1V1.9944c.0053-.6399-.3093-.9903-1-1H1v11h10Z"/><g id="Layer_89_copy"><path d="m9,15v-3.0918c-.4912-.0947-.8428-.2432-1.0898-.3467-.0186-.0078-.0361-.0156-.0537-.0234-.0244.0264-.0527.0596-.0859.0986l-1.7705,2.1426v-3.7793c0-.584,0-2.3633,1.5898-2.3633.2988,0,.5859.0693.9189.1494.1543.0371.3174.0762.4912.1104v-2.8965h2.4629l3.5371,4.1631v1.7168l-3.541,4.1201h-2.459Z"/><path class="cls-4" d="m6,12.3896v.3458c.963-1.1655,2-1.7354,4-1.7354v3l4-4.0309-4-3.9691v3c-2.2091,0-4,1.0979-4,3.3896Z"/><path d="m6,15v-3.1064c-.1289-.0322-.2451-.0693-.3496-.1113l-1.6504,1.9971-.0029-4.3105c-.0078-.7354-.0117-1.1406.3525-1.5078l.2939-.2959.4912-.0283c.2383,0,.4277.0703.6113.1387.0752.0273.1582.0586.2539.0879v-2.8633h2.6182l2.5,5-2.5,5h-2.6182Z"/><path class="cls-4" d="m5,10l1,1c.963-1.1655-1,0,1,0v3l4-4.0309-4-3.9691v3c-2.2091,0-2-1.2917-2,1Z"/><polygon points="3 15 3 5 5.6182 5 8.1182 10 5.6182 15 3 15"/><path class="cls-4" d="m4,12v2l4-4.0309-4-3.9691v2s0,4,0,4Z"/></g><path id="icon_shadow" class="cls-5" d="m5,5h3v9h-3V5Z"/><path id="flap" class="cls-1" d="m6,3.9456c.0005-.6031-.3694-1.1446-.9315-1.3632L1,1v11.994l4.1131,1.9355c.3105.1468.681.0135.8275-.2976.033-.0701.0446-.1472.0499-.2242l.0095-10.4621Z"/></svg>