<svg xmlns="http://www.w3.org/2000/svg" viewBox="0 0 14 14"><defs><linearGradient id="a" x1="840.86" x2="840.86" y1="-1049.009" y2="-1045.009" gradientTransform="matrix(.5 0 0 -.5 -417.43 -522.505)" gradientUnits="userSpaceOnUse"><stop offset="0"/><stop offset="1" stop-opacity=".151"/></linearGradient></defs><path fill="#ff2020" d="M1 0C.528 0 0 .529 0 1v7c0 .471.528 1 1 1h10c.47 0 1-.529 1-1V2c0-.471-.53-1-1-1H6c0-.471-.53-1-1-1z"/><path fill="url(#a)" d="M1 0C.528 0 0 .529 0 1s.528 1 1 1h4c.47 0 1-.529 1-1s-.53-1-1-1z" opacity=".723" style="isolation:isolate"/><path d="M8.509 14.017C5.98 14.017 4 12.69 4 11V5c0-1.626 2.065-3 4.509-3C10.985 2 13 3.346 13 5v6c0 1.691-1.973 3.017-4.491 3.017"/><path fill="#fff" d="M5 7.008V8c0 1.06 1.496 2 3.428 2S12 9.06 12 8V7c-.686.686-2.076 1.13-3.572 1.13S5.685 7.693 5 7.008M5 10v1c0 1.06 1.576 2.016 3.509 2.016S12 12.06 12 11v-1c-.686.686-1.995 1.272-3.491 1.272S5.686 10.686 5 10m3.509-7C10.402 3 12 3.967 12 5s-1.598 1.933-3.491 1.933S5 6.033 5 5s1.615-2 3.509-2"/></svg>