<?xml version="1.0" encoding="UTF-8"?><svg id="Done" xmlns="http://www.w3.org/2000/svg" width="16" height="16" xmlns:xlink="http://www.w3.org/1999/xlink" viewBox="0 0 16 16"><defs><style>.cls-1{opacity:.3;}.cls-1,.cls-2{isolation:isolate;}.cls-3{fill:#ff13c0;}.cls-4{fill:url(#linear-gradient);}.cls-2{fill:url(#radial-gradient);opacity:.711;}.cls-5{fill:#ff0;}</style><radialGradient id="radial-gradient" cx="137.7938" cy="-200.2262" fx="137.7938" fy="-200.2262" r="1.5875" gradientTransform="translate(-216.1066 -689.9531) rotate(33.6901) scale(4.1287 -2.2712)" gradientUnits="userSpaceOnUse"><stop offset="0" stop-color="#000"/><stop offset="1" stop-color="#000" stop-opacity="0"/></radialGradient><linearGradient id="linear-gradient" x1="82.4986" y1="-201.1004" x2="83.0277" y2="-201.1004" gradientTransform="translate(-305.8056 -750.0644) scale(3.7795 -3.7795)" gradientUnits="userSpaceOnUse"><stop offset="0" stop-color="#000"/><stop offset="1" stop-color="#000" stop-opacity="0"/></linearGradient></defs><g id="Layer_40_copy_9"><path id="path332" class="cls-3" d="m1,1v12l4.1131,1.9355c.3105.1468.681.0135.8275-.2976.0393-.0834.0596-.1746.0594-.2668v-2.3711h6V2c-.004-.745-.4086-.9893-1-1H1Z"/><path id="back_shadow" class="cls-1" d="m.9821,1l4.0848,1.5879c.5625.2187.9331.7603.9331,1.3638v8.0482h6V2c-.004-.745-.4093-.9893-1.0016-1H.9821Z"/><path id="flap_shadow" class="cls-2" d="m11,12c.7057-.0798,1.0812-.3798,1-.9844v-5.0156c.6647-.0018.998-.3352,1-1V2c.0053-.6399-.3093-.9903-1-1H1v11h10Z"/><rect x="6" y="7" width="6" height="6"/><polygon points="11.0044 15 8.9934 15 9 5 11 5 11.0044 15"/><path d="m10,15v-3h1l2-.999h-1l-.6592-.752c.1611-.1406.2246-.2354.249-.2783-.0234-.0117-.0811-.084-.2109-.1875l-.3789-.2998v-1.4834h-1v-3h1c2.5518,0,3,.4482,3,3,0,.0762,0,.0859.207.293.2969.2969.793.793.793,1.707s-.4961,1.4102-.793,1.707c-.207.207-.207.2168-.207.293,0,2.5518-.4482,3-3,3h-1Z"/><path d="m8,15c-2.5518,0-3-.4482-3-3,0-.0762,0-.0859-.207-.293-.2969-.2969-.793-.793-.793-1.707s.4961-1.4102.793-1.707c.207-.207.207-.2168.207-.293,0-2.5518.4482-3,3-3h1v3h-1v1.4834l-.3789.2998c-.1328.1055-.1904.1787-.2129.2139.0234.0127.0869.1084.251.252l-.6592.752h-1l2,.999h1v3h-1Z"/><path class="cls-5" d="m11,13q1,0,1-1t0-.9991c.798-.7004.7985-1.3674,0-2.0009v-1q0-1-1-1v-1q2,0,2,2c0,1,1,1,1,2s-1,1-1,2q0,2-2,2v-1Z"/><path class="cls-5" d="m8,14q-2,0-2-2c0-1-1-1-1-2s1-1,1-2q0-2,2-2v1q-1,0-1,1v1c-.7985.6335-.798,1.3005,0,2.0009t0,.9991q0,1,1,1v1Z"/><path id="icon_shadow" class="cls-4" d="m6,6h2v8h-2V6Z"/><path class="cls-3" d="m6,3.9511c.0005-.6031-.3694-1.1446-.9315-1.3632L1,1.0056v11.994l4.1131,1.9355c.3105.1468.681.0135.8275-.2976.033-.0701.0446-.1472.0499-.2242l.0095-10.4621Z"/></g></svg>