<svg xmlns="http://www.w3.org/2000/svg" id="Done" viewBox="0 0 14 14"><defs><radialGradient id="radial-gradient" cx="-27.343" cy="16.474" r="1.587" fx="-27.343" fy="16.474" gradientTransform="matrix(3.43528 2.2902 1.25984 -1.88975 77.176 96.752)" gradientUnits="userSpaceOnUse"><stop offset="0"/><stop offset="1" stop-opacity="0"/></radialGradient><linearGradient id="linear-gradient" x1="-42.435" x2="-41.906" y1="-96.451" y2="-96.451" gradientTransform="matrix(3.7795 0 0 -3.7795 165.383 -356.04)" gradientUnits="userSpaceOnUse"><stop offset="0"/><stop offset="1" stop-opacity="0"/></linearGradient><style>.cls-1{fill:#0ff}.cls-5{fill:red}</style></defs><g id="Layer_23"><path id="folder" d="M0 0v12l4.113 1.936A.62.62 0 0 0 5 13.37V11h6V1c-.004-.745-.409-.99-1-1z" class="cls-1"/><path id="folder_shadow" d="m-.018 0 4.085 1.588c.562.219.933.76.933 1.364V11h6V1c-.004-.745-.41-.99-1.002-1z" opacity=".3" style="isolation:isolate"/><path id="flap_shadow" fill="url(#radial-gradient)" d="M10 11c.706-.08 1.081-.38 1-.984V5q.997-.003 1-1V1c.005-.64-.31-.99-1-1H0v11z" opacity=".711" style="isolation:isolate"/><g id="g527"><circle id="circle526" cx="8.523" cy="8.448" r="5.547"/><path id="path527" d="M13.145 8.491c0 2.576-2.003 4.58-4.58 4.58S3.9 11.067 3.9 8.49s2.09-4.664 4.665-4.664 4.58 2.089 4.58 4.665" class="cls-5"/><circle id="circle527" cx="8.523" cy="8.448" r="2.773"/><path id="rect527" d="m4.778 6.974 1.794-1.608 5.695 4.557-1.793 1.608z" class="cls-5"/></g><path id="icon_shadow" fill="url(#linear-gradient)" d="m5 5 1-1h1v9H6l-1-1z"/><path id="flap" d="M5 2.951c0-.603-.37-1.145-.931-1.363L0 .006V12l4.113 1.935c.31.147.681.014.828-.298a.6.6 0 0 0 .05-.224z" class="cls-1"/></g></svg>