<?xml version="1.0" encoding="UTF-8"?><svg id="Done" xmlns="http://www.w3.org/2000/svg" width="16" height="16" xmlns:xlink="http://www.w3.org/1999/xlink" viewBox="0 0 16 16"><defs><style>.cls-1{fill:#a040ff;}.cls-2{fill:url(#linear-gradient);isolation:isolate;opacity:.723;}.cls-3{fill:#d9d9d9;}</style><linearGradient id="linear-gradient" x1="607.8608" y1="-736.0094" x2="607.8608" y2="-732.0094" gradientTransform="translate(-299.9304 -365.0047) scale(.5 -.5)" gradientUnits="userSpaceOnUse"><stop offset="0" stop-color="#000"/><stop offset="1" stop-color="#000" stop-opacity=".151"/></linearGradient></defs><g id="Layer_37"><g id="g137"><g id="g399"><path id="path373" class="cls-1" d="m2,1c-.4714,0-1,.5286-1,1v7c0,.4714.5286,1,1,1h10c.4714,0,1-.5286,1-1V3c0-.4714-.5286-1-1-1h-5c0-.4714-.5286-1-1-1H2Z"/><path id="path374" class="cls-2" d="m2,1c-.4714,0-1,.5286-1,1s.5286,1,1,1h4c.4714,0,1-.5286,1-1s-.5286-1-1-1H2Z"/></g><g id="g287"><path id="path286" d="m4,5h11v10h-3.9515l-1.0485-1h-1.0828l-.8739,1h-4.0433V5Z"/><path id="path287" class="cls-3" d="m5,6v7s0,1,0,1h2l1-1h3l1,1h2V6H5Zm2,1h2s3,0,3,0v5s-5,0-5,0l-1,1v-1.9687s0-1.0312,0-1.0312h1v1h4v-3h-4v1h-1v-1l1-1Z"/></g></g></g></svg>