<svg xmlns="http://www.w3.org/2000/svg" id="Layer_23_copy_10" viewBox="0 0 14 14"><defs><radialGradient id="radial-gradient" cx="69.67" cy="-151.024" r="1.587" fx="69.67" fy="-151.024" gradientTransform="matrix(3.43528 2.2902 1.25984 -1.88975 -45.07 -441.963)" gradientUnits="userSpaceOnUse"><stop offset="0"/><stop offset="1" stop-opacity="0"/></radialGradient><linearGradient id="linear-gradient" x1="34.049" x2="34.578" y1="-227.836" y2="-227.836" gradientTransform="matrix(3.7795 0 0 -3.7795 -123.688 -853.112)" gradientUnits="userSpaceOnUse"><stop offset="0"/><stop offset="1" stop-opacity="0"/></linearGradient><style>.cls-1{fill:#0ff}</style></defs><path id="folder" d="M0-.006v12l4.113 1.936A.62.62 0 0 0 5 13.366v-2.372h6v-10c-.004-.745-.409-.989-1-1z" class="cls-1"/><path id="folder_shadow" d="m-.018-.006 4.085 1.588c.562.219.933.76.933 1.364v8.048h6v-10c-.004-.745-.41-.989-1.002-1z" opacity=".3" style="isolation:isolate"/><path id="flap_shadow" fill="url(#radial-gradient)" d="M10 10.994c.706-.08 1.081-.38 1-.984V4.994q.997-.002 1-1v-3c.005-.64-.31-.99-1-1H0v11z" opacity=".711" style="isolation:isolate"/><g id="Layer_89_copy_3"><path d="m4.616 14-.57-7.804a.05.05 0 0 0-.025-.04C3.148 5.617 3 4.913 3 4.5 3 2.434 5.99 2 8.5 2c.526 0 1.05.024 1.545.072l.183-.394 1.796-.6c.104-.05.296-.09.492-.09.69 0 1.3.507 1.45 1.205.098.461-.022.911-.31 1.254.283.39.346.784.344 1.066-.004.411-.157 1.111-1.027 1.644-.01.006-.016.01-.017.021L12.41 14z"/><path fill="#f50637" stroke="#f50637" stroke-linecap="round" stroke-linejoin="round" d="M8.5 5.5h-3l.51 7h5l.49-7z"/><ellipse cx="8.5" cy="4.5" stroke="#ff0135" stroke-linecap="round" stroke-miterlimit="10" rx="4" ry="1"/><path fill="#f50637" stroke="#ff0135" stroke-linecap="round" stroke-linejoin="round" d="m10.013 5.707 1.304-2.812L12.5 2.5"/></g><path id="icon_shadow" fill="url(#linear-gradient)" d="M5 3h2v10H5z"/><path id="flap" d="M5 2.946c0-.603-.37-1.145-.931-1.364L0 0v11.994l4.113 1.936c.31.146.681.013.828-.298a.6.6 0 0 0 .05-.224z" class="cls-1"/></svg>