<?xml version="1.0" encoding="UTF-8"?><svg id="Done" xmlns="http://www.w3.org/2000/svg" width="16" height="16" xmlns:xlink="http://www.w3.org/1999/xlink" viewBox="0 0 16 16"><defs><style>.cls-1{fill:#ff6700;}.cls-2{fill:url(#linear-gradient);isolation:isolate;opacity:.723;}.cls-3{fill:#00b8ff;}</style><linearGradient id="linear-gradient" x1="607.8608" y1="-736.0094" x2="607.8608" y2="-732.0094" gradientTransform="translate(-299.9304 -365.0047) scale(.5 -.5)" gradientUnits="userSpaceOnUse"><stop offset="0" stop-color="#000"/><stop offset="1" stop-color="#000" stop-opacity=".151"/></linearGradient></defs><g id="Layer_39_copy"><g id="Folder"><path id="Folder_Back" class="cls-1" d="m2,1c-.4714,0-1,.5286-1,1v7c0,.4714.5286,1,1,1h10c.4714,0,1-.5286,1-1V3c0-.4714-.5286-1-1-1h-5c0-.4714-.5286-1-1-1H2Z"/><path id="Tab" class="cls-2" d="m2,1c-.4714,0-1,.5286-1,1s.5286,1,1,1h4c.4714,0,1-.5286,1-1s-.5286-1-1-1H2Z"/></g><g id="icon"><path id="shadow" d="m9,3.962h1l4.2491,1.7874c.455.1914.7509.6369.7509,1.1305v5.2783c0,.5004-.3041.9507-.7683,1.1376l-4.2317,1.7042h-1l-4.2412-1.7495c-.4592-.1894-.7588-.6371-.7588-1.1338v-5.2369c0-.4936.2959-.9391.7509-1.1305l4.2491-1.7874Z"/><polygon class="cls-3" points="9 5 5 7 9 9 10 9 14 7 10 5 9 5"/><polygon class="cls-3" points="10 14 13.9273 12.118 13.998 8.116 10 10 10 14"/><polygon class="cls-3" points="5 12 9 14 9 10 5 8 5 12"/></g></g></svg>