<?xml version="1.0" encoding="UTF-8"?><svg id="Done" xmlns="http://www.w3.org/2000/svg" xmlns:xlink="http://www.w3.org/1999/xlink" viewBox="0 0 14 14"><defs><style>.cls-1{fill:#ff6700;}.cls-2{opacity:.3;}.cls-2,.cls-3{isolation:isolate;}.cls-4{fill:#41b3ff;}.cls-4,.cls-5,.cls-6,.cls-7{fill-rule:evenodd;}.cls-5{fill:#007dd2;}.cls-8{fill:url(#linear-gradient);}.cls-3{fill:url(#radial-gradient);opacity:.711;}.cls-7{fill:#0098ff;}</style><radialGradient id="radial-gradient" cx="109.0472" cy="-123.8262" fx="109.0472" fy="-123.8262" r="1.5875" gradientTransform="translate(-214.606 -480.7402) rotate(33.6901) scale(4.1287 -2.2712)" gradientUnits="userSpaceOnUse"><stop offset="0" stop-color="#000"/><stop offset="1" stop-color="#000" stop-opacity="0"/></radialGradient><linearGradient id="linear-gradient" x1="62.3777" y1="-136.212" x2="62.9069" y2="-136.212" gradientTransform="translate(-230.7584 -506.3085) scale(3.7795 -3.7795)" gradientUnits="userSpaceOnUse"><stop offset="0" stop-color="#000"/><stop offset="1" stop-color="#000" stop-opacity="0"/></linearGradient></defs><g id="Layer_40"><path id="path332" class="cls-1" d="m0,0v12l4.1131,1.9355c.3105.1468.681.0135.8275-.2976.0393-.0834.0596-.1746.0594-.2668v-2.3711h6V1c-.004-.745-.4086-.9893-1-1H0Z"/><g id="g337"><path id="path333" class="cls-2" d="m-.0179,0l4.0848,1.5879c.5625.2187.9331.7603.9331,1.3638v8.0482h6V1c-.004-.745-.4093-.9893-1.0016-1H-.0179Z"/><path id="path334" class="cls-3" d="m10,11c.7057-.0798,1.0812-.3798,1-.9844v-5.0156c.6647-.0018.998-.3352,1-1V1C12.0053.3601,11.6907.0097,11,0H0v11h10Z"/><g id="g523"><path id="path518" class="cls-6" d="m8,5l-1,1h-1l-1-1-1,1-1,1,1,1v1l-1,1,2,2,1-1h1l2,2,1,1h2l2-2v-7l-2-2h-2l-2,2Z"/><g id="g522"><path id="path520" class="cls-5" d="m11.0696,4h-1l-6,6,1,1,7-5,1-1h0l-2-1Z"/><path id="path521" class="cls-7" d="m11.0696,13h-1l-6-6,.5111-.5111.4889-.4889,7,5,1.0103.9888h0l-2.0103,1.0112Z"/><path id="path522" class="cls-4" d="m11,13h-1l1-1v-7l-1-1h1l2,1v7l-2,1Z"/></g></g><path id="path337" class="cls-8" d="m5.0113,5.3474l.9895.6545.9992.1952v3.8017l-.9992.9992-1.0008.6713.0113-6.322Z"/></g><path class="cls-1" d="m5,2.9511c.0005-.6031-.3694-1.1446-.9315-1.3632L0,.0056v11.994l4.1131,1.9355c.3105.1468.681.0135.8275-.2976.033-.0701.0446-.1472.0499-.2242l.0095-10.4621Z"/></g></svg>