<svg xmlns="http://www.w3.org/2000/svg" viewBox="0 0 14 14"><defs><linearGradient id="a" x1="606.861" x2="606.861" y1="-737.009" y2="-733.009" gradientTransform="matrix(.5 0 0 -.5 -300.43 -366.505)" gradientUnits="userSpaceOnUse"><stop offset="0"/><stop offset="1" stop-opacity=".151"/></linearGradient></defs><path fill="#ff6700" d="M1 0C.529 0 0 .529 0 1v7c0 .471.529 1 1 1h10c.471 0 1-.529 1-1V2c0-.471-.529-1-1-1H6c0-.471-.529-1-1-1z"/><path fill="url(#a)" d="M1 0C.529 0 0 .529 0 1s.529 1 1 1h4c.471 0 1-.529 1-1s-.529-1-1-1z" opacity=".723" style="isolation:isolate"/><path d="M8 2.962h1l4.25 1.787c.454.192.75.637.75 1.13v5.28c0 .5-.304.95-.768 1.137L9 14H8l-4.241-1.75A1.23 1.23 0 0 1 3 11.118V5.88c0-.494.296-.94.75-1.13z"/><path fill="#00b8ff" d="M8 4 4 6l4 2h1l4-2-4-2zm1 9 3.927-1.882.071-4.002L9 9zm-5-2 4 2V9L4 7z"/></svg>