<svg xmlns="http://www.w3.org/2000/svg" id="Done" viewBox="0 0 14 14"><defs><radialGradient id="radial-gradient" cx="67.527" cy="-111.126" r="1.587" fx="67.527" fy="-111.126" gradientTransform="matrix(3.43528 2.2902 1.25984 -1.88975 -87.972 -361.65)" gradientUnits="userSpaceOnUse"><stop offset="0"/><stop offset="1" stop-opacity="0"/></radialGradient><linearGradient id="linear-gradient" x1="24.136" x2="24.665" y1="-136.21" y2="-136.21" gradientTransform="matrix(3.7795 0 0 -3.7795 -86.223 -506.308)" gradientUnits="userSpaceOnUse"><stop offset="0"/><stop offset="1" stop-opacity="0"/></linearGradient><style>.cls-1{fill:#ff6700}</style></defs><g id="Layer_40_copy"><path id="folder" d="M0 0v12l4.113 1.936A.62.62 0 0 0 5 13.37V11h6V1c-.004-.745-.409-.99-1-1z" class="cls-1"/><path id="folder_shadow" d="m-.018 0 4.085 1.588c.562.219.933.76.933 1.364V11h6V1c-.004-.745-.41-.99-1.002-1z" opacity=".3" style="isolation:isolate"/><path id="flap_shadow" fill="url(#radial-gradient)" d="M10 11c.706-.08 1.081-.38 1-.984V5q.997-.003 1-1V1c.005-.64-.31-.99-1-1H0v11z" opacity=".711" style="isolation:isolate"/><path d="M8 2.962h1l4.25 1.787c.454.192.75.637.75 1.13v5.28c0 .5-.304.95-.768 1.137L9 14H8l-4.241-1.75A1.23 1.23 0 0 1 3 11.118V5.88c0-.494.296-.94.75-1.13z"/><path fill="#00b8ff" d="M8 4 4 6l4 2h1l4-2-4-2zm1 9 3.927-1.882.071-4.002L9 9zm-5-2 4 2V9L4 7z"/><path id="icon_shadow" fill="url(#linear-gradient)" d="M5.011 5.347 6 5l1-1v9l-1-1-1-.33z"/><path id="flap" d="M5 2.951c0-.603-.37-1.145-.931-1.363L0 .006V12l4.113 1.935c.31.147.681.014.828-.298a.6.6 0 0 0 .05-.224z" class="cls-1"/></g></svg>