<svg xmlns="http://www.w3.org/2000/svg" id="Done" viewBox="0 0 14 14"><defs><linearGradient id="linear-gradient" x1="1048.861" x2="1048.861" y1="-737.009" y2="-733.009" gradientTransform="matrix(.5 0 0 -.5 -521.43 -366.505)" gradientUnits="userSpaceOnUse"><stop offset="0"/><stop offset="1" stop-opacity=".151"/></linearGradient><style>.cls-3{fill:red}</style></defs><g id="Layer_24"><path id="folder" fill="#0ff" d="M1 0C.529 0 0 .529 0 1v7c0 .471.529 1 1 1h10c.471 0 1-.529 1-1V2c0-.471-.529-1-1-1H6c0-.471-.529-1-1-1z"/><path id="tab" fill="url(#linear-gradient)" d="M1 0C.529 0 0 .529 0 1s.529 1 1 1h4c.471 0 1-.529 1-1s-.529-1-1-1z" opacity=".723" style="isolation:isolate"/><g id="g529"><circle id="circle528" cx="8.523" cy="8.448" r="5.547"/><path id="path528" d="M13.145 8.491c0 2.576-2.003 4.58-4.58 4.58S3.9 11.067 3.9 8.49s2.09-4.664 4.665-4.664 4.58 2.089 4.58 4.665" class="cls-3"/><circle id="circle529" cx="8.523" cy="8.448" r="2.773"/><path id="rect529" d="m4.778 6.974 1.794-1.608 5.695 4.557-1.793 1.608z" class="cls-3"/></g></g></svg>