<?xml version="1.0" encoding="UTF-8"?><svg id="Layer_23_copy_5" xmlns="http://www.w3.org/2000/svg" xmlns:xlink="http://www.w3.org/1999/xlink" viewBox="0 0 14 14"><defs><style>.cls-1{fill:#fff;}.cls-2{opacity:.3;}.cls-2,.cls-3{isolation:isolate;}.cls-4{fill:#ff2020;}.cls-5{fill:url(#linear-gradient);}.cls-3{fill:url(#radial-gradient);opacity:.711;}</style><radialGradient id="radial-gradient" cx="131.9508" cy="-170.0741" fx="131.9508" fy="-170.0741" r="1.5875" gradientTransform="translate(-235.0212 -620.5969) rotate(33.6901) scale(4.1287 -2.2712)" gradientUnits="userSpaceOnUse"><stop offset="0" stop-color="#000"/><stop offset="1" stop-color="#000" stop-opacity="0"/></radialGradient><linearGradient id="linear-gradient" x1="91.4111" y1="-227.8358" x2="91.9402" y2="-227.8358" gradientTransform="translate(-340.4907 -853.1116) scale(3.7795 -3.7795)" gradientUnits="userSpaceOnUse"><stop offset="0" stop-color="#000"/><stop offset="1" stop-color="#000" stop-opacity="0"/></linearGradient></defs><path id="folder" class="cls-4" d="m0-.0056v12l4.1131,1.9355c.3105.1468.681.0135.8275-.2976.0393-.0834.0596-.1746.0594-.2668v-2.3711h6V.9944c-.004-.745-.4086-.9893-1-1H0Z"/><path id="folder_shadow" class="cls-2" d="m-.0179-.0056l4.0848,1.5879c.5625.2187.9331.7603.9331,1.3638v8.0482h6V.9944c-.004-.745-.4093-.9893-1.0016-1H-.0179Z"/><path id="flap_shadow" class="cls-3" d="m10,10.9944c.7057-.0798,1.0812-.3798,1-.9844v-5.0156c.6647-.0018.998-.3352,1-1V.9944c.0053-.6399-.3093-.9903-1-1H0v11h10Z"/><g id="Layer_75_copy"><path d="m10,14h-3c-1,0-1-1-1-1h-3v-3l1-1V3h9v6h-2v1h3v3h-3s0,1-1,1Z"/><rect class="cls-1" x="8" y="8" width="1" height="3"/><rect class="cls-1" x="4" y="11" width="9" height="1"/><rect class="cls-1" x="7" y="10" width="3" height="3" rx=".9842" ry=".9842"/><path class="cls-1" d="m5.0004,8h6.9964s.0004-.0002.0004-.0004l.0116-3.9985s-.0003-.0007-.0007-.0007l-7.0079-.0089v4.0082s.0002.0004.0004.0004Z"/><rect x="8" y="11" width="1" height="1"/><rect x="6" y="5" width="5" height="2"/></g><path id="icon_shadow" class="cls-5" d="m5,4l2-1v10l-2-1V4Z"/><path id="flap" class="cls-4" d="m5,2.9456c.0005-.6031-.3694-1.1446-.9315-1.3632L0,0v11.994l4.1131,1.9355c.3105.1468.681.0135.8275-.2976.033-.0701.0446-.1472.0499-.2242l.0095-10.4621Z"/></svg>