<svg xmlns="http://www.w3.org/2000/svg" id="Done" viewBox="0 0 14 14"><defs><radialGradient id="radial-gradient" cx="119.527" cy="-111.126" r="1.587" fx="119.527" fy="-111.126" gradientTransform="matrix(3.43528 2.2902 1.25984 -1.88975 -266.606 -480.74)" gradientUnits="userSpaceOnUse"><stop offset="0"/><stop offset="1" stop-opacity="0"/></radialGradient><linearGradient id="linear-gradient" x1="76.136" x2="76.665" y1="-136.21" y2="-136.21" gradientTransform="matrix(3.7795 0 0 -3.7795 -282.758 -506.308)" gradientUnits="userSpaceOnUse"><stop offset="0"/><stop offset="1" stop-opacity="0"/></linearGradient><style>.cls-5{fill:#40a0ff}</style></defs><g id="Layer_36"><path id="folder" d="M0 0v12l4.113 1.936A.62.62 0 0 0 5 13.37V11h6V1c-.004-.745-.409-.99-1-1z" class="cls-5"/><path id="folder_shadow" d="m-.018 0 4.086 1.588c.562.219.932.76.932 1.363V11h6V1c-.004-.745-.41-.99-1.002-1z" opacity=".3" style="isolation:isolate"/><path id="flap_shadow" fill="url(#radial-gradient)" d="M10 11c.706-.08 1.081-.38 1-.984V5q.997-.003 1-1V1c.005-.64-.31-.99-1-1H0v11z" opacity=".711" style="isolation:isolate"/><g id="g201"><path id="rect197" d="M5 4h7v3H5z"/><path id="rect198" fill-rule="evenodd" d="M3 6h11v8H4.38L3 13z"/><path id="path198" fill="silver" fill-rule="evenodd" d="M6 5h5v2h-1V6H7l.031 1H6z"/><path id="rect199" fill="red" d="M4 7h9v6H4z"/><path id="rect200" d="M3 9h10v1H3z"/><path id="rect201" fill="silver" d="M8 9h1v2H8z"/></g><path id="icon_shadow" fill="url(#linear-gradient)" d="M5 4h2v9H5z"/><path id="flap" d="M5 2.951c0-.603-.37-1.145-.931-1.363L0 .006V12l4.113 1.935c.31.147.681.014.828-.298a.6.6 0 0 0 .05-.224z" class="cls-5"/></g></svg>