<svg xmlns="http://www.w3.org/2000/svg" viewBox="0 0 14 14"><defs><linearGradient id="a" x1="476.861" x2="476.861" y1="-893.009" y2="-889.009" gradientTransform="matrix(.5 0 0 -.5 -235.43 -444.505)" gradientUnits="userSpaceOnUse"><stop offset="0"/><stop offset="1" stop-opacity=".151"/></linearGradient></defs><path fill="#ff6700" d="M1 0C.529 0 0 .529 0 1v7c0 .471.529 1 1 1h10c.471 0 1-.529 1-1V2c0-.471-.529-1-1-1H6c0-.471-.529-1-1-1z"/><path fill="url(#a)" d="M1 0C.529 0 0 .529 0 1s.529 1 1 1h4c.471 0 1-.529 1-1s-.529-1-1-1z" opacity=".723" style="isolation:isolate"/><path d="M13.612 9.083a3 3 0 0 0-.398-.636l.569-.03-.032-.98c-.033-.996-.353-1.794-.951-2.372s-1.402-.87-2.392-.87c-.639 0-1.201.12-1.669.36-.117.06-.209.15-.315.223v-.455H1.528v3.271h1.83v6.245h3.241V9h1.043c.08.13.149.27.245.384l-1.063.125.097.978c.3 3.028 2.333 3.48 3.518 3.48 1.146 0 2.03-.335 2.626-.995.57-.632.86-1.41.86-2.317 0-.597-.106-1.127-.313-1.573"/><path fill="#06b7ff" d="M4.358 12.839V6.594h-1.83V5.323h4.896v1.271H5.6v6.245zm3.558-2.451 1.215-.143q.206 1.44 1.344 1.44.564 0 .886-.294a.95.95 0 0 0 .323-.73.8.8 0 0 0-.112-.436.83.83 0 0 0-.344-.295q-.231-.115-1.118-.386-.794-.24-1.163-.522a2 2 0 0 1-.587-.74 2.3 2.3 0 0 1-.219-.987q0-.615.28-1.106t.772-.743 1.215-.252q1.086 0 1.697.59c.61.59.622.956.646 1.687l-1.246.067q-.083-.605-.354-.847-.272-.24-.774-.24c-.502 0-.593.07-.774.21s-.272.313-.272.52q0 .307.247.517.246.21 1.133.46.938.273 1.356.573.417.3.638.773.22.475.22 1.151 0 .98-.602 1.646-.603.666-1.885.666-2.265 0-2.522-2.58Z"/></svg>