<svg xmlns="http://www.w3.org/2000/svg" viewBox="0 0 14 14"><defs><linearGradient id="a" x1="528.861" x2="528.861" y1="-893.009" y2="-889.009" gradientTransform="matrix(.5 0 0 -.5 -261.43 -444.505)" gradientUnits="userSpaceOnUse"><stop offset="0"/><stop offset="1" stop-opacity=".151"/></linearGradient></defs><path fill="#ff13c0" d="M1 0C.529 0 0 .529 0 1v7c0 .471.529 1 1 1h10c.471 0 1-.529 1-1V2c0-.471-.529-1-1-1H6c0-.471-.529-1-1-1z"/><path fill="url(#a)" d="M1 0C.529 0 0 .529 0 1s.529 1 1 1h4c.471 0 1-.529 1-1s-.529-1-1-1z" opacity=".723" style="isolation:isolate"/><path d="M6.991 14c-1.518 0-2.829-.004-2.966-1.929L4 11.023c0-.1 0-.109-.207-.316C3.496 10.411 3 9.914 3 9s.496-1.41.793-1.707C4 7.086 4 7.076 4 7l.022-1.022C4.164 4 5.479 4 7 4h3c2.552 0 3 .449 3 3 0 .076 0 .086.207.293.297.296.793.793.793 1.707s-.496 1.41-.793 1.707C13 10.914 13 10.924 13 11c0 2.551-.448 3-2.996 3z"/><path fill="#ff0" d="M10 12q1 0 1-1t0-1q1.198-1.05 0-2V7q0-1-1-1V5q2 0 2 2c0 1 1 1 1 2s-1 1-1 2q0 2-2 2zm-3 1q-2 0-2-2c0-1-1-1-1-2s1-1 1-2q0-2 2-2v1Q6 6 6 7v1q-1.197.95 0 2t0 1q0 1 1 1z"/></svg>