<svg xmlns="http://www.w3.org/2000/svg" viewBox="0 0 14 14"><defs><linearGradient id="a" x1="866.86" x2="866.86" y1="-1049.009" y2="-1045.009" gradientTransform="matrix(.5 0 0 -.5 -430.43 -522.505)" gradientUnits="userSpaceOnUse"><stop offset="0"/><stop offset="1" stop-opacity=".151"/></linearGradient></defs><path fill="#ff2020" d="M1 0C.528 0 0 .529 0 1v7c0 .471.528 1 1 1h10c.47 0 1-.529 1-1V2c0-.471-.53-1-1-1H6c0-.471-.53-1-1-1z"/><path fill="url(#a)" d="M1 0C.528 0 0 .529 0 1s.528 1 1 1h4c.47 0 1-.529 1-1s-.53-1-1-1z" opacity=".723" style="isolation:isolate"/><path d="M10 14H7c-1 0-1-1-1-1H3v-3h3V9H4V3h9v6h-2v1h3v3h-3s0 1-1 1"/><path fill="#fff" d="M10 11v-.016A.984.984 0 0 0 9.016 10H9V8h2.997l.013-4h-.001L5 3.99V8h3v2h-.016a.984.984 0 0 0-.984.984V11H4v1h3v.016c0 .543.44.984.984.984h1.032c.543 0 .984-.44.984-.984V12h3v-1zM6 7V5h5v2zm3 5H8v-1h1z"/></svg>