<?xml version="1.0" encoding="UTF-8"?><svg id="Done" xmlns="http://www.w3.org/2000/svg" xmlns:xlink="http://www.w3.org/1999/xlink" viewBox="0 0 14 14"><defs><style>.cls-1{fill:aqua;}.cls-2{opacity:.3;}.cls-2,.cls-3{isolation:isolate;}.cls-4{fill:url(#linear-gradient);}.cls-5{fill:#ff0;}.cls-5,.cls-6,.cls-7{fill-rule:evenodd;}.cls-3{fill:url(#radial-gradient);opacity:.711;}.cls-6{fill:#e3b486;}</style><radialGradient id="radial-gradient" cx="-41.1175" cy="-48.2241" fx="-41.1175" fy="-48.2241" r="1.5875" gradientTransform="translate(206.0045 6.029) rotate(33.6901) scale(4.1287 -2.2712)" gradientUnits="userSpaceOnUse"><stop offset="0" stop-color="#000"/><stop offset="1" stop-color="#000" stop-opacity="0"/></radialGradient><linearGradient id="linear-gradient" x1="-61.5556" y1="-162.3413" x2="-61.0264" y2="-162.3413" gradientTransform="translate(237.651 -604.5762) scale(3.7795 -3.7795)" gradientUnits="userSpaceOnUse"><stop offset="0" stop-color="#000"/><stop offset="1" stop-color="#000" stop-opacity="0"/></linearGradient></defs><g id="Layer_23_copy_3"><path id="folder" class="cls-1" d="m0-.0056v12l4.1131,1.9355c.3105.1468.681.0135.8275-.2976.0393-.0834.0596-.1746.0594-.2668v-2.3711h6V.9944c-.004-.745-.4086-.9893-1-1H0Z"/><path id="folder_shadow" class="cls-2" d="m-.0179-.0056l4.0848,1.5879c.5625.2187.9331.7603.9331,1.3638v8.0482h6V.9944c-.004-.745-.4093-.9893-1.0016-1H-.0179Z"/><path id="flap_shadow" class="cls-3" d="m10,10.9944c.7057-.0798,1.0812-.3798,1-.9844v-5.0156c.6647-.0018.998-.3352,1-1V.9944c.0053-.6399-.3093-.9903-1-1H0v11h10Z"/><g id="Layer_1"><path class="cls-7" d="m6.0155,5.7175c-.01.1821-.0859.3543-.2137.4844L.1096,12h1.7687c.0806,0,.1607.013.2372.0385l2.4448.8149c.2695.0898.5666.0197.7675-.1812l3.4526-3.4526c.1407-.1407.3314-.2197.5303-.2197h1.2258c.2841,0,.5438-.1605.6708-.4146l.5854-1.1708c.127-.2541.3867-.4146.6708-.4146h1.5365v-1l-.9456-1.8911c-.0361-.0721-.0835-.1379-.1405-.1949l.0861-1.9139-1.9139.0861c-.057-.057-.1228-.1044-.1949-.1405l-1.8911-.9456h-1v1.5483c0,.2779-.1537.533-.3993.663l-1.1161.5904c-.2327.1231-.3838.3591-.3982.6219l-.0709,1.2939Z"/><polygon class="cls-6" points="3 13 8 8 7 7 2 12 3 13"/><polygon class="cls-5" points="13 6 11 6 10 8 9 6 7 5 9 4 9 2 10 3 11 3 12 3 12 4 12 5 13 6"/></g><path id="icon_shadow" class="cls-4" d="m5,8l2-2.0056v5.0056l-2,1v-4Z"/><path id="flap" class="cls-1" d="m5,2.9456c.0005-.6031-.3694-1.1446-.9315-1.3632L0,0v11.994l4.1131,1.9355c.3105.1468.681.0135.8275-.2976.033-.0701.0446-.1472.0499-.2242l.0095-10.4621Z"/></g></svg>