<?xml version="1.0" encoding="UTF-8"?><svg id="Layer_24_copy_5" xmlns="http://www.w3.org/2000/svg" width="16" height="16" xmlns:xlink="http://www.w3.org/1999/xlink" viewBox="0 0 16 16"><defs><style>.cls-1{fill:#fff;}.cls-2{fill:url(#linear-gradient);isolation:isolate;opacity:.723;}.cls-3{fill:#ff2020;}</style><linearGradient id="linear-gradient" x1="867.8598" y1="-1048.0094" x2="867.8598" y2="-1044.0094" gradientTransform="translate(-429.9304 -521.0047) scale(.5 -.5)" gradientUnits="userSpaceOnUse"><stop offset="0" stop-color="#000"/><stop offset="1" stop-color="#000" stop-opacity=".151"/></linearGradient></defs><path id="folder" class="cls-3" d="m1.9995,1c-.4714,0-1,.5286-1,1v7c0,.4714.5286,1,1,1h10c.4714,0,1-.5286,1-1V3c0-.4714-.5286-1-1-1h-5c0-.4714-.5286-1-1-1H1.9995Z"/><path id="tab" class="cls-2" d="m1.9995,1c-.4714,0-1,.5286-1,1s.5286,1,1,1h4c.4714,0,1-.5286,1-1s-.5286-1-1-1H1.9995Z"/><g id="Layer_75"><path d="m11,15h-3c-1,0-1-1-1-1h-3v-3h3s0-1,1-1h-3v-6h9v6h-3c1,0,1,1,1,1h3v3h-3s0,1-1,1Z"/><rect class="cls-1" x="9" y="9" width="1" height="3"/><rect class="cls-1" x="5" y="12" width="9" height="1"/><rect class="cls-1" x="8" y="11" width="3" height="3" rx=".9842" ry=".9842"/><path class="cls-1" d="m6.0004,9h6.9964s.0004-.0002.0004-.0004l.0116-3.9985s-.0003-.0007-.0007-.0007l-7.0079-.0089v4.0082s.0002.0004.0004.0004Z"/><rect x="9" y="12" width="1" height="1"/><rect x="7" y="6" width="5" height="2"/></g></svg>