<svg xmlns="http://www.w3.org/2000/svg" viewBox="0 0 14 14"><defs><linearGradient id="a" x1="606.861" x2="606.861" y1="-737.009" y2="-733.009" gradientTransform="matrix(.5 0 0 -.5 -300.43 -366.505)" gradientUnits="userSpaceOnUse"><stop offset="0"/><stop offset="1" stop-opacity=".151"/></linearGradient></defs><path fill="#a040ff" d="M1 0C.529 0 0 .529 0 1v7c0 .471.529 1 1 1h10c.471 0 1-.529 1-1V2c0-.471-.529-1-1-1H6c0-.471-.529-1-1-1z"/><path fill="url(#a)" d="M1 0C.529 0 0 .529 0 1s.529 1 1 1h4c.471 0 1-.529 1-1s-.529-1-1-1z" opacity=".723" style="isolation:isolate"/><path d="M3 4h11v10h-3.951L9 13H7.917l-.874 1H3z"/><path fill="#d9d9d9" d="M4 5v8h2l1-1h3l1 1h2V5zm2 1h5v5H6l-1 1V9.001h1v1h4V7H6v1H5V7z"/></svg>