<?xml version="1.0" encoding="UTF-8"?><svg id="Done" xmlns="http://www.w3.org/2000/svg" width="16" height="16" xmlns:xlink="http://www.w3.org/1999/xlink" viewBox="0 0 16 16"><defs><style>.cls-1,.cls-2{fill:silver;}.cls-3{fill:#40a0ff;}.cls-4{fill:url(#linear-gradient);isolation:isolate;opacity:.723;}.cls-2{fill-rule:evenodd;}.cls-5{fill:red;}</style><linearGradient id="linear-gradient" x1="659.8608" y1="-736.0094" x2="659.8608" y2="-732.0094" gradientTransform="translate(-325.9304 -365.0047) scale(.5 -.5)" gradientUnits="userSpaceOnUse"><stop offset="0" stop-color="#000"/><stop offset="1" stop-color="#000" stop-opacity=".151"/></linearGradient></defs><g id="Layer_35"><g id="g90"><g id="g426"><path id="path425" class="cls-3" d="m2,1c-.4714,0-1,.5286-1,1v7c0,.4714.5286,1,1,1h10c.4714,0,1-.5286,1-1V3c0-.4714-.5286-1-1-1h-5c0-.4714-.5286-1-1-1H2Z"/><path id="path426" class="cls-4" d="m2,1c-.4714,0-1,.5286-1,1s.5286,1,1,1h4c.4714,0,1-.5286,1-1s-.5286-1-1-1H2Z"/></g><g id="g94"><rect id="rect5" x="6" y="5" width="7" height="3"/><rect id="rect4" x="4" y="7" width="11" height="8"/><path id="rect3" class="cls-2" d="m7,6h5v2h-1v-1h-3l.0313,1h-1.0313v-2Z"/><rect id="rect6" class="cls-5" x="5" y="8" width="9" height="6"/><rect id="rect21" x="4" y="10" width="10" height="1"/><rect id="rect20" class="cls-1" x="9" y="10" width="1" height="2"/></g></g></g></svg>