<?xml version="1.0" encoding="UTF-8"?><svg id="Done" xmlns="http://www.w3.org/2000/svg" width="16" height="16" xmlns:xlink="http://www.w3.org/1999/xlink" viewBox="0 0 16 16"><defs><style>.cls-1{fill:aqua;}.cls-2{fill:url(#linear-gradient);isolation:isolate;opacity:.723;}.cls-3{fill:#ff0;}.cls-3,.cls-4,.cls-5{fill-rule:evenodd;}.cls-4{fill:#e3b486;}</style><linearGradient id="linear-gradient" x1="1075.8608" y1="-892.008" x2="1075.8608" y2="-888.008" gradientTransform="translate(-533.9304 -443.0047) scale(.5 -.5)" gradientUnits="userSpaceOnUse"><stop offset="0" stop-color="#000"/><stop offset="1" stop-color="#000" stop-opacity=".151"/></linearGradient></defs><g id="Layer_24_copy_3"><path id="folder" class="cls-1" d="m2,.9993c-.4714,0-1,.5286-1,1v7c0,.4714.5286,1,1,1h8c.4714,0,3-2.5286,3-3v-4c0-.4714-.5286-1-1-1h-5c0-.4714-.5286-1-1-1H2Z"/><path id="tab" class="cls-2" d="m2,.9993c-.4714,0-1,.5286-1,1s.5286,1,1,1h4c.4714,0,1-.5286,1-1s-.5286-1-1-1H2Z"/><g id="Layer_1"><path class="cls-5" d="m6.8018,7.2019L1.6157,12.4844c-.2825.2878-.2869.7475-.0099,1.0406l1.1722,1.2401c.1417.1499.3388.2348.5451.2348h1.3662c.1989,0,.3897-.079.5303-.2197l4.5607-4.5607c.1407-.1407.3314-.2197.5303-.2197h1.2258c.2841,0,.5438-.1605.6708-.4146l.5854-1.1708c.127-.2541.3867-.4146.6708-.4146h1.5365v-1l-.9456-1.8911c-.0361-.0721-.0835-.1379-.1405-.1949l.0861-1.9139-1.9139.0861c-.057-.057-.1228-.1044-.1949-.1405l-1.8911-.9456h-1v1.5483c0,.2779-.1537.533-.3993.663l-1.1161.5904c-.2327.1231-.3838.3591-.3982.6219l-.0709,1.2939c-.01.1821-.0859.3543-.2137.4844Z"/><polygon class="cls-4" points="4 14 9 9 8 8 3 13 4 14"/><polygon class="cls-3" points="14 7 12 7 11 9 10 7 8 6 10 5 10 3 11 4 12 4 13 4 13 5 13 6 14 7"/></g></g></svg>