<?xml version="1.0" encoding="UTF-8"?><svg id="Layer_24_copy_7" xmlns="http://www.w3.org/2000/svg" xmlns:xlink="http://www.w3.org/1999/xlink" viewBox="0 0 14 14"><defs><style>.cls-1,.cls-2{fill:#fff;}.cls-2,.cls-3{fill-rule:evenodd;}.cls-4{fill:url(#linear-gradient);isolation:isolate;opacity:.723;}.cls-5{fill:#ff13c0;}</style><linearGradient id="linear-gradient" x1="918.8598" y1="-1049.0094" x2="918.8598" y2="-1045.0094" gradientTransform="translate(-456.4304 -522.5047) scale(.5 -.5)" gradientUnits="userSpaceOnUse"><stop offset="0" stop-color="#000"/><stop offset="1" stop-color="#000" stop-opacity=".151"/></linearGradient></defs><path id="folder" class="cls-5" d="m.9995,0C.5281,0-.0005.5286-.0005,1v7c0,.4714.5286,1,1,1h10c.4714,0,1-.5286,1-1V2c0-.4714-.5286-1-1-1h-5C5.9995.5286,5.4709,0,4.9995,0H.9995Z"/><path id="tab" class="cls-4" d="m.9995,0C.5281,0-.0005.5286-.0005,1s.5286,1,1,1h4c.4714,0,1-.5286,1-1S5.4709,0,4.9995,0H.9995Z"/><g id="Layer_93"><path class="cls-3" d="m11,14c-1.3906,0-2.5664-.9551-2.9023-2.2441l-1.2236-.417c-.5254.4258-1.1792.6611-1.874.6611-1.6543,0-3-1.3457-3-3s1.3457-3,3-3c.3228,0,.6392.0518.9409.1523l1.1973-1.2529c-.0913-.2891-.1382-.5918-.1382-.8994,0-1.6543,1.3457-3,3-3s3,1.3457,3,3-1.3457,3-3,3c-.2407,0-.4775-.0293-.7095-.0879l-1.3096,1.3711,1.1367.3877c.5288-.4277,1.1938-.6709,1.8823-.6709,1.6235,0,2.8477,1.29,2.8477,3s-1.2241,3-2.8477,3Z"/><circle class="cls-1" cx="10" cy="4" r="2"/><circle class="cls-1" cx="5" cy="9" r="2"/><circle class="cls-1" cx="11" cy="11" r="2"/><polygon class="cls-2" points="9.9544 4.7696 5.8099 9.1083 5.1326 8.4462 9.2771 4.1075 9.9544 4.7696"/><polygon class="cls-2" points="10.5474 11.5357 4.8691 9.5974 5.3357 8.4369 11.0139 10.3752 10.5474 11.5357"/></g></svg>