<svg xmlns="http://www.w3.org/2000/svg" id="Done" viewBox="0 0 14 14"><defs><linearGradient id="linear-gradient" x1="814.861" x2="814.861" y1="-737.009" y2="-733.009" gradientTransform="matrix(.5 0 0 -.5 -404.43 -366.505)" gradientUnits="userSpaceOnUse"><stop offset="0"/><stop offset="1" stop-opacity=".151"/></linearGradient><style>.cls-3{fill-rule:evenodd}</style></defs><g id="Layer_29"><path id="folder" fill="#a040ff" d="M1 0C.529 0 0 .529 0 1v7c0 .471.529 1 1 1h10c.471 0 1-.529 1-1V2c0-.471-.529-1-1-1H6c0-.471-.529-1-1-1z"/><path id="tab" fill="url(#linear-gradient)" d="M1 0C.529 0 0 .529 0 1s.529 1 1 1h4c.471 0 1-.529 1-1s-.529-1-1-1z" opacity=".723" style="isolation:isolate"/><path id="path464" d="m4 3 10-.005v9.003s-.138 1.958-2.002 2.002l-7.078.005C1.916 14.005 1.916 10 1.916 10H4z" class="cls-3"/><path id="path465" fill="#ffe9a3" fill-rule="evenodd" d="m5 4 8-.005v8.003S13 13 11.998 13l-7.086.005C2.907 13.005 2.907 11 2.907 11H5z"/><path id="path466" d="M11.042 10 5 10.005V11l5.046-.005s0 .996.995.996c0 0 .996 0 .996-.996-.996 0-.996-.995-.996-.995" class="cls-3"/></g></svg>