<?xml version="1.0" encoding="UTF-8"?><svg id="Layer_24_copy_10" xmlns="http://www.w3.org/2000/svg" xmlns:xlink="http://www.w3.org/1999/xlink" viewBox="0 0 14 14"><defs><style>.cls-1{stroke:#680019;}.cls-1,.cls-2,.cls-3,.cls-4,.cls-5,.cls-6{stroke-linecap:round;}.cls-1,.cls-3,.cls-5,.cls-6{fill:none;}.cls-1,.cls-6{stroke-miterlimit:10;}.cls-2{stroke:#d20f39;}.cls-2,.cls-3,.cls-4{stroke-linejoin:round;}.cls-2,.cls-4{fill:#f50637;}.cls-7{fill:aqua;}.cls-3,.cls-5{stroke:#000;}.cls-4{stroke:#f50637;}.cls-8{fill:url(#linear-gradient);isolation:isolate;opacity:.723;}.cls-5{stroke-linejoin:bevel;}.cls-6{stroke:#ff0135;}</style><linearGradient id="linear-gradient" x1="944.8599" y1="-1049.0094" x2="944.8599" y2="-1045.0094" gradientTransform="translate(-469.4304 -522.5047) scale(.5 -.5)" gradientUnits="userSpaceOnUse"><stop offset="0" stop-color="#000"/><stop offset="1" stop-color="#000" stop-opacity=".151"/></linearGradient></defs><path id="folder" class="cls-7" d="m.9995,0C.5281,0-.0005.5286-.0005,1v7c0,.4714.5286,1,1,1h10c.4714,0,1-.5286,1-1V2c0-.4714-.5286-1-1-1h-5C5.9995.5286,5.4709,0,4.9995,0H.9995Z"/><path id="tab" class="cls-8" d="m.9995,0C.5281,0-.0005.5286-.0005,1s.5286,1,1,1h4c.4714,0,1-.5286,1-1S5.4709,0,4.9995,0H.9995Z"/><g id="Layer_89_copy_2"><polygon points="10.9199 6.127 9.1055 5.2852 10.5908 2.084 12.1826 1.5518 12.8174 3.4482 12.042 3.707 10.9199 6.127"/><path d="m10.0127,7.2061c-.2217,0-.4434-.0498-.6416-.1445-.3525-.1631-.6289-.4639-.7666-.8398s-.1211-.7832.0479-1.1475l1.3037-2.8096c.1709-.3711.4941-.6611.8838-.792l1.1846-.3955c.1553-.0518.3145-.0771.4756-.0771.6455,0,1.2178.4111,1.4229,1.0244.2607.7852-.1641,1.6357-.9463,1.8984l-.5713.1904-1.0322,2.2236c-.2422.5264-.7773.8691-1.3604.8691Z"/><polygon points="5.0811 13.5 4.4248 4.5 12.5723 4.5 11.9434 13.5 5.0811 13.5"/><path d="m6.0107,14c-.7812,0-1.4385-.6104-1.4961-1.3896l-.4619-6.3359c-.9053-.5508-1.0527-1.3271-1.0527-1.7744,0-.6094.3633-1.1533.9268-1.3857.1855-.0762.377-.1143.5732-.1143.4014,0,.7773.1562,1.0605.4395l.3838.3838c.3916.082,1.1475.1768,2.5557.1768,1.418,0,2.1699-.0947,2.5566-.1777l.3828-.3828c.2764-.2783.6641-.4395,1.0605-.4395.1992,0,.3926.0391.5752.1143.5615.2324.9248.7764.9248,1.3857,0,.4463-.1475,1.2227-1.0508,1.7734l-.4414,6.3311c-.0557.7832-.7129,1.3955-1.4971,1.3955h-5Zm3.6016-3l.2803-4.0186c-.4473.0312-.917.0469-1.3945.0469-.4746,0-.9404-.0156-1.3857-.0459l.293,4.0176h2.207Z"/><path class="cls-5" d="m11.6465,4.8584c-.1123-.084-.6729-.3584-3.1465-.3584v-2c1.7471,0,5,0,5,2h-2c0,.1865.1006.3242.1465.3584Z"/><path class="cls-3" d="m5.3535,4.8584c.0459-.0342.1465-.1719.1465-.3584h-2c0-2,3.2529-2,5-2v2c-2.4736,0-3.0342.2744-3.1465.3584Z"/><path class="cls-4" d="m8.5,5.5h-3l.5109,7h5l.4891-7h-3Z"/><polyline class="cls-2" points="10.0131 5.7065 11.3167 2.8953 12.5 2.5"/><path class="cls-1" d="m12.5,4.5c0,1-3,1-4,1"/><path class="cls-6" d="m12.5,4.5c0,1-3,1-4,1"/><path class="cls-6" d="m4.5,4.5c0,1,3,1,4,1"/><path class="cls-6" d="m12.5,4.5c0-1-3-1-4-1"/><path class="cls-6" d="m4.5,4.5c0-1,3-1,4-1"/></g></svg>