<?xml version="1.0" encoding="UTF-8"?><svg id="Layer_23_copy_5" xmlns="http://www.w3.org/2000/svg" width="16" height="16" xmlns:xlink="http://www.w3.org/1999/xlink" viewBox="0 0 16 16"><defs><style>.cls-1{fill:#fff;}.cls-2{opacity:.3;}.cls-2,.cls-3{isolation:isolate;}.cls-4{fill:#ff2020;}.cls-5{fill:url(#linear-gradient);}.cls-3{fill:url(#radial-gradient);opacity:.711;}</style><radialGradient id="radial-gradient" cx="132.9508" cy="-169.0741" fx="132.9508" fy="-169.0741" r="1.5875" gradientTransform="translate(-238.7163 -619.9973) rotate(33.6901) scale(4.1287 -2.2712)" gradientUnits="userSpaceOnUse"><stop offset="0" stop-color="#000"/><stop offset="1" stop-color="#000" stop-opacity="0"/></radialGradient><linearGradient id="linear-gradient" x1="92.4111" y1="-226.8358" x2="92.9402" y2="-226.8358" gradientTransform="translate(-343.2702 -848.3321) scale(3.7795 -3.7795)" gradientUnits="userSpaceOnUse"><stop offset="0" stop-color="#000"/><stop offset="1" stop-color="#000" stop-opacity="0"/></linearGradient></defs><path id="folder" class="cls-4" d="m1,.9944v12l4.1131,1.9355c.3105.1468.681.0135.8275-.2976.0393-.0834.0596-.1746.0594-.2668v-2.3711h6V1.9944c-.004-.745-.4086-.9893-1-1H1Z"/><path id="folder_shadow" class="cls-2" d="m.9821.9944l4.0848,1.5879c.5625.2187.9331.7603.9331,1.3638v8.0482h6V1.9944c-.004-.745-.4093-.9893-1.0016-1H.9821Z"/><path id="flap_shadow" class="cls-3" d="m11,11.9944c.7057-.0798,1.0812-.3798,1-.9844v-5.0156c.6647-.0018.998-.3352,1-1V1.9944c.0053-.6399-.3093-.9903-1-1H1v11h10Z"/><g id="Layer_75_copy"><path d="m11,15h-3c-1,0-1-1-1-1h-3v-3l1-1v-6h9v6h-2v1h3v3h-3s0,1-1,1Z"/><rect class="cls-1" x="9" y="9" width="1" height="3"/><rect class="cls-1" x="5" y="12" width="9" height="1"/><rect class="cls-1" x="8" y="11" width="3" height="3" rx=".9842" ry=".9842"/><path class="cls-1" d="m6.0004,9h6.9964s.0004-.0002.0004-.0004l.0116-3.9985s-.0003-.0007-.0007-.0007l-7.0079-.0089v4.0082s.0002.0004.0004.0004Z"/><rect x="9" y="12" width="1" height="1"/><rect x="7" y="6" width="5" height="2"/></g><path id="icon_shadow" class="cls-5" d="m6,5l2-1v10l-2-1V5Z"/><path id="flap" class="cls-4" d="m6,3.9456c.0005-.6031-.3694-1.1446-.9315-1.3632L1,1v11.994l4.1131,1.9355c.3105.1468.681.0135.8275-.2976.033-.0701.0446-.1472.0499-.2242l.0095-10.4621Z"/></svg>