<?xml version="1.0" encoding="UTF-8"?><svg id="Done" xmlns="http://www.w3.org/2000/svg" width="16" height="16" xmlns:xlink="http://www.w3.org/1999/xlink" viewBox="0 0 16 16"><defs><style>.cls-1{stroke:#000;stroke-width:2px;}.cls-2{fill:aqua;}.cls-3{fill:#ff2011;}.cls-4{opacity:.3;}.cls-4,.cls-5{isolation:isolate;}.cls-6{fill:url(#linear-gradient);}.cls-5{fill:url(#radial-gradient);opacity:.711;}</style><radialGradient id="radial-gradient" cx="137.9925" cy="-116.476" fx="137.9925" fy="-116.476" r="1.5875" gradientTransform="translate(-322.3012 -532.1406) rotate(33.6901) scale(4.1287 -2.2712)" gradientUnits="userSpaceOnUse"><stop offset="0" stop-color="#000"/><stop offset="1" stop-color="#000" stop-opacity="0"/></radialGradient><linearGradient id="linear-gradient" x1="90.5567" y1="-148.9679" x2="91.5976" y2="-148.9679" gradientTransform="translate(-337.5379 -553.5289) scale(3.7795 -3.7795)" gradientUnits="userSpaceOnUse"><stop offset=".3363" stop-color="#000"/><stop offset=".8339" stop-color="#000" stop-opacity="0"/></linearGradient></defs><g id="Layer_12"><path id="path614" class="cls-2" d="m1,.9995v12l4.1131,1.9355c.3105.1468.681.0135.8275-.2976.0393-.0834.0596-.1746.0594-.2668v-2.3711h6V1.9995c-.004-.745-.4086-.9893-1-1H1Z"/><path id="path615" class="cls-4" d="m.9821.9995l4.0855,1.5882c.5621.2185.9324.7597.9324,1.3628v8.049h6V1.9995c-.004-.745-.4093-.9893-1.0016-1H.9821Z"/><path id="path616" class="cls-5" d="m11,11.9995c.7057-.0798,1.0812-.3798,1-.9844v-5.0156c.6647-.0018.998-.3352,1-1V1.9995c.0053-.6399-.3093-.9903-1-1H1v11h10Z"/><path id="path306" class="cls-1" d="m9,5l-4,4v1l4,4h1l4-4v-1l-4-4h-1Z"/><path id="path307" class="cls-3" d="m13.0696,8l-3-3h-1.0696v2h1v1h1v1h1v1h-1v-1h-1v3h-1v-4h-1v-2l-3,3v1l4,4h1l3-3,1-1v-1"/><path id="path618" class="cls-6" d="m5,7.9995l2-2,1-1v9l-1-1-2-2v-3Z"/><path id="Flap" class="cls-2" d="m6,3.9511c.0005-.6031-.3694-1.1446-.9315-1.3632L1,1.0056v11.994l4.1131,1.9355c.3105.1468.681.0135.8275-.2976.033-.0701.0446-.1472.0499-.2242l.0095-10.4621Z"/></g></svg>