<svg xmlns="http://www.w3.org/2000/svg" id="Layer_23_copy_5" viewBox="0 0 14 14"><defs><radialGradient id="radial-gradient" cx="131.951" cy="-170.074" r="1.587" fx="131.951" fy="-170.074" gradientTransform="matrix(3.43528 2.2902 1.25984 -1.88975 -235.021 -620.597)" gradientUnits="userSpaceOnUse"><stop offset="0"/><stop offset="1" stop-opacity="0"/></radialGradient><linearGradient id="linear-gradient" x1="91.411" x2="91.94" y1="-227.836" y2="-227.836" gradientTransform="matrix(3.7795 0 0 -3.7795 -340.49 -853.112)" gradientUnits="userSpaceOnUse"><stop offset="0"/><stop offset="1" stop-opacity="0"/></linearGradient><style>.cls-4{fill:#ff2020}</style></defs><path id="folder" d="M0-.006v12l4.113 1.936A.62.62 0 0 0 5 13.366v-2.372h6v-10c-.004-.745-.409-.989-1-1z" class="cls-4"/><path id="folder_shadow" d="m-.018-.006 4.085 1.588c.562.219.933.76.933 1.364v8.048h6v-10c-.004-.745-.41-.989-1.002-1z" opacity=".3" style="isolation:isolate"/><path id="flap_shadow" fill="url(#radial-gradient)" d="M10 10.994c.706-.08 1.081-.38 1-.984V4.994q.997-.002 1-1v-3c.005-.64-.31-.99-1-1H0v11z" opacity=".711" style="isolation:isolate"/><g id="Layer_75_copy"><path d="M10 14H7c-1 0-1-1-1-1H3v-3l1-1V3h9v6h-2v1h3v3h-3s0 1-1 1"/><path fill="#fff" d="M10 11v-.016A.984.984 0 0 0 9.016 10H9V8h2.997l.013-4h-.001L5 3.99V8h3v2h-.016a.984.984 0 0 0-.984.984V11H4v1h3v.016c0 .543.44.984.984.984h1.032c.543 0 .984-.44.984-.984V12h3v-1zM6 7V5h5v2zm3 5H8v-1h1z"/></g><path id="icon_shadow" fill="url(#linear-gradient)" d="m5 4 2-1v10l-2-1z"/><path id="flap" d="M5 2.946c0-.603-.37-1.145-.931-1.364L0 0v11.994l4.113 1.936c.31.146.681.013.828-.298a.6.6 0 0 0 .05-.224z" class="cls-4"/></svg>