<?xml version="1.0" encoding="UTF-8"?><svg id="Done" xmlns="http://www.w3.org/2000/svg" width="16" height="16" xmlns:xlink="http://www.w3.org/1999/xlink" viewBox="0 0 16 16"><defs><style>.cls-1{opacity:.3;}.cls-1,.cls-2{isolation:isolate;}.cls-3{fill:#86ffb5;}.cls-4{fill:#006eff;}.cls-5{fill:#ff13c0;}.cls-6{fill:url(#linear-gradient);}.cls-2{fill:url(#radial-gradient);opacity:.711;}.cls-7{fill:#ff0;}</style><radialGradient id="radial-gradient" cx="94.7254" cy="-52.3759" fx="94.7254" fy="-52.3759" r="1.5875" gradientTransform="translate(-254.4227 -311.9173) rotate(33.6901) scale(4.1287 -2.2712)" gradientUnits="userSpaceOnUse"><stop offset="0" stop-color="#000"/><stop offset="1" stop-color="#000" stop-opacity="0"/></radialGradient><linearGradient id="linear-gradient" x1="59.5319" y1="-109.2096" x2="60.0611" y2="-109.2096" gradientTransform="translate(-219.0025 -403.2612) scale(3.7795 -3.7795)" gradientUnits="userSpaceOnUse"><stop offset="0" stop-color="#000"/><stop offset="1" stop-color="#000" stop-opacity="0"/></linearGradient></defs><g id="Layer_14"><path id="path515" class="cls-5" d="m1,.9995v12l4.1131,1.9355c.3105.1468.681.0135.8275-.2976.0393-.0834.0596-.1746.0594-.2668v-2.3711h6V1.9995c-.004-.745-.4086-.9893-1-1H1Z"/><path id="path516" class="cls-1" d="m.9821.9995l4.0855,1.5882c.5621.2185.9324.7597.9324,1.3628v8.049h6V1.9995c-.004-.745-.4093-.9893-1.0016-1H.9821Z"/><path id="path517" class="cls-2" d="m11,11.9995c.7057-.0798,1.0812-.3798,1-.9844v-5.0156c.6647-.0018.998-.3352,1-1V1.9995c.0053-.6399-.3093-.9903-1-1H1v11h10Z"/><path id="path366" d="m4.0085,5h10.9915l-.0085,10H5.3698l-1.3698-.6609.0085-9.3391Z"/><path id="path367" class="cls-4" d="m5,14l-.0131-8h9.0131l.0131,8H5Z"/><path id="path368" class="cls-3" d="m5,14v-1h1c0-1,.9946-1,.9946-1,0,0,1.0054,0,1.0054,1h2s1-1,1-1v-1l1,.0019.0138-1.0019h.9862l1,1v2l.0131,1H5Z"/><rect id="rect368" class="cls-7" x="7" y="7" width="2" height="2"/><path id="path536" class="cls-6" d="m6,5.9995h1l1-1v9h-1s-1,0-1,0v-8Z"/><path id="Flap" class="cls-5" d="m6,3.9511c.0005-.6031-.3694-1.1446-.9315-1.3632L1,1.0056v11.994l4.1131,1.9355c.3105.1468.681.0135.8275-.2976.033-.0701.0446-.1472.0499-.2242l.0095-10.4621Z"/></g></svg>