<svg xmlns="http://www.w3.org/2000/svg" id="Done" viewBox="0 0 14 14"><defs><radialGradient id="radial-gradient" cx="136.794" cy="-201.226" r="1.587" fx="136.794" fy="-201.226" gradientTransform="matrix(3.43528 2.2902 1.25984 -1.88975 -212.411 -690.553)" gradientUnits="userSpaceOnUse"><stop offset="0"/><stop offset="1" stop-opacity="0"/></radialGradient><linearGradient id="linear-gradient" x1="81.499" x2="82.028" y1="-202.1" y2="-202.1" gradientTransform="matrix(3.7795 0 0 -3.7795 -303.026 -754.844)" gradientUnits="userSpaceOnUse"><stop offset="0"/><stop offset="1" stop-opacity="0"/></linearGradient><style>.cls-3{fill:#ff13c0}</style></defs><g id="Layer_40_copy_9"><path id="folder" d="M0 0v12l4.113 1.936A.62.62 0 0 0 5 13.37V11h6V1c-.004-.745-.409-.99-1-1z" class="cls-3"/><path id="back_shadow" d="m-.018 0 4.085 1.588c.562.219.933.76.933 1.364V11h6V1c-.004-.745-.41-.99-1.002-1z" opacity=".3" style="isolation:isolate"/><path id="flap_shadow" fill="url(#radial-gradient)" d="M10 11c.706-.08 1.081-.38 1-.984V5q.997-.003 1-1V1c.005-.64-.31-.99-1-1H0v11z" opacity=".711" style="isolation:isolate"/><path d="M6.991 14c-1.22 0-2.304-.003-2.756-1h-.213L4 12v-1c0-.076 0-.086-.207-.293C3.496 10.41 3 9.914 3 9s.496-1.41.793-1.707C4 7.086 4 7.076 4 7V5h.235C4.688 4 5.777 4 7 4h3c2.552 0 3 .448 3 3 0 .076 0 .086.207.293.297.297.793.793.793 1.707s-.496 1.41-.793 1.707C13 10.914 13 10.924 13 11c0 2.552-.448 3-2.996 3z"/><path fill="#ff0" d="M10 12q1 0 1-1t0-1q1.198-1.05 0-2V7q0-1-1-1V5q2 0 2 2c0 1 1 1 1 2s-1 1-1 2q0 2-2 2zm-3 1q-2 0-2-2c0-1-1-1-1-2s1-1 1-2q0-2 2-2v1Q6 6 6 7v1q-1.197.95 0 2t0 1q0 1 1 1z"/><path id="icon_shadow" fill="url(#linear-gradient)" d="M5 5h2v8H5z"/><path id="flap" d="M5 2.951c0-.603-.37-1.145-.931-1.363L0 .006V12l4.113 1.935c.31.147.681.014.828-.298a.6.6 0 0 0 .05-.224z" class="cls-3"/></g></svg>