<svg xmlns="http://www.w3.org/2000/svg" id="Done" viewBox="0 0 14 14"><defs><radialGradient id="radial-gradient" cx="136.993" cy="-117.476" r="1.587" fx="136.993" fy="-117.476" gradientTransform="matrix(3.43528 2.2902 1.25984 -1.88975 -318.606 -532.74)" gradientUnits="userSpaceOnUse"><stop offset="0"/><stop offset="1" stop-opacity="0"/></radialGradient><linearGradient id="linear-gradient" x1="89.557" x2="90.598" y1="-149.968" y2="-149.968" gradientTransform="matrix(3.7795 0 0 -3.7795 -334.758 -558.308)" gradientUnits="userSpaceOnUse"><stop offset=".336"/><stop offset=".834" stop-opacity="0"/></linearGradient><style>.cls-2{fill:#0ff}</style></defs><g id="Layer_12"><path id="folder" d="M0 0v12l4.113 1.935A.62.62 0 0 0 5 13.371v-2.372h6V1c-.004-.745-.409-.989-1-1z" class="cls-2"/><path id="folder_shadow" d="m-.018 0 4.086 1.588c.562.218.932.76.932 1.363v8.048h6V1c-.004-.745-.41-.989-1.002-1z" opacity=".3" style="isolation:isolate"/><path id="flap_shadow" fill="url(#radial-gradient)" d="M10 11c.706-.08 1.081-.38 1-.985V5q.997-.002 1-1V1c.005-.64-.31-.99-1-1H0v11z" opacity=".711" style="isolation:isolate"/><g id="icon"><path id="path306" stroke="#000" stroke-width="2" d="M8 4 4 8v1l4 4h1l4-4V8L9 4z"/><path id="path307" fill="#ff2011" d="m12.07 7-3-3H8v2h1v1h1v1h1v1h-1V8H9v3H8V7H7V5L4 8v1l4 4h1l3-3 1-1V8"/></g><path id="icon_shadow" fill="url(#linear-gradient)" d="m4 7 2-2 1-1v9l-1-1-2-2z"/><path id="flap" d="M5 2.951c0-.603-.37-1.145-.931-1.363L0 .006V12l4.113 1.935c.31.147.681.014.828-.298a.6.6 0 0 0 .05-.224z" class="cls-2"/></g></svg>