<svg xmlns="http://www.w3.org/2000/svg" viewBox="0 0 14 14"><defs><linearGradient id="a" x1="424.861" x2="424.861" y1="-893.009" y2="-889.009" gradientTransform="matrix(.5 0 0 -.5 -209.43 -444.505)" gradientUnits="userSpaceOnUse"><stop offset="0"/><stop offset="1" stop-opacity=".151"/></linearGradient></defs><path fill="#a040ff" d="M1 0C.529 0 0 .529 0 1v7c0 .471.529 1 1 1h10c.471 0 1-.529 1-1V2c0-.471-.529-1-1-1H6c0-.471-.529-1-1-1z"/><path fill="url(#a)" d="M1 0C.529 0 0 .529 0 1s.529 1 1 1h4c.471 0 1-.529 1-1s-.529-1-1-1z" opacity=".723" style="isolation:isolate"/><path d="M12 3.041V3H5v.041L3 5v7l2 2h7l2-2V5z"/><path fill="#ccc" d="M13 7V6h-1s0-1-1-1V4h-1v1H9V4H8v1H7V4H6v1C5 5 5 6 5 6H4v1h1v1H4v1h1v1H4v1h1c0 1 1 1 1 1v1h1v-1h1v1h1v-1h1v1h1v-1c1 0 1-1 1-1h1v-1h-1V9h1V8h-1V7z"/><path fill="#586977" d="M6 5h5c1 0 1 1 1 1v5s0 1-1 1H6s-1 0-1-1V6s0-1 1-1"/><path fill="#00ff06" d="M7 7h3v3H7z"/></svg>