<?xml version="1.0" encoding="UTF-8"?><svg id="Done" xmlns="http://www.w3.org/2000/svg" width="16" height="16" xmlns:xlink="http://www.w3.org/1999/xlink" viewBox="0 0 16 16"><defs><style>.cls-1{fill:#fff;}.cls-2{fill:url(#linear-gradient);isolation:isolate;opacity:.723;}.cls-3{fill:#ff13c0;}</style><linearGradient id="linear-gradient" x1="711.8608" y1="-736.0094" x2="711.8608" y2="-732.0094" gradientTransform="translate(-351.9304 -365.0047) scale(.5 -.5)" gradientUnits="userSpaceOnUse"><stop offset="0" stop-color="#000"/><stop offset="1" stop-color="#000" stop-opacity=".151"/></linearGradient></defs><g id="Layer_33"><g id="g335"><g id="g418"><path id="path417" class="cls-3" d="m2,1c-.4714,0-1,.5286-1,1v7c0,.4714.5286,1,1,1h10c.4714,0,1-.5286,1-1V3c0-.4714-.5286-1-1-1h-5c0-.4714-.5286-1-1-1H2Z"/><path id="path418" class="cls-2" d="m2,1c-.4714,0-1,.5286-1,1s.5286,1,1,1h4c.4714,0,1-.5286,1-1s-.5286-1-1-1H2Z"/></g><g id="g93"><path id="path93" d="m7,5s4.1306-.6447,6,1c.5476.4817,1,.9844,1,.9844.4963.4924.8768,1.0701,1,2.0156v2c-.2036.7964-.3117,2.1326-1,3l-1,1h-3s-1,0-1,0l-1-1v-1h-3s-2-2-2-2v-2l1-2,1-1c.5362-.4265,1.1728-.7813,2-1Z"/><path id="path84" class="cls-1" d="m8,6c-2.716.4063-4.0312,2.2338-4.0312,3.7893.0337,1.1158.4733,1.6108,1.4579,2.0723.6345.2087,2.5734.1385,2.5734.1385h2v1l-1,1h2s3,0,2.9325-4.2107c-.3406-3.3828-3.0298-4.2234-5.9325-3.7893Z"/><path id="circle90" d="m8,9v1l-1,1h-1l-1-1v-1l1-1h1l1,1Z"/></g></g></g></svg>