<svg xmlns="http://www.w3.org/2000/svg" id="Layer_23_copy_7" viewBox="0 0 14 14"><defs><radialGradient id="radial-gradient" cx="90.43" cy="-157.374" r="1.587" fx="90.43" fy="-157.374" gradientTransform="matrix(3.43528 2.2902 1.25984 -1.88975 -108.387 -501.507)" gradientUnits="userSpaceOnUse"><stop offset="0"/><stop offset="1" stop-opacity="0"/></radialGradient><linearGradient id="linear-gradient" x1="53.169" x2="53.699" y1="-227.968" y2="-227.968" gradientTransform="matrix(3.7795 0 0 -3.7795 -195.955 -853.112)" gradientUnits="userSpaceOnUse"><stop offset="0"/><stop offset="1" stop-opacity="0"/></linearGradient><style>.cls-5{fill:#ff13c0}</style></defs><path id="folder" d="M0-.006v12l4.113 1.936A.62.62 0 0 0 5 13.366v-2.372h6v-10c-.004-.745-.409-.989-1-1z" class="cls-5"/><path id="folder_shadow" d="m-.018-.006 4.085 1.588c.562.219.933.76.933 1.364v8.048h6v-10c-.004-.745-.41-.989-1.002-1z" opacity=".3" style="isolation:isolate"/><path id="flap_shadow" fill="url(#radial-gradient)" d="M10 10.994c.706-.08 1.081-.38 1-.984V4.994q.997-.002 1-1v-3c.005-.64-.31-.99-1-1H0v11z" opacity=".711" style="isolation:isolate"/><g id="Layer_93_copy_2"><path fill-rule="evenodd" d="M11 14a3.01 3.01 0 0 1-2.902-2.244l-1.224-.417A2.96 2.96 0 0 1 5 12c-1.654 0-3-1.346-3-3a3.003 3.003 0 0 1 3.941-2.848L7.138 4.9A3.003 3.003 0 0 1 10 1c1.654.001 3 1.347 3 3.001s-1.346 3-3 3q-.36 0-.71-.088l-1.308 1.37 1.137.388A3 3 0 0 1 11 8c1.62 0 2.889 1.315 2.889 2.994C13.889 12.68 12.619 14 11 14"/><path fill="#fff" fill-rule="evenodd" d="M11 9c-.662 0-1.245.326-1.609.821L7 9.005V9c0-.327-.086-.63-.224-.902l2.253-2.36C9.318 5.9 9.646 6 10 6a2 2 0 1 0-1.67-.902L6.158 7.374A2 2 0 0 0 5 7a2 2 0 1 0 0 4 1.99 1.99 0 0 0 1.6-.811l2.4.819A2 2 0 1 0 11 9"/></g><path id="icon_shadow" fill="url(#linear-gradient)" d="m5 7 2-2v6l-2 1z"/><path id="flap" d="M5 2.946c0-.603-.37-1.145-.931-1.364L0 0v11.994l4.113 1.936c.31.146.681.013.828-.298a.6.6 0 0 0 .05-.224z" class="cls-5"/></svg>