<?xml version="1.0" encoding="UTF-8"?><svg id="Done" xmlns="http://www.w3.org/2000/svg" xmlns:xlink="http://www.w3.org/1999/xlink" viewBox="0 0 14 14"><defs><style>.cls-1{fill:#c6c6c6;}.cls-1,.cls-2,.cls-3,.cls-4,.cls-5,.cls-6{fill-rule:evenodd;}.cls-2{fill:#8e3d00;}.cls-7{fill:#40a0ff;}.cls-8{fill:url(#linear-gradient);isolation:isolate;opacity:.723;}.cls-3,.cls-9{fill:#fc0;}.cls-4{fill:#c87137;stroke:#000;stroke-linejoin:round;stroke-width:2px;}.cls-5{fill:#fd741a;}.cls-6{fill:#502d16;}</style><linearGradient id="linear-gradient" x1="554.8608" y1="-841.0094" x2="554.8608" y2="-837.0094" gradientTransform="translate(-274.4304 -418.5047) scale(.5 -.5)" gradientUnits="userSpaceOnUse"><stop offset="0" stop-color="#000"/><stop offset="1" stop-color="#000" stop-opacity=".151"/></linearGradient></defs><g id="Layer_19"><g id="g440"><path id="path439" class="cls-7" d="m1,0C.5286,0,0,.5286,0,1v7c0,.4714.5286,1,1,1h10c.4714,0,1-.5286,1-1V2c0-.4714-.5286-1-1-1h-5C6,.5286,5.4714,0,5,0H1Z"/><path id="path440" class="cls-8" d="m1,0C.5286,0,0,.5286,0,1s.5286,1,1,1h4c.4714,0,1-.5286,1-1S5.4714,0,5,0H1Z"/></g><g id="g408"><path id="path402" class="cls-4" d="m7,4s-1,0-1,1v1h-2c-1,0-1,.7891-1,.7891v5.2109s0,1,1,1h8s1,0,1-1v-1s0-3,0-3h0v-1c0-1-1-1-1-1h-2v-1c0-1-1-1-1-1h-2Zm0,1h2v1h-2v-1Z"/><path id="path403" class="cls-5" d="m4,6c-1,0-1,.7892-1,.7892v1.1483s0,3.0625,0,3.0625v1s0,1,1,1h8s1,0,1-1v-4h0v-1c0-1-1-1-1-1H4Z"/><path id="path404" class="cls-2" d="m3.0116,8.0046l1.9954,1.9954,5.9335.0526,2.0479-2.0479s-.9977,3.9907-3.0625,3.9954h-3.9907c-1.9259-.0046-2.9236-3.9954-2.9236-3.9954Z"/><path id="path405" class="cls-6" d="m5,10h6l-1,1h-4l-1-1Z"/><path id="path406" class="cls-3" d="m9,9v2l-1.0156,1-.9844-1v-2h2Z"/><path id="path407" class="cls-1" d="m6,5c0-1,1-1,1-1h2s1,0,1,1v1h-1v-1h-2v1h-1v-1Z"/><rect id="rect407" class="cls-9" x="6" y="6" width="1" height="1"/><rect id="rect408" class="cls-9" x="9" y="6" width="1" height="1"/></g></g></svg>