<?xml version="1.0" encoding="UTF-8"?><svg id="Layer_23_copy_4" xmlns="http://www.w3.org/2000/svg" width="16" height="16" xmlns:xlink="http://www.w3.org/1999/xlink" viewBox="0 0 16 16"><defs><style>.cls-1{fill:#fff;}.cls-2{opacity:.3;}.cls-2,.cls-3{isolation:isolate;}.cls-4{fill:#ff2020;}.cls-5{fill:url(#linear-gradient);}.cls-3{fill:url(#radial-gradient);opacity:.711;}</style><radialGradient id="radial-gradient" cx="153.7111" cy="-175.4241" fx="153.7111" fy="-175.4241" r="1.5875" gradientTransform="translate(-302.0335 -679.5421) rotate(33.6901) scale(4.1287 -2.2712)" gradientUnits="userSpaceOnUse"><stop offset="0" stop-color="#000"/><stop offset="1" stop-color="#000" stop-opacity="0"/></radialGradient><linearGradient id="linear-gradient" x1="111.5319" y1="-226.8358" x2="112.0611" y2="-226.8358" gradientTransform="translate(-415.5379 -848.3321) scale(3.7795 -3.7795)" gradientUnits="userSpaceOnUse"><stop offset="0" stop-color="#000"/><stop offset="1" stop-color="#000" stop-opacity="0"/></linearGradient></defs><path id="folder" class="cls-4" d="m1,.9944v12l4.1131,1.9355c.3105.1468.681.0135.8275-.2976.0393-.0834.0596-.1746.0594-.2668v-2.3711h6V1.9944c-.004-.745-.4086-.9893-1-1H1Z"/><path id="folder_shadow" class="cls-2" d="m.9821.9944l4.0848,1.5879c.5625.2187.9331.7603.9331,1.3638v8.0482h6V1.9944c-.004-.745-.4093-.9893-1.0016-1H.9821Z"/><path id="flap_shadow" class="cls-3" d="m11,11.9944c.7057-.0798,1.0812-.3798,1-.9844v-5.0156c.6647-.0018.998-.3352,1-1V1.9944c.0053-.6399-.3093-.9903-1-1H1v11h10Z"/><g id="Layer_69_copy"><path d="m9.4282,12.5c-2.4829,0-4.4282-1.3174-4.4282-3v-3.4062l1.707,1.707c.4009.4004,1.3262.8291,2.7212.8291,1.2241,0,2.3677-.5029,2.8647-1l1.707-1.707v3.5771c0,1.6543-2.0508,3-4.5718,3Z"/><path d="m9.5088,15.0166c-2.5283,0-4.5088-1.3252-4.5088-3.0166v-3.4141l1.707,1.707c.4873.4873,1.5425.9785,2.8018.9785,1.2471,0,2.2969-.4912,2.7842-.9785l1.707-1.707v3.4141c0,1.6914-1.9727,3.0166-4.4912,3.0166Z"/><path d="m9.5088,8.9336c-2.5283,0-4.5088-1.2891-4.5088-2.9336,0-1.626,2.0649-3,4.5088-3,2.4766,0,4.4912,1.3457,4.4912,3,0,1.6445-1.9727,2.9336-4.4912,2.9336Z"/><path class="cls-1" d="m5.9995,8.0077v.9923c0,1.0598,1.4961,2,3.4286,2s3.5718-.9402,3.5718-2v-1c-.6857.6857-2.0757,1.1298-3.5718,1.1298s-2.7429-.4364-3.4286-1.1221Z"/><path class="cls-1" d="m6,11v1c0,1.0598,1.5762,2.0163,3.5087,2.0163s3.4913-.9565,3.4913-2.0163v-1c-.6857.6857-1.9951,1.2717-3.4913,1.2717s-2.823-.586-3.5087-1.2717Z"/><path class="cls-1" d="m9.5087,4c1.8936,0,3.4913.9671,3.4913,2s-1.5977,1.9332-3.4913,1.9332-3.5087-.9003-3.5087-1.9332,1.6152-2,3.5087-2Z"/></g><path id="icon_shadow" class="cls-5" d="m6,5l2-1v10l-2-1V5Z"/><path id="flap" class="cls-4" d="m6,3.9456c.0005-.6031-.3694-1.1446-.9315-1.3632L1,1v11.994l4.1131,1.9355c.3105.1468.681.0135.8275-.2976.033-.0701.0446-.1472.0499-.2242l.0095-10.4621Z"/></svg>