<?xml version="1.0" encoding="UTF-8"?><svg id="Done" xmlns="http://www.w3.org/2000/svg" xmlns:xlink="http://www.w3.org/1999/xlink" viewBox="0 0 14 14"><defs><style>.cls-1{fill:#a040ff;}.cls-2{fill:#00ff06;}.cls-3{opacity:.3;}.cls-3,.cls-4{isolation:isolate;}.cls-5{fill:#ccc;}.cls-6{fill:#586977;}.cls-7{fill:url(#linear-gradient);}.cls-4{fill:url(#radial-gradient);opacity:.711;}</style><radialGradient id="radial-gradient" cx="219.8348" cy="-226.6262" fx="219.8348" fy="-226.6262" r="1.5875" gradientTransform="translate(-465.6802 -928.7318) rotate(33.6901) scale(4.1287 -2.2712)" gradientUnits="userSpaceOnUse"><stop offset="0" stop-color="#000"/><stop offset="1" stop-color="#000" stop-opacity="0"/></radialGradient><linearGradient id="linear-gradient" x1="157.9819" y1="-201.9681" x2="158.5111" y2="-201.9681" gradientTransform="translate(-592.0969 -754.8439) scale(3.7795 -3.7795)" gradientUnits="userSpaceOnUse"><stop offset="0" stop-color="#000"/><stop offset="1" stop-color="#000" stop-opacity="0"/></linearGradient></defs><g id="Layer_40_copy_5"><path id="path332" class="cls-1" d="m0,0v12l4.1131,1.9355c.3105.1468.681.0135.8275-.2976.0393-.0834.0596-.1746.0594-.2668v-2.3711h6V1c-.004-.745-.4086-.9893-1-1H0Z"/><path id="back_shadow" class="cls-3" d="m-.0179,0l4.0848,1.5879c.5625.2187.9331.7603.9331,1.3638v8.0482h6V1c-.004-.745-.4093-.9893-1.0016-1H-.0179Z"/><path id="flap_shadow" class="cls-4" d="m10,11c.7057-.0798,1.0812-.3798,1-.9844v-5.0156c.6647-.0018.998-.3352,1-1V1c.0053-.6399-.3093-.9903-1-1H0v11h10Z"/><g id="_01"><path d="m5.5,13.5v-1.083c-.3887-.1289-.7734-.415-.9287-.917h-1.0713v-6h1.0835c.1284-.3887.415-.7734.9165-.9287v-1.0713h2v1-1h2v1-1h2v1.0713c.5015.1553.7881.54.9165.9287h1.0835v2h-1,1v2h-1,1v2h-1.0835c-.1284.3887-.415.7734-.9165.9287v1.0713h-6Z"/><path d="m11,4v1c1,0,1,1,1,1h1v1h-1v1h1v1h-1v1h1v1h-1s0,1-1,1v1h-1v-1h-1v1h-1v-1h-1v1h-1v-1s-1,0-1-1h-1v-1h1v-1h-1v-1h1v-1h-1v-1h1s0-1,1-1v-1h1v1h1v-1h1v1h1v-1h1m1-1h-7v1.246c-.3259.1808-.5752.4476-.7433.754h-1.2567v7h1.246c.1808.3259.4476.5752.754.7433v1.2567h7v-1.246c.3259-.1808.5752-.4476.7433-.754h1.2567v-7h-1.2567c-.1681-.3063-.4174-.5732-.7433-.754v-1.246h0Z"/><polygon points="3 5 5 3.041 5 5 3 5"/><polygon points="3 12 5 14 5 12 3 12"/><polygon points="12 14 14 12 11.9323 12 12 14"/><polygon points="14 5 12 3.041 12 5 14 5"/><path class="cls-6" d="m6,5h5c1,0,1,1,1,1v5s0,1-1,1h-5s-1,0-1-1v-5s0-1,1-1Z"/><rect class="cls-2" x="7" y="7" width="3" height="3"/><rect class="cls-5" x="6" y="4" width="1" height="1"/><rect class="cls-5" x="8" y="4" width="1" height="1"/><rect class="cls-5" x="10" y="4" width="1" height="1"/><rect class="cls-5" x="6" y="12" width="1" height="1"/><rect class="cls-5" x="8" y="12" width="1" height="1"/><rect class="cls-5" x="10" y="12" width="1" height="1"/><rect class="cls-5" x="4" y="6" width="1" height="1"/><rect class="cls-5" x="4" y="8" width="1" height="1"/><rect class="cls-5" x="4" y="10" width="1" height="1"/><rect class="cls-5" x="12" y="6" width="1" height="1"/><rect class="cls-5" x="12" y="8" width="1" height="1"/><rect class="cls-5" x="12" y="10" width="1" height="1"/></g><path id="icon_shadow" class="cls-7" d="m5,4h2v9h-2V4Z"/><path class="cls-1" d="m5,2.9511c.0005-.6031-.3694-1.1446-.9315-1.3632L0,.0056v11.994l4.1131,1.9355c.3105.1468.681.0135.8275-.2976.033-.0701.0446-.1472.0499-.2242l.0095-10.4621Z"/></g></svg>