<?xml version="1.0" encoding="UTF-8"?><svg id="Done" xmlns="http://www.w3.org/2000/svg" xmlns:xlink="http://www.w3.org/1999/xlink" viewBox="0 0 14 14"><defs><style>.cls-1{fill:#ff6700;}.cls-2{opacity:.3;}.cls-2,.cls-3{isolation:isolate;}.cls-4{fill:#40a0ff;}.cls-5{fill:url(#linear-gradient);}.cls-3{fill:url(#radial-gradient);opacity:.711;}</style><radialGradient id="radial-gradient" cx="157.5541" cy="-207.5762" fx="157.5541" fy="-207.5762" r="1.5875" gradientTransform="translate(-275.7286 -750.0974) rotate(33.6901) scale(4.1287 -2.2712)" gradientUnits="userSpaceOnUse"><stop offset="0" stop-color="#000"/><stop offset="1" stop-color="#000" stop-opacity="0"/></radialGradient><linearGradient id="linear-gradient" x1="100.3548" y1="-201.9681" x2="101.1486" y2="-201.9681" gradientTransform="translate(-375.2938 -754.8439) scale(3.7795 -3.7795)" gradientUnits="userSpaceOnUse"><stop offset="0" stop-color="#000"/><stop offset="1" stop-color="#000" stop-opacity="0"/></linearGradient></defs><g id="Layer_40_copy_8"><path id="path332" class="cls-4" d="m0,0v12l4.1131,1.9355c.3105.1468.681.0135.8275-.2976.0393-.0834.0596-.1746.0594-.2668v-2.3711h6V1c-.004-.745-.4086-.9893-1-1H0Z"/><path id="back_shadow" class="cls-2" d="m-.0179,0l4.0848,1.5879c.5625.2187.9331.7603.9331,1.3638v8.0482h6V1c-.004-.745-.4093-.9893-1.0016-1H-.0179Z"/><path id="flap_shadow" class="cls-3" d="m10,11c.7057-.0798,1.0812-.3798,1-.9844v-5.0156c.6647-.0018.998-.3352,1-1V1c.0053-.6399-.3093-.9903-1-1H0v11h10Z"/><path d="m4.2246,13.9668c-1.1846,0-3.2168-.4521-3.5176-3.48l-.0967-.978,1.0635-.1245c-.1699-.2007-.3135-.4263-.4316-.6758-.208-.4375-.3145-.9141-.3145-1.4136,0-.583.1387-1.1221.4111-1.6011.2822-.498.6816-.8823,1.1875-1.1392.4678-.2388,1.0293-.3604,1.668-.3604.9883,0,1.793.293,2.3916.8701.5996.5801.9189,1.3784.9502,2.374l.0322.9785-.5674.0303c.1572.1919.29.4048.3975.6367.208.4453.3135.9746.3135,1.5713,0,.9048-.2891,1.6836-.8604,2.3159-.5967.6606-1.4805.9956-2.627.9956Zm-.085-3.2988"/><polygon points="10.4492 13.8389 10.4492 12 10.0029 12 10.0029 13.8389 6.7627 13.8389 6.7627 4.3223 10.0029 4.3223 10.0029 6 10.4492 6 10.4492 4.3223 13.6895 4.3223 13.6895 13.8389 10.4492 13.8389"/><g id="Text"><path class="cls-1" d="m1.7021,10.3877l1.2158-.1426c.1367.96.584,1.4404,1.3428,1.4404.376,0,.6719-.0986.8867-.2949.2158-.1963.3232-.4395.3232-.7305,0-.1709-.0371-.3154-.1123-.4355-.0752-.1191-.1904-.2178-.3438-.2939-.1543-.0771-.5264-.2061-1.1182-.3867-.5293-.1602-.917-.335-1.1631-.5225s-.4424-.4346-.5869-.7402c-.1455-.3057-.2188-.6348-.2188-.9863,0-.4092.0938-.7783.2803-1.1064.1855-.3271.4434-.5752.7715-.7422.3281-.168.7324-.252,1.2148-.252.7246,0,1.29.1973,1.6973.5898.4062.3936.6221.9561.6455,1.6865l-1.2461.0674c-.0547-.4033-.1719-.6855-.3535-.8467-.1807-.1602-.4395-.2402-.7744-.2402s-.5928.0693-.7734.209c-.1816.1396-.2725.3135-.2725.5215,0,.2051.083.377.2471.5166s.542.293,1.1338.4609c.625.1807,1.0771.3721,1.3555.5713.2783.2002.4912.458.6377.7744.1475.3164.2207.6992.2207,1.1504,0,.6523-.2012,1.2012-.6025,1.6455s-1.0303.666-1.8848.666c-1.5107,0-2.3516-.8594-2.5225-2.5791Z"/><path class="cls-1" d="m7.7627,12.8389v-7.5156h1.2402v2.958h2.4463v-2.958h1.2402v7.5156h-1.2402v-3.2861h-2.4463v3.2861h-1.2402Z"/></g><path id="icon_shadow" class="cls-5" d="m4,4l2,1,1,1v7h-3V4Z"/><path class="cls-4" d="m5,2.9511c.0005-.6031-.3694-1.1446-.9315-1.3632L0,.0056v11.994l4.1131,1.9355c.3105.1468.681.0135.8275-.2976.033-.0701.0446-.1472.0499-.2242l.0095-10.4621Z"/></g></svg>