<svg xmlns="http://www.w3.org/2000/svg" viewBox="0 0 14 14"><defs><linearGradient id="a" x1="866.861" x2="866.861" y1="-910.009" y2="-906.009" gradientTransform="matrix(.5 0 0 -.5 -430.43 -451.005)" gradientUnits="userSpaceOnUse"><stop offset="0"/><stop offset="1" stop-opacity=".151"/></linearGradient></defs><path fill="#ffedaf" d="M1 2c-.471 0-1 .529-1 1v8c0 .471.529 1 1 1h11c.471 0 1-.529 1-1V4c0-.471-.529-1-1-1H6c0-.471-.529-1-1-1z"/><path fill="url(#a)" d="M1 2c-.471 0-1 .529-1 1s.529 1 1 1h4c.471 0 1-.529 1-1s-.529-1-1-1z" opacity=".723" style="isolation:isolate"/></svg>