<?xml version="1.0" encoding="UTF-8"?><svg id="Done" xmlns="http://www.w3.org/2000/svg" xmlns:xlink="http://www.w3.org/1999/xlink" viewBox="0 0 14 14"><defs><style>.cls-1{fill:aqua;}.cls-2{opacity:.3;}.cls-2,.cls-3{isolation:isolate;}.cls-4{fill:url(#linear-gradient);}.cls-5{fill:red;}.cls-3{fill:url(#radial-gradient);opacity:.711;}</style><radialGradient id="radial-gradient" cx="-27.3428" cy="16.4739" fx="-27.3428" fy="16.4739" r="1.5875" gradientTransform="translate(77.1756 96.7519) rotate(33.6901) scale(4.1287 -2.2712)" gradientUnits="userSpaceOnUse"><stop offset="0" stop-color="#000"/><stop offset="1" stop-color="#000" stop-opacity="0"/></radialGradient><linearGradient id="linear-gradient" x1="-42.4348" y1="-96.4514" x2="-41.9056" y2="-96.4514" gradientTransform="translate(165.3833 -356.0408) scale(3.7795 -3.7795)" gradientUnits="userSpaceOnUse"><stop offset="0" stop-color="#000"/><stop offset="1" stop-color="#000" stop-opacity="0"/></linearGradient></defs><g id="Layer_23"><path id="path599" class="cls-1" d="m0,0v12l4.1131,1.9355c.3105.1468.681.0135.8275-.2976.0393-.0834.0596-.1746.0594-.2668v-2.3711h6V1C10.996.255,10.5914.0107,10,0H0Z"/><g id="g614"><path id="path600" class="cls-2" d="m-.0179,0l4.0848,1.5879c.5625.2187.9331.7603.9331,1.3638v8.0482h6V1C10.996.255,10.5907.0107,9.9984,0H-.0179Z"/><path id="path601" class="cls-3" d="m10,11c.7057-.0798,1.0812-.3798,1-.9844v-5.0156c.6647-.0018.998-.3352,1-1V1C12.0053.3601,11.6907.0097,11,0H0v11h10Z"/><g id="g527"><circle id="circle526" cx="8.5228" cy="8.4485" r="5.5469"/><path id="path527" class="cls-5" d="m13.1452,8.491c0,2.5764-2.0035,4.5799-4.5799,4.5799s-4.6649-2.0035-4.6649-4.5799,2.0885-4.6649,4.6649-4.6649c2.5764,0,4.5799,2.0885,4.5799,4.6649Z"/><circle id="circle527" cx="8.5228" cy="8.4485" r="2.7734"/><polygon id="rect527" class="cls-5" points="4.7782 6.9739 6.5718 5.366 12.2673 9.9231 10.4737 11.5309 4.7782 6.9739"/></g><path id="path613" class="cls-4" d="m5,5l1-1h1v9h-1l-1-1v-7Z"/></g><path class="cls-1" d="m5,2.9511c.0005-.6031-.3694-1.1446-.9315-1.3632L0,.0056v11.994l4.1131,1.9355c.3105.1468.681.0135.8275-.2976.033-.0701.0446-.1472.0499-.2242l.0095-10.4621Z"/></g></svg>