<svg xmlns="http://www.w3.org/2000/svg" id="Done" viewBox="0 0 14 14"><defs><radialGradient id="radial-gradient" cx="140.486" cy="-85.726" r="1.587" fx="140.486" fy="-85.726" gradientTransform="matrix(3.43528 2.2902 1.25984 -1.88975 -370.606 -480.74)" gradientUnits="userSpaceOnUse"><stop offset="0"/><stop offset="1" stop-opacity="0"/></radialGradient><linearGradient id="linear-gradient" x1="103.653" x2="104.182" y1="-136.21" y2="-136.21" gradientTransform="matrix(3.7795 0 0 -3.7795 -386.758 -506.308)" gradientUnits="userSpaceOnUse"><stop offset="0"/><stop offset="1" stop-opacity="0"/></linearGradient><style>.cls-1{fill:#a040ff}.cls-4{fill:#decd87;fill-rule:evenodd}</style></defs><g id="Layer_28"><path id="folder" d="M0 0v12l4.113 1.936A.62.62 0 0 0 5 13.37V11h6V1c-.004-.745-.409-.99-1-1z" class="cls-1"/><path id="folder_shadow" d="m-.018 0 4.086 1.588c.562.219.932.76.932 1.363V11h6V1c-.004-.745-.41-.99-1.002-1z" opacity=".3" style="isolation:isolate"/><path id="flap_shadow" fill="url(#radial-gradient)" d="M10 11c.706-.08 1.081-.38 1-.984V5q.997-.003 1-1V1c.005-.64-.31-.99-1-1H0v11z" opacity=".711" style="isolation:isolate"/><path id="rect12" fill-rule="evenodd" d="M2 4h12v3l-1 1v6H4.473L3 13V8L2 7z"/><path id="rect7" d="M3 7h10l-1 1v5H4V8z" class="cls-4"/><path id="rect8" d="M3 5h10v2H3z" class="cls-4"/><path id="rect9" fill="#504416" fill-rule="evenodd" d="M4.07 7h9l-1 1h-8l-1-1z"/><path id="rect10" fill="#100c00" fill-rule="evenodd" d="M6 9h4v1H6z"/><path id="icon_shadow" fill="url(#linear-gradient)" d="M5 4h2v9H5z"/><path id="flap" d="M5 2.951c0-.603-.37-1.145-.931-1.363L0 .006V12l4.113 1.935c.31.147.681.014.828-.298a.6.6 0 0 0 .05-.224z" class="cls-1"/></g></svg>