<svg xmlns="http://www.w3.org/2000/svg" id="Done" viewBox="0 0 14 14"><defs><radialGradient id="radial-gradient" cx="130.006" cy="-98.426" r="1.587" fx="130.006" fy="-98.426" gradientTransform="matrix(3.43528 2.2902 1.25984 -1.88975 -318.606 -480.74)" gradientUnits="userSpaceOnUse"><stop offset="0"/><stop offset="1" stop-opacity="0"/></radialGradient><linearGradient id="linear-gradient" x1="89.894" x2="90.424" y1="-136.342" y2="-136.342" gradientTransform="matrix(3.7795 0 0 -3.7795 -334.758 -506.308)" gradientUnits="userSpaceOnUse"><stop offset="0"/><stop offset="1" stop-opacity="0"/></linearGradient><style>.cls-1{fill:#fff;fill-rule:evenodd}.cls-5{fill:#ff2020}</style></defs><g id="Layer_32"><path id="folder" d="M0 0v12l4.113 1.936A.62.62 0 0 0 5 13.37V11h6V1c-.004-.745-.409-.99-1-1z" class="cls-5"/><path id="folder_shadow" d="m-.018 0 4.086 1.588c.562.219.932.76.932 1.363V11h6V1c-.004-.745-.41-.99-1.002-1z" opacity=".3" style="isolation:isolate"/><path id="flap_shadow" fill="url(#radial-gradient)" d="M10 11c.706-.08 1.081-.38 1-.984V5q.997-.003 1-1V1c.005-.64-.31-.99-1-1H0v11z" opacity=".711" style="isolation:isolate"/><g id="g289"><path fill-rule="evenodd" stroke="#000" stroke-linejoin="round" stroke-width="2" d="m11 7-1-1-.42-.42L9 5H7l-.58.58L6 6 5 7 3 9l1 1 1 1 1 1 1 1h2l1-1 1-1 1-1 1-1z"/><path id="path285" d="M9 12v-1l2-2-2-2V5l.58.58L10 6l1 1 2 2-1 1-1 1-1 1-1 1z" class="cls-1"/><path id="path289" d="M7 12v-1L5 9l2-2V5l-.58.58L6 6 5 7 3 9l1 1 1 1 1 1 1 1z" class="cls-1"/></g><path id="icon_shadow" fill="url(#linear-gradient)" d="M5 5.713 6 5l1-1v10l-2-2z"/><path id="flap" d="M5 2.951c0-.603-.37-1.145-.931-1.363L0 .006V12l4.113 1.935c.31.147.681.014.828-.298a.6.6 0 0 0 .05-.224z" class="cls-5"/></g></svg>