<?xml version="1.0" encoding="UTF-8"?><svg id="Layer_23_copy_7" xmlns="http://www.w3.org/2000/svg" width="16" height="16" xmlns:xlink="http://www.w3.org/1999/xlink" viewBox="0 0 16 16"><defs><style>.cls-1,.cls-2{fill:#fff;}.cls-2,.cls-3{fill-rule:evenodd;}.cls-4{opacity:.3;}.cls-4,.cls-5{isolation:isolate;}.cls-6{fill:#ff13c0;}.cls-7{fill:url(#linear-gradient);}.cls-5{fill:url(#radial-gradient);opacity:.711;}</style><radialGradient id="radial-gradient" cx="91.4304" cy="-156.3741" fx="91.4304" fy="-156.3741" r="1.5875" gradientTransform="translate(-112.082 -500.9078) rotate(33.6901) scale(4.1287 -2.2712)" gradientUnits="userSpaceOnUse"><stop offset="0" stop-color="#000"/><stop offset="1" stop-color="#000" stop-opacity="0"/></radialGradient><linearGradient id="linear-gradient" x1="54.1694" y1="-226.9681" x2="54.6986" y2="-226.9681" gradientTransform="translate(-198.7348 -848.3321) scale(3.7795 -3.7795)" gradientUnits="userSpaceOnUse"><stop offset="0" stop-color="#000"/><stop offset="1" stop-color="#000" stop-opacity="0"/></linearGradient></defs><path id="folder" class="cls-6" d="m1,.9944v12l4.1131,1.9355c.3105.1468.681.0135.8275-.2976.0393-.0834.0596-.1746.0594-.2668v-2.3711h6V1.9944c-.004-.745-.4086-.9893-1-1H1Z"/><path id="folder_shadow" class="cls-4" d="m.9821.9944l4.0848,1.5879c.5625.2187.9331.7603.9331,1.3638v8.0482h6V1.9944c-.004-.745-.4093-.9893-1.0016-1H.9821Z"/><path id="flap_shadow" class="cls-5" d="m11,11.9944c.7057-.0798,1.0812-.3798,1-.9844v-5.0156c.6647-.0018.998-.3352,1-1V1.9944c.0053-.6399-.3093-.9903-1-1H1v11h10Z"/><g id="Layer_93_copy_2"><path class="cls-3" d="m12,15c-1.3906,0-2.5664-.9551-2.9023-2.2441l-1.2236-.417c-.5254.4258-1.1792.6611-1.874.6611-1.6543,0-3-1.3457-3-3s1.3457-3,3-3c.3228,0,.6392.0518.9409.1523l1.1973-1.2529c-.0913-.2891-.1382-.5918-.1382-.8994,0-1.6543,1.3457-3,3-3s3,1.3457,3,3-1.3457,3-3,3c-.2407,0-.4775-.0293-.7095-.0879l-1.3096,1.3711,1.1367.3877c.5288-.4277,1.1938-.6709,1.8823-.6709,1.6196,0,2.8887,1.3154,2.8887,2.9941,0,1.6855-1.269,3.0059-2.8887,3.0059Z"/><circle class="cls-1" cx="11" cy="5" r="2"/><circle class="cls-1" cx="6" cy="10" r="2"/><circle class="cls-1" cx="12" cy="12" r="2"/><polygon class="cls-2" points="10.9544 5.7696 6.8099 10.1083 6.1326 9.4462 10.2771 5.1075 10.9544 5.7696"/><polygon class="cls-2" points="11.5474 12.5357 5.8691 10.5974 6.3357 9.4369 12.0139 11.3752 11.5474 12.5357"/></g><path id="icon_shadow" class="cls-7" d="m6,8l2-2v6l-2,1v-5Z"/><path id="flap" class="cls-6" d="m6,3.9456c.0005-.6031-.3694-1.1446-.9315-1.3632L1,1v11.994l4.1131,1.9355c.3105.1468.681.0135.8275-.2976.033-.0701.0446-.1472.0499-.2242l.0095-10.4621Z"/></svg>