<?xml version="1.0" encoding="UTF-8"?><svg id="Done" xmlns="http://www.w3.org/2000/svg" width="16" height="16" xmlns:xlink="http://www.w3.org/1999/xlink" viewBox="0 0 16 16"><defs><style>.cls-1{fill:aqua;}.cls-2{fill:url(#linear-gradient);isolation:isolate;opacity:.723;}.cls-3{fill:red;}</style><linearGradient id="linear-gradient" x1="1049.8608" y1="-736.0094" x2="1049.8608" y2="-732.0094" gradientTransform="translate(-520.9304 -365.0047) scale(.5 -.5)" gradientUnits="userSpaceOnUse"><stop offset="0" stop-color="#000"/><stop offset="1" stop-color="#000" stop-opacity=".151"/></linearGradient></defs><g id="Layer_24"><g id="g187"><g id="g452"><path id="path451" class="cls-1" d="m2,1c-.4714,0-1,.5286-1,1v7c0,.4714.5286,1,1,1h10c.4714,0,1-.5286,1-1V3c0-.4714-.5286-1-1-1h-5c0-.4714-.5286-1-1-1H2Z"/><path id="path452" class="cls-2" d="m2,1c-.4714,0-1,.5286-1,1s.5286,1,1,1h4c.4714,0,1-.5286,1-1s-.5286-1-1-1H2Z"/></g><g id="g529"><circle id="circle528" cx="9.5228" cy="9.4485" r="5.5469"/><path id="path528" class="cls-3" d="m14.1452,9.491c0,2.5764-2.0035,4.5799-4.5799,4.5799s-4.6649-2.0035-4.6649-4.5799,2.0885-4.6649,4.6649-4.6649c2.5764,0,4.5799,2.0885,4.5799,4.6649Z"/><circle id="circle529" cx="9.5228" cy="9.4485" r="2.7734"/><polygon id="rect529" class="cls-3" points="5.7782 7.9739 7.5718 6.366 13.2673 10.9231 11.4737 12.5309 5.7782 7.9739"/></g></g></g></svg>