<svg xmlns="http://www.w3.org/2000/svg" viewBox="0 0 14 14"><defs><linearGradient id="a" x1="1074.861" x2="1074.861" y1="-581.009" y2="-577.009" gradientTransform="matrix(.5 0 0 -.5 -534.43 -288.505)" gradientUnits="userSpaceOnUse"><stop offset="0"/><stop offset="1" stop-opacity=".151"/></linearGradient></defs><path fill="#999" d="M1 0C.529 0 0 .529 0 1v7c0 .471.529 1 1 1h10c.471 0 1-.529 1-1V2c0-.471-.529-1-1-1H6c0-.471-.529-1-1-1z"/><path fill="url(#a)" d="M1 0C.529 0 0 .529 0 1s.529 1 1 1h4c.471 0 1-.529 1-1s-.529-1-1-1z" opacity=".723" style="isolation:isolate"/><path stroke="#000" stroke-miterlimit="1.839" stroke-width="2" d="M7 5H6v1h2v1H5L4 8v2l1 1h1v1l1 1h3v-1h1v-1H9v-1h3l1-1V7l-1-1h-1V5l-1-1H7z"/><path fill="#95afae" d="M7 4v1H6v1h2v1H5L4 8v2l1 1h1l2-1h1V9h2V5l-1-1z"/><path fill="#afaa95" d="M10 8 9 9H8l-1 1-1 1v1l1 1h3v-1h1v-1H9v-1h3l1-1V7l-1-1h-1v1z"/><path d="m11 5-1 1v1L9 8h-.93l-1 1H7l-1 1v2l1-1v-1l1-1h1.07l1-1H10l1-.864z"/></svg>