<svg xmlns="http://www.w3.org/2000/svg" id="Done" viewBox="0 0 14 14"><defs><radialGradient id="radial-gradient" cx="199.075" cy="-220.276" r="1.587" fx="199.075" fy="-220.276" gradientTransform="matrix(3.43528 2.2902 1.25984 -1.88975 -402.363 -869.187)" gradientUnits="userSpaceOnUse"><stop offset="0"/><stop offset="1" stop-opacity="0"/></radialGradient><linearGradient id="linear-gradient" x1="138.596" x2="139.39" y1="-202.154" y2="-202.154" gradientTransform="matrix(3.7795 0 0 -3.7795 -519.83 -754.844)" gradientUnits="userSpaceOnUse"><stop offset="0"/><stop offset="1" stop-opacity="0"/></linearGradient><style>.cls-1{fill:#0ff}</style></defs><g id="Layer_40_copy_6"><path id="folder" d="M0 0v12l4.113 1.936A.62.62 0 0 0 5 13.37V11h6V1c-.004-.745-.409-.99-1-1z" class="cls-1"/><path id="back_shadow" d="m-.018 0 4.085 1.588c.562.219.933.76.933 1.364V11h6V1c-.004-.745-.41-.99-1.002-1z" opacity=".3" style="isolation:isolate"/><path id="flap_shadow" fill="url(#radial-gradient)" d="M10 11c.706-.08 1.081-.38 1-.984V5q.997-.003 1-1V1c.005-.64-.31-.99-1-1H0v11z" opacity=".711" style="isolation:isolate"/><path d="M13.612 9.083a3 3 0 0 0-.398-.636l.569-.03-.032-.98c-.033-.996-.353-1.794-.951-2.372s-1.402-.87-2.392-.87c-.639 0-1.201.12-1.669.36a2.8 2.8 0 0 0-.827.674v-.906H4.67v4.946l-2.71.378.003.874c.005 1.053.252 1.884.736 2.47.525.638 1.272.976 2.162.976.644 0 1.209-.157 1.682-.468.408-.27.71-.654.939-1.108.762 1.328 2.087 1.576 2.957 1.576 1.146 0 2.03-.335 2.626-.995.57-.632.86-1.41.86-2.317 0-.597-.105-1.127-.313-1.573Z"/><path id="Text" fill="#ff0" d="M5.67 5.323h1.242v4.758q0 1.152-.231 1.717c-.231.565-.384.665-.69.867q-.46.302-1.13.302-.888 0-1.39-.61t-.508-1.84l1.175-.165q.02.661.17.938.2.38.601.38.39 0 .576-.275c.186-.275.185-.587.185-1.217zm2.246 5.065 1.215-.143q.206 1.44 1.344 1.44.564 0 .886-.294a.95.95 0 0 0 .323-.73.8.8 0 0 0-.112-.436.83.83 0 0 0-.344-.294q-.231-.116-1.118-.387-.794-.24-1.163-.522c-.37-.282-.442-.435-.587-.74a2.3 2.3 0 0 1-.219-.987q0-.615.28-1.106t.772-.743 1.215-.252q1.086.001 1.697.59.61.59.646 1.687l-1.246.067q-.083-.604-.354-.847-.272-.24-.774-.24c-.502 0-.593.07-.774.21s-.272.313-.272.52q0 .309.247.517.246.21 1.133.461.938.271 1.356.572.417.3.638.774.22.475.22 1.15 0 .98-.602 1.646-.603.666-1.885.666-2.265 0-2.522-2.58Z"/><path id="icon_shadow" fill="url(#linear-gradient)" d="M4 10V5h3v8l-.95.406L4 13z"/><path id="flap" d="M5 2.951c0-.603-.37-1.145-.931-1.363L0 .006V12l4.113 1.935c.31.147.681.014.828-.298a.6.6 0 0 0 .05-.224z" class="cls-1"/></g></svg>