<?xml version="1.0" encoding="UTF-8"?><svg id="Done" xmlns="http://www.w3.org/2000/svg" xmlns:xlink="http://www.w3.org/1999/xlink" viewBox="0 0 14 14"><defs><style>.cls-1{fill:#fff;}.cls-2{opacity:.3;}.cls-2,.cls-3{isolation:isolate;}.cls-4{fill:#ff2020;}.cls-5{fill:url(#linear-gradient);}.cls-3{fill:url(#radial-gradient);opacity:.711;}</style><radialGradient id="radial-gradient" cx="261.3553" cy="-239.3262" fx="261.3553" fy="-239.3262" r="1.5875" gradientTransform="translate(-592.3146 -1047.8213) rotate(33.6901) scale(4.1287 -2.2712)" gradientUnits="userSpaceOnUse"><stop offset="0" stop-color="#000"/><stop offset="1" stop-color="#000" stop-opacity="0"/></radialGradient><linearGradient id="linear-gradient" x1="196.2236" y1="-201.9681" x2="196.7527" y2="-201.9681" gradientTransform="translate(-736.6324 -754.8439) scale(3.7795 -3.7795)" gradientUnits="userSpaceOnUse"><stop offset="0" stop-color="#000"/><stop offset="1" stop-color="#000" stop-opacity="0"/></linearGradient></defs><g id="Layer_40_copy_3"><path id="path332" class="cls-4" d="m0,0v12l4.1131,1.9355c.3105.1468.681.0135.8275-.2976.0393-.0834.0596-.1746.0594-.2668v-2.3711h6V1c-.004-.745-.4086-.9893-1-1H0Z"/><path id="back_shadow" class="cls-2" d="m-.0179,0l4.0848,1.5879c.5625.2187.9331.7603.9331,1.3638v8.0482h6V1c-.004-.745-.4093-.9893-1.0016-1H-.0179Z"/><path id="flap_shadow" class="cls-3" d="m10,11c.7057-.0798,1.0812-.3798,1-.9844v-5.0156c.6647-.0018.998-.3352,1-1V1c.0053-.6399-.3093-.9903-1-1H0v11h10Z"/><g id="Layer_48_copy_2"><path d="m9.9907,14.0229c-.4292,0-.7227-.1943-1.1733-.6426-.4233.4238-.7222.6221-1.1479.6221h-.1982l-.2637-.0967-1.292-.5615-.2124-.4873-.0542-.2173c-.0298-.2163-.0493-.4341-.0586-.6528-.5337-.0015-1.2246-.0347-1.5283-.7734l-.3486-.8594c-.2529-.6323-.0195-1.0454.543-1.6255-.3901-.3975-.4844-.5522-.5547-.7261l-.1226-.3027.0508-.3877.0181-.0718.0488-.1484.3516-.8433c.334-.7549,1.043-.7637,1.5205-.7642.0029-.7876.1318-1.2642.7681-1.5259l1.0308-.4146.2729-.021c.4272,0,.7202.1943,1.1714.6431.4219-.4224.7207-.6201,1.1475-.6201h.2183l.2827.1157,1.2451.541.2178.4834.0562.2227c.0293.2144.0493.4307.0591.6479.5366.002,1.2275.0381,1.5293.7739l.3511.8535c.2578.6328.0244,1.0464-.54,1.6294.3906.3975.4854.5537.5562.731l.1284.3218-.0693.4033-.0596.1821-.3516.8452c-.3188.7568-1.04.7642-1.5244.7646-.0015.7949-.1309,1.2744-.7773,1.5317l-1.02.4097-.2705.02Z"/><path class="cls-1" d="m11.0372,11.3175l.2749-.2715c1.2717.0411,1.2914,0,1.3476-.1332l.3515-.8456.0239-.0808-.0288-.0709c-.0148-.0369-.0612-.1503-.8555-.9023v-.3955c.9139-.8774.897-.9214.8436-1.0532l-.3515-.8548c-.0527-.1276-.0759-.1786-1.3356-.1418l-.2756-.2757c.0286-.4159.0143-.8338-.0429-1.2467l-.0359-.0801-.9082-.3948c-.1336-.061-.1807-.0829-1.0383.8456l-.3852-.0057c-.8836-.937-.9251-.9214-1.0601-.8668l-.8436.3395c-.1322.0539-.1786.0758-.1279,1.3466l-.272.27c-1.2717-.0418-1.2871,0-1.3462.1332l-.3515.8434-.0204.0794.0288.0709c.0148.0361.059.146.8555.903v.3948c-.9139.8774-.8963.9214-.8436,1.0532l.3473.8555c.0534.1311.0759.1779,1.3356.1418l.2749.2835c-.0287.4152-.0148.8323.0415,1.2446l.0351.0808.9139.3969c.1336.0553.1786.0751,1.0341-.8505l.3852.0043c.8843.9384.93.9214,1.0601.8682l.8436-.3388c.1315-.0524.1779-.073.1258-1.3466Z"/><ellipse cx="8.8172" cy="8.7734" rx="2.0001" ry="2.0142"/></g><path id="icon_shadow" class="cls-5" d="m5,6h1l1-2v9l-1-1-1-1v-5Z"/><path class="cls-4" d="m5,2.9511c.0005-.6031-.3694-1.1446-.9315-1.3632L0,.0056v11.994l4.1131,1.9355c.3105.1468.681.0135.8275-.2976.033-.0701.0446-.1472.0499-.2242l.0095-10.4621Z"/></g></svg>