<svg xmlns="http://www.w3.org/2000/svg" viewBox="0 0 14 14"><defs><linearGradient id="a" x1="372.861" x2="372.861" y1="-893.009" y2="-889.009" gradientTransform="matrix(.5 0 0 -.5 -183.43 -444.505)" gradientUnits="userSpaceOnUse"><stop offset="0"/><stop offset="1" stop-opacity=".151"/></linearGradient></defs><path fill="#ff2020" d="M1 0C.529 0 0 .529 0 1v7c0 .471.529 1 1 1h10c.471 0 1-.529 1-1V2c0-.471-.529-1-1-1H6c0-.471-.529-1-1-1z"/><path fill="url(#a)" d="M1 0C.529 0 0 .529 0 1s.529 1 1 1h4c.471 0 1-.529 1-1s-.529-1-1-1z" opacity=".723" style="isolation:isolate"/><path d="M9.99 14.023c-.428 0-.722-.194-1.173-.643-.423.424-.722.622-1.147.622h-.2l-.263-.096-1.292-.562-.213-.487-.054-.217a7 7 0 0 1-.059-.653c-.533-.002-1.224-.035-1.528-.774l-.348-.859c-.253-.632-.02-1.045.543-1.626-.39-.397-.485-.552-.555-.726L3.579 7.7l.051-.388.018-.072.049-.148.352-.844c.334-.754 1.043-.763 1.52-.764.003-.787.132-1.264.768-1.526l1.03-.414.274-.021c.427 0 .72.194 1.171.643.422-.423.72-.62 1.148-.62h.218l.283.115 1.245.541.218.484.056.223q.045.321.059.647c.537.002 1.227.039 1.53.774l.35.854c.258.633.025 1.046-.54 1.63.39.397.486.553.557.73l.128.322-.07.403-.059.182-.352.846c-.318.756-1.04.764-1.524.764-.001.795-.13 1.275-.777 1.532l-1.02.41-.27.02Z"/><path fill="#fff" d="m11.037 11.318.275-.272c1.272.041 1.292 0 1.348-.133l.351-.846.024-.08-.029-.071c-.015-.037-.06-.15-.855-.903v-.395c.914-.878.897-.922.843-1.053l-.351-.855c-.053-.128-.076-.179-1.336-.142l-.275-.276a6 6 0 0 0-.043-1.246l-.036-.08-.908-.395c-.134-.061-.181-.083-1.039.845l-.385-.005c-.883-.937-.925-.922-1.06-.867l-.843.34c-.133.053-.18.075-.128 1.346l-.272.27c-1.272-.042-1.287 0-1.347.133l-.351.843-.02.08.028.07c.015.037.06.147.856.904v.395c-.914.877-.896.92-.844 1.053l.348.855c.053.131.075.178 1.335.142l.275.284q-.043.624.042 1.244l.035.08.914.398c.133.055.178.075 1.034-.85l.385.004c.884.938.93.921 1.06.868l.844-.339c.131-.052.177-.073.125-1.347"/><ellipse cx="8.817" cy="8.773" rx="2" ry="2.014"/></svg>