<svg xmlns="http://www.w3.org/2000/svg" viewBox="0 0 14 14"><defs><linearGradient id="a" x1="658.861" x2="658.861" y1="-737.009" y2="-733.009" gradientTransform="matrix(.5 0 0 -.5 -326.43 -366.505)" gradientUnits="userSpaceOnUse"><stop offset="0"/><stop offset="1" stop-opacity=".151"/></linearGradient></defs><path fill="#40a0ff" d="M1 0C.529 0 0 .529 0 1v7c0 .471.529 1 1 1h10c.471 0 1-.529 1-1V2c0-.471-.529-1-1-1H6c0-.471-.529-1-1-1z"/><path fill="url(#a)" d="M1 0C.529 0 0 .529 0 1s.529 1 1 1h4c.471 0 1-.529 1-1s-.529-1-1-1z" opacity=".723" style="isolation:isolate"/><path d="M5 4h7v3H5z"/><path d="M3 6h11v8H3z"/><path fill="silver" fill-rule="evenodd" d="M6 5h5v2h-1V6H7l.031 1H6z"/><path fill="red" d="M4 7h9v6H4z"/><path d="M3 9h10v1H3z"/><path fill="silver" d="M8 9h1v2H8z"/></svg>