<svg xmlns="http://www.w3.org/2000/svg" viewBox="0 0 14 14"><defs><linearGradient id="a" x1="1048.861" x2="1048.861" y1="-893.009" y2="-889.009" gradientTransform="matrix(.5 0 0 -.5 -521.43 -444.505)" gradientUnits="userSpaceOnUse"><stop offset="0"/><stop offset="1" stop-opacity=".151"/></linearGradient></defs><path fill="#a040ff" d="M1 0C.529 0 0 .529 0 1v7c0 .471.529 1 1 1h10c.471 0 1-.529 1-1V2c0-.471-.529-1-1-1H6c0-.471-.529-1-1-1z"/><path fill="url(#a)" d="M1 0C.529 0 0 .529 0 1s.529 1 1 1h4c.471 0 1-.529 1-1s-.529-1-1-1z" opacity=".723" style="isolation:isolate"/><path fill-rule="evenodd" d="M10 3H8l.002.992V6H3v4h5v3h2l4-5.003z"/><path fill="#0f0" fill-rule="evenodd" d="M4 9h6l-1 3 4-4-4-4 1 3H4z"/></svg>