<?xml version="1.0" encoding="UTF-8"?><svg id="Done" xmlns="http://www.w3.org/2000/svg" xmlns:xlink="http://www.w3.org/1999/xlink" viewBox="0 0 14 14"><defs><style>.cls-1{opacity:.3;}.cls-1,.cls-2,.cls-3{isolation:isolate;}.cls-4{fill:#00c6fd;}.cls-5{fill:none;stroke:#000;stroke-miterlimit:1.8391;stroke-width:2px;}.cls-6{fill:#999;}.cls-7{fill:#ffe319;}.cls-8{fill:url(#linear-gradient);}.cls-2{opacity:.5;}.cls-3{fill:url(#radial-gradient);opacity:.711;}</style><radialGradient id="radial-gradient" cx="105.554" cy="-155.576" fx="105.554" fy="-155.576" r="1.5875" gradientTransform="translate(-162.606 -532.7402) rotate(33.6901) scale(4.1287 -2.2712)" gradientUnits="userSpaceOnUse"><stop offset="0" stop-color="#000"/><stop offset="1" stop-color="#000" stop-opacity="0"/></radialGradient><linearGradient id="linear-gradient" x1="48.6194" y1="-149.9679" x2="49.1486" y2="-149.9679" gradientTransform="translate(-178.7584 -558.3085) scale(3.7795 -3.7795)" gradientUnits="userSpaceOnUse"><stop offset="0" stop-color="#000"/><stop offset="1" stop-color="#000" stop-opacity="0"/></linearGradient></defs><g id="Layer_26"><path id="path619" class="cls-6" d="m0-.0005v12l4.1131,1.9355c.3105.1468.681.0135.8275-.2976.0393-.0834.0596-.1746.0594-.2668v-2.3711h6V.9995c-.004-.745-.4086-.9893-1-1H0Z"/><path id="path620" class="cls-1" d="m-.0179-.0005l4.0855,1.5882c.5621.2185.9324.7597.9324,1.3628v8.049h6V.9995c-.004-.745-.4093-.9893-1.0016-1H-.0179Z"/><path id="path621" class="cls-3" d="m10,10.9995c.7057-.0798,1.0812-.3798,1-.9844v-5.0156c.6647-.0018.998-.3352,1-1V.9995c.0053-.6399-.3093-.9903-1-1H0v11h10Z"/><path id="path490" class="cls-5" d="m7,5h-1v1h2v1h-3l-1,1v2l1,1h1v1l1,1h3v-1h1v-1h-2v-1h3l1-1v-2l-1-1h-1v-1l-1-1h-3v1Z"/><path id="path491" class="cls-4" d="m7,4v1h-1v1h2v1h-3l-1,1v2l1,1h1l2-1h1v-1h2v-4l-1-1h-3Z"/><path id="path492" class="cls-7" d="m10,8l-1,1h-1l-1,1-1,1v1l1,1h3v-1h1v-1h-2v-1h3l1-1v-2l-1-1h-1v1l-1,1Z"/><path id="path494" d="m6,10l1-1h1l-1,1v1l-1,1v-1s0-1,0-1Z"/><path id="path495" d="m9.0696,8h1l-1,1h-2l1-1h1Z"/><path id="path496" d="m10,6l1-1v2.136l-1,.864h-1l1-1v-1Z"/><path id="path471" class="cls-2" d="m7,4v1h-1v1h2v1h-3l-1,1v2l1,1h1v1l1,1h3v-1h1v-1h-2v-1h3l1-1v-2l-1-1h-1v-1l-1-1h-3Z"/><path id="path624" class="cls-8" d="m5,5.9995l1-1,1-1v9l-1-1-1-1v-5Z"/><path id="Flap" class="cls-6" d="m5,2.9511c.0005-.6031-.3694-1.1446-.9315-1.3632L0,.0056v11.994l4.1131,1.9355c.3105.1468.681.0135.8275-.2976.033-.0701.0446-.1472.0499-.2242l.0095-10.4621Z"/></g></svg>