<?xml version="1.0" encoding="UTF-8" standalone="no"?>
<svg
   width="16"
   height="16"
   viewBox="0 0 16 16"
   fill="none"
   version="1.1"
   id="svg2"
   sodipodi:docname="_icon_base.svg"
   inkscape:version="1.3.2 (091e20e, 2023-11-25, custom)"
   xml:space="preserve"
   inkscape:export-filename="svg.svg"
   inkscape:export-xdpi="96"
   inkscape:export-ydpi="96"
   xmlns:inkscape="http://www.inkscape.org/namespaces/inkscape"
   xmlns:sodipodi="http://sodipodi.sourceforge.net/DTD/sodipodi-0.dtd"
   xmlns:xlink="http://www.w3.org/1999/xlink"
   xmlns="http://www.w3.org/2000/svg"
   xmlns:svg="http://www.w3.org/2000/svg"><defs
     id="defs2"><inkscape:path-effect
       effect="powerclip"
       id="path-effect21"
       is_visible="true"
       lpeversion="1"
       inverse="true"
       flatten="false"
       hide_clip="false"
       message="Use fill-rule evenodd on &lt;b&gt;fill and stroke&lt;/b&gt; dialog if no flatten result after convert clip to paths." /><inkscape:path-effect
       effect="fillet_chamfer"
       id="path-effect45"
       is_visible="true"
       lpeversion="1"
       nodesatellites_param="F,0,0,1,0,1,0,1 @ F,0,0,1,0,0,0,1 @ F,0,0,1,0,0,0,1 @ F,0,0,1,0,0,0,1 @ F,0,0,1,0,1,0,1"
       radius="0"
       unit="px"
       method="auto"
       mode="F"
       chamfer_steps="1"
       flexible="false"
       use_knot_distance="true"
       apply_no_radius="true"
       apply_with_radius="true"
       only_selected="false"
       hide_knots="false" /><inkscape:path-effect
       effect="fillet_chamfer"
       id="path-effect43"
       is_visible="true"
       lpeversion="1"
       nodesatellites_param="F,0,0,1,0,1,0,1 @ F,0,0,1,0,0,0,1 @ F,0,0,1,0,1,0,1 @ F,0,0,1,0,0,0,1 @ F,0,0,1,0,0,0,1 @ F,0,0,1,0,0,0,1 @ F,0,0,1,0,1,0,1"
       radius="0"
       unit="px"
       method="auto"
       mode="F"
       chamfer_steps="1"
       flexible="false"
       use_knot_distance="true"
       apply_no_radius="true"
       apply_with_radius="true"
       only_selected="false"
       hide_knots="false" /><inkscape:path-effect
       effect="fillet_chamfer"
       id="path-effect42"
       is_visible="true"
       lpeversion="1"
       nodesatellites_param="F,0,0,1,0,0,0,1 @ F,0,0,1,0,0,0,1 @ F,0,0,1,0,0,0,1 @ F,0,0,1,0,0,0,1 @ F,0,0,1,0,0,0,1 @ F,0,0,1,0,0,0,1 @ F,0,0,1,0,0,0,1"
       radius="0"
       unit="px"
       method="auto"
       mode="F"
       chamfer_steps="1"
       flexible="false"
       use_knot_distance="true"
       apply_no_radius="true"
       apply_with_radius="true"
       only_selected="false"
       hide_knots="false" /><inkscape:path-effect
       effect="fillet_chamfer"
       id="path-effect41"
       is_visible="true"
       lpeversion="1"
       nodesatellites_param="F,0,0,1,0,1,0,1 @ F,0,0,1,0,0,0,1 @ F,0,0,1,0,0,0,1 @ F,0,0,1,0,0,0,1 @ F,0,0,1,0,0,0,1 @ F,0,0,1,0,0,0,1 @ F,0,0,1,0,1,0,1"
       radius="0"
       unit="px"
       method="auto"
       mode="F"
       chamfer_steps="1"
       flexible="false"
       use_knot_distance="true"
       apply_no_radius="true"
       apply_with_radius="true"
       only_selected="false"
       hide_knots="false" /><inkscape:path-effect
       effect="fillet_chamfer"
       id="path-effect40"
       is_visible="true"
       lpeversion="1"
       nodesatellites_param="F,0,0,1,0,0,0,1 @ F,0,0,1,0,1,0,1 @ F,0,0,1,0,0,0,1 @ F,0,0,1,0,0,0,1"
       radius="0"
       unit="px"
       method="auto"
       mode="F"
       chamfer_steps="1"
       flexible="false"
       use_knot_distance="true"
       apply_no_radius="true"
       apply_with_radius="true"
       only_selected="false"
       hide_knots="false" /><inkscape:path-effect
       effect="fillet_chamfer"
       id="path-effect37"
       is_visible="true"
       lpeversion="1"
       nodesatellites_param="F,0,0,1,0,0,0,1 @ F,0,0,1,0,0,0,1 @ F,0,0,1,0,0,0,1 @ F,0,0,1,0,0,0,1 @ F,0,0,1,0,0,0,1 @ F,0,0,1,0,0,0,1 @ F,0,0,1,0,0,0,1 @ F,0,0,1,0,0,0,1"
       radius="0"
       unit="px"
       method="auto"
       mode="F"
       chamfer_steps="1"
       flexible="false"
       use_knot_distance="true"
       apply_no_radius="true"
       apply_with_radius="true"
       only_selected="false"
       hide_knots="false" /><inkscape:path-effect
       effect="fillet_chamfer"
       id="path-effect36"
       is_visible="true"
       lpeversion="1"
       nodesatellites_param="F,0,0,1,0,0,0,1 @ F,0,0,1,0,1,0,1 @ F,0,0,1,0,0,0,1 @ F,0,0,1,0,0,0,1"
       radius="0"
       unit="px"
       method="auto"
       mode="F"
       chamfer_steps="1"
       flexible="false"
       use_knot_distance="true"
       apply_no_radius="true"
       apply_with_radius="true"
       only_selected="false"
       hide_knots="false" /><symbol
       id="Buffer"><title
         id="title12">Buffer</title><path
         d="M 25,30 75,50 25,70 V 50 Z"
         id="path13" /></symbol><clipPath
       clipPathUnits="userSpaceOnUse"
       id="clipPath28"><path
         id="path29"
         style="display:inline;opacity:1;fill:#000000;fill-opacity:1;stroke:none;stroke-width:1.38571;stroke-linecap:round;stroke-linejoin:round;stroke-dasharray:none;stroke-dashoffset:0;stroke-opacity:1"
         d="M -1.5840508,-7.5625 V 18.037499 H 17.617781 V -7.5625 Z m 8.2062509,0.5875 c 0.3127282,-0.00742 0.6499913,0.1496767 0.7383516,0.590625 0.2339481,1.397443 0.4110136,2.8133249 0.6234968,4.21875 0.1583851,-1.2572776 0.3185954,-2.5138219 0.4734827,-3.771875 0.011685,-0.438653 0.1912484,-0.9151934 0.5484899,-0.978125 1.1622879,-0.08578 2.3287129,-0.030986 3.4925199,-0.046875 0.369907,-0.081724 0.801956,0.2050552 0.818048,0.75 0.01764,5.36428528 0.002,10.7340174 0.0071,16.1000008 0.04555,0.4487132 -0.07868,1.0123652 -0.452387,1.1093732 -0.618158,0.09072 -1.249647,0.01603 -1.872834,0.04062 l -7.4632729,6e-6 C 3.1652817,11.119221 2.73327,10.832442 2.7171405,10.287501 2.6995711,4.9732155 2.7151258,-0.34651728 2.7101098,-5.6625 2.6826924,-6.1222229 2.7098667,-6.6839998 3.0734258,-6.896875 L 3.2375024,-6.94375 C 4.3188233,-6.990697 5.4070726,-6.949 6.4909375,-6.9625 6.5338355,-6.96989 6.5775245,-6.97394 6.6222001,-6.975 Z"
         sodipodi:nodetypes="cccccscccccccccccccccs"
         inkscape:label="Arrow Clip" /></clipPath><clipPath
       clipPathUnits="userSpaceOnUse"
       id="clipPath33"><rect
         style="display:inline;fill:#000000;fill-opacity:1;stroke:none;stroke-width:4.25852;stroke-linejoin:round"
         id="rect33"
         width="18.417665"
         height="7.8378935"
         x="-3.0247421"
         y="-1.6894399"
         inkscape:label="Three Letter Clip" /></clipPath><clipPath
       clipPathUnits="userSpaceOnUse"
       id="clipPath55"><rect
         style="fill:#ff681f;fill-opacity:1;stroke:none;stroke-width:3.96589;stroke-linecap:round;stroke-linejoin:round;stroke-dasharray:none;stroke-dashoffset:0;stroke-opacity:1;paint-order:markers stroke fill"
         id="rect56"
         width="31.727083"
         height="17.846485"
         x="0.09433677"
         y="0.09792909" /></clipPath><clipPath
       clipPathUnits="userSpaceOnUse"
       id="clipPath63"><g
         inkscape:label="Clip"
         id="use63"
         style="display:inline;opacity:0"
         transform="scale(1,1.0020877)"
         inkscape:highlight-color="#ffffff" /></clipPath><clipPath
       clipPathUnits="userSpaceOnUse"
       id="clipPath66"><rect
         style="display:inline;opacity:1;fill:#ffffff;fill-opacity:1;stroke:none;stroke-width:3.52626;stroke-linecap:round;stroke-linejoin:round;stroke-dasharray:none;stroke-dashoffset:0;stroke-opacity:1;paint-order:markers stroke fill"
         id="rect66"
         width="28.209909"
         height="25.069353"
         x="1.8574561"
         y="-7.1226735" /></clipPath><clipPath
       clipPathUnits="userSpaceOnUse"
       id="clipPath67"><rect
         style="display:inline;opacity:1;fill:#ffffff;fill-opacity:1;stroke:none;stroke-width:2.00001;stroke-linecap:round;stroke-linejoin:round;stroke-dasharray:none;stroke-dashoffset:0;stroke-opacity:1;paint-order:markers stroke fill"
         id="rect67"
         width="16"
         height="14.21875"
         x="0"
         y="0" /></clipPath><g
       id="SVG"
       fill="#ffffff"
       transform="scale(2) translate(20,79)"><path
         id="S"
         d="M 5.482,31.319 C2.163,28.001 0.109,23.419 0.109,18.358 C0.109,8.232 8.322,0.024 18.443,0.024 C28.569,0.024 36.782,8.232 36.782,18.358 L26.042,18.358 C26.042,14.164 22.638,10.765 18.443,10.765 C14.249,10.765 10.850,14.164 10.850,18.358 C10.850,20.453 11.701,22.351 13.070,23.721 L13.075,23.721 C14.450,25.101 15.595,25.500 18.443,25.952 L18.443,25.952 C23.509,26.479 28.091,28.006 31.409,31.324 L31.409,31.324 C34.728,34.643 36.782,39.225 36.782,44.286 C36.782,54.412 28.569,62.625 18.443,62.625 C8.322,62.625 0.109,54.412 0.109,44.286 L10.850,44.286 C10.850,48.480 14.249,51.884 18.443,51.884 C22.638,51.884 26.042,48.480 26.042,44.286 C26.042,42.191 25.191,40.298 23.821,38.923 L23.816,38.923 C22.441,37.548 20.468,37.074 18.443,36.697 L18.443,36.692 C13.533,35.939 8.800,34.638 5.482,31.319 L5.482,31.319 L5.482,31.319 Z" /><path
         id="V"
         d="M 73.452,0.024 L60.482,62.625 L49.742,62.625 L36.782,0.024 L47.522,0.024 L55.122,36.687 L62.712,0.024 L73.452,0.024 Z" /><path
         id="G"
         d="M 91.792,25.952 L110.126,25.952 L110.126,44.286 L110.131,44.286 C110.131,54.413 101.918,62.626 91.792,62.626 C81.665,62.626 73.458,54.413 73.458,44.286 L73.458,44.286 L73.458,18.359 L73.453,18.359 C73.453,8.233 81.665,0.025 91.792,0.025 C101.913,0.025 110.126,8.233 110.126,18.359 L99.385,18.359 C99.385,14.169 95.981,10.765 91.792,10.765 C87.597,10.765 84.198,14.169 84.198,18.359 L84.198,44.286 L84.198,44.286 C84.198,48.481 87.597,51.880 91.792,51.880 C95.981,51.880 99.380,48.481 99.385,44.291 L99.385,44.286 L99.385,36.698 L91.792,36.698 L91.792,25.952 L91.792,25.952 Z" /></g><clipPath
       clipPathUnits="userSpaceOnUse"
       id="clipPath11"><path
         id="path11"
         style="font-variation-settings:'opsz' 40, 'wght' 900;display:inline;fill:#000000;fill-opacity:1;stroke:none;stroke-width:4.51115;stroke-linejoin:round"
         d="M 0,1 V 7.1532534 15 a 1,1 45 0 0 1,1 H 3.8666667 V 6.3720034 H 16 V 1 A 1,1 45 0 0 15,0 H 1 A 1,1 135 0 0 0,1 Z"
         inkscape:label="Two Letter Clip"
         inkscape:original-d="M 0,0 V 7.1532534 16 H 3.8666667 V 6.3720034 H 16 V 0 Z"
         inkscape:path-effect="#path-effect43"
         sodipodi:nodetypes="cccccccc" /></clipPath><clipPath
       clipPathUnits="userSpaceOnUse"
       id="clipPath12"><path
         id="path12"
         style="font-variation-settings:'opsz' 40, 'wght' 900;display:inline;fill:#000000;fill-opacity:1;stroke:none;stroke-width:4.51115;stroke-linejoin:round"
         d="M 0,1 V 7.1532534 H 16 V 1 A 1,1 45 0 0 15,0 H 1 A 1,1 135 0 0 0,1 Z"
         inkscape:label="Three Letter Clip"
         inkscape:original-d="m 0,0 v 7.1532534 0 H 16 V 0 Z"
         inkscape:path-effect="#path-effect45"
         sodipodi:nodetypes="cccccc" /></clipPath><style
       id="style1">.cls-1{fill:#d68012;}</style></defs><sodipodi:namedview
     id="namedview2"
     pagecolor="#131313"
     bordercolor="#ffffff"
     borderopacity="1"
     inkscape:showpageshadow="false"
     inkscape:pageopacity="0"
     inkscape:pagecheckerboard="1"
     inkscape:deskcolor="#868686"
     inkscape:zoom="45.254834"
     inkscape:cx="7.3362328"
     inkscape:cy="7.8334173"
     inkscape:window-width="1920"
     inkscape:window-height="1009"
     inkscape:window-x="-8"
     inkscape:window-y="-8"
     inkscape:window-maximized="1"
     inkscape:current-layer="svg2"
     showgrid="true"
     showborder="false"
     labelstyle="default"
     showguides="true"
     inkscape:clip-to-page="true"
     shape-rendering="crispEdges"
     inkscape:export-bgcolor="#00000000"><inkscape:grid
       id="grid1"
       units="px"
       originx="7"
       originy="7"
       spacingx="1"
       spacingy="1"
       empcolor="#3f3fff"
       empopacity="0.5372549"
       color="#3f3fff"
       opacity="0.278431"
       empspacing="1"
       dotted="false"
       gridanglex="30"
       gridanglez="30"
       visible="true" /></sodipodi:namedview><g
     id="g48"
     inkscape:label="Done"
     style="display:none"><g
       id="g49"
       inkscape:label="Git"
       style="display:none"><path
         d="M 15,7 9,1 H 7 L 6,2 8,4 9.2255852,5.173161 11,7 h 1 l 1,1 v 1 l -1,1 H 11 L 10,9 V 8 L 8,6 v 1 3 l 1,1 v 1 L 8,13 H 7 L 6,12 V 11 L 7,10 V 9 6 5 L 5,3 1,7 v 2 l 6,6 h 2 l 6,-6"
         fill="#e64a19"
         id="path50"
         style="display:none;fill:#ff1c04;fill-opacity:1;stroke-width:0.571452"
         inkscape:label="Git"
         inkscape:export-filename="git-ignore.svg"
         inkscape:export-xdpi="96"
         inkscape:export-ydpi="96"
         sodipodi:nodetypes="ccccccccccccccccccccccccccccccccc" /><path
         d="M 15,7 9,1 H 7 L 6,2 8,4 9.2255852,5.173161 11,7 h 1 l 1,1 v 1 l -1,1 H 11 L 10,9 V 8 L 8,6 v 1 3 l 1,1 v 1 L 8,13 H 7 L 6,12 V 11 L 7,10 V 9 6 5 L 5,3 1,7 v 2 l 6,6 h 2 l 6,-6"
         fill="#e64a19"
         id="path49"
         style="display:none;opacity:1;mix-blend-mode:normal;fill:#838383;fill-opacity:1;stroke-width:0.571452"
         inkscape:label="Git"
         inkscape:export-filename="git-ignore.svg"
         inkscape:export-xdpi="96"
         inkscape:export-ydpi="96"
         sodipodi:nodetypes="ccccccccccccccccccccccccccccccccc" /></g><g
       id="svgstar"
       transform="matrix(0.06535036,0,0,0.06535036,8,8)"
       style="display:none"
       inkscape:label="svg"><g
         id="g53"
         inkscape:label="Icon"><path
           id="svgbar"
           fill="#ffb13b"
           d="m -84.1487,-15.8513 a 22.4171,22.4171 0 1 0 0,31.7026 H 84.1487 a 22.4171,22.4171 0 1 0 0,-31.7026 z"
           style="display:inline" /><use
           xlink:href="#svgbar"
           transform="rotate(45)"
           id="use1"
           style="display:inline" /><use
           xlink:href="#svgbar"
           transform="rotate(90)"
           id="use2"
           style="display:inline" /><use
           xlink:href="#svgbar"
           transform="rotate(135)"
           id="use3"
           style="display:inline" /></g><path
         id="path51"
         d="M 5.0698418e-8,-107.11494 -15.713358,-91.812807 v 15.302134 L -0.41122399,-60.876944 5.0698418e-8,-30.604269 H -15.302135 l 0.726217,-14.357614 -16.028351,-0.944521 v -30.604269 h -15.302135 l -15.302134,15.302135 v 15.302134 h 30.604269 v 15.302135 h 15.302134 l -0.411223,15.302134 h -30.604269 l -15.302135,-15.302134 h -14.890911 l -15.302134,15.302134 -0.196405,14.61701338 15.916301,15.98725562 h 14.473149 L -46.317627,0 h 30.604269 l 0.411223,15.302135 H -30.604269 V 30.604269 H -45.906404 L -60.711147,30.5181 v 15.302134 l 15.302135,15.302134 h 15.302134 L -30.604269,45.906404 V 30.604269 h 15.302134 V 15.302135 l 14.89091074,-10e-7 V 45.906403 L -15.302135,61.208538 V 76.510673 L 0.66318883,91.812805 H 15.20289 L 30.604264,76.510673 V 61.208538 L 15.30213,45.906403 V 15.302134 l 15.302134,10e-7 V 30.604269 H 45.906399 V 45.906404 61.208538 H 61.208538 L 76.510673,45.906404 V 30.604269 H 61.208538 45.906404 V 15.302135 H 30.604269 V 0 L 61.208538,-4.746508e-7 V 15.302135 H 107.11494 V -4.746508e-7 -15.302135 -30.604269 H 61.208538 v 15.302134 H 30.604269 v -15.302134 h 15.302135 v -15.302135 h 30.604268 l 10e-7,-15.302134 V -76.510673 H 61.208538 45.906404 v 15.302135 15.302134 H 30.604269 v 15.302135 H 15.302135 V -61.208538 L 30.604269,-76.510673 V -91.812807 L 15.879156,-107.11494 Z"
         style="display:none;fill:#ffb13b;fill-opacity:1;stroke-width:0.87487"
         sodipodi:nodetypes="ccccccccccccccccccccccccccccccccccccccccccccccccccccccccccccccccccccccccccccccccccccccc" /></g></g><g
     id="g3"
     inkscape:label="Scripts"
     style="display:none"
     inkscape:highlight-color="#ffff00"
     inkscape:export-filename="js.svg"
     inkscape:export-xdpi="96"
     inkscape:export-ydpi="96"><g
       id="g16"
       inkscape:label="OLD"><text
         xml:space="preserve"
         style="font-style:normal;font-variant:normal;font-weight:500;font-stretch:normal;font-size:9.33333px;line-height:1.25;font-family:'JetBrains Mono';-inkscape-font-specification:'JetBrains Mono, Medium';font-variant-ligatures:normal;font-variant-caps:normal;font-variant-numeric:normal;font-variant-east-asian:normal;letter-spacing:0px;word-spacing:0px;display:none;fill:#ff681f;fill-opacity:1;stroke-width:2.39527"
         x="16.392473"
         y="16.142385"
         id="text50"
         transform="scale(1.0152585,0.98497082)"
         inkscape:label="SH"><tspan
           sodipodi:role="line"
           id="tspan49"
           x="0"
           y="0"
           style="font-style:normal;font-variant:normal;font-weight:bold;font-stretch:normal;font-size:9.33333px;font-family:'JetBrains Mono';-inkscape-font-specification:'JetBrains Mono, Bold';font-variant-ligatures:normal;font-variant-caps:normal;font-variant-numeric:normal;font-variant-east-asian:normal;text-align:end;letter-spacing:0px;text-anchor:end;fill:#ff681f;fill-opacity:1;stroke-width:2.39527">SH</tspan></text><text
         xml:space="preserve"
         style="font-style:normal;font-variant:normal;font-weight:500;font-stretch:normal;font-size:9.33333px;line-height:1.25;font-family:'JetBrains Mono';-inkscape-font-specification:'JetBrains Mono, Medium';font-variant-ligatures:normal;font-variant-caps:normal;font-variant-numeric:normal;font-variant-east-asian:normal;letter-spacing:0px;word-spacing:0px;display:none;fill:#ffff00;fill-opacity:1;stroke-width:2.39527"
         x="16.28474"
         y="16.142385"
         id="text51"
         transform="scale(1.0152585,0.98497082)"
         inkscape:label="JS"><tspan
           sodipodi:role="line"
           id="tspan50"
           x="0"
           y="0"
           style="font-style:normal;font-variant:normal;font-weight:bold;font-stretch:normal;font-size:9.33333px;font-family:'JetBrains Mono';-inkscape-font-specification:'JetBrains Mono, Bold';font-variant-ligatures:normal;font-variant-caps:normal;font-variant-numeric:normal;font-variant-east-asian:normal;text-align:end;letter-spacing:0px;text-anchor:end;fill:#ffff00;fill-opacity:1;stroke-width:2.39527">JS</tspan></text></g><rect
       style="display:none;fill:none;fill-opacity:1;stroke:#ffffff;stroke-width:2;stroke-linecap:square;stroke-linejoin:miter;stroke-miterlimit:0;stroke-dasharray:none;stroke-dashoffset:0;stroke-opacity:1;paint-order:markers stroke fill"
       id="rect11"
       width="16"
       height="16"
       x="0"
       y="0"
       clip-path="url(#clipPath12)"
       inkscape:label="Frame for three"
       inkscape:export-filename="ahks3.svg"
       inkscape:export-xdpi="96"
       inkscape:export-ydpi="96" /><rect
       style="display:none;fill:none;fill-opacity:1;stroke:#0039ff;stroke-width:3;stroke-linecap:round;stroke-linejoin:round;stroke-dasharray:none;stroke-dashoffset:0;stroke-opacity:1;paint-order:markers stroke fill"
       id="rect40"
       width="16"
       height="16"
       x="0"
       y="0"
       clip-path="url(#clipPath11)"
       inkscape:label="Frame for two"
       inkscape:export-filename="ts.svg"
       inkscape:export-xdpi="96"
       inkscape:export-ydpi="96" /><g
       id="g7"
       inkscape:label="TXT"
       style="display:none"><rect
         style="display:inline;fill:none;fill-opacity:1;stroke:#ffffff;stroke-width:2;stroke-linecap:square;stroke-linejoin:miter;stroke-miterlimit:0;stroke-dasharray:none;stroke-dashoffset:0;stroke-opacity:1;paint-order:markers stroke fill"
         id="rect1"
         width="16"
         height="16"
         x="0"
         y="0"
         clip-path="url(#clipPath12)"
         inkscape:label="Frame for three"
         inkscape:export-filename="ahks3.svg"
         inkscape:export-xdpi="96"
         inkscape:export-ydpi="96" /><path
         style="font-weight:bold;font-size:9.33333px;line-height:1.25;font-family:'JetBrains Mono';-inkscape-font-specification:'JetBrains Mono, Bold';text-align:end;letter-spacing:-0.32px;word-spacing:0px;text-anchor:end;display:inline;fill:#ffffff;stroke-width:2.395;stroke-dasharray:none"
         d="M 2.0597076,16.221703 V 10.463038 H 0.27704153 V 9.4083716 H 5.0183733 V 10.463038 H 3.2357072 v 5.758665 z m 3.3293356,0 1.8853327,-3.490666 -1.7733327,-3.3226654 h 1.3066662 l 0.8586664,1.7079994 q 0.093333,0.186667 0.1679999,0.364 0.074667,0.168 0.112,0.261333 0.028,-0.09333 0.1026666,-0.261333 0.074667,-0.177333 0.168,-0.364 L 9.085042,9.4083716 h 1.269333 L 8.5810421,12.703037 10.466375,16.221703 H 9.1597086 L 8.1983756,14.33637 Q 8.1050423,14.159037 8.0210423,13.981703 7.9463757,13.795037 7.9090424,13.69237 q -0.037333,0.102667 -0.112,0.28 -0.074667,0.177333 -0.1679999,0.364 l -0.9706664,1.885333 z m 7.2306678,0 V 10.463038 H 10.837045 V 9.4083716 h 4.741332 V 10.463038 H 13.79571 v 5.758665 z"
         id="text49"
         inkscape:label="TXT"
         transform="scale(1.0152585,0.98497082)"
         aria-label="TXT" /></g><g
       id="g8"
       inkscape:label="AHK"
       style="display:none"><rect
         style="display:inline;fill:none;fill-opacity:1;stroke:#ffffff;stroke-width:2;stroke-linecap:square;stroke-linejoin:miter;stroke-miterlimit:0;stroke-dasharray:none;stroke-dashoffset:0;stroke-opacity:1;paint-order:markers stroke fill"
         id="rect7"
         width="16"
         height="16"
         x="0"
         y="0"
         clip-path="url(#clipPath12)"
         inkscape:label="Frame for three"
         inkscape:export-filename="ahks3.svg"
         inkscape:export-xdpi="96"
         inkscape:export-ydpi="96" /><text
         xml:space="preserve"
         style="font-style:normal;font-variant:normal;font-weight:bold;font-stretch:condensed;font-size:9.33333px;line-height:1.25;font-family:Arial;-inkscape-font-specification:'Arial, Bold Condensed';font-variant-ligatures:normal;font-variant-caps:normal;font-variant-numeric:normal;font-variant-east-asian:normal;letter-spacing:0px;word-spacing:0px;display:none;fill:#40c057;fill-opacity:1;stroke-width:2.39527"
         x="15.799817"
         y="16.105215"
         id="text14"
         transform="scale(1.0152585,0.98497082)"
         inkscape:label="AHK"><tspan
           sodipodi:role="line"
           id="tspan14"
           x="0"
           y="0"
           style="font-style:normal;font-variant:normal;font-weight:normal;font-stretch:condensed;font-size:9.33333px;font-family:Arial;-inkscape-font-specification:'Arial, Condensed';font-variant-ligatures:normal;font-variant-caps:normal;font-variant-numeric:normal;font-variant-east-asian:normal;text-align:end;letter-spacing:0px;text-anchor:end;fill:#40c057;fill-opacity:1;stroke-width:2.39527">AHK</tspan></text></g><g
       id="g14"
       inkscape:label="SH"
       style="display:none"><rect
         style="display:inline;fill:none;fill-opacity:1;stroke:#0039ff;stroke-width:3;stroke-linecap:round;stroke-linejoin:round;stroke-dasharray:none;stroke-dashoffset:0;stroke-opacity:1;paint-order:markers stroke fill"
         id="rect8"
         width="16"
         height="16"
         x="0"
         y="0"
         clip-path="url(#clipPath11)"
         inkscape:label="Frame for two"
         inkscape:export-filename="ts.svg"
         inkscape:export-xdpi="96"
         inkscape:export-ydpi="96" /><text
         xml:space="preserve"
         style="font-style:normal;font-variant:normal;font-weight:bold;font-stretch:condensed;font-size:10.6667px;line-height:1.25;font-family:Arial;-inkscape-font-specification:'Arial, Bold Condensed';font-variant-ligatures:normal;font-variant-caps:normal;font-variant-numeric:normal;font-variant-east-asian:normal;letter-spacing:0px;word-spacing:0px;display:none;fill:#ff681f;fill-opacity:1;stroke-width:2.39527"
         x="16.257797"
         y="16.127649"
         id="text71"
         transform="scale(1.0152585,0.98497082)"
         inkscape:label="SH"><tspan
           sodipodi:role="line"
           id="tspan71"
           x="0"
           y="0"
           style="font-style:normal;font-variant:normal;font-weight:bold;font-stretch:condensed;font-size:10.6667px;font-family:Arial;-inkscape-font-specification:'Arial, Bold Condensed';font-variant-ligatures:normal;font-variant-caps:normal;font-variant-numeric:normal;font-variant-east-asian:normal;text-align:end;letter-spacing:0px;text-anchor:end;fill:#ff681f;fill-opacity:1;stroke-width:2.39527">SH</tspan></text></g><g
       id="g13"
       inkscape:label="JS"
       style="display:none"><rect
         style="display:inline;fill:none;fill-opacity:1;stroke:#0039ff;stroke-width:3;stroke-linecap:round;stroke-linejoin:round;stroke-dasharray:none;stroke-dashoffset:0;stroke-opacity:1;paint-order:markers stroke fill"
         id="rect9"
         width="16"
         height="16"
         x="0"
         y="0"
         clip-path="url(#clipPath11)"
         inkscape:label="Frame for two"
         inkscape:export-filename="ts.svg"
         inkscape:export-xdpi="96"
         inkscape:export-ydpi="96" /><text
         xml:space="preserve"
         style="font-style:normal;font-variant:normal;font-weight:bold;font-stretch:condensed;font-size:10.6667px;line-height:1.25;font-family:Arial;-inkscape-font-specification:'Arial, Bold Condensed';font-variant-ligatures:normal;font-variant-caps:normal;font-variant-numeric:normal;font-variant-east-asian:normal;letter-spacing:0px;word-spacing:0px;display:none;fill:#ffff00;fill-opacity:1;stroke-width:2.39527"
         x="16.107626"
         y="16.105215"
         id="text9"
         transform="scale(1.0152585,0.98497082)"
         inkscape:label="JS"><tspan
           sodipodi:role="line"
           id="tspan9"
           x="0"
           y="0"
           style="font-style:normal;font-variant:normal;font-weight:bold;font-stretch:condensed;font-size:10.6667px;font-family:Arial;-inkscape-font-specification:'Arial, Bold Condensed';font-variant-ligatures:normal;font-variant-caps:normal;font-variant-numeric:normal;font-variant-east-asian:normal;text-align:end;letter-spacing:0px;text-anchor:end;fill:#ffff00;fill-opacity:1;stroke-width:2.39527">JS</tspan></text></g><g
       id="g12"
       inkscape:label="TS"
       style="display:inline;stroke-width:1.07297;stroke-dasharray:none"
       transform="matrix(0.93166466,0,0,0.93231557,0.54427161,0.54386547)"><rect
         style="display:none;fill:none;fill-opacity:1;stroke:#0039ff;stroke-width:1.07891;stroke-linecap:round;stroke-linejoin:miter;stroke-dasharray:none;stroke-dashoffset:0;stroke-opacity:1;paint-order:markers stroke fill"
         id="rect10"
         width="16.094643"
         height="16.082653"
         x="-0.044731107"
         y="-0.043887559"
         clip-path="none"
         inkscape:label="Frame for two"
         inkscape:export-filename="ts.svg"
         inkscape:export-xdpi="96"
         inkscape:export-ydpi="96" /><rect
         style="display:inline;fill:none;fill-opacity:1;stroke:#ffffff;stroke-width:2;stroke-linecap:round;stroke-linejoin:miter;stroke-miterlimit:4;stroke-dasharray:none;stroke-opacity:1;paint-order:fill markers stroke"
         id="rect19"
         width="16"
         height="16"
         x="0"
         y="0"
         ry="0"
         inkscape:label="1px Frame"
         transform="matrix(1.0733476,0,0,1.0725982,-0.58419261,-0.58334912)"
         clip-path="none"
         sodipodi:type="rect" /><rect
         style="display:inline;fill:none;fill-opacity:1;stroke:#ffffff;stroke-width:2;stroke-linecap:round;stroke-linejoin:miter;stroke-miterlimit:4;stroke-dasharray:none;stroke-opacity:1;paint-order:fill markers stroke"
         id="path21"
         width="16"
         height="16"
         x="0"
         y="0"
         ry="0"
         inkscape:label="1px Frame"
         clip-path="none"
         sodipodi:type="rect"
         transform="matrix(1.0733476,0,0,1.0725982,-0.58419261,-0.58334912)" /><rect
         style="display:block;fill:#000000;fill-opacity:1;stroke:none;stroke-width:2.14595;stroke-linecap:square;stroke-linejoin:miter;stroke-miterlimit:4;stroke-dasharray:none;stroke-opacity:1;paint-order:fill markers stroke"
         id="rect21"
         width="17.173561"
         height="15.016375"
         x="3.7091978"
         y="4.7796421" /><text
         xml:space="preserve"
         style="font-style:normal;font-variant:normal;font-weight:bold;font-stretch:condensed;font-size:10.6667px;line-height:1.25;font-family:Arial;-inkscape-font-specification:'Arial, Bold Condensed';font-variant-ligatures:normal;font-variant-caps:normal;font-variant-numeric:normal;font-variant-east-asian:normal;letter-spacing:0px;word-spacing:0px;display:none;fill:#0039ff;fill-opacity:1;stroke-width:1.07297;stroke-dasharray:none"
         x="16.015284"
         y="16.010035"
         id="text8"
         transform="scale(1.0152585,0.98497082)"
         inkscape:label="TS"><tspan
           sodipodi:role="line"
           id="tspan8"
           x="0"
           y="0"
           style="font-style:normal;font-variant:normal;font-weight:bold;font-stretch:condensed;font-size:10.6667px;font-family:Arial;-inkscape-font-specification:'Arial, Bold Condensed';font-variant-ligatures:normal;font-variant-caps:normal;font-variant-numeric:normal;font-variant-east-asian:normal;text-align:end;letter-spacing:0px;text-anchor:end;fill:#0039ff;fill-opacity:1;stroke-width:1.07297;stroke-dasharray:none">TS</tspan></text></g></g><g
     id="g30"
     inkscape:label="Markdown"
     style="display:inline"><path
       style="display:none;opacity:1;fill:#42a5f5;fill-opacity:1;stroke:none;stroke-width:1.10947px;stroke-linecap:butt;stroke-linejoin:miter;stroke-opacity:1"
       d="M 8.006696,16 15.943007,11.013021 0.0703851,11 Z"
       id="path22"
       sodipodi:nodetypes="cccc"
       clip-path="url(#clipPath28)"
       inkscape:label="Arrow"
       transform="matrix(1,0,0,0.8,0,3.2)" /><path
       d="M 12,10 H 10 V 4 L 9,10 H 7 L 6,4 v 6 H 4.0611626 L 4,1 H 7.0423743 L 8,6 8.9723328,1 H 12 Z"
       id="path23"
       style="font-size:14.6667px;line-height:1.25;font-family:Haettenschweiler;-inkscape-font-specification:'Haettenschweiler, Normal';letter-spacing:0px;word-spacing:0px;display:inline;fill:#42a5f5;stroke-width:0.987692"
       aria-label="M"
       sodipodi:nodetypes="cccccccccccccc"
       inkscape:label="Letter" /><path
       id="rect30"
       style="display:inline;fill:#42a5f5;stroke-width:1.24722;stroke-linecap:round;stroke-linejoin:round"
       d="m 14,5 h 2 v 7 L 14,14.585359 4,12 h 10 z"
       sodipodi:nodetypes="ccccccc" /></g><g
     id="g72"
     transform="matrix(0.54261463,0,0,0.54261463,-0.68887341,-0.68156272)"
     style="display:none"
     inkscape:label="Julia"><circle
       cx="8.309"
       cy="22.591999"
       r="5.8600001"
       style="fill:#d5635c"
       id="circle1" /><path
       d="M 8.309,28.9 A 6.309,6.309 0 1 1 14.618,22.591 6.316,6.316 0 0 1 8.309,28.9 Z m 0,-11.719 a 5.41,5.41 0 1 0 5.41,5.41 5.416,5.416 0 0 0 -5.41,-5.409 z"
       style="fill:#cb3c33"
       id="path1-34" /><circle
       cx="16"
       cy="9.408"
       r="5.8600001"
       style="fill:#60ad51"
       id="circle2" /><path
       d="M 16,15.717 A 6.309,6.309 0 1 1 22.309,9.408 6.316,6.316 0 0 1 16,15.717 Z M 16,4 A 5.41,5.41 0 1 0 21.41,9.41 5.416,5.416 0 0 0 16,4 Z"
       style="fill:#389826"
       id="path2-6" /><circle
       cx="23.691"
       cy="22.591999"
       r="5.8600001"
       style="fill:#aa79c1"
       id="circle3" /><path
       d="M 23.691,28.9 A 6.309,6.309 0 1 1 30,22.592 6.316,6.316 0 0 1 23.691,28.9 Z m 0,-11.719 a 5.41,5.41 0 1 0 5.41,5.41 5.416,5.416 0 0 0 -5.41,-5.409 z"
       style="fill:#9558b2"
       id="path3-1" /></g><path
     stroke="#2DBCC5"
     stroke-width="1.5"
     d="M 7.9999994,3.9299135 C 5.674598,2.0701009 2.960351,1.6045084 1.6045064,1.6045084 V 12.070113 c 1.9378337,0.193144 4.6508023,0.580704 6.395493,2.325404 1.7446912,-1.7447 4.8452276,-2.325404 6.3954936,-2.325404 V 1.6045084 c -1.74469,0 -4.6508024,0.5819908 -6.3954936,2.3254051 z m 0,0.2327965 v 8.953705"
     id="path1"
     style="display:none;stroke:#58d3fd;stroke-width:1.20901;stroke-linecap:round;stroke-linejoin:round;stroke-miterlimit:4;stroke-dasharray:none;stroke-opacity:1"
     inkscape:label="ReadMe" /><text
     xml:space="preserve"
     style="font-size:5.71518px;line-height:1.25;font-family:sans-serif;letter-spacing:0.780924px;word-spacing:0px;display:none;fill:#ffc400;fill-opacity:1;stroke-width:1.0716"
     x="-0.4502385"
     y="14.845829"
     id="text7"
     inkscape:label="JSON"
     transform="scale(1.1524803,0.86769382)"><tspan
       sodipodi:role="line"
       id="tspan7"
       x="0"
       y="0"
       style="font-style:normal;font-variant:normal;font-weight:normal;font-stretch:normal;font-size:14.288px;font-family:Gabriola;-inkscape-font-specification:'Gabriola, Normal';font-variant-ligatures:normal;font-variant-caps:normal;font-variant-numeric:normal;font-variant-east-asian:normal;letter-spacing:0.780924px;fill:#ffc400;fill-opacity:1;stroke-width:1.0716">{..}</tspan></text><path
     d="M 15.728712,7.316107 8.7455652,0.332961 a 1.0286141,1.0286141 0 0 0 -1.4572033,0 L 5.8368731,1.78445 7.6769495,3.624526 A 1.2229079,1.2229079 0 0 1 9.2255852,5.173161 L 10.997087,6.944664 A 1.2229079,1.2229079 0 1 1 10.265628,7.636121 L 8.6027021,5.990338 v 4.354467 A 1.2229079,1.2229079 0 1 1 7.6026606,10.316235 V 5.916052 A 1.2286224,1.2286224 0 0 1 6.9340616,4.315986 L 5.1225578,2.498768 0.33378775,7.287538 a 1.0286141,1.0286141 0 0 0 0,1.457203 l 6.98314685,6.983148 a 1.0286141,1.0286141 0 0 0 1.4572032,0 L 15.728712,8.773313 a 1.0286141,1.0286141 0 0 0 0,-1.457203"
     fill="#e64a19"
     id="path1-3"
     style="display:none;fill:#808080;fill-opacity:1;stroke-width:0.571452"
     inkscape:label="Git Ignore"
     inkscape:export-filename="git-ignore.svg"
     inkscape:export-xdpi="96"
     inkscape:export-ydpi="96" /><g
     id="g39"
     transform="matrix(0.42087203,0,0,0.41972989,1.3116689,1.2821611)"
     style="display:none;fill-rule:evenodd;stroke-width:4.51733;stroke-linejoin:round;stroke-dasharray:none;filter:url(#saturation)"
     inkscape:label="VSCode"
     inkscape:export-filename="vscode-ignore.svg"
     inkscape:export-xdpi="96"
     inkscape:export-ydpi="96"
     inkscape:highlight-color="#ffffff"><g
       id="g47"
       inkscape:label="Logo"
       style="display:inline"><path
         style="display:inline;fill:#000000;fill-rule:evenodd;stroke:none;stroke-width:3.02814px;stroke-linecap:butt;stroke-linejoin:miter;stroke-dasharray:none;stroke-opacity:1;filter:url(#saturation)"
         d="M 11.139564,8.8576939 H 8.7635453 L 4.011507,4.0927247 1.6354879,6.4752093 -0.74053127,11.240179 2.283493,14.489021 v 3.032253 l -3.02402427,3.248843 2.37601917,4.764969 2.3760191,2.382485 4.7520383,-4.764969 h 2.3760187 l 9.504077,9.529938 h 4.752038 l 7.128058,-2.382485 V 1.7102401 l -7.128058,-2.38248458 h -4.752038 z"
         id="path35"
         sodipodi:nodetypes="ccccccccccccccccccc"
         inkscape:label="Shadow" /><path
         d="M 23.01966,1.7102401 H 20.643641 L 1.6354879,20.770117 4.011507,25.535086 23.01966,8.8576939 30.147718,4.0927247 Z"
         style="display:inline;fill:#007dc3;fill-opacity:1;stroke-width:4.51733;stroke-dasharray:none"
         id="path36"
         sodipodi:nodetypes="ccccccc"
         inkscape:label="Down" /><path
         d="M 23.01966,30.300055 H 20.643641 L 1.6354879,11.240179 4.011507,6.4752093 23.01966,23.152602 l 6.511166,3.431361 0.616892,1.333608 z"
         style="display:inline;fill:#008eee;fill-opacity:1;stroke-width:4.51733;stroke-dasharray:none"
         id="path37"
         sodipodi:nodetypes="cccccccc"
         inkscape:label="Up" /><path
         d="M 25.395679,30.300055 H 20.643641 L 23.01966,27.917571 V 4.0927245 L 20.643641,1.7102401 h 4.752038 l 4.752039,2.3824846 V 27.917571 Z"
         style="display:inline;fill:#1f9ef3;fill-opacity:1;stroke-width:4.51733;stroke-dasharray:none"
         id="path38"
         sodipodi:nodetypes="ccccccccc"
         inkscape:label="Vert" /></g><path
       id="path45"
       style="display:inline;opacity:1;mix-blend-mode:saturation;fill:#000000;fill-opacity:1;stroke-width:4.51733;stroke-dasharray:none"
       inkscape:label="Ignore Overlay"
       d="M 20.643641,1.7102401 10.346011,12.035891 4.011507,6.4752093 1.6354879,11.240179 l 4.7520383,4.764969 -4.7520383,4.764969 2.3760191,4.764969 6.334504,-5.560682 10.29763,10.325651 h 4.752038 l 4.752039,-2.382484 V 4.0927247 L 25.395679,1.7102401 H 23.01966 Z M 23.01966,8.8576939 V 23.152602 l -8.144362,-7.147454 z" /></g><g
     id="g73"
     transform="matrix(0.06343453,0,0,0.06343453,-0.11644759,-0.1196188)"
     inkscape:export-filename="cpp.svg"
     inkscape:export-xdpi="96"
     inkscape:export-ydpi="96"
     inkscape:label="CPP"
     style="display:none"><path
       fill="#00599c"
       d="m 235.5,190.1 c 1.7,-3 2.8,-6.4 2.8,-9.4 V 75.3 c 0,-3 -1.1,-6.4 -2.8,-9.4 L 128,128 Z"
       id="path1-8" /><path
       fill="#004482"
       d="m 137.6,249.9 91.2,-52.7 c 2.6,-1.5 5,-4.1 6.7,-7.1 L 128,128 20.5,190.1 c 1.7,3 4.1,5.6 6.7,7.1 l 91.2,52.7 c 5.3,3 13.9,3 19.2,0 z"
       id="path2-0" /><path
       fill="#659ad2"
       d="m 235.5,65.9 c -1.7,-3 -4.1,-5.6 -6.7,-7.1 L 137.6,6.1 c -5.3,-3 -13.9,-3 -19.1,0 L 27.2,58.8 c -5.3,3 -9.6,10.5 -9.6,16.5 v 105.3 c 0,3 1.1,6.4 2.8,9.4 L 128,128 Z"
       id="path3-9" /><g
       id="g4">
	<path
   fill="#ffffff"
   d="m 128,201.5 c -40.6,0 -73.5,-33 -73.5,-73.5 0,-40.5 33,-73.5 73.5,-73.5 26.2,0 50.6,14.1 63.7,36.8 l -31.8,18.4 C 153.3,98.4 141.1,91.3 128,91.3 c -20.3,0 -36.8,16.5 -36.8,36.8 0,20.3 16.5,36.8 36.8,36.8 13.1,0 25.3,-7 31.9,-18.4 l 31.8,18.4 c -13.1,22.6 -37.5,36.6 -63.7,36.6 z"
   id="path4" />
</g><g
       id="g5">
	<polygon
   fill="#ffffff"
   points="193.4,123.9 193.4,115.7 185.2,115.7 185.2,123.9 177,123.9 177,132.1 185.2,132.1 185.2,140.3 193.4,140.3 193.4,132.1 201.5,132.1 201.5,123.9 "
   id="polygon4" />
</g><g
       id="g6">
	<polygon
   fill="#ffffff"
   points="224,123.9 224,115.7 215.8,115.7 215.8,123.9 207.7,123.9 207.7,132.1 215.8,132.1 215.8,140.3 224,140.3 224,132.1 232.2,132.1 232.2,123.9 "
   id="polygon5" />
</g></g><g
     id="g79"
     transform="matrix(0.06343453,0,0,0.06343453,-0.11644759,-0.1196188)"
     inkscape:export-filename="cpp.svg"
     inkscape:export-xdpi="96"
     inkscape:export-ydpi="96"
     inkscape:label="C"
     style="display:none"><path
       id="path75"
       style="fill:#00599c;fill-opacity:1"
       d="M 119.20574,6.8120439 27.883731,59.493082 c -5.299995,2.999997 -9.575572,10.503241 -9.575572,16.503235 V 181.29681 c 0,3 0.85554,6.69874 2.555538,9.69873 1.699998,3 3.742665,4.01135 6.342662,5.51135 l 91.198851,52.68103 c 5.29999,3 13.88194,3 19.18193,0 l 91.19885,-52.68103 c 2.6,-1.5 5.01214,-3.40425 6.71214,-6.40425 1.7,-2.99999 2.80186,-6.39083 2.80186,-9.39083 V 75.288156 c 0,-10.180817 -7.27887,-14.914129 -8.80584,-15.795074 L 138.2953,6.8120439 c -5.3843,-3.0477228 -13.86374,-3.0148911 -19.08956,0 z"
       sodipodi:nodetypes="ccsssccccsssccc" /><path
       fill="#ffffff"
       d="m 133.94673,187.2488 c -32.72785,0 -59.248738,-26.6015 -59.248738,-59.2488 0,-32.647296 26.601498,-59.248797 59.248738,-59.248797 21.11998,0 40.78897,11.366096 51.34895,29.664703 l -25.63417,14.832344 c -5.3203,-9.10899 -15.1548,-14.832344 -25.71478,-14.832344 -16.36396,0 -29.66465,13.300754 -29.66465,29.664704 0,16.36396 13.30069,29.6647 29.66465,29.6647 10.55998,0 20.39448,-5.64273 25.71478,-14.83235 l 25.63417,14.83235 c -10.55998,18.218 -30.22897,29.50349 -51.34895,29.50349 z"
       id="path76"
       style="display:inline;stroke-width:0.806106" /></g><g
     id="g21"
     inkscape:label="AHK"
     style="display:none"><g
       style="display:inline;fill:#40c057"
       id="g9"
       transform="matrix(0.44444444,0,0,0.44444444,-2.6666667,-2.6666667)"
       inkscape:label="AHK Filled"><path
         d="m 34.5,6 h -21 C 9.364,6 6,9.364 6,13.5 v 21 c 0,4.136 3.364,7.5 7.5,7.5 h 21 c 4.136,0 7.5,-3.364 7.5,-7.5 v -21 C 42,9.364 38.636,6 34.5,6 Z M 35,31 c 0,1.105 -0.895,2 -2,2 h -2 c -1.105,0 -2,-0.895 -2,-2 V 25.565 L 19,26.87 V 34 c 0,1.105 -0.895,2 -2,2 h -2 c -1.105,0 -2,-0.895 -2,-2 V 17 c 0,-1.105 0.895,-2 2,-2 h 2 c 1.105,0 2,0.895 2,2 v 4.87 L 29,20.566 V 14 c 0,-1.105 0.895,-2 2,-2 h 2 c 1.105,0 2,0.895 2,2 z"
         id="path1-4" /></g><g
       style="display:none;fill:#40c057"
       id="g10"
       transform="matrix(0.44479132,0,0,0.44479132,-2.6812355,-2.6812355)"
       inkscape:label="AHK Outline"><path
         d="M 13.5,6 C 9.3754991,6 6,9.3754991 6,13.5 v 21 c 0,4.124501 3.3754991,7.5 7.5,7.5 h 21 c 4.124501,0 7.5,-3.375499 7.5,-7.5 v -21 C 42,9.3754991 38.624501,6 34.5,6 Z m 0,3 h 21 c 2.503499,0 4.5,1.996501 4.5,4.5 v 21 c 0,2.503499 -1.996501,4.5 -4.5,4.5 h -21 C 10.996501,39 9,37.003499 9,34.5 v -21 C 9,10.996501 10.996501,9 13.5,9 Z M 31,12 c -1.105,0 -2,0.895 -2,2 v 6.564453 L 19,21.869141 V 17 c 0,-1.105 -0.895,-2 -2,-2 h -2 c -1.105,0 -2,0.895 -2,2 v 17 c 0,1.105 0.895,2 2,2 h 2 c 1.105,0 2,-0.895 2,-2 V 26.869141 L 29,25.566406 V 31 c 0,1.105 0.895,2 2,2 h 2 c 1.105,0 2,-0.895 2,-2 V 14 c 0,-1.105 -0.895,-2 -2,-2 z"
         id="path1-33" /></g><g
       style="display:none;fill:#40c057"
       id="g11"
       transform="matrix(0.6004737,0,0,0.6004737,-6.4113688,-6.4108012)"
       inkscape:label="AHK Letter"><path
         d="m 31,12 c -1.105,0 -2,0.895 -2,2 v 6.564453 L 19,21.869141 V 17 c 0,-1.105 -0.895,-2 -2,-2 h -2 c -1.105,0 -2,0.895 -2,2 v 17 c 0,1.105 0.895,2 2,2 h 2 c 1.105,0 2,-0.895 2,-2 V 26.869141 L 29,25.566406 V 31 c 0,1.105 0.895,2 2,2 h 2 c 1.105,0 2,-0.895 2,-2 V 14 c 0,-1.105 -0.895,-2 -2,-2 z"
         id="path10"
         sodipodi:nodetypes="ssccssssssssccsssssss" /></g></g><g
     id="g1"
     transform="matrix(1.3339155,0,0,1.3339155,-2.6747939,-2.667831)"
     style="display:none;fill:#0039ff;fill-opacity:1"><circle
       class="cls-1"
       cx="8"
       cy="8"
       r="2"
       id="circle1-6"
       style="fill:#0039ff;fill-opacity:1" /><path
       class="cls-1"
       d="m 8,4.5 v 0 A 3.5,3.5 0 0 1 11.5,8 V 8 A 3.5,3.5 0 1 1 8,4.5 M 8,2 A 5.8,5.8 0 0 0 7,2.09 L 6.34,4 4.55,3.1 A 4.94,4.94 0 0 0 3.76,3.76 4.94,4.94 0 0 0 3.1,4.55 L 4,6.34 2.09,7 a 5.94,5.94 0 0 0 0,2 L 4,9.66 3.1,11.45 A 5.88,5.88 0 0 0 4.55,12.9 L 6.34,12 7,13.91 a 5.94,5.94 0 0 0 2.06,0 L 9.66,12 11.45,12.89 A 5.88,5.88 0 0 0 12.9,11.44 L 12,9.66 13.91,9 a 5.94,5.94 0 0 0 0,-2.06 L 12,6.34 12.89,4.55 A 4.94,4.94 0 0 0 12.23,3.76 4.94,4.94 0 0 0 11.44,3.1 L 9.66,4 9,2.09 A 5.8,5.8 0 0 0 8,2"
       id="path1-41"
       style="fill:#0039ff;fill-opacity:1" /></g><g
     transform="matrix(4.1866054e-4,0,0,-4.1866054e-4,-3.097776,2.1752747)"
     fill="#000000"
     stroke="none"
     id="g2"
     style="display:none;fill:#c0c0c0;fill-opacity:1"><path
       d="m 9575,5608 c -3,-10 -129,-480 -176,-660 -6,-22 -16,-38 -24,-38 -56,0 -359,-119 -495,-195 l -81,-44 -312,184 -312,185 -243,-243 -243,-243 186,-311 185,-312 -37,-63 c -58,-98 -127,-261 -173,-404 -41,-131 -41,-131 -78,-142 -20,-6 -129,-34 -242,-62 -113,-29 -252,-65 -310,-80 l -105,-27 -3,-344 -2,-344 347,-88 c 192,-49 349,-90 350,-91 2,-1 16,-48 33,-103 37,-125 116,-314 175,-417 l 44,-78 -184,-311 -185,-312 243,-243 243,-243 309,184 308,183 151,-76 c 140,-70 258,-116 397,-155 l 56,-16 62,-242 c 34,-133 75,-289 90,-347 l 28,-105 345,-3 345,-2 7,32 c 4,18 43,175 87,348 l 81,315 149,48 c 94,31 207,77 299,123 l 150,75 312,-181 312,-181 243,243 243,243 -181,312 -181,312 75,149 c 44,89 93,208 122,295 l 47,145 72,20 c 39,10 196,52 349,93 l 277,74 -2,344 -3,344 -345,92 c -208,56 -347,97 -351,106 -4,8 -26,72 -48,144 -24,76 -73,193 -116,281 l -76,152 181,313 181,313 -243,243 -243,242 -315,-183 -314,-183 -58,34 c -117,68 -346,163 -471,194 -27,6 -52,19 -55,28 -4,9 -47,167 -97,351 l -90,335 -343,3 c -269,2 -343,0 -347,-10 z"
       id="path2-07"
       style="fill:#c0c0c0;fill-opacity:1" /></g></svg>
