<?xml version="1.0" encoding="UTF-8" standalone="no"?>
<svg
   width="14"
   height="14"
   viewBox="0 0 14 14"
   fill="none"
   version="1.1"
   id="svg2"
   sodipodi:docname="_icon_base_14.svg"
   inkscape:version="1.3.2 (091e20e, 2023-11-25, custom)"
   xml:space="preserve"
   inkscape:export-filename="ts.svg"
   inkscape:export-xdpi="96"
   inkscape:export-ydpi="96"
   xmlns:inkscape="http://www.inkscape.org/namespaces/inkscape"
   xmlns:sodipodi="http://sodipodi.sourceforge.net/DTD/sodipodi-0.dtd"
   xmlns:xlink="http://www.w3.org/1999/xlink"
   xmlns="http://www.w3.org/2000/svg"
   xmlns:svg="http://www.w3.org/2000/svg"><defs
     id="defs2"><inkscape:path-effect
       effect="fillet_chamfer"
       id="path-effect45"
       is_visible="true"
       lpeversion="1"
       nodesatellites_param="F,0,0,1,0,1,0,1 @ F,0,0,1,0,0,0,1 @ F,0,0,1,0,0,0,1 @ F,0,0,1,0,0,0,1 @ F,0,0,1,0,1,0,1"
       radius="0"
       unit="px"
       method="auto"
       mode="F"
       chamfer_steps="1"
       flexible="false"
       use_knot_distance="true"
       apply_no_radius="true"
       apply_with_radius="true"
       only_selected="false"
       hide_knots="false" /><inkscape:path-effect
       effect="fillet_chamfer"
       id="path-effect43"
       is_visible="true"
       lpeversion="1"
       nodesatellites_param="F,0,0,1,0,1,0,1 @ F,0,0,1,0,0,0,1 @ F,0,0,1,0,1,0,1 @ F,0,0,1,0,0,0,1 @ F,0,0,1,0,0,0,1 @ F,0,0,1,0,0,0,1 @ F,0,0,1,0,1,0,1"
       radius="0"
       unit="px"
       method="auto"
       mode="F"
       chamfer_steps="1"
       flexible="false"
       use_knot_distance="true"
       apply_no_radius="true"
       apply_with_radius="true"
       only_selected="false"
       hide_knots="false" /><inkscape:path-effect
       effect="fillet_chamfer"
       id="path-effect42"
       is_visible="true"
       lpeversion="1"
       nodesatellites_param="F,0,0,1,0,0,0,1 @ F,0,0,1,0,0,0,1 @ F,0,0,1,0,0,0,1 @ F,0,0,1,0,0,0,1 @ F,0,0,1,0,0,0,1 @ F,0,0,1,0,0,0,1 @ F,0,0,1,0,0,0,1"
       radius="0"
       unit="px"
       method="auto"
       mode="F"
       chamfer_steps="1"
       flexible="false"
       use_knot_distance="true"
       apply_no_radius="true"
       apply_with_radius="true"
       only_selected="false"
       hide_knots="false" /><inkscape:path-effect
       effect="fillet_chamfer"
       id="path-effect41"
       is_visible="true"
       lpeversion="1"
       nodesatellites_param="F,0,0,1,0,1,0,1 @ F,0,0,1,0,0,0,1 @ F,0,0,1,0,0,0,1 @ F,0,0,1,0,0,0,1 @ F,0,0,1,0,0,0,1 @ F,0,0,1,0,0,0,1 @ F,0,0,1,0,1,0,1"
       radius="0"
       unit="px"
       method="auto"
       mode="F"
       chamfer_steps="1"
       flexible="false"
       use_knot_distance="true"
       apply_no_radius="true"
       apply_with_radius="true"
       only_selected="false"
       hide_knots="false" /><inkscape:path-effect
       effect="fillet_chamfer"
       id="path-effect40"
       is_visible="true"
       lpeversion="1"
       nodesatellites_param="F,0,0,1,0,0,0,1 @ F,0,0,1,0,1,0,1 @ F,0,0,1,0,0,0,1 @ F,0,0,1,0,0,0,1"
       radius="0"
       unit="px"
       method="auto"
       mode="F"
       chamfer_steps="1"
       flexible="false"
       use_knot_distance="true"
       apply_no_radius="true"
       apply_with_radius="true"
       only_selected="false"
       hide_knots="false" /><inkscape:path-effect
       effect="fillet_chamfer"
       id="path-effect37"
       is_visible="true"
       lpeversion="1"
       nodesatellites_param="F,0,0,1,0,0,0,1 @ F,0,0,1,0,0,0,1 @ F,0,0,1,0,0,0,1 @ F,0,0,1,0,0,0,1 @ F,0,0,1,0,0,0,1 @ F,0,0,1,0,0,0,1 @ F,0,0,1,0,0,0,1 @ F,0,0,1,0,0,0,1"
       radius="0"
       unit="px"
       method="auto"
       mode="F"
       chamfer_steps="1"
       flexible="false"
       use_knot_distance="true"
       apply_no_radius="true"
       apply_with_radius="true"
       only_selected="false"
       hide_knots="false" /><inkscape:path-effect
       effect="fillet_chamfer"
       id="path-effect36"
       is_visible="true"
       lpeversion="1"
       nodesatellites_param="F,0,0,1,0,0,0,1 @ F,0,0,1,0,1,0,1 @ F,0,0,1,0,0,0,1 @ F,0,0,1,0,0,0,1"
       radius="0"
       unit="px"
       method="auto"
       mode="F"
       chamfer_steps="1"
       flexible="false"
       use_knot_distance="true"
       apply_no_radius="true"
       apply_with_radius="true"
       only_selected="false"
       hide_knots="false" /><symbol
       id="Buffer"><title
         id="title12">Buffer</title><path
         d="M 25,30 75,50 25,70 V 50 Z"
         id="path13" /></symbol><clipPath
       clipPathUnits="userSpaceOnUse"
       id="clipPath28"><path
         id="path29"
         style="display:inline;opacity:1;fill:#000000;fill-opacity:1;stroke:none;stroke-width:1.38571;stroke-linecap:round;stroke-linejoin:round;stroke-dasharray:none;stroke-dashoffset:0;stroke-opacity:1"
         d="M -1.5840508,-7.5625 V 18.037499 H 17.617781 V -7.5625 Z m 8.2062509,0.5875 c 0.3127282,-0.00742 0.6499913,0.1496767 0.7383516,0.590625 0.2339481,1.397443 0.4110136,2.8133249 0.6234968,4.21875 0.1583851,-1.2572776 0.3185954,-2.5138219 0.4734827,-3.771875 0.011685,-0.438653 0.1912484,-0.9151934 0.5484899,-0.978125 1.1622879,-0.08578 2.3287129,-0.030986 3.4925199,-0.046875 0.369907,-0.081724 0.801956,0.2050552 0.818048,0.75 0.01764,5.36428528 0.002,10.7340174 0.0071,16.1000008 0.04555,0.4487132 -0.07868,1.0123652 -0.452387,1.1093732 -0.618158,0.09072 -1.249647,0.01603 -1.872834,0.04062 l -7.4632729,6e-6 C 3.1652817,11.119221 2.73327,10.832442 2.7171405,10.287501 2.6995711,4.9732155 2.7151258,-0.34651728 2.7101098,-5.6625 2.6826924,-6.1222229 2.7098667,-6.6839998 3.0734258,-6.896875 L 3.2375024,-6.94375 C 4.3188233,-6.990697 5.4070726,-6.949 6.4909375,-6.9625 6.5338355,-6.96989 6.5775245,-6.97394 6.6222001,-6.975 Z"
         sodipodi:nodetypes="cccccscccccccccccccccs"
         inkscape:label="Arrow Clip" /></clipPath><clipPath
       clipPathUnits="userSpaceOnUse"
       id="clipPath33"><rect
         style="display:inline;fill:#000000;fill-opacity:1;stroke:none;stroke-width:4.25852;stroke-linejoin:round"
         id="rect33"
         width="18.417665"
         height="7.8378935"
         x="-3.0247421"
         y="-1.6894399"
         inkscape:label="Three Letter Clip" /></clipPath><clipPath
       clipPathUnits="userSpaceOnUse"
       id="clipPath55"><rect
         style="fill:#ff681f;fill-opacity:1;stroke:none;stroke-width:3.96589;stroke-linecap:round;stroke-linejoin:round;stroke-dasharray:none;stroke-dashoffset:0;stroke-opacity:1;paint-order:markers stroke fill"
         id="rect56"
         width="31.727083"
         height="17.846485"
         x="0.09433677"
         y="0.09792909" /></clipPath><clipPath
       clipPathUnits="userSpaceOnUse"
       id="clipPath63"><g
         inkscape:label="Clip"
         id="use63"
         style="display:inline;opacity:0"
         transform="scale(1,1.0020877)"
         inkscape:highlight-color="#ffffff" /></clipPath><clipPath
       clipPathUnits="userSpaceOnUse"
       id="clipPath66"><rect
         style="display:inline;opacity:1;fill:#ffffff;fill-opacity:1;stroke:none;stroke-width:3.52626;stroke-linecap:round;stroke-linejoin:round;stroke-dasharray:none;stroke-dashoffset:0;stroke-opacity:1;paint-order:markers stroke fill"
         id="rect66"
         width="28.209909"
         height="25.069353"
         x="1.8574561"
         y="-7.1226735" /></clipPath><clipPath
       clipPathUnits="userSpaceOnUse"
       id="clipPath67"><rect
         style="display:inline;opacity:1;fill:#ffffff;fill-opacity:1;stroke:none;stroke-width:2.00001;stroke-linecap:round;stroke-linejoin:round;stroke-dasharray:none;stroke-dashoffset:0;stroke-opacity:1;paint-order:markers stroke fill"
         id="rect67"
         width="16"
         height="14.21875"
         x="0"
         y="0" /></clipPath><g
       id="SVG"
       fill="#ffffff"
       transform="matrix(2,0,0,2,40,158)"><path
         id="S"
         d="M 5.482,31.319 C 2.163,28.001 0.109,23.419 0.109,18.358 0.109,8.232 8.322,0.024 18.443,0.024 c 10.126,0 18.339,8.208 18.339,18.334 h -10.74 c 0,-4.194 -3.404,-7.593 -7.599,-7.593 -4.194,0 -7.593,3.399 -7.593,7.593 0,2.095 0.851,3.993 2.22,5.363 h 0.005 c 1.375,1.38 2.52,1.779 5.368,2.231 v 0 c 5.066,0.527 9.648,2.054 12.966,5.372 v 0 c 3.319,3.319 5.373,7.901 5.373,12.962 0,10.126 -8.213,18.339 -18.339,18.339 C 8.322,62.625 0.109,54.412 0.109,44.286 H 10.85 c 0,4.194 3.399,7.598 7.593,7.598 4.195,0 7.599,-3.404 7.599,-7.598 0,-2.095 -0.851,-3.988 -2.221,-5.363 H 23.816 C 22.441,37.548 20.468,37.074 18.443,36.697 V 36.692 C 13.533,35.939 8.8,34.638 5.482,31.319 Z" /><path
         id="V"
         d="M 73.452,0.024 60.482,62.625 H 49.742 L 36.782,0.024 h 10.74 l 7.6,36.663 7.59,-36.663 z" /><path
         id="G"
         d="m 91.792,25.952 h 18.334 v 18.334 h 0.005 c 0,10.127 -8.213,18.34 -18.339,18.34 -10.127,0 -18.334,-8.213 -18.334,-18.34 v 0 -25.927 h -0.005 c 0,-10.126 8.212,-18.334 18.339,-18.334 10.121,0 18.334,8.208 18.334,18.334 H 99.385 c 0,-4.19 -3.404,-7.594 -7.593,-7.594 -4.195,0 -7.594,3.404 -7.594,7.594 v 25.927 0 c 0,4.195 3.399,7.594 7.594,7.594 4.189,0 7.588,-3.399 7.593,-7.589 v -0.005 -7.588 h -7.593 z" /></g><clipPath
       clipPathUnits="userSpaceOnUse"
       id="clipPath11"><path
         id="path11"
         style="font-variation-settings:'opsz' 40, 'wght' 900;display:inline;fill:#000000;fill-opacity:1;stroke:none;stroke-width:4.51115;stroke-linejoin:round"
         d="M 0,1 V 7.1532534 15 a 1,1 45 0 0 1,1 H 3.8666667 V 6.3720034 H 16 V 1 A 1,1 45 0 0 15,0 H 1 A 1,1 135 0 0 0,1 Z"
         inkscape:label="Two Letter Clip"
         inkscape:original-d="M 0,0 V 7.1532534 16 H 3.8666667 V 6.3720034 H 16 V 0 Z"
         inkscape:path-effect="#path-effect43"
         sodipodi:nodetypes="cccccccc" /></clipPath><clipPath
       clipPathUnits="userSpaceOnUse"
       id="clipPath12"><path
         id="path12"
         style="font-variation-settings:'opsz' 40, 'wght' 900;display:inline;fill:#000000;fill-opacity:1;stroke:none;stroke-width:4.51115;stroke-linejoin:round"
         d="M 0,1 V 7.1532534 H 16 V 1 A 1,1 45 0 0 15,0 H 1 A 1,1 135 0 0 0,1 Z"
         inkscape:label="Three Letter Clip"
         inkscape:original-d="m 0,0 v 7.1532534 0 H 16 V 0 Z"
         inkscape:path-effect="#path-effect45"
         sodipodi:nodetypes="cccccc" /></clipPath><style
       id="style1">.cls-1{fill:#d68012;}</style></defs><sodipodi:namedview
     id="namedview2"
     pagecolor="#131313"
     bordercolor="#ffffff"
     borderopacity="1"
     inkscape:showpageshadow="false"
     inkscape:pageopacity="0"
     inkscape:pagecheckerboard="1"
     inkscape:deskcolor="#868686"
     inkscape:zoom="32"
     inkscape:cx="7.0625"
     inkscape:cy="8.421875"
     inkscape:window-width="1920"
     inkscape:window-height="1009"
     inkscape:window-x="-8"
     inkscape:window-y="-8"
     inkscape:window-maximized="1"
     inkscape:current-layer="svg2"
     showgrid="false"
     showborder="false"
     labelstyle="default"
     showguides="true"
     inkscape:clip-to-page="false"
     shape-rendering="crispEdges"
     inkscape:export-bgcolor="#00000000"><inkscape:grid
       id="grid1"
       units="px"
       originx="7"
       originy="7"
       spacingx="1"
       spacingy="1"
       empcolor="#3f3fff"
       empopacity="0.5372549"
       color="#3f3fff"
       opacity="0.278431"
       empspacing="1"
       dotted="false"
       gridanglex="30"
       gridanglez="30"
       visible="false" /></sodipodi:namedview><rect
     style="display:none;opacity:0;fill:#131313;fill-opacity:1;stroke:none;stroke-width:2;stroke-linecap:round;stroke-linejoin:round;stroke-dasharray:none;stroke-dashoffset:0;stroke-opacity:1;paint-order:markers stroke fill"
     id="rect72"
     width="16"
     height="16"
     x="0"
     y="0"
     inkscape:export-filename="ahkl.svg"
     inkscape:export-xdpi="96"
     inkscape:export-ydpi="96" /><g
     id="g64"
     inkscape:highlight-color="#ffffff"
     inkscape:export-filename="vscode-ignore.svg"
     inkscape:export-xdpi="96"
     inkscape:export-ydpi="96"
     style="display:none"
     inkscape:label="Sunk"><path
       d="M 15.728712,12.534857 8.7455652,5.551711 a 1.0286141,1.0286141 0 0 0 -1.4572033,0 L 5.8368731,7.0032 7.6769495,8.843276 a 1.2229079,1.2229079 0 0 1 1.5486357,1.548635 l 1.7715018,1.771503 a 1.2229079,1.2229079 0 1 1 -0.731459,0.691457 L 8.6027021,11.209088 v 4.354467 A 1.2229079,1.2229079 0 1 1 7.6026606,15.534985 V 11.134802 A 1.2286224,1.2286224 0 0 1 6.9340616,9.534736 L 5.1225578,7.717518 0.33378775,12.506288 a 1.0286141,1.0286141 0 0 0 0,1.457203 l 6.98314685,6.983148 a 1.0286141,1.0286141 0 0 0 1.4572032,0 l 6.9545742,-6.954576 a 1.0286141,1.0286141 0 0 0 0,-1.457203"
       fill="#e64a19"
       id="path59"
       style="display:none;fill:#ff3900;fill-opacity:1;stroke-width:0.571452"
       inkscape:label="Git"
       clip-path="url(#clipPath67)"
       inkscape:export-filename="git-ignore.svg"
       inkscape:export-xdpi="96"
       inkscape:export-ydpi="96" /><g
       id="g55"
       transform="matrix(0.56717658,0,0,0.56717658,-1.0535056,4.0398137)"
       style="display:inline;opacity:1;mix-blend-mode:normal"
       inkscape:label="VSCode"
       clip-path="url(#clipPath66)"
       inkscape:export-filename="vscode-ignore.svg"
       inkscape:export-xdpi="96"
       inkscape:export-ydpi="96"><path
         d="M 29.01,5.03 23.244,2.254 A 1.742,1.742 0 0 0 21.255,2.592 L 2.38,19.8 A 1.166,1.166 0 0 0 2.3,21.447 c 0.025,0.027 0.05,0.053 0.077,0.077 l 1.541,1.4 A 1.165,1.165 0 0 0 5.407,22.99 L 28.142,5.75 A 1.158,1.158 0 0 1 30,6.672 V 6.605 A 1.748,1.748 0 0 0 29.01,5.03 Z"
         style="display:inline;fill:#0065a9"
         id="path53" /><path
         d="m 29.01,26.97 -5.766,2.777 A 1.745,1.745 0 0 1 21.255,29.409 L 2.38,12.2 A 1.166,1.166 0 0 1 2.3,10.553 C 2.325,10.526 2.35,10.5 2.377,10.476 l 1.541,-1.4 A 1.165,1.165 0 0 1 5.41,9.01 L 28.142,26.25 A 1.158,1.158 0 0 0 30,25.328 V 25.4 a 1.749,1.749 0 0 1 -0.99,1.57 z"
         style="display:inline;fill:#007acc"
         id="path54" /><path
         d="M 23.244,29.747 A 1.745,1.745 0 0 1 21.255,29.409 1.025,1.025 0 0 0 23,28.684 V 3.316 A 1.024,1.024 0 0 0 21.251,2.592 1.744,1.744 0 0 1 23.24,2.253 l 5.765,2.772 A 1.748,1.748 0 0 1 30,6.6 v 18.8 a 1.748,1.748 0 0 1 -0.991,1.576 z"
         style="display:inline;fill:#1f9cf0"
         id="path55" /></g><rect
       style="display:inline;fill:#ffffff;fill-opacity:1;stroke:none;stroke-width:1.73205;stroke-linecap:round;stroke-linejoin:round;stroke-dasharray:none;stroke-dashoffset:0;stroke-opacity:1;paint-order:markers stroke fill"
       id="rect57"
       width="16"
       height="0.75"
       x="0"
       y="14.21875"
       inkscape:label="SinkLine" /><rect
       style="display:inline;opacity:0;fill:#ff3900;fill-opacity:1;stroke:none;stroke-width:7.87786;stroke-linecap:round;stroke-linejoin:round;stroke-dasharray:none;stroke-dashoffset:0;stroke-opacity:1;paint-order:markers stroke fill"
       id="rect63"
       width="16"
       height="16"
       x="0"
       y="0"
       inkscape:highlight-color="#ff0000" /></g><g
     id="g3"
     inkscape:label="Scripts"
     style="display:none"
     inkscape:highlight-color="#ffff00"
     inkscape:export-filename="js.svg"
     inkscape:export-xdpi="96"
     inkscape:export-ydpi="96"><text
       xml:space="preserve"
       style="font-style:normal;font-variant:normal;font-weight:500;font-stretch:normal;font-size:9.33333px;line-height:1.25;font-family:'JetBrains Mono';-inkscape-font-specification:'JetBrains Mono, Medium';font-variant-ligatures:normal;font-variant-caps:normal;font-variant-numeric:normal;font-variant-east-asian:normal;letter-spacing:0px;word-spacing:0px;display:none;fill:#ff681f;fill-opacity:1;stroke-width:2.39527"
       x="16.392473"
       y="16.142385"
       id="text50"
       transform="scale(1.0152585,0.98497082)"
       inkscape:label="SH"><tspan
         sodipodi:role="line"
         id="tspan49"
         x="0"
         y="0"
         style="font-style:normal;font-variant:normal;font-weight:bold;font-stretch:normal;font-size:9.33333px;font-family:'JetBrains Mono';-inkscape-font-specification:'JetBrains Mono, Bold';font-variant-ligatures:normal;font-variant-caps:normal;font-variant-numeric:normal;font-variant-east-asian:normal;text-align:end;letter-spacing:0px;text-anchor:end;fill:#ff681f;fill-opacity:1;stroke-width:2.39527">SH</tspan></text><text
       xml:space="preserve"
       style="font-style:normal;font-variant:normal;font-weight:500;font-stretch:normal;font-size:9.33333px;line-height:1.25;font-family:'JetBrains Mono';-inkscape-font-specification:'JetBrains Mono, Medium';font-variant-ligatures:normal;font-variant-caps:normal;font-variant-numeric:normal;font-variant-east-asian:normal;letter-spacing:0px;word-spacing:0px;display:none;fill:#ffff00;fill-opacity:1;stroke-width:2.39527"
       x="16.28474"
       y="16.142385"
       id="text51"
       transform="scale(1.0152585,0.98497082)"
       inkscape:label="JS"><tspan
         sodipodi:role="line"
         id="tspan50"
         x="0"
         y="0"
         style="font-style:normal;font-variant:normal;font-weight:bold;font-stretch:normal;font-size:9.33333px;font-family:'JetBrains Mono';-inkscape-font-specification:'JetBrains Mono, Bold';font-variant-ligatures:normal;font-variant-caps:normal;font-variant-numeric:normal;font-variant-east-asian:normal;text-align:end;letter-spacing:0px;text-anchor:end;fill:#ffff00;fill-opacity:1;stroke-width:2.39527">JS</tspan></text><rect
       style="display:none;fill:none;fill-opacity:1;stroke:#40c057;stroke-width:3;stroke-linecap:round;stroke-linejoin:round;stroke-dasharray:none;stroke-dashoffset:0;stroke-opacity:1;paint-order:markers stroke fill"
       id="rect11"
       width="16"
       height="16"
       x="0"
       y="0"
       clip-path="url(#clipPath12)"
       inkscape:label="Frame for three"
       inkscape:export-filename="ahks3.svg"
       inkscape:export-xdpi="96"
       inkscape:export-ydpi="96" /><rect
       style="display:inline;fill:none;fill-opacity:1;stroke:#0039ff;stroke-width:3;stroke-linecap:round;stroke-linejoin:round;stroke-dasharray:none;stroke-dashoffset:0;stroke-opacity:1;paint-order:markers stroke fill"
       id="rect40"
       width="16"
       height="16"
       x="0"
       y="0"
       clip-path="url(#clipPath11)"
       inkscape:label="Frame for two"
       inkscape:export-filename="ts.svg"
       inkscape:export-xdpi="96"
       inkscape:export-ydpi="96" /><text
       xml:space="preserve"
       style="font-style:normal;font-variant:normal;font-weight:bold;font-stretch:condensed;font-size:9.33333px;line-height:1.25;font-family:Arial;-inkscape-font-specification:'Arial, Bold Condensed';font-variant-ligatures:normal;font-variant-caps:normal;font-variant-numeric:normal;font-variant-east-asian:normal;letter-spacing:0px;word-spacing:0px;display:none;fill:#40c057;fill-opacity:1;stroke-width:2.39527"
       x="15.799817"
       y="16.105215"
       id="text14"
       transform="scale(1.0152585,0.98497082)"
       inkscape:label="AHK"><tspan
         sodipodi:role="line"
         id="tspan14"
         x="0"
         y="0"
         style="font-style:normal;font-variant:normal;font-weight:normal;font-stretch:condensed;font-size:9.33333px;font-family:Arial;-inkscape-font-specification:'Arial, Condensed';font-variant-ligatures:normal;font-variant-caps:normal;font-variant-numeric:normal;font-variant-east-asian:normal;text-align:end;letter-spacing:0px;text-anchor:end;fill:#40c057;fill-opacity:1;stroke-width:2.39527">AHK</tspan></text><path
       style="font-weight:bold;font-size:9.33333px;line-height:1.25;font-family:'JetBrains Mono';-inkscape-font-specification:'JetBrains Mono, Bold';text-align:end;letter-spacing:-0.32px;word-spacing:0px;text-anchor:end;display:none;fill:#ffffff;stroke-width:2.395;stroke-dasharray:none"
       d="M 2.0597076,16.221703 V 10.463038 H 0.27704153 V 9.4083716 H 5.0183733 V 10.463038 H 3.2357072 v 5.758665 z m 3.3293356,0 1.8853327,-3.490666 -1.7733327,-3.3226654 h 1.3066662 l 0.8586664,1.7079994 q 0.093333,0.186667 0.1679999,0.364 0.074667,0.168 0.112,0.261333 0.028,-0.09333 0.1026666,-0.261333 0.074667,-0.177333 0.168,-0.364 L 9.085042,9.4083716 h 1.269333 L 8.5810421,12.703037 10.466375,16.221703 H 9.1597086 L 8.1983756,14.33637 Q 8.1050423,14.159037 8.0210423,13.981703 7.9463757,13.795037 7.9090424,13.69237 q -0.037333,0.102667 -0.112,0.28 -0.074667,0.177333 -0.1679999,0.364 l -0.9706664,1.885333 z m 7.2306678,0 V 10.463038 H 10.837045 V 9.4083716 h 4.741332 V 10.463038 H 13.79571 v 5.758665 z"
       id="text49"
       inkscape:label="TXT"
       transform="scale(1.0152585,0.98497082)"
       aria-label="TXT" /><text
       xml:space="preserve"
       style="font-style:normal;font-variant:normal;font-weight:bold;font-stretch:condensed;font-size:10.6667px;line-height:1.25;font-family:Arial;-inkscape-font-specification:'Arial, Bold Condensed';font-variant-ligatures:normal;font-variant-caps:normal;font-variant-numeric:normal;font-variant-east-asian:normal;letter-spacing:0px;word-spacing:0px;display:none;fill:#ff681f;fill-opacity:1;stroke-width:2.39527"
       x="16.257797"
       y="16.127649"
       id="text71"
       transform="scale(1.0152585,0.98497082)"
       inkscape:label="SH"><tspan
         sodipodi:role="line"
         id="tspan71"
         x="0"
         y="0"
         style="font-style:normal;font-variant:normal;font-weight:bold;font-stretch:condensed;font-size:10.6667px;font-family:Arial;-inkscape-font-specification:'Arial, Bold Condensed';font-variant-ligatures:normal;font-variant-caps:normal;font-variant-numeric:normal;font-variant-east-asian:normal;text-align:end;letter-spacing:0px;text-anchor:end;fill:#ff681f;fill-opacity:1;stroke-width:2.39527">SH</tspan></text><text
       xml:space="preserve"
       style="font-style:normal;font-variant:normal;font-weight:bold;font-stretch:condensed;font-size:10.6667px;line-height:1.25;font-family:Arial;-inkscape-font-specification:'Arial, Bold Condensed';font-variant-ligatures:normal;font-variant-caps:normal;font-variant-numeric:normal;font-variant-east-asian:normal;letter-spacing:0px;word-spacing:0px;display:none;fill:#ffff00;fill-opacity:1;stroke-width:2.39527"
       x="16.107626"
       y="16.105215"
       id="text9"
       transform="scale(1.0152585,0.98497082)"
       inkscape:label="JS"><tspan
         sodipodi:role="line"
         id="tspan9"
         x="0"
         y="0"
         style="font-style:normal;font-variant:normal;font-weight:bold;font-stretch:condensed;font-size:10.6667px;font-family:Arial;-inkscape-font-specification:'Arial, Bold Condensed';font-variant-ligatures:normal;font-variant-caps:normal;font-variant-numeric:normal;font-variant-east-asian:normal;text-align:end;letter-spacing:0px;text-anchor:end;fill:#ffff00;fill-opacity:1;stroke-width:2.39527">JS</tspan></text><text
       xml:space="preserve"
       style="font-style:normal;font-variant:normal;font-weight:bold;font-stretch:condensed;font-size:10.6667px;line-height:1.25;font-family:Arial;-inkscape-font-specification:'Arial, Bold Condensed';font-variant-ligatures:normal;font-variant-caps:normal;font-variant-numeric:normal;font-variant-east-asian:normal;letter-spacing:0px;word-spacing:0px;display:inline;fill:#0039ff;fill-opacity:1;stroke-width:2.39527"
       x="16.015284"
       y="16.010035"
       id="text8"
       transform="scale(1.0152585,0.98497082)"
       inkscape:label="TS"><tspan
         sodipodi:role="line"
         id="tspan8"
         x="16.015284"
         y="16.010035"
         style="font-style:normal;font-variant:normal;font-weight:bold;font-stretch:condensed;font-size:10.6667px;font-family:Arial;-inkscape-font-specification:'Arial, Bold Condensed';font-variant-ligatures:normal;font-variant-caps:normal;font-variant-numeric:normal;font-variant-east-asian:normal;text-align:end;letter-spacing:0px;text-anchor:end;fill:#0039ff;fill-opacity:1;stroke-width:2.39527">TS</tspan></text></g><g
     id="g30"
     inkscape:label="Markdown"
     style="display:none"><path
       style="display:inline;opacity:1;fill:#42a5f5;fill-opacity:1;stroke:none;stroke-width:1.10947px;stroke-linecap:butt;stroke-linejoin:miter;stroke-opacity:1"
       d="M 8.006696,16 15.943007,11.013021 0.0703851,11 Z"
       id="path22"
       sodipodi:nodetypes="cccc"
       clip-path="url(#clipPath28)"
       inkscape:label="Arrow"
       transform="matrix(1,0,0,0.8,0,3.2)" /><path
       d="M 11.924488,10 H 9.9084349 V 4.3863326 L 8.7318058,10 H 7.1749248 L 5.8261061,4.3863326 V 10 H 4.0611626 V 0 H 6.9668623 L 8,5.1882852 8.8968208,0 h 3.0276672 z"
       id="path23"
       style="font-size:14.6667px;line-height:1.25;font-family:Haettenschweiler;-inkscape-font-specification:'Haettenschweiler, Normal';letter-spacing:0px;word-spacing:0px;display:inline;fill:#42a5f5;stroke-width:0.987692"
       aria-label="M" /><rect
       style="fill:#42a5f5;fill-opacity:1;stroke:none;stroke-width:1.24722;stroke-linecap:round;stroke-linejoin:round;stroke-dasharray:none;stroke-dashoffset:0;stroke-opacity:1"
       id="rect29"
       width="2"
       height="7"
       x="0"
       y="5" /><rect
       style="fill:#42a5f5;fill-opacity:1;stroke:none;stroke-width:1.24722;stroke-linecap:round;stroke-linejoin:round;stroke-dasharray:none;stroke-dashoffset:0;stroke-opacity:1"
       id="rect30"
       width="2"
       height="7"
       x="14"
       y="5" /></g><g
     id="g71"
     transform="matrix(0.50430101,0,0,0.50430101,-0.04757413,-0.04938574)"
     style="display:none"
     inkscape:label="VSCode Ignore"
     inkscape:export-filename="vscode-ignore.svg"
     inkscape:export-xdpi="96"
     inkscape:export-ydpi="96"><path
       d="M 29.01,5.03 23.244,2.254 A 1.742,1.742 0 0 0 21.255,2.592 L 2.38,19.8 A 1.166,1.166 0 0 0 2.3,21.447 c 0.025,0.027 0.05,0.053 0.077,0.077 l 1.541,1.4 A 1.165,1.165 0 0 0 5.407,22.99 L 28.142,5.75 A 1.158,1.158 0 0 1 30,6.672 V 6.605 A 1.748,1.748 0 0 0 29.01,5.03 Z"
       style="display:inline;fill:#555555;fill-opacity:1"
       id="path69" /><path
       d="m 29.01,26.97 -5.766,2.777 A 1.745,1.745 0 0 1 21.255,29.409 L 2.38,12.2 A 1.166,1.166 0 0 1 2.3,10.553 C 2.325,10.526 2.35,10.5 2.377,10.476 l 1.541,-1.4 A 1.165,1.165 0 0 1 5.41,9.01 L 28.142,26.25 A 1.158,1.158 0 0 0 30,25.328 V 25.4 a 1.749,1.749 0 0 1 -0.99,1.57 z"
       style="display:inline;fill:#666666;fill-opacity:1"
       id="path70" /><path
       d="M 23.244,29.747 A 1.745,1.745 0 0 1 21.255,29.409 1.025,1.025 0 0 0 23,28.684 V 3.316 A 1.024,1.024 0 0 0 21.251,2.592 1.744,1.744 0 0 1 23.24,2.253 l 5.765,2.772 A 1.748,1.748 0 0 1 30,6.6 v 18.8 a 1.748,1.748 0 0 1 -0.991,1.576 z"
       style="display:inline;fill:#878787;fill-opacity:1"
       id="path71" /></g><g
     id="g51"
     transform="matrix(0.50430101,0,0,0.50430101,-0.04757413,-0.04938574)"
     style="display:none"
     inkscape:label="VSCode"
     inkscape:export-filename="vscode-ignore.svg"
     inkscape:export-xdpi="96"
     inkscape:export-ydpi="96"><path
       d="M 29.01,5.03 23.244,2.254 A 1.742,1.742 0 0 0 21.255,2.592 L 2.38,19.8 A 1.166,1.166 0 0 0 2.3,21.447 c 0.025,0.027 0.05,0.053 0.077,0.077 l 1.541,1.4 A 1.165,1.165 0 0 0 5.407,22.99 L 28.142,5.75 A 1.158,1.158 0 0 1 30,6.672 V 6.605 A 1.748,1.748 0 0 0 29.01,5.03 Z"
       style="display:inline;fill:#0065a9"
       id="path1-2" /><path
       d="m 29.01,26.97 -5.766,2.777 A 1.745,1.745 0 0 1 21.255,29.409 L 2.38,12.2 A 1.166,1.166 0 0 1 2.3,10.553 C 2.325,10.526 2.35,10.5 2.377,10.476 l 1.541,-1.4 A 1.165,1.165 0 0 1 5.41,9.01 L 28.142,26.25 A 1.158,1.158 0 0 0 30,25.328 V 25.4 a 1.749,1.749 0 0 1 -0.99,1.57 z"
       style="display:inline;fill:#007acc"
       id="path2" /><path
       d="M 23.244,29.747 A 1.745,1.745 0 0 1 21.255,29.409 1.025,1.025 0 0 0 23,28.684 V 3.316 A 1.024,1.024 0 0 0 21.251,2.592 1.744,1.744 0 0 1 23.24,2.253 l 5.765,2.772 A 1.748,1.748 0 0 1 30,6.6 v 18.8 a 1.748,1.748 0 0 1 -0.991,1.576 z"
       style="display:inline;fill:#1f9cf0"
       id="path3" /></g><g
     id="g72"
     transform="matrix(0.54261463,0,0,0.54261463,-0.68887341,-0.68156272)"
     style="display:none"
     inkscape:label="Julia"><circle
       cx="8.309"
       cy="22.591999"
       r="5.8600001"
       style="fill:#d5635c"
       id="circle1" /><path
       d="M 8.309,28.9 A 6.309,6.309 0 1 1 14.618,22.591 6.316,6.316 0 0 1 8.309,28.9 Z m 0,-11.719 a 5.41,5.41 0 1 0 5.41,5.41 5.416,5.416 0 0 0 -5.41,-5.409 z"
       style="fill:#cb3c33"
       id="path1-34" /><circle
       cx="16"
       cy="9.408"
       r="5.8600001"
       style="fill:#60ad51"
       id="circle2" /><path
       d="M 16,15.717 A 6.309,6.309 0 1 1 22.309,9.408 6.316,6.316 0 0 1 16,15.717 Z M 16,4 A 5.41,5.41 0 1 0 21.41,9.41 5.416,5.416 0 0 0 16,4 Z"
       style="fill:#389826"
       id="path2-6" /><circle
       cx="23.691"
       cy="22.591999"
       r="5.8600001"
       style="fill:#aa79c1"
       id="circle3" /><path
       d="M 23.691,28.9 A 6.309,6.309 0 1 1 30,22.592 6.316,6.316 0 0 1 23.691,28.9 Z m 0,-11.719 a 5.41,5.41 0 1 0 5.41,5.41 5.416,5.416 0 0 0 -5.41,-5.409 z"
       style="fill:#9558b2"
       id="path3-1" /></g><path
     stroke="#2DBCC5"
     stroke-width="1.5"
     d="M 7.9999994,3.9299135 C 5.674598,2.0701009 2.960351,1.6045084 1.6045064,1.6045084 V 12.070113 c 1.9378337,0.193144 4.6508023,0.580704 6.395493,2.325404 1.7446912,-1.7447 4.8452276,-2.325404 6.3954936,-2.325404 V 1.6045084 c -1.74469,0 -4.6508024,0.5819908 -6.3954936,2.3254051 z m 0,0.2327965 v 8.953705"
     id="path1"
     style="display:none;stroke:#58d3fd;stroke-width:1.20901;stroke-linecap:round;stroke-linejoin:round;stroke-miterlimit:4;stroke-dasharray:none;stroke-opacity:1"
     inkscape:label="ReadMe" /><text
     xml:space="preserve"
     style="font-size:5.71518px;line-height:1.25;font-family:sans-serif;letter-spacing:0.780924px;word-spacing:0px;display:none;fill:#ffc400;fill-opacity:1;stroke-width:1.0716"
     x="-0.4502385"
     y="14.845829"
     id="text7"
     inkscape:label="JSON"
     transform="scale(1.1524803,0.8676938)"><tspan
       sodipodi:role="line"
       id="tspan7"
       x="0"
       y="0"
       style="font-style:normal;font-variant:normal;font-weight:normal;font-stretch:normal;font-size:14.288px;font-family:Gabriola;-inkscape-font-specification:'Gabriola, Normal';font-variant-ligatures:normal;font-variant-caps:normal;font-variant-numeric:normal;font-variant-east-asian:normal;letter-spacing:0.780924px;fill:#ffc400;fill-opacity:1;stroke-width:1.0716">{..}</tspan></text><path
     d="M 15.728712,7.316107 8.7455652,0.332961 a 1.0286141,1.0286141 0 0 0 -1.4572033,0 L 5.8368731,1.78445 7.6769495,3.624526 A 1.2229079,1.2229079 0 0 1 9.2255852,5.173161 L 10.997087,6.944664 A 1.2229079,1.2229079 0 1 1 10.265628,7.636121 L 8.6027021,5.990338 v 4.354467 A 1.2229079,1.2229079 0 1 1 7.6026606,10.316235 V 5.916052 A 1.2286224,1.2286224 0 0 1 6.9340616,4.315986 L 5.1225578,2.498768 0.33378775,7.287538 a 1.0286141,1.0286141 0 0 0 0,1.457203 l 6.98314685,6.983148 a 1.0286141,1.0286141 0 0 0 1.4572032,0 L 15.728712,8.773313 a 1.0286141,1.0286141 0 0 0 0,-1.457203"
     fill="#e64a19"
     id="path1-3"
     style="display:none;fill:#808080;fill-opacity:1;stroke-width:0.571452"
     inkscape:label="Git Ignore"
     inkscape:export-filename="git-ignore.svg"
     inkscape:export-xdpi="96"
     inkscape:export-ydpi="96" /><g
     id="g73"
     transform="matrix(0.06343453,0,0,0.06343453,-0.11644759,-0.1196188)"
     inkscape:export-filename="cpp.svg"
     inkscape:export-xdpi="96"
     inkscape:export-ydpi="96"
     inkscape:label="CPP"
     style="display:none"><path
       fill="#00599c"
       d="m 235.5,190.1 c 1.7,-3 2.8,-6.4 2.8,-9.4 V 75.3 c 0,-3 -1.1,-6.4 -2.8,-9.4 L 128,128 Z"
       id="path1-8" /><path
       fill="#004482"
       d="m 137.6,249.9 91.2,-52.7 c 2.6,-1.5 5,-4.1 6.7,-7.1 L 128,128 20.5,190.1 c 1.7,3 4.1,5.6 6.7,7.1 l 91.2,52.7 c 5.3,3 13.9,3 19.2,0 z"
       id="path2-0" /><path
       fill="#659ad2"
       d="m 235.5,65.9 c -1.7,-3 -4.1,-5.6 -6.7,-7.1 L 137.6,6.1 c -5.3,-3 -13.9,-3 -19.1,0 L 27.2,58.8 c -5.3,3 -9.6,10.5 -9.6,16.5 v 105.3 c 0,3 1.1,6.4 2.8,9.4 L 128,128 Z"
       id="path3-9" /><g
       id="g4">
	<path
   fill="#ffffff"
   d="m 128,201.5 c -40.6,0 -73.5,-33 -73.5,-73.5 0,-40.5 33,-73.5 73.5,-73.5 26.2,0 50.6,14.1 63.7,36.8 l -31.8,18.4 C 153.3,98.4 141.1,91.3 128,91.3 c -20.3,0 -36.8,16.5 -36.8,36.8 0,20.3 16.5,36.8 36.8,36.8 13.1,0 25.3,-7 31.9,-18.4 l 31.8,18.4 c -13.1,22.6 -37.5,36.6 -63.7,36.6 z"
   id="path4" />
</g><g
       id="g5">
	<polygon
   fill="#ffffff"
   points="193.4,123.9 193.4,115.7 185.2,115.7 185.2,123.9 177,123.9 177,132.1 185.2,132.1 185.2,140.3 193.4,140.3 193.4,132.1 201.5,132.1 201.5,123.9 "
   id="polygon4" />
</g><g
       id="g6">
	<polygon
   fill="#ffffff"
   points="224,123.9 224,115.7 215.8,115.7 215.8,123.9 207.7,123.9 207.7,132.1 215.8,132.1 215.8,140.3 224,140.3 224,132.1 232.2,132.1 232.2,123.9 "
   id="polygon5" />
</g></g><g
     id="g79"
     transform="matrix(0.06343453,0,0,0.06343453,-0.11644759,-0.1196188)"
     inkscape:export-filename="cpp.svg"
     inkscape:export-xdpi="96"
     inkscape:export-ydpi="96"
     inkscape:label="C"
     style="display:none"><path
       id="path75"
       style="fill:#00599c;fill-opacity:1"
       d="M 119.20574,6.8120439 27.883731,59.493082 c -5.299995,2.999997 -9.575572,10.503241 -9.575572,16.503235 V 181.29681 c 0,3 0.85554,6.69874 2.555538,9.69873 1.699998,3 3.742665,4.01135 6.342662,5.51135 l 91.198851,52.68103 c 5.29999,3 13.88194,3 19.18193,0 l 91.19885,-52.68103 c 2.6,-1.5 5.01214,-3.40425 6.71214,-6.40425 1.7,-2.99999 2.80186,-6.39083 2.80186,-9.39083 V 75.288156 c 0,-10.180817 -7.27887,-14.914129 -8.80584,-15.795074 L 138.2953,6.8120439 c -5.3843,-3.0477228 -13.86374,-3.0148911 -19.08956,0 z"
       sodipodi:nodetypes="ccsssccccsssccc" /><path
       fill="#ffffff"
       d="m 133.94673,187.2488 c -32.72785,0 -59.248738,-26.6015 -59.248738,-59.2488 0,-32.647296 26.601498,-59.248797 59.248738,-59.248797 21.11998,0 40.78897,11.366096 51.34895,29.664703 l -25.63417,14.832344 c -5.3203,-9.10899 -15.1548,-14.832344 -25.71478,-14.832344 -16.36396,0 -29.66465,13.300754 -29.66465,29.664704 0,16.36396 13.30069,29.6647 29.66465,29.6647 10.55998,0 20.39448,-5.64273 25.71478,-14.83235 l 25.63417,14.83235 c -10.55998,18.218 -30.22897,29.50349 -51.34895,29.50349 z"
       id="path76"
       style="display:inline;stroke-width:0.806106" /></g><g
     id="svgstar"
     transform="matrix(0.06535036,0,0,0.06535036,8,8)"
     style="display:none"
     inkscape:label="svg"><path
       id="svgbar"
       fill="#ffb13b"
       d="m -84.1487,-15.8513 a 22.4171,22.4171 0 1 0 0,31.7026 H 84.1487 a 22.4171,22.4171 0 1 0 0,-31.7026 z" /><use
       xlink:href="#svgbar"
       transform="rotate(45)"
       id="use1" /><use
       xlink:href="#svgbar"
       transform="rotate(90)"
       id="use2" /><use
       xlink:href="#svgbar"
       transform="rotate(135)"
       id="use3" /></g><g
     style="display:none;fill:#40c057"
     id="g9"
     transform="matrix(0.44444444,0,0,0.44444444,-2.6666667,-2.6666667)"
     inkscape:label="AHK Filled"><path
       d="m 34.5,6 h -21 C 9.364,6 6,9.364 6,13.5 v 21 c 0,4.136 3.364,7.5 7.5,7.5 h 21 c 4.136,0 7.5,-3.364 7.5,-7.5 v -21 C 42,9.364 38.636,6 34.5,6 Z M 35,31 c 0,1.105 -0.895,2 -2,2 h -2 c -1.105,0 -2,-0.895 -2,-2 V 25.565 L 19,26.87 V 34 c 0,1.105 -0.895,2 -2,2 h -2 c -1.105,0 -2,-0.895 -2,-2 V 17 c 0,-1.105 0.895,-2 2,-2 h 2 c 1.105,0 2,0.895 2,2 v 4.87 L 29,20.566 V 14 c 0,-1.105 0.895,-2 2,-2 h 2 c 1.105,0 2,0.895 2,2 z"
       id="path1-4" /></g><g
     style="display:none;fill:#40c057"
     id="g10"
     transform="matrix(0.44479132,0,0,0.44479132,-2.6812355,-2.6812355)"
     inkscape:label="AHK Outline"><path
       d="M 13.5,6 C 9.3754991,6 6,9.3754991 6,13.5 v 21 c 0,4.124501 3.3754991,7.5 7.5,7.5 h 21 c 4.124501,0 7.5,-3.375499 7.5,-7.5 v -21 C 42,9.3754991 38.624501,6 34.5,6 Z m 0,3 h 21 c 2.503499,0 4.5,1.996501 4.5,4.5 v 21 c 0,2.503499 -1.996501,4.5 -4.5,4.5 h -21 C 10.996501,39 9,37.003499 9,34.5 v -21 C 9,10.996501 10.996501,9 13.5,9 Z M 31,12 c -1.105,0 -2,0.895 -2,2 v 6.564453 L 19,21.869141 V 17 c 0,-1.105 -0.895,-2 -2,-2 h -2 c -1.105,0 -2,0.895 -2,2 v 17 c 0,1.105 0.895,2 2,2 h 2 c 1.105,0 2,-0.895 2,-2 V 26.869141 L 29,25.566406 V 31 c 0,1.105 0.895,2 2,2 h 2 c 1.105,0 2,-0.895 2,-2 V 14 c 0,-1.105 -0.895,-2 -2,-2 z"
       id="path1-33" /></g><g
     style="display:none;fill:#40c057"
     id="g11"
     transform="matrix(0.6004737,0,0,0.6004737,-6.4113688,-6.4108012)"
     inkscape:label="AHK Letter"><path
       d="m 31,12 c -1.105,0 -2,0.895 -2,2 v 6.564453 L 19,21.869141 V 17 c 0,-1.105 -0.895,-2 -2,-2 h -2 c -1.105,0 -2,0.895 -2,2 v 17 c 0,1.105 0.895,2 2,2 h 2 c 1.105,0 2,-0.895 2,-2 V 26.869141 L 29,25.566406 V 31 c 0,1.105 0.895,2 2,2 h 2 c 1.105,0 2,-0.895 2,-2 V 14 c 0,-1.105 -0.895,-2 -2,-2 z"
       id="path10"
       sodipodi:nodetypes="ssccssssssssccsssssss" /></g><g
     style="display:none;fill-rule:evenodd;stroke-linejoin:round;filter:url(#saturation)"
     id="g38"
     transform="matrix(0.73217429,0,0,0.73217429,-1.4201544,-2.9286972)"
     inkscape:label="Folder "><path
       fill="#42a5f5"
       fill-rule="nonzero"
       d="M 19,20 H 4 A 2,2 0 0 1 2,18 V 6 C 2,4.89 2.89,4 4,4 h 6 l 2,2 h 7 c 1.097,0 2,0.903 2,2 H 4 v 10 l 2.14,-8 h 17.07 l -2.28,8.5 C 20.7,19.37 19.92,20 19,20 Z"
       id="path30"
       style="display:none;fill:#ff6600;fill-opacity:1;fill-rule:evenodd;stroke-linejoin:round;filter:url(#saturation)"
       transform="matrix(1.000046,0,0,1.000046,-9.2054584e-5,-1.8397259e-4)"
       inkscape:label="Open Folder"
       inkscape:export-filename="folder-vscode.svg"
       inkscape:export-xdpi="96"
       inkscape:export-ydpi="96" /><path
       fill="#42a5f5"
       fill-rule="nonzero"
       d="M 10,4 H 4 C 2.89,4 2,4.89 2,6 v 12 c 0,1.097 0.903,2 2,2 h 16 c 1.097,0 2,-0.903 2,-2 V 8 A 2,2 0 0 0 20,6 h -8 z"
       id="path31"
       style="display:none;fill:#ff6600;fill-opacity:1"
       inkscape:label="Closed Folder"
       inkscape:export-filename="folder-vscode.svg"
       inkscape:export-xdpi="96"
       inkscape:export-ydpi="96" /></g><g
     style="display:none;fill-rule:evenodd;stroke-linejoin:round;filter:url(#saturation)"
     id="g15"
     transform="matrix(0.73217429,0,0,0.73217429,-1.4201544,-2.9286972)"
     inkscape:label="Folder VSCode"><path
       fill="#42a5f5"
       fill-rule="nonzero"
       d="M 19,20 H 4 A 2,2 0 0 1 2,18 V 6 C 2,4.89 2.89,4 4,4 h 6 l 2,2 h 7 c 1.097,0 2,0.903 2,2 H 4 v 10 l 2.14,-8 h 17.07 l -2.28,8.5 C 20.7,19.37 19.92,20 19,20 Z"
       id="path1-1"
       style="display:none;fill:#ff6600;fill-opacity:1;fill-rule:evenodd;stroke-linejoin:round;filter:url(#saturation)"
       transform="matrix(1.000046,0,0,1.000046,-9.2054584e-5,-1.8397259e-4)"
       inkscape:label="Open Folder"
       inkscape:export-filename="folder-vscode.svg"
       inkscape:export-xdpi="96"
       inkscape:export-ydpi="96" /><path
       fill="#42a5f5"
       fill-rule="nonzero"
       d="M 10,4 H 4 C 2.89,4 2,4.89 2,6 v 12 c 0,1.097 0.903,2 2,2 h 16 c 1.097,0 2,-0.903 2,-2 V 8 A 2,2 0 0 0 20,6 h -8 z"
       id="path1-0"
       style="display:none;fill:#ff6600;fill-opacity:1"
       inkscape:label="Closed Folder"
       inkscape:export-filename="folder-vscode.svg"
       inkscape:export-xdpi="96"
       inkscape:export-ydpi="96" /><path
       id="path24"
       style="display:none;fill:#000000;fill-rule:evenodd;stroke-linejoin:round;filter:url(#saturation)"
       d="m 20.436559,10.187979 a 0.85352119,0.85352119 0 0 0 -0.60287,0.157387 0.50115005,0.50115005 0 0 1 0.736249,0.440148 v 12.414864 a 0.50163946,0.50163946 0 0 1 -0.853622,0.354786 0.85401059,0.85401059 0 0 0 0.973662,0.16539 l 2.822287,-1.357793 a 0.8554788,0.8554788 0 0 0 0.48283,-0.770927 v -9.200443 a 0.8554788,0.8554788 0 0 0 -0.485497,-0.770928 l -2.822287,-1.355124 a 0.85352119,0.85352119 0 0 0 -0.250752,-0.07736 z m -0.60287,0.157387 a 0.50115005,0.50115005 0 0 0 -0.120041,0.08536 0.85352119,0.85352119 0 0 1 0.120041,-0.08536 z m -8.245454,3.107717 c -0.131752,0.0059 -0.257964,0.05869 -0.357454,0.149384 l -0.752255,0.685565 c -0.01321,0.01174 -0.02778,0.02413 -0.04001,0.03735 -0.211247,0.23357 -0.193339,0.594118 0.04001,0.805605 l 9.23779,8.424181 c 0.01942,0.0194 0.04049,0.03615 0.06135,0.05335 0.319341,0.230532 0.790087,0.0079 0.792268,-0.408138 v -3.102382 l -8.608244,-6.52754 c -0.07063,-0.05377 -0.152839,-0.09031 -0.240081,-0.106703 -0.04408,-0.0084 -0.08946,-0.01265 -0.133378,-0.01067 z m 8.752292,-3.273107 c -0.208137,-0.0047 -0.411618,0.06765 -0.57086,0.202736 0.02006,-0.01427 0.04202,-0.02615 0.06402,-0.03735 0.1522,-0.110739 0.33615,-0.167237 0.522843,-0.162722 -0.0054,-2.25e-4 -0.0106,-0.0025 -0.016,-0.0027 z m -0.506838,0.16539 c -0.03794,0.02232 -0.07267,0.04948 -0.106703,0.07736 -0.0034,0.0028 -0.0073,0.0051 -0.01067,0.008 -4.91e-4,4.67e-4 -0.0022,-4.7e-4 -0.0027,0 l -5.399158,4.924331 2.158062,1.635219 4.097386,-3.105049 v -3.099713 c -0.0018,-0.37689 -0.403403,-0.616961 -0.736249,-0.440148 z m -7.314473,6.64758 -2.04069,1.859295 c -0.233352,0.211488 -0.25126,0.572036 -0.04001,0.805606 0.01224,0.01321 0.0268,0.0256 0.04001,0.03735 l 0.752255,0.685565 c 0.203337,0.184719 0.509485,0.198176 0.728246,0.03201 l 2.355463,-1.784604 z" /><path
       style="display:none;fill:#000000;fill-opacity:1;fill-rule:evenodd;stroke:none;stroke-width:0.144563;stroke-linejoin:round;stroke-dasharray:none;stroke-opacity:1;filter:url(#saturation)"
       d="m 20.18268,9.5487144 c -0.773679,0.03503 -1.217679,0.7788026 -1.787047,1.2009456 -1.378638,1.241968 -2.741438,2.501396 -4.121532,3.741754 -0.77902,-0.520068 -1.465619,-1.236925 -2.343201,-1.614517 -0.721767,-0.263072 -1.303779,0.370816 -1.769897,0.823704 -0.4910437,0.380354 -0.7381288,1.13092 -0.3035692,1.648705 0.4853572,0.617341 1.1200832,1.094491 1.6779422,1.642457 -0.593836,0.620453 -1.40988,1.127735 -1.8321436,1.92068 -0.2809749,0.643922 0.2511281,1.230998 0.7117856,1.614355 0.401761,0.430594 1.013725,0.833184 1.613025,0.545644 0.822127,-0.409858 1.490586,-1.064871 2.244526,-1.58198 1.753809,1.553443 3.418186,3.208335 5.20807,4.72012 0.517713,0.424336 1.232551,0.267934 1.770722,-0.02594 0.976233,-0.461255 1.997113,-0.860722 2.900708,-1.455365 0.645042,-0.550974 0.466009,-1.484502 0.522805,-2.236616 -4.92e-4,-2.671691 0.04864,-5.345254 -0.03252,-8.015874 0.01613,-0.616916 -0.293804,-1.241721 -0.889464,-1.474593 -1.055789,-0.509018 -2.095932,-1.0888864 -3.224907,-1.4191724 -0.11343,-0.02343 -0.229345,-0.03716 -0.345303,-0.03431 z m -0.250165,5.7421176 c 0.0068,1.155636 0.0085,2.344619 -2.36e-4,3.495939 -0.797126,-0.592012 -1.590233,-1.189466 -2.377861,-1.794064 0.787092,-0.602573 1.580375,-1.197033 2.37739,-1.786402 l 5.05e-4,0.06036 z"
       id="path26" /><path
       style="display:none;fill:#000000;fill-opacity:1;fill-rule:evenodd;stroke:none;stroke-width:0.144563;stroke-linejoin:round;stroke-dasharray:none;stroke-opacity:1;filter:url(#saturation)"
       d="m 20.191286,8.899369 c -1.092515,0.050202 -1.816311,1.0033706 -2.589829,1.652865 -1.121728,1.032775 -2.246447,2.062292 -3.370975,3.092015 -0.789495,-0.568082 -1.547834,-1.328711 -2.546681,-1.480946 -0.913531,-0.03642 -1.613336,0.697868 -2.2052688,1.300455 -0.5799097,0.612435 -0.6815583,1.633057 -0.1162406,2.290858 0.3259888,0.469764 0.8395354,0.857633 1.1845684,1.255185 -0.6256253,0.612637 -1.4355806,1.225057 -1.5759665,2.146087 -0.032084,1.025202 0.8305348,1.806022 1.6135735,2.331648 0.588949,0.42474 1.403845,0.43806 2.001318,0.02098 0.581181,-0.343831 1.103873,-0.774397 1.652006,-1.166531 1.716299,1.50917 3.283285,3.243737 5.151482,4.592679 0.861351,0.50743 1.84355,0.009 2.6519,-0.357834 0.930608,-0.467973 1.961179,-0.816906 2.739609,-1.530661 0.659252,-0.698794 0.473207,-1.729543 0.529364,-2.604328 0.0078,-2.808654 0.02094,-5.620954 -0.0049,-8.427379 -0.151876,-0.68428 -0.58477,-1.327799 -1.252171,-1.599219 -1.15738,-0.5812836 -2.309106,-1.261044 -3.595592,-1.5036132 -0.08834,-0.00975 -0.177316,-0.014595 -0.266197,-0.012265 z m -0.923677,8.090979 c 0.06391,0.436909 -0.04058,0.535852 -0.358388,0.203362 -0.505929,-0.193405 0.02133,-0.387918 0.23649,-0.580141 0.228993,-0.284522 0.07651,0.283298 0.121897,0.376779 z"
       id="path27" /><g
       id="g18"
       transform="matrix(0.48940435,0,0,0.48940435,9.3141413,9.1614992)"
       style="display:inline;fill-rule:evenodd;stroke-linejoin:round;filter:url(#saturation)"
       inkscape:label="VSCode"
       inkscape:export-filename="vscode-ignore.svg"
       inkscape:export-xdpi="96"
       inkscape:export-ydpi="96"><path
         d="M 29.01,5.03 23.244,2.254 A 1.742,1.742 0 0 0 21.255,2.592 L 2.38,19.8 A 1.166,1.166 0 0 0 2.3,21.447 c 0.025,0.027 0.05,0.053 0.077,0.077 l 1.541,1.4 A 1.165,1.165 0 0 0 5.407,22.99 L 28.142,5.75 A 1.158,1.158 0 0 1 30,6.672 V 6.605 A 1.748,1.748 0 0 0 29.01,5.03 Z"
         style="display:none;fill:#0065a9"
         id="path16" /><path
         d="m 29.01,26.97 -5.766,2.777 A 1.745,1.745 0 0 1 21.255,29.409 L 2.38,12.2 A 1.166,1.166 0 0 1 2.3,10.553 C 2.325,10.526 2.35,10.5 2.377,10.476 l 1.541,-1.4 A 1.165,1.165 0 0 1 5.41,9.01 L 28.142,26.25 A 1.158,1.158 0 0 0 30,25.328 V 25.4 a 1.749,1.749 0 0 1 -0.99,1.57 z"
         style="display:none;fill:#007acc"
         id="path17" /><path
         d="M 23.244,29.747 A 1.745,1.745 0 0 1 21.255,29.409 1.025,1.025 0 0 0 23,28.684 V 3.316 A 1.024,1.024 0 0 0 21.251,2.592 1.744,1.744 0 0 1 23.24,2.253 l 5.765,2.772 A 1.748,1.748 0 0 1 30,6.6 v 18.8 a 1.748,1.748 0 0 1 -0.991,1.576 z"
         style="display:none;fill:#1f9cf0"
         id="path18" /></g></g><g
     id="g1"
     transform="matrix(1.3339155,0,0,1.3339155,-2.6747939,-2.667831)"
     style="display:none;fill:#0039ff;fill-opacity:1"><circle
       class="cls-1"
       cx="8"
       cy="8"
       r="2"
       id="circle1-6"
       style="fill:#0039ff;fill-opacity:1" /><path
       class="cls-1"
       d="m 8,4.5 v 0 A 3.5,3.5 0 0 1 11.5,8 V 8 A 3.5,3.5 0 1 1 8,4.5 M 8,2 A 5.8,5.8 0 0 0 7,2.09 L 6.34,4 4.55,3.1 A 4.94,4.94 0 0 0 3.76,3.76 4.94,4.94 0 0 0 3.1,4.55 L 4,6.34 2.09,7 a 5.94,5.94 0 0 0 0,2 L 4,9.66 3.1,11.45 A 5.88,5.88 0 0 0 4.55,12.9 L 6.34,12 7,13.91 a 5.94,5.94 0 0 0 2.06,0 L 9.66,12 11.45,12.89 A 5.88,5.88 0 0 0 12.9,11.44 L 12,9.66 13.91,9 a 5.94,5.94 0 0 0 0,-2.06 L 12,6.34 12.89,4.55 A 4.94,4.94 0 0 0 12.23,3.76 4.94,4.94 0 0 0 11.44,3.1 L 9.66,4 9,2.09 A 5.8,5.8 0 0 0 8,2"
       id="path1-41"
       style="fill:#0039ff;fill-opacity:1" /></g><g
     transform="matrix(4.1866054e-4,0,0,-4.1866054e-4,-3.097776,2.1752747)"
     fill="#000000"
     stroke="none"
     id="g2"
     style="display:none;fill:#c0c0c0;fill-opacity:1"><path
       d="m 9575,5608 c -3,-10 -129,-480 -176,-660 -6,-22 -16,-38 -24,-38 -56,0 -359,-119 -495,-195 l -81,-44 -312,184 -312,185 -243,-243 -243,-243 186,-311 185,-312 -37,-63 c -58,-98 -127,-261 -173,-404 -41,-131 -41,-131 -78,-142 -20,-6 -129,-34 -242,-62 -113,-29 -252,-65 -310,-80 l -105,-27 -3,-344 -2,-344 347,-88 c 192,-49 349,-90 350,-91 2,-1 16,-48 33,-103 37,-125 116,-314 175,-417 l 44,-78 -184,-311 -185,-312 243,-243 243,-243 309,184 308,183 151,-76 c 140,-70 258,-116 397,-155 l 56,-16 62,-242 c 34,-133 75,-289 90,-347 l 28,-105 345,-3 345,-2 7,32 c 4,18 43,175 87,348 l 81,315 149,48 c 94,31 207,77 299,123 l 150,75 312,-181 312,-181 243,243 243,243 -181,312 -181,312 75,149 c 44,89 93,208 122,295 l 47,145 72,20 c 39,10 196,52 349,93 l 277,74 -2,344 -3,344 -345,92 c -208,56 -347,97 -351,106 -4,8 -26,72 -48,144 -24,76 -73,193 -116,281 l -76,152 181,313 181,313 -243,243 -243,242 -315,-183 -314,-183 -58,34 c -117,68 -346,163 -471,194 -27,6 -52,19 -55,28 -4,9 -47,167 -97,351 l -90,335 -343,3 c -269,2 -343,0 -347,-10 z"
       id="path2-07"
       style="fill:#c0c0c0;fill-opacity:1" /></g></svg>
