<?xml version="1.0" encoding="UTF-8" standalone="no"?>
<svg
   width="16"
   height="16"
   viewBox="0 0 16 16"
   fill="none"
   version="1.1"
   id="svg2"
   sodipodi:docname="_icon_base.svg"
   inkscape:version="1.3.2 (091e20e, 2023-11-25, custom)"
   xml:space="preserve"
   inkscape:export-filename="svg.svg"
   inkscape:export-xdpi="96"
   inkscape:export-ydpi="96"
   xmlns:inkscape="http://www.inkscape.org/namespaces/inkscape"
   xmlns:sodipodi="http://sodipodi.sourceforge.net/DTD/sodipodi-0.dtd"
   xmlns="http://www.w3.org/2000/svg"
   xmlns:svg="http://www.w3.org/2000/svg"><defs
     id="defs2" /><sodipodi:namedview
     id="namedview2"
     pagecolor="#131313"
     bordercolor="#ffffff"
     borderopacity="1"
     inkscape:showpageshadow="false"
     inkscape:pageopacity="0"
     inkscape:pagecheckerboard="1"
     inkscape:deskcolor="#868686"
     inkscape:zoom="32"
     inkscape:cx="2.625"
     inkscape:cy="6.078125"
     inkscape:window-width="1920"
     inkscape:window-height="1009"
     inkscape:window-x="-8"
     inkscape:window-y="-8"
     inkscape:window-maximized="1"
     inkscape:current-layer="g3"
     showgrid="false"
     showborder="false"
     labelstyle="default"
     showguides="true"
     inkscape:clip-to-page="false"
     shape-rendering="crispEdges"
     inkscape:export-bgcolor="#00000000"><inkscape:grid
       id="grid1"
       units="px"
       originx="7.0000001"
       originy="7.0000001"
       spacingx="1"
       spacingy="1"
       empcolor="#3f3fff"
       empopacity="0.5372549"
       color="#3f3fff"
       opacity="0.27843137"
       empspacing="1"
       dotted="false"
       gridanglex="30"
       gridanglez="30"
       visible="false" /></sodipodi:namedview><rect
     style="display:inline;opacity:0;fill:#131313;fill-opacity:1;stroke:none;stroke-width:2;stroke-linecap:round;stroke-linejoin:round;stroke-dasharray:none;stroke-dashoffset:0;stroke-opacity:1;paint-order:markers stroke fill"
     id="rect72"
     width="16"
     height="16"
     x="5.9999998e-08"
     y="5.9999998e-08"
     inkscape:export-filename="ahko.svg"
     inkscape:export-xdpi="96"
     inkscape:export-ydpi="96" /><g
     style="display:inline;fill:#40c057"
     id="g9"
     transform="matrix(0.44444444,0,0,0.44444444,-2.6666666,-2.6666666)"
     inkscape:label="AHK Filled"><path
       d="m 34.5,6 h -21 C 9.364,6 6,9.364 6,13.5 v 21 c 0,4.136 3.364,7.5 7.5,7.5 h 21 c 4.136,0 7.5,-3.364 7.5,-7.5 v -21 C 42,9.364 38.636,6 34.5,6 Z M 35,31 c 0,1.105 -0.895,2 -2,2 h -2 c -1.105,0 -2,-0.895 -2,-2 V 25.565 L 19,26.87 V 34 c 0,1.105 -0.895,2 -2,2 h -2 c -1.105,0 -2,-0.895 -2,-2 V 17 c 0,-1.105 0.895,-2 2,-2 h 2 c 1.105,0 2,0.895 2,2 v 4.87 L 29,20.566 V 14 c 0,-1.105 0.895,-2 2,-2 h 2 c 1.105,0 2,0.895 2,2 z"
       id="path1-4" /></g></svg>
