<?xml version="1.0" encoding="UTF-8"?><svg id="JS" xmlns="http://www.w3.org/2000/svg" xmlns:xlink="http://www.w3.org/1999/xlink" viewBox="0 0 16 16"><defs><style>.cls-1{clip-path:url(#clippath);}.cls-2{fill:none;}.cls-3{fill:#ff0;}</style><clipPath id="clippath"><polyline class="cls-2" points="0 16 4 16 4 13 3 13 3 3 13 3 12.93 7 16 7 16.07 0 0 0"/></clipPath></defs><g class="cls-1"><path class="cls-3" d="m14,2v12H2V2h12m0-1H2c-.55,0-1,.45-1,1v12c0,.55.45,1,1,1h12c.55,0,1-.45,1-1V2c0-.55-.45-1-1-1h0Z"/></g><g id="Text"><path class="cls-3" d="m7.13,15.09c-.4,0-.75-.08-1.05-.23-.3-.15-.53-.38-.69-.67-.17-.29-.25-.64-.25-1.06h1.09c0,.2.03.37.09.52.06.15.15.27.28.35s.3.12.5.12.37-.04.49-.12.21-.19.27-.33c.06-.14.09-.3.09-.49v-4.51h1.08v4.51c0,.61-.17,1.08-.51,1.41-.34.33-.8.49-1.38.49Z"/><path class="cls-3" d="m12.5,15.09c-.46,0-.86-.08-1.21-.24s-.63-.39-.83-.69-.3-.66-.31-1.07h1.14c0,.21.06.4.15.56.1.17.23.3.41.39.18.1.4.14.65.14.22,0,.4-.04.56-.1.16-.07.28-.17.36-.3s.13-.28.13-.46-.04-.33-.13-.45-.2-.24-.36-.33c-.15-.09-.33-.18-.53-.25-.2-.08-.42-.15-.66-.22-.53-.16-.93-.38-1.19-.65-.26-.27-.39-.62-.39-1.06,0-.37.09-.68.27-.94.18-.26.42-.47.74-.62s.68-.22,1.09-.22.79.08,1.1.23c.31.15.56.36.74.63.18.27.27.59.28.96h-1.15c0-.16-.04-.3-.12-.44-.08-.13-.19-.25-.34-.33-.15-.09-.33-.13-.54-.13-.18,0-.34.02-.48.09-.14.06-.25.15-.34.27s-.13.26-.13.44.04.31.12.42c.08.11.19.2.33.28.14.07.31.15.5.21s.4.14.63.22c.31.1.6.23.85.37.25.15.46.34.61.57s.23.54.23.91c0,.32-.08.62-.25.9-.17.28-.41.5-.74.67-.32.17-.73.26-1.21.26Z"/></g></svg>