<?xml version="1.0" encoding="UTF-8"?><svg id="Done" xmlns="http://www.w3.org/2000/svg" xmlns:xlink="http://www.w3.org/1999/xlink" viewBox="0 0 14 14"><defs><style>.cls-1{stroke:#000;stroke-linejoin:round;stroke-width:2px;}.cls-1,.cls-2,.cls-3,.cls-4,.cls-5,.cls-6{fill-rule:evenodd;}.cls-2{fill:#c6c6c6;}.cls-3{fill:#8e3d00;}.cls-7{opacity:.3;}.cls-7,.cls-8{isolation:isolate;}.cls-9{fill:#40a0ff;}.cls-4,.cls-10{fill:#fc0;}.cls-5{fill:#fd741a;}.cls-11{fill:url(#linear-gradient);}.cls-6{fill:#502d16;}.cls-8{fill:url(#radial-gradient);opacity:.711;}</style><radialGradient id="radial-gradient" cx="109.0472" cy="-97.826" fx="109.0472" fy="-97.826" r="1.5875" gradientTransform="translate(-247.3619 -431.6064) rotate(33.6901) scale(4.1287 -2.2712)" gradientUnits="userSpaceOnUse"><stop offset="0" stop-color="#000"/><stop offset="1" stop-color="#000" stop-opacity="0"/></radialGradient><linearGradient id="linear-gradient" x1="62.3777" y1="-110.2096" x2="62.9069" y2="-110.2096" gradientTransform="translate(-230.7584 -408.0408) scale(3.7795 -3.7795)" gradientUnits="userSpaceOnUse"><stop offset="0" stop-color="#000"/><stop offset="1" stop-color="#000" stop-opacity="0"/></linearGradient></defs><g id="Layer_20"><path id="folder" class="cls-9" d="m0-.0005v12l4.1131,1.9355c.3105.1468.681.0135.8275-.2976.0393-.0834.0596-.1746.0594-.2668v-2.3711h6V.9995c-.004-.745-.4086-.9893-1-1H0Z"/><path id="folder_shadow" class="cls-7" d="m-.0179-.0005l4.0855,1.5882c.5621.2185.9324.7597.9324,1.3628v8.049h6V.9995c-.004-.745-.4093-.9893-1.0016-1H-.0179Z"/><path id="flap_shadow" class="cls-8" d="m10,10.9995c.7057-.0798,1.0812-.3798,1-.9844v-5.0156c.6647-.0018.998-.3352,1-1V.9995c.0053-.6399-.3093-.9903-1-1H0v11h10Z"/><g id="g408"><path id="path402" class="cls-1" d="m7,4s-1,0-1,1v1h-2c-1,0-1,.7891-1,.7891v5.2109s0,1,1,1h8s1,0,1-1v-1s0-3,0-3h0v-1c0-.5523-.4477-1-1-1h-2v-1c0-1-1-1-1-1h-2Zm0,1h2v1h-2v-1Z"/><path id="path403" class="cls-5" d="m4,6c-1,0-1,.7892-1,.7892v1.1483s0,3.0625,0,3.0625v1s0,1,1,1h8s1,0,1-1v-4h0v-1c0-1-1-1-1-1H4Z"/><path id="path404" class="cls-3" d="m3.0116,8.0046l1.9954,1.9954,5.9335.0526,2.0479-2.0479s-.9977,3.9907-3.0625,3.9954h-3.9907c-1.9259-.0046-2.9236-3.9954-2.9236-3.9954Z"/><path id="path405" class="cls-6" d="m5,10h6l-1,1h-4l-1-1Z"/><path id="path406" class="cls-4" d="m9,9v2l-1.0156,1-.9844-1v-2h2Z"/><path id="path407" class="cls-2" d="m6,5c0-1,1-1,1-1h2s1,0,1,1v1h-1v-1h-2v1h-1v-1Z"/><rect id="rect407" class="cls-10" x="6" y="6" width="1" height="1"/><rect id="rect408" class="cls-10" x="9" y="6" width="1" height="1"/></g><path id="icon_shadow" class="cls-11" d="m5,4.9995l1-1h1v9h-2v-8Z"/><path id="Flap" class="cls-9" d="m5,2.9511c.0005-.6031-.3694-1.1446-.9315-1.3632L0,.0056v11.994l4.1131,1.9355c.3105.1468.681.0135.8275-.2976.033-.0701.0446-.1472.0499-.2242l.0095-10.4621Z"/></g></svg>