<?xml version="1.0" encoding="UTF-8"?><svg id="Done" xmlns="http://www.w3.org/2000/svg" xmlns:xlink="http://www.w3.org/1999/xlink" viewBox="0 0 14 14"><defs><style>.cls-1{fill:#00c6fd;}.cls-2{fill:url(#linear-gradient);isolation:isolate;opacity:.723;}.cls-3{fill:#ffe319;}.cls-4{fill:#ff13c0;}.cls-5{stroke:#000;stroke-miterlimit:1.8391;stroke-width:2px;}</style><linearGradient id="linear-gradient" x1="424.8608" y1="-971.0094" x2="424.8608" y2="-967.0094" gradientTransform="translate(-209.4304 -483.5047) scale(.5 -.5)" gradientUnits="userSpaceOnUse"><stop offset="0" stop-color="#000"/><stop offset="1" stop-color="#000" stop-opacity=".151"/></linearGradient></defs><g id="Layer_22"><path id="folder" class="cls-4" d="m1,0C.5286,0,0,.5286,0,1v7c0,.4714.5286,1,1,1h10c.4714,0,1-.5286,1-1V2c0-.4714-.5286-1-1-1h-5c0-.4714-.5286-1-1-1H1Z"/><path id="tab" class="cls-2" d="m1,0C.5286,0,0,.5286,0,1s.5286,1,1,1h4c.4714,0,1-.5286,1-1S5.4714,0,5,0H1Z"/><g id="g231"><path id="path225" class="cls-5" d="m7,5h-1v1h2v1h-3l-1,1v2l1,1h1v1l1,1h3v-1h1v-1h-2v-1h3l1-1v-2l-1-1h-1v-1l-1-1h-3v1Z"/><path id="path226" class="cls-1" d="m7,4v1h-1v1h2v1h-3l-1,1v2l1,1h1l2-1h1v-1h2v-4l-1-1h-3Z"/><path id="path227" class="cls-3" d="m10,8l-1,1h-1l-1,1-1,1v1l1,1h3v-1h1v-1h-2v-1h3l1-1v-2l-1-1h-1v1l-1,1Z"/><polygon points="11 5 10 6 10 7 9 8 8.0696 8 7.0696 9 7 9 6 10 6 11 6 12 7 11 7 10 8 9 9.0696 9 10.0696 8 10 8 11 7.136 11 5"/></g></g></svg>