<?xml version="1.0" encoding="UTF-8"?><svg id="Done" xmlns="http://www.w3.org/2000/svg" xmlns:xlink="http://www.w3.org/1999/xlink" viewBox="0 0 14 14"><defs><style>.cls-1{fill:aqua;}.cls-2{fill:url(#linear-gradient);isolation:isolate;opacity:.723;}.cls-3{fill:#ff0;}</style><linearGradient id="linear-gradient" x1="450.8608" y1="-893.0094" x2="450.8608" y2="-889.0094" gradientTransform="translate(-222.4304 -444.5047) scale(.5 -.5)" gradientUnits="userSpaceOnUse"><stop offset="0" stop-color="#000"/><stop offset="1" stop-color="#000" stop-opacity=".151"/></linearGradient></defs><g id="Layer_39_copy_6"><path id="folder" class="cls-1" d="m1,0C.5286,0,0,.5286,0,1v7c0,.4714.5286,1,1,1h10c.4714,0,1-.5286,1-1V2c0-.4714-.5286-1-1-1h-5C6,.5286,5.4714,0,5,0H1Z"/><path id="Tab" class="cls-2" d="m1,0C.5286,0,0,.5286,0,1s.5286,1,1,1h4c.4714,0,1-.5286,1-1S5.4714,0,5,0H1Z"/><path d="m13.6118,9.0825c-.1079-.2314-.2402-.4434-.3975-.6353l.5684-.0303-.0322-.979c-.0327-.9966-.3525-1.7949-.9507-2.373-.5977-.5776-1.4023-.8706-2.3916-.8706-.6392,0-1.2012.1216-1.6689.3604-.3266.1661-.5919.4044-.8276.6744v-.9063h-3.2412v4.9458l-2.7104.3784.0034.874c.0044,1.0527.252,1.8843.7354,2.4707.5249.6377,1.2725.9751,2.1621.9751.644,0,1.209-.1567,1.6821-.4678.4077-.2694.7097-.654.9385-1.1084.7628,1.3281,2.0873,1.5762,2.957,1.5762,1.146,0,2.0298-.335,2.626-.9951.5708-.6313.8604-1.4106.8604-2.3164,0-.5977-.1055-1.1274-.313-1.5728Z"/><g id="Text"><path class="cls-3" d="m5.6704,5.3228h1.2412v4.7578c0,.769-.0771,1.3413-.231,1.7173s-.3838.665-.6895.8672c-.3062.2012-.6831.3018-1.1304.3018-.5918,0-1.0547-.2031-1.3896-.6104-.335-.4062-.5044-1.0195-.5078-1.8398l1.1743-.1641c.0137.4404.0703.7539.1699.9375.1333.2539.334.3799.6016.3799.2607,0,.4526-.0918.5762-.2744s.1851-.5879.1851-1.2178v-4.855Z"/><path class="cls-3" d="m7.916,10.3877l1.2153-.1426c.1367.96.5845,1.4404,1.3433,1.4404.376,0,.6719-.0986.8867-.2949.2158-.1963.3232-.4395.3232-.7305,0-.1709-.0376-.3154-.1128-.4355-.0752-.1191-.1899-.2178-.3433-.2944-.1543-.0771-.5269-.2056-1.1182-.3867-.5298-.1602-.9175-.3345-1.1636-.522-.2461-.188-.4419-.4346-.5869-.7402-.1455-.3057-.2183-.6348-.2183-.9863,0-.4097.0933-.7788.2798-1.1064.186-.3276.4434-.5757.7715-.7427.3281-.1675.7329-.2515,1.2153-.2515.7241,0,1.29.1968,1.6968.5898s.6221.9556.646,1.6865l-1.2461.0669c-.0547-.4033-.1724-.6851-.3535-.8462-.1812-.1602-.4395-.2407-.7744-.2407s-.5928.0698-.7739.2095-.272.3135-.272.5215c0,.2046.0825.3765.2471.5161.1641.1396.542.2935,1.1333.4609.6255.1812,1.0771.3721,1.3555.5718.2783.2002.4912.458.6382.7739.1475.3164.2197.6997.2197,1.1509,0,.6523-.2002,1.2012-.6021,1.6455-.4014.4443-1.0298.666-1.8843.666-1.5107,0-2.3516-.8594-2.5225-2.5791Z"/></g></g></svg>