<?xml version="1.0" encoding="UTF-8"?><svg id="Done" xmlns="http://www.w3.org/2000/svg" xmlns:xlink="http://www.w3.org/1999/xlink" viewBox="0 0 14 14"><defs><style>.cls-1{fill:#fff;}.cls-1,.cls-2{fill-rule:evenodd;}.cls-3{fill:url(#linear-gradient);isolation:isolate;opacity:.723;}.cls-4{fill:#ff2020;}.cls-2{stroke:#000;stroke-linejoin:round;stroke-width:2px;}</style><linearGradient id="linear-gradient" x1="762.8608" y1="-737.0094" x2="762.8608" y2="-733.0094" gradientTransform="translate(-378.4304 -366.5047) scale(.5 -.5)" gradientUnits="userSpaceOnUse"><stop offset="0" stop-color="#000"/><stop offset="1" stop-color="#000" stop-opacity=".151"/></linearGradient></defs><g id="Layer_31"><path id="folder" class="cls-4" d="m1,0C.5286,0,0,.5286,0,1v7c0,.4714.5286,1,1,1h10c.4714,0,1-.5286,1-1V2c0-.4714-.5286-1-1-1h-5c0-.4714-.5286-1-1-1H1Z"/><path id="tab" class="cls-3" d="m1,0C.5286,0,0,.5286,0,1s.5286,1,1,1h4c.4714,0,1-.5286,1-1S5.4714,0,5,0H1Z"/><g id="g289"><polygon class="cls-2" points="11 7 10 6 9.5791 5.5791 9 5 9 5 7 5 7 5 6.4209 5.5791 6 6 5 7 3 9 4 10 5 11 6 12 7 13 7 13 9 13 9 13 10 12 11 11 12 10 13 9 11 7"/><path id="path285" class="cls-1" d="m9,12v-1l2-2-2-2v-2l.5791.5791.4209.4209,1,1,2,2-1,1-1,1-1,1-1,1v-1Z"/><path id="path289" class="cls-1" d="m7,12v-1l-2-2,2-2v-2l-.5791.5791-.4209.4209-1,1-2,2,1,1,1,1,1,1,1,1v-1Z"/></g></g></svg>