<?xml version="1.0" encoding="UTF-8"?><svg id="Done" xmlns="http://www.w3.org/2000/svg" xmlns:xlink="http://www.w3.org/1999/xlink" viewBox="0 0 14 14"><defs><style>.cls-1{fill:#a040ff;}.cls-2{fill:#00ff06;}.cls-3{fill:url(#linear-gradient);isolation:isolate;opacity:.723;}.cls-4{fill:#ccc;}.cls-5{fill:#586977;}</style><linearGradient id="linear-gradient" x1="424.8608" y1="-893.0094" x2="424.8608" y2="-889.0094" gradientTransform="translate(-209.4304 -444.5047) scale(.5 -.5)" gradientUnits="userSpaceOnUse"><stop offset="0" stop-color="#000"/><stop offset="1" stop-color="#000" stop-opacity=".151"/></linearGradient></defs><g id="Layer_39_copy_5"><path id="Folder_Back" class="cls-1" d="m1,0C.5286,0,0,.5286,0,1v7c0,.4714.5286,1,1,1h10c.4714,0,1-.5286,1-1V2c0-.4714-.5286-1-1-1h-5C6,.5286,5.4714,0,5,0H1Z"/><path id="Tab" class="cls-3" d="m1,0C.5286,0,0,.5286,0,1s.5286,1,1,1h4c.4714,0,1-.5286,1-1S5.4714,0,5,0H1Z"/><g id="_01"><polygon points="12 3.041 12 3 11 3 10 3 9 3 8 3 7 3 6 3 5 3 5 3.041 3 5 3 6 3 7 3 8 3 9 3 10 3 11 3 12 5 14 6 14 7 14 8 14 9 14 10 14 11 14 12 14 14 12 14 11 14 10 14 9 14 8 14 7 14 6 14 5 12 3.041"/><path class="cls-4" d="m13,7v-1h-1s0-1-1-1v-1h-1v1h-1v-1h-1v1h-1v-1h-1v1c-1,0-1,1-1,1h-1v1h1v1h-1v1h1v1h-1v1h1c0,1,1,1,1,1v1h1v-1h1v1h1v-1h1v1h1v-1c1,0,1-1,1-1h1v-1h-1v-1h1v-1h-1v-1h1Z"/><path class="cls-5" d="m6,5h5c1,0,1,1,1,1v5s0,1-1,1h-5s-1,0-1-1v-5s0-1,1-1Z"/><rect class="cls-2" x="7" y="7" width="3" height="3"/></g></g></svg>