<?xml version="1.0" encoding="UTF-8"?><svg id="Layer_24_copy_5" xmlns="http://www.w3.org/2000/svg" xmlns:xlink="http://www.w3.org/1999/xlink" viewBox="0 0 14 14"><defs><style>.cls-1{fill:#fff;}.cls-2{fill:url(#linear-gradient);isolation:isolate;opacity:.723;}.cls-3{fill:#ff2020;}</style><linearGradient id="linear-gradient" x1="866.8598" y1="-1049.0094" x2="866.8598" y2="-1045.0094" gradientTransform="translate(-430.4304 -522.5047) scale(.5 -.5)" gradientUnits="userSpaceOnUse"><stop offset="0" stop-color="#000"/><stop offset="1" stop-color="#000" stop-opacity=".151"/></linearGradient></defs><path id="folder" class="cls-3" d="m.9995,0C.5281,0-.0005.5286-.0005,1v7c0,.4714.5286,1,1,1h10c.4714,0,1-.5286,1-1V2c0-.4714-.5286-1-1-1h-5C5.9995.5286,5.4709,0,4.9995,0H.9995Z"/><path id="tab" class="cls-2" d="m.9995,0C.5281,0-.0005.5286-.0005,1s.5286,1,1,1h4c.4714,0,1-.5286,1-1S5.4709,0,4.9995,0H.9995Z"/><g id="Layer_75_copy_2"><path d="m10,14h-3c-1,0-1-1-1-1h-3v-3h3v-1h-2V3h9v6h-2v1h3v3h-3s0,1-1,1Z"/><path class="cls-1" d="m10,11v-.0158c0-.5436-.4406-.9842-.9842-.9842h-.0158v-2h2.9968s.0004-.0002.0004-.0004l.0115-3.9985s-.0003-.0007-.0007-.0007l-7.0079-.0089v4.0082s.0002.0004.0004.0004h2.9996v2h-.0158c-.5435,0-.9842.4406-.9842.9842v.0158h-3v1h3v.0158c0,.5435.4407.9842.9842.9842h1.0316c.5436,0,.9842-.4407.9842-.9842v-.0158h3v-1h-3Zm-4-4v-2h5v2h-5Zm3,5h-1v-1h1v1Z"/></g></svg>