<?xml version="1.0" encoding="UTF-8"?><svg id="Done" xmlns="http://www.w3.org/2000/svg" xmlns:xlink="http://www.w3.org/1999/xlink" viewBox="0 0 14 14"><defs><style>.cls-1{fill:#a040ff;}.cls-2{fill:url(#linear-gradient);isolation:isolate;opacity:.723;}.cls-3{fill:#ffe68f;}.cls-3,.cls-4{fill-rule:evenodd;}</style><linearGradient id="linear-gradient" x1="528.8608" y1="-971.0094" x2="528.8608" y2="-967.0094" gradientTransform="translate(-261.4304 -483.5047) scale(.5 -.5)" gradientUnits="userSpaceOnUse"><stop offset="0" stop-color="#000"/><stop offset="1" stop-color="#000" stop-opacity=".151"/></linearGradient></defs><g id="Layer_17"><path id="folder" class="cls-1" d="m1,0C.5286,0,0,.5286,0,1v7c0,.4714.5286,1,1,1h10c.4714,0,1-.5286,1-1V2c0-.4714-.5286-1-1-1h-5c0-.4714-.5286-1-1-1H1Z"/><path id="tab" class="cls-2" d="m1,0C.5286,0,0,.5286,0,1s.5286,1,1,1h4c.4714,0,1-.5286,1-1S5.4714,0,5,0H1Z"/><g id="g30"><path id="rect30" class="cls-4" d="m4,3h10v11H4V3Z"/><path id="note-text" class="cls-3" d="m5,4v9h8V4H5Zm1,1h6v1h-6v-1Zm0,2h5v1h-5v-1Zm2,4h4v1h-4v-1Z"/></g></g></svg>