<?xml version="1.0" encoding="UTF-8"?><svg id="Layer_24_copy_4" xmlns="http://www.w3.org/2000/svg" xmlns:xlink="http://www.w3.org/1999/xlink" viewBox="0 0 14 14"><defs><style>.cls-1{fill:#fff;}.cls-2{fill:url(#linear-gradient);isolation:isolate;opacity:.723;}.cls-3{fill:#ff2020;}</style><linearGradient id="linear-gradient" x1="840.8598" y1="-1049.0094" x2="840.8598" y2="-1045.0094" gradientTransform="translate(-417.4304 -522.5047) scale(.5 -.5)" gradientUnits="userSpaceOnUse"><stop offset="0" stop-color="#000"/><stop offset="1" stop-color="#000" stop-opacity=".151"/></linearGradient></defs><path id="folder" class="cls-3" d="m.9995,0C.5281,0-.0005.5286-.0005,1v7c0,.4714.5286,1,1,1h10c.4714,0,1-.5286,1-1V2c0-.4714-.5286-1-1-1h-5C5.9995.5286,5.4709,0,4.9995,0H.9995Z"/><path id="tab" class="cls-2" d="m.9995,0C.5281,0-.0005.5286-.0005,1s.5286,1,1,1h4c.4714,0,1-.5286,1-1S5.4709,0,4.9995,0H.9995Z"/><g id="Layer_69_copy_2"><path d="m8.5088,14.0166c-2.5283,0-4.5088-1.3252-4.5088-3.0166v-6c0-1.626,2.0649-3,4.5088-3,2.4766,0,4.4912,1.3457,4.4912,3v6c0,1.6914-1.9727,3.0166-4.4912,3.0166Z"/><path class="cls-1" d="m4.9995,7.0077v.9923c0,1.0598,1.4961,2,3.4286,2s3.5718-.9402,3.5718-2v-1c-.6857.6857-2.0757,1.1298-3.5718,1.1298s-2.7429-.4364-3.4286-1.1221Z"/><path class="cls-1" d="m5,10v1c0,1.0598,1.5762,2.0163,3.5087,2.0163s3.4913-.9565,3.4913-2.0163v-1c-.6857.6857-1.9951,1.2717-3.4913,1.2717s-2.823-.586-3.5087-1.2717Z"/><path class="cls-1" d="m8.5087,3c1.8936,0,3.4913.9671,3.4913,2s-1.5977,1.9332-3.4913,1.9332-3.5087-.9003-3.5087-1.9332,1.6152-2,3.5087-2Z"/></g></svg>