<?xml version="1.0" encoding="UTF-8"?><svg id="Done" xmlns="http://www.w3.org/2000/svg" xmlns:xlink="http://www.w3.org/1999/xlink" viewBox="0 0 14 14"><defs><style>.cls-1{fill:#ff6700;}.cls-2{fill:url(#linear-gradient);isolation:isolate;opacity:.723;}.cls-3{fill:#00b8ff;}</style><linearGradient id="linear-gradient" x1="606.8608" y1="-737.0094" x2="606.8608" y2="-733.0094" gradientTransform="translate(-300.4304 -366.5047) scale(.5 -.5)" gradientUnits="userSpaceOnUse"><stop offset="0" stop-color="#000"/><stop offset="1" stop-color="#000" stop-opacity=".151"/></linearGradient></defs><g id="Layer_39_copy"><path id="Folder_Back" class="cls-1" d="m1,0C.5286,0,0,.5286,0,1v7c0,.4714.5286,1,1,1h10c.4714,0,1-.5286,1-1V2c0-.4714-.5286-1-1-1h-5c0-.4714-.5286-1-1-1H1Z"/><path id="Tab" class="cls-2" d="m1,0C.5286,0,0,.5286,0,1s.5286,1,1,1h4c.4714,0,1-.5286,1-1S5.4714,0,5,0H1Z"/><g id="icon"><path id="shadow" d="m8,2.962h1l4.2491,1.7874c.455.1914.7509.6369.7509,1.1305v5.2783c0,.5004-.3041.9507-.7683,1.1376l-4.2317,1.7042h-1l-4.2412-1.7495c-.4592-.1894-.7588-.6371-.7588-1.1338v-5.2369c0-.4936.2959-.9391.7509-1.1305l4.2491-1.7874Z"/><polygon class="cls-3" points="8 4 4 6 8 8 9 8 13 6 9 4 8 4"/><polygon class="cls-3" points="9 13 12.9273 11.118 12.998 7.116 9 9 9 13"/><polygon class="cls-3" points="4 11 8 13 8 9 4 7 4 11"/></g></g></svg>