<?xml version="1.0" encoding="UTF-8"?><svg id="Done" xmlns="http://www.w3.org/2000/svg" xmlns:xlink="http://www.w3.org/1999/xlink" viewBox="0 0 14 14"><defs><style>.cls-1{fill:#06b7ff;}.cls-2{fill:#ff6700;}.cls-3{fill:url(#linear-gradient);isolation:isolate;opacity:.723;}</style><linearGradient id="linear-gradient" x1="476.8608" y1="-893.0094" x2="476.8608" y2="-889.0094" gradientTransform="translate(-235.4304 -444.5047) scale(.5 -.5)" gradientUnits="userSpaceOnUse"><stop offset="0" stop-color="#000"/><stop offset="1" stop-color="#000" stop-opacity=".151"/></linearGradient></defs><g id="Layer_39_copy_2"><path id="folder" class="cls-2" d="m1,0C.5286,0,0,.5286,0,1v7c0,.4714.5286,1,1,1h10c.4714,0,1-.5286,1-1V2c0-.4714-.5286-1-1-1h-5C6,.5286,5.4714,0,5,0H1Z"/><path id="Tab" class="cls-3" d="m1,0C.5286,0,0,.5286,0,1s.5286,1,1,1h4c.4714,0,1-.5286,1-1S5.4714,0,5,0H1Z"/><path d="m13.6118,9.0825c-.1079-.2314-.2402-.4434-.3975-.6353l.5684-.0303-.0322-.979c-.0327-.9966-.3525-1.7949-.9507-2.373-.5977-.5776-1.4023-.8706-2.3916-.8706-.6392,0-1.2012.1216-1.6689.3604-.1173.0597-.209.1495-.3149.2229v-.4548H1.5278v3.2715h1.8301v6.2446h3.2412v-4.8389h1.0427c.0798.1301.1492.2702.2454.3843l-1.0635.1245.0972.978c.3008,3.0278,2.333,3.48,3.5176,3.48,1.146,0,2.0298-.335,2.626-.9951.5708-.6313.8604-1.4106.8604-2.3164,0-.5977-.1055-1.1274-.313-1.5728Z"/><g id="Text"><path class="cls-1" d="m4.3579,12.8389v-6.2446h-1.8301v-1.2715h4.8965v1.2715h-1.8252v6.2446h-1.2412Z"/><path class="cls-1" d="m7.916,10.3877l1.2153-.1426c.1367.96.5845,1.4404,1.3433,1.4404.376,0,.6719-.0986.8867-.2949.2158-.1963.3232-.4395.3232-.7305,0-.1709-.0376-.3154-.1128-.4355-.0752-.1191-.1899-.2178-.3433-.2944-.1543-.0771-.5269-.2056-1.1182-.3867-.5298-.1602-.9175-.3345-1.1636-.522-.2461-.188-.4419-.4346-.5869-.7402-.1455-.3057-.2183-.6348-.2183-.9863,0-.4097.0933-.7788.2798-1.1064.186-.3276.4434-.5757.7715-.7427.3281-.1675.7329-.2515,1.2153-.2515.7241,0,1.29.1968,1.6968.5898s.6221.9556.646,1.6865l-1.2461.0669c-.0547-.4033-.1724-.6851-.3535-.8462-.1812-.1602-.4395-.2407-.7744-.2407s-.5928.0698-.7739.2095-.272.3135-.272.5215c0,.2046.0825.3765.2471.5161.1641.1396.542.2935,1.1333.4609.6255.1812,1.0771.3721,1.3555.5718.2783.2002.4912.458.6382.7739.1475.3164.2197.6997.2197,1.1509,0,.6523-.2002,1.2012-.6021,1.6455-.4014.4443-1.0298.666-1.8843.666-1.5107,0-2.3516-.8594-2.5225-2.5791Z"/></g></g></svg>