<?xml version="1.0" encoding="UTF-8"?><svg id="Layer_23_copy_10" xmlns="http://www.w3.org/2000/svg" xmlns:xlink="http://www.w3.org/1999/xlink" viewBox="0 0 14 14"><defs><style>.cls-1{fill:aqua;}.cls-2,.cls-3{fill:#f50637;stroke-linejoin:round;}.cls-2,.cls-3,.cls-4{stroke-linecap:round;}.cls-2,.cls-4{stroke:#ff0135;}.cls-5{opacity:.3;}.cls-5,.cls-6{isolation:isolate;}.cls-3{stroke:#f50637;}.cls-4{stroke-miterlimit:10;}.cls-7{fill:url(#linear-gradient);}.cls-6{fill:url(#radial-gradient);opacity:.711;}</style><radialGradient id="radial-gradient" cx="69.6701" cy="-151.0241" fx="69.6701" fy="-151.0241" r="1.5875" gradientTransform="translate(-45.0697 -441.9626) rotate(33.6901) scale(4.1287 -2.2712)" gradientUnits="userSpaceOnUse"><stop offset="0" stop-color="#000"/><stop offset="1" stop-color="#000" stop-opacity="0"/></radialGradient><linearGradient id="linear-gradient" x1="34.0486" y1="-227.8358" x2="34.5777" y2="-227.8358" gradientTransform="translate(-123.6875 -853.1116) scale(3.7795 -3.7795)" gradientUnits="userSpaceOnUse"><stop offset="0" stop-color="#000"/><stop offset="1" stop-color="#000" stop-opacity="0"/></linearGradient></defs><path id="folder" class="cls-1" d="m0-.0056v12l4.1131,1.9355c.3105.1468.681.0135.8275-.2976.0393-.0834.0596-.1746.0594-.2668v-2.3711h6V.9944c-.004-.745-.4086-.9893-1-1H0Z"/><path id="folder_shadow" class="cls-5" d="m-.0179-.0056l4.0848,1.5879c.5625.2187.9331.7603.9331,1.3638v8.0482h6V.9944c-.004-.745-.4093-.9893-1.0016-1H-.0179Z"/><path id="flap_shadow" class="cls-6" d="m10,10.9944c.7057-.0798,1.0812-.3798,1-.9844v-5.0156c.6647-.0018.998-.3352,1-1V.9944c.0053-.6399-.3093-.9903-1-1H0v11h10Z"/><g id="Layer_89_copy_3"><path d="m4.6162,14l-.5694-7.8036c-.0012-.0168-.0117-.0324-.0261-.0412-.8731-.5372-1.0208-1.241-1.0208-1.6552,0-2.0664,2.9907-2.5,5.5-2.5.5264,0,1.0493.0244,1.5449.0723l.1836-.3945,1.7959-.6006c.104-.0488.2959-.0889.4912-.0889.6899,0,1.2998.5068,1.4497,1.2051.0991.4609-.0215.9111-.3091,1.2539.2832.3906.3462.7842.3438,1.0654-.0039.4115-.1568,1.1113-1.0265,1.6442-.0098.006-.0164.0098-.0172.0213-.0231.3305-.5466,7.8218-.5466,7.8218h-7.7935Z"/><path class="cls-3" d="m8.5,5.5h-3l.5109,7h5l.4891-7h-3Z"/><ellipse class="cls-4" cx="8.5" cy="4.5" rx="4" ry="1"/><polyline class="cls-2" points="10.0131 5.7065 11.3167 2.8953 12.5 2.5"/></g><path id="icon_shadow" class="cls-7" d="m5,3h2v10h-2V3Z"/><path id="flap" class="cls-1" d="m5,2.9456c.0005-.6031-.3694-1.1446-.9315-1.3632L0,0v11.994l4.1131,1.9355c.3105.1468.681.0135.8275-.2976.033-.0701.0446-.1472.0499-.2242l.0095-10.4621Z"/></svg>