<?xml version="1.0" encoding="UTF-8"?><svg id="Done" xmlns="http://www.w3.org/2000/svg" viewBox="0 0 14 14"><defs><style>.cls-1{stroke:#000;stroke-miterlimit:15.1181;stroke-width:2px;}.cls-1,.cls-2{fill:red;}</style></defs><g id="Layer_4"><path id="circle161" class="cls-1" d="m7,1C3.6863,1,1,3.6863,1,7h0c0,3.3137,2.6863,6,6,6h0c3.3137,0,6-2.6863,6-6h0c0-3.3137-2.6863-6-6-6h0Zm0,2c2.2091,0,4,1.7909,4,4s-1.7909,4-4,4-4-1.7909-4-4h0c0-2.2091,1.7909-4,4-4h0Z"/><path id="path163" class="cls-2" d="m7,1C3.6863,1,1,3.6863,1,7h0c0,3.3137,2.6863,6,6,6h0c3.3137,0,6-2.6863,6-6h0c0-3.3137-2.6863-6-6-6h0Zm0,2c2.2091,0,4,1.7909,4,4s-1.7909,4-4,4-4-1.7909-4-4h0c0-2.2091,1.7909-4,4-4h0Z"/></g></svg>