<?xml version="1.0" encoding="UTF-8"?><svg id="Done" xmlns="http://www.w3.org/2000/svg" xmlns:xlink="http://www.w3.org/1999/xlink" viewBox="0 0 14 14"><defs><style>.cls-1{fill:aqua;}.cls-2{opacity:.3;}.cls-2,.cls-3{isolation:isolate;}.cls-4{fill:url(#linear-gradient);}.cls-3{fill:url(#radial-gradient);opacity:.711;}.cls-5{fill:#ff0;}</style><radialGradient id="radial-gradient" cx="199.0746" cy="-220.2762" fx="199.0746" fy="-220.2762" r="1.5875" gradientTransform="translate(-402.363 -869.187) rotate(33.6901) scale(4.1287 -2.2712)" gradientUnits="userSpaceOnUse"><stop offset="0" stop-color="#000"/><stop offset="1" stop-color="#000" stop-opacity="0"/></radialGradient><linearGradient id="linear-gradient" x1="138.5965" y1="-202.1541" x2="139.3902" y2="-202.1541" gradientTransform="translate(-519.8292 -754.8439) scale(3.7795 -3.7795)" gradientUnits="userSpaceOnUse"><stop offset="0" stop-color="#000"/><stop offset="1" stop-color="#000" stop-opacity="0"/></linearGradient></defs><g id="Layer_40_copy_6"><path id="folder" class="cls-1" d="m0,0v12l4.1131,1.9355c.3105.1468.681.0135.8275-.2976.0393-.0834.0596-.1746.0594-.2668v-2.3711h6V1c-.004-.745-.4086-.9893-1-1H0Z"/><path id="back_shadow" class="cls-2" d="m-.0179,0l4.0848,1.5879c.5625.2187.9331.7603.9331,1.3638v8.0482h6V1c-.004-.745-.4093-.9893-1.0016-1H-.0179Z"/><path id="flap_shadow" class="cls-3" d="m10,11c.7057-.0798,1.0812-.3798,1-.9844v-5.0156c.6647-.0018.998-.3352,1-1V1c.0053-.6399-.3093-.9903-1-1H0v11h10Z"/><path d="m13.6118,9.0825c-.1079-.2314-.2402-.4434-.3975-.6353l.5684-.0303-.0322-.979c-.0327-.9966-.3525-1.7949-.9507-2.373-.5977-.5776-1.4023-.8706-2.3916-.8706-.6392,0-1.2012.1216-1.6689.3604-.3266.1661-.5919.4044-.8276.6744v-.9063h-3.2412v4.9458l-2.7104.3784.0034.874c.0044,1.0527.252,1.8843.7354,2.4707.5249.6377,1.2725.9751,2.1621.9751.644,0,1.209-.1567,1.6821-.4678.4077-.2694.7097-.654.9385-1.1084.7628,1.3281,2.0873,1.5762,2.957,1.5762,1.146,0,2.0298-.335,2.626-.9951.5708-.6313.8604-1.4106.8604-2.3164,0-.5977-.1055-1.1274-.313-1.5728Z"/><g id="Text"><path class="cls-5" d="m5.6704,5.3232h1.2412v4.7578c0,.7686-.0771,1.3408-.231,1.7168s-.3838.665-.6895.8672c-.3062.2012-.6831.3018-1.1304.3018-.5918,0-1.0547-.2031-1.3896-.6104-.335-.4062-.5044-1.0195-.5078-1.8398l1.1743-.1641c.0137.4404.0703.7539.1699.9375.1333.2539.334.3799.6016.3799.2607,0,.4526-.0918.5762-.2744s.1851-.5879.1851-1.2178v-4.8545Z"/><path class="cls-5" d="m7.916,10.3877l1.2153-.1426c.1367.96.5845,1.4404,1.3433,1.4404.376,0,.6719-.0986.8867-.2949.2158-.1963.3232-.4395.3232-.7305,0-.1709-.0376-.3154-.1128-.4355-.0752-.1191-.1899-.2178-.3433-.2939-.1543-.0771-.5269-.2061-1.1182-.3867-.5298-.1602-.9175-.335-1.1636-.5225s-.4419-.4346-.5869-.7402c-.1455-.3057-.2183-.6348-.2183-.9863,0-.4092.0933-.7783.2798-1.1064.186-.3271.4434-.5752.7715-.7422.3281-.168.7329-.252,1.2153-.252.7241,0,1.29.1973,1.6968.5898.4067.3936.6221.9561.646,1.6865l-1.2461.0674c-.0547-.4033-.1724-.6855-.3535-.8467-.1812-.1602-.4395-.2402-.7744-.2402s-.5928.0693-.7739.209-.272.3135-.272.5215c0,.2051.0825.377.2471.5166.1641.1396.542.293,1.1333.4609.6255.1807,1.0771.3721,1.3555.5713.2783.2002.4912.458.6382.7744.1475.3164.2197.6992.2197,1.1504,0,.6523-.2002,1.2012-.6021,1.6455-.4014.4443-1.0298.666-1.8843.666-1.5107,0-2.3516-.8594-2.5225-2.5791Z"/></g><path id="icon_shadow" class="cls-4" d="m4,10v-5h3v8l-.9494.4061-2.0506-.4061v-3Z"/><path id="flap" class="cls-1" d="m5,2.9511c.0005-.6031-.3694-1.1446-.9315-1.3632L0,.0056v11.994l4.1131,1.9355c.3105.1468.681.0135.8275-.2976.033-.0701.0446-.1472.0499-.2242l.0095-10.4621Z"/></g></svg>