<?xml version="1.0" encoding="UTF-8"?><svg id="Layer_23_copy_4" xmlns="http://www.w3.org/2000/svg" xmlns:xlink="http://www.w3.org/1999/xlink" viewBox="0 0 14 14"><defs><style>.cls-1{fill:#fff;}.cls-2{opacity:.3;}.cls-2,.cls-3{isolation:isolate;}.cls-4{fill:#ff2020;}.cls-5{fill:url(#linear-gradient);}.cls-3{fill:url(#radial-gradient);opacity:.711;}</style><radialGradient id="radial-gradient" cx="152.7111" cy="-176.4241" fx="152.7111" fy="-176.4241" r="1.5875" gradientTransform="translate(-298.3384 -680.1417) rotate(33.6901) scale(4.1287 -2.2712)" gradientUnits="userSpaceOnUse"><stop offset="0" stop-color="#000"/><stop offset="1" stop-color="#000" stop-opacity="0"/></radialGradient><linearGradient id="linear-gradient" x1="110.5319" y1="-227.8358" x2="111.0611" y2="-227.8358" gradientTransform="translate(-412.7584 -853.1116) scale(3.7795 -3.7795)" gradientUnits="userSpaceOnUse"><stop offset="0" stop-color="#000"/><stop offset="1" stop-color="#000" stop-opacity="0"/></linearGradient></defs><path id="folder" class="cls-4" d="m0-.0056v12l4.1131,1.9355c.3105.1468.681.0135.8275-.2976.0393-.0834.0596-.1746.0594-.2668v-2.3711h6V.9944c-.004-.745-.4086-.9893-1-1H0Z"/><path id="folder_shadow" class="cls-2" d="m-.0179-.0056l4.0848,1.5879c.5625.2187.9331.7603.9331,1.3638v8.0482h6V.9944c-.004-.745-.4093-.9893-1.0016-1H-.0179Z"/><path id="flap_shadow" class="cls-3" d="m10,10.9944c.7057-.0798,1.0812-.3798,1-.9844v-5.0156c.6647-.0018.998-.3352,1-1V.9944c.0053-.6399-.3093-.9903-1-1H0v11h10Z"/><g id="Layer_69_copy"><path d="m8.5088,14.0166c-2.5283,0-4.5088-1.3252-4.5088-3.0166v-6c0-1.626,2.0649-3,4.5088-3,2.4766,0,4.4912,1.3457,4.4912,3v6c0,1.6914-1.9727,3.0166-4.4912,3.0166Z"/><path class="cls-1" d="m4.9995,7.0077v.9923c0,1.0598,1.4961,2,3.4286,2s3.5718-.9402,3.5718-2v-1c-.6857.6857-2.0757,1.1298-3.5718,1.1298s-2.7429-.4364-3.4286-1.1221Z"/><path class="cls-1" d="m5,10v1c0,1.0598,1.5762,2.0163,3.5087,2.0163s3.4913-.9565,3.4913-2.0163v-1c-.6857.6857-1.9951,1.2717-3.4913,1.2717s-2.823-.586-3.5087-1.2717Z"/><path class="cls-1" d="m8.5087,3c1.8936,0,3.4913.9671,3.4913,2s-1.5977,1.9332-3.4913,1.9332-3.5087-.9003-3.5087-1.9332,1.6152-2,3.5087-2Z"/></g><path id="icon_shadow" class="cls-5" d="m5,4l2-1v10l-2-1V4Z"/><path id="flap" class="cls-4" d="m5,2.9456c.0005-.6031-.3694-1.1446-.9315-1.3632L0,0v11.994l4.1131,1.9355c.3105.1468.681.0135.8275-.2976.033-.0701.0446-.1472.0499-.2242l.0095-10.4621Z"/></svg>