<?xml version="1.0" encoding="UTF-8"?><svg id="Done" xmlns="http://www.w3.org/2000/svg" xmlns:xlink="http://www.w3.org/1999/xlink" viewBox="0 0 14 14"><defs><style>.cls-1{fill:#ff6700;}.cls-2{fill:#40a0ff;}.cls-3{fill:url(#linear-gradient);isolation:isolate;opacity:.723;}</style><linearGradient id="linear-gradient" x1="502.8608" y1="-893.0094" x2="502.8608" y2="-889.0094" gradientTransform="translate(-248.4304 -444.5047) scale(.5 -.5)" gradientUnits="userSpaceOnUse"><stop offset="0" stop-color="#000"/><stop offset="1" stop-color="#000" stop-opacity=".151"/></linearGradient></defs><g id="Layer_39_copy_8"><path id="folder" class="cls-2" d="m1,0C.5286,0,0,.5286,0,1v7c0,.4714.5286,1,1,1h10c.4714,0,1-.5286,1-1V2c0-.4714-.5286-1-1-1h-5C6,.5286,5.4714,0,5,0H1Z"/><path id="Tab" class="cls-3" d="m1,0C.5286,0,0,.5286,0,1s.5286,1,1,1h4c.4714,0,1-.5286,1-1S5.4714,0,5,0H1Z"/><path d="m10.4492,4.3228v1.6772h-.4463v-1.6772h-3.2402v.9534c-.0598-.0699-.11-.1472-.1768-.2117-.5986-.5771-1.4033-.8701-2.3916-.8701-.6387,0-1.2002.1216-1.668.3604-.5059.2568-.9053.6411-1.1875,1.1392-.2725.479-.4111,1.0181-.4111,1.6011,0,.4995.1064.9761.3145,1.4136.1182.2495.2617.4751.4316.6758l-1.0635.1245.0967.978c.3008,3.0278,2.333,3.48,3.5176,3.48,1.0956,0,1.9436-.3149,2.5381-.9186v.7906h3.2402v-1.8389h.4463v1.8389h3.2402V4.3228h-3.2402Z"/><g id="Text"><path class="cls-1" d="m1.7021,10.3877l1.2158-.1426c.1367.96.584,1.4404,1.3428,1.4404.376,0,.6719-.0986.8867-.2949.2158-.1963.3232-.4395.3232-.7305,0-.1709-.0371-.3154-.1123-.4355-.0752-.1191-.1904-.2178-.3438-.2944-.1543-.0771-.5264-.2056-1.1182-.3867-.5293-.1602-.917-.3345-1.1631-.522-.2461-.188-.4424-.4346-.5869-.7402-.1455-.3057-.2188-.6348-.2188-.9863,0-.4097.0938-.7788.2803-1.1064.1855-.3276.4434-.5757.7715-.7427.3281-.1675.7324-.2515,1.2148-.2515.7246,0,1.29.1968,1.6973.5898.4062.3931.6221.9556.6455,1.6865l-1.2461.0669c-.0547-.4033-.1719-.6851-.3535-.8462-.1807-.1602-.4395-.2407-.7744-.2407s-.5928.0698-.7734.2095c-.1816.1396-.2725.3135-.2725.5215,0,.2046.083.3765.2471.5161s.542.2935,1.1338.4609c.625.1812,1.0771.3721,1.3555.5718.2783.2002.4912.458.6377.7739.1475.3164.2207.6997.2207,1.1509,0,.6523-.2012,1.2012-.6025,1.6455s-1.0303.666-1.8848.666c-1.5107,0-2.3516-.8594-2.5225-2.5791Z"/><path class="cls-1" d="m7.7627,12.8389v-7.5161h1.2402v2.9585h2.4463v-2.9585h1.2402v7.5161h-1.2402v-3.2861h-2.4463v3.2861h-1.2402Z"/></g></g></svg>