<?xml version="1.0" encoding="UTF-8"?><svg id="Done" xmlns="http://www.w3.org/2000/svg" xmlns:xlink="http://www.w3.org/1999/xlink" viewBox="0 0 14 14"><defs><style>.cls-1{stroke:#000;stroke-width:2px;}.cls-2{fill:aqua;}.cls-3{fill:#ff2011;stroke:#003768;stroke-width:.0352px;}.cls-4{fill:url(#linear-gradient);isolation:isolate;opacity:.723;}</style><linearGradient id="linear-gradient" x1="762.8608" y1="-841.0094" x2="762.8608" y2="-837.0094" gradientTransform="translate(-378.4304 -418.5047) scale(.5 -.5)" gradientUnits="userSpaceOnUse"><stop offset="0" stop-color="#000"/><stop offset="1" stop-color="#000" stop-opacity=".151"/></linearGradient></defs><g id="Layer_11"><path id="folder" class="cls-2" d="m1,0C.5286,0,0,.5286,0,1v7c0,.4714.5286,1,1,1h10c.4714,0,1-.5286,1-1V2c0-.4714-.5286-1-1-1h-5c0-.4714-.5286-1-1-1H1Z"/><path id="tab" class="cls-4" d="m1,0C.5286,0,0,.5286,0,1s.5286,1,1,1h4c.4714,0,1-.5286,1-1S5.4714,0,5,0H1Z"/><g id="icon"><path id="path304" class="cls-1" d="m8,4l-4,4v1l4,4h1l4-4v-1l-4-4h-1Z"/><path id="path305" class="cls-3" d="m12.0696,7l-3-3h-1.0696v2h1v1h1v1h1v1h-1v-1h-1v3h-1v-4h-1v-2l-3,3v1l4,4h1l3-3,1-1v-1"/></g></g></svg>