<?xml version="1.0" encoding="UTF-8"?><svg id="Done" xmlns="http://www.w3.org/2000/svg" xmlns:xlink="http://www.w3.org/1999/xlink" viewBox="0 0 14 14"><defs><style>.cls-1{fill:silver;}.cls-2{fill:url(#linear-gradient);isolation:isolate;opacity:.723;}.cls-3{fill:#ff13c0;}</style><linearGradient id="linear-gradient" x1="398.8607" y1="-893.0094" x2="398.8607" y2="-889.0094" gradientTransform="translate(-196.4304 -444.5047) scale(.5 -.5)" gradientUnits="userSpaceOnUse"><stop offset="0" stop-color="#000"/><stop offset="1" stop-color="#000" stop-opacity=".151"/></linearGradient></defs><g id="Layer_39_copy_4"><path id="Folder_Back" class="cls-3" d="m1,0C.5286,0,0,.5286,0,1v7c0,.4714.5286,1,1,1h10c.4714,0,1-.5286,1-1V2c0-.4714-.5286-1-1-1h-5C6,.5286,5.4714,0,5,0H1Z"/><path id="Tab" class="cls-2" d="m1,0C.5286,0,0,.5286,0,1s.5286,1,1,1h4c.4714,0,1-.5286,1-1S5.4714,0,5,0H1Z"/><g id="Layer_57_copy_2"><path d="m13.7451,4.5693c-1.38-3.7126-7.8955-2.3413-7.5278,1.4989-3.0961-.3715-5.1145,4.5343-2.8706,6.7011,2.0135,2.6672,7.368.7262,6.9429-2.5533,1.8069.2922,3.7104-2.4578,3.7104-3.3244,0-.8186,0-1.5397-.2549-2.3222Z"/><path class="cls-1" d="m12.1548,4.0506c-.5627-.4994-1.2961-.7628-2.0479-.7356-.7518.0272-1.4642.3431-1.9893.8819l-.7489.7489c-.1539.1559-.2402.3661-.2402.5851s.0863.4292.2402.5851c.0768.0769.168.1379.2684.1795.1004.0416.208.0631.3167.0631s.2163-.0214.3167-.0631c.1004-.0416.1916-.1026.2684-.1795l.7645-.7645c.219-.2252.5139-.3611.8274-.3813.3135-.0202.6233.0768.8694.272.1486.1245.2657.2823.3419.4605.0762.1782.1094.3719.0969.5653-.0251.3122-.1639.6044-.3901.8211l-.7684.7684c-.0844.075-.1527.1665-.2004.2689-.0478.1024-.0742.2134-.0775.3263-.0033.1129.0165.2253.0582.3303.0417.105.1044.2004.1843.2802.0799.0799.1752.1426.2802.1843.105.0417.2174.0615.3303.0582.1129-.0033.224-.0297.3263-.0775.1023-.0478.1938-.116.2689-.2004l.7996-.7996c.2764-.2766.4939-.6063.6392-.9694.1453-.363.2154-.7518.2061-1.1427-.0093-.3909-.0978-.7759-.2602-1.1316-.1624-.3557-.3953-.6748-.6845-.9379l.0039.0039Z"/><path class="cls-1" d="m8.5624,9.9231c-.1088,0-.2165.0216-.3169.0635-.1004.0418-.1916.1031-.2682.1803l-.8679.8679c-.1242.1238-.2734.2198-.4376.2816-.1642.0618-.3396.0879-.5147.0766-.1751-.0112-.3457-.0596-.5006-.1419-.1549-.0823-.2906-.1966-.3979-.3353-.1802-.2468-.2649-.5505-.2383-.855.0265-.3044.1625-.589.3827-.8009l.8328-.8308c.0844-.075.1526-.1665.2004-.2689.0478-.1024.0742-.2134.0775-.3263.0033-.1129-.0165-.2253-.0582-.3303-.0417-.105-.1044-.2003-.1842-.2802-.0799-.0799-.1752-.1426-.2802-.1843-.105-.0417-.2174-.0615-.3303-.0581-.1129.0033-.224.0297-.3263.0775-.1024.0478-.1939.116-.2689.2004l-.8152.8133c-.5393.5239-.8562,1.2354-.8849,1.9868-.0287.7514.233,1.4849.7308,2.0485.2613.292.5798.5274.9358.6914.3559.164.7417.2533,1.1335.2623h.0741c.3793.0013.7551-.0727,1.1056-.2176.3505-.145.6688-.358.9364-.6269l.8679-.8679c.1152-.1162.1936-.2638.2253-.4243.0317-.1606.0152-.3269-.0473-.4781-.0625-.1512-.1682-.2806-.304-.372-.1358-.0914-.2955-.1406-.4591-.1415l-.002-.0098Z"/><path class="cls-1" d="m9.7469,6.6542c-.1358-.1353-.3197-.2113-.5115-.2113s-.3757.076-.5115.2113l-2.1039,2.1005c-.0738.0656-.1334.1456-.1752.2351s-.0648.1865-.0677.2852c-.0029.0987.0144.197.0508.2887.0364.0918.0913.1751.1611.2449s.1532.1246.2449.1611.19.0537.2887.0508c.0987-.0029.1958-.026.2853-.0677.0895-.0418.1695-.1014.2351-.1752l2.1039-2.0988c.1349-.136.2106-.3199.2106-.5115s-.0757-.3754-.2106-.5115v-.0017Z"/></g></g></svg>