<?xml version="1.0" encoding="UTF-8"?><svg id="Done" xmlns="http://www.w3.org/2000/svg" xmlns:xlink="http://www.w3.org/1999/xlink" viewBox="0 0 14 14"><defs><style>.cls-1{fill:#a040ff;}.cls-2{fill:url(#linear-gradient);isolation:isolate;opacity:.723;}.cls-3{fill:#d9d9d9;}</style><linearGradient id="linear-gradient" x1="606.8608" y1="-737.0094" x2="606.8608" y2="-733.0094" gradientTransform="translate(-300.4304 -366.5047) scale(.5 -.5)" gradientUnits="userSpaceOnUse"><stop offset="0" stop-color="#000"/><stop offset="1" stop-color="#000" stop-opacity=".151"/></linearGradient></defs><g id="Layer_37"><path id="folder" class="cls-1" d="m1,0C.5286,0,0,.5286,0,1v7c0,.4714.5286,1,1,1h10c.4714,0,1-.5286,1-1V2c0-.4714-.5286-1-1-1h-5C6,.5286,5.4714,0,5,0H1Z"/><path id="tab" class="cls-2" d="m1,0C.5286,0,0,.5286,0,1s.5286,1,1,1h4c.4714,0,1-.5286,1-1S5.4714,0,5,0H1Z"/><path id="path286" d="m3,4h11v10h-3.9515l-1.0485-1h-1.0828l-.8739,1H3V4Z"/><path id="path287" class="cls-3" d="m4,5v7s0,1,0,1h2l1-1h3l1,1h2V5H4Zm2,1h2s3,0,3,0v5s-5,0-5,0l-1,1v-1.9687s0-1.0312,0-1.0312h1v1h4v-3h-4v1h-1v-1l1-1Z"/></g></svg>