<?xml version="1.0" encoding="UTF-8"?><svg id="Done" xmlns="http://www.w3.org/2000/svg" xmlns:xlink="http://www.w3.org/1999/xlink" viewBox="0 0 14 14"><defs><style>.cls-1{fill:url(#linear-gradient);isolation:isolate;opacity:.723;}.cls-2{fill:#ff13c0;}.cls-3{fill:#ff0;}</style><linearGradient id="linear-gradient" x1="528.8608" y1="-893.0094" x2="528.8608" y2="-889.0094" gradientTransform="translate(-261.4304 -444.5047) scale(.5 -.5)" gradientUnits="userSpaceOnUse"><stop offset="0" stop-color="#000"/><stop offset="1" stop-color="#000" stop-opacity=".151"/></linearGradient></defs><g id="Layer_39_copy_9"><path id="folder" class="cls-2" d="m1,0C.5286,0,0,.5286,0,1v7c0,.4714.5286,1,1,1h10c.4714,0,1-.5286,1-1V2c0-.4714-.5286-1-1-1h-5C6,.5286,5.4714,0,5,0H1Z"/><path id="tab" class="cls-1" d="m1,0C.5286,0,0,.5286,0,1s.5286,1,1,1h4c.4714,0,1-.5286,1-1S5.4714,0,5,0H1Z"/><path d="m6.9912,14c-1.5186,0-2.8291-.0039-2.9658-1.9287l-.0254-1.0488c0-.0986,0-.1084-.207-.3154-.2969-.2964-.793-.793-.793-1.707s.4961-1.4106.793-1.707c.207-.207.207-.2168.207-.293l.0225-1.0225c.1406-1.9775,1.4551-1.9775,2.9775-1.9775h3c2.5518,0,3,.4487,3,3,0,.0762,0,.0859.207.293.2969.2964.793.793.793,1.707s-.4961,1.4106-.793,1.707c-.207.207-.207.2168-.207.293,0,2.5513-.4482,3-2.9961,3h-3.0127Z"/><path class="cls-3" d="m10,12q1,0,1-1t0-.9991c.798-.7004.7985-1.3674,0-2.0009v-1q0-1-1-1v-1q2,0,2,2c0,1,1,1,1,2s-1,1-1,2q0,2-2,2v-1Z"/><path class="cls-3" d="m7,13q-2,0-2-2c0-1-1-1-1-2s1-1,1-2q0-2,2-2v1q-1,0-1,1v1c-.7985.6335-.798,1.3005,0,2.0009t0,.9991q0,1,1,1v1Z"/></g></svg>