<?xml version="1.0" encoding="UTF-8"?><svg id="Done" xmlns="http://www.w3.org/2000/svg" xmlns:xlink="http://www.w3.org/1999/xlink" viewBox="0 0 14 14"><defs><style>.cls-1{fill:aqua;}.cls-2{fill:url(#linear-gradient);isolation:isolate;opacity:.723;}.cls-3{fill:red;}</style><linearGradient id="linear-gradient" x1="1048.8608" y1="-737.0094" x2="1048.8608" y2="-733.0094" gradientTransform="translate(-521.4304 -366.5047) scale(.5 -.5)" gradientUnits="userSpaceOnUse"><stop offset="0" stop-color="#000"/><stop offset="1" stop-color="#000" stop-opacity=".151"/></linearGradient></defs><g id="Layer_24"><path id="folder" class="cls-1" d="m1,0C.5286,0,0,.5286,0,1v7c0,.4714.5286,1,1,1h10c.4714,0,1-.5286,1-1V2c0-.4714-.5286-1-1-1h-5C6,.5286,5.4714,0,5,0H1Z"/><path id="tab" class="cls-2" d="m1,0C.5286,0,0,.5286,0,1s.5286,1,1,1h4c.4714,0,1-.5286,1-1S5.4714,0,5,0H1Z"/><g id="g529"><circle id="circle528" cx="8.5228" cy="8.4485" r="5.5469"/><path id="path528" class="cls-3" d="m13.1452,8.491c0,2.5764-2.0035,4.5799-4.5799,4.5799s-4.6649-2.0035-4.6649-4.5799,2.0885-4.6649,4.6649-4.6649c2.5764,0,4.5799,2.0885,4.5799,4.6649Z"/><circle id="circle529" cx="8.5228" cy="8.4485" r="2.7734"/><polygon id="rect529" class="cls-3" points="4.7782 6.9739 6.5718 5.366 12.2673 9.9231 10.4737 11.5309 4.7782 6.9739"/></g></g></svg>