<?xml version="1.0" encoding="UTF-8"?><svg id="Layer_24_copy_7" xmlns="http://www.w3.org/2000/svg" xmlns:xlink="http://www.w3.org/1999/xlink" viewBox="0 0 14 14"><defs><style>.cls-1{fill:#fff;}.cls-1,.cls-2{fill-rule:evenodd;}.cls-3{fill:url(#linear-gradient);isolation:isolate;opacity:.723;}.cls-4{fill:#ff13c0;}</style><linearGradient id="linear-gradient" x1="918.8598" y1="-1049.0094" x2="918.8598" y2="-1045.0094" gradientTransform="translate(-456.4304 -522.5047) scale(.5 -.5)" gradientUnits="userSpaceOnUse"><stop offset="0" stop-color="#000"/><stop offset="1" stop-color="#000" stop-opacity=".151"/></linearGradient></defs><path id="folder" class="cls-4" d="m.9995,0C.5281,0-.0005.5286-.0005,1v7c0,.4714.5286,1,1,1h10c.4714,0,1-.5286,1-1V2c0-.4714-.5286-1-1-1h-5C5.9995.5286,5.4709,0,4.9995,0H.9995Z"/><path id="tab" class="cls-3" d="m.9995,0C.5281,0-.0005.5286-.0005,1s.5286,1,1,1h4c.4714,0,1-.5286,1-1S5.4709,0,4.9995,0H.9995Z"/><g id="Layer_93"><path class="cls-2" d="m11,14c-1.3906,0-2.5664-.9551-2.9023-2.2441l-1.2236-.417c-.5254.4258-1.1792.6611-1.874.6611-1.6543,0-3-1.3457-3-3s1.3457-3,3-3c.3228,0,.6392.0518.9409.1523l1.1973-1.2529c-.0913-.2891-.1382-.5918-.1382-.8994,0-1.6543,1.3457-3,3-3s3,1.3457,3,3-1.3457,3-3,3c-.2407,0-.4775-.0293-.7095-.0879l-1.3096,1.3711,1.1367.3877c.5288-.4277,1.1938-.6709,1.8823-.6709,1.6235,0,2.8477,1.29,2.8477,3s-1.2241,3-2.8477,3Z"/><path class="cls-1" d="m11,9c-.6622,0-1.2446.3256-1.6086.8214l-2.3919-.8165c0-.0016.0005-.0032.0005-.0049,0-.3266-.0857-.6302-.2245-.9025l2.2535-2.3591c.2887.1617.6166.2617.971.2617,1.1046,0,2-.8954,2-2s-.8954-2-2-2-2,.8954-2,2c0,.4061.1227.7827.3307,1.0982l-2.1735,2.2755c-.3271-.2332-.7248-.3737-1.1572-.3737-1.1046,0-2,.8954-2,2s.8954,2,2,2c.6577,0,1.2361-.3217,1.6006-.8116l2.4002.8193c.0043,1.101.8973,1.9923,1.9992,1.9923,1.1046,0,2-.8954,2-2s-.8954-2-2-2Z"/></g></svg>