<?xml version="1.0" encoding="UTF-8"?><svg id="Done" xmlns="http://www.w3.org/2000/svg" xmlns:xlink="http://www.w3.org/1999/xlink" viewBox="0 0 14 14"><defs><style>.cls-1{fill:#fff;}.cls-1,.cls-2{fill-rule:evenodd;}.cls-3{opacity:.3;}.cls-3,.cls-4{isolation:isolate;}.cls-5{fill:#ff2020;}.cls-2{stroke:#000;stroke-linejoin:round;stroke-width:2px;}.cls-6{fill:url(#linear-gradient);}.cls-4{fill:url(#radial-gradient);opacity:.711;}</style><radialGradient id="radial-gradient" cx="130.0062" cy="-98.4261" fx="130.0062" fy="-98.4261" r="1.5875" gradientTransform="translate(-318.606 -480.7402) rotate(33.6901) scale(4.1287 -2.2712)" gradientUnits="userSpaceOnUse"><stop offset="0" stop-color="#000"/><stop offset="1" stop-color="#000" stop-opacity="0"/></radialGradient><linearGradient id="linear-gradient" x1="89.8944" y1="-136.342" x2="90.4236" y2="-136.342" gradientTransform="translate(-334.7584 -506.3085) scale(3.7795 -3.7795)" gradientUnits="userSpaceOnUse"><stop offset="0" stop-color="#000"/><stop offset="1" stop-color="#000" stop-opacity="0"/></linearGradient></defs><g id="Layer_32"><path id="folder" class="cls-5" d="m0,0v12l4.1131,1.9355c.3105.1468.681.0135.8275-.2976.0393-.0834.0596-.1746.0594-.2668v-2.3711h6V1c-.004-.745-.4086-.9893-1-1H0Z"/><path id="folder_shadow" class="cls-3" d="m-.0179,0l4.0855,1.5882c.5621.2185.9324.7597.9324,1.3628v8.049h6V1c-.004-.745-.4093-.9893-1.0016-1H-.0179Z"/><path id="flap_shadow" class="cls-4" d="m10,11c.7057-.0798,1.0812-.3798,1-.9844v-5.0156c.6647-.0018.998-.3352,1-1V1C12.0053.3601,11.6907.0097,11,0H0v11h10Z"/><g id="g289"><polygon class="cls-2" points="11 7 10 6 9.5791 5.5791 9 5 9 5 7 5 7 5 6.4209 5.5791 6 6 5 7 3 9 4 10 5 11 6 12 7 13 7 13 9 13 9 13 10 12 11 11 12 10 13 9 11 7"/><path id="path285" class="cls-1" d="m9,12v-1l2-2-2-2v-2l.5791.5791.4209.4209,1,1,2,2-1,1-1,1-1,1-1,1v-1Z"/><path id="path289" class="cls-1" d="m7,12v-1l-2-2,2-2v-2l-.5791.5791-.4209.4209-1,1-2,2,1,1,1,1,1,1,1,1v-1Z"/></g><path id="icon_shadow" class="cls-6" d="m5,5.7127l1-.7127,1-1v10s-1.0777-1.0777-2-2h0v-6.2873Z"/><path id="flap" class="cls-5" d="m5,2.9511c.0005-.6031-.3694-1.1446-.9315-1.3632L0,.0056v11.994l4.1131,1.9355c.3105.1468.681.0135.8275-.2976.033-.0701.0446-.1472.0499-.2242l.0095-10.4621Z"/></g></svg>