<?xml version="1.0" encoding="UTF-8"?><svg id="Layer_23_copy_6" xmlns="http://www.w3.org/2000/svg" xmlns:xlink="http://www.w3.org/1999/xlink" viewBox="0 0 14 14"><defs><style>.cls-1{fill:#ff6700;}.cls-2{opacity:.3;}.cls-2,.cls-3{isolation:isolate;}.cls-4{fill:#40a0ff;}.cls-4,.cls-5{fill-rule:evenodd;}.cls-6{fill:url(#linear-gradient);}.cls-3{fill:url(#radial-gradient);opacity:.711;}</style><radialGradient id="radial-gradient" cx="111.1906" cy="-163.7241" fx="111.1906" fy="-163.7241" r="1.5875" gradientTransform="translate(-171.704 -561.0521) rotate(33.6901) scale(4.1287 -2.2712)" gradientUnits="userSpaceOnUse"><stop offset="0" stop-color="#000"/><stop offset="1" stop-color="#000" stop-opacity="0"/></radialGradient><linearGradient id="linear-gradient" x1="72.2902" y1="-228.1004" x2="72.8194" y2="-228.1004" gradientTransform="translate(-268.2229 -853.1116) scale(3.7795 -3.7795)" gradientUnits="userSpaceOnUse"><stop offset="0" stop-color="#000"/><stop offset="1" stop-color="#000" stop-opacity="0"/></linearGradient></defs><path id="folder" class="cls-1" d="m0-.0056v12l4.1131,1.9355c.3105.1468.681.0135.8275-.2976.0393-.0834.0596-.1746.0594-.2668v-2.3711h6V.9944c-.004-.745-.4086-.9893-1-1H0Z"/><path id="folder_shadow" class="cls-2" d="m-.0179-.0056l4.0848,1.5879c.5625.2187.9331.7603.9331,1.3638v8.0482h6V.9944c-.004-.745-.4093-.9893-1.0016-1H-.0179Z"/><path id="flap_shadow" class="cls-3" d="m10,10.9944c.7057-.0798,1.0812-.3798,1-.9844v-5.0156c.6647-.0018.998-.3352,1-1V.9944c.0053-.6399-.3093-.9903-1-1H0v11h10Z"/><g id="Layer_90_copy"><path class="cls-5" d="m7.0024,13.999c-1.104,0-2.0024-.8984-2.0024-2.002v-.2656c-.2944.1709-.6362.2686-1,.2686-1.103,0-2-.8975-2-2v-1c0-1.1025.897-2,2-2,.3638,0,.7056.0977,1,.2686v-.2686c0-1.1025.897-2,2-2h.2686c-.1709-.2939-.2686-.6357-.2686-1,0-1.1025.897-2,2-2h1c1.103,0,2,.8975,2,2,0,.3643-.0977.7061-.2686,1h.27c1.1021,0,1.9985.8965,1.9985,1.998v5.0039c0,1.1016-.8965,1.998-1.9985,1.998l-4.999-.001Z"/><path class="cls-4" d="m6,9v-2c0-.5523.4477-1,1-1h2v-1h0c-.5523,0-1-.4477-1-1h0c0-.5523.4477-1,1-1h1c.5523,0,1,.4477,1,1h0c0,.5523-.4477,1-1,1h0v1h2.0016c.5514,0,.9984.447.9984.9984v1.0016s-1.0152,0-1.0152,0c-.5439,0-.9848.4409-.9848.9848v1.0304c0,.5439.4409.9848.9848.9848h1.0152v1.0015c0,.5514-.4471.9985-.9985.9984h-1.0015v-1.0041c0-.5502-.446-.9962-.9962-.9962h-1.0076c-.5502,0-.9962.446-.9962.9962v1.0037s-.9977-.0001-.9977-.0001c-.5536,0-1.0023-.4488-1.0023-1.0024v-1.997h-1c0,.5523-.4477,1-1,1h0c-.5523,0-1-.4477-1-1v-1c0-.5523.4477-1,1-1h0c.5523,0,1,.4477,1,1h1Z"/></g><path id="icon_shadow" class="cls-6" d="m5,7l2-2v8h-2v-6Z"/><path id="flap" class="cls-1" d="m5,2.9456c.0005-.6031-.3694-1.1446-.9315-1.3632L0,0v11.994l4.1131,1.9355c.3105.1468.681.0135.8275-.2976.033-.0701.0446-.1472.0499-.2242l.0095-10.4621Z"/></svg>