<?xml version="1.0" encoding="UTF-8"?><svg id="Done" xmlns="http://www.w3.org/2000/svg" xmlns:xlink="http://www.w3.org/1999/xlink" viewBox="0 0 14 14"><defs><style>.cls-1,.cls-2{fill:silver;}.cls-3{fill:#40a0ff;}.cls-4{fill:url(#linear-gradient);isolation:isolate;opacity:.723;}.cls-2{fill-rule:evenodd;}.cls-5{fill:red;}</style><linearGradient id="linear-gradient" x1="658.8608" y1="-737.0094" x2="658.8608" y2="-733.0094" gradientTransform="translate(-326.4304 -366.5047) scale(.5 -.5)" gradientUnits="userSpaceOnUse"><stop offset="0" stop-color="#000"/><stop offset="1" stop-color="#000" stop-opacity=".151"/></linearGradient></defs><g id="Layer_35"><path id="folder" class="cls-3" d="m1,0C.5286,0,0,.5286,0,1v7c0,.4714.5286,1,1,1h10c.4714,0,1-.5286,1-1V2c0-.4714-.5286-1-1-1h-5c0-.4714-.5286-1-1-1H1Z"/><path id="tab" class="cls-4" d="m1,0C.5286,0,0,.5286,0,1s.5286,1,1,1h4c.4714,0,1-.5286,1-1S5.4714,0,5,0H1Z"/><g id="g94"><rect id="rect5" x="5" y="4" width="7" height="3"/><rect id="rect4" x="3" y="6" width="11" height="8"/><path id="rect3" class="cls-2" d="m6,5h5v2h-1v-1h-3l.0313,1h-1.0313v-2Z"/><rect id="rect6" class="cls-5" x="4" y="7" width="9" height="6"/><rect id="rect21" x="3" y="9" width="10" height="1"/><rect id="rect20" class="cls-1" x="8" y="9" width="1" height="2"/></g></g></svg>