<?xml version="1.0" encoding="UTF-8"?><svg id="Layer_23_copy_7" xmlns="http://www.w3.org/2000/svg" xmlns:xlink="http://www.w3.org/1999/xlink" viewBox="0 0 14 14"><defs><style>.cls-1{fill:#fff;}.cls-1,.cls-2{fill-rule:evenodd;}.cls-3{opacity:.3;}.cls-3,.cls-4{isolation:isolate;}.cls-5{fill:#ff13c0;}.cls-6{fill:url(#linear-gradient);}.cls-4{fill:url(#radial-gradient);opacity:.711;}</style><radialGradient id="radial-gradient" cx="90.4304" cy="-157.3741" fx="90.4304" fy="-157.3741" r="1.5875" gradientTransform="translate(-108.3868 -501.5073) rotate(33.6901) scale(4.1287 -2.2712)" gradientUnits="userSpaceOnUse"><stop offset="0" stop-color="#000"/><stop offset="1" stop-color="#000" stop-opacity="0"/></radialGradient><linearGradient id="linear-gradient" x1="53.1694" y1="-227.9681" x2="53.6986" y2="-227.9681" gradientTransform="translate(-195.9552 -853.1116) scale(3.7795 -3.7795)" gradientUnits="userSpaceOnUse"><stop offset="0" stop-color="#000"/><stop offset="1" stop-color="#000" stop-opacity="0"/></linearGradient></defs><path id="folder" class="cls-5" d="m0-.0056v12l4.1131,1.9355c.3105.1468.681.0135.8275-.2976.0393-.0834.0596-.1746.0594-.2668v-2.3711h6V.9944c-.004-.745-.4086-.9893-1-1H0Z"/><path id="folder_shadow" class="cls-3" d="m-.0179-.0056l4.0848,1.5879c.5625.2187.9331.7603.9331,1.3638v8.0482h6V.9944c-.004-.745-.4093-.9893-1.0016-1H-.0179Z"/><path id="flap_shadow" class="cls-4" d="m10,10.9944c.7057-.0798,1.0812-.3798,1-.9844v-5.0156c.6647-.0018.998-.3352,1-1V.9944c.0053-.6399-.3093-.9903-1-1H0v11h10Z"/><g id="Layer_93_copy_2"><path class="cls-2" d="m11,14c-1.3906,0-2.5664-.9551-2.9023-2.2441l-1.2236-.417c-.5254.4258-1.1792.6611-1.874.6611-1.6543,0-3-1.3457-3-3s1.3457-3,3-3c.3228,0,.6392.0518.9409.1523l1.1973-1.2529c-.0913-.2891-.1382-.5918-.1382-.8994,0-1.6543,1.3457-3,3-3s3,1.3457,3,3-1.3457,3-3,3c-.2407,0-.4775-.0293-.7095-.0879l-1.3096,1.3711,1.1367.3877c.5288-.4277,1.1938-.6709,1.8823-.6709,1.6196,0,2.8887,1.3154,2.8887,2.9941,0,1.6855-1.269,3.0059-2.8887,3.0059Z"/><path class="cls-1" d="m11,9c-.6622,0-1.2446.3256-1.6086.8214l-2.3919-.8165c0-.0016.0005-.0032.0005-.0049,0-.3266-.0857-.6302-.2245-.9025l2.2535-2.3591c.2887.1617.6166.2617.971.2617,1.1046,0,2-.8954,2-2s-.8954-2-2-2-2,.8954-2,2c0,.4061.1227.7827.3307,1.0982l-2.1735,2.2755c-.3271-.2332-.7248-.3737-1.1572-.3737-1.1046,0-2,.8954-2,2s.8954,2,2,2c.6577,0,1.2361-.3217,1.6006-.8116l2.4002.8193c.0043,1.101.8973,1.9923,1.9992,1.9923,1.1046,0,2-.8954,2-2s-.8954-2-2-2Z"/></g><path id="icon_shadow" class="cls-6" d="m5,7l2-2v6l-2,1v-5Z"/><path id="flap" class="cls-5" d="m5,2.9456c.0005-.6031-.3694-1.1446-.9315-1.3632L0,0v11.994l4.1131,1.9355c.3105.1468.681.0135.8275-.2976.033-.0701.0446-.1472.0499-.2242l.0095-10.4621Z"/></svg>