<?xml version="1.0" encoding="UTF-8"?><svg id="Done" xmlns="http://www.w3.org/2000/svg" xmlns:xlink="http://www.w3.org/1999/xlink" viewBox="0 0 14 14"><defs><style>.cls-1{fill:#b4ef11;}.cls-1,.cls-2,.cls-3,.cls-4,.cls-5{fill-rule:evenodd;}.cls-2{fill:#ce7730;}.cls-6{fill:url(#linear-gradient);isolation:isolate;opacity:.723;}.cls-3{fill:#e6bb7e;}.cls-4{fill:#7d9c32;}.cls-7{fill:#ff13c0;}</style><linearGradient id="linear-gradient" x1="892.8598" y1="-581.0094" x2="892.8598" y2="-577.0094" gradientTransform="translate(-443.4304 -288.5047) scale(.5 -.5)" gradientUnits="userSpaceOnUse"><stop offset="0" stop-color="#000"/><stop offset="1" stop-color="#000" stop-opacity=".151"/></linearGradient></defs><g id="Layer_24_copy_8"><path id="folder" class="cls-7" d="m.9995,0C.5281,0-.0005.5286-.0005,1v7c0,.4714.5286,1,1,1h10c.4714,0,1-.5286,1-1V2c0-.4714-.5286-1-1-1h-5C5.9995.5286,5.4709,0,4.9995,0H.9995Z"/><path id="tab" class="cls-6" d="m.9995,0C.5281,0-.0005.5286-.0005,1s.5286,1,1,1h4c.4714,0,1-.5286,1-1S5.4709,0,4.9995,0H.9995Z"/><path class="cls-5" d="m3,14v-3l-1-2.7637v-1.6504l.5859-.5859h-.4116l-.1562-.8105c-.0161-.085-.0503-.2598-.0176-1.2236l.0137-.3936,1.5718-1.5723h1.6499l2.3564,1.1777.2578.2578c.043-.0029.0864-.0039.1294-.0039.0557,0,.1118.002.1675.0068l1.439-1.4385,1.4141-1h3v7.4141l-1,1.5859v1l1,2v1H3Z"/><g id="_2220002388688"><path class="cls-2" d="m8.6717,11.3171c-.023,0-.0458-.0073-.065-.0215-.1899-.1415-.4249-.2035-.6644-.1724-.0298.0042-.0599-.0047-.0831-.0238s.1407.9006.1407.9006c-1-1-2-4,0-7,1,0,.0372,1.2563.0757,1.2427.0385-.0134.0814-.0043.111.0238.0801.0762.1851.1181.2956.1181.0787,0,.1556-.0214.2223-.062.0354-.0216.0803-.0211.1153.0014.035.0225.1849-1.3652.1801-1.324,0,2-1,5,1,7,.0023.0422-1.2397-.7159-1.2768-.6959-.0162.0085-.0338.0129-.0515.0129v.0002Z"/><path class="cls-1" d="m2.75,8.0586v-1.1621l1.1211-1.1211.0659-.0176s1.0781-.2812,2.0186-.5117c-.0024,0-3.1621.0039-3.1621.0039l-.0391-.2031c-.0308-.1592-.0132-.791-.0044-1.0557l.0034-.0986,1.1431-1.1426h1.1626l2.0527,1.0264.8867.8721,1.8247-1.8252,2.2261-1.127,1.2007,1.2002v2.707l-1.25-1.25-.8828.8828s-.5591.0654-.749.0898c.8477.2109,1.6948.4316,1.6948.4316l.0659.0176,1.1211,1.1211v1.207l-1.25,1.25-2.1182-2.1182c-.6997-.0918-1.3237-.3896-1.8823-.8916-.4302.3848-1.0659.7949-1.8823.8926l-.9404.9404-1.1768,2.3818-1.25-2.5Z"/><path d="m12,2l1,1v2l-1-1-1,1c-.0363.0045-1.5115.1602-1.8794.2853.9424.2087,2.8794.7147,2.8794.7147l1,1v1l-1,1-1-1-1-1c-.0444-.0248-1,0-2-1-1,1-1.9614.9784-2,1l-1,1-1,2-1-2v-1l1-1s1.9261-.5032,2.8715-.7131c-.3687-.1254-.835-.2824-.8715-.2869h-3c-.0289-.1496,0-1,0-1l1-1h1l2,1,1,1,1-1,1-1,2-1m.0987-.6084l-.3223.1612-2,1-.0726.0363-.0574.0574-1,1-.6465.6465-.6465-.6465-.0574-.0574-.0726-.0363-2-1-.1056-.0528h-1.3251l-.1464.1465-1,1-.1395.1395-.0067.1971c-.0204.6017-.0175.9757.0088,1.1117l.0782.4053h1.3487c-.0338.0088-.0552.0144-.0623.0162l-.1312.0343-.0959.0959-1,1-.1465.1464v1.3251l.0528.1056,1,2,.4472.8944.4472-.8944.9637-1.9274.8239-.8239c.7435-.1131,1.3332-.4521,1.7642-.7997.5378.4376,1.1298.7058,1.7659.7995l.8815.8815,1,1,.3536.3536.3536-.3536,1-1,.1465-.1464v-1.4142l-.1465-.1464-1-1-.0959-.0959-.1313-.0343c-.0308-.008-.3317-.0866-.7436-.1919l.6172-.6172.6465.6465.8536.8536v-3.4142l-.1465-.1464-1-1-.2548-.2548h0Z"/><path class="cls-4" d="m7.992,6.8982c-.6356,0-1.2459-.6177-1.2459-1.2533s.5975-1.2131,1.2332-1.2131,1.2586.6112,1.2586,1.247-.6102,1.2194-1.2459,1.2194Z"/><path class="cls-3" d="m4,13c0-.6232.3768-1,1-1,.0384,0,.0058-.8923,1-1,.6549-.0709,1.0793-.2183,2,0,2.9178,0,3.6175.0395,3.8977.9391,1.1023.0609,1.135,1.0609,1.135,1.0609H4Z"/></g></g></svg>