<?xml version="1.0" encoding="UTF-8"?><svg id="Layer_24_copy_10" xmlns="http://www.w3.org/2000/svg" xmlns:xlink="http://www.w3.org/1999/xlink" viewBox="0 0 14 14"><defs><style>.cls-1{fill:aqua;}.cls-2,.cls-3{fill:#f50637;stroke-linejoin:round;}.cls-2,.cls-3,.cls-4{stroke-linecap:round;}.cls-2,.cls-4{stroke:#ff0135;}.cls-3{stroke:#f50637;}.cls-5{fill:url(#linear-gradient);isolation:isolate;opacity:.723;}.cls-4{stroke-miterlimit:10;}</style><linearGradient id="linear-gradient" x1="944.8599" y1="-1049.0094" x2="944.8599" y2="-1045.0094" gradientTransform="translate(-469.4304 -522.5047) scale(.5 -.5)" gradientUnits="userSpaceOnUse"><stop offset="0" stop-color="#000"/><stop offset="1" stop-color="#000" stop-opacity=".151"/></linearGradient></defs><path id="folder" class="cls-1" d="m.9995,0C.5281,0-.0005.5286-.0005,1v7c0,.4714.5286,1,1,1h10c.4714,0,1-.5286,1-1V2c0-.4714-.5286-1-1-1h-5C5.9995.5286,5.4709,0,4.9995,0H.9995Z"/><path id="tab" class="cls-5" d="m.9995,0C.5281,0-.0005.5286-.0005,1s.5286,1,1,1h4c.4714,0,1-.5286,1-1S5.4709,0,4.9995,0H.9995Z"/><g id="Layer_89_copy_2"><path d="m4.5486,13.0728l-.4679-6.4127c-.0195-.2676-.1281-.5317-.3375-.6995-.6281-.5033-.7432-1.0948-.7432-1.4605,0-2.0664,2.9907-2.5,5.5-2.5.5264,0,1.0493.0244,1.5449.0723l.1836-.3945,1.7959-.6006c.104-.0488.2959-.0889.4912-.0889.6899,0,1.2998.5068,1.4497,1.2051.0991.4609-.0215.9111-.3091,1.2539.2832.3906.3462.7842.3438,1.0654-.0034.3623-.1224.9482-.7444,1.4468-.2068.1658-.3139.4268-.3323.6912l-.4486,6.419c-.0366.524-.4723.9303-.9976.9303h-5.9312c-.5241,0-.9592-.4046-.9973-.9272Z"/><path class="cls-3" d="m8.5,5.5h-3l.5109,7h5l.4891-7h-3Z"/><ellipse class="cls-4" cx="8.5" cy="4.5" rx="4" ry="1"/><polyline class="cls-2" points="10.0131 5.7065 11.3167 2.8953 12.5 2.5"/></g></svg>