<?xml version="1.0" encoding="UTF-8"?><svg id="Done" xmlns="http://www.w3.org/2000/svg" xmlns:xlink="http://www.w3.org/1999/xlink" viewBox="0 0 14 14"><defs><style>.cls-1{fill:lime;}.cls-1,.cls-2{fill-rule:evenodd;}.cls-3{fill:#a040ff;}.cls-4{fill:url(#linear-gradient);isolation:isolate;opacity:.723;}</style><linearGradient id="linear-gradient" x1="1048.8608" y1="-893.0094" x2="1048.8608" y2="-889.0094" gradientTransform="translate(-521.4304 -444.5047) scale(.5 -.5)" gradientUnits="userSpaceOnUse"><stop offset="0" stop-color="#000"/><stop offset="1" stop-color="#000" stop-opacity=".151"/></linearGradient></defs><g id="Layer_24_copy_2"><path id="folder" class="cls-3" d="m1,0C.5286,0,0,.5286,0,1v7c0,.4714.5286,1,1,1h10c.4714,0,1-.5286,1-1V2c0-.4714-.5286-1-1-1h-5C6,.5286,5.4714,0,5,0H1Z"/><path id="tab" class="cls-4" d="m1,0C.5286,0,0,.5286,0,1s.5286,1,1,1h4c.4714,0,1-.5286,1-1S5.4714,0,5,0H1Z"/><polygon class="cls-2" points="10 3 8 3 8.0015 3.9923 8.0012 6 3 6 3 10 8.0005 10 8 13 10 13 14 7.9969 10 3"/><path id="path968" class="cls-1" d="m4,9h6l-1,3,4-4-4-4,1,3h-6v2Z"/></g></svg>