<?xml version="1.0" encoding="UTF-8"?>
<svg version="1.1" viewBox="0 0 32 32" xml:space="preserve" xmlns="http://www.w3.org/2000/svg"><defs><clipPath id="clipPath33"><path d="m17.172 7.8887c-1.4217-1.232e-4 -2.5743 1.1721-2.5742 2.6172v2.4141h-1.9258c-1.4217-1.24e-4 -2.5743 1.1721-2.5742 2.6172v3.459c-1.47e-4 1.4433 1.1504 2.6143 2.5703 2.6152h1.9297v1.9551c-0.0012 1.4443 1.1493 2.6171 2.5703 2.6191h12.887v-0.18555h0.91211v-18.111h-11.068z" display="none" stroke-opacity="0"/><path class="powerclip" d="m-3 1h38.967v30h-38.967zm20.172 6.8887c-1.4217-1.232e-4 -2.5743 1.1721-2.5742 2.6172v2.4141h-1.9258c-1.4217-1.24e-4 -2.5743 1.1721-2.5742 2.6172v3.459c-1.47e-4 1.4433 1.1504 2.6143 2.5703 2.6152h1.9297v1.9551c-0.0012 1.4443 1.1493 2.6171 2.5703 2.6191h12.887v-0.18555h0.91211v-18.111h-11.068z" stroke-opacity="0"/></clipPath></defs><g display="none" fill="#42a5f5"><path d="m13.844 7.536-1.288-1.072a2 2 0 0 0-1.28-0.464h-7.276a2 2 0 0 0-2 2v16a2 2 0 0 0 2 2h24a2 2 0 0 0 2-2v-14a2 2 0 0 0-2-2h-12.876a2 2 0 0 1-1.28-0.464z" display="inline"/><path d="m28.967 12h-19.525a2 2 0 0 0-1.898 1.368l-3.544 10.632v-14h24a2 2 0 0 0-2-2h-10.876a2 2 0 0 1-1.28-0.464l-1.288-1.072a2 2 0 0 0-1.28-0.464h-7.276a2 2 0 0 0-2 2v16a2 2 0 0 0 2 2h22l4.805-11.212a2 2 0 0 0-1.838-2.788z" display="inline"/></g><path d="m28.967 12h-19.525a2 2 0 0 0-1.898 1.368l-3.544 10.632v-14h24a2 2 0 0 0-2-2h-10.876a2 2 0 0 1-1.28-0.464l-1.288-1.072a2 2 0 0 0-1.28-0.464h-7.276a2 2 0 0 0-2 2v16a2 2 0 0 0 2 2h22l4.805-11.212a2 2 0 0 0-1.838-2.788z" clip-path="url(#clipPath33)" display="none" fill="#42a5f5"/><path d="m4 6a2 2 0 0 0-2 2v16a2 2 0 0 0 2 2h12.225c-0.9535-0.38406-1.6279-1.328-1.627-2.4336v-1.9551h-1.9297c-1.4199-9.45e-4 -2.5705-1.172-2.5703-2.6152v-3.459c-1.21e-4 -1.4451 1.1525-2.6173 2.5742-2.6172h1.9258v-2.4141c-1e-4 -1.1821 0.77123-2.1812 1.8301-2.5059h-1.3047a2 2 0 0 1-1.2793-0.46484l-1.2871-1.0703a2 2 0 0 0-1.2812-0.46484z" fill="#42a5f5"/><path d="m21.123 8a2.574 2.574 0 0 0-2.574 2.574v1.512h3.86c0.352 0 0.64 0.513 0.64 0.864h-6.426a2.574 2.574 0 0 0-2.574 2.574v3.404a2.572 2.572 0 0 0 2.571 2.572h1.065v-2.412a2.565 2.565 0 0 1 2.556-2.574h4.734a2.565 2.565 0 0 0 2.574-2.556v-3.384a2.574 2.574 0 0 0-2.574-2.574zm-0.648 1.449c0.36 0 0.648 0.109 0.648 0.64s-0.288 0.8-0.648 0.8c-0.351 0-0.64-0.27-0.64-0.8s0.289-0.64 0.64-0.64z" fill="#0277bd"/><path d="m28.412 12.5v2.412a2.565 2.565 0 0 1-2.556 2.574h-4.733a2.565 2.565 0 0 0-2.574 2.556v3.382a2.574 2.574 0 0 0 2.571 2.576h3.854a2.574 2.574 0 0 0 2.574-2.574v-1.513h-3.862c-0.351 0-0.638-0.512-0.638-0.863h6.426a2.574 2.574 0 0 0 2.574-2.574v-3.403a2.574 2.574 0 0 0-2.574-2.573zm-8.675 4.063-4e-3 3e-3c0.011-3e-3 0.023-2e-3 0.034-3e-3zm5.886 6.547c0.35 0 0.639 0.27 0.639 0.801a0.639 0.639 0 0 1-0.64 0.64c-0.36 0-0.647-0.109-0.647-0.64s0.288-0.8 0.648-0.8z" fill="#fdd835"/></svg>
