<?xml version="1.0" encoding="UTF-8" standalone="no"?> <svg xmlns="http://www.w3.org/2000/svg" viewBox="0 0 32 32"><defs><style>.cls-1{fill:#3f464d;}.cls-2{fill:#363f47;}.cls-3{fill:#66bb6a;}.cls-4{fill:#ccc;}</style></defs><title>Chip, cpu, processor</title><g id="_01" data-name="01"><rect class="cls-1" x="7" y="7" width="18" height="18" rx="1.5" ry="1.5"/><rect class="cls-2" x="9" y="9" width="14" height="14" rx="1.5" ry="1.5"/><rect class="cls-3" x="10" y="10" width="12" height="12" rx="1.5" ry="1.5"/><rect class="cls-4" x="9" y="4" width="2" height="3"/><rect class="cls-4" x="15" y="4" width="2" height="3"/><rect class="cls-4" x="21" y="4" width="2" height="3"/><rect class="cls-4" x="9" y="25" width="2" height="3"/><rect class="cls-4" x="15" y="25" width="2" height="3"/><rect class="cls-4" x="21" y="25" width="2" height="3"/><rect class="cls-4" x="4" y="9" width="3" height="2"/><rect class="cls-4" x="4" y="15" width="3" height="2"/><rect class="cls-4" x="4" y="21" width="3" height="2"/><rect class="cls-4" x="25" y="9" width="3" height="2"/><rect class="cls-4" x="25" y="15" width="3" height="2"/><rect class="cls-4" x="25" y="21" width="3" height="2"/></g></svg>