<svg xmlns="http://www.w3.org/2000/svg" viewBox="0 0 64 64"><g id="SAFE_STORAGE" data-name="SAFE STORAGE"><path d="M26,25c-6.57.12-6.57,9.88,0,10C32.57,34.88,32.57,25.12,26,25Z"/><path d="M38.75,14.57H13.25c-2.42,0-3.54,2.26-3.25,4.43a1,1,0,0,1,1,1v6.32a1,1,0,0,1-1,1v5.36a1,1,0,0,1,1,1V40a1,1,0,0,1-1,1c-.29,2.17.83,4.43,3.25,4.43h25.5A3.26,3.26,0,0,0,42,42.18V17.82A3.26,3.26,0,0,0,38.75,14.57ZM26,37c-9.23-.24-9.23-13.76,0-14C35.23,23.24,35.23,36.76,26,37Z"/><path d="M55.75,9H8.25A5.25,5.25,0,0,0,3,14.25v31.5c.11,4,3.53,5.65,7.18,5.25A3,3,0,0,0,13,55h7a3,3,0,0,0,2.82-4H41.18A3,3,0,0,0,44,55h7a3,3,0,0,0,2.82-4c3.63.41,7.08-1.22,7.18-5.25V14.25A5.25,5.25,0,0,0,55.75,9ZM54.32,26.26l.51-.5c.9-.93,2.34.51,1.41,1.41l-.5.51A1,1,0,0,1,54.32,26.26ZM51,25a1,1,0,0,1,2,0v.71a1,1,0,0,1-2,0Zm-3.24.76c.65-.67,1.46-.07,1.92.5a1,1,0,0,1,0,1.42c-.65.67-1.47.06-1.92-.51A1,1,0,0,1,47.76,25.76ZM44,42.18a5.26,5.26,0,0,1-5.25,5.25H13.25C9.81,47.46,7.58,44.26,8,41a1,1,0,0,1-1-1V33.68a1,1,0,0,1,1-1V27.32a1,1,0,0,1-1-1V20a1,1,0,0,1,1-1c-.42-3.26,1.8-6.46,5.25-6.43h25.5A5.26,5.26,0,0,1,44,17.82ZM46,30c0-.93,1-1.08,1.71-1a1,1,0,0,1,1,1c0,.93-1,1.08-1.71,1A1,1,0,0,1,46,30Zm3.68,3.74c-.46.57-1.27,1.17-1.92.5s-.07-1.46.5-1.92A1,1,0,0,1,49.68,33.74ZM53,35a1,1,0,0,1-2,0v-.71a1,1,0,0,1,2,0Zm-1-1.86c-4.11,0-4.11-6.26,0-6.28S56.11,33.12,52,33.14Zm4.24,1.1c-.65.67-1.46.07-1.92-.5a1,1,0,0,1,0-1.42c.65-.67,1.47-.06,1.92.51A1,1,0,0,1,56.24,34.24ZM57,31c-.73.08-1.73-.06-1.71-1s1-1.08,1.71-1A1,1,0,0,1,57,31Z"/><path d="M52,29a1,1,0,0,0,0,2A1,1,0,0,0,52,29Z"/></g></svg>