<?xml version="1.0" encoding="UTF-8"?>
<!DOCTYPE svg PUBLIC "-//W3C//DTD SVG 1.1//EN" "http://www.w3.org/Graphics/SVG/1.1/DTD/svg11.dtd">
<!-- Creator: CorelDRAW -->
<svg xmlns="http://www.w3.org/2000/svg" xml:space="preserve" width="1.99999in" height="1.99999in" version="1.1" style="shape-rendering:geometricPrecision; text-rendering:geometricPrecision; image-rendering:optimizeQuality; fill-rule:evenodd; clip-rule:evenodd"
viewBox="0 0 2000 2000"
 xmlns:xlink="http://www.w3.org/1999/xlink">
 <defs>
  <style type="text/css">
   <![CDATA[
    .fil0 {fill:black}
    .fil3 {fill:#E3B486}
    .fil2 {fill:#FF700D}
    .fil1 {fill:#FFE600}
   ]]>
  </style>
 </defs>
 <g id="Layer_x0020_1">
  <metadata id="CorelCorpID_0Corel-Layer"/>
  <path class="fil0" d="M442 1320c-9,0 -17,-3 -24,-8 -3,-2 -58,-40 -111,-7 -18,12 -43,6 -55,-12 -12,-19 -6,-44 13,-55 99,-63 196,6 200,9 18,14 22,39 9,56 -8,11 -20,17 -32,17zm1253 480c-11,0 -21,-4 -29,-12l-726 -726 -6 22c-4,15 -17,26 -32,28 -2,1 -5,1 -7,1 -13,0 -25,-7 -33,-18l-92 -136 -164 6c-16,0 -30,-8 -37,-22 -7,-14 -6,-31 4,-43l101 -130 -56 -155c-5,-14 -2,-30 9,-41 11,-11 27,-15 42,-10l155 56 130 -101c12,-9 28,-11 42,-4 14,7 23,21 22,37l-5 164 136 93c13,8 19,24 17,39 -2,15 -14,28 -28,32l-23 7 727 726c15,15 15,41 0,56l-119 119c-8,8 -18,12 -28,12zm-813 -824l0 -1 27 -92c4,-14 14,-24 27,-28l92 -26 1 -1 5 -1 -84 -57c-12,-7 -18,-20 -18,-34l3 -101 -80 62c-10,8 -25,10 -38,6l-95 -35 34 96c5,13 3,27 -6,38l-62 80 101 -3c1,0 1,0 2,0 13,0 25,6 33,17l57 84 1 -4zm84 -2l567 568 62 -62 -567 -568 -48 14 -14 48zm624 624l105 105 62 -62 -105 -105 -62 62zm-807 -1147c-33,0 -65,-13 -88,-37 -49,-49 -49,-128 0,-177 23,-24 55,-37 88,-37 34,0 65,13 89,37 24,24 37,55 37,89 0,33 -13,65 -37,88 -24,24 -55,37 -89,37zm0 -171c-12,0 -23,5 -32,14 -17,17 -17,46 0,64 17,17 47,17 65,0 8,-9 13,-20 13,-32 0,-12 -5,-24 -13,-32 -9,-9 -20,-14 -33,-14zm-73 1039c-34,0 -65,-13 -89,-37 -24,-23 -37,-55 -37,-88 0,-34 13,-65 37,-89 24,-24 55,-37 89,-37 33,0 65,13 88,37 24,24 37,55 37,89 0,33 -13,65 -37,88 -23,24 -55,37 -88,37zm0 -171c-12,0 -24,5 -32,14 -9,8 -14,20 -14,32 0,12 5,23 14,32 17,17 47,17 64,0 8,-9 13,-20 13,-32 0,-12 -5,-24 -13,-32 -9,-9 -20,-14 -32,-14zm-243 -38c-4,0 -8,-1 -11,-2l-129 -38 -129 38c-14,4 -29,1 -40,-10 -10,-10 -14,-26 -10,-40l39 -128 -39 -129c-4,-14 0,-30 10,-40 11,-10 26,-14 40,-10l129 39 129 -39c14,-4 29,0 39,10 11,10 15,26 10,40l-38 129 38 128c5,14 1,30 -10,40 -7,8 -17,12 -28,12zm-221 -261l21 69c2,8 2,16 0,23l-21 69 69 -21c8,-2 16,-2 23,0l70 21 -21 -69c-2,-7 -2,-15 0,-23l21 -69 -70 21c-7,2 -15,2 -23,0l-69 -21zm1282 21c-4,0 -8,0 -12,-1l-94 -29 -94 29c-14,4 -29,0 -40,-10 -10,-11 -14,-26 -10,-40l29 -94 -29 -94c-4,-14 0,-29 10,-40 11,-10 26,-14 40,-10l94 28 94 -28c14,-4 29,0 40,10 10,11 14,26 10,40l-28 94 28 94c4,14 0,29 -10,40 -8,7 -18,11 -28,11zm-152 -191l11 34c2,8 2,16 0,23l-11 35 35 -11c7,-2 15,-2 23,0l34 11 -10 -35c-3,-7 -3,-15 0,-23l10 -34 -34 10c-8,3 -16,3 -23,0l-35 -10zm-880 -36c-8,0 -17,-2 -24,-8 -3,-2 -58,-40 -110,-6 -19,12 -44,6 -56,-13 -11,-18 -6,-43 13,-55 100,-63 196,7 201,10 17,13 21,38 8,56 -8,10 -20,16 -32,16zm640 -83c-13,0 -25,-5 -33,-16 -3,-4 -72,-101 -9,-201 11,-18 36,-24 55,-12 18,12 24,36 12,55 -34,54 6,110 7,111 13,17 9,42 -9,55 -7,6 -15,8 -23,8z"/>
  <path class="fil1" d="M824 896l57 84 1 -4 0 -1 27 -92c4,-14 14,-24 27,-28l92 -26 1 -1 5 -1 -84 -57c-12,-7 -18,-20 -18,-34l3 -101 -80 62c-10,8 -25,10 -38,6l-95 -35 34 96c5,13 3,27 -6,38l-62 80 101 -3c1,0 1,0 2,0 13,0 25,6 33,17z"/>
  <path class="fil2" d="M742 1162c-9,-9 -20,-14 -32,-14 -12,0 -24,5 -32,14 -9,8 -14,20 -14,32 0,12 5,23 14,32 17,17 47,17 64,0 8,-9 13,-20 13,-32 0,-12 -5,-24 -13,-32z"/>
  <path class="fil1" d="M408 1010l-21 -69c-2,-7 -2,-15 0,-23l21 -69 -70 21c-7,2 -15,2 -23,0l-69 -21 21 69c2,8 2,16 0,23l-21 69 69 -21c8,-2 16,-2 23,0l70 21z"/>
  <path class="fil2" d="M751 358c17,17 47,17 65,0 8,-9 13,-20 13,-32 0,-12 -5,-24 -13,-32 -9,-9 -20,-14 -33,-14 -12,0 -23,5 -32,14 -17,17 -17,46 0,64z"/>
  <path class="fil1" d="M1376 679l11 34c2,8 2,16 0,23l-11 35 35 -11c7,-2 15,-2 23,0l34 11 -10 -35c-3,-7 -3,-15 0,-23l10 -34 -34 10c-8,3 -16,3 -23,0l-35 -10z"/>
  <polygon class="fil3" points="1595,1480 1028,912 980,926 966,974 1533,1542 "/>
  <polygon class="fil2" points="1652,1536 1590,1598 1695,1703 1757,1641 "/>
 </g>
</svg>
