<?xml version="1.0" encoding="UTF-8" standalone="no"?> <svg width="64" height="64" viewBox="0 0 64 64" fill="none" xmlns="http://www.w3.org/2000/svg">
<path d="M31.9998 14.7998C9.2698 15.5298 9.2798 48.4798 31.9998 49.1998C54.7298 48.4698 54.7198 15.5198 31.9998 14.7998Z" fill="url(#paint0_linear)"/>
<path d="M32 12C32.2652 12 32.5196 11.8946 32.7071 11.7071C32.8946 11.5196 33 11.2652 33 11V4C33 3.73478 32.8946 3.48043 32.7071 3.29289C32.5196 3.10536 32.2652 3 32 3C31.7348 3 31.4804 3.10536 31.2929 3.29289C31.1054 3.48043 31 3.73478 31 4V11C31 11.2652 31.1054 11.5196 31.2929 11.7071C31.4804 11.8946 31.7348 12 32 12Z" fill="url(#paint1_linear)"/>
<path d="M46.8397 18.1601C47.2597 18.5601 52.1597 13.1001 52.5097 12.9101C53.4397 12.0101 51.9997 10.5601 51.0897 11.4901L46.0897 16.4901C45.9597 16.6342 45.8744 16.813 45.8442 17.0047C45.814 17.1964 45.8403 17.3928 45.9198 17.5698C45.9993 17.7469 46.1286 17.897 46.292 18.0018C46.4553 18.1066 46.6456 18.1616 46.8397 18.1601V18.1601Z" fill="url(#paint2_linear)"/>
<path d="M60 31H53C52.7348 31 52.4804 31.1054 52.2929 31.2929C52.1054 31.4804 52 31.7348 52 32C52 32.2652 52.1054 32.5196 52.2929 32.7071C52.4804 32.8946 52.7348 33 53 33H60C60.2652 33 60.5196 32.8946 60.7071 32.7071C60.8946 32.5196 61 32.2652 61 32C61 31.7348 60.8946 31.4804 60.7071 31.2929C60.5196 31.1054 60.2652 31 60 31Z" fill="url(#paint3_linear)"/>
<path d="M47.5401 46.1301C46.6401 45.2001 45.2001 46.6401 46.1301 47.5401L51.1301 52.5401C51.3184 52.7284 51.5738 52.8342 51.8401 52.8342C52.1064 52.8342 52.3618 52.7284 52.5501 52.5401C52.7384 52.3518 52.8442 52.0964 52.8442 51.8301C52.8442 51.5638 52.7384 51.3084 52.5501 51.1201L47.5401 46.1301Z" fill="url(#paint4_linear)"/>
<path d="M32 52C31.7348 52 31.4804 52.1054 31.2929 52.2929C31.1054 52.4804 31 52.7348 31 53V60C31 60.2652 31.1054 60.5196 31.2929 60.7071C31.4804 60.8946 31.7348 61 32 61C32.2652 61 32.5196 60.8946 32.7071 60.7071C32.8946 60.5196 33 60.2652 33 60V53C33 52.7348 32.8946 52.4804 32.7071 52.2929C32.5196 52.1054 32.2652 52 32 52Z" fill="url(#paint5_linear)"/>
<path d="M16.46 46.1303L14.07 48.5203C12.33 50.5203 10.5 51.1503 11.49 52.5203C11.5829 52.6141 11.6935 52.6885 11.8154 52.7392C11.9373 52.79 12.068 52.8161 12.2 52.8161C12.332 52.8161 12.4627 52.79 12.5846 52.7392C12.7064 52.6885 12.817 52.6141 12.91 52.5203L17.91 47.5203C18.8 46.6403 17.36 45.2003 16.46 46.1303Z" fill="url(#paint6_linear)"/>
<path d="M12 32C12 31.7348 11.8946 31.4804 11.7071 31.2929C11.5196 31.1054 11.2652 31 11 31H4C3.73478 31 3.48043 31.1054 3.29289 31.2929C3.10536 31.4804 3 31.7348 3 32C3 32.2652 3.10536 32.5196 3.29289 32.7071C3.48043 32.8946 3.73478 33 4 33H11C11.2652 33 11.5196 32.8946 11.7071 32.7071C11.8946 32.5196 12 32.2652 12 32Z" fill="url(#paint7_linear)"/>
<path d="M16.4603 17.8701C17.3603 18.8001 18.8003 17.3601 17.8703 16.4601L12.8703 11.4601C12.682 11.2718 12.4266 11.166 12.1603 11.166C11.894 11.166 11.6386 11.2718 11.4503 11.4601C11.262 11.6484 11.1563 11.9038 11.1562 12.1701C11.1563 12.4364 11.262 12.6918 11.4503 12.8801L16.4603 17.8701Z" fill="url(#paint8_linear)"/>
<path d="M44.1097 38.8097C37.9097 39.1297 35.4897 31.1097 41.1097 28.3497C41.2267 28.2895 41.3307 28.2067 41.4157 28.1062C41.5007 28.0057 41.5651 27.8894 41.605 27.764C41.645 27.6385 41.6598 27.5065 41.6485 27.3753C41.6373 27.2442 41.6003 27.1165 41.5397 26.9997C38.9637 22.8647 36.1105 18.9089 32.9997 15.1597C32.9058 15.0482 32.7887 14.9585 32.6566 14.8971C32.5244 14.8356 32.3804 14.8037 32.2347 14.8037C32.0889 14.8037 31.9449 14.8356 31.8128 14.8971C31.6807 14.9585 31.5636 15.0482 31.4697 15.1597C30.9697 15.7497 19.1797 29.8097 19.1797 36.5397C19.2376 39.9488 20.6449 43.1959 23.093 45.569C25.5412 47.9422 28.8304 49.2478 32.2397 49.1997C35.0337 49.2166 37.7596 48.3369 40.0167 46.69C42.2738 45.043 43.9432 42.7156 44.7797 40.0497C44.8543 39.7964 44.8258 39.5239 44.7003 39.2916C44.5748 39.0593 44.3625 38.886 44.1097 38.8097Z" fill="url(#paint9_linear)"/>
<path d="M39.61 37.1802C39.5171 37.0865 39.4065 37.0121 39.2846 36.9614C39.1628 36.9106 39.0321 36.8844 38.9 36.8844C38.768 36.8844 38.6373 36.9106 38.5155 36.9614C38.3936 37.0121 38.283 37.0865 38.19 37.1802L33.24 42.0002V37.6102L37.66 33.3302C38.66 32.4402 37.19 30.9702 36.27 31.8902L33.27 34.8202V29.8202L37 26.2402C37.191 26.0559 37.3009 25.8033 37.3056 25.5379C37.3103 25.2726 37.2094 25.0162 37.025 24.8252C36.8407 24.6343 36.5881 24.5244 36.3227 24.5197C36.0574 24.515 35.801 24.6159 35.61 24.8002L31.61 28.6902C31.5267 28.7743 31.459 28.8725 31.41 28.9802C31.2924 29.64 31.2588 30.312 31.31 30.9802L28.98 28.7302C28.06 27.8102 26.65 29.2802 27.59 30.1702L31.31 33.7602V38.7602L26.31 33.9202C25.4 33.0102 23.98 34.4702 24.92 35.3602L31.32 41.5402V45.8902L24.89 39.7002C24.6991 39.5159 24.4427 39.415 24.1774 39.4197C23.912 39.4244 23.6594 39.5343 23.475 39.7252C23.2907 39.9162 23.1898 40.1726 23.1945 40.4379C23.1992 40.7033 23.3091 40.9559 23.5 41.1402L31.5 48.9202C31.641 49.0584 31.8198 49.1518 32.0138 49.1886C32.2077 49.2254 32.4083 49.2039 32.5901 49.1269C32.7719 49.0499 32.9268 48.9209 33.0353 48.7559C33.1439 48.591 33.2012 48.3977 33.2 48.2002V44.7302L39.54 38.6002C39.6385 38.512 39.7185 38.4051 39.7753 38.2857C39.8322 38.1664 39.8648 38.0369 39.8714 37.9049C39.8779 37.7728 39.8581 37.6408 39.8133 37.5164C39.7684 37.392 39.6993 37.2778 39.61 37.1802V37.1802Z" fill="url(#paint10_linear)"/>
<path d="M27.4297 18.5202C25.7297 16.6202 20.9997 22.7902 22.4297 24.2202C24.0997 26.1202 28.8297 20.0002 27.4297 18.5202Z" fill="white"/>
<path d="M19.71 27.2298C18.32 29.2298 19.34 30.9398 21 28.5298C22.39 26.4998 21.38 24.8198 19.71 27.2298Z" fill="white"/>
<defs>
<linearGradient id="paint0_linear" x1="14.9598" y1="31.9998" x2="49.0398" y2="31.9998" gradientUnits="userSpaceOnUse">
<stop stop-color="#B7D389"/>
<stop offset="0.22" stop-color="#A1C571"/>
<stop offset="0.69" stop-color="#69A134"/>
<stop offset="1" stop-color="#418808"/>
</linearGradient>
<linearGradient id="paint1_linear" x1="93" y1="70.59" x2="97" y2="70.59" gradientUnits="userSpaceOnUse">
<stop stop-color="#B7D389"/>
<stop offset="0.22" stop-color="#A1C571"/>
<stop offset="0.69" stop-color="#69A134"/>
<stop offset="1" stop-color="#418808"/>
</linearGradient>
<linearGradient id="paint2_linear" x1="365.729" y1="113.883" x2="414.369" y2="113.883" gradientUnits="userSpaceOnUse">
<stop stop-color="#B7D389"/>
<stop offset="0.22" stop-color="#A1C571"/>
<stop offset="0.69" stop-color="#69A134"/>
<stop offset="1" stop-color="#418808"/>
</linearGradient>
<linearGradient id="paint3_linear" x1="519.82" y1="95" x2="600.73" y2="95" gradientUnits="userSpaceOnUse">
<stop stop-color="#B7D389"/>
<stop offset="0.22" stop-color="#A1C571"/>
<stop offset="0.69" stop-color="#69A134"/>
<stop offset="1" stop-color="#418808"/>
</linearGradient>
<linearGradient id="paint4_linear" x1="367.331" y1="391.25" x2="416.226" y2="391.25" gradientUnits="userSpaceOnUse">
<stop stop-color="#B7D389"/>
<stop offset="0.22" stop-color="#A1C571"/>
<stop offset="0.69" stop-color="#69A134"/>
<stop offset="1" stop-color="#418808"/>
</linearGradient>
<linearGradient id="paint5_linear" x1="93" y1="560.41" x2="97" y2="560.41" gradientUnits="userSpaceOnUse">
<stop stop-color="#B7D389"/>
<stop offset="0.22" stop-color="#A1C571"/>
<stop offset="0.69" stop-color="#69A134"/>
<stop offset="1" stop-color="#418808"/>
</linearGradient>
<linearGradient id="paint6_linear" x1="89.442" y1="390.36" x2="138.014" y2="390.36" gradientUnits="userSpaceOnUse">
<stop stop-color="#B7D389"/>
<stop offset="0.22" stop-color="#A1C571"/>
<stop offset="0.69" stop-color="#69A134"/>
<stop offset="1" stop-color="#418808"/>
</linearGradient>
<linearGradient id="paint7_linear" x1="30" y1="95" x2="111.18" y2="95" gradientUnits="userSpaceOnUse">
<stop stop-color="#B7D389"/>
<stop offset="0.22" stop-color="#A1C571"/>
<stop offset="0.69" stop-color="#69A134"/>
<stop offset="1" stop-color="#418808"/>
</linearGradient>
<linearGradient id="paint8_linear" x1="89.7253" y1="114.071" x2="138.621" y2="114.071" gradientUnits="userSpaceOnUse">
<stop stop-color="#B7D389"/>
<stop offset="0.22" stop-color="#A1C571"/>
<stop offset="0.69" stop-color="#69A134"/>
<stop offset="1" stop-color="#418808"/>
</linearGradient>
<linearGradient id="paint9_linear" x1="19.1797" y1="32.0097" x2="44.8197" y2="32.0097" gradientUnits="userSpaceOnUse">
<stop stop-color="#418607"/>
<stop offset="0.91" stop-color="#206507"/>
<stop offset="1" stop-color="#1D6207"/>
</linearGradient>
<linearGradient id="paint10_linear" x1="410.129" y1="934.22" x2="688.489" y2="934.22" gradientUnits="userSpaceOnUse">
<stop stop-color="#B7D389"/>
<stop offset="0.22" stop-color="#A1C571"/>
<stop offset="0.69" stop-color="#69A134"/>
<stop offset="1" stop-color="#418808"/>
</linearGradient>
</defs>
</svg>
