<?xml version="1.0" encoding="UTF-8" standalone="no"?> <svg width="64" height="64" viewBox="0 0 64 64" fill="none" xmlns="http://www.w3.org/2000/svg">
<path d="M53 17V52C53 52.2652 52.8947 52.5196 52.7071 52.7071C52.5196 52.8946 52.2652 53 52 53H12C11.7348 53 11.4804 52.8946 11.2929 52.7071C11.1054 52.5196 11 52.2652 11 52V17.41C10.9986 17.2671 11.033 17.1262 11.1 17H53Z" fill="#FF9811"/>
<path d="M53 39V45H47C46.7348 45 46.4804 44.8946 46.2929 44.7071C46.1054 44.5196 46 44.2652 46 44V40C46 39.7348 46.1054 39.4804 46.2929 39.2929C46.4804 39.1054 46.7348 39 47 39H53Z" fill="#EE8700"/>
<path d="M61.29 39.29C61.4774 39.4788 61.5825 39.734 61.5825 40C61.5825 40.266 61.4774 40.5212 61.29 40.71L54.71 46.29C54.5707 46.4304 54.3929 46.5264 54.1991 46.5658C54.0053 46.6052 53.8042 46.5862 53.6211 46.5113C53.4381 46.4363 53.2814 46.3088 53.1708 46.1448C53.0603 45.9808 53.0008 45.7878 53 45.59V43H45C44.7348 43 44.4804 42.8946 44.2929 42.7071C44.1054 42.5196 44 42.2652 44 42V38C44 37.7348 44.1054 37.4804 44.2929 37.2929C44.4804 37.1053 44.7348 37 45 37H53V34.41C53.0008 34.2122 53.0603 34.0191 53.1708 33.8552C53.2814 33.6912 53.4381 33.5636 53.6211 33.4887C53.8042 33.4138 54.0053 33.3948 54.1991 33.4342C54.3929 33.4736 54.5707 33.5696 54.71 33.71L61.29 39.29Z" fill="#FF5023"/>
<path d="M39 51C38.9984 51.53 38.7872 52.0377 38.4125 52.4125C38.0377 52.7872 37.5299 52.9984 37 53H12C11.7348 53 11.4804 52.8947 11.2929 52.7071C11.1054 52.5196 11 52.2652 11 52V45H12.76C12.8418 45.0014 12.9231 44.9878 13 44.96C13.1739 44.9218 13.3334 44.8351 13.46 44.71L20.83 37.34C21.015 37.1546 21.2348 37.0075 21.4768 36.9072C21.7187 36.8068 21.9781 36.7551 22.24 36.7551C22.5019 36.7551 22.7613 36.8068 23.0032 36.9072C23.2452 37.0075 23.465 37.1546 23.65 37.34L23.66 37.35C23.8454 37.535 23.9925 37.7548 24.0929 37.9968C24.1932 38.2387 24.2449 38.4981 24.2449 38.76C24.2449 39.022 24.1932 39.2813 24.0929 39.5233C23.9925 39.7652 23.8454 39.985 23.66 40.17L20.83 43L20.54 43.29C20.3996 43.4293 20.3036 43.6071 20.2642 43.8009C20.2248 43.9947 20.2438 44.1958 20.3187 44.3789C20.3937 44.5619 20.5212 44.7186 20.6852 44.8292C20.8491 44.9397 21.0422 44.9992 21.24 45H33C33.5299 45.0016 34.0377 45.2128 34.4125 45.5876C34.7872 45.9623 34.9984 46.4701 35 47C34.9961 47.5292 34.7841 48.0357 34.4099 48.4099C34.0356 48.7841 33.5292 48.9961 33 49H37C37.5292 49.0039 38.0356 49.2159 38.4099 49.5901C38.7841 49.9644 38.9961 50.4708 39 51V51Z" fill="#EE8700"/>
<path d="M33 53C32.9984 53.53 32.7872 54.0377 32.4125 54.4125C32.0377 54.7872 31.5299 54.9984 31 55H26.89C27.4031 54.9902 27.9016 55.1707 28.2894 55.5068C28.6772 55.8429 28.9268 56.3107 28.99 56.82C29.0135 57.0962 28.9795 57.3743 28.8903 57.6368C28.8011 57.8993 28.6586 58.1404 28.4717 58.3452C28.2848 58.5499 28.0576 58.7138 27.8043 58.8265C27.551 58.9392 27.2772 58.9983 27 59H11.41C11.1479 58.998 10.8968 58.8939 10.71 58.71L9.29 57.29C9.1032 57.1061 8.85215 57.0021 8.59 57H4C3.73478 57 3.48043 56.8947 3.29289 56.7071C3.10536 56.5196 3 56.2652 3 56V43H10.76C10.8418 43.0014 10.9231 42.9878 11 42.96C11.1739 42.9218 11.3334 42.8351 11.46 42.71L18.83 35.34C19.015 35.1546 19.2348 35.0075 19.4768 34.9072C19.7187 34.8068 19.9781 34.7551 20.24 34.7551C20.5019 34.7551 20.7613 34.8068 21.0032 34.9072C21.2452 35.0075 21.465 35.1546 21.65 35.34L21.66 35.35C21.8454 35.535 21.9925 35.7548 22.0929 35.9968C22.1932 36.2387 22.2449 36.4981 22.2449 36.76C22.2449 37.022 22.1932 37.2813 22.0929 37.5233C21.9925 37.7652 21.8454 37.985 21.66 38.17L18.83 41L18.54 41.29C18.3996 41.4293 18.3036 41.6071 18.2642 41.8009C18.2248 41.9947 18.2438 42.1958 18.3187 42.3789C18.3937 42.5619 18.5212 42.7186 18.6852 42.8292C18.8491 42.9397 19.0422 42.9992 19.24 43H31C31.5299 43.0016 32.0377 43.2128 32.4125 43.5876C32.7872 43.9623 32.9984 44.4701 33 45C32.9961 45.5292 32.7841 46.0357 32.4099 46.4099C32.0356 46.7841 31.5292 46.9961 31 47H35C35.5292 47.0039 36.0356 47.2159 36.4099 47.5901C36.7841 47.9644 36.9961 48.4708 37 49C36.9984 49.53 36.7872 50.0377 36.4125 50.4125C36.0377 50.7872 35.5299 50.9984 35 51H31C31.5292 51.0039 32.0356 51.2159 32.4099 51.5901C32.7841 51.9644 32.9961 52.4708 33 53V53Z" fill="#FFC477"/>
<path d="M11 39V42.96C10.9231 42.9878 10.8418 43.0014 10.76 43H3V40C3 39.7348 3.10536 39.4804 3.29289 39.2929C3.48043 39.1054 3.73478 39 4 39H11Z" fill="#FFB655"/>
<path d="M27 29V32C27 32.2652 26.8946 32.5196 26.7071 32.7071C26.5196 32.8946 26.2652 33 26 33H18C17.7348 33 17.4804 32.8946 17.2929 32.7071C17.1054 32.5196 17 32.2652 17 32V24C17 23.7348 17.1054 23.4804 17.2929 23.2929C17.4804 23.1054 17.7348 23 18 23H26C26.2652 23 26.5196 23.1054 26.7071 23.2929C26.8946 23.4804 27 23.7348 27 24V29Z" fill="#EE8700"/>
<path d="M53 17V23H48C47.7348 23 47.4804 22.8946 47.2929 22.7071C47.1054 22.5196 47 22.2652 47 22V17H53Z" fill="#EE8700"/>
<path d="M25 27V30C25 30.2652 24.8946 30.5196 24.7071 30.7071C24.5196 30.8946 24.2652 31 24 31H16C15.7348 31 15.4804 30.8946 15.2929 30.7071C15.1054 30.5196 15 30.2652 15 30V22C15 21.7348 15.1054 21.4804 15.2929 21.2929C15.4804 21.1054 15.7348 21 16 21H24C24.2652 21 24.5196 21.1054 24.7071 21.2929C24.8946 21.4804 25 21.7348 25 22V27Z" fill="#E6E7E8"/>
<path d="M53 9V17H11.1C11.1417 16.8908 11.2065 16.7919 11.29 16.71L18.71 9.29C18.8968 9.10607 19.1479 9.00206 19.41 9H53Z" fill="#EE8700"/>
<path d="M45 16V6C45 5.73478 45.1054 5.48043 45.2929 5.29289C45.4804 5.10536 45.7348 5 46 5H60C60.2652 5 60.5196 5.10536 60.7071 5.29289C60.8946 5.48043 61 5.73478 61 6V20C61 20.2652 60.8946 20.5196 60.7071 20.7071C60.5196 20.8946 60.2652 21 60 21H46C45.7348 21 45.4804 20.8946 45.2929 20.7071C45.1054 20.5196 45 20.2652 45 20V16Z" fill="#FF5023"/>
<path d="M42 10V8H19.41C18.8822 8.0013 18.376 8.20955 18 8.58L10.58 16C10.412 16.1687 10.2794 16.3693 10.19 16.59C10.0615 16.844 9.99632 17.1253 10 17.41V38H4C3.47005 38.0016 2.96227 38.2128 2.58753 38.5875C2.2128 38.9623 2.00158 39.4701 2 40V56C2.00158 56.5299 2.2128 57.0377 2.58753 57.4125C2.96227 57.7872 3.47005 57.9984 4 58H8.59L10 59.41C10.1843 59.5967 10.4038 59.745 10.6459 59.8463C10.8879 59.9476 11.1476 59.9998 11.41 60H27C27.3918 60.0022 27.7802 59.9264 28.1424 59.777C28.5047 59.6276 28.8336 59.4077 29.11 59.13C29.4225 58.8202 29.6632 58.4456 29.8152 58.0327C29.9673 57.6197 30.0269 57.1785 29.99 56.74C29.9657 56.486 29.905 56.2368 29.81 56H31C31.4808 56.0032 31.9553 55.8901 32.3829 55.6702C32.8105 55.4503 33.1785 55.1301 33.4556 54.7371C33.7327 54.3442 33.9105 53.89 33.974 53.4133C34.0374 52.9367 33.9846 52.4518 33.82 52H35C35.7956 52 36.5587 51.6839 37.1213 51.1213C37.6839 50.5587 38 49.7956 38 49C38 48.2044 37.6839 47.4413 37.1213 46.8787C36.5587 46.3161 35.7956 46 35 46H33.82C33.9846 45.5482 34.0374 45.0633 33.974 44.5867C33.9105 44.11 33.7327 43.6558 33.4556 43.2629C33.1785 42.8699 32.8105 42.5497 32.3829 42.3298C31.9553 42.1099 31.4808 41.9968 31 42H19.24L22.37 38.88C22.9336 38.3164 23.2502 37.552 23.2502 36.755C23.2502 35.958 22.9336 35.1936 22.37 34.63C21.8064 34.0664 21.042 33.7498 20.245 33.7498C19.448 33.7498 18.6836 34.0664 18.12 34.63L12 40.76V18H42V16H13.41L19.41 10H42ZM4 40H10V42H4V40ZM12.17 43.41L19.54 36.05C19.7313 35.8862 19.9774 35.8006 20.2291 35.8103C20.4807 35.82 20.7195 35.9243 20.8976 36.1024C21.0757 36.2805 21.18 36.5193 21.1897 36.7709C21.1994 37.0226 21.1138 37.2687 20.95 37.46L17.83 40.59C17.5508 40.8701 17.3609 41.2268 17.2844 41.6148C17.2079 42.0028 17.2481 42.4048 17.4 42.77C17.5494 43.1349 17.8043 43.447 18.1321 43.6661C18.4599 43.8852 18.8457 44.0015 19.24 44H31C31.2652 44 31.5196 44.1054 31.7071 44.2929C31.8946 44.4804 32 44.7348 32 45C32 45.2652 31.8946 45.5196 31.7071 45.7071C31.5196 45.8946 31.2652 46 31 46H19V48H35C35.2652 48 35.5196 48.1054 35.7071 48.2929C35.8946 48.4804 36 48.7348 36 49C36 49.2652 35.8946 49.5196 35.7071 49.7071C35.5196 49.8946 35.2652 50 35 50H19V52H31C31.2652 52 31.5196 52.1054 31.7071 52.2929C31.8946 52.4804 32 52.7348 32 53C32 53.2652 31.8946 53.5196 31.7071 53.7071C31.5196 53.8946 31.2652 54 31 54H19V56H26.89C27.1537 55.992 27.4115 56.0797 27.6155 56.247C27.8196 56.4143 27.9561 56.6498 28 56.91C28.012 57.0581 27.9904 57.207 27.9367 57.3455C27.883 57.4841 27.7987 57.6087 27.69 57.71C27.6014 57.8036 27.4943 57.8777 27.3755 57.9276C27.2567 57.9776 27.1288 58.0022 27 58H11.41L10 56.59C9.81569 56.4033 9.59616 56.255 9.35413 56.1537C9.11209 56.0524 8.85237 56.0002 8.59 56H4V44H10.76C11.0224 43.9998 11.2821 43.9476 11.5241 43.8463C11.7662 43.745 11.9857 43.5967 12.17 43.41V43.41Z" fill="black"/>
<path d="M54 49V52C53.9984 52.5299 53.7872 53.0377 53.4125 53.4125C53.0377 53.7872 52.5299 53.9984 52 54H36V52H52V49H54Z" fill="black"/>
<path d="M54 22H52V31H54V22Z" fill="black"/>
<path d="M62 38.586C61.9806 38.5663 61.9603 38.5476 61.939 38.53L55.414 33C55.1343 32.7204 54.778 32.53 54.3901 32.4528C54.0022 32.3757 53.6001 32.4153 53.2347 32.5666C52.8693 32.718 52.557 32.9743 52.3372 33.3031C52.1174 33.6319 52.0001 34.0185 52 34.414V36H45C44.4696 36 43.9609 36.2107 43.5858 36.5858C43.2107 36.9609 43 37.4696 43 38V42C43 42.5304 43.2107 43.0391 43.5858 43.4142C43.9609 43.7893 44.4696 44 45 44H52V45.586C51.9999 45.9815 52.1171 46.3682 52.3367 46.6972C52.5564 47.0261 52.8686 47.2825 53.234 47.434C53.482 47.5363 53.7477 47.5889 54.016 47.589C54.5149 47.5952 54.996 47.4036 55.354 47.056L62 41.414C62.3749 41.0389 62.5856 40.5303 62.5856 40C62.5856 39.4697 62.3749 38.9611 62 38.586ZM54 45.586V43C54 42.7348 53.8946 42.4804 53.7071 42.2929C53.5196 42.1054 53.2652 42 53 42H45V38H53C53.2652 38 53.5196 37.8946 53.7071 37.7071C53.8946 37.5196 54 37.2652 54 37L54.061 34.47L60.581 40L54 45.586Z" fill="black"/>
<path d="M44 28H30V30H44V28Z" fill="black"/>
<path d="M48 32H30V34H48V32Z" fill="black"/>
<path d="M16 22H19V20H16C15.4696 20 14.9609 20.2107 14.5858 20.5858C14.2107 20.9609 14 21.4696 14 22V25H16V22Z" fill="black"/>
<path d="M14 30C14 30.5304 14.2107 31.0391 14.5858 31.4142C14.9609 31.7893 15.4696 32 16 32H19.019V30H16V27H14V30Z" fill="black"/>
<path d="M26 22C26 21.4696 25.7893 20.9609 25.4142 20.5858C25.0391 20.2107 24.5304 20 24 20H21V22H24V25H26V22Z" fill="black"/>
<path d="M24 30H20.981V32H24C24.5304 32 25.0391 31.7893 25.4142 31.4142C25.7893 31.0391 26 30.5304 26 30V27H24V30Z" fill="black"/>
<path d="M36 12H32V14H36V12Z" fill="black"/>
<path d="M30 12H26V14H30V12Z" fill="black"/>
<path d="M24 12H20V14H24V12Z" fill="black"/>
<path d="M42 12H38V14H42V12Z" fill="black"/>
<path d="M47.293 13.707L49.586 16C49.9611 16.3749 50.4697 16.5856 51 16.5856C51.5303 16.5856 52.0389 16.3749 52.414 16L57.707 10.707L56.293 9.293L51 14.586L48.707 12.293L47.293 13.707Z" fill="black"/>
<path d="M46 6H49.965V4H46C45.4696 4 44.9609 4.21071 44.5858 4.58579C44.2107 4.96086 44 5.46957 44 6V10H46V6Z" fill="black"/>
<path d="M60 10H62V6C62 5.46957 61.7893 4.96086 61.4142 4.58579C61.0391 4.21071 60.5304 4 60 4H56V6H60V10Z" fill="black"/>
<path d="M60 20H56V22H60C60.5304 22 61.0391 21.7893 61.4142 21.4142C61.7893 21.0391 62 20.5304 62 20V16H60V20Z" fill="black"/>
<path d="M46 22H50V20H46V16H44V20C44 20.5304 44.2107 21.0391 44.5858 21.4142C44.9609 21.7893 45.4696 22 46 22Z" fill="black"/>
</svg>
