<?xml version="1.0" encoding="UTF-8" standalone="no"?> <svg xmlns="http://www.w3.org/2000/svg" viewBox="0 0 64 64"><g id="Layer_21" data-name="Layer 21"><path d="M53.47,27c-2.32-3.47,1.54-7.41-.07-11.06-1.14-2.86-4.76-3.79-6.8-5.74-3.65-4.7-4-8.76-11.38-6.59a10.28,10.28,0,0,1-6.44,0c-1.9-.47-3.86-.95-5.64-.21-2.86,1.14-3.8,4.77-5.75,6.8-4.7,3.68-8.74,4-6.59,11.39a13.59,13.59,0,0,1,.55,3.22c-.17,1.84-2.35,3.93-1.74,6S13,33.56,14.07,35a5.78,5.78,0,0,1,.37,2.27c0,2,.55,4.32,2.92,4.69A7.2,7.2,0,0,1,22,45.18a7.15,7.15,0,0,0,4.84,3.3A25.64,25.64,0,0,1,20.8,59H12.48a1,1,0,0,0,0,2h39a1,1,0,1,0,0-2H43.2a25.46,25.46,0,0,1-6-10.33A7.12,7.12,0,0,0,42,45.31,7.61,7.61,0,0,1,46.79,42c2.27-.43,2.77-2.68,2.77-4.65A5.78,5.78,0,0,1,49.93,35a5.66,5.66,0,0,1,1.73-1.42C54.61,31.93,55.26,30,53.47,27ZM21.32,28.12c-.4-1.37-2.44-2.57-2.63-3.85,0-1.27.95-2.42,1.95-3.64a12.52,12.52,0,0,0,2.58-4.45c1.68-5.52,4.35-3.44,8.78-3.28,4.42-.16,7.1-2.24,8.78,3.28a12.52,12.52,0,0,0,2.58,4.45c1,1.22,2,2.37,2,3.64-.19,1.28-2.23,2.48-2.63,3.86a6.81,6.81,0,0,0-.21,2.59c0,1.19.25,2.12-.88,2.41A7.29,7.29,0,0,0,37.47,36a2.9,2.9,0,0,1-1.28,1A13.26,13.26,0,0,1,40,29.18a1,1,0,0,0-1.41-1.41,15.15,15.15,0,0,0-4.48,10.56c-.45,7.36,1.47,14.78,6.22,20.45a10.91,10.91,0,0,1-5.09-2.27,5,5,0,0,0-6.48,0,10.91,10.91,0,0,1-5.09,2.27c4.75-5.67,6.67-13.08,6.22-20.44a15.19,15.19,0,0,0-4.48-10.57A1,1,0,0,0,24,29.18,13.26,13.26,0,0,1,27.81,37a2.86,2.86,0,0,1-1.22-1,7.31,7.31,0,0,0-4.15-2.89,1.46,1.46,0,0,1-.68-.36C21.13,31.66,21.9,29.43,21.32,28.12ZM28.72,59c2.9-2.26,3.66-2.25,6.56,0ZM52.46,30.23c-.64,1.46-3.5,2.22-4.27,3.82-1,1.46-.23,4.33-1.15,5.62a1.51,1.51,0,0,1-.73.35,9.57,9.57,0,0,0-6,4.26,5.19,5.19,0,0,1-3.61,2.46,31.74,31.74,0,0,1-.59-7.55,4.89,4.89,0,0,0,3-2.09,5.34,5.34,0,0,1,3-2.05c3.2-.91,2-4,2.39-6.24.72-1.46,2.8-2.61,2.75-4.54-.13-3.7-3.83-5.4-4.66-8.81C40.53,9.15,37.46,10.31,32,10.9c-5.45-.58-8.53-1.76-10.65,4.57-.83,3.39-4.53,5.11-4.66,8.8-.05,1.92,2,3.09,2.74,4.53.43,2.3-.82,5.35,2.44,6.26a5.43,5.43,0,0,1,3.05,2.07,4.84,4.84,0,0,0,3,2,32.28,32.28,0,0,1-.55,7.36,5.14,5.14,0,0,1-3.61-2.41,9.27,9.27,0,0,0-6-4.09c-1.39-.24-1.21-1.4-1.34-2.82a7,7,0,0,0-.63-3.17,6.81,6.81,0,0,0-2.39-2.11c-.84-.55-1.71-1.11-1.88-1.71a4.33,4.33,0,0,1,.77-2.33c1.42-2.12,1.11-4.51.44-6.81C10.64,14.73,15.1,15,18.81,11.6c1.86-1.75,2.83-5.37,5.09-6.37,2.27-.84,5.56,1,8.1.91,2.55.09,5.82-1.75,8.1-.91,2.25,1,3.23,4.62,5.09,6.36s5.36,2.84,6.36,5.1c.84,2.27-1,5.55-.9,8.1a7.05,7.05,0,0,0,1,3.11A4.33,4.33,0,0,1,52.46,30.23Z"/></g></svg>