<?xml version="1.0" encoding="UTF-8"?>
<!DOCTYPE svg PUBLIC "-//W3C//DTD SVG 1.1//EN" "http://www.w3.org/Graphics/SVG/1.1/DTD/svg11.dtd">
<!-- Creator: CorelDRAW -->
<svg xmlns="http://www.w3.org/2000/svg" xml:space="preserve" width="1.70666in" height="1.70666in" version="1.1" style="shape-rendering:geometricPrecision; text-rendering:geometricPrecision; image-rendering:optimizeQuality; fill-rule:evenodd; clip-rule:evenodd"
viewBox="0 0 1706.66 1706.66"
 xmlns:xlink="http://www.w3.org/1999/xlink"
 xmlns:xodm="http://www.corel.com/coreldraw/odm/2003">
 <defs>
  <style type="text/css">
   <![CDATA[
    .fil0 {fill:#00CCFF}
    .fil1 {fill:#96EAFF}
   ]]>
  </style>
 </defs>
 <g id="Layer_x0020_1">
  <metadata id="CorelCorpID_0Corel-Layer"/>
  <path class="fil0" d="M1623.7 1581.07l-1540.74 0c-45.69,0 -82.76,-37.07 -82.76,-82.76l0 -1015.45c0,-45.68 37.07,-82.76 82.76,-82.76l1540.74 0c45.68,0 82.76,37.07 82.76,82.76l0 1015.45c-0,45.54 -37.08,82.76 -82.76,82.76zm-1540.74 -1140.97c-23.61,0 -42.77,19.16 -42.77,42.76l0 1015.45c0,23.61 19.17,42.76 42.77,42.76l1540.74 0.01c23.61,0 42.77,-19.17 42.77,-42.77l0 -1015.45c0,-23.61 -19.17,-42.76 -42.77,-42.76l-1540.74 0z"/>
  <path class="fil0" d="M1167 440.1l-627.35 0c-11.11,0 -20,-8.89 -20,-20l0 -196.06c0,-54.29 44.15,-98.44 98.44,-98.44l470.44 0c54.3,0 98.45,44.15 98.45,98.44l0 196.06c0,11.11 -9.02,20 -20,20zm-607.35 -39.99l587.36 0 0 -176.07c0,-32.21 -26.24,-58.46 -58.46,-58.46l-470.44 0c-32.21,0 -58.46,26.24 -58.46,58.46l-0 176.07z"/>
  <path class="fil0" d="M1067.03 440.1l-425.45 0c-11.11,0 -20,-8.89 -20,-20l0 -143.16c0,-11.11 8.89,-20 20,-20l425.31 0.01c10.96,0 20,8.89 20,20l0 143.15c0.14,11.11 -8.89,20 -19.86,20zm-405.46 -39.99l385.33 0 0 -103.17 -385.33 0 0 103.17z"/>
  <path class="fil0" d="M305.69 440.1c-154.97,0 -143.03,12.66 -143.03,-51.52 0,-28.33 23.05,-51.38 51.38,-51.38l60.26 0c28.33,0 51.37,23.05 51.37,51.38 0,21.04 5.19,51.52 -19.99,51.52zm-103.03 -39.99l83.03 0c0,-28.98 0.23,-22.91 -71.65,-22.91 -13.41,0 -11.39,15.28 -11.39,22.91z"/>
  <path class="fil0" d="M1524 440.1c-154.85,0 -143.02,12.65 -143.02,-51.52 0,-28.33 23.05,-51.38 51.37,-51.38l60.27 0c28.33,0 51.37,23.05 51.37,51.38 0,21.25 5.2,51.52 -19.99,51.52zm-103.03 -39.99l83.04 0c0,-28.98 0.23,-22.91 -71.65,-22.91 -13.41,0 -11.39,15.28 -11.39,22.91z"/>
  <path class="fil0" d="M410.94 1581.07c-11.11,0 -20,-9.02 -20,-20l0.01 -1140.98c0,-26.36 39.99,-26.36 39.99,0l0 1140.98c-0,10.97 -9.03,20 -20,20z"/>
  <path class="fil0" d="M1295.03 1581.07c-10.97,0 -20,-9.02 -20,-20l0 -1140.98c0,-26.32 39.99,-26.33 39.99,0l0 1140.98c-0,10.97 -9.03,20 -20,20z"/>
  <path class="fil0" d="M244.17 1581.07c-11.11,0 -20,-9.02 -20,-20l0 -1140.98c0,-26.36 39.99,-26.36 39.99,0l0 1140.98c-0,10.97 -9.03,20 -20,20z"/>
  <path class="fil0" d="M1462.49 1581.07c-10.97,0 -20,-9.02 -20,-20l0 -1140.98c0,-26.32 39.99,-26.33 39.99,0l0 1140.98c-0,10.97 -8.89,20 -20,20z"/>
  <polygon class="fil1" points="1275.04,1541.08 1275.04,440.1 430.94,440.1 430.94,1541.07 "/>
  <path class="fil1" d="M1482.49 440.1l0 1100.98 141.21 0c23.61,0 42.77,-19.17 42.77,-42.77l0 -1015.45c0,-23.61 -19.17,-42.76 -42.77,-42.76l-141.21 0z"/>
  <path class="fil1" d="M224.18 1541.07l0 -1100.98 -141.22 0c-23.61,0 -42.77,19.16 -42.77,42.76l0 1015.45c0,23.61 19.17,42.76 42.77,42.76l141.22 0z"/>
  <path class="fil1" d="M559.65 224.04l-0 176.07 61.93 0 0 -123.17c0,-11.11 8.89,-20 20,-20l425.31 0.01c10.96,0 20,8.89 20,20l0 123.16 60.13 0 0 -176.07c0,-32.21 -26.24,-58.46 -58.46,-58.46l-470.44 0c-32.21,0 -58.46,26.24 -58.46,58.46z"/>
  <path class="fil1" d="M244.17 400.1l0.13 0c-0.04,0 -0.09,0 -0.13,0zm30.13 -22.91c-71.87,0 -71.65,-6.07 -71.65,22.91l83.03 0c0,-7.64 2.02,-22.91 -11.39,-22.91z"/>
  <path class="fil1" d="M1462.49 400.1l0.38 0c-0.13,-0 -0.25,-0 -0.38,-0zm-41.52 -11.52l0 11.52 83.04 0c0,-28.98 0.22,-22.91 -71.65,-22.91 -6.11,0 -11.39,5.28 -11.39,11.39z"/>
 </g>
</svg>
