<?xml version="1.0" encoding="UTF-8"?>
<!DOCTYPE svg PUBLIC "-//W3C//DTD SVG 1.1//EN" "http://www.w3.org/Graphics/SVG/1.1/DTD/svg11.dtd">
<!-- Creator: CorelDRAW -->
<svg xmlns="http://www.w3.org/2000/svg" xml:space="preserve" width="11.1111in" height="11.1111in" version="1.1" style="shape-rendering:geometricPrecision; text-rendering:geometricPrecision; image-rendering:optimizeQuality; fill-rule:evenodd; clip-rule:evenodd"
viewBox="0 0 11111 11111"
 xmlns:xlink="http://www.w3.org/1999/xlink">
 <defs>
  <style type="text/css">
   <![CDATA[
    .fil0 {fill:#CCCCCC}
    .fil1 {fill:#E6E6E6}
    .fil3 {fill:#E80054}
    .fil4 {fill:#FF4155}
    .fil2 {fill:#DAE2FE;fill-rule:nonzero}
   ]]>
  </style>
 </defs>
 <g id="_334215608">
  <rect class="fil0" width="11111" height="11111" rx="5556" ry="5556"/>
  <path class="fil1" d="M5556 0c3055,0 5555,2500 5555,5556 0,3055 -2500,5555 -5555,5555l0 -11111zm5555 5556l0 0z"/>
 </g>
 <g id="Layer_x0020_1">
  <metadata id="CorelCorpID_0Corel-Layer"/>
  <g id="_535054000">
   <path class="fil2" d="M2125 6476l1715 0c39,0 70,31 70,70l0 990c0,38 -31,69 -70,69l-1715 0c-38,0 -69,-31 -69,-69l0 -990c0,-39 31,-70 69,-70zm1646 139l-1577 0 0 851 1577 0 0 -851z"/>
   <path class="fil2" d="M5486 6615l-1576 0 0 851 1576 0 0 -851zm-1646 -139l1716 0c38,0 69,31 69,70l0 990c0,38 -31,69 -69,69l-1716 0c-38,0 -69,-31 -69,-69l0 -990c0,-39 31,-70 69,-70z"/>
   <path class="fil2" d="M5556 6476l1715 0c38,0 69,31 69,70l0 990c0,38 -31,69 -69,69l-1715 0c-39,0 -70,-31 -70,-69l0 -990c0,-39 31,-70 70,-70zm1645 139l-1576 0 0 851 1576 0 0 -851z"/>
   <path class="fil2" d="M8917 6615l-1577 0 0 851 1577 0 0 -851zm-1646 -139l1715 0c38,0 70,31 70,70l0 990c0,38 -32,69 -70,69l-1715 0c-39,0 -70,-31 -70,-69l0 -990c0,-39 31,-70 70,-70z"/>
   <path class="fil2" d="M2194 6476l890 0 0 -851 -890 0 0 851zm960 139l-1029 0c-38,0 -69,-31 -69,-69l0 -990c0,-39 31,-70 69,-70l1029 0c38,0 69,31 69,70l0 990c0,38 -31,69 -69,69z"/>
   <path class="fil2" d="M3154 5486l1715 0c38,0 69,31 69,70l0 990c0,38 -31,69 -69,69l-1715 0c-39,0 -70,-31 -70,-69l0 -990c0,-39 31,-70 70,-70zm1645 139l-1576 0 0 851 1576 0 0 -851z"/>
   <path class="fil2" d="M6515 5625l-1577 0 0 851 1577 0 0 -851zm-1646 -139l1715 0c39,0 70,31 70,70l0 990c0,38 -31,69 -70,69l-1715 0c-38,0 -70,-31 -70,-69l0 -990c0,-39 32,-70 70,-70z"/>
   <path class="fil2" d="M6584 5486l1715 0c39,0 70,31 70,70l0 990c0,38 -31,69 -70,69l-1715 0c-38,0 -69,-31 -69,-69l0 -990c0,-39 31,-70 69,-70zm1646 139l-1576 0 0 851 1576 0 0 -851z"/>
   <path class="fil2" d="M8369 6476l548 0 0 -851 -548 0 0 851zm617 139l-687 0c-38,0 -69,-31 -69,-69l0 -990c0,-39 31,-70 69,-70l687 0c38,0 70,31 70,70l0 990c0,38 -32,69 -70,69z"/>
   <path class="fil2" d="M2125 4496l1715 0c39,0 70,31 70,69l0 991c0,38 -31,69 -70,69l-1715 0c-38,0 -69,-31 -69,-69l0 -991c0,-38 31,-69 69,-69zm1646 139l-1577 0 0 851 1577 0 0 -851z"/>
   <path class="fil2" d="M5486 4635l-1576 0 0 851 1576 0 0 -851zm-1646 -139l1716 0c38,0 69,31 69,69l0 991c0,38 -31,69 -69,69l-1716 0c-38,0 -69,-31 -69,-69l0 -991c0,-38 31,-69 69,-69z"/>
   <path class="fil2" d="M5556 4496l1715 0c38,0 69,31 69,69l0 991c0,38 -31,69 -69,69l-1715 0c-39,0 -70,-31 -70,-69l0 -991c0,-38 31,-69 70,-69zm1645 139l-1576 0 0 851 1576 0 0 -851z"/>
   <path class="fil2" d="M8986 5625l-1029 0c-38,0 -69,-31 -69,-69l0 -991c0,-38 31,-69 69,-69l1029 0c38,0 70,31 70,69l0 991c0,38 -32,69 -70,69zm-959 -139l890 0 0 -851 -890 0 0 851z"/>
   <path class="fil2" d="M4527 3506l1715 0c39,0 70,31 70,69l0 990c0,39 -31,70 -70,70l-1715 0c-38,0 -70,-31 -70,-70l0 -990c0,-38 32,-69 70,-69zm1646 139l-1577 0 0 851 1577 0 0 -851z"/>
   <path class="fil2" d="M4457 3645l-1576 0 0 851 1576 0 0 -851zm-1645 -139l1715 0c38,0 69,31 69,69l0 990c0,39 -31,70 -69,70l-1715 0c-39,0 -70,-31 -70,-70l0 -990c0,-38 31,-69 70,-69z"/>
   <polygon class="fil3" points="4457,4496 4457,3645 2742,3645 2742,4496 3786,4496 "/>
   <polygon class="fil4" points="6312,4496 6312,3645 4596,3645 4596,4496 5640,4496 "/>
   <polygon class="fil3" points="5486,4635 4527,4635 3910,4635 3910,5486 4869,5486 5486,5486 "/>
   <polygon class="fil4" points="7201,4635 6242,4635 5625,4635 5625,5486 6584,5486 7201,5486 "/>
   <polygon class="fil4" points="8230,6476 8230,5625 7957,5625 7271,5625 6654,5625 6654,6476 7271,6476 "/>
   <polygon class="fil3" points="6515,6476 6515,5625 5556,5625 4938,5625 4938,6476 5556,6476 "/>
   <polygon class="fil4" points="4799,5625 3840,5625 3223,5625 3223,6476 3840,6476 4799,6476 "/>
   <polygon class="fil3" points="3084,6476 3084,5625 2056,5625 2056,6476 "/>
   <path class="fil4" d="M3771 7466l0 -851 -617 0 -1098 0 0 851 1715 0zm0 -1980l0 -851 -959 0 -756 0 0 851 1098 0 617 0z"/>
   <polygon class="fil3" points="5486,6615 4869,6615 3910,6615 3910,7466 5486,7466 "/>
   <polygon class="fil4" points="6584,6615 5625,6615 5625,7466 7201,7466 7201,6615 "/>
   <path class="fil3" d="M8299 6615l-959 0 0 851 1716 0 0 -851 -757 0zm757 -139l0 -851 -687 0 0 851 687 0zm0 -990l0 -851 -1029 0 0 851 272 0 757 0z"/>
  </g>
 </g>
</svg>
