<?xml version="1.0" encoding="UTF-8"?>
<!DOCTYPE svg PUBLIC "-//W3C//DTD SVG 1.1//EN" "http://www.w3.org/Graphics/SVG/1.1/DTD/svg11.dtd">
<!-- Creator: CorelDRAW -->
<svg xmlns="http://www.w3.org/2000/svg" xml:space="preserve" width="512px" height="512px" style="shape-rendering:geometricPrecision; text-rendering:geometricPrecision; image-rendering:optimizeQuality; fill-rule:evenodd; clip-rule:evenodd"
viewBox="0 0 512 512"
 xmlns:xlink="http://www.w3.org/1999/xlink">
 <defs>
  <style type="text/css">
   <![CDATA[
    .fil0 {fill:#60C3D8}
    .fil1 {fill:#C7C7C6}
   ]]>
  </style>
 </defs>
 <g id="Layer_x0020_1">
  <metadata id="CorelCorpID_0Corel-Layer"/>
  <path class="fil0" d="M133.865 489.042c-1.24961,0 -2.49922,-0.41693 -3.74883,-0.83268 -2.91615,-1.66654 -4.16576,-5.8323 -2.91615,-9.16538l69.1549 -170.806 -64.1565 0c-2.49922,0 -4.99962,-1.24961 -6.24923,-3.74883 -1.24961,-2.08347 -1.24961,-4.99962 0,-7.08191l104.567 -192.053c1.24961,-2.49922 3.74883,-3.74883 6.24923,-3.74883l91.6515 0c2.49922,0 4.99962,1.24961 6.24923,3.74883 1.24961,2.08347 1.24961,4.99962 0,7.49884l-69.1561 119.563 69.1561 0c2.91615,0 5.41537,1.66654 6.66616,4.16576 1.25079,2.49922 0.83268,5.41537 -0.83268,7.91577l-200.801 241.627c-1.66772,1.66654 -3.75119,2.91615 -5.83348,2.91615z"/>
  <path class="fil1" d="M433.817 145.765c-2.49922,0 -4.99962,-1.24961 -6.24923,-3.74883 -2.08347,-3.33308 -0.83268,-7.91577 2.49922,-9.99806l59.5738 -34.5781c3.33308,-2.08347 7.91577,-0.83268 9.99806,2.49922 2.08347,3.33308 0.83268,7.91577 -2.49922,9.99806l-59.5738 34.9938c-1.24961,0.41693 -2.49922,0.833861 -3.74883,0.833861z"/>
  <path class="fil1" d="M505.055 227.001c-0.41693,0 -1.24961,0 -2.08347,-0.41693l-66.6557 -17.4969c-3.74883,-0.83268 -6.24923,-4.99962 -4.99962,-8.74845 0.83268,-3.74883 4.99962,-6.24923 8.74845,-4.99962l66.6557 17.4969c3.74883,0.83268 6.24923,4.99962 4.99962,8.74845 -0.83268,3.33308 -3.74883,5.41655 -6.66498,5.41655z"/>
  <path class="fil1" d="M385.491 104.105c-0.41693,0 -1.24961,0 -2.08347,-0.41693 -3.74883,-0.83268 -6.24923,-4.99962 -4.99962,-8.74845l17.4969 -66.6557c0.83268,-3.74883 4.99962,-6.24923 8.74845,-4.99962 3.74883,0.83268 6.24923,4.99962 4.99962,8.74845l-17.4969 66.6557c-0.415749,3.33308 -3.3319,5.41655 -6.66498,5.41655z"/>
  <path class="fil1" d="M78.4573 145.765c-1.24961,0 -2.49922,-0.41693 -3.74883,-0.83268l-59.5738 -34.5781c-3.33308,-2.08347 -4.58269,-6.66616 -2.49922,-9.99806 2.08347,-3.33308 6.66616,-4.58269 9.99806,-2.49922l59.5738 34.5781c3.33308,2.08347 4.58269,6.66616 2.49922,9.99806 -1.24961,2.08229 -3.74883,3.3319 -6.24923,3.3319z"/>
  <path class="fil1" d="M7.21892 227.001c-3.33308,0 -6.24923,-2.08347 -7.08191,-5.41537 -0.83268,-3.74883 1.24961,-7.91577 4.99962,-8.74845l66.6557 -17.4969c3.74883,-0.83268 7.91577,1.24961 8.74845,4.99962 0.83268,3.74883 -1.24961,7.91577 -4.99962,8.74845l-66.6557 17.4969c-0.41693,0.415749 -1.24961,0.415749 -1.66654,0.415749z"/>
  <path class="fil1" d="M126.783 104.105c-3.33308,0 -6.24923,-2.08347 -7.08191,-5.41537l-17.4969 -66.6557c-0.83268,-3.74883 1.24961,-7.91577 4.99962,-8.74845 3.74883,-1.24961 7.91577,1.24961 8.74845,4.99962l17.4969 66.6557c0.83268,3.74883 -1.24961,7.91577 -4.99962,8.74845 -0.41693,0.415749 -1.25079,0.415749 -1.66654,0.415749z"/>
 </g>
</svg>
