<?xml version="1.0" encoding="UTF-8"?>
<!DOCTYPE svg PUBLIC "-//W3C//DTD SVG 1.1//EN" "http://www.w3.org/Graphics/SVG/1.1/DTD/svg11.dtd">
<!-- Creator: CorelDRAW -->
<svg xmlns="http://www.w3.org/2000/svg" xml:space="preserve" width="1.70666in" height="1.70666in" version="1.1" style="shape-rendering:geometricPrecision; text-rendering:geometricPrecision; image-rendering:optimizeQuality; fill-rule:evenodd; clip-rule:evenodd"
viewBox="0 0 1707 1707"
 xmlns:xlink="http://www.w3.org/1999/xlink">
 <defs>
  <style type="text/css">
   <![CDATA[
    .fil0 {fill:black}
   ]]>
  </style>
 </defs>
 <g id="Layer_x0020_1">
  <metadata id="CorelCorpID_0Corel-Layer"/>
  <path class="fil0" d="M550 1670c-92,0 -178,-53 -220,-134 -55,-4 -107,-27 -147,-66 -40,-39 -65,-91 -69,-147 -49,-47 -77,-109 -77,-173 0,-35 6,-68 21,-99 -36,-41 -58,-95 -58,-154 0,-48 14,-93 40,-129l0 -51c0,-103 62,-191 150,-229l0 -98c0,-121 100,-217 222,-213 27,-82 104,-140 191,-140 108,0 197,89 197,200l0 1183c0,138 -112,250 -250,250zm525 -1179c-23,0 -66,-4 -57,-38 3,-14 18,-22 32,-19 49,13 102,-15 114,-64 9,-34 61,-21 52,14 -17,63 -77,107 -141,107zm26 746c-23,0 -65,-4 -57,-37 4,-15 19,-23 33,-19 49,13 98,-16 110,-65 9,-33 61,-20 52,14 -16,63 -73,107 -138,107zm12 -307c-70,0 11,-172 151,-136 33,9 20,61 -14,52 -49,-13 -98,15 -111,64 -3,12 -14,20 -26,20zm210 470c-23,0 -64,-4 -55,-37 3,-14 18,-22 32,-19 48,13 98,-16 111,-64 10,-35 61,-20 51,14 -18,64 -76,106 -139,106zm177 -643c-37,0 -15,-45 -68,-75 -21,-12 -46,-16 -68,-10 -34,10 -48,-42 -14,-51 76,-21 156,25 176,102 5,18 -9,34 -26,34zm40 555c-1,-8 3,-17 9,-22 61,-52 83,-130 57,-202 -131,92 -315,26 -355,-131 -9,-34 42,-48 51,-14 21,79 91,133 171,133 100,0 180,-80 180,-180 0,-79 -40,-97 -40,-119l0 -60c0,-108 -88,-197 -196,-197 -87,0 -164,58 -188,141 -10,33 -61,19 -51,-15 34,-122 159,-199 285,-175l0 -81c0,-158 -204,-214 -288,-98 -21,29 -64,-2 -44,-31 27,-37 65,-63 109,-76 -22,-56 -76,-95 -137,-95 -79,0 -143,66 -143,147l0 1183c0,191 247,270 357,113 -59,-12 -112,-46 -146,-95 -20,-28 24,-59 44,-30 92,135 317,79 325,-96zm108 -261c15,31 22,64 22,99 0,64 -28,126 -77,173 -5,56 -29,108 -70,147 -40,39 -91,62 -146,66 -42,81 -129,134 -220,134 -138,0 -250,-112 -250,-250l0 -1183c0,-110 88,-200 196,-200 87,0 164,57 190,140 123,-5 223,92 223,213l0 98c89,38 151,126 151,229l0 50c26,36 40,82 40,129 0,60 -22,114 -59,155zm-1016 -560c-66,0 -125,-44 -141,-107 -9,-34 42,-48 51,-14 13,50 65,77 114,65 34,-9 48,42 14,51 -12,3 -25,5 -38,5zm-26 746c-65,0 -122,-43 -139,-107 -9,-34 43,-48 52,-14 13,50 61,78 111,65 33,-9 48,42 13,51 -12,4 -25,5 -37,5zm-13 -307c-36,0 -16,-45 -67,-75 -21,-12 -45,-16 -69,-9 -34,9 -48,-43 -14,-52 77,-21 156,25 176,102 5,18 -9,34 -26,34zm-209 470c-63,0 -122,-42 -140,-106 -9,-34 42,-48 52,-14 13,48 63,77 111,64 34,-8 47,43 13,52 -12,3 -24,4 -36,4zm-177 -643c-17,0 -31,-16 -26,-34 33,-128 212,-130 195,-69 -4,14 -19,22 -33,18 -46,-12 -96,15 -110,65 -4,12 -14,20 -26,20zm-50 533c6,4 9,11 10,19 4,174 230,236 324,99 20,-29 64,2 44,30 -33,49 -87,83 -145,95 110,157 357,78 357,-113l0 -1183c0,-81 -65,-147 -144,-147 -61,0 -115,39 -137,95 56,16 146,83 103,114 -12,8 -29,5 -38,-7 -84,-116 -288,-60 -288,98l0 81c126,-24 251,52 286,175 10,34 -42,49 -51,15 -24,-83 -101,-141 -188,-141 -108,0 -197,89 -197,197l-1 67c-4,15 -39,41 -39,113 0,99 81,180 180,180 81,0 151,-55 171,-134 9,-33 61,-20 52,14 -41,156 -224,223 -356,131 -25,72 -4,150 57,202z"/>
 </g>
</svg>
