<?xml version="1.0" encoding="UTF-8" standalone="no"?> <svg width="64" height="64" viewBox="0 0 64 64" fill="none" xmlns="http://www.w3.org/2000/svg">
<path d="M61.63 27.91C61.4439 27.652 61.1989 27.4421 60.9154 27.2977C60.632 27.1534 60.3181 27.0787 60 27.08H52.81V15.88C52.81 15.3496 52.5993 14.8409 52.2242 14.4658C51.8491 14.0907 51.3404 13.88 50.81 13.88H31.35L21.88 6.43C21.5295 6.15338 21.0965 6.00201 20.65 6H4C3.46957 6 2.96086 6.21071 2.58579 6.58579C2.21071 6.96086 2 7.46957 2 8C2 12.42 2 50.56 2 56C2 56.5304 2.21071 57.0391 2.58579 57.4142C2.96086 57.7893 3.46957 58 4 58H50.81C51.1079 57.9983 51.4017 57.9301 51.6698 57.8004C51.938 57.6706 52.1738 57.4826 52.36 57.25C52.5019 57.0676 52.6164 56.8654 52.7 56.65L61.89 29.72C61.9937 29.4194 62.0242 29.0983 61.979 28.7835C61.9338 28.4688 61.8141 28.1693 61.63 27.91V27.91ZM48.81 17.91V27.11H13.19C12.7736 27.1103 12.3678 27.2405 12.029 27.4825C11.6901 27.7245 11.4353 28.0662 11.3 28.46L6 44V17.88L48.81 17.91Z" fill="black"/>
</svg>
