<?xml version="1.0" encoding="UTF-8" standalone="no"?> <svg xmlns="http://www.w3.org/2000/svg" viewBox="0 0 32 32"><defs><style>.cls-1{fill:#00b157;}.cls-2{fill:#00cf66;}</style></defs><title>Forest</title><g id="Forest"><path class="cls-1" d="M3,15.667C3,12.721,3.833,6,8,6s5,6.721,5,9.667A5.175,5.175,0,0,1,8,21,5.175,5.175,0,0,1,3,15.667Z"/><path class="cls-1" d="M19,15.667C19,12.721,19.833,6,24,6s5,6.721,5,9.667A5.175,5.175,0,0,1,24,21,5.175,5.175,0,0,1,19,15.667Z"/><path class="cls-2" d="M10.667,15.667C10.667,12.721,11.556,5,16,5s5.333,7.721,5.333,10.667a5.333,5.333,0,1,1-10.666,0Z"/><path d="M28,25H25V21.91A6.006,6.006,0,0,0,30,16c0-4.085-1.264-11-6-11a4.183,4.183,0,0,0-1.639.329,1,1,0,1,0,.778,1.842A2.177,2.177,0,0,1,24,7c3.266,0,4,6.665,4,9a4,4,0,0,1-3,3.858V18.414l1.707-1.707a1,1,0,0,0-1.414-1.414L25,15.586V14a1,1,0,0,0-2,0v6.118a.976.976,0,0,0,0,1.71V25H17V21.913a6.337,6.337,0,0,0,5.333-6.246C22.333,11.333,21,4,16,4S9.667,11.333,9.667,15.667A6.337,6.337,0,0,0,15,21.913V25H9V21.829a.967.967,0,0,0,0-1.7V14a1,1,0,0,0-2,0v1.586l-.293-.293a1,1,0,0,0-1.414,1.414L7,18.414v1.444A4,4,0,0,1,4,16c0-2.335.734-9,4-9a2.177,2.177,0,0,1,.861.171,1,1,0,1,0,.778-1.842A4.183,4.183,0,0,0,8,5C3.264,5,2,11.915,2,16a6.006,6.006,0,0,0,5,5.91V25H4a1,1,0,0,0,0,2H28a1,1,0,0,0,0-2ZM11.667,15.667C11.667,13.159,12.463,6,16,6s4.333,7.159,4.333,9.667A4.332,4.332,0,0,1,17,19.872V18.414l1.707-1.707a1,1,0,0,0-1.414-1.414L17,15.586V13a1,1,0,0,0-2,0v1.586l-.293-.293a1,1,0,0,0-1.414,1.414L15,17.414v2.458A4.332,4.332,0,0,1,11.667,15.667Z"/></g></svg>