<?xml version="1.0" encoding="UTF-8" standalone="no"?>
<svg
   width="16"
   height="16.000004"
   viewBox="0 0 16 16.000004"
   fill="none"
   version="1.1"
   id="svg2"
   sodipodi:docname="js.svg"
   inkscape:version="1.3.2 (091e20e, 2023-11-25, custom)"
   xml:space="preserve"
   inkscape:export-filename="vscode-ignore.svg"
   inkscape:export-xdpi="96"
   inkscape:export-ydpi="96"
   xmlns:inkscape="http://www.inkscape.org/namespaces/inkscape"
   xmlns:sodipodi="http://sodipodi.sourceforge.net/DTD/sodipodi-0.dtd"
   xmlns="http://www.w3.org/2000/svg"
   xmlns:svg="http://www.w3.org/2000/svg"><defs
     id="defs2" /><sodipodi:namedview
     id="namedview2"
     pagecolor="#444444"
     bordercolor="#ffffff"
     borderopacity="1"
     inkscape:showpageshadow="false"
     inkscape:pageopacity="0"
     inkscape:pagecheckerboard="1"
     inkscape:deskcolor="#505050"
     inkscape:zoom="32"
     inkscape:cx="7.390625"
     inkscape:cy="10.171875"
     inkscape:window-width="1920"
     inkscape:window-height="1009"
     inkscape:window-x="-8"
     inkscape:window-y="-8"
     inkscape:window-maximized="1"
     inkscape:current-layer="g64"
     showgrid="true"
     showborder="true"
     labelstyle="default"
     showguides="true"
     inkscape:clip-to-page="false"
     shape-rendering="crispEdges"
     inkscape:export-bgcolor="#00000000"><inkscape:grid
       id="grid1"
       units="px"
       originx="6.96875"
       originy="6.9695769"
       spacingx="1"
       spacingy="1"
       empcolor="#3f3fff"
       empopacity="0.5372549"
       color="#3f3fff"
       opacity="0.27843137"
       empspacing="1"
       dotted="false"
       gridanglex="30"
       gridanglez="30"
       visible="true" /><sodipodi:guide
       position="-9.125,16.342923"
       orientation="1,0"
       id="guide21"
       inkscape:locked="false" /></sodipodi:namedview><path
     d="M 15.697462,7.2856839 8.7143152,0.30253793 a 1.0286141,1.0286141 0 0 0 -1.4572033,0 L 5.8056231,1.7540269 7.6456995,3.5941029 a 1.2229079,1.2229079 0 0 1 1.5486357,1.548635 l 1.7715018,1.771503 a 1.2229079,1.2229079 0 1 1 -0.731459,0.691457 L 8.5714521,5.9599149 V 10.314382 A 1.2229079,1.2229079 0 1 1 7.5714106,10.285812 V 5.8856289 a 1.2286224,1.2286224 0 0 1 -0.668599,-1.600066 l -1.8115038,-1.817218 -4.78877002,4.78877 a 1.0286141,1.0286141 0 0 0 0,1.457203 L 7.2856846,15.697466 a 1.0286141,1.0286141 0 0 0 1.4572032,0 L 15.697462,8.7428899 a 1.0286141,1.0286141 0 0 0 0,-1.457203"
     fill="#e64a19"
     id="path1-3"
     style="display:inline;fill:#808080;fill-opacity:1;stroke-width:0.571452"
     inkscape:label="Git"
     inkscape:export-filename="git.svg"
     inkscape:export-xdpi="96"
     inkscape:export-ydpi="96" /></svg>
