<?xml version="1.0" encoding="UTF-8"?>
<!DOCTYPE svg PUBLIC "-//W3C//DTD SVG 1.1//EN" "http://www.w3.org/Graphics/SVG/1.1/DTD/svg11.dtd">
<!-- Creator: CorelDRAW -->
<svg xmlns="http://www.w3.org/2000/svg" xml:space="preserve" width="512px" height="512px" version="1.1" style="shape-rendering:geometricPrecision; text-rendering:geometricPrecision; image-rendering:optimizeQuality; fill-rule:evenodd; clip-rule:evenodd"
viewBox="0 0 512 512"
 xmlns:xlink="http://www.w3.org/1999/xlink"
 xmlns:xodm="http://www.corel.com/coreldraw/odm/2003">
 <defs>
  <style type="text/css">
   <![CDATA[
    .fil1 {fill:#00CCFF}
    .fil0 {fill:#1B74B9}
    .fil2 {fill:#F9F9F9}
   ]]>
  </style>
 </defs>
 <g id="Layer_x0020_1">
  <metadata id="CorelCorpID_0Corel-Layer"/>
  <path class="fil0" d="M470.45 263.49c-2.8,-0.04 -4.36,-1.09 -6.17,-3.23l-74.95 -72.9c-6.84,-6.74 3.4,-17.32 10.4,-10.4l62.42 60.89c-9.22,-105.52 -98.1,-188.6 -206.36,-188.6 -92.35,0 -174.72,61.98 -199.68,151.01 -2.86,9.31 -16.86,5.13 -14.15,-4.16 27.04,-95.27 114.82,-161.83 213.83,-161.83 110.6,0 202.48,81.3 219.06,187.3l23.06 -67.91c3.05,-9.08 16.75,-4.37 13.73,4.58 -3.47,10.22 -33.94,99.85 -35.44,102.06 -1.31,1.93 -3.46,3.19 -5.75,3.19zm-214.66 50.34c-31.62,0 -57.41,-25.8 -57.41,-57.41 0,-31.62 25.8,-57.41 57.41,-57.41 31.62,0 57.41,25.79 57.41,57.41 0.41,31.61 -25.38,57.41 -57.41,57.41zm0 -100.68c-23.71,0 -42.85,19.14 -42.85,42.85 0,23.71 19.14,42.85 42.85,42.85 23.71,0 42.85,-19.14 42.85,-42.85 0.41,-23.71 -19.14,-42.85 -42.85,-42.85zm22.46 183.88l-44.92 0c-3.75,0 -6.66,-2.5 -7.07,-6.24l-5.83 -40.36c-2.08,-0.83 -4.16,-1.66 -6.24,-2.49l-32.45 24.13c-2.91,2.08 -7.07,2.08 -9.57,-0.84l-31.61 -31.61c-2.5,-2.5 -2.92,-6.66 -0.84,-9.57l24.13 -32.45c-0.83,-2.08 -1.66,-4.16 -2.49,-5.82l-40.36 -5.83c-3.74,-0.41 -6.24,-3.74 -6.24,-7.07l0 -45.34c0,-3.75 2.5,-6.66 6.25,-7.08l40.35 -5.82c0.83,-2.08 1.66,-4.16 2.49,-6.24l-24.13 -32.45c-2.08,-2.91 -1.66,-7.07 0.84,-9.57l31.61 -31.61c2.5,-2.5 6.66,-2.92 9.57,-0.83l32.45 24.54c2.08,-0.83 4.16,-1.67 5.82,-2.5l5.83 -40.35c0.42,-3.74 3.74,-6.24 7.07,-6.24l44.93 0c3.74,0 6.66,2.5 7.07,6.24l5.83 40.35c2.08,0.83 4.16,1.67 6.24,2.5l32.86 -24.54c2.91,-2.09 7.07,-1.67 9.57,0.83l31.62 31.61c2.49,2.5 2.91,6.66 0.83,9.57l-24.55 32.87c0.84,2.08 1.67,4.16 2.5,6.24l40.35 5.82c3.75,0.42 6.24,3.74 6.24,7.07l0 44.93c0,3.74 -2.49,6.66 -6.24,7.07l-40.35 5.83c-0.83,2.08 -1.67,4.16 -2.5,5.82l24.55 32.45c2.08,2.91 2.08,7.07 -0.84,9.57l-31.61 31.61c-2.5,2.5 -6.66,2.92 -9.57,0.83l-32.87 -24.12c-2.08,0.83 -4.15,1.66 -6.24,2.49l-5.82 40.36c0,3.74 -2.91,6.24 -6.66,6.24zm-38.68 -14.56l32.45 0c7.75,-54.87 1.78,-37.97 22.88,-49.09 2.49,-1.25 5.4,-0.83 7.48,0.83l31.2 22.88 22.89 -22.88 -23.3 -30.79c-3.93,-5.04 0.68,-8.87 4.16,-20.38 0.83,-2.5 3.33,-4.58 5.82,-4.99l38.28 -5.83 0 -32.44c-54.88,-7.76 -37.96,-1.79 -49.09,-22.89 -1.25,-2.49 -0.83,-5.4 0.83,-7.48l23.3 -31.2 -22.89 -22.89 -31.2 23.3c-5.15,3.99 -8.25,-0.62 -19.96,-4.16 -2.5,-0.83 -4.58,-3.33 -5,-5.82l-5.4 -38.28 -32.45 0.01c-8.22,53.98 -2.36,38.66 -23.72,49.08 -2.49,1.25 -5.4,0.84 -7.49,-0.83l-30.78 -23.29 -22.88 22.88c33.69,45.12 25.42,28.17 18.72,51.17 -0.83,2.49 -3.33,4.57 -5.82,4.99l-38.28 5.41 0 32.45c53.98,8.21 38.66,2.35 49.09,23.71 1.25,2.49 0.83,5.41 -0.83,7.49l-22.88 30.78 22.88 22.88c43.74,-33.1 28.29,-25.93 51.17,-18.3 2.5,0.83 4.58,3.32 4.99,5.82l5.83 37.86zm-232.13 -18.31c-5.34,0 -8.57,-5.11 -7.08,-9.57l33.78 -99.68c0.52,-3.63 3.62,-6.4 7.41,-6.4 3.45,0 6.33,2.29 7.21,5.45l73.91 71.1c6.84,6.71 -3.41,17.33 -10.4,10.4l-62.43 -61.27c9.22,105.88 98.09,188.98 206.37,188.98 80.29,0 153.92,-47.01 188.03,-120.23 3.98,-8.74 17.27,-2.36 12.9,6.25 -36.2,78.2 -115.24,128.54 -201.35,128.54 -109.9,0 -201.31,-80.29 -218.72,-185.31l-22.56 66.75c-1.25,2.91 -4.16,4.99 -7.07,4.99z"/>
  <path class="fil1" d="M381.43 272.22l0 -32.44c-54.88,-7.76 -37.96,-1.79 -49.09,-22.89 -1.25,-2.49 -0.83,-5.4 0.83,-7.48l23.3 -31.2 -22.89 -22.89 -31.2 23.3c-5.15,3.99 -8.25,-0.62 -19.96,-4.16 -2.5,-0.83 -4.58,-3.33 -5,-5.82l-5.4 -38.28 -32.45 0.01c-8.22,53.98 -2.36,38.66 -23.72,49.08 -2.49,1.25 -5.4,0.84 -7.49,-0.83l-30.78 -23.29 -22.88 22.88c33.69,45.12 25.42,28.17 18.72,51.17 -0.83,2.49 -3.33,4.57 -5.82,4.99l-38.28 5.41 0 32.45c53.98,8.21 38.66,2.35 49.09,23.71 1.25,2.49 0.83,5.41 -0.83,7.49l-22.88 30.78 22.88 22.88c43.74,-33.1 28.29,-25.93 51.17,-18.3 2.5,0.83 4.58,3.32 4.99,5.82l5.83 37.86 32.45 0c7.75,-54.87 1.78,-37.97 22.88,-49.09 2.49,-1.25 5.4,-0.83 7.48,0.83l31.2 22.88 22.89 -22.88 -23.3 -30.79c-3.93,-5.04 0.68,-8.87 4.16,-20.38 0.83,-2.5 3.33,-4.58 5.82,-4.99l38.28 -5.83zm-68.23 -15.8c0.41,31.61 -25.38,57.41 -57.41,57.41 -31.62,0 -57.41,-25.8 -57.41,-57.41 0,-31.62 25.8,-57.41 57.41,-57.41 31.62,0 57.41,25.79 57.41,57.41z"/>
  <path class="fil2" d="M298.64 256c0.41,-23.71 -19.14,-42.85 -42.85,-42.85 -23.71,0 -42.85,19.14 -42.85,42.85 0,23.71 19.14,42.85 42.85,42.85 23.71,0 42.85,-19.14 42.85,-42.85z"/>
 </g>
</svg>
