<?xml version="1.0" encoding="UTF-8"?><svg id="Done" xmlns="http://www.w3.org/2000/svg" xmlns:xlink="http://www.w3.org/1999/xlink" viewBox="0 0 16 16"><defs><style>.cls-1{fill:lime;}.cls-2{clip-path:url(#clippath);}.cls-3{fill:none;}</style><clipPath id="clippath"><polyline class="cls-3" points="0 8 3 8 3 3 10 3 13 8 16 8 16 5.3 16 0 0 0"/></clipPath></defs><g id="AHK"><g class="cls-2"><path class="cls-1" d="m14,2v12H2V2h12m0-1H2c-.55,0-1,.45-1,1v12c0,.55.45,1,1,1h12c.55,0,1-.45,1-1V2c0-.55-.45-1-1-1h0Z"/></g><g id="Text"><path class="cls-1" d="m5.99,15h-1.08l-.43-1.22h-1.99l-.41,1.22h-1.06l1.93-5.37h1.06l1.99,5.37Zm-1.84-2.12l-.68-1.99-.67,1.99h1.36Z"/><path class="cls-1" d="m6.01,15v-5.37h1v2.11h1.97v-2.11h1v5.37h-1v-2.35h-1.97v2.35h-1Z"/><path class="cls-1" d="m10.51,15v-5.37h1v2.39l2.03-2.39h1.35l-1.87,2.09,1.97,3.28h-1.3l-1.37-2.52-.81.9v1.62h-1Z"/></g></g></svg>