<?xml version="1.0" encoding="UTF-8"?><svg id="Layer_35_copy" xmlns="http://www.w3.org/2000/svg" viewBox="0 0 16 16"><defs><style>.cls-1{fill:#fff;}.cls-2{fill:#fafafa;}.cls-3{fill:#fff8e1;}</style></defs><path class="cls-3" d="m11.59,5.87c0-.29-.05-.59-.12-.87h0c-.34-1.11-1.13-2.04-2.18-2.55-1.32-.71-1.98-1.26-2.57-1.44h0c-.74-.26-1.49.31-2.2.73-1.71.94-3.62,2.06-3.51,4.32,0-.01,0-.02,0-.03.08,1.09.62,2.09,1.49,2.75h0c2.94,2.56,9.11.98,9.09-2.89Z"/><path d="m7.24,6.09c-.06-.06-.14-.09-.23-.09h-2.46c-.08,0-.17.03-.23.09-.05.05-.07.11-.05.18.1.36.32.67.62.88.25.21.56.33.89.35.32-.02.63-.15.89-.35.3-.22.52-.53.62-.88.01-.06,0-.13-.05-.18h0Z"/><path d="m8,5.63c.55,0,1-.44,1-1,0-.55-.44-1-1-1-.55,0-1,.44-1,1h0c0,.55.45,1,1,1Z"/><circle class="cls-2" cx="7.39" cy="4.19" r=".5"/><path d="m4,5.63c.55,0,1-.44,1-1,0-.55-.44-1-1-1-.55,0-1,.44-1,1h0c0,.55.45,1,1,1Z"/><circle class="cls-2" cx="3.39" cy="4.13" r=".5"/><path d="m10.64,14.94c-.43,0-.72-.19-1.18-.64-.42.42-.72.62-1.15.62h-.2l-.26-.1-1.29-.56-.21-.49-.05-.22c-.03-.22-.05-.43-.06-.65-.53,0-1.23-.03-1.53-.77l-.35-.86c-.25-.63-.02-1.05.54-1.63-.39-.4-.49-.55-.56-.73l-.12-.31.05-.39.02-.07.05-.14.35-.84c.34-.76,1.05-.76,1.52-.76,0-.79.13-1.27.77-1.53l1.03-.41.27-.02c.43,0,.72.19,1.17.64.42-.42.72-.62,1.15-.62h.22l.28.11,1.25.54.22.48.06.22c.03.21.05.43.06.65.54,0,1.23.04,1.53.77l.35.86c.26.63.02,1.05-.54,1.63.39.4.49.56.56.73l.13.32-.07.4-.06.18-.35.85c-.32.76-1.04.76-1.53.76,0,.8-.13,1.28-.78,1.53l-1.02.41-.27.02Z"/><path class="cls-1" d="m11.69,12.23l.28-.27c1.27.04,1.29,0,1.35-.13l.35-.85.02-.08-.03-.07s-.06-.15-.86-.9v-.4c.92-.88.9-.92.85-1.05l-.35-.85c-.05-.13-.08-.18-1.34-.14l-.28-.28c.03-.42.01-.83-.04-1.25l-.04-.08-.91-.39c-.13-.06-.18-.08-1.04.85h-.39c-.89-.94-.93-.93-1.06-.87l-.85.34c-.13.05-.18.08-.13,1.35l-.27.27c-1.27-.04-1.29,0-1.35.13l-.35.84-.02.08.03.07s.06.15.86.9v.39c-.92.88-.9.92-.85,1.05l.35.86c.05.13.08.18,1.34.14l.28.28c-.03.42-.01.83.04,1.24l.04.08.92.4c.13.06.18.08,1.04-.85h.39c.89.94.93.93,1.06.87l.85-.34c.13-.05.18-.07.13-1.35Z"/><ellipse cx="9.47" cy="9.69" rx="2" ry="2.01"/></svg>