<?xml version="1.0" encoding="UTF-8"?><svg id="Layer_35" xmlns="http://www.w3.org/2000/svg" viewBox="0 0 16 16"><defs><style>.cls-1{fill:#fafafa;}.cls-2{fill:#181f21;}.cls-3{fill:#fff8e1;}</style></defs><path class="cls-3" d="m14.97,8.42c0-.39-.06-.77-.16-1.15v.02c-.45-1.48-1.49-2.7-2.88-3.39-1.74-.94-2.62-1.66-3.39-1.9h0c-.97-.35-1.97.41-2.91.96C3.38,4.2.86,5.68,1.01,8.66c0-.01,0-.03.01-.04.1,1.43.82,2.75,1.96,3.62h0c3.89,3.38,12.02,1.3,12-3.82Z"/><path class="cls-2" d="m9.91,10.12c-.08-.08-.19-.12-.3-.12h-3.25c-.11,0-.22.04-.3.12-.06.06-.09.15-.07.23.13.47.42.88.82,1.17.33.27.74.43,1.17.46.43-.03.84-.19,1.17-.46.4-.29.69-.7.82-1.17.02-.08,0-.17-.07-.23h0Z"/><circle class="cls-2" cx="10.98" cy="8.35" r="1"/><circle class="cls-1" cx="10.48" cy="7.85" r=".5"/><path class="cls-2" d="m5,9.34c.55,0,1-.44,1-1,0-.55-.44-1-1-1-.55,0-1,.44-1,1h0c0,.55.45,1,1,1Z"/><circle class="cls-1" cx="4.49" cy="7.85" r=".5"/></svg>