<?xml version="1.0" encoding="UTF-8"?><svg id="Layer_21" xmlns="http://www.w3.org/2000/svg" viewBox="0 0 16 16"><defs><style>.cls-1{fill:#fff;}.cls-2{fill:rgba(19,19,19,0);}.cls-3{fill:#00599c;}</style></defs><rect id="rect72" class="cls-2" x=".9" y="1" width="13.99" height="13.99"/><g id="g79"><path id="path75" class="cls-3" d="m1.9,4v8l6,3,6-3V4L7.9,1,1.9,4Z"/><path id="path76" class="cls-1" d="m8.12,11.28c-1.82,0-3.29-1.48-3.29-3.29s1.48-3.29,3.29-3.29c1.17,0,2.26.63,2.85,1.65l-1.42.82c-.3-.51-.84-.82-1.43-.82-.91,0-1.65.74-1.65,1.65s.74,1.65,1.65,1.65c.59,0,1.13-.31,1.43-.82l1.42.82c-.59,1.01-1.68,1.64-2.85,1.64Z"/></g></svg>