<?xml version="1.0" encoding="UTF-8"?><svg id="Layer_39" xmlns="http://www.w3.org/2000/svg" viewBox="0 0 16 16"><defs><style>.cls-1{fill:#ff3600;}</style></defs><path class="cls-1" d="m15,8.91c0,1.94-.82,3.79-2.26,5.09h-1.68c.03-.16-.05-.27-.16-.35-.24-.16-.39-.43-.35-.71.09-.73.55-1.67,2.19-2.54,1.11-.59,1.32-1.8,1.4-1.98.11-.29.08-.54-.15-.78-.43-.43-.89-.82-1.45-1.07-.79-.36-1.59-.34-2.38-.05-.14.05-.11-.06-.12-.1-.11-.52-.29-1.02-.55-1.48-.52-.92-1.24-1.6-2.32-1.83-.16-.04-.32-.05-.49-.07-.08,0-.12,0-.1.1.14.68.34,1.33.78,1.89.2.26.47.43.74.61.28.19.58.37.85.59.25.21.46.46.56.82-.04-.04-.05-.05-.06-.06-.82-1.29-2.43-1.86-4.05-1.39-.15.04-.13.09-.06.2.47.71,1.11,1.22,1.87,1.61.57.29,1.15.53,1.79.61.29.04.15.23.19.46.06.35.21.47.16.44-.98-.39-1.79-.54-2.46-.54-2.78,0-3.23,2.62-3.21,2.65-.04-.02-.71-.26-.86.4-.15.67.75,1.11.75,1.11.12-.79.84-.96.93-.98-.07.04-.54.31-.68,1.05-.12.65.4,1.22.59,1.42h-1.15c-1.44-1.3-2.25-3.15-2.25-5.09C1,5.09,4.13,2,8,2s7,3.09,7,6.91Zm-5.09,5.09h-.74s.06-.09.07-.14c.06-.35-.25-.43-.25-.86h-1.7c0,.43.68.4,1.3.15.62-.26,1.11-.71,1.2-.83-.22.48-.23,1.03-.03,1.52.03.07.08.13.15.17Z"/></svg>