<?xml version="1.0" encoding="UTF-8"?><svg id="Done" xmlns="http://www.w3.org/2000/svg" xmlns:xlink="http://www.w3.org/1999/xlink" viewBox="0 0 16 16"><defs><style>.cls-1{fill:#0070ff;}.cls-2{clip-path:url(#clippath);}.cls-3{fill:none;}</style><clipPath id="clippath"><polyline class="cls-3" points="0 7 3 7 3 3 10 3 13 7 16 7 16 4.67 16 0 0 0"/></clipPath></defs><g id="Layer_29"><g class="cls-2"><path class="cls-1" d="m14,2v12H2V2h12m0-1H2c-.55,0-1,.45-1,1v12c0,.55.45,1,1,1h12c.55,0,1-.45,1-1V2c0-.55-.45-1-1-1h0Z"/></g><g id="Text"><path class="cls-1" d="m5.17,12.33l1.16.4c-.18.72-.48,1.25-.91,1.58-.42.33-.94.5-1.56.5-.78,0-1.4-.27-1.89-.8-.55-.61-.83-1.44-.83-2.48,0-1.1.28-1.96.84-2.58.49-.54,1.14-.81,1.96-.81.67,0,1.23.2,1.67.61.32.29.55.71.7,1.28l-1.19.31c-.08-.35-.23-.62-.45-.8s-.49-.28-.8-.28c-.44,0-.8.17-1.08.51-.28.34-.42.9-.42,1.68s.14,1.39.41,1.73.62.51,1.05.51c.32,0,.59-.11.82-.33.23-.22.4-.56.5-1.04Z"/><path class="cls-1" d="m8.05,13.77v-1.67h-1.56v-1.16h1.56v-1.67h1.04v1.67h1.57v1.16h-1.57v1.67h-1.04Z"/><path class="cls-1" d="m12.29,13.77v-1.67h-1.56v-1.16h1.56v-1.67h1.04v1.67h1.57v1.16h-1.57v1.67h-1.04Z"/></g></g></svg>