<?xml version="1.0" encoding="UTF-8"?><svg id="Layer_34" xmlns="http://www.w3.org/2000/svg" viewBox="0 0 16 16"><defs><style>.cls-1{fill:#fafafa;}.cls-2{fill:#efebe9;}.cls-3{fill:#ede7f6;}.cls-4{fill:#eee;}</style></defs><path class="cls-3" d="m4.38,9.17c.2-.13.36-.45.26-.68-.27.12-.26.39-.26.68Zm3.09.75c.22-.07.42-.31.31-.56-.17.12-.28.28-.31.56h0Z"/><path class="cls-1" d="m1.4,13.5c0,.27.07.57.26.67.7.39,3.16.09,4-.1.44-.1.79-.42,1.2-.6.93-.4,1.6-.73,2.34-1.27.54-.39,1.39-1.5,1.48-2.17l-.73-.16c-.02.75-.19.91-.85,1.09-.45.12-1.32.15-1.77.07-.6-.1-.88-.42-1.15-.78-.53-.7.12-1.19-.72-1.24-.88,1.08-2.43.3-3.11.19-.29.42-.97,3.15-.96,3.77.42-.14.68.01,1.06.16,1.33.52.17.97-.36.84-.36-.09-.48-.32-.69-.48h0Zm1.75-6.23c.54.1,1.02.33,1.48.56.75.37.88.32.95.84,0,.1,0,.15.26.23.46.14-.26-.11.97-.11.73,0,2.41.3,2.95.64.23.14.18.32.94.3,0-.9-.25-2.24-.6-3.06-.43-1-1-1.15-2.15-1.52-.68-.22-2.66-.45-3.28-.07-.58.36-.68.79-1.22,1.54-.16.22-.21.39-.31.64h0Z"/><path class="cls-1" d="m7.92,9.12c.43.18-.02,1.33-.62,1.05-.19-.55.27-.86.39-1.11-.26-.04-1-.16-1.22-.07-.29.11-.35.72-.2,1.01.69,1.36,3.76,1.07,3.43.01-.13-.43-.25-.5-.69-.65-.35-.12-.7-.24-1.09-.24h0Zm-5.45-.15c.35.33,1.13.39,1.64.41.06-.67.12-1.17.66-1.14.26.36.13.78-.15,1.06.47,0,.75-.36.68-.88-.4-.29-1.61-.86-2.21-.94-.17.18-.58,1.18-.61,1.48Z"/><path d="m1.66,13.25c.29-.03,1.03.19,1.09.43-.46.06-1.05.01-1.09-.43h0Zm-.26.25c.21.15.32.39.69.48.53.13,1.7-.32.36-.84-.38-.15-.64-.3-1.06-.16,0-.62.67-3.35.96-3.77.68.11,2.23.88,3.11-.19.84.05.19.54.72,1.24.27.36.55.68,1.15.78.45.08,1.33.05,1.77-.07.66-.17.83-.34.85-1.09l.73.16c-.09.66-.94,1.77-1.48,2.17-.74.54-1.41.87-2.34,1.27-.41.18-.77.5-1.2.6-.84.19-3.3.49-4,.1-.19-.1-.26-.4-.26-.67h0Zm6.06-3.59c.03-.29.14-.45.31-.56.12.25-.09.49-.31.56Zm.45-.8c.39,0,.74.12,1.09.24.44.15.56.22.69.65.32,1.06-2.74,1.35-3.43-.01-.15-.29-.08-.9.2-1.01.22-.08.96.03,1.22.07-.13.25-.59.56-.39,1.11.6.28,1.06-.87.62-1.05h0Zm-3.54.05c0-.3,0-.57.26-.68.1.23-.06.55-.26.68h0Zm-1.91-.2c.02-.3.44-1.3.61-1.48.61.08,1.82.65,2.21.94.07.52-.2.87-.68.88.28-.27.42-.7.15-1.06-.54-.04-.59.46-.66,1.14-.51-.03-1.29-.08-1.64-.41Zm-.43-.35c-.16-.44-.16-1.13.52-1.19l-.35.97c-.09.21-.09.16-.17.22h0Zm1.11-1.34c.1-.25.16-.42.31-.64.54-.75.65-1.18,1.22-1.54.62-.38,2.6-.14,3.28.07,1.16.37,1.72.52,2.15,1.52.35.82.59,2.16.6,3.06-.76.02-.72-.16-.94-.3-.54-.34-2.22-.64-2.95-.64-1.23,0-.51.25-.97.11-.27-.09-.26-.14-.26-.23-.07-.52-.2-.47-.95-.84-.46-.23-.94-.45-1.48-.56h0Zm7.67-.21c-.08-.27.07-.26.33-.44.15-.11.27-.22.46-.32.7-.39,2-.45,2.55,0,.23.19.59.55.54,1.03-.12.95-.77,1.47-1.3,1.9-.54.44-1.44.9-2.37.59-.08-.19-.02-1.4-.11-1.85-.08-.4-.04-.44.19-.68.68-.7,2.14-1.21,2.97-.61.35.26.25.36.43.56.23-.24-.19-1.06-1.75-1.01-1.05.03-1.51.86-1.95.82h0Zm-6.31-2.47c.02-.6.58-1.85,1.13-2.28.67-.52,1.37-1.01,2.4-.42.26.14.24.22.27.57.02.34,0,.47-.1.75-.68,2.21-1.26.94-3.45,1.46.08-.72.71-1.36,1.05-1.69.59-.58,1.02-.95,1.92-.83.25.41.27.67-.03,1.15-.4.64-.5.6-.44,1.04.31-.08.41-.38.55-.68.87-1.82-.39-2.04-1.17-1.71-.52.22-1.45,1.24-1.75,1.86-.06.12-.13.28-.18.41l-.21.38Zm3.43.09c.09-.54.63-.68.63-2.34,0-.72-.88-1.36-2.04-.88-.99.41-1.14.72-1.67,1.52-.5.75-.48,1.58-.91,2.28-.13.2-.24.27-.38.47-.1.15-.17.33-.27.51-.2.33-.41.58-.58.97-.52.01-.96.02-1.01.56-.07.74.28.92.28,1.2,0,.3-1.22,3.31-.88,5.11.1.49.42.5.94.56,1.25.15,2.88.1,4-.35l2.04-.97c.52-.29,1.38-.84,1.77-1.24.27-.28.42-.52.65-.85.32-.47.33-.46.4-1.1.42.08,1.22.26,1.48.49-.03.3-.18.16-.18.42.17,0,.45-.21.52-.44-.18-.26-.36-.22-.62-.42.2-.16.57-.23.85-.35.61-.25,1.64-1.01,1.9-1.71.2-.56.05-1.49-.28-1.85-.35-.38-1.15-.58-1.81-.58-.78,0-1.59.56-2.23.81-.24-.21-.26-.45-.44-.69-.2-.28-1.53-.97-2.16-1.1h0Z"/><path class="cls-2" d="m10.82,7.06c.44.04.9-.78,1.95-.82,1.55-.05,1.97.76,1.75,1.01-.18-.2-.08-.3-.43-.56-.83-.6-2.3-.09-2.97.61-.23.24-.27.28-.19.68.09.45.03,1.66.11,1.85.93.3,1.83-.15,2.37-.59.53-.43,1.18-.95,1.3-1.9.06-.48-.31-.84-.54-1.03-.55-.46-1.85-.4-2.55,0-.19.1-.31.22-.46.32-.26.19-.42.17-.33.44Zm-6.31-2.47l.21-.38c.06-.13.12-.29.18-.41.3-.62,1.23-1.64,1.75-1.86.78-.33,2.04-.11,1.17,1.71-.14.3-.24.61-.55.68-.06-.44.04-.4.44-1.04.3-.48.27-.74.03-1.15-.89-.12-1.32.25-1.92.83-.35.33-.97.97-1.05,1.69,2.19-.52,2.76.75,3.45-1.46.09-.28.12-.4.1-.75-.03-.36-.01-.43-.27-.57-1.03-.58-1.73-.1-2.4.42-.55.43-1.11,1.68-1.13,2.28h0Z"/><path class="cls-4" d="m2.04,8.62c.08-.06.08-.01.17-.22l.35-.97c-.68.06-.68.75-.52,1.19h0Z"/><path class="cls-2" d="m2.75,13.69c-.06-.24-.81-.46-1.09-.43.04.45.63.49,1.09.43Z"/></svg>