<?xml version="1.0" encoding="UTF-8"?><svg id="Layer_7" xmlns="http://www.w3.org/2000/svg" viewBox="0 0 16 16"><defs><style>.cls-1{fill:#fff;}.cls-2{fill:red;}</style></defs><path id="path5" class="cls-1" d="m12,4l-.06-2.5c0-.28-.22-.5-.5-.5H3.48c-.26,0-.48.21-.48.48v11.04c0,.26.21.48.48.48h4.52v-1H4V2h7v2"/><rect class="cls-1" x="5" y="7" width="3" height="1"/><rect class="cls-1" x="5" y="4" width="5" height="1"/><path class="cls-2" d="m11.46,6.05c-1.21.21-2.2,1.21-2.41,2.42-.19,1.1.22,2.1.95,2.75v3.06c0,.27.32.4.51.21l1.04-1.04c.25-.25.66-.25.91,0l1.04,1.04c.19.19.51.05.51-.21v-3.06c.61-.55,1-1.34,1-2.22,0-1.83-1.64-3.28-3.54-2.95Zm.54,4.95c-1.1,0-2-.9-2-2s.9-2,2-2,2,.9,2,2-.9,2-2,2Z"/></svg>