<?xml version="1.0" encoding="UTF-8"?><svg id="Layer_32" xmlns="http://www.w3.org/2000/svg" viewBox="0 0 16 16"><defs><style>.cls-1{fill:#d48a08;}.cls-1,.cls-2,.cls-3,.cls-4,.cls-5,.cls-6{fill-rule:evenodd;}.cls-2{fill:#f6a009;}.cls-3{fill:#815405;}.cls-4{fill:#ffd491;}.cls-5{fill:#999;}</style></defs><g id="Layer_16"><path id="polygon117" class="cls-3" d="m11,15V3l2-2v12l-2,2Z"/><path id="rect117" class="cls-1" d="m1,3h10v10H1V3Z"/><path id="polygon118" class="cls-2" d="m11,3l2-2H3s-2,2-2,2h10Z"/><path id="polygon119" class="cls-4" d="m7,3l2-2h-3l-2,2h3Z"/><path id="rect119" class="cls-4" d="m4,3h3v10h-3V3Z"/></g><g id="Lock"><path class="cls-6" d="m6,15v-5c-.02-.82.35-1.45,1-1.77v-.23c0-1.78,1.56-3.77,3.64-3.77s3.36,1.96,3.36,3.77v.22c.62.31.99.93,1,1.76v5.02H6Z"/><path id="lock" class="cls-5" d="m8,8c0-1.31,1.19-2.77,2.64-2.77s2.36,1.46,2.36,2.77v1c.62.01.99.3,1,1v4h-7v-4c-.02-.67.35-.96,1-1v-1Zm1,0c0-.64.25-1.25.7-1.7l.3-.3h1l.29.29c.45.45.71,1.07.71,1.71v1h-3v-1.01Z"/><rect x="10" y="10" width="1" height="2"/><polygon class="cls-6" points="13.23 8.5 7.71 8.5 7.74 9 13.26 9 13.23 8.5"/></g></svg>