<?xml version="1.0" encoding="UTF-8"?><svg id="Layer_51" xmlns="http://www.w3.org/2000/svg" viewBox="0 0 16 16"><defs><style>.cls-1{fill:#92b835;}.cls-1,.cls-2,.cls-3,.cls-4,.cls-5,.cls-6{fill-rule:evenodd;}.cls-2{fill:#8bad37;}.cls-3{fill:#9cc735;}.cls-4{fill:#835931;}.cls-5{fill:#e6bb7e;}.cls-6{fill:#7d9c32;}</style></defs><g id="Layer_1"><g id="_2220002388688"><path class="cls-3" d="m12.91,8.52s0,0,0,0c-.06,0-.11-.03-.14-.08l-.57-.98s-.03-.08-.02-.12l.11-.45-.25.19c-.07.05-.16.04-.21-.02l-.72-.72s-.06-.1-.04-.16c0,0,.17-.69-.09-1.09-.09.24-.17.53-.16.7,0,.02,0,.03,0,.05,0,.09-.07.16-.16.16h0s-.05,0-.07-.01c-.05-.02-1.29-.6-2-1.75h-.02s-.06-.08-.06-.12,0-.09.03-.12c.08-.11.13-.23.13-.37,0-.04.02-.09.05-.12.03-.03.08-.04.12-.04,1.15.09,3.24.48,4.24,2.06,0,0,.01.02.02.03.03.08.67,1.85-.05,2.9-.03.04-.08.07-.13.07Z"/><path class="cls-1" d="m8.83,3.28s-.08-.02-.11-.04c-.03-.03-.05-.07-.05-.12,0-.21-.1-.41-.27-.53-.04-.03-.06-.07-.07-.11,0-.05,0-.09.04-.13.82-.93,2.59-1.33,2.63-1.35.01,0-.22,0,0,0,2.09,0,2.93,1.52,3.05,1.73.02.03.04.06.04.1,0,.09-.07.16-.16.16,0,0,0,0,0,0h0l-1.06-.02s-.08-.02-.11-.05l-.31-.3-.02.31c0,.08-.07.14-.15.15l-1.04.11c-.08,0-.15-.04-.17-.11-.1-.31-.47-.47-.76-.55l.25.35s.04.11.02.16c-.02.05-.08.09-.13.09l-1.59.14s0,0-.01,0h0Z"/><path class="cls-2" d="m7.21,3.43s-.02,0-.03,0l-1.59-.27c-.06,0-.1-.05-.12-.1-.02-.05-.01-.11.02-.16l.25-.35c-.29.08-.66.24-.76.55-.02.07-.1.12-.17.11l-1.04-.11c-.08,0-.14-.07-.15-.15l-.02-.28-.15.25s-.08.08-.14.08l-1.2.02c-.06,0-.11-.03-.14-.08-.03-.05-.03-.11,0-.16.04-.07.83-1.78,3.03-1.78.22,0-1,0,0,0,.04.02,1.85.57,2.67,1.5.03.03.05.08.04.13s-.03.09-.07.11c-.17.12-.27.32-.27.53,0,.05-.02.09-.06.13-.03.03-.07.04-.11.04h0Z"/><path class="cls-3" d="m3.13,8.19c-.05,0-.1-.03-.13-.07-.73-1.05-.08-2.83-.05-2.9,0-.01,0-.02.02-.03,1-1.58,3.08-1.97,4.24-2.06.04,0,.09.01.12.04.03.03.05.07.05.12,0,.13.05.26.13.37.03.03.04.08.03.12,0,.04-.03.08-.06.11h-.02c-.71,1.16-1.95,1.74-2,1.76-.06.03-.12.02-.17-.02-.05-.04-.07-.1-.06-.16.03-.16-.06-.47-.15-.72-.26.4-.09,1.09-.09,1.09.01.06,0,.12-.04.16l-.72.72c-.06.06-.15.06-.21.02l-.25-.19.11.45s0,.08-.02.12l-.57.98s-.08.08-.14.08c0,0,0,0,0,0h0Z"/><path class="cls-4" d="m8.3,11.35s-.07-.01-.1-.03c-.29-.21-.64-.31-1-.26-.04,0-.09,0-.13-.04s-.06-.07-.06-.12c-.15-2.26-.05-4.64.28-7.07,0-.06.05-.11.11-.13.06-.02.12,0,.17.04.12.11.28.18.45.18.12,0,.23-.03.34-.09.05-.03.12-.03.17,0,.05.03.08.09.07.16-.24,2.09-.29,4.44-.13,7.19,0,.06-.03.12-.09.15-.02.01-.05.02-.08.02h0Z"/><path class="cls-6" d="m8.02,4.24c-.54,0-.97-.44-.97-.97s.44-.97.97-.97.97.44.97.97-.44.97-.97.97Z"/><path class="cls-5" d="m1,14c0-.94.76-1.87,1.7-1.87.1,0,.2,0,.3.03.25-.66.88-1.11,1.6-1.11.43,0,.84.16,1.15.45.21-.71.86-1.2,1.63-1.2.83,0,1.52.59,1.67,1.37.3-.23.66-.36,1.05-.36.49,0,.94.2,1.27.57.16-.05.33-.07.5-.07.5,0,.97.22,1.29.6.9-.08,1.68.54,1.83,1.41,0,.05,0,.19,0,.19H1Z"/></g></g></svg>