<?xml version="1.0" encoding="UTF-8"?><svg id="Layer_19" xmlns="http://www.w3.org/2000/svg" viewBox="0 0 16 16"><defs><style>.cls-1{fill:#35b6e1;}</style></defs><path class="cls-1" d="m11.41,2h-.82c-.39,0-.77.09-1.12.26l-1.47.74-1.47-.74c-.35-.17-.73-.26-1.12-.26h-.79c-.4,0-.8.09-1.16.27l-1.45.73h-1v12h14V3h-1l-1.47-.74c-.35-.17-.73-.26-1.12-.26Zm-3,11.59l-.41.41-.41-.41c-.38-.38-.89-.59-1.42-.59h-1.24l-1.93,1h-1V4h1l1.01-.5c.63-.32,1.37-.35,2.03-.09l1.02.59v8l.95,1V4l1.96-.58c.66-.26,1.4-.23,2.04.08l1,.5h1v10h-1l-1.94-1h-1.23c-.53,0-1.04.21-1.42.59Z"/></svg>