<?xml version="1.0" encoding="UTF-8"?><svg id="Layer_25" xmlns="http://www.w3.org/2000/svg" viewBox="0 0 16 16"><defs><style>.cls-1{fill:#ffb13b;}</style></defs><g id="svgstar"><g id="g53"><path id="svgbar" class="cls-1" d="m3.21,7c-2.78-1.54-2.71,3.74,0,2h9.58c2.71,1.74,2.78-3.54,0-2H3.21Z"/><g id="use1"><path id="svgbar-2" class="cls-1" d="m5.15,3.88c-.67-3.41-4.73.66-1.32,1.32l7.02,7.02c.67,3.41,4.73-.66,1.32-1.32L5.15,3.88Z"/></g><g id="use2"><path id="svgbar-3" class="cls-1" d="m9,3.26c1.64-2.75-3.64-2.75-2,0v9.58c-1.64,2.75,3.64,2.75,2,0V3.26Z"/></g><g id="use3"><path id="svgbar-4" class="cls-1" d="m12.17,5.2c3.41-.67-.66-4.73-1.32-1.32l-7.02,7.02c-3.41.67.66,4.73,1.32,1.32l7.02-7.02Z"/></g></g></g></svg>