<?xml version="1.0" encoding="UTF-8"?><svg id="Done" xmlns="http://www.w3.org/2000/svg" xmlns:xlink="http://www.w3.org/1999/xlink" viewBox="0 0 16 16"><defs><style>.cls-1{fill:#0070ff;}.cls-2{clip-path:url(#clippath);}.cls-3{fill:none;}.cls-4{fill:#006fff;}</style><clipPath id="clippath"><polyline class="cls-3" points="0 16 5 16 5 13 3 13 3 3 11 3 13 6 16 6 16 0 0 0"/></clipPath></defs><g id="TS"><g class="cls-2"><path class="cls-4" d="m14,2h0v12s-12,0-12,0V2h12m0-1H2c-.55,0-1,.45-1,1v11.99c0,.55.45,1,1,1h11.99c.55,0,1-.45,1-1V2c0-.55-.45-1-1-1h0Z"/></g><g id="Text"><path class="cls-1" d="m6.81,14.84v-6.24h-1.83v-1.27h4.9v1.27h-1.83v6.24h-1.24Z"/><path class="cls-1" d="m9.95,12.39l1.22-.14c.14.96.58,1.44,1.34,1.44.38,0,.67-.1.89-.29.22-.2.32-.44.32-.73,0-.17-.04-.32-.11-.44-.08-.12-.19-.22-.34-.29s-.53-.21-1.12-.39c-.53-.16-.92-.33-1.16-.52-.25-.19-.44-.43-.59-.74-.15-.31-.22-.63-.22-.99,0-.41.09-.78.28-1.11.19-.33.44-.58.77-.74.33-.17.73-.25,1.22-.25.72,0,1.29.2,1.7.59s.62.96.65,1.69l-1.25.07c-.05-.4-.17-.69-.35-.85-.18-.16-.44-.24-.77-.24s-.59.07-.77.21-.27.31-.27.52.08.38.25.52c.16.14.54.29,1.13.46.63.18,1.08.37,1.36.57.28.2.49.46.64.77.15.32.22.7.22,1.15,0,.65-.2,1.2-.6,1.65-.4.44-1.03.67-1.88.67-1.51,0-2.35-.86-2.52-2.58Z"/></g></g></svg>