<?xml version="1.0" encoding="UTF-8"?><svg id="Done" xmlns="http://www.w3.org/2000/svg" xmlns:xlink="http://www.w3.org/1999/xlink" viewBox="0 0 16 16"><defs><style>.cls-1{fill:#fff;}.cls-2{clip-path:url(#clippath);}.cls-3{fill:none;}</style><clipPath id="clippath"><polyline class="cls-3" points="0 7 3 7 3 3 10 3 13 7 16 7 16 4.67 16 0 0 0"/></clipPath></defs><g id="txt"><g class="cls-2"><path class="cls-1" d="m14,2v12H2V2h12m0-1H2c-.55,0-1,.45-1,1v12c0,.55.45,1,1,1h12c.55,0,1-.45,1-1V2c0-.55-.45-1-1-1h0Z"/></g><g id="Text"><path class="cls-1" d="m2.75,15v-4.76h-1.57v-.97h4.2v.97h-1.57v4.76h-1.07Z"/><path class="cls-1" d="m5.54,15l1.83-2.98-1.66-2.75h1.25l1.05,1.71,1.05-1.71h1.24l-1.66,2.74,1.83,2.99h-1.29l-1.17-1.94-1.18,1.94h-1.28Z"/><path class="cls-1" d="m12.2,15v-4.76h-1.57v-.97h4.2v.97h-1.57v4.76h-1.07Z"/></g></g></svg>