<?xml version="1.0" encoding="UTF-8" standalone="no"?>
<svg
   width="16.012487"
   height="16.012487"
   viewBox="0 0 16.012487 16.012487"
   fill="none"
   version="1.1"
   id="svg2"
   sodipodi:docname="_icon_base.svg"
   inkscape:version="1.3.2 (091e20e, 2023-11-25, custom)"
   xml:space="preserve"
   inkscape:export-filename="svg.svg"
   inkscape:export-xdpi="96"
   inkscape:export-ydpi="96"
   xmlns:inkscape="http://www.inkscape.org/namespaces/inkscape"
   xmlns:sodipodi="http://sodipodi.sourceforge.net/DTD/sodipodi-0.dtd"
   xmlns="http://www.w3.org/2000/svg"
   xmlns:svg="http://www.w3.org/2000/svg"><defs
     id="defs2" /><sodipodi:namedview
     id="namedview2"
     pagecolor="#131313"
     bordercolor="#ffffff"
     borderopacity="1"
     inkscape:showpageshadow="false"
     inkscape:pageopacity="0"
     inkscape:pagecheckerboard="1"
     inkscape:deskcolor="#868686"
     inkscape:zoom="32"
     inkscape:cx="2.625"
     inkscape:cy="6.078125"
     inkscape:window-width="1920"
     inkscape:window-height="1009"
     inkscape:window-x="-8"
     inkscape:window-y="-8"
     inkscape:window-maximized="1"
     inkscape:current-layer="g3"
     showgrid="false"
     showborder="false"
     labelstyle="default"
     showguides="true"
     inkscape:clip-to-page="false"
     shape-rendering="crispEdges"
     inkscape:export-bgcolor="#00000000"><inkscape:grid
       id="grid1"
       units="px"
       originx="7.0124876"
       originy="7.0124876"
       spacingx="1"
       spacingy="1"
       empcolor="#3f3fff"
       empopacity="0.5372549"
       color="#3f3fff"
       opacity="0.27843137"
       empspacing="1"
       dotted="false"
       gridanglex="30"
       gridanglez="30"
       visible="false" /></sodipodi:namedview><rect
     style="display:inline;opacity:0;fill:#131313;fill-opacity:1;stroke:none;stroke-width:2;stroke-linecap:round;stroke-linejoin:round;stroke-dasharray:none;stroke-dashoffset:0;stroke-opacity:1;paint-order:markers stroke fill"
     id="rect72"
     width="16"
     height="16"
     x="0.01248758"
     y="0.01248758"
     inkscape:export-filename="sh.svg"
     inkscape:export-xdpi="96"
     inkscape:export-ydpi="96" /><g
     style="fill:#40c057"
     id="g10"
     transform="matrix(0.44479132,0,0,0.44479132,-2.6687479,-2.6687479)"
     inkscape:label="AHK Outline"><path
       d="M 13.5,6 C 9.3754991,6 6,9.3754991 6,13.5 v 21 c 0,4.124501 3.3754991,7.5 7.5,7.5 h 21 c 4.124501,0 7.5,-3.375499 7.5,-7.5 v -21 C 42,9.3754991 38.624501,6 34.5,6 Z m 0,3 h 21 c 2.503499,0 4.5,1.996501 4.5,4.5 v 21 c 0,2.503499 -1.996501,4.5 -4.5,4.5 h -21 C 10.996501,39 9,37.003499 9,34.5 v -21 C 9,10.996501 10.996501,9 13.5,9 Z M 31,12 c -1.105,0 -2,0.895 -2,2 v 6.564453 L 19,21.869141 V 17 c 0,-1.105 -0.895,-2 -2,-2 h -2 c -1.105,0 -2,0.895 -2,2 v 17 c 0,1.105 0.895,2 2,2 h 2 c 1.105,0 2,-0.895 2,-2 V 26.869141 L 29,25.566406 V 31 c 0,1.105 0.895,2 2,2 h 2 c 1.105,0 2,-0.895 2,-2 V 14 c 0,-1.105 -0.895,-2 -2,-2 z"
       id="path1-33" /></g></svg>
