<?xml version="1.0" encoding="UTF-8" standalone="no"?>
<svg
   width="16"
   height="16"
   viewBox="0 0 16 16"
   fill="none"
   version="1.1"
   id="svg2"
   sodipodi:docname="_icon_base.svg"
   inkscape:version="1.3.2 (091e20e, 2023-11-25, custom)"
   xml:space="preserve"
   inkscape:export-filename="vscode-ignore.svg"
   inkscape:export-xdpi="96"
   inkscape:export-ydpi="96"
   xmlns:inkscape="http://www.inkscape.org/namespaces/inkscape"
   xmlns:sodipodi="http://sodipodi.sourceforge.net/DTD/sodipodi-0.dtd"
   xmlns="http://www.w3.org/2000/svg"
   xmlns:svg="http://www.w3.org/2000/svg"><defs
     id="defs2" /><sodipodi:namedview
     id="namedview2"
     pagecolor="#131313"
     bordercolor="#ffffff"
     borderopacity="1"
     inkscape:showpageshadow="false"
     inkscape:pageopacity="0"
     inkscape:pagecheckerboard="1"
     inkscape:deskcolor="#868686"
     inkscape:zoom="32"
     inkscape:cx="7.328125"
     inkscape:cy="11.234375"
     inkscape:window-width="1920"
     inkscape:window-height="1009"
     inkscape:window-x="-8"
     inkscape:window-y="-8"
     inkscape:window-maximized="1"
     inkscape:current-layer="g79"
     showgrid="false"
     showborder="false"
     labelstyle="default"
     showguides="true"
     inkscape:clip-to-page="false"
     shape-rendering="crispEdges"
     inkscape:export-bgcolor="#00000000"><inkscape:grid
       id="grid1"
       units="px"
       originx="7"
       originy="7"
       spacingx="1"
       spacingy="1"
       empcolor="#3f3fff"
       empopacity="0.5372549"
       color="#3f3fff"
       opacity="0.27843137"
       empspacing="1"
       dotted="false"
       gridanglex="30"
       gridanglez="30"
       visible="false" /></sodipodi:namedview><rect
     style="display:inline;opacity:0;fill:#131313;fill-opacity:1;stroke:none;stroke-width:2;stroke-linecap:round;stroke-linejoin:round;stroke-dasharray:none;stroke-dashoffset:0;stroke-opacity:1;paint-order:markers stroke fill"
     id="rect72"
     width="16"
     height="16"
     x="0"
     y="0"
     inkscape:export-filename="julia.svg"
     inkscape:export-xdpi="96"
     inkscape:export-ydpi="96" /><g
     id="g79"
     transform="matrix(0.06343453,0,0,0.06343453,-0.11644759,-0.1196188)"
     inkscape:export-filename="cpp.svg"
     inkscape:export-xdpi="96"
     inkscape:export-ydpi="96"
     inkscape:label="C"><path
       id="path75"
       style="fill:#00599c;fill-opacity:1"
       d="M 119.20574,6.8120439 27.883731,59.493082 c -5.299995,2.999997 -9.575572,10.503241 -9.575572,16.503235 V 181.29681 c 0,3 0.85554,6.69874 2.555538,9.69873 1.699998,3 3.742665,4.01135 6.342662,5.51135 l 91.198851,52.68103 c 5.29999,3 13.88194,3 19.18193,0 l 91.19885,-52.68103 c 2.6,-1.5 5.01214,-3.40425 6.71214,-6.40425 1.7,-2.99999 2.80186,-6.39083 2.80186,-9.39083 V 75.288156 c 0,-10.180817 -7.27887,-14.914129 -8.80584,-15.795074 L 138.2953,6.8120439 c -5.3843,-3.0477228 -13.86374,-3.0148911 -19.08956,0 z"
       sodipodi:nodetypes="ccsssccccsssccc" /><path
       fill="#ffffff"
       d="m 133.94673,187.2488 c -32.72785,0 -59.248738,-26.6015 -59.248738,-59.2488 0,-32.647296 26.601498,-59.248797 59.248738,-59.248797 21.11998,0 40.78897,11.366096 51.34895,29.664703 l -25.63417,14.832344 c -5.3203,-9.10899 -15.1548,-14.832344 -25.71478,-14.832344 -16.36396,0 -29.66465,13.300754 -29.66465,29.664704 0,16.36396 13.30069,29.6647 29.66465,29.6647 10.55998,0 20.39448,-5.64273 25.71478,-14.83235 l 25.63417,14.83235 c -10.55998,18.218 -30.22897,29.50349 -51.34895,29.50349 z"
       id="path76"
       style="display:inline;stroke-width:0.806106" /></g></svg>
