<?xml version="1.0" encoding="UTF-8" standalone="no"?>
<svg
   width="14.000001"
   height="15.750794"
   viewBox="0 0 14.000001 15.750794"
   fill="none"
   version="1.1"
   id="svg2"
   sodipodi:docname="_icon_base.svg"
   inkscape:version="1.3.2 (091e20e, 2023-11-25, custom)"
   xml:space="preserve"
   inkscape:export-filename="vscode-ignore.svg"
   inkscape:export-xdpi="96"
   inkscape:export-ydpi="96"
   xmlns:inkscape="http://www.inkscape.org/namespaces/inkscape"
   xmlns:sodipodi="http://sodipodi.sourceforge.net/DTD/sodipodi-0.dtd"
   xmlns="http://www.w3.org/2000/svg"
   xmlns:svg="http://www.w3.org/2000/svg"><defs
     id="defs2" /><sodipodi:namedview
     id="namedview2"
     pagecolor="#131313"
     bordercolor="#ffffff"
     borderopacity="1"
     inkscape:showpageshadow="false"
     inkscape:pageopacity="0"
     inkscape:pagecheckerboard="1"
     inkscape:deskcolor="#868686"
     inkscape:zoom="32"
     inkscape:cx="6.890625"
     inkscape:cy="7.390625"
     inkscape:window-width="1920"
     inkscape:window-height="1009"
     inkscape:window-x="-8"
     inkscape:window-y="-8"
     inkscape:window-maximized="1"
     inkscape:current-layer="svg2"
     showgrid="false"
     showborder="false"
     labelstyle="default"
     showguides="true"
     inkscape:clip-to-page="false"
     shape-rendering="crispEdges"
     inkscape:export-bgcolor="#00000000"><inkscape:grid
       id="grid1"
       units="px"
       originx="5.9999999"
       originy="6.8753959"
       spacingx="1"
       spacingy="1"
       empcolor="#3f3fff"
       empopacity="0.5372549"
       color="#3f3fff"
       opacity="0.27843137"
       empspacing="1"
       dotted="false"
       gridanglex="30"
       gridanglez="30"
       visible="false" /><sodipodi:guide
       position="-10.09375,16.437104"
       orientation="1,0"
       id="guide21"
       inkscape:locked="false" /></sodipodi:namedview><g
     id="g73"
     transform="matrix(0.06343453,0,0,0.06343453,-1.1164477,-0.24422294)"><path
       fill="#00599c"
       d="m 235.5,190.1 c 1.7,-3 2.8,-6.4 2.8,-9.4 V 75.3 c 0,-3 -1.1,-6.4 -2.8,-9.4 L 128,128 Z"
       id="path1-8" /><path
       fill="#004482"
       d="m 137.6,249.9 91.2,-52.7 c 2.6,-1.5 5,-4.1 6.7,-7.1 L 128,128 20.5,190.1 c 1.7,3 4.1,5.6 6.7,7.1 l 91.2,52.7 c 5.3,3 13.9,3 19.2,0 z"
       id="path2-0" /><path
       fill="#659ad2"
       d="m 235.5,65.9 c -1.7,-3 -4.1,-5.6 -6.7,-7.1 L 137.6,6.1 c -5.3,-3 -13.9,-3 -19.1,0 L 27.2,58.8 c -5.3,3 -9.6,10.5 -9.6,16.5 v 105.3 c 0,3 1.1,6.4 2.8,9.4 L 128,128 Z"
       id="path3-9" /><g
       id="g4">
	<path
   fill="#ffffff"
   d="m 128,201.5 c -40.6,0 -73.5,-33 -73.5,-73.5 0,-40.5 33,-73.5 73.5,-73.5 26.2,0 50.6,14.1 63.7,36.8 l -31.8,18.4 C 153.3,98.4 141.1,91.3 128,91.3 c -20.3,0 -36.8,16.5 -36.8,36.8 0,20.3 16.5,36.8 36.8,36.8 13.1,0 25.3,-7 31.9,-18.4 l 31.8,18.4 c -13.1,22.6 -37.5,36.6 -63.7,36.6 z"
   id="path4" />
</g><g
       id="g5">
	<polygon
   fill="#ffffff"
   points="201.5,132.1 201.5,123.9 193.4,123.9 193.4,115.7 185.2,115.7 185.2,123.9 177,123.9 177,132.1 185.2,132.1 185.2,140.3 193.4,140.3 193.4,132.1 "
   id="polygon4" />
</g><g
       id="g6">
	<polygon
   fill="#ffffff"
   points="232.2,132.1 232.2,123.9 224,123.9 224,115.7 215.8,115.7 215.8,123.9 207.7,123.9 207.7,132.1 215.8,132.1 215.8,140.3 224,140.3 224,132.1 "
   id="polygon5" />
</g></g></svg>
