<?xml version="1.0" encoding="UTF-8" standalone="no"?>
<svg
   width="16"
   height="16"
   viewBox="0 0 16 16"
   fill="none"
   version="1.1"
   id="svg2"
   sodipodi:docname="_icon_base.svg"
   inkscape:version="1.3.2 (091e20e, 2023-11-25, custom)"
   xml:space="preserve"
   inkscape:export-filename="vscode-ignore.svg"
   inkscape:export-xdpi="96"
   inkscape:export-ydpi="96"
   xmlns:inkscape="http://www.inkscape.org/namespaces/inkscape"
   xmlns:sodipodi="http://sodipodi.sourceforge.net/DTD/sodipodi-0.dtd"
   xmlns="http://www.w3.org/2000/svg"
   xmlns:svg="http://www.w3.org/2000/svg"><defs
     id="defs2" /><sodipodi:namedview
     id="namedview2"
     pagecolor="#131313"
     bordercolor="#ffffff"
     borderopacity="1"
     inkscape:showpageshadow="false"
     inkscape:pageopacity="0"
     inkscape:pagecheckerboard="1"
     inkscape:deskcolor="#868686"
     inkscape:zoom="32"
     inkscape:cx="-0.890625"
     inkscape:cy="9.046875"
     inkscape:window-width="1920"
     inkscape:window-height="1009"
     inkscape:window-x="-8"
     inkscape:window-y="-8"
     inkscape:window-maximized="1"
     inkscape:current-layer="svg2"
     showgrid="false"
     showborder="false"
     labelstyle="default"
     showguides="true"
     inkscape:clip-to-page="false"
     shape-rendering="crispEdges"
     inkscape:export-bgcolor="#00000000"><inkscape:grid
       id="grid1"
       units="px"
       originx="7"
       originy="7"
       spacingx="1"
       spacingy="1"
       empcolor="#3f3fff"
       empopacity="0.5372549"
       color="#3f3fff"
       opacity="0.27843137"
       empspacing="1"
       dotted="false"
       gridanglex="30"
       gridanglez="30"
       visible="false" /><sodipodi:guide
       position="-9.09375,16.3125"
       orientation="1,0"
       id="guide21"
       inkscape:locked="false" /></sodipodi:namedview><rect
     style="opacity:0;fill:#131313;fill-opacity:1;stroke:none;stroke-width:2;stroke-linecap:round;stroke-linejoin:round;stroke-dasharray:none;stroke-dashoffset:0;stroke-opacity:1;paint-order:markers stroke fill"
     id="rect72"
     width="16"
     height="16"
     x="0"
     y="0" /><g
     id="g72"
     transform="matrix(0.54261463,0,0,0.54261463,-0.68887341,-0.68156272)"
     style="display:inline"
     inkscape:label="Julia"><circle
       cx="8.309"
       cy="22.591999"
       r="5.8600001"
       style="fill:#d5635c"
       id="circle1" /><path
       d="M 8.309,28.9 A 6.309,6.309 0 1 1 14.618,22.591 6.316,6.316 0 0 1 8.309,28.9 Z m 0,-11.719 a 5.41,5.41 0 1 0 5.41,5.41 5.416,5.416 0 0 0 -5.41,-5.409 z"
       style="fill:#cb3c33"
       id="path1-34" /><circle
       cx="16"
       cy="9.408"
       r="5.8600001"
       style="fill:#60ad51"
       id="circle2" /><path
       d="M 16,15.717 A 6.309,6.309 0 1 1 22.309,9.408 6.316,6.316 0 0 1 16,15.717 Z M 16,4 A 5.41,5.41 0 1 0 21.41,9.41 5.416,5.416 0 0 0 16,4 Z"
       style="fill:#389826"
       id="path2-6" /><circle
       cx="23.691"
       cy="22.591999"
       r="5.8600001"
       style="fill:#aa79c1"
       id="circle3" /><path
       d="M 23.691,28.9 A 6.309,6.309 0 1 1 30,22.592 6.316,6.316 0 0 1 23.691,28.9 Z m 0,-11.719 a 5.41,5.41 0 1 0 5.41,5.41 5.416,5.416 0 0 0 -5.41,-5.409 z"
       style="fill:#9558b2"
       id="path3-1" /></g></svg>
