<?xml version="1.0" encoding="UTF-8" standalone="no"?>
<svg
   width="14"
   height="14"
   viewBox="0 0 14 14"
   fill="none"
   version="1.1"
   id="svg2"
   sodipodi:docname="_icon_base_14.svg"
   inkscape:version="1.3.2 (091e20e, 2023-11-25, custom)"
   xml:space="preserve"
   inkscape:export-filename="license.svg"
   inkscape:export-xdpi="96"
   inkscape:export-ydpi="96"
   xmlns:inkscape="http://www.inkscape.org/namespaces/inkscape"
   xmlns:sodipodi="http://sodipodi.sourceforge.net/DTD/sodipodi-0.dtd"
   xmlns="http://www.w3.org/2000/svg"
   xmlns:svg="http://www.w3.org/2000/svg"><defs
     id="defs2"><style
       id="style1">.cls-1{fill:#d68012;}</style><style
       id="style1-9">.cls-1{fill:#2e79bd;}.cls-2{fill:#2d3e50;}</style></defs><sodipodi:namedview
     id="namedview2"
     pagecolor="#131313"
     bordercolor="#ffffff"
     borderopacity="1"
     inkscape:showpageshadow="false"
     inkscape:pageopacity="0"
     inkscape:pagecheckerboard="1"
     inkscape:deskcolor="#868686"
     inkscape:zoom="32"
     inkscape:cx="7.0625"
     inkscape:cy="8.421875"
     inkscape:window-width="1920"
     inkscape:window-height="1009"
     inkscape:window-x="-8"
     inkscape:window-y="-8"
     inkscape:window-maximized="1"
     inkscape:current-layer="svg2"
     showgrid="false"
     showborder="false"
     labelstyle="default"
     showguides="true"
     inkscape:clip-to-page="false"
     shape-rendering="crispEdges"
     inkscape:export-bgcolor="#00000000"><inkscape:grid
       id="grid1"
       units="px"
       originx="7"
       originy="7"
       spacingx="1"
       spacingy="1"
       empcolor="#3f3fff"
       empopacity="0.5372549"
       color="#3f3fff"
       opacity="0.278431"
       empspacing="1"
       dotted="false"
       gridanglex="30"
       gridanglez="30"
       visible="false" /><sodipodi:guide
       position="7,7"
       orientation="1,0"
       id="guide7"
       inkscape:locked="false" /><sodipodi:guide
       position="7,7"
       orientation="0,-1"
       id="guide8"
       inkscape:locked="false" /></sodipodi:namedview><g
     id="g7"
     transform="matrix(0.11243237,0,0,0.11243237,-0.19567337,-0.19567169)"><rect
       style="font-variation-settings:'opsz' 40, 'wght' 900;display:inline;opacity:0;fill:#ffffff;stroke:none;stroke-width:6.95529;stroke-linejoin:round"
       id="rect8"
       width="112.49952"
       height="124.49094"
       x="10.501769"
       y="1.7545325" /><path
       id="path9"
       style="display:inline;fill:#eb0000;fill-opacity:1;stroke-width:1.03995"
       class="cls-1"
       d="M 98.576218,53.872384 C 94.95025,53.772002 91.216401,54.474398 87.580019,56.113315 70.956561,63.605506 67.619313,85.757911 81.291517,97.822416 v 28.419864 l 15.65177,-10.50979 c 0.575057,-0.38623 1.335815,-0.38623 1.910874,0 l 15.651749,10.50979 V 97.822416 c 5.40103,-4.755763 8.49576,-11.599605 8.49469,-18.796022 0.013,-14.245363 -11.47454,-24.795501 -24.424382,-25.15401 z m -0.677495,16.016573 a 8.9865761,8.9865761 0 0 1 8.981077,8.981093 8.9865761,8.9865761 0 0 1 -8.981077,8.981094 8.9865761,8.9865761 0 0 1 -8.998465,-8.981094 8.9865761,8.9865761 0 0 1 8.998465,-8.981093 z" /><path
       class="cls-1"
       d="M 82.882582,27.0038 H 32.677821 c -3.807397,-0.0071 -3.807397,5.707542 0,5.70041 h 50.204761 c 3.807397,0.0071 3.807397,-5.707542 0,-5.70041 z"
       id="path2-1"
       style="fill:#ffffff;fill-opacity:1"
       sodipodi:nodetypes="ccccc" /><path
       class="cls-1"
       d="M 61.897743,48.884896 H 33.372681 c -3.807397,-0.0071 -3.807397,5.707542 0,5.70041 h 28.525062 c 3.807397,0.0071 3.807397,-5.707542 0,-5.70041 z"
       id="path3-8"
       style="fill:#ffffff;fill-opacity:1"
       sodipodi:nodetypes="ccccc" /><path
       class="cls-1"
       d="M 55.849333,73.40699 H 32.677825 c -3.8074,-0.0071 -3.8074,5.707542 0,5.70041 h 23.171508 c 3.8074,0.0071 3.8074,-5.707542 0,-5.70041 z"
       id="path4-7"
       style="fill:#ffffff;fill-opacity:1"
       sodipodi:nodetypes="ccccc" /><path
       class="cls-2"
       d="M 98.862431,1.75453 H 14.754771 C 12.407881,1.752 10.503523,3.6528994 10.501773,5.99979 V 107.3907 c -0.0016,2.34954 1.903463,4.25461 4.252998,4.253 h 51.996755 v -8.49828 H 19.007781 V 10.25281 h 75.60163 v 33.517496 c 2.82028,-0.413187 5.685719,-0.413187 8.505979,0 V 5.99979 c -0.002,-2.3468759 -1.90609,-4.2477575 -4.252959,-4.24526 z"
       id="path5"
       style="fill:#fefefe;fill-opacity:1"
       sodipodi:nodetypes="cccccccccccccc" /></g></svg>
