<?xml version="1.0" encoding="UTF-8"?><svg id="svg2" xmlns="http://www.w3.org/2000/svg" viewBox="0 0 15.45 15.45"><defs><style>.cls-1{fill:#ffb13b;}</style></defs><g id="svgstar"><path id="svgbar" class="cls-1" d="m2.41,6.72c-.55-.55-1.45-.55-2,0-.55.55-.55,1.45,0,2,.55.55,1.45.55,2,0h10.62c.55.55,1.45.55,2,0,.55-.55.55-1.45,0-2-.55-.55-1.45-.55-2,0H2.41Z"/><g id="use1"><path id="svgbar-2" class="cls-1" d="m4.57,3.1c0-.81-.66-1.46-1.46-1.46-.81,0-1.46.66-1.46,1.46,0,.81.66,1.46,1.46,1.46l7.78,7.78c0,.81.66,1.46,1.46,1.46.81,0,1.46-.66,1.46-1.46,0-.81-.66-1.46-1.46-1.46L4.57,3.1Z"/></g><g id="use2"><path id="svgbar-3" class="cls-1" d="m8.72,2.41c.55-.55.55-1.45,0-2-.55-.55-1.45-.55-2,0-.55.55-.55,1.45,0,2v10.62c-.55.55-.55,1.45,0,2,.55.55,1.45.55,2,0,.55-.55.55-1.45,0-2V2.41Z"/></g><g id="use3"><path id="svgbar-4" class="cls-1" d="m12.34,4.57c.81,0,1.46-.66,1.46-1.46,0-.81-.66-1.46-1.46-1.46-.81,0-1.46.66-1.46,1.46l-7.78,7.78c-.81,0-1.46.66-1.46,1.46,0,.81.66,1.46,1.46,1.46.81,0,1.46-.66,1.46-1.46l7.78-7.78Z"/></g></g></svg>