<?xml version="1.0" encoding="UTF-8" standalone="no"?> <svg id="icon" xmlns="http://www.w3.org/2000/svg" viewBox="0 0 512 512"><title>brain</title><path d="M199.33,286.92a9.12,9.12,0,0,1,9.13-8.52c16.66-.08,26.14-9.5,31.41-18.64A35.47,35.47,0,0,0,244.53,242v-76a22,22,0,0,0-21.86-22c-25.71-.32-47.56,4.46-67.95,16.35A83,83,0,0,0,139.28,172a36.13,36.13,0,0,0-8.46,39.92c1,2.35,2.05,4.71,3.27,7.05a10.24,10.24,0,0,0,11.81,5.18A44.74,44.74,0,0,1,168,224a9.11,9.11,0,0,1,7.11,9.82,8.91,8.91,0,0,1-10.93,7.58c-8.61-2.07-15.94-.62-21.78,4.31-.15.14-.07.08-.13.13-.81.76-6.16,6.34-6.69,19.52a8.92,8.92,0,0,1-8.9,8.55h-.37a8.91,8.91,0,0,1-8.54-9.26,54.24,54.24,0,0,1,4.8-21,10.43,10.43,0,0,0-.6-9.93,105.47,105.47,0,0,1-9.18-18.86A11.34,11.34,0,0,0,96,209.22c-6.9,4.52-14.61,11.58-21.86,22.62a74.28,74.28,0,0,0-10.59,26.82,11.49,11.49,0,0,0,3.65,10.73,78.13,78.13,0,0,1,25.37,47.16A8.92,8.92,0,0,1,83.81,327,8.91,8.91,0,0,1,75,319.39a60.14,60.14,0,0,0-13.1-29.88,11.35,11.35,0,0,0-16.57-1.05,72.91,72.91,0,0,0-11.46,13.72c-6.77,10.51-9.24,21.91-11.08,34.45a27.55,27.55,0,0,0,27.33,31.44H159.86a15.56,15.56,0,0,0,14.49-21.25c-1.3-3.26-2.39-5.33-2.42-5.41A8.91,8.91,0,0,1,187.61,333a84.93,84.93,0,0,1,7.7,22.26,15.65,15.65,0,0,0,15.32,12.85h13.16a20.74,20.74,0,0,0,20.74-20.74V302.87A11.33,11.33,0,0,0,229,292.28a53.92,53.92,0,0,1-20.79,3.94A8.92,8.92,0,0,1,199.33,286.92Z"/><path d="M312.67,286.92a9.12,9.12,0,0,0-9.13-8.52c-16.66-.08-26.14-9.5-31.41-18.64A35.47,35.47,0,0,1,267.47,242v-76a22,22,0,0,1,21.86-22c25.71-.32,47.56,4.46,67.95,16.35A83,83,0,0,1,372.72,172a36.13,36.13,0,0,1,8.46,39.92c-1,2.35-2.05,4.71-3.27,7.05a10.24,10.24,0,0,1-11.81,5.18A44.74,44.74,0,0,0,344,224a9.11,9.11,0,0,0-7.11,9.82,8.91,8.91,0,0,0,10.93,7.58c8.61-2.07,15.94-.62,21.78,4.31l.13.13c.81.76,6.16,6.34,6.69,19.52a8.92,8.92,0,0,0,8.9,8.55h.37a8.91,8.91,0,0,0,8.54-9.26,54.24,54.24,0,0,0-4.8-21,10.43,10.43,0,0,1,.6-9.93,105.47,105.47,0,0,0,9.18-18.86A11.34,11.34,0,0,1,416,209.22c6.9,4.52,14.61,11.58,21.86,22.62a74.28,74.28,0,0,1,10.59,26.82,11.49,11.49,0,0,1-3.65,10.73,78.13,78.13,0,0,0-25.37,47.16A8.92,8.92,0,0,0,428.19,327a8.91,8.91,0,0,0,8.81-7.64,60.14,60.14,0,0,1,13.1-29.88,11.35,11.35,0,0,1,16.57-1.05,72.91,72.91,0,0,1,11.46,13.72c6.77,10.51,9.24,21.91,11.08,34.45a27.55,27.55,0,0,1-27.33,31.44H352.14a15.56,15.56,0,0,1-14.49-21.25c1.3-3.26,2.39-5.33,2.42-5.41A8.91,8.91,0,0,0,324.39,333a84.93,84.93,0,0,0-7.7,22.26,15.65,15.65,0,0,1-15.32,12.85H288.21a20.74,20.74,0,0,1-20.74-20.74V302.87A11.33,11.33,0,0,1,283,292.28a53.92,53.92,0,0,0,20.79,3.94A8.92,8.92,0,0,0,312.67,286.92Z"/></svg>