<?xml version="1.0" encoding="UTF-8"?>
<!DOCTYPE svg PUBLIC "-//W3C//DTD SVG 1.1//EN" "http://www.w3.org/Graphics/SVG/1.1/DTD/svg11.dtd">
<!-- Creator: CorelDRAW -->
<svg xmlns="http://www.w3.org/2000/svg" xml:space="preserve" width="1.70666in" height="1.70666in" version="1.1" style="shape-rendering:geometricPrecision; text-rendering:geometricPrecision; image-rendering:optimizeQuality; fill-rule:evenodd; clip-rule:evenodd"
viewBox="0 0 1706.66 1706.66"
 xmlns:xlink="http://www.w3.org/1999/xlink"
 xmlns:xodm="http://www.corel.com/coreldraw/odm/2003">
 <defs>
  <style type="text/css">
   <![CDATA[
    .fil4 {fill:#7D9C32}
    .fil3 {fill:#835931}
    .fil2 {fill:#8BAD37}
    .fil1 {fill:#92B835}
    .fil0 {fill:#9CC735}
    .fil5 {fill:#E6BB7E}
   ]]>
  </style>
 </defs>
 <g id="Layer_x0020_1">
  <metadata id="CorelCorpID_0Corel-Layer"/>
  <g id="_2220002388688">
   <path class="fil0" d="M1451.91 911.55c-0.3,0 -0.57,-0.02 -0.85,-0.03 -6.84,-0.29 -13.05,-4.06 -16.48,-9.98l-68.92 -119.36c-2.56,-4.43 -3.31,-9.68 -2.13,-14.65l13.14 -54.95 -31.07 23.07c-7.93,5.91 -19.04,5.12 -26.06,-1.92l-88.12 -88.12c-4.99,-4.98 -6.97,-12.28 -5.22,-19.12 0.25,-0.97 21.08,-84.64 -10.48,-133.41 -11.03,28.96 -21.28,64.49 -19.07,85 0.61,1.93 0.94,3.98 0.94,6.11 0,11.04 -8.96,20 -20,20 -0.11,0 -0.22,0 -0.28,0 -2.83,0 -5.68,-0.6 -8.36,-1.82 -6.43,-2.96 -157.3,-73.46 -243.67,-213.5l-2.25 -1.7c-4.26,-3.18 -7.07,-7.93 -7.82,-13.19 -0.75,-5.26 0.63,-10.6 3.82,-14.84 9.85,-13.07 15.3,-28.65 15.78,-45.04 0.17,-5.48 2.56,-10.65 6.64,-14.3 4.09,-3.65 9.47,-5.48 14.94,-5.05 140.63,11.15 394.78,58.56 516.67,250.8 0.77,1.18 1.39,2.45 1.87,3.76 3.39,9.18 82.13,226.19 -6.65,353.65 -3.69,5.41 -9.85,8.59 -16.37,8.59z"/>
   <path class="fil1" d="M954.89 331.77c-4.99,0 -9.82,-1.86 -13.53,-5.26 -4.13,-3.79 -6.49,-9.14 -6.49,-14.73 0,-25.41 -12.37,-49.43 -33.09,-64.23 -4.61,-3.29 -7.59,-8.37 -8.25,-14 -0.64,-5.63 1.12,-11.25 4.88,-15.5 100.4,-113.98 216.69,-157.05 221.59,-158.82 1.26,-0.46 2.56,-0.79 3.86,-0.99 27.62,-4.13 55.07,-6.23 81.56,-6.23 254.6,0 371.19,186.76 386.59,213.51 2.68,3.4 4.29,7.7 4.29,12.39 0,11.04 -8.96,20 -20,20 -0.06,0 -0.17,0.02 -0.28,0 -0.11,0 -0.22,0 -0.32,0l-129.49 -2.15c-5.14,-0.09 -10.04,-2.14 -13.69,-5.75l-37.73 -37.12 -3.02 37.37c-0.78,9.63 -8.32,17.31 -17.91,18.29l-126.81 12.9c-9.28,0.93 -18.13,-4.77 -21.05,-13.74 -12.39,-38.2 -57,-57.8 -92.5,-67.54l31.07 43.26c4.19,5.83 4.92,13.48 1.93,20.01 -3.01,6.54 -9.29,10.96 -16.45,11.57l-193.44 16.66c-0.56,0.08 -1.15,0.09 -1.72,0.09z"/>
   <path class="fil2" d="M757.15 331.77c-1.14,0 -2.26,-0.1 -3.4,-0.3l-193.44 -33.33c-6.79,-1.17 -12.5,-5.75 -15.11,-12.13 -2.61,-6.37 -1.75,-13.65 2.26,-19.24l31.07 -43.27c-35.5,9.75 -80.13,29.35 -92.52,67.54 -2.9,8.97 -11.79,14.63 -21.04,13.72l-126.8 -12.89c-9.7,-0.98 -17.29,-8.83 -17.94,-18.56l-2.28 -34.25 -18.78 30.5c-3.58,5.82 -9.9,9.42 -16.75,9.51l-146.15 2.15c-7.09,0.15 -13.7,-3.55 -17.39,-9.63 -3.68,-6.07 -3.87,-13.63 -0.51,-19.87 4.76,-8.83 119.77,-216.4 388.2,-216.4 26.5,0 53.93,2.1 81.57,6.23 2.11,0.32 4.17,0.97 6.08,1.94 4.84,2.45 119.79,61.48 219.37,174.51 3.74,4.25 5.5,9.87 4.86,15.5 -0.64,5.63 -3.64,10.71 -8.25,14 -20.72,14.8 -33.09,38.81 -33.09,64.22 0,5.9 -2.61,11.5 -7.11,15.29 -3.62,3.09 -8.19,4.73 -12.87,4.73z"/>
   <path class="fil0" d="M260.13 911.55c-6.53,0 -12.67,-3.18 -16.41,-8.57 -88.78,-127.46 -10.04,-344.48 -6.64,-353.65 0.49,-1.32 1.11,-2.58 1.87,-3.76 121.9,-192.24 376.04,-239.65 516.69,-250.8 5.48,-0.4 10.86,1.4 14.94,5.06 4.07,3.67 6.47,8.83 6.64,14.3 0.47,16.39 5.93,31.95 15.78,45.03 3.19,4.25 4.56,9.59 3.82,14.83 -0.74,5.25 -3.55,10 -7.8,13.19l-2.26 1.7c-86.37,140.04 -237.24,210.54 -243.67,213.5 -6.75,3.09 -14.67,2.21 -20.56,-2.33 -5.89,-4.54 -8.78,-11.97 -7.5,-19.29 3.5,-20.02 -7.17,-57.45 -18.68,-87.67 -31.57,48.77 -10.74,132.45 -10.5,133.43 1.75,6.84 -0.24,14.13 -5.22,19.12l-88.13 88.13c-7,7.01 -18.09,7.83 -26.06,1.91l-31.08 -23.07 13.14 54.95c1.2,4.97 0.43,10.22 -2.13,14.65l-68.92 119.36c-3.43,5.93 -9.64,9.7 -16.47,9.98 -0.29,0 -0.57,0.02 -0.84,0.02z"/>
   <path class="fil3" d="M890.83 1297.1c-4.22,0 -8.41,-1.35 -11.94,-3.96 -34.9,-26 -78.09,-37.39 -122.09,-31.68 -5.47,0.77 -11,-0.87 -15.27,-4.37 -4.27,-3.5 -6.89,-8.63 -7.25,-14.13 -18.07,-275.43 -6.68,-565.52 33.84,-862.21 1.01,-7.44 6.11,-13.68 13.19,-16.17 7.07,-2.47 14.96,-0.79 20.4,4.37 14.72,14 34.01,21.7 54.33,21.7 14.47,0 28.6,-3.94 40.85,-11.4 6.51,-3.97 14.76,-3.87 21.18,0.26 6.44,4.13 9.96,11.57 9.07,19.15 -29.8,254.38 -35.13,541.35 -16.35,877.31 0.43,7.75 -3.67,15.06 -10.5,18.73 -2.98,1.57 -6.22,2.37 -9.47,2.37z"/>
   <path class="fil4" d="M856.01 430.64c-65.54,0 -118.86,-53.33 -118.86,-118.87 0,-65.55 53.31,-118.86 118.86,-118.86 65.55,0 118.89,53.31 118.89,118.86 0,65.55 -53.34,118.87 -118.89,118.87z"/>
   <path class="fil5" d="M1686.54 1671.33l-1666.43 0c-11.04,0 -20,-8.97 -20,-20 0,-114.52 93.15,-207.68 207.68,-207.68 12.44,0 24.81,1.11 37,3.31 29.98,-80.42 107.44,-135.09 194.61,-135.09 52.46,0 102.71,20.04 140.71,55 25.96,-86.06 105.19,-146.84 198.71,-146.84 100.82,0 185.07,72.21 203.8,167.63 36.16,-28.2 80.86,-43.84 127.62,-43.84 59.65,0 115.22,24.98 154.62,69.03 19.72,-6.07 40.19,-9.14 61.03,-9.14 61.35,0 118.23,26.34 157.78,72.65 109.14,-9.4 204.47,65.89 222.57,171.57 1,5.81 -0.61,11.76 -4.41,16.28 -3.81,4.52 -9.39,7.11 -15.29,7.11z"/>
  </g>
 </g>
</svg>
