<?xml version="1.0" encoding="UTF-8" standalone="no"?> <svg width="64" height="64" viewBox="0 0 64 64" fill="none" xmlns="http://www.w3.org/2000/svg">
<path d="M61.13 50.28C61.5667 51.4878 61.7061 52.783 61.5366 54.0561C61.367 55.3293 60.8934 56.5428 60.1559 57.5943C59.4183 58.6457 58.4384 59.5041 57.299 60.0969C56.1597 60.6897 54.8943 60.9995 53.61 61H34.39C33.1057 60.9995 31.8403 60.6897 30.701 60.0969C29.5616 59.5041 28.5817 58.6457 27.8441 57.5943C27.1066 56.5428 26.633 55.3293 26.4634 54.0561C26.2939 52.783 26.4333 51.4878 26.87 50.28L33.47 32H54.53L61.13 50.28Z" fill="#00CCB3"/>
<path d="M22 38V53C22 55.1217 21.1571 57.1566 19.6569 58.6569C18.1566 60.1571 16.1217 61 14 61C11.8783 61 9.84344 60.1571 8.34315 58.6569C6.84285 57.1566 6 55.1217 6 53V32H22V38Z" fill="#FFD422"/>
<path d="M22 26V32H6V9H22V15V21V26Z" fill="#E6E7E8"/>
<path d="M22 3C22.7956 3 23.5587 3.31607 24.1213 3.87868C24.6839 4.44129 25 5.20435 25 6C25 6.79565 24.6839 7.55871 24.1213 8.12132C23.5587 8.68393 22.7956 9 22 9H6C5.20435 9 4.44129 8.68393 3.87868 8.12132C3.31607 7.55871 3 6.79565 3 6C3 5.20435 3.31607 4.44129 3.87868 3.87868C4.44129 3.31607 5.20435 3 6 3H22Z" fill="#E6E7E8"/>
<path d="M52 25L54.53 32H33.47L36 25V9H52V25Z" fill="#E6E7E8"/>
<path d="M52 3C52.7956 3 53.5587 3.31607 54.1213 3.87868C54.6839 4.44129 55 5.20435 55 6C55 6.79565 54.6839 7.55871 54.1213 8.12132C53.5587 8.68393 52.7956 9 52 9H36C35.2044 9 34.4413 8.68393 33.8787 8.12132C33.3161 7.55871 33 6.79565 33 6C33 5.20435 33.3161 4.44129 33.8787 3.87868C34.4413 3.31607 35.2044 3 36 3H52Z" fill="#E6E7E8"/>
<path d="M22 9H6V11H22V9Z" fill="#D1D3D4"/>
<path d="M52 9H36V11H52V9Z" fill="#D1D3D4"/>
<path d="M22 25H17V27H22V25Z" fill="#D8D7DA"/>
<path d="M22 20H17V22H22V20Z" fill="#D8D7DA"/>
<path d="M22 14H15V16H22V14Z" fill="#D8D7DA"/>
<path d="M22 31H15V33H22V31Z" fill="#D8D7DA"/>
<path d="M22 37H17V39H22V37Z" fill="#EBBF00"/>
<path d="M22 43H17V45H22V43Z" fill="#EBBF00"/>
<path d="M22 49H15V51H22V49Z" fill="#EBBF00"/>
<path d="M46 25H42V27H46V25Z" fill="#D8D7DA"/>
<path d="M46 20H42V22H46V20Z" fill="#D8D7DA"/>
<path d="M47 14H41V16H47V14Z" fill="#D8D7DA"/>
<path d="M47 31H41V33H47V31Z" fill="#D8D7DA"/>
<path d="M46 37H42V39H46V37Z" fill="#00B39D"/>
<path d="M46 43H42V45H46V43Z" fill="#00B39D"/>
<path d="M47 49H41V51H47V49Z" fill="#00B39D"/>
</svg>
