<?xml version="1.0" encoding="UTF-8" standalone="no"?> <svg width="64" height="64" viewBox="0 0 64 64" fill="none" xmlns="http://www.w3.org/2000/svg">
<path d="M52.1499 10.8C49.2649 8.23947 45.5044 6.88873 41.6496 7.0284C37.7948 7.16807 34.1419 8.7874 31.4499 11.55L27.6098 15.39C26.8208 16.1892 26.3784 17.267 26.3784 18.39C26.3784 19.513 26.8208 20.5909 27.6098 21.39C28.0036 21.7843 28.4713 22.0971 28.9861 22.3105C29.5008 22.5239 30.0526 22.6338 30.6098 22.6338C31.1671 22.6338 31.7189 22.5239 32.2336 22.3105C32.7484 22.0971 33.2161 21.7843 33.6098 21.39L37.5298 17.47C38.6529 16.3153 40.1646 15.6187 41.772 15.5152C43.3795 15.4117 44.9681 15.9088 46.2298 16.91C46.9915 17.5486 47.5921 18.3575 47.983 19.2713C48.3739 20.1851 48.5441 21.1782 48.4798 22.17C48.351 23.7709 47.6394 25.2688 46.4798 26.38L42.5399 30.32C42.1069 30.7048 41.7572 31.1739 41.5122 31.6987C41.2671 32.2235 41.132 32.7928 41.1149 33.3717C41.0979 33.9507 41.1993 34.527 41.4131 35.0652C41.6268 35.6035 41.9483 36.0925 42.3579 36.502C42.7674 36.9115 43.2563 37.233 43.7946 37.4468C44.3329 37.6605 44.9092 37.762 45.4881 37.745C46.067 37.7279 46.6364 37.5927 47.1612 37.3477C47.6859 37.1026 48.1551 36.7529 48.5399 36.32L52.6398 32.22C54.0572 30.802 55.172 29.1111 55.917 27.2497C56.6619 25.3884 57.0214 23.3952 56.9737 21.3909C56.9261 19.3865 56.4722 17.4127 55.6396 15.5889C54.807 13.765 53.613 12.1291 52.1299 10.78L52.1499 10.8Z" fill="black"/>
<path d="M33.73 40.91C33.1722 40.9103 32.62 41.0209 32.1051 41.2354C31.5903 41.4499 31.1229 41.7642 30.73 42.16L26.28 46.61C25.643 47.245 24.8782 47.7372 24.0363 48.0539C23.1945 48.3706 22.2949 48.5045 21.3973 48.4468C20.4997 48.3892 19.6247 48.1411 18.8303 47.7193C18.0359 47.2974 17.3404 46.7113 16.79 46C15.866 44.7346 15.4319 43.1772 15.568 41.6163C15.704 40.0553 16.401 38.5965 17.53 37.51L21.8 33.25C22.2329 32.8653 22.5826 32.3961 22.8276 31.8713C23.0727 31.3465 23.2079 30.7772 23.2249 30.1983C23.2419 29.6194 23.1405 29.0431 22.9267 28.5048C22.713 27.9665 22.3915 27.4776 21.982 27.068C21.5724 26.6585 21.0835 26.337 20.5452 26.1232C20.0069 25.9095 19.4306 25.808 18.8517 25.8251C18.2728 25.8421 17.7034 25.9773 17.1787 26.2224C16.6539 26.4674 16.1847 26.8171 15.8 27.25L11.62 31.42C8.85463 34.1064 7.22981 37.7543 7.08271 41.6069C6.93561 45.4594 8.27753 49.2206 10.83 52.11C12.17 53.6074 13.803 54.814 15.628 55.6551C17.4529 56.4962 19.431 56.954 21.44 57H21.82C23.7648 57.0068 25.6917 56.6275 27.4889 55.8843C29.2861 55.141 30.918 54.0485 32.29 52.67L36.74 48.22C37.3308 47.6244 37.7326 46.8675 37.895 46.0444C38.0574 45.2212 37.9731 44.3685 37.6526 43.593C37.3322 42.8176 36.79 42.1541 36.0939 41.6857C35.3978 41.2173 34.579 40.9648 33.74 40.96L33.73 40.91Z" fill="black"/>
<path d="M41.1401 22.8199C40.3435 22.0261 39.2647 21.5803 38.1401 21.5803C37.0154 21.5803 35.9367 22.0261 35.1401 22.8199L22.8001 35.1399C22.3671 35.5247 22.0174 35.9938 21.7724 36.5186C21.5274 37.0434 21.3922 37.6127 21.3751 38.1916C21.3581 38.7706 21.4596 39.3469 21.6733 39.8852C21.887 40.4234 22.2086 40.9124 22.6181 41.3219C23.0276 41.7314 23.5165 42.053 24.0548 42.2667C24.5931 42.4804 25.1694 42.5819 25.7483 42.5649C26.3273 42.5478 26.8966 42.4126 27.4214 42.1676C27.9462 41.9226 28.4153 41.5728 28.8001 41.1399L41.1401 28.8299C41.9315 28.032 42.3756 26.9537 42.3756 25.8299C42.3756 24.7061 41.9315 23.6278 41.1401 22.8299V22.8199Z" fill="black"/>
</svg>
