<?xml version="1.0" encoding="UTF-8"?>
<!DOCTYPE svg PUBLIC "-//W3C//DTD SVG 1.1//EN" "http://www.w3.org/Graphics/SVG/1.1/DTD/svg11.dtd">
<!-- Creator: CorelDRAW -->
<svg xmlns="http://www.w3.org/2000/svg" xml:space="preserve" width="1.99999in" height="1.99999in" version="1.1" style="shape-rendering:geometricPrecision; text-rendering:geometricPrecision; image-rendering:optimizeQuality; fill-rule:evenodd; clip-rule:evenodd"
viewBox="0 0 2000 2000"
 xmlns:xlink="http://www.w3.org/1999/xlink">
 <defs>
  <style type="text/css">
   <![CDATA[
    .fil5 {fill:#33CC66}
    .fil2 {fill:#4D4D4D}
    .fil0 {fill:#9AAFB7}
    .fil6 {fill:#F3A766}
    .fil1 {fill:whitesmoke}
    .fil3 {fill:#FB6672}
    .fil4 {fill:white}
   ]]>
  </style>
 </defs>
 <g id="Layer_x0020_1">
  <metadata id="CorelCorpID_0Corel-Layer"/>
  <g id="_566231936">
   <path class="fil0" d="M448 741l-276 0c-14,0 -25,-12 -25,-26l0 -155c0,-90 73,-164 163,-164 58,0 109,31 138,76l0 269z"/>
   <path class="fil0" d="M1236 1259l275 0c14,0 26,12 26,26l0 155c0,90 -73,164 -163,164 -58,0 -109,-31 -138,-76l0 -269z"/>
   <path class="fil1" d="M1236 1440c0,77 54,142 126,159 0,0 22,4 38,2 -9,2 -17,3 -26,3l-3 -1 0 1c-13,0 -25,0 -38,0l-706 0c-99,0 -179,-63 -179,-141l0 -903c0,-77 -54,-142 -127,-159 0,0 -21,-4 -37,-2 8,-2 17,-3 26,-3l3 1 0 -1c12,0 25,0 37,0l706 0c99,0 180,63 180,141l0 903z"/>
   <g>
    <path class="fil2" d="M1009 604l-334 0c-14,0 -26,-12 -26,-26 0,-14 12,-25 26,-25l334 0c14,0 25,11 25,25 0,14 -11,26 -25,26z"/>
    <path class="fil2" d="M1091 744l-499 0c-14,0 -26,-11 -26,-25 0,-15 12,-26 26,-26l499 0c15,0 26,11 26,26 0,14 -11,25 -26,25z"/>
    <path class="fil2" d="M1091 885l-499 0c-14,0 -26,-12 -26,-26 0,-14 12,-26 26,-26l499 0c15,0 26,12 26,26 0,14 -11,26 -26,26z"/>
    <path class="fil2" d="M1091 1025l-499 0c-14,0 -26,-11 -26,-25 0,-15 12,-26 26,-26l499 0c15,0 26,11 26,26 0,14 -11,25 -26,25z"/>
    <path class="fil2" d="M1067 1166l-475 0c-14,0 -26,-12 -26,-26 0,-14 12,-26 26,-26l475 0c14,0 26,12 26,26 0,14 -12,26 -26,26z"/>
    <path class="fil2" d="M1092 1306l-500 0c-14,0 -26,-11 -26,-26 0,-14 12,-25 26,-25l500 0c14,0 25,11 25,25 0,15 -11,26 -25,26z"/>
   </g>
   <g>
    <path class="fil3" d="M1092 1306c-7,0 -14,-3 -18,-7 -7,-8 -10,-18 -6,-27l73 -202c1,-2 1,-4 3,-6 1,-1 2,-3 3,-4l438 -438c0,0 0,0 0,0l69 -69c22,-22 51,-34 83,-34 31,0 60,12 82,34l0 0c46,45 46,119 0,165l-69 69c0,0 0,0 0,0 0,0 0,0 0,0l-438 438c-2,2 -5,5 -9,6 0,0 0,0 0,0 0,0 0,0 0,0 0,0 0,0 0,0l-203 74c-2,1 -5,1 -8,1z"/>
    <path class="fil4" d="M1307 1091c-7,0 -14,-2 -19,-7 -10,-10 -10,-27 0,-37l284 -283c10,-10 26,-10 36,0 10,10 10,26 0,36l-283 284c-5,5 -12,7 -18,7z"/>
    <path class="fil5" d="M1654 553l-69 69 165 165 69 -69c46,-46 46,-120 0,-165 -45,-46 -119,-46 -165,0z"/>
    <g>
     <path class="fil6" d="M1303 1231c0,0 0,0 0,0l0 0zm-159 -167l-76 208 32 -88 89 89 -89 32 203 -74 9 -6 -164 -165 -4 4z"/>
    </g>
    <path class="fil2" d="M1100 1184l-32 88c-7,16 6,34 24,34 3,0 6,0 8,-1l89 -32 -89 -89z"/>
   </g>
  </g>
 </g>
</svg>
