<?xml version="1.0" encoding="UTF-8" standalone="no"?> <svg id="Layer_1" data-name="Layer 1" xmlns="http://www.w3.org/2000/svg" viewBox="0 0 100 100"><path d="M84.628,7.737a11.044,11.044,0,0,0-7.813,3.232s-.01.005-.014.01l-9.4,9.4-.026.025L55.3,32.486l-.066.066-3.508,3.51L47.9,32.234l-.055-.054L25,9.335c-.017-.019-.039-.034-.056-.053-.037-.037-.076-.072-.113-.108-.025-.021-.046-.046-.073-.066A11.071,11.071,0,0,0,9.186,24.847s.006.012.01.017.031.029.047.046l.013.013c.113.117.226.227.322.314l9.046,9.05a.925.925,0,0,0,.07.07L30.778,46.448a1.245,1.245,0,0,0,.108.1l5.18,5.18-25.1,25.11A11.067,11.067,0,1,0,26.613,92.487L51.729,67.378l3.279,3.279.03.03L67.11,82.759l.033.033L75.1,90.745A11.067,11.067,0,1,0,90.75,75.1L72.1,56.449l-.005,0-4.715-4.715,2.086-2.086c.024-.022.047-.045.07-.069L92.47,26.648c.006-.006.008-.015.014-.021a11.075,11.075,0,0,0-7.856-18.89ZM64.207,50.661l-.008.006-.006.008L58.43,56.436l-.022.022-.584.585V34.205l9.122-9.125V47.923ZM50.67,64.195h0L45.7,69.161V46.33l9.122-9.125V60.042ZM39.238,52.8l.012-.007.007-.012L42.7,49.331v22.83l-9.1,9.1V58.437ZM69.946,22.079l3.619-3.62c0,.121-.019.239-.019.36A11.1,11.1,0,0,0,84.628,29.9c.122,0,.241-.014.362-.018L69.946,44.924ZM43.9,43.887H32.46l-9.119-9.122H46.186L49.6,38.183ZM17.081,9a8.056,8.056,0,0,1,5.7,2.361l.006.007.025.025A8.077,8.077,0,1,1,17.081,9Zm0,19.165A11.1,11.1,0,0,0,28.163,17.083c0-.122-.014-.239-.018-.359L43.186,31.765H20.342l-3.617-3.618C16.844,28.15,16.961,28.165,17.081,28.165ZM35.47,46.887H40.9L38.186,49.6ZM10.707,84.661a8.022,8.022,0,0,1,2.377-5.7L18.5,73.544V92.723a8.091,8.091,0,0,1-7.788-8.062ZM24.49,90.368A8,8,0,0,1,21.5,92.262V70.544l9.1-9.106V84.261ZM60.1,59.007H70.418l9.106,9.106H56.706l-2.855-2.856ZM88.628,88.626a8.023,8.023,0,0,1-11.408,0l-5.41-5.41H90.987A7.978,7.978,0,0,1,88.628,88.626Zm1.9-8.41H68.81l-9.1-9.1H82.524l6.107,6.108A8,8,0,0,1,90.527,80.216ZM67.418,56.007H63.1l2.158-2.157Zm17.21-29.1a8.083,8.083,0,1,1,8.083-8.083A8.092,8.092,0,0,1,84.628,26.9Z"/></svg>