<?xml version="1.0" encoding="UTF-8" standalone="no"?> <svg xmlns="http://www.w3.org/2000/svg" viewBox="0 0 64 64"><g id="Layer_52" data-name="Layer 52"><path d="M61.63,27.91A2,2,0,0,0,60,27.08H52.81V15.88a2,2,0,0,0-2-2H31.35L21.88,6.43A2,2,0,0,0,20.65,6H4A2,2,0,0,0,2,8c0,4.42,0,42.56,0,48a2,2,0,0,0,2,2H50.81a2,2,0,0,0,1.55-.75,2.38,2.38,0,0,0,.34-.6l9.19-26.93A2,2,0,0,0,61.63,27.91Zm-12.82-.83H13.19a2,2,0,0,0-1.89,1.35L6,44V17.88H48.81ZM20,10l4.93,3.88H6V10ZM49.38,54H6.8l7.82-22.92H57.2Z"/></g></svg>