<?xml version="1.0" encoding="UTF-8" standalone="no"?> <svg xmlns="http://www.w3.org/2000/svg" viewBox="0 0 64 64"><defs><style>.cls-1{fill:#c0dc8f;}.cls-2{fill:#4cb748;}</style></defs><g id="Layer_43" data-name="Layer 43"><path class="cls-1" d="M32,12.66A19.37,19.37,0,0,0,12.66,32c1.06,25.65,37.62,25.65,38.68,0A19.37,19.37,0,0,0,32,12.66Zm0,36.68A17.36,17.36,0,0,1,14.66,32c.95-23,33.73-23,34.68,0A17.36,17.36,0,0,1,32,49.34Z"/><path class="cls-1" d="M60,27H54.53a22.73,22.73,0,0,0-3.07-7.41l3.87-3.87a1,1,0,0,0,0-1.41L49.68,8.67a1,1,0,0,0-1.41,0L44.4,12.54A22.53,22.53,0,0,0,37,9.48V4a1,1,0,0,0-1-1H28a1,1,0,0,0-1,1V9.48a22.53,22.53,0,0,0-7.41,3.06L15.73,8.67a1,1,0,0,0-1.41,0L8.67,14.32a1,1,0,0,0,0,1.41l3.87,3.87A22.73,22.73,0,0,0,9.47,27H4a1,1,0,0,0-1,1v8a1,1,0,0,0,1,1H9.48a22.58,22.58,0,0,0,3.06,7.41L8.67,48.27a1,1,0,0,0,0,1.41l5.65,5.65a1,1,0,0,0,1.41,0l3.87-3.87A22.58,22.58,0,0,0,27,54.52V60a1,1,0,0,0,1,1h8a1,1,0,0,0,1-1V54.52a22.58,22.58,0,0,0,7.41-3.06l3.87,3.87a1,1,0,0,0,1.41,0l5.65-5.65a1,1,0,0,0,0-1.41L51.46,44.4A22.58,22.58,0,0,0,54.52,37H60a1,1,0,0,0,1-1V28A1,1,0,0,0,60,27Zm-1,8H53.71a1,1,0,0,0-.76.37,1.18,1.18,0,0,0-.22.45,24.44,24.44,0,0,1-3.53,8.58,1.11,1.11,0,0,0,.27.85L53.21,49,49,53.21l-3.74-3.74a1.11,1.11,0,0,0-.85-.27,24.44,24.44,0,0,1-8.58,3.53,1.14,1.14,0,0,0-.44.22,1.06,1.06,0,0,0-.38.76V59H29V53.71a1.06,1.06,0,0,0-.38-.76,1.14,1.14,0,0,0-.44-.22,24.44,24.44,0,0,1-8.58-3.53,1.11,1.11,0,0,0-.85.27L15,53.21,10.79,49l3.74-3.74a1.11,1.11,0,0,0,.27-.85,24.44,24.44,0,0,1-3.53-8.58,1.08,1.08,0,0,0-.22-.44,1.06,1.06,0,0,0-.76-.38H5V29h5.29a1,1,0,0,0,.8-.43A24.26,24.26,0,0,1,14.64,20a1.26,1.26,0,0,0,.16-.42,1.11,1.11,0,0,0-.27-.85L10.79,15,15,10.79l3.74,3.74a1,1,0,0,0,.9.26,23.7,23.7,0,0,1,8.53-3.52,1.08,1.08,0,0,0,.44-.22,1.06,1.06,0,0,0,.38-.76V5h6v5.29a1.06,1.06,0,0,0,.38.76,1.08,1.08,0,0,0,.44.22,23.7,23.7,0,0,1,8.53,3.52,1,1,0,0,0,.9-.26L49,10.79,53.21,15l-3.74,3.74a1.11,1.11,0,0,0-.27.85,24.65,24.65,0,0,1,3.54,8.58,1.09,1.09,0,0,0,.32.57,1.19,1.19,0,0,0,.65.25H59Z"/><path class="cls-2" d="M44,23.69a1,1,0,0,0-.95-1c-.3,0-7.46-.29-11.82,4.07a13.45,13.45,0,0,0-3.21,5.56C26.29,28.07,20,27.19,19,27.3a1,1,0,0,0-1,.9c0,.2-.49,5,2.31,8.16a9.19,9.19,0,0,0,4,2.51c-.69.44-1.59,1.31-.82,2.1a1,1,0,0,0,1.42,0,4.72,4.72,0,0,1,6.64,0c1.34,1,2.46-.93,1-1.78C42.15,37.58,44.23,28.83,44,23.69ZM20,29.39c3.35.33,6.68,2.41,7.08,6.45L24.77,33.3a1,1,0,0,0-1.41-.09,1,1,0,0,0-.08,1.42l2.27,2.54C21.57,36.31,19.89,32.75,20,29.39Zm10.79,8,4.84-4.83a1,1,0,0,0,0-1.41,1,1,0,0,0-1.42,0L29.34,36c.78-7.73,6-11,12.69-11.28C41.79,31.42,38.47,36.67,30.75,37.44Z"/></g></svg>