<?xml version="1.0" encoding="utf-8"?>
<!-- Generator: Adobe Illustrator 26.0.2, SVG Export Plug-In . SVG Version: 6.00 Build 0)  -->
<svg version="1.1" id="Layer_3" xmlns="http://www.w3.org/2000/svg" xmlns:xlink="http://www.w3.org/1999/xlink" x="0px" y="0px"
	 viewBox="0 0 64 64" style="enable-background:new 0 0 64 64;" xml:space="preserve">
<g>
	<polygon style="fill:#714F37;" points="38,43 38,13 44,7 44,37 	"/>
	<rect x="2" y="13" style="fill:#C18E5C;" width="36" height="30"/>
	<polygon style="fill:#976949;" points="8,7 2,13 38,13 44,7 	"/>
	<polygon style="fill:#F9D18F;" points="22,7 16,13 26,13 32,7 	"/>
	<rect x="16" y="13" style="fill:#F5B95B;" width="10" height="30"/>
	<polygon style="fill:#714F37;" points="56,57 56,27 62,21 62,51 	"/>
	<rect x="20" y="27" style="fill:#C18E5C;" width="36" height="30"/>
	<polygon style="fill:#976949;" points="26,21 20,27 56,27 62,21 	"/>
	
		<line style="fill:none;stroke:#000000;stroke-width:2;stroke-linejoin:round;stroke-miterlimit:10;" x1="62" y1="61" x2="62" y2="61"/>
	<polygon style="fill:#F9D18F;" points="40,21 34,27 44,27 50,21 	"/>
	<rect x="34" y="27" style="fill:#F5B95B;" width="10" height="30"/>
</g>
</svg>
