<?xml version="1.0" encoding="iso-8859-1"?>
<!-- Generator: Adobe Illustrator 16.0.0, SVG Export Plug-In . SVG Version: 6.00 Build 0)  -->
<!DOCTYPE svg PUBLIC "-//W3C//DTD SVG 1.1//EN" "http://www.w3.org/Graphics/SVG/1.1/DTD/svg11.dtd">
<svg version="1.1" xmlns="http://www.w3.org/2000/svg" xmlns:xlink="http://www.w3.org/1999/xlink" x="0px" y="0px" width="512px"
	 height="512px" viewBox="0 0 512 512" style="enable-background:new 0 0 512 512;" xml:space="preserve">
<g id="E71_x2C__Bricks_layout_x2C__form_x2C__layout_x2C__strategy">
	<polygon style="fill:#5B5A57;" points="396,376 396,486 116,486 116,376 256,376 	"/>
	<polygon style="fill:#5B5A57;" points="386,156 386,266 256,266 126,266 126,156 256,156 	"/>
	<rect x="26" y="376" style="fill:#60534A;" width="90" height="110"/>
	<polygon style="fill:#60534A;" points="486,266 486,376 396,376 256,376 256,266 386,266 	"/>
	<rect x="26" y="156" style="fill:#60534A;" width="100" height="110"/>
	<polygon style="fill:#60534A;" points="486,26 486,156 386,156 256,156 256,26 	"/>
	<rect x="396" y="376" style="fill:#73665C;" width="90" height="110"/>
	<polygon style="fill:#73665C;" points="256,266 256,376 116,376 26,376 26,266 126,266 	"/>
	<rect x="386" y="156" style="fill:#73665C;" width="100" height="110"/>
	<polygon style="fill:#73665C;" points="256,26 256,156 126,156 26,156 26,26 	"/>
	<path d="M486,276c-5.522,0-10-4.478-10-10V156c0-5.523,4.478-10,10-10s10,4.477,10,10v110C496,271.522,491.522,276,486,276z"/>
	<path d="M26,276c-5.523,0-10-4.478-10-10V156c0-5.523,4.477-10,10-10s10,4.477,10,10v110C36,271.522,31.523,276,26,276z"/>
	<path d="M386,276c-5.522,0-10-4.478-10-10V156c0-5.523,4.478-10,10-10s10,4.477,10,10v110C396,271.522,391.522,276,386,276z"/>
	<path d="M126,276c-5.523,0-10-4.478-10-10V156c0-5.523,4.477-10,10-10s10,4.477,10,10v110C136,271.522,131.523,276,126,276z"/>
	<path d="M116,496H26c-5.523,0-10-4.478-10-10V376c0-5.522,4.477-10,10-10s10,4.478,10,10v100h80c5.523,0,10,4.478,10,10
		S121.523,496,116,496z"/>
	<path d="M486,496h-90c-5.522,0-10-4.478-10-10s4.478-10,10-10h80V376c0-5.522,4.478-10,10-10s10,4.478,10,10v110
		C496,491.522,491.522,496,486,496z"/>
	<path d="M396,496H116c-5.523,0-10-4.478-10-10V376c0-5.522,4.477-10,10-10s10,4.478,10,10v100h260V376c0-5.522,4.478-10,10-10
		s10,4.478,10,10v110C406,491.522,401.522,496,396,496z"/>
	<path d="M256,166H26c-5.523,0-10-4.477-10-10V26c0-5.523,4.477-10,10-10h230c5.522,0,10,4.477,10,10s-4.478,10-10,10H36v110h220
		c5.522,0,10,4.477,10,10S261.522,166,256,166z"/>
	<path d="M486,166H256c-5.523,0-10-4.477-10-10V26c0-5.523,4.477-10,10-10h230c5.522,0,10,4.477,10,10v130
		C496,161.523,491.522,166,486,166z M266,146h210V36H266V146z"/>
	<path d="M256,386H26c-5.523,0-10-4.478-10-10V266c0-5.522,4.477-10,10-10h230c5.522,0,10,4.478,10,10s-4.478,10-10,10H36v90h220
		c5.522,0,10,4.478,10,10S261.522,386,256,386z"/>
	<path d="M486,386H256c-5.523,0-10-4.478-10-10V266c0-5.522,4.477-10,10-10h230c5.522,0,10,4.478,10,10v110
		C496,381.522,491.522,386,486,386z M266,366h210v-90H266V366z"/>
</g>
<g id="Layer_1">
</g>
</svg>
