<?xml version="1.0" encoding="utf-8"?>
<!-- Generator: Adobe Illustrator 19.1.0, SVG Export Plug-In . SVG Version: 6.00 Build 0)  -->
<svg version="1.1" id="Слой_3" xmlns="http://www.w3.org/2000/svg" xmlns:xlink="http://www.w3.org/1999/xlink" x="0px" y="0px"
	 viewBox="0 0 128 128" enable-background="new 0 0 128 128" xml:space="preserve">
<g>
	<ellipse fill="#B8CBCD" cx="65.845" cy="113.305" rx="47.667" ry="10.186"/>
	<path fill="#B9E3ED" d="M102.178,32.491v-12c0-4.418,3.582-8,8-8l0,0c4.418,0,8,3.582,8,8v12"/>
	<polyline fill="#B9E3ED" points="102.178,12.491 32.32,12.491 27.178,17.634 27.178,95.491 102.178,95.491 	"/>
	<polyline fill="#B9E3ED" points="94.178,113.491 16.32,113.491 11.178,108.349 11.178,95.491 28.178,95.491 87.178,95.491 	"/>
	<path fill="#B9E3ED" d="M86.178,95.491v10c0,4.418,3.582,8,8,8l0,0c4.418,0,8-3.582,8-8v-10"/>
	<path fill="#324654" d="M94.178,116.491c-1.657,0-3-1.343-3-3c0-1.657,1.343-3,3-3c2.757,0,5-2.243,5-5v-85c0-6.065,4.935-11,11-11
		c6.065,0,11,4.935,11,11v12c0,1.657-1.343,3-3,3h-13v70C105.178,111.557,100.243,116.491,94.178,116.491z M105.178,29.491h10v-9
		c0-2.757-2.243-5-5-5c-2.757,0-5,2.243-5,5V29.491z"/>
	<path fill="#324654" d="M95.178,115.491c-5.514,0-10-4.486-10-10v-9c0-1.104,0.895-2,2-2c1.104,0,2,0.896,2,2v9
		c0,3.309,2.691,6,6,6c1.104,0,2,0.896,2,2S96.282,115.491,95.178,115.491z"/>
	<path fill="#324654" d="M87.178,98.491h-61c-1.105,0-2-0.896-2-2s0.895-2,2-2h61c1.104,0,2,0.896,2,2S88.282,98.491,87.178,98.491z
		"/>
	<path fill="#324654" d="M94.178,79.491h-28c-1.105,0-2-0.896-2-2s0.895-2,2-2h28c1.104,0,2,0.896,2,2S95.282,79.491,94.178,79.491z
		"/>
	<path fill="#324654" d="M57.178,79.491h-23c-1.105,0-2-0.896-2-2s0.895-2,2-2h23c1.104,0,2,0.896,2,2S58.282,79.491,57.178,79.491z
		"/>
	<path fill="#324654" d="M83.265,89.491H57.178c-1.105,0-2-0.896-2-2s0.895-2,2-2h26.087c1.104,0,2,0.896,2,2
		S84.369,89.491,83.265,89.491z"/>
	<path fill="#324654" d="M49.83,89.491H34.178c-1.105,0-2-0.896-2-2s0.895-2,2-2H49.83c1.104,0,2,0.896,2,2
		S50.934,89.491,49.83,89.491z"/>
	<path fill="#324654" d="M20.178,116.491c-6.065,0-11-4.935-11-11v-10c0-1.657,1.343-3,3-3h12v-72c0-6.065,4.935-11,11-11
		c1.657,0,3,1.343,3,3s-1.343,3-3,3c-2.757,0-5,2.243-5,5v75c0,1.657-1.343,3-3,3h-12v7c0,2.757,2.243,5,5,5c1.657,0,3,1.343,3,3
		C23.178,115.148,21.834,116.491,20.178,116.491z"/>
	<path fill="#324654" d="M110.178,15.491h-75c-1.657,0-3-1.343-3-3s1.343-3,3-3h75c1.657,0,3,1.343,3,3
		S111.835,15.491,110.178,15.491z"/>
	<path fill="#324654" d="M94.178,116.491H19.801c-1.657,0-3-1.343-3-3c0-1.657,1.343-3,3-3h74.377c1.657,0,3,1.343,3,3
		C97.178,115.148,95.835,116.491,94.178,116.491z"/>
	<polygon fill="#F6E89A" points="58.341,69.491 54.563,63.331 47.192,64.935 55.863,43.717 67.012,48.271 	"/>
	<path fill="#8D4520" d="M58.341,71.491c-0.691,0-1.339-0.358-1.705-0.954l-3.035-4.95l-5.983,1.303
		c-0.727,0.161-1.479-0.099-1.956-0.668c-0.478-0.568-0.601-1.355-0.32-2.043l8.67-21.219c0.419-1.022,1.586-1.51,2.608-1.095
		l11.149,4.555c0.491,0.201,0.882,0.588,1.088,1.077c0.205,0.489,0.208,1.04,0.007,1.531l-8.671,21.22
		c-0.285,0.697-0.938,1.176-1.689,1.236C58.449,71.489,58.395,71.491,58.341,71.491z M54.564,61.331
		c0.685,0,1.336,0.354,1.705,0.954l1.714,2.796l6.421-15.715l-7.447-3.042l-6.476,15.849l3.656-0.796
		C54.28,61.346,54.423,61.331,54.564,61.331z"/>
	<polygon fill="#F6E89A" points="69.889,69.491 73.668,63.331 81.038,64.935 72.367,43.717 61.219,48.271 	"/>
	<path fill="#8D4520" d="M69.889,71.491c-0.054,0-0.107-0.002-0.162-0.007c-0.751-0.061-1.404-0.539-1.689-1.236l-8.67-21.22
		c-0.201-0.491-0.198-1.042,0.007-1.531c0.206-0.489,0.597-0.876,1.088-1.077l11.148-4.555c1.025-0.415,2.19,0.073,2.608,1.095
		l8.57,20.973c0.171,0.295,0.269,0.638,0.269,1.003c0,1.104-0.895,2-2,2c-0.006,0-0.013,0-0.02,0c-0.142,0-0.284-0.015-0.426-0.046
		l-5.982-1.303l-3.036,4.95C71.227,71.133,70.58,71.491,69.889,71.491z M63.827,49.366l6.42,15.716l1.716-2.797
		c0.444-0.724,1.296-1.089,2.131-0.908l3.654,0.796l-6.476-15.849L63.827,49.366z"/>
	<polygon fill="#F6E89A" points="72.951,54.379 68.364,54.006 64.999,57.144 61.112,54.683 56.674,55.898 54.376,51.912 
		49.881,50.926 49.699,46.327 46.178,43.365 48.153,39.21 46.411,34.951 50.092,32.189 50.529,27.608 55.071,26.873 57.587,23.02 
		61.951,24.48 65.969,22.238 69.154,25.559 73.754,25.441 75.031,29.861 79.159,31.894 78.236,36.402 80.946,40.121 78.033,43.684 
		78.705,48.235 74.471,50.036 	"/>
	<path fill="#8D4520" d="M64.998,59.144c-0.37,0-0.741-0.101-1.07-0.311l-3.141-1.989l-3.586,0.982
		c-0.876,0.239-1.807-0.142-2.261-0.93l-1.857-3.221l-3.632-0.798c-0.889-0.194-1.534-0.965-1.57-1.874l-0.147-3.716l-2.845-2.394
		c-0.696-0.585-0.909-1.567-0.519-2.389l1.596-3.357l-1.407-3.441c-0.345-0.842-0.077-1.81,0.651-2.356l2.974-2.231l0.354-3.702
		c0.086-0.905,0.773-1.639,1.671-1.784l3.67-0.594l2.033-3.113c0.498-0.762,1.445-1.094,2.309-0.803l3.526,1.18l3.246-1.812
		c0.794-0.442,1.788-0.294,2.418,0.361l2.574,2.684l3.717-0.095c0.912-0.052,1.72,0.57,1.972,1.443l1.032,3.571l3.336,1.644
		c0.816,0.401,1.258,1.304,1.075,2.195l-0.745,3.643l2.19,3.005c0.536,0.735,0.508,1.739-0.068,2.443l-2.354,2.879l0.543,3.678
		c0.133,0.9-0.358,1.776-1.196,2.133l-3.421,1.455l-1.228,3.508c-0.3,0.858-1.136,1.412-2.05,1.333l-3.706-0.301l-2.719,2.536
		C65.982,58.962,65.492,59.144,64.998,59.144z M61.112,52.683c0.375,0,0.747,0.105,1.07,0.311l2.582,1.636L67,52.543
		c0.412-0.384,0.964-0.582,1.526-0.53l3.047,0.248l1.01-2.885c0.185-0.531,0.587-0.96,1.105-1.181l2.813-1.196l-0.446-3.023
		c-0.082-0.557,0.074-1.122,0.431-1.558l1.935-2.367l-1.8-2.471c-0.331-0.454-0.456-1.027-0.343-1.579l0.612-2.995l-2.742-1.351
		c-0.505-0.248-0.882-0.698-1.037-1.238l-0.849-2.937l-3.057,0.077c-0.545,0.016-1.104-0.208-1.494-0.614l-2.116-2.206l-2.669,1.489
		c-0.491,0.274-1.075,0.33-1.609,0.15l-2.899-0.97l-1.672,2.56c-0.308,0.471-0.799,0.791-1.354,0.881l-3.018,0.488l-0.291,3.044
		c-0.053,0.559-0.34,1.071-0.791,1.409l-2.445,1.835l1.157,2.829c0.213,0.521,0.197,1.107-0.045,1.615l-1.312,2.761l2.339,1.968
		c0.431,0.362,0.688,0.889,0.711,1.451l0.121,3.056l2.986,0.655c0.55,0.12,1.023,0.467,1.304,0.954l1.526,2.648l2.948-0.808
		C60.757,52.706,60.935,52.683,61.112,52.683z"/>
	<polygon fill="#FFFFFF" points="63.55,28.662 66.887,35.423 74.348,36.506 68.948,41.769 70.223,49.199 63.55,45.691 
		56.877,49.199 58.151,41.769 52.752,36.506 60.213,35.423 	"/>
	<path fill="#8D4520" d="M70.223,51.199c-0.318,0-0.638-0.076-0.931-0.229l-5.742-3.018l-5.742,3.018
		c-0.673,0.354-1.49,0.295-2.107-0.152c-0.616-0.447-0.924-1.206-0.795-1.956l1.096-6.394l-4.646-4.53
		c-0.545-0.531-0.741-1.326-0.506-2.05c0.235-0.725,0.861-1.252,1.615-1.361l6.419-0.932l2.872-5.817
		c0.337-0.683,1.032-1.115,1.793-1.115c0.761,0,1.456,0.432,1.793,1.114l2.872,5.818l6.419,0.932
		c0.754,0.109,1.38,0.638,1.615,1.361c0.235,0.724,0.039,1.518-0.506,2.05l-4.646,4.53l1.097,6.394
		c0.128,0.75-0.181,1.509-0.796,1.956C71.05,51.07,70.637,51.199,70.223,51.199z M57.05,37.903l2.497,2.435
		c0.472,0.459,0.687,1.121,0.575,1.77l-0.589,3.436l3.086-1.623c0.583-0.307,1.278-0.307,1.861,0l3.086,1.622l-0.589-3.436
		c-0.111-0.648,0.104-1.311,0.575-1.77l2.498-2.435l-3.45-0.501c-0.652-0.095-1.215-0.504-1.506-1.094l-1.544-3.128l-1.543,3.127
		c-0.292,0.591-0.854,1-1.506,1.095L57.05,37.903z"/>
</g>
</svg>
