<?xml version="1.0" encoding="UTF-8"?>
<!DOCTYPE svg PUBLIC "-//W3C//DTD SVG 1.1//EN" "http://www.w3.org/Graphics/SVG/1.1/DTD/svg11.dtd">
<!-- Creator: CorelDRAW -->
<svg xmlns="http://www.w3.org/2000/svg" xml:space="preserve" width="6.72in" height="6.72in" style="shape-rendering:geometricPrecision; text-rendering:geometricPrecision; image-rendering:optimizeQuality; fill-rule:evenodd; clip-rule:evenodd"
viewBox="0 0 6.72 6.72"
 xmlns:xlink="http://www.w3.org/1999/xlink">
 <defs>
  <style type="text/css">
   <![CDATA[
    .fil0 {fill:black}
    .fil1 {fill:#FFFFFE;fill-rule:nonzero}
   ]]>
  </style>
 </defs>
 <rect class="fil0" width="6.72" height="6.72" rx="1.28" ry="1.28"/>
 <g id="Layer_x0020_1">
  <metadata id="CorelCorpID_0Corel-Layer"/>
  <path class="fil1" d="M0.921799 0.8l4.8764 0c0.0441811,0 0.08,0.0358189 0.08,0.08l0 0.867417 -2.91257 0 -0.702299 0 -0.724953 0 -0.696579 0 0 -0.867417c0,-0.0441811 0.0358189,-0.08 0.08,-0.08zm4.9564 1.10742l0 3.93258c0,0.0441811 -0.0358189,0.08 -0.08,0.08l-4.8764 0c-0.0441811,0 -0.08,-0.0358189 -0.08,-0.08l0 -3.93258 0.616579 0 0 2.66123 7.87402e-006 0c3.93701e-006,0.0213465 0.00849606,0.0426378 0.0252992,0.0583819 0.0322402,0.0302047 0.0828701,0.0285512 0.113075,-0.00368898l-0.000137795 -0.000129921 0.655378 -0.699594 0.65163 0.695587c0.0146693,0.0179685 0.0369961,0.0294449 0.062,0.0294449 0.0441811,0 0.08,-0.0358189 0.08,-0.08l0 -2.66123 2.83257 0zm-4.25982 0l0.644953 0 0.622299 0 0 2.4591 -0.575386 -0.614197 0.000137795 -0.000129921c-0.0302047,-0.0322402 -0.0808346,-0.0338937 -0.113075,-0.00368898 -0.00266535,0.00249606 -0.00511811,0.00513386 -0.0073622,0.00788583l-0.571567 0.61013 0 -2.4591z"/>
 </g>
</svg>
