<?xml version="1.0" encoding="UTF-8" standalone="no"?> <svg id="Layer_1" data-name="Layer 1" xmlns="http://www.w3.org/2000/svg" viewBox="0 0 128 128"><defs><style>.cls-1{fill:#2e79bd;}.cls-2{fill:#2d3e50;}</style></defs><title>b</title><path class="cls-1" d="M64.224,36.34757c-.426-.05633-.852-.10445-1.2768-.15373a23.53977,23.53977,0,0,0-3.64616-8.771q.4031-.50521.80035-1.01746c.72289-.92826,1.43523-1.86708,2.11587-2.83642l-5.39354-5.39355c-.96934.68065-1.90816,1.393-2.83643,2.11588q-.51224.39607-1.01745.80035a23.54565,23.54565,0,0,0-8.78153-3.64851q-.07217-.63723-.15256-1.27445c-.14552-1.16649-.30512-2.33415-.50931-3.50064h-7.628c-.203,1.16649-.36262,2.33415-.50932,3.50064q-.081.63723-.15138,1.27445a23.53174,23.53174,0,0,0-8.78271,3.64851q-.5052-.40487-1.01745-.80035c-.92826-.7229-1.86591-1.43523-2.83525-2.11588L17.20765,23.569c.68182.96934,1.39416,1.90816,2.11588,2.83642q.39783.51049.80035,1.01628a23.55107,23.55107,0,0,0-3.64851,8.7827q-.63723.07218-1.27328.15256c-1.16766.14552-2.33415.30512-3.50182.50932v7.628c1.16766.203,2.33415.36262,3.50182.50932q.63723.081,1.27328.15139A23.5388,23.5388,0,0,0,20.118,53.92942c-.26874.338-.53747.67594-.80034,1.01862-.72055.9306-1.43053,1.8706-2.11,2.84229l5.39473,5.39354c.97168-.6783,1.91168-1.38828,2.84229-2.10883.34267-.26287.68065-.53161,1.01862-.80034A23.54436,23.54436,0,0,0,35.22721,63.915c.04812.42483.09741.85081.15373,1.27564.14787,1.16766.30981,2.33414.51753,3.50181h7.628c.20771-1.16767.37083-2.33415.5187-3.50181.05633-.42483.10445-.85081.15373-1.27564a23.547,23.547,0,0,0,8.76275-3.64028c.338.26873.67713.53747,1.0198.80034.92944.72055,1.86943,1.43053,2.8423,2.10883l5.39354-5.39354c-.6783-.97169-1.38828-1.91169-2.11-2.84229-.26287-.34384-.53161-.68183-.79917-1.01979a23.545,23.545,0,0,0,3.63912-8.76276c.42482-.04929.85081-.0974,1.2768-.15374,1.16649-.14785,2.33415-.30981,3.50064-.51752v-7.628C66.55815,36.65856,65.39048,36.49544,64.224,36.34757ZM47.236,55.49724a16.61659,16.61659,0,0,1-22.34051-7.29466,16.314,16.314,0,0,1-.98811-2.38227,16.57064,16.57064,0,0,1,.99633-12.67883,16.7238,16.7238,0,0,1,7.27-7.27,16.36786,16.36786,0,0,1,2.39869-.9975,16.64244,16.64244,0,0,1,10.28131.00117,16.34892,16.34892,0,0,1,2.39752.99633,16.72388,16.72388,0,0,1,7.27,7.27,16.56616,16.56616,0,0,1,.00822,15.0611A16.728,16.728,0,0,1,47.236,55.49724Z"/><polygon class="cls-1" points="39.712 27.537 38.278 28.579 38.826 30.266 40.599 30.266 41.147 28.579 39.712 27.537"/><polygon class="cls-1" points="51.147 34.099 49.526 33.379 48.34 34.697 49.228 36.233 50.962 35.863 51.147 34.099"/><polygon class="cls-1" points="51.188 47.283 51 45.519 49.265 45.152 48.38 46.689 49.568 48.006 51.188 47.283"/><polygon class="cls-1" points="39.794 53.916 41.228 52.871 40.677 51.186 38.903 51.189 38.358 52.876 39.794 53.916"/><polygon class="cls-1" points="28.35 47.372 29.971 48.09 31.155 46.77 30.265 45.236 28.531 45.608 28.35 47.372"/><polygon class="cls-1" points="28.287 34.189 28.477 35.952 30.213 36.316 31.095 34.778 29.905 33.463 28.287 34.189"/><circle class="cls-1" cx="39.71245" cy="40.68025" r="5.935"/><path class="cls-2" d="M125.543,101.31881a.80353.80353,0,0,0-.69924-1.19626h-18.5051a4.55141,4.55141,0,0,1-4.55141-4.55141V80.82092a4.55141,4.55141,0,0,1,4.55141-4.55141h18.5051a.80353.80353,0,0,0,.69924-1.19626,27.14446,27.14446,0,0,0-48.47239,1.90787H13.76792a11.377,11.377,0,0,0-11.412,11.40966A11.228,11.228,0,0,0,13.56907,99.41084H77.07059a27.14446,27.14446,0,0,0,48.47244,1.908Zm-111.974-8.64909a4.47374,4.47374,0,0,1,0-8.94748H75.02058a27.28955,27.28955,0,0,0,0,8.94748Z"/></svg>