<?xml version="1.0" encoding="UTF-8"?>
<!DOCTYPE svg PUBLIC "-//W3C//DTD SVG 1.1//EN" "http://www.w3.org/Graphics/SVG/1.1/DTD/svg11.dtd">
<!-- Creator: CorelDRAW -->
<svg xmlns="http://www.w3.org/2000/svg" xml:space="preserve" width="7.11111in" height="7.11111in" version="1.1" style="shape-rendering:geometricPrecision; text-rendering:geometricPrecision; image-rendering:optimizeQuality; fill-rule:evenodd; clip-rule:evenodd"
viewBox="0 0 7111 7111"
 xmlns:xlink="http://www.w3.org/1999/xlink">
 <defs>
  <style type="text/css">
   <![CDATA[
    .fil0 {fill:#4D4D4D}
    .fil3 {fill:#99A4AC}
    .fil1 {fill:#D9F2F2}
    .fil2 {fill:#F1F1F1}
   ]]>
  </style>
 </defs>
 <g id="Layer_x0020_1">
  <metadata id="CorelCorpID_0Corel-Layer"/>
  <path class="fil0" d="M6337 6289l-2200 0c1,156 29,579 222,628 47,12 79,58 72,107 -7,48 -48,84 -97,84l-1553 0c-114,0 -132,-163 -24,-191 192,-50 219,-473 219,-628l-2201 0c-193,0 -348,-156 -348,-348l0 -3787c0,-191 157,-348 348,-348l1572 0 1127 -1759c38,-59 125,-59 163,0l1128 1759 1572 0c192,0 349,155 349,348l0 3787c0,192 -156,348 -349,348zm-4115 -4289l-1447 0c-84,0 -154,70 -154,154l0 3072 5870 0 0 -3072c0,-84 -69,-154 -154,-154l-1447 0 337 526c43,69 -11,149 -82,149l-697 0 0 1781c0,54 -43,97 -97,97l-1589 0c-55,0 -98,-43 -98,-97l0 -1780 -698 0c-79,0 -120,-87 -82,-148l338 -528zm637 2359l1395 0 0 -1780c0,-54 43,-97 97,-97l616 0 -1411 -2202 -1412 2202 618 0c54,0 97,43 97,97l0 1780zm895 1496l-396 0c-54,0 -97,-43 -97,-97 0,-54 43,-97 97,-97l396 0c54,0 97,43 97,97 0,54 -44,97 -97,97zm-3133 -435l0 521c0,85 70,154 154,154 1854,0 3708,0 5562,0 84,0 154,-71 154,-154l0 -521 -5870 0zm3382 1329l-891 0c-18,58 -41,115 -70,165l1031 0c-29,-50 -52,-107 -70,-165zm-850 -195l807 0c-14,-101 -18,-195 -18,-265l-771 0c0,70 -3,165 -18,265z"/>
  <path class="fil1" d="M2859 4359l1395 0 0 -1780c0,-54 43,-97 97,-97l616 0 -1411 -2202 -1412 2202 618 0c54,0 97,43 97,97l0 1780z"/>
  <path class="fil2" d="M4351 4553l-1589 0c-55,0 -98,-43 -98,-97l0 -1780 -698 0c-79,0 -120,-87 -82,-148l338 -528 -1447 0c-84,0 -154,70 -154,154l0 3072 5870 0 0 -3072c0,-84 -69,-154 -154,-154l-1447 0 337 526c43,69 -11,149 -82,149l-697 0 0 1781c0,54 -43,97 -97,97z"/>
  <path class="fil3" d="M6491 5420l-5870 0 0 521c0,85 70,154 154,154l5562 0c84,0 154,-71 154,-154l0 -521zm-2640 338c0,54 -44,97 -97,97l-396 0c-54,0 -97,-43 -97,-97 0,-54 43,-97 97,-97l396 0c54,0 97,43 97,97z"/>
  <path class="fil3" d="M3942 6289l-771 0c0,70 -3,165 -18,265l807 0c-14,-101 -18,-195 -18,-265z"/>
  <path class="fil3" d="M4003 6749l-891 0c-18,58 -41,115 -70,165l1031 0c-29,-50 -52,-107 -70,-165z"/>
 </g>
</svg>
