<?xml version="1.0" encoding="UTF-8" standalone="no"?> <svg xmlns="http://www.w3.org/2000/svg" viewBox="0 0 64 64"><g id="Layer_26" data-name="Layer 26"><path d="M57.08,36.11a19,19,0,0,1-5.36-11.36v0C51.44,12.45,40.14,2.15,27.87,3,8.26,3.79-1,28.8,13.33,42.12A42,42,0,0,1,17.4,60a1,1,0,0,0,.29.71,1,1,0,0,0,.71.29H41.73a1,1,0,0,0,1-.83l.83-4.79c.4-1.79,1.49-2.13,3.38-2.59,2.21-.54,5.24-1.28,4.81-6.65a.23.23,0,0,1,.15-.21A2.38,2.38,0,0,0,53,42.6a2.37,2.37,0,0,0,1.18-3.16h1.44A2,2,0,0,0,57.08,36.11Zm-3.14,1.33a1.85,1.85,0,0,0-1.55,2.82.38.38,0,0,1,0,.28.37.37,0,0,1-.08.15L48,41a1,1,0,0,0-.07,2l3.35.51a.35.35,0,0,1-.15.55,2.25,2.25,0,0,0-1.37,2.14c.74,7.21-6.68,2.27-8.16,8.77l-.7,4H19.39a42.35,42.35,0,0,0-4.56-18.21A20.31,20.31,0,0,1,9.64,18.66C14.37,4.83,32.39.52,43,10.4a20.54,20.54,0,0,1,6.74,14.4,20.57,20.57,0,0,0,5.94,12.64Z"/><path d="M37.44,18.2c4.45-7.33-6.81-13-10-5.11a5.82,5.82,0,0,0-4.36.19c-6.77-3.35-13.35,5-8.54,10.82C8.71,31,19.44,38.87,24.29,31.28a6.15,6.15,0,0,0,9.82-3.82A5.3,5.3,0,0,0,37.44,18.2ZM34,25.47a3.15,3.15,0,0,1-.56,0,1,1,0,0,0-1.2.95,4.17,4.17,0,0,1-7.55,2.47,1,1,0,0,0-1.3-.12,1.36,1.36,0,0,0-.38.56,4.13,4.13,0,0,1-8.11-1,4.22,4.22,0,0,1,1.72-3.37,1,1,0,0,0,.26-1.05,1.09,1.09,0,0,0-.27-.42,5.06,5.06,0,0,1,5.94-8.14,1.24,1.24,0,0,0,.71.12,4,4,0,0,1,4.3,0,1,1,0,0,0,1.19-.06h0a1.15,1.15,0,0,0,.35-.68,3.68,3.68,0,0,1,3.68-3.35,3.74,3.74,0,0,1,2.43,6.52,1,1,0,0,0,0,1.25C38.43,20.72,37.66,25.31,34,25.47Z"/></g></svg>