<?xml version="1.0" encoding="UTF-8"?>
<!DOCTYPE svg PUBLIC "-//W3C//DTD SVG 1.1//EN" "http://www.w3.org/Graphics/SVG/1.1/DTD/svg11.dtd">
<!-- Creator: CorelDRAW -->
<svg xmlns="http://www.w3.org/2000/svg" xml:space="preserve" width="1.70666in" height="1.70666in" version="1.1" style="shape-rendering:geometricPrecision; text-rendering:geometricPrecision; image-rendering:optimizeQuality; fill-rule:evenodd; clip-rule:evenodd"
viewBox="0 0 1706.66 1706.66"
 xmlns:xlink="http://www.w3.org/1999/xlink"
 xmlns:xodm="http://www.corel.com/coreldraw/odm/2003">
 <defs>
  <style type="text/css">
   <![CDATA[
    .fil4 {fill:#83ABB2}
    .fil1 {fill:#99C6CE}
    .fil0 {fill:#A1D3DC}
    .fil2 {fill:#FF6833}
    .fil3 {fill:#FF8559}
   ]]>
  </style>
 </defs>
 <g id="Layer_x0020_1">
  <metadata id="CorelCorpID_0Corel-Layer"/>
  <path class="fil0" d="M1185.88 1705.85l-935.99 0c-5.67,0 -11.09,-2.43 -14.87,-6.65 -328,-365.41 -141.98,-946.6 326.8,-1062.56l0 -506.05c0,-11.03 8.95,-19.98 19.98,-19.98l272.17 0c11.03,0 19.98,8.95 19.98,19.98l0 506.05c82.67,20.39 159.49,56.48 228.52,107.37 15.1,11.12 7.24,30.76 -6.17,35.33l0.04 872.36 71.66 16.82 17.89 -2.63c26.03,-3.83 26.3,39.96 -0.01,39.96z"/>
  <path class="fil1" d="M1459.31 1705.86l-279.72 0c-60.39,0 -109.51,-49.12 -109.51,-109.51l0 -1136.02c0,-22.66 29.68,-25.8 37.88,-9.4l422.93 0c8.2,-16.4 37.88,-13.26 37.88,9.4l0 1136.04c0.02,60.37 -49.1,109.49 -109.46,109.49z"/>
  <path class="fil2" d="M754.06 1137c-312.89,-88.69 -579.71,5.28 -635.28,27.33 -29.78,169.81 11.03,353.39 140.14,501.56l836.13 0c-15.59,-18.93 -24.96,-43.15 -24.96,-69.53l0 -419.59c-9.2,0.24 -18.39,0.36 -27.57,0.36 -97.56,0 -194.37,-13.46 -288.46,-40.13z"/>
  <path class="fil3" d="M464.33 1604.95c-41.95,0 -76.07,-34.13 -76.07,-76.08 0,-41.96 34.13,-76.09 76.07,-76.09 41.94,0 76.08,34.13 76.08,76.09 0,41.96 -34.13,76.08 -76.08,76.08z"/>
  <path class="fil3" d="M699.84 1369.6c-41.95,0 -76.08,-34.13 -76.08,-76.09 0,-41.96 34.13,-76.08 76.08,-76.08 41.95,0 76.07,34.13 76.07,76.08 0,41.96 -34.12,76.09 -76.07,76.09z"/>
  <path class="fil3" d="M841.92 1601c-41.95,0 -76.07,-34.13 -76.07,-76.09 0,-41.96 34.13,-76.08 76.07,-76.08 41.94,0 76.08,34.13 76.08,76.08 0,41.96 -34.14,76.09 -76.08,76.09z"/>
  <path class="fil3" d="M379.19 1319.96c-41.95,0 -76.07,-34.13 -76.07,-76.09 0,-41.96 34.13,-76.08 76.07,-76.08 41.94,0 76.08,34.13 76.08,76.08 0,41.96 -34.12,76.09 -76.08,76.09z"/>
  <path class="fil4" d="M897.25 150.57l-358.73 0c-98.58,0 -98.55,-149.76 0,-149.76l358.74 0.01c98.58,0 98.55,149.76 -0.01,149.76z"/>
  <path class="fil2" d="M1528.91 964.93c-109.14,-7.36 -185.31,29.2 -291.31,29.2 -38.07,0 -79.94,-4.85 -127.63,-18.85l0.09 621.1c0,38.33 31.19,69.53 69.53,69.53l6.21 0 0.11 -0.02c2.25,-0.33 4.31,-0.31 6.18,0.02l267.23 0c38.33,0 69.52,-31.2 69.52,-69.53l0.09 -631.44z"/>
  <path class="fil3" d="M1373.95 1482.91c-72.12,0 -72.12,109.59 0,109.59 72.11,0 72.12,-109.59 0,-109.59z"/>
  <path class="fil3" d="M1238.07 1243.91c-72.12,0 -72.12,109.59 0,109.59 72.12,0 72.11,-109.59 0,-109.59z"/>
  <path class="fil3" d="M1408.73 1060.57c-63.17,0 -63.18,96.01 0,96.01 63.19,0 63.2,-96.01 0,-96.01z"/>
  <path class="fil4" d="M1575.04 480.31l-511.19 0c-34.36,0 -62.3,-27.95 -62.3,-62.3l0 -49.62c0,-34.36 27.96,-62.3 62.31,-62.3l511.18 0c34.37,0 62.29,27.97 62.29,62.31l0.02 49.61c-0.04,34.35 -27.98,62.3 -62.31,62.3z"/>
 </g>
</svg>
