<?xml version="1.0" encoding="utf-8"?>
<!-- Generator: Adobe Illustrator 23.1.0, SVG Export Plug-In . SVG Version: 6.00 Build 0)  -->
<svg version="1.1" id="Layer_1" xmlns="http://www.w3.org/2000/svg" xmlns:xlink="http://www.w3.org/1999/xlink" x="0px" y="0px"
	 viewBox="0 0 900 900" style="enable-background:new 0 0 900 900;" xml:space="preserve">
<style type="text/css">
	.st0{fill-rule:evenodd;clip-rule:evenodd;fill:#7BBB7F;}
	.st1{clip-path:url(#SVGID_2_);}
	.st2{fill-rule:evenodd;clip-rule:evenodd;fill:#649767;}
	.st3{fill:none;}
	.st4{fill-rule:evenodd;clip-rule:evenodd;fill:#FFFFFE;}
</style>
<g id="Layer_x0020_1">
	<path class="st0" d="M450,1c248.5,0,450,201.5,450,450S698.5,901,450,901S0,699.5,0,451S201.5,1,450,1z"/>
	<g>
		<defs>
			<circle id="SVGID_1_" cx="450" cy="451" r="450"/>
		</defs>
		<clipPath id="SVGID_2_">
			<use xlink:href="#SVGID_1_"  style="overflow:visible;"/>
		</clipPath>
		<g class="st1">
			<g id="_262721736">
				<g>
					<polygon id="_2642354801" class="st2" points="514.3,195 1650.1,1330.9 1650.1,1396.3 514.3,260.4 					"/>
					<polygon id="_264235696" class="st2" points="569.8,251.9 1705.7,1387.8 1667.2,1387.8 531.3,251.9 					"/>
					<polygon id="_264235840" class="st2" points="531.3,208.6 1667.2,1344.4 1705.7,1387.8 569.8,251.9 					"/>
					<polygon id="_264235960" class="st2" points="514.3,260.4 1650.1,1396.3 1650.3,1398 1650.8,1399.6 1651.6,1401.1 
						1652.6,1402.3 516.8,266.4 515.7,265.2 514.9,263.7 514.4,262.1 					"/>
					<polygon id="_264235312" class="st2" points="580.1,268.9 1716,1404.8 1716,1576.9 580.1,441 					"/>
					<polygon id="_264235408" class="st2" points="405.3,381.9 1541.2,1517.8 1540.5,1517.2 1539.8,1516.7 1539.1,1516.2 
						1538.3,1515.8 1537.5,1515.6 1536.7,1515.3 1535.8,1515.2 1535,1515.2 399.1,379.3 399.9,379.3 400.8,379.5 401.6,379.7 
						402.4,380 403.2,380.3 403.9,380.8 404.6,381.3 					"/>
					<polygon id="_264236488" class="st2" points="580.1,441 1716,1576.9 1597.3,1576.9 461.5,441 					"/>
					<polygon id="_264236680" class="st2" points="399.1,379.3 1535,1515.2 1455.8,1515.2 319.9,379.3 					"/>
					<polygon id="_264236536" class="st2" points="395.5,396.4 1531.3,1532.2 1587.1,1590.8 451.2,454.9 					"/>
					<polygon id="_264236344" class="st2" points="451.2,454.9 1587.1,1590.8 1587.8,1591.5 451.9,455.6 					"/>
					<polygon id="_264236272" class="st2" points="642.2,466.2 1778.1,1602.1 1779.1,1603 1779.9,1604 1780.7,1605.1 1781.5,1606.2 
						1782.2,1607.3 1782.9,1608.4 1783.5,1609.6 1784.1,1610.9 1784.6,1612.1 1785,1613.4 1785.4,1614.7 1785.7,1616.1 
						1785.9,1617.4 1786.1,1618.8 1786.2,1620.2 1786.3,1621.6 650.4,485.7 650.3,484.3 650.2,482.9 650.1,481.5 649.8,480.2 
						649.5,478.8 649.1,477.5 648.7,476.2 648.2,475 647.6,473.8 647,472.6 646.4,471.4 645.6,470.3 644.9,469.2 644,468.2 
						643.2,467.1 					"/>
					<polygon id="_264236728" class="st2" points="650.4,485.7 1786.3,1621.6 1786.3,1656.3 650.4,520.4 					"/>
					<polygon id="_264236368" class="st2" points="650.4,520.4 1786.3,1656.3 1385.5,1656.3 249.6,520.4 					"/>
					<polygon id="_264236656" class="st2" points="650.4,537.4 1786.3,1673.3 1786.3,1815.2 650.4,679.3 					"/>
					<polygon id="_264236176" class="st2" points="650.4,679.3 1786.3,1815.2 1786.2,1816.6 1786.1,1818 1785.9,1819.4 
						1785.7,1820.8 1785.4,1822.1 1785,1823.4 1784.6,1824.7 1784.1,1825.9 1783.5,1827.2 1782.9,1828.4 1782.2,1829.5 
						1781.5,1830.6 1780.7,1831.7 1779.9,1832.8 1779.1,1833.8 1778.1,1834.8 642.2,698.9 643.2,697.9 644,696.9 644.9,695.8 
						645.6,694.8 646.4,693.6 647,692.5 647.6,691.3 648.2,690.1 648.7,688.8 649.1,687.5 649.5,686.2 649.8,684.9 650.1,683.5 
						650.2,682.1 650.3,680.7 					"/>
					<polygon id="_264237232" class="st2" points="642.2,698.9 1778.1,1834.8 1777.2,1835.7 1776.2,1836.5 1775.1,1837.4 
						1774,1838.1 1772.9,1838.9 1771.7,1839.5 1770.6,1840.1 1769.3,1840.7 1768.1,1841.2 1766.8,1841.6 1765.5,1842 1764.1,1842.3 
						1762.8,1842.6 1761.4,1842.7 1760,1842.8 1758.6,1842.9 622.7,707 624.1,707 625.5,706.9 626.9,706.7 628.3,706.4 629.6,706.1 
						630.9,705.8 632.2,705.3 633.4,704.8 634.7,704.3 635.9,703.6 637,703 638.1,702.3 639.2,701.5 640.3,700.7 641.3,699.8 					
						"/>
					<polygon id="_264237136" class="st2" points="622.7,707 1758.6,1842.9 1413.2,1842.9 277.3,707 					"/>
					<polygon id="_264236896" class="st2" points="277.3,707 1413.2,1842.9 1411.8,1842.8 1410.4,1842.7 1409,1842.6 1407.6,1842.3 
						1406.3,1842 1405,1841.6 1403.7,1841.2 1402.4,1840.7 1401.2,1840.1 1400,1839.5 1398.9,1838.9 1397.7,1838.1 1396.7,1837.4 
						1395.6,1836.5 1394.6,1835.7 258.7,699.8 259.7,700.7 260.8,701.5 261.9,702.3 263,703 264.1,703.6 265.3,704.3 266.6,704.8 
						267.8,705.3 269.1,705.8 270.4,706.1 271.7,706.4 273.1,706.7 274.5,706.9 275.9,707 					"/>
				</g>
				<path id="_262721448" class="st2" d="M531.3,208.6l38.4,43.3h-38.4V208.6z M514.3,195v65.4c0,4.7,3.8,8.5,8.5,8.5h57.4l0,172
					H461.5l-56.2-59l0,0c-1.7-1.8-3.9-2.6-6.2-2.6l-79.2,0V195L514.3,195L514.3,195z M311.3,396.4h84.1l55.8,58.6
					c1.6,1.9,3.9,3.1,6.6,3.1h164.9c7.6,0,14.5,3.1,19.5,8.1c5,5,8.1,11.9,8.1,19.5v34.6H249.6v-70.9v-41.7c0-3.1,1.3-5.9,3.5-8
					c2.3-2.2,5.4-3.5,8.9-3.5L311.3,396.4L311.3,396.4z M249.6,537.4h400.8v141.9c0,7.6-3.1,14.5-8.1,19.5s-11.9,8.1-19.5,8.1H277.3
					c-7.6,0-14.5-3.1-19.5-8.1c-5-5-8.1-11.9-8.1-19.5L249.6,537.4L249.6,537.4z"/>
			</g>
		</g>
	</g>
	<path class="st3" d="M450,1c248.5,0,450,201.5,450,450S698.5,901,450,901S0,699.5,0,451S201.5,1,450,1z"/>
	<path class="st4" d="M395.5,396.4h-84.1h-49.3c-3.5,0-6.7,1.3-8.9,3.5c-2.2,2.1-3.5,4.9-3.5,8v41.7v70.9h400.8v-34.6
		c0-7.6-3.1-14.5-8.1-19.5c-5-5-11.9-8.1-19.5-8.1H457.8c-2.7,0-5-1.2-6.6-3.1L395.5,396.4L395.5,396.4z"/>
	<path class="st4" d="M650.4,537.4H249.6v141.9c0,7.6,3.1,14.5,8.1,19.5s11.9,8.1,19.5,8.1h345.4c7.6,0,14.5-3.1,19.5-8.1
		c5-5,8.1-11.9,8.1-19.5L650.4,537.4L650.4,537.4z M355.8,593c0-4.7,3.8-8.5,8.5-8.5h171.3c4.7,0,8.5,3.8,8.5,8.5v58.5
		c0,4.7-3.8,8.5-8.5,8.5H364.3c-4.7,0-8.5-3.8-8.5-8.5L355.8,593L355.8,593z"/>
	<polygon class="st4" points="527.1,601.5 372.9,601.5 372.9,642.9 527.1,642.9 	"/>
	<path class="st4" d="M461.5,441h118.7l0-172h-57.4c-4.7,0-8.5-3.8-8.5-8.5V195H319.9v184.3l79.2,0c2.3,0,4.5,0.9,6.2,2.6l0,0
		L461.5,441L461.5,441z M522.8,358.5H377.2c-4.7,0-8.5-3.8-8.5-8.5c0-4.7,3.8-8.5,8.5-8.5h145.7c4.7,0,8.5,3.8,8.5,8.5
		C531.4,354.7,527.6,358.5,522.8,358.5z M522.8,306.8H377.2c-4.7,0-8.5-3.8-8.5-8.5c0-4.7,3.8-8.5,8.5-8.5h145.7
		c4.7,0,8.5,3.8,8.5,8.5C531.4,303,527.6,306.8,522.8,306.8z"/>
	<polygon class="st4" points="531.3,251.9 569.8,251.9 531.3,208.6 	"/>
</g>
</svg>
