<?xml version="1.0" encoding="utf-8"?>
<!-- Generator: Adobe Illustrator 26.0.2, SVG Export Plug-In . SVG Version: 6.00 Build 0)  -->
<svg version="1.1" id="Layer_3" xmlns="http://www.w3.org/2000/svg" xmlns:xlink="http://www.w3.org/1999/xlink" x="0px" y="0px"
	 viewBox="0 0 64 64" style="enable-background:new 0 0 64 64;" xml:space="preserve">
<g>
	<path d="M58.5,49H55v-2h3.5c1.379,0,2.5-1.121,2.5-2.5S59.879,42,58.5,42H55c0-0.553-0.447-1-1-1h-4c-2.785,0-5.188,1.639-6.315,4
		H36c-4.411,0-8,3.589-8,8v3c0,0.552-0.448,1-1,1s-1-0.448-1-1V38.65c0.627,0.223,1.298,0.35,2,0.35c2.993,0,5.48-2.202,5.929-5.071
		C36.798,33.48,39,30.993,39,28c0-0.332-0.032-0.668-0.099-1.015C41.417,25.583,43,22.927,43,20s-1.583-5.583-4.099-6.985
		C38.968,12.668,39,12.332,39,12c0-2.993-2.202-5.48-5.071-5.929C33.48,3.202,30.993,1,28,1c-2.086,0-3.924,1.071-5,2.69
		C21.924,2.071,20.086,1,18,1c-2.993,0-5.48,2.202-5.929,5.071C9.202,6.52,7,9.007,7,12c0,0.332,0.032,0.668,0.099,1.015
		C4.583,14.417,3,17.073,3,20s1.583,5.583,4.099,6.985C7.032,27.332,7,27.668,7,28c0,2.993,2.202,5.48,5.071,5.929
		C12.52,36.798,15.007,39,18,39c0.702,0,1.373-0.128,2-0.35V56c0,3.859,3.141,7,7,7s7-3.141,7-7v-3c0-1.103,0.897-2,2-2h7.685
		c1.126,2.361,3.53,4,6.315,4h4c0.553,0,1-0.447,1-1h3.5c1.379,0,2.5-1.121,2.5-2.5S59.879,49,58.5,49z M28,3c2.206,0,4,1.794,4,4
		s-1.794,4-4,4v2c2.929,0,5.371-2.111,5.893-4.891C35.669,8.517,37,10.102,37,12c0,0.382-0.072,0.788-0.221,1.241
		c-0.162,0.494,0.082,1.029,0.56,1.232C39.563,15.416,41,17.585,41,20s-1.437,4.584-3.661,5.526
		c-0.478,0.203-0.722,0.738-0.56,1.232C36.928,27.212,37,27.618,37,28c0,2.206-1.794,4-4,4h-1c-1.654,0-3-1.346-3-3h-2
		c0,2.71,2.17,4.911,4.862,4.986C31.42,35.714,29.864,37,28,37c-2.206,0-4-1.794-4-4V7C24,4.794,25.794,3,28,3z M14.109,33.893
		C16.889,33.371,19,30.929,19,28h-2c0,2.206-1.794,4-4,4s-4-1.794-4-4c0-0.382,0.072-0.788,0.221-1.241
		c0.162-0.494-0.082-1.029-0.56-1.232C6.437,24.584,5,22.415,5,20s1.437-4.584,3.661-5.526c0.478-0.203,0.722-0.738,0.56-1.232
		C9.072,12.788,9,12.382,9,12c0-2.206,1.794-4,4-4h1c1.654,0,3,1.346,3,3h2c0-2.71-2.17-4.911-4.862-4.986
		C14.58,4.286,16.136,3,18,3c2.206,0,4,1.794,4,4v9c-2.757,0-5,2.243-5,5h2c0-1.654,1.346-3,3-3v15c0,2.206-1.794,4-4,4
		C16.102,37,14.517,35.669,14.109,33.893z M36,49c-2.206,0-4,1.794-4,4v3c0,2.757-2.243,5-5,5s-5-2.243-5-5V37.46
		c0.379-0.34,0.717-0.724,1-1.15c0.283,0.426,0.621,0.81,1,1.15V56c0,1.654,1.346,3,3,3s3-1.346,3-3v-3c0-3.309,2.691-6,6-6h7.08
		C43.033,47.328,43,47.66,43,48s0.033,0.672,0.08,1H36z M53,53h-3c-2.757,0-5-2.243-5-5s2.243-5,5-5h3V53z M58.5,44
		c0.275,0,0.5,0.225,0.5,0.5S58.775,45,58.5,45H55v-1H58.5z M58.5,52H55v-1h3.5c0.275,0,0.5,0.225,0.5,0.5S58.775,52,58.5,52z"/>
</g>
</svg>
