<?xml version="1.0" encoding="utf-8"?>
<!-- Generator: Adobe Illustrator 25.2.3, SVG Export Plug-In . SVG Version: 6.00 Build 0)  -->
<svg version="1.1" id="Two_Tone" xmlns="http://www.w3.org/2000/svg" xmlns:xlink="http://www.w3.org/1999/xlink" x="0px" y="0px"
	 viewBox="0 0 512 512" enable-background="new 0 0 512 512" xml:space="preserve">
<g>
	<path fill="#C3E5AC" d="M128.711,398.48c2.16-0.56,4.24-1.36,6.24-2.4c2.96-1.52,6-2.96,9.04-4.24c16.32-6.96,34-10.56,51.68-10.56
		c6.16,0,12.32,0.4,18.48,1.28l1.28,0.16c5.6,0.88,11.36,0.4,16.88-1.2l39.68-11.84l15.52-4.64c11.04-4.4,22.96-4.24,33.52-0.16
		c7.76,3.04,14.72,8.16,20,15.12c0.56,0.8,0.88,1.76,0.88,2.64c0,1.52-0.8,3.04-2.24,3.84l-67.68,24.72l-18.64,6.8
		c-4.88,2.24-4.64,9.28,0.4,11.12l2.32,0.88l44.88,16.88c2,0.72,3.92,1.76,5.84,2.8c8,4.16,19.28,6.32,27.76,6.32h145.44
		c0.24,0,0.4,0,0.64,0c5.6,0.16,10.72,2.24,14.72,5.6c5.28,4.32,8.64,10.96,8.64,18.4c0,4.48-3.44,8.24-8,8.56l-199.28,14.8
		c-5.76,0.4-11.6,0.08-17.28-1.04l-107.52-21.52c-2.64-0.56-5.28-0.8-7.92-0.8h-156v-80h109.92
		C121.591,400,125.191,399.52,128.711,398.48z"/>
	<path fill="#76991F" d="M503.991,480c0,4.48-3.44,8.24-8,8.56l-199.28,14.8c-5.76,0.4-11.6,0.08-17.28-1.04l-107.52-21.52
		c-2.64-0.56-5.28-0.8-7.92-0.8h-156v-16h156c2.64,0,5.28,0.24,7.92,0.8l107.52,21.52c5.68,1.12,11.52,1.44,17.28,1.04l199.28-14.8
		c2.32-0.16,4.32-1.2,5.76-2.8C503.191,472.88,503.991,476.32,503.991,480z"/>
	<path fill="#94BF37" d="M319.991,294.24c61.84-0.8,121.04,28.24,154.96,80c17.92,27.36,27.04,57.84,5.68,81.76
		c-0.24,0-0.4,0-0.64,0h-145.44c-8.48,0-19.76-2.16-27.76-6.32c-1.92-1.04-3.84-2.08-5.84-2.8L256.071,430l-2.32-0.88
		c-5.04-1.84-5.28-8.88-0.4-11.12l18.64-6.8l67.68-24.72c1.44-0.8,2.24-2.32,2.24-3.84c0-0.88-0.32-1.84-0.88-2.64
		c-5.28-6.96-12.24-12.08-20-15.12c-10.56-4.08-22.48-4.24-33.52,0.16l-15.52,4.64l-39.68,11.84c-5.52,1.6-11.28,2.08-16.88,1.2
		l-1.28-0.16c-6.16-0.88-12.32-1.28-18.48-1.28c-17.68,0-35.36,3.6-51.68,10.56c-3.04,1.28-6.08,2.72-9.04,4.24
		c-2,1.04-4.08,1.84-6.24,2.4c6.4-12.8,55.76-102.08,190.8-104.24C319.671,294.24,319.831,294.24,319.991,294.24z"/>
	<path fill="#76991F" d="M453.248,347.467c-51.668,50.019-122.31,77.44-200.522,70.944c-4.162,2.556-3.766,8.958,1.026,10.708
		l2.32,0.88l44.88,16.88c2,0.72,3.92,1.76,5.84,2.8c8,4.16,19.28,6.32,27.76,6.32h145.44c0.24,0,0.4,0,0.64,0
		c21.36-23.92,12.24-54.4-5.68-81.76C468.564,364.493,461.277,355.555,453.248,347.467z"/>
	<path fill="#76991F" d="M474.951,158.64l-66.96,26.48c21.76-24.24,18.8-38.72,18.08-41.12
		C452.551,148.48,474.951,158.64,474.951,158.64z"/>
	<path fill="#90B541" d="M407.991,185.12l66.96-26.48c0,0-9.36,22.8-25.6,44.16C448.231,200.56,440.471,188,407.991,185.12z"/>
	<path fill="#90B541" d="M442.951,9.28l-56,45.2c13.52-29.6,6.4-42.56,4.96-44.64C418.551,6.24,442.951,9.28,442.951,9.28z"/>
	<path fill="#76991F" d="M386.951,54.48l56-45.2c0,0-2.16,24.48-11.28,49.76c-1.76-1.84-12.88-11.52-44.72-4.48V54.48z"/>
	<path fill="#76991F" d="M407.991,185.12c32.48,2.88,40.24,15.44,41.36,17.68c-8.64,11.36-19.28,22.4-31.44,29.36
		c-1.92-4.24-15.12-29.2-54.56-29.36l0.08-0.08L407.991,185.12z"/>
	<path fill="#90B541" d="M426.071,144c0.72,2.4,3.68,16.88-18.08,41.12l-44.56,17.6c28.56-27.12,21.12-54.24,19.68-58.64
		C396.711,140.8,411.991,141.6,426.071,144z"/>
	<path fill="#90B541" d="M431.671,59.04c-4.88,13.44-11.68,27.12-21.2,37.36c-3.12-3.44-23.2-23.36-60.88-11.68l37.36-30.16
		C418.791,47.52,429.911,57.2,431.671,59.04z"/>
	<path fill="#90B541" d="M363.351,202.8c39.44,0.16,52.64,25.12,54.56,29.36c-21.44,12.24-47.68,12-76.88-20.56L363.351,202.8z"/>
	<path fill="#76991F" d="M461.048,164.138c-5.907,10.898-13.866,20.396-23.437,28.486c8.289,4.277,11.102,8.899,11.74,10.175
		c16.24-21.36,25.6-44.16,25.6-44.16L461.048,164.138z"/>
	<path fill="#627C12" d="M437.611,192.625c-10.29,8.698-22.362,15.777-35.322,21.543c10.143,7.245,14.577,15.684,15.622,17.992
		c12.16-6.96,22.8-18,31.44-29.36C448.713,201.524,445.9,196.901,437.611,192.625z"/>
	<path fill="#76991F" d="M417.911,232.16c-1.045-2.308-5.479-10.747-15.622-17.992c-13.678,6.086-28.335,10.69-43.13,13.881
		C381.122,243.623,401.012,241.808,417.911,232.16z"/>
	<path fill="#76991F" d="M391.911,9.84c1.44,2.08,8.56,15.04-4.96,44.64v0.08l-37.36,30.16c19.2-34.24,4.24-57.92,1.36-61.92
		C363.031,15.6,377.751,11.76,391.911,9.84z"/>
	<path fill="#76991F" d="M383.111,144.08c1.44,4.4,8.88,31.52-19.68,58.64l-0.08,0.08l-22.32,8.8
		C340.071,167.92,359.111,149.76,383.111,144.08z"/>
	<path fill="#76991F" d="M410.471,96.4c-16.8,18.08-42,25.68-79.52,3.36l18.64-15.04C387.271,73.04,407.351,92.96,410.471,96.4z"/>
	<path fill="#90B541" d="M350.951,22.8c2.88,4,17.84,27.68-1.36,61.92l-18.64,15.04v-0.08c0-0.08,0-0.08,0-0.08
		C317.031,58.32,329.751,35.36,350.951,22.8z"/>
	<path fill="#627C12" d="M440.557,25.603c-6.97,9.214-13.71,18.625-20.646,27.72c7.43,1.751,10.854,4.77,11.761,5.718
		C436.086,46.802,438.859,34.779,440.557,25.603z"/>
	<path fill="#76991F" d="M392.159,84.603c10.614,3.948,16.712,10.033,18.312,11.797c9.52-10.24,16.32-23.92,21.2-37.36
		c-0.907-0.948-4.331-3.966-11.761-5.718C411.289,64.629,402.306,75.376,392.159,84.603z"/>
	<path fill="#627C12" d="M392.159,84.603c-11.945,10.862-25.591,19.509-42.29,24.321c27.312,10.071,46.801,2.33,60.602-12.523
		C408.871,94.635,402.772,88.55,392.159,84.603z"/>
	<path fill="#76991F" d="M256.871,64.08c24,5.68,43.04,23.84,42.08,67.52l-22.32-8.8l-0.08-0.08
		C247.991,95.6,255.431,68.48,256.871,64.08z"/>
	<path fill="#90B541" d="M276.631,122.8l22.32,8.8c-29.2,32.56-55.44,32.8-76.88,20.56C223.991,147.92,237.191,122.96,276.631,122.8
		z"/>
	<path fill="#76991F" d="M276.551,122.72l0.08,0.08c-39.44,0.16-52.64,25.12-54.56,29.36c-12.16-6.96-22.8-18-31.44-29.36
		c1.12-2.24,8.88-14.8,41.36-17.68L276.551,122.72z"/>
	<path fill="#90B541" d="M276.551,122.72l-44.56-17.6c-21.76-24.24-18.8-38.72-18.08-41.12c14.08-2.4,29.36-3.2,42.96,0.08
		C255.431,68.48,247.991,95.6,276.551,122.72z"/>
	<path fill="#76991F" d="M231.991,105.12l-66.96-26.48c0,0,22.4-10.16,48.88-14.64C213.191,66.4,210.231,80.88,231.991,105.12z"/>
	<path fill="#90B541" d="M165.031,78.64l66.96,26.48c-32.48,2.88-40.24,15.44-41.36,17.68
		C174.391,101.44,165.031,78.64,165.031,78.64z"/>
	<path fill="#627C12" d="M293.567,95.508c-2.725,12.082-7.739,21.342-14.365,28.306l19.749,7.787
		C299.277,116.782,297.258,104.961,293.567,95.508z"/>
	<path fill="#76991F" d="M279.202,123.813c-11.789,12.389-28.849,17.189-48.264,16.077c-5.431,5.467-8.092,10.558-8.867,12.269
		c21.44,12.24,47.68,12,76.88-20.56L279.202,123.813z"/>
	<path fill="#627C12" d="M222.071,152.16c0.775-1.711,3.437-6.802,8.867-12.269c-9.848-0.564-20.258-2.63-30.896-5.998
		C206.644,141.025,213.983,147.53,222.071,152.16z"/>
	<path fill="#495906" d="M7.991,488h156c2.234,0,4.281,0.203,6.352,0.645l107.539,21.523c4.574,0.902,9.281,1.359,14.062,1.355
		c1.777,0,3.562-0.062,5.359-0.188l199.25-14.797c8.656-0.609,15.438-7.875,15.438-16.539c0-9.609-4.219-18.574-11.469-24.504
		c-2.036-1.723-4.322-3.062-6.698-4.211c9.791-17.181,12.635-43.5-12.197-81.434c-33.45-51.095-90.302-81.67-153.637-83.464V248
		c0-12.541,7.157-21.139,12.218-25.687c16.685,16.762,33.914,25.3,51.403,25.3c3.133,0,6.27-0.273,9.418-0.816
		c49.312-8.496,80.031-81.957,81.312-85.078c1.637-3.98-0.168-8.539-4.082-10.324c-3.066-1.398-75.727-33.965-117.512-6.449
		c-18.175,11.97-27.387,33.044-27.635,62.476c-1.468,1.126-3.228,2.608-5.123,4.446V168c0-28.988,4.146-47.375,7.106-56.84
		c13.56,6.882,26.294,10.379,38.097,10.379c9.059,0,17.578-2.031,25.508-6.098C443.229,92.613,450.62,13.336,450.913,9.973
		c0.375-4.285-2.707-8.098-6.973-8.633c-3.348-0.41-82.406-9.828-114.082,28.914c-13.932,17.048-16.348,40.241-7.437,68.859
		c-2.112,5.094-5.987,16.306-8.379,34.82c-2.647-2.834-5.183-4.982-7.173-6.509c-0.248-29.434-9.46-50.508-27.635-62.479
		C237.448,37.41,164.796,70,161.722,71.395c-3.914,1.785-5.719,6.344-4.082,10.324c1.281,3.121,32,76.582,81.312,85.078
		c3.148,0.543,6.285,0.816,9.418,0.816c17.489,0,34.719-8.539,51.403-25.3c5.069,4.557,12.218,13.154,12.218,25.687v118.52
		c-126.075,4.965-176.998,83.344-188.627,104.895c-1.765,0.3-3.54,0.585-5.451,0.585H7.991c-4.418,0-8,3.582-8,8v80
		C-0.009,484.418,3.573,488,7.991,488z M398.311,231.031c-14.087,2.418-28.549-3.092-43.102-16.401l9.525-3.767
		c23.44,0.496,35.763,10.56,41.621,17.869C403.727,229.72,401.059,230.558,398.311,231.031z M420.505,220.969
		c-4.843-6.664-13.6-15.55-28.044-21.071l16.637-6.58c17.251,1.773,25.899,6.436,29.928,9.703
		C433.493,209.729,427.293,216.007,420.505,220.969z M448.582,190.201c-3.156-2.476-7.532-5.004-13.295-7.241l23.312-9.22
		C455.83,178.771,452.484,184.413,448.582,190.201z M429.404,168.085c2.669-5.561,4.133-10.391,4.745-14.351
		c6.796,1.549,13.089,3.37,18.547,5.14L429.404,168.085z M418.407,150.919c-0.711,5.146-3.842,14.456-15.2,27.525l-16.628,6.576
		c6.762-13.899,7.075-26.363,6.05-34.538C400.969,149.467,409.784,149.81,418.407,150.919z M369.534,158.316
		c2.333-1.538,4.86-2.752,7.462-3.832c0.729,9.335-1.378,25.104-18.159,41.507l-9.513,3.762
		C350.834,180.095,357.608,166.183,369.534,158.316z M290.661,119.845l-9.383-3.718c-16.911-16.454-19.023-32.284-18.292-41.645
		c2.603,1.08,5.129,2.295,7.462,3.834C282.392,86.194,289.165,100.14,290.661,119.845z M247.354,70.478
		c-1.027,8.19-0.714,20.687,6.086,34.62l-16.599-6.577c-11.416-13.113-14.553-22.451-15.266-27.605
		C230.199,69.805,239.014,69.462,247.354,70.478z M181.406,93.75l23.291,9.211c-5.75,2.231-10.123,4.754-13.277,7.225
		C187.521,104.407,184.176,98.774,181.406,93.75z M187.266,78.879c5.462-1.772,11.762-3.597,18.568-5.148
		c0.612,3.97,2.082,8.813,4.764,14.392L187.266,78.879z M200.976,123.004c4.038-3.266,12.688-7.917,29.911-9.687l16.636,6.58
		c-14.437,5.518-23.193,14.397-28.038,21.061C212.705,135.994,206.508,129.713,200.976,123.004z M241.694,151.035
		c-2.754-0.473-5.429-1.314-8.065-2.307c5.859-7.309,18.183-17.371,41.623-17.866l9.523,3.766
		C270.224,147.935,255.751,153.446,241.694,151.035z M380.312,49.607L366.47,60.793c2.301-15.282-1.119-27.271-4.535-34.767
		c7.654-3.456,16.167-5.757,24.726-7.27C387.521,23.871,387.257,33.729,380.312,49.607z M409.569,84.972
		c-6.618-4.918-17.628-10.788-33.035-11.74l13.905-11.237c16.968-3.449,26.609-1.587,31.435,0.322
		C418.596,70.369,414.558,78.212,409.569,84.972z M412.344,44.292l19.478-15.74c-1.145,5.622-2.656,11.996-4.652,18.674
		C423.421,45.81,418.497,44.707,412.344,44.292z M345.371,98.415l7.957-6.43c22.532-6.521,37.293-0.602,45.062,4.622
		c-2.22,1.733-4.521,3.334-7.009,4.608C378.672,107.723,363.228,106.776,345.371,98.415z M421.757,16.114L402.29,31.846
		c0.887-6.098,0.844-11.141,0.247-15.101C409.481,16.196,416.025,16.055,421.757,16.114z M342.233,40.395
		c1.767-2.164,3.815-4.078,5.976-5.884c3.48,8.692,6.176,24.369-4.936,45.028l-7.958,6.431
		C330.89,66.759,333.202,51.461,342.233,40.395z M15.991,408h101.922c7.547,0,14.512-1.617,20.691-4.805
		c2.781-1.426,5.637-2.781,8.523-3.996c20.68-8.824,44.434-11.789,66.031-8.703l1.027,0.125c6.66,1.043,13.496,0.574,20.414-1.438
		l55.891-16.723c8.875-3.562,18.691-3.609,27.664-0.125c5.027,1.953,9.547,4.938,13.215,8.66l-81.355,29.734
		c-5.195,2.383-8.406,7.617-8.176,13.332c0.227,5.688,3.828,10.625,9.074,12.539l22.898,8.617c4.133,1.551,8.746-0.535,10.305-4.672
		c1.555-4.137-0.535-8.75-4.672-10.305l-17.879-6.723l80.852-29.523c0.391-0.145,0.773-0.32,1.141-0.523
		c3.918-2.176,6.355-6.328,6.355-10.832c0-2.523-0.828-5.094-2.488-7.449c-6.02-8-14.137-14.145-23.48-17.77
		c-12.766-4.957-26.766-4.887-38.727-0.047l-55.137,16.461c-4.582,1.328-9.098,1.648-13.656,0.945l-1.145-0.141
		c-21.273-3.037-45.12-0.725-66.531,6.811c21.191-28.502,69.896-75.039,163.242-78.925V312c0,4.418,3.582,8,8,8s8-3.582,8-8v-9.645
		c57.613,1.606,109.773,29.708,140.25,76.262c18.894,28.857,21.566,52.131,8.366,69.383H334.55c-8.035,0-17.934-2.227-23.988-5.375
		c-2.035-1.102-4.34-2.348-6.891-3.27c-4.164-1.516-8.746,0.645-10.242,4.805c-1.5,4.156,0.648,8.742,4.805,10.242
		c1.621,0.586,3.164,1.453,4.867,2.375c8.438,4.387,20.781,7.223,31.449,7.223h145.441c3.805,0,7.324,1.281,10.293,3.793
		c3.629,2.969,5.707,7.418,5.707,12.207c0,0.258-0.176,0.551-0.594,0.582l-199.246,14.797c-5.191,0.352-10.289,0.055-15.148-0.902
		l-107.422-21.5c-3.086-0.656-6.223-0.977-9.59-0.977h-148V408z"/>
	<path fill="#495906" d="M226.335,341.898c-3.082,3.078-3.066,7.996-0.047,11.137c3.008,3.137,8.051,3.234,11.258,0.277
		c2.547-2.34,3.895-0.984,4.789-0.102c1.562,1.562,3.609,2.344,5.656,2.344s4.094-0.781,5.656-2.344
		c3.125-3.125,3.125-8.188,0-11.312C243.628,331.879,231.823,336.406,226.335,341.898z"/>
	<path fill="#495906" d="M373.546,353.312c2.551-2.34,3.898-0.984,4.789-0.102c1.562,1.562,3.609,2.344,5.656,2.344
		s4.094-0.781,5.656-2.344c3.125-3.125,3.125-8.188,0-11.312c-10.02-10.02-21.824-5.492-27.312,0
		c-3.082,3.078-3.066,7.996-0.047,11.137C365.292,356.172,370.339,356.27,373.546,353.312z"/>
	<path fill="#495906" d="M349.546,425.312c2.543-2.344,3.891-0.992,4.789-0.102c1.562,1.562,3.609,2.344,5.656,2.344
		s4.094-0.781,5.656-2.344c3.125-3.125,3.125-8.188,0-11.312c-10.016-10.016-21.824-5.496-27.312,0
		c-3.082,3.078-3.066,7.996-0.047,11.137C341.292,428.176,346.335,428.273,349.546,425.312z"/>
	<path fill="#495906" d="M421.546,409.312c2.551-2.336,3.891-0.996,4.789-0.102c1.562,1.562,3.609,2.344,5.656,2.344
		s4.094-0.781,5.656-2.344c3.125-3.125,3.125-8.188,0-11.312c-10.02-10.023-21.824-5.5-27.312,0
		c-3.082,3.078-3.066,7.996-0.047,11.137C413.296,412.172,418.339,412.266,421.546,409.312z"/>
</g>
</svg>
