<?xml version="1.0" encoding="UTF-8"?>
<!DOCTYPE svg PUBLIC "-//W3C//DTD SVG 1.1//EN" "http://www.w3.org/Graphics/SVG/1.1/DTD/svg11.dtd">
<!-- Creator: CorelDRAW -->
<svg xmlns="http://www.w3.org/2000/svg" xml:space="preserve" width="512px" height="512px" version="1.1" style="shape-rendering:geometricPrecision; text-rendering:geometricPrecision; image-rendering:optimizeQuality; fill-rule:evenodd; clip-rule:evenodd"
viewBox="0 0 512 512"
 xmlns:xlink="http://www.w3.org/1999/xlink">
 <defs>
  <style type="text/css">
   <![CDATA[
    .fil0 {fill:black}
   ]]>
  </style>
 </defs>
 <g id="Layer_x0020_1">
  <metadata id="CorelCorpID_0Corel-Layer"/>
  <g id="_537264432">
   <g>
    <g>
     <path class="fil0" d="M337 324c-31,0 -60,-12 -81,-34 -21,22 -50,34 -81,34 -62,0 -113,-51 -113,-113 0,-51 33,-95 81,-109 6,-58 54,-102 113,-102 59,0 107,44 113,102 48,14 81,58 81,109 0,62 -51,113 -113,113zm-81 -52c2,0 4,1 5,2 19,22 47,35 75,35 55,0 99,-44 99,-99 0,-45 -31,-85 -75,-96 -3,0 -5,-3 -5,-6 -3,-53 -46,-94 -99,-94 -53,0 -96,42 -98,94 0,3 -3,6 -6,7 -44,11 -75,50 -75,96 0,54 44,98 99,98 29,0 56,-12 75,-34 1,-2 3,-3 5,-3 0,0 0,0 0,0z"/>
    </g>
    <g>
     <path class="fil0" d="M166 512c-1,0 -3,-1 -5,-2 -2,-3 -2,-7 0,-10 27,-27 45,-96 51,-193 0,-4 4,-7 7,-7 5,1 7,4 7,8 -4,71 -17,165 -55,202 -1,1 -2,2 -5,2z"/>
    </g>
    <g>
     <path class="fil0" d="M346 512c-2,0 -4,-1 -5,-2 -38,-37 -51,-131 -55,-202 0,-5 3,-8 7,-8 4,0 7,3 7,7 6,97 24,166 51,193 2,3 2,7 0,10 -2,1 -3,2 -5,2z"/>
    </g>
    <g>
     <path class="fil0" d="M464 512l-416 0c-4,0 -7,-3 -7,-7 0,-4 3,-8 7,-8l416 0c4,0 7,4 7,8 0,4 -3,7 -7,7z"/>
    </g>
    <g>
     <path class="fil0" d="M161 276c-35,0 -63,-29 -63,-64 0,-13 4,-25 11,-35 2,-3 6,-4 10,-2 3,2 4,6 2,10 -6,8 -8,17 -8,26 0,28 22,50 48,50 5,0 8,3 8,7 0,4 -3,8 -8,8z"/>
    </g>
    <g>
     <path class="fil0" d="M316 113c-3,0 -7,-3 -7,-7 -1,-27 -23,-49 -51,-49 -4,0 -8,-3 -8,-8 0,-4 4,-7 8,-7 35,0 64,27 66,63 0,5 -3,8 -8,8 0,0 0,0 0,0z"/>
    </g>
    <g>
     <path class="fil0" d="M337 271c-3,0 -6,-2 -7,-5 -1,-4 1,-8 5,-9 12,-4 20,-11 23,-19 7,-14 0,-29 0,-29 -1,-4 1,-8 4,-10 4,-2 8,0 10,4 0,1 9,21 0,41 -6,12 -17,21 -33,27 -1,0 -1,0 -2,0z"/>
    </g>
    <g>
     <path class="fil0" d="M243 184c0,0 -1,0 -1,0 -4,0 -7,-3 -6,-7 1,-31 -40,-39 -41,-39 -4,-1 -6,-4 -6,-9 1,-3 5,-6 9,-5 19,3 54,20 52,54 0,3 -4,6 -7,6z"/>
    </g>
    <g>
     <path class="fil0" d="M189 286c-2,0 -4,-1 -5,-3 -3,-4 -2,-8 1,-10 24,-18 15,-53 15,-53 -1,-4 1,-8 5,-9 4,-1 8,1 9,5 0,2 11,45 -20,68 -2,1 -3,2 -5,2z"/>
    </g>
    <g>
     <path class="fil0" d="M273 223c-2,0 -5,0 -8,-1 -4,0 -7,-4 -6,-8 0,-4 4,-7 8,-6 30,4 48,-27 49,-27 2,-3 6,-5 10,-2 3,2 4,6 2,10 -1,1 -21,34 -55,34z"/>
    </g>
    <g>
     <path class="fil0" d="M139 512c0,0 0,0 0,0 -4,0 -7,-3 -7,-7 2,-78 -27,-96 -27,-97 -4,-2 -5,-6 -3,-10 2,-3 7,-4 10,-2 2,0 37,21 34,109 0,4 -3,7 -7,7z"/>
    </g>
    <g>
     <path class="fil0" d="M151 512c-4,0 -7,-3 -7,-7 0,-29 17,-102 18,-104 1,-4 5,-7 9,-6 3,1 6,5 5,9 0,1 -17,74 -17,101 0,4 -3,7 -8,7z"/>
    </g>
    <g>
     <path class="fil0" d="M361 512c0,0 0,0 0,0 -5,0 -8,-3 -8,-7 2,-78 -27,-96 -27,-97 -3,-2 -4,-6 -3,-10 3,-3 7,-5 10,-2 2,0 37,21 35,109 0,4 -3,7 -7,7z"/>
    </g>
    <g>
     <path class="fil0" d="M373 512c-4,0 -7,-3 -7,-7 0,-29 16,-102 17,-104 1,-4 5,-7 9,-6 4,1 6,5 5,9 0,1 -17,74 -17,101 1,4 -3,7 -7,7z"/>
    </g>
    <g>
     <path class="fil0" d="M219 486c-1,0 -3,-1 -3,-1 -4,-2 -5,-7 -3,-10 21,-40 20,-109 20,-109 0,-4 3,-8 7,-8 0,0 0,0 0,0 4,0 7,4 7,8 0,2 1,73 -22,116 -1,2 -3,4 -6,4z"/>
    </g>
   </g>
  </g>
 </g>
</svg>
