<?xml version="1.0" encoding="iso-8859-1"?>
<!-- Generator: Adobe Illustrator 19.0.0, SVG Export Plug-In . SVG Version: 6.00 Build 0)  -->
<svg version="1.1" xmlns="http://www.w3.org/2000/svg" xmlns:xlink="http://www.w3.org/1999/xlink" x="0px" y="0px"
	 viewBox="0 0 512 512" style="enable-background:new 0 0 512 512;" xml:space="preserve">
<g id="_x30_7_x2C__touch_x2C__hand_x2C__hands_and_gestures_x2C__gestures_x2C__sign">
	<g id="XMLID_1686_">
		<g id="XMLID_1834_">
			<g id="XMLID_1915_">
				<path id="XMLID_1916_" d="M216.968,163.546c-2.37-4.988-0.248-10.954,4.741-13.324C242.54,140.325,256,119.042,256,96
					c0-33.084-26.916-60-60-60s-60,26.916-60,60c0,23.042,13.46,44.325,34.292,54.222c4.988,2.37,7.111,8.335,4.741,13.324
					c-2.371,4.988-8.336,7.111-13.324,4.741C133.942,155.094,116,126.72,116,96c0-44.112,35.888-80,80-80s80,35.888,80,80
					c0,30.72-17.942,59.094-45.708,72.287C225.313,170.652,219.343,168.545,216.968,163.546z"/>
			</g>
			<g id="XMLID_1863_">
				<g id="XMLID_1913_">
					<path id="XMLID_1914_" d="M137.056,440.472l-40-80C96.361,359.083,96,357.552,96,356v-90c0-22.056,17.944-40,40-40
						c7.28,0,14.113,1.956,20,5.368V106c0-22.056,17.944-40,40-40s40,17.944,40,40v75.368c5.887-3.413,12.72-5.368,20-5.368
						c20.54,0,37.514,15.561,39.75,35.514C301.693,208.01,308.616,206,316,206c20.54,0,37.514,15.561,39.75,35.514
						C361.693,238.01,368.616,236,376,236c22.056,0,40,17.944,40,40v70c0,1.272-0.243,2.533-0.715,3.714L396,397.926V436
						c0,5.523-4.477,10-10,10s-10-4.477-10-10v-40c0-1.272,0.243-2.533,0.715-3.714L396,344.074V276c0-11.028-8.972-20-20-20
						s-20,8.972-20,20c0,5.523-4.477,10-10,10s-10-4.477-10-10v-30c0-11.028-8.972-20-20-20s-20,8.972-20,20c0,5.523-4.477,10-10,10
						s-10-4.477-10-10v-30c0-11.028-8.972-20-20-20s-20,8.972-20,20c0,5.523-4.477,10-10,10s-10-4.477-10-10V106
						c0-11.028-8.972-20-20-20s-20,8.972-20,20v160c0,5.523-4.477,10-10,10s-10-4.477-10-10c0-11.028-8.972-20-20-20
						s-20,8.972-20,20v87.64l38.944,77.889c2.47,4.94,0.468,10.946-4.472,13.417C145.532,447.414,139.526,445.412,137.056,440.472z"
						/>
				</g>
				<g id="XMLID_1909_">
					<path id="XMLID_1910_" d="M166,346c-5.523,0-10-4.477-10-10v-70c0-5.523,4.477-10,10-10s10,4.477,10,10v70
						C176,341.522,171.523,346,166,346z"/>
				</g>
				<g id="XMLID_1901_">
					<path id="XMLID_1902_" d="M386,496H146c-5.523,0-10-4.477-10-10v-50c0-5.523,4.477-10,10-10h240c5.523,0,10,4.477,10,10v50
						C396,491.523,391.523,496,386,496z M156,476h220v-30H156V476z"/>
				</g>
				<g id="XMLID_1899_">
					<path id="XMLID_1900_" d="M226,316c-5.523,0-10-4.477-10-10v-90c0-5.523,4.477-10,10-10s10,4.477,10,10v90
						C236,311.522,231.523,316,226,316z"/>
				</g>
				<g id="XMLID_1897_">
					<path id="XMLID_1898_" d="M286,316c-5.523,0-10-4.477-10-10v-60c0-5.523,4.477-10,10-10s10,4.477,10,10v60
						C296,311.522,291.523,316,286,316z"/>
				</g>
				<g id="XMLID_1894_">
					<path id="XMLID_1895_" d="M346,316c-5.523,0-10-4.477-10-10v-30c0-5.523,4.477-10,10-10s10,4.477,10,10v30
						C356,311.522,351.523,316,346,316z"/>
				</g>
			</g>
		</g>
	</g>
</g>
<g id="Layer_1">
</g>
</svg>
