<?xml version="1.0" encoding="UTF-8" standalone="no"?> <svg id="Layer_1" data-name="Layer 1" xmlns="http://www.w3.org/2000/svg" viewBox="0 0 128 128"><defs><style>.cls-1{fill:#2e79bd;}.cls-2{fill:#2d3e50;}</style></defs><title>n</title><path class="cls-1" d="M65.46831,91.43705H71.0732a1.38788,1.38788,0,1,0,0-2.77575H65.46831a1.38788,1.38788,0,1,0,0,2.77575Z"/><path class="cls-1" d="M65.46831,98.59825H78.01256a1.38788,1.38788,0,0,0,0-2.77575H65.46831a1.38788,1.38788,0,1,0,0,2.77575Z"/><path class="cls-1" d="M103.01543,62.66355h-1.76359V41.91074h2.168v-5.407a5.89977,5.89977,0,0,0-5.89325-5.893h-34.139a5.89951,5.89951,0,0,0-5.89276,5.893v5.407h2.16771v20.7528H57.89887a6.80332,6.80332,0,0,0-6.80329,6.80329V75.628h2.86481v33.09008h52.99352V75.628h2.86481V69.46684A6.80332,6.80332,0,0,0,103.01543,62.66355ZM64.39031,41.91074H96.52405V62.22138H64.39031Zm38.28435,62.52807h-44.435V75.628h44.435Z"/><path class="cls-1" d="M38.87962,98.46381a14.14178,14.14178,0,0,0-1.922-.87409,14.03223,14.03223,0,1,0,1.922.87409Zm-1.485,15.20218a6.88929,6.88929,0,0,1-.42213.66551,6.03,6.03,0,1,1,.42213-.66551Z"/><path class="cls-2" d="M37.44929,20.67988l-.4619,72.23148a18.41017,18.41017,0,0,0-7.981-.37248l.46187-71.90868a4.034,4.034,0,0,0-2.08093-3.56091L15.75618,10.68687A3.99343,3.99343,0,0,1,14.1766,5.26425h0a3.99343,3.99343,0,0,1,5.42308-1.57863l11.63662,6.391A11.99027,11.99027,0,0,1,37.44929,20.67988Z"/><path class="cls-2" d="M110.32744,122.28855l-63.73.014a18.81256,18.81256,0,0,0,1.74819-2.62228,18.372,18.372,0,0,0,1.67368-4.22145c.0993-.37745.18375-.75487.25823-1.13233l60.04782-.01865a3.99033,3.99033,0,0,1,3.99157,3.98784h0A3.99033,3.99033,0,0,1,110.32744,122.28855Z"/></svg>