<?xml version="1.0" encoding="UTF-8"?>
<!DOCTYPE svg PUBLIC "-//W3C//DTD SVG 1.1//EN" "http://www.w3.org/Graphics/SVG/1.1/DTD/svg11.dtd">
<!-- Creator: CorelDRAW -->
<svg xmlns="http://www.w3.org/2000/svg" xml:space="preserve" width="1.70666in" height="1.70666in" version="1.1" style="shape-rendering:geometricPrecision; text-rendering:geometricPrecision; image-rendering:optimizeQuality; fill-rule:evenodd; clip-rule:evenodd"
viewBox="0 0 1707 1707"
 xmlns:xlink="http://www.w3.org/1999/xlink">
 <defs>
  <style type="text/css">
   <![CDATA[
    .fil1 {fill:#20316B}
    .fil0 {fill:#C4DCF0}
    .fil2 {fill:#FF700D}
    .fil3 {fill:#FFA721}
   ]]>
  </style>
 </defs>
 <g id="Layer_x0020_1">
  <metadata id="CorelCorpID_0Corel-Layer"/>
  <path class="fil0" d="M1438 1706l-1170 0c-79,0 -151,-40 -185,-102 -30,-57 -25,-124 15,-185l483 -725 0 -671c0,-13 11,-23 23,-23l499 0c12,0 22,10 22,23l0 671 483 725c40,61 46,128 16,185 -34,62 -107,102 -186,102z"/>
  <path class="fil1" d="M1219 46l-731 0c-13,0 -23,-11 -23,-23 0,-13 10,-23 23,-23l731 0c12,0 22,10 22,23 0,12 -10,23 -22,23z"/>
  <path class="fil2" d="M853 429c-48,0 -88,-40 -88,-88 0,-49 40,-88 88,-88 49,0 88,39 88,88 0,48 -39,88 -88,88z"/>
  <path class="fil2" d="M853 762c-48,0 -88,-40 -88,-88 0,-49 40,-88 88,-88 49,0 88,39 88,88 0,48 -39,88 -88,88z"/>
  <path class="fil2" d="M1011 1058c-49,0 -88,-39 -88,-88 0,-48 39,-87 88,-87 48,0 88,39 88,87 0,49 -40,88 -88,88z"/>
  <path class="fil3" d="M1571 1444l-200 -298c-60,15 -162,36 -271,36 -86,0 -177,-13 -257,-51 -165,-80 -391,-39 -489,-14l-218 327c-31,47 -35,96 -13,138 26,48 83,79 145,79l1170 0c63,0 120,-31 146,-79 22,-42 18,-91 -13,-138z"/>
  <path class="fil2" d="M501 1403c-49,0 -88,-40 -88,-88 0,-48 39,-88 88,-88 48,0 88,40 88,88 0,48 -40,88 -88,88z"/>
  <path class="fil2" d="M847 1534c-81,0 -147,-66 -147,-148 0,-81 66,-147 147,-147 81,0 147,66 147,147 0,82 -66,148 -147,148z"/>
  <path class="fil2" d="M1225 1466c-48,0 -88,-40 -88,-88 0,-49 40,-88 88,-88 48,0 88,39 88,88 0,48 -40,88 -88,88z"/>
 </g>
</svg>
