<?xml version="1.0" encoding="utf-8"?>
<!-- Generator: Adobe Illustrator 18.0.0, SVG Export Plug-In . SVG Version: 6.00 Build 0)  -->
<!DOCTYPE svg PUBLIC "-//W3C//DTD SVG 1.1//EN" "http://www.w3.org/Graphics/SVG/1.1/DTD/svg11.dtd">
<svg version="1.1" id="Layer_1" xmlns="http://www.w3.org/2000/svg" xmlns:xlink="http://www.w3.org/1999/xlink" x="0px" y="0px"
	 viewBox="0 0 32 28" enable-background="new 0 0 32 28" xml:space="preserve">
<g>
	<path fill="#AAD3C7" d="M14.9,2.3H6.6c-0.1,0-0.2,0.1-0.2,0.2c0,0.1,0,0.2,0,0.3l4.1,5.1c0,0.1,0.1,0.1,0.2,0.1
		c0.1,0,0.1,0,0.2-0.1l4.2-5.1c0.1-0.1,0.1-0.2,0-0.3C15.1,2.3,15,2.3,14.9,2.3z"/>
	<path fill="#AAD3C7" d="M10.3,9H1.8C1.8,9,1.7,9,1.6,9.1c0,0.1,0,0.2,0,0.3l12.8,16.3c0.1,0.1,0.2,0.1,0.3,0.1
		c0.1-0.1,0.1-0.2,0.1-0.3L10.6,9.1C10.5,9,10.5,9,10.3,9z"/>
	<path fill="#AAD3C7" d="M25.9,2.3h-8.6c-0.1,0-0.2,0.1-0.2,0.2c0,0.1,0,0.2,0,0.3l4.4,5.1c0,0.1,0.1,0.1,0.2,0.1
		c0.1,0,0.1,0,0.2-0.1c0.8-1,3.1-3.8,4.2-5.1c0.1-0.1,0.1-0.2,0-0.3C26,2.3,26,2.3,25.9,2.3z"/>
	<path fill="#AAD3C7" d="M30.9,9h-8.8c-0.1,0-0.2,0.1-0.2,0.2l-4.1,16.4c0,0.1,0,0.2,0.1,0.3c0.1,0.1,0.2,0,0.3-0.1L31.1,9.4
		c0.1-0.1,0.1-0.2,0-0.3C31.1,9,31,9,30.9,9z"/>
	<path fill="#616E7D" d="M16.1,2.7c-0.1,0-0.1,0-0.2,0.1l-4.2,5.1c-0.1,0.1-0.1,0.2,0,0.3c0,0.1,0.1,0.2,0.2,0.2h8.7
		c0.1,0,0.2-0.1,0.2-0.2c0-0.1,0-0.2,0-0.3l-4.4-5.1C16.2,2.7,16.1,2.7,16.1,2.7z"/>
	<path fill="#616E7D" d="M26.9,2.7c-0.1,0-0.1,0-0.2,0.1l-4.2,5.1c-0.1,0.1-0.1,0.2,0,0.3c0,0.1,0.1,0.2,0.2,0.2h8.7
		c0.1,0,0.2-0.1,0.2-0.2c0-0.1,0-0.2,0-0.3l-4.4-5.1C27,2.7,27,2.7,26.9,2.7z"/>
	<path fill="#616E7D" d="M5.3,2.7c-0.1,0-0.1,0-0.2,0.1L1,7.9C0.9,8,0.9,8.1,0.9,8.2C1,8.3,1,8.3,1.1,8.3h8.7c0.1,0,0.2-0.1,0.2-0.2
		c0-0.1,0-0.2,0-0.3L5.5,2.7C5.5,2.7,5.4,2.7,5.3,2.7z"/>
	<path fill="#AAD3C7" d="M11.7,9c-0.1,0-0.1,0-0.2,0.1s-0.1,0.2,0,0.2l4.7,17.6c0,0.1,0.1,0.2,0.2,0.2c0.1,0,0.2-0.1,0.2-0.2L21,9.3
		c0-0.1,0-0.2,0-0.2C20.9,9,20.8,9,20.7,9H11.7z"/>
</g>
</svg>
