<?xml version="1.0" encoding="UTF-8"?>
<!DOCTYPE svg PUBLIC "-//W3C//DTD SVG 1.1//EN" "http://www.w3.org/Graphics/SVG/1.1/DTD/svg11.dtd">
<!-- Creator: CorelDRAW -->
<svg xmlns="http://www.w3.org/2000/svg" xml:space="preserve" width="1.70666in" height="1.70666in" version="1.1" style="shape-rendering:geometricPrecision; text-rendering:geometricPrecision; image-rendering:optimizeQuality; fill-rule:evenodd; clip-rule:evenodd"
viewBox="0 0 1707 1707"
 xmlns:xlink="http://www.w3.org/1999/xlink">
 <defs>
  <style type="text/css">
   <![CDATA[
    .fil0 {fill:#606062}
    .fil1 {fill:#99A4AC}
    .fil2 {fill:#D9F2F2}
   ]]>
  </style>
 </defs>
 <g id="Layer_x0020_1">
  <metadata id="CorelCorpID_0Corel-Layer"/>
  <path class="fil0" d="M947 400l-156 0c-13,0 -23,-10 -23,-23l0 -156c0,-13 10,-24 23,-24l156 0c13,0 23,11 23,24l0 156c0,13 -10,23 -23,23zm736 1301l-1659 0c-13,0 -24,-10 -24,-23l0 -1650c0,-12 11,-23 24,-23l1243 0c6,0 12,3 17,7l416 426c4,4 6,10 6,16l0 1224c0,13 -10,23 -23,23zm-1636 -46l190 0 0 -726c0,-68 56,-124 124,-124l985 0c68,0 123,56 123,124l0 726 191 0 0 -1191 -403 -412 -155 0 0 417c0,68 -55,123 -123,123l-668 0c-68,0 -123,-55 -123,-123l0 -417 -141 0 0 1603zm237 0l1139 0 0 -726c0,-43 -35,-77 -77,-77l-985 0c-43,0 -77,34 -77,77l0 726zm772 -1603l-821 0 0 417c0,42 34,77 76,77l668 0c42,0 77,-35 77,-77l0 -417zm183 976l-772 0c-30,0 -30,-46 0,-46l772 0c31,0 31,46 0,46zm0 166l-772 0c-30,0 -30,-47 0,-47l772 0c31,0 31,47 0,47zm0 166l-772 0c-30,0 -30,-47 0,-47l772 0c31,0 31,47 0,47zm0 165l-772 0c-30,0 -30,-46 0,-46l772 0c31,0 31,46 0,46zm326 66c-39,0 -70,-31 -70,-69 0,-38 31,-70 70,-70 38,0 69,32 69,70 0,38 -31,69 -69,69zm0 -92c-31,0 -31,46 0,46 30,0 30,-46 0,-46zm-1423 92c-38,0 -69,-31 -69,-69 0,-38 31,-70 69,-70 39,0 70,32 70,70 0,38 -31,69 -70,69zm0 -92c-30,0 -30,46 0,46 30,0 30,-46 0,-46zm672 -1146l110 0 0 -109 -110 0 0 109z"/>
  <path class="fil1" d="M1102 469c0,68 -55,123 -123,123l-668 0c-68,0 -123,-55 -123,-123l0 -417 -141 0 0 1603 190 0 0 -726c0,-68 56,-124 124,-124l985 0c68,0 123,56 123,124l0 726 191 0 0 -1191 -403 -412 -155 0 0 417zm393 1053c0,-38 31,-70 70,-70 38,0 69,32 69,70 0,38 -31,69 -69,69 -39,0 -70,-31 -70,-69zm-1353 -70c39,0 70,32 70,70 0,38 -31,69 -70,69 -38,0 -69,-31 -69,-69 0,-38 31,-70 69,-70z"/>
  <path class="fil2" d="M979 546c42,0 77,-35 77,-77l0 -417 -821 0 0 417c0,42 34,77 76,77l668 0zm-32 -146l-156 0c-13,0 -23,-10 -23,-23l0 -156c0,-13 10,-24 23,-24l156 0c13,0 23,11 23,24l0 156c0,13 -10,23 -23,23z"/>
  <polygon class="fil1" points="814,353 924,353 924,244 814,244 "/>
  <path class="fil2" d="M1239 1028l-772 0c-30,0 -30,-46 0,-46l772 0c31,0 31,46 0,46zm107 -176l-985 0c-43,0 -77,34 -77,77l0 726 1139 0 0 -726c0,-43 -35,-77 -77,-77zm-107 342l-772 0c-30,0 -30,-47 0,-47l772 0c31,0 31,47 0,47zm-772 119l772 0c31,0 31,47 0,47l-772 0c-30,0 -30,-47 0,-47zm0 166l772 0c31,0 31,46 0,46l-772 0c-30,0 -30,-46 0,-46z"/>
  <path class="fil2" d="M1565 1499c-31,0 -31,46 0,46 30,0 30,-46 0,-46z"/>
  <path class="fil2" d="M142 1545c30,0 30,-46 0,-46 -30,0 -30,46 0,46z"/>
 </g>
</svg>
