<?xml version="1.0" encoding="UTF-8" standalone="no"?> <svg id="flat" xmlns="http://www.w3.org/2000/svg" viewBox="0 0 500 500"><path d="M331.29,29.443C302.728,13.968,263.767-3.725,214.031,8.853c-16.122,4.077-29.711,15.053-45.892,18.91a110.057,110.057,0,0,1-14.6,2.262l-27.431,9.466s-26.772,36.894,7.26,57.47,210.545,8.512,210.545,8.512l19.869-49.646Z" style="fill:#8fad96"/><path d="M394.823,86.257c-4.875-30.751-28.994-39.485-28.994-39.485-9.047-2.7-20.545-9.747-34.539-17.329a37.436,37.436,0,0,1-5.282,23.2,3.373,3.373,0,0,0,4.182,4.892c5.651-2.666,14.135-5.342,17.912,1.307,5.206,14.379-12.635,26.455-25.716,26.777a39.649,39.649,0,0,1-21.36-4.841c-10.8-5.961-19.517-17.177-30.69-20.752a2.735,2.735,0,0,1-.929-4.748,26.35,26.35,0,0,0,6.949-8.592,2.481,2.481,0,0,0-3.488-3.226c-14.541,8.365-25.842,7.55-42.392,5.024a2.477,2.477,0,0,0-1.846,4.444l5.668,4.155a2.742,2.742,0,0,1-.388,4.649c-5.83,3.032-13.152,3.07-19.758,1.824-8.013-1.512-15.725-4.621-23.848-5.338a41.609,41.609,0,0,0-32.1,11.346c-2.882,2.782-5.5,6.083-9.217,7.569-11.269,4-20.221-7.742-19.185-18.4-.041-7.746,6.317-16.548,14.607-12.8a2.765,2.765,0,0,0,3.836-2.1,40.238,40.238,0,0,1,5.289-13.807c-8.633.865-17.344,1.321-25.718,3.432,0,0-42.387,12.3-34.887,68.178s145.731,17.8,145.731,17.8l129.159,14.08S400.57,122.507,394.823,86.257Z" style="fill:#617a68"/><path d="M434.13,81.476a79.554,79.554,0,0,0-40.512-28.217c-9.106-2.722-18.669-3.8-27.788-6.491,12.4,15.522,16.057,39.777,2.679,55.9-10.286,12.388-38.058,33.049-59.51,10.488-5.951-6.258-14.891-28.053-36.717-33.228-20.019-4.747-16.595,15.247-46.982,7.12-9.275-2.48-39.207-27.882-68.84.475-10.642,10.183-18.76,13.5-25.985,13.558A23.455,23.455,0,0,1,107.9,83.415c-8.786-33.488,13.048-45.606,19.925-49.952-.009-.014,0,.006-.005-.008a62.539,62.539,0,0,0-36,24.792c-8.733,14.194-11.2,18.946-26.671,26.782-16.458,8.557-34.827,24.922-29.388,45.115,3.526,12,17.075,29.579,29.334,33.641,22.963,7.61,47.779,10.406,72.061,9.837,19.966-.467,40.067,1.839,59.91-.418,13.789-1.569,22.2-10.966,27.729-15.779,30.222-26.291,93.953-9.82,107.068-9.425,31.454.492,65.59,2.909,93.72-13.218C432.688,130.229,454.331,108.367,434.13,81.476Z" style="fill:#4f424c"/><path d="M309,225.961c22.172-6.125,40.208-25.286,44.982-47.788h9.8s1.32,48.214-42.723,65.212Z" style="fill:#4f424c"/><path d="M93.519,493.5h99.816l-13.787-44.913a43.7,43.7,0,0,0-41.973,13.7c-4.789,5.54-8.214,12.364-14.026,16.819-5.026,3.854-11.334,5.542-17.462,7.143-4.373,1.144-8.726,2.6-13.082,4.027A1.652,1.652,0,0,0,93.519,493.5Z" style="fill:#4f424c"/><path d="M171.178,232.9c7.756,29.891,34.641,57.938,69,67l-19.954,17.173s-50.434-25.936-61.805-82.35Z" style="fill:#4f424c"/><path d="M427.545,117.781c-32.3-9.236-46.837,10.195-75.04,16.332-15.944,13.011-14.391,29.38,9.471,50.031,0,0,84.56,3.155,85.06-26.011C447.4,148.629,427.545,117.781,427.545,117.781Z" style="fill:#8fad96"/><path d="M457.31,157.311c.366-9.5-1.257-18.624-6.091-27.127a63.693,63.693,0,0,0-23.677-12.393,28.962,28.962,0,0,1,4.038,15.719c-.262,7.041-7.869,15.958-15.4,20.285a2.189,2.189,0,0,1-2.979-3.006,15.6,15.6,0,0,0,1.821-12.482,2.329,2.329,0,0,0-4.132-.692c-8.193,11.246-19.053,13.5-30.37,13.11a2.33,2.33,0,0,0-1.663,4.054,23.964,23.964,0,0,0,7.064,4.413,2.188,2.188,0,0,1-.488,4.168c-13.979,2.482-39.37,1.949-35.983-22.351a14.79,14.79,0,0,1,3.053-6.9c-2.447.5-4.908.939-7.358,1.418,0,0-15,5.453-18.67,18.953s35.5,29.666,35.5,29.666S456.81,186.478,457.31,157.311Z" style="fill:#617a68"/><path d="M400.7,229.073c20.324-8.716,45.282-1.132,57.941,16.735,0,0,8.41,16.949,2.994,29.18s-46.814,21.826-46.814,21.826-38.3,3.472-34.82-21.826S400.7,229.073,400.7,229.073Z" style="fill:#8fad96"/><path d="M466.5,260.687a55.655,55.655,0,0,0-7.863-14.874c2.87,15.741-5.451,30.462-22.593,31.2-5.072.218-7.962-6.906-12.994-7.571-7.952-1.053-15.079,6.487-23.063,5.707-3.83-.373-8.9-2.423-9.114-6.266-.707-12.926,7.83-6.706,17.114-9.581a3.174,3.174,0,0,0,.79-5.689c-9.3-5.681-14.764-14.906-8.072-24.533-11.146,4.312-21.12,11.519-30.478,18.844-29.417,34.7-9.322,62.759,45.319,62.449,45.648,2.823,83.433-9.4,71.216-41.819C481.469,263.913,474.15,261.547,466.5,260.687Z" style="fill:#617a68"/><path d="M486.747,268.565c2.275,21.658-22.538,40.585-43.43,36.635a19.617,19.617,0,0,1-5.821-4.168c-8.929-8.148-19.687-16.145-31.746-15.3-9.068.638-17.487,6.3-26.547,5.561-22.71-3.13-19.518-29.172-8.978-43.375-14,10.554-27.882,27.927-21.839,46.16,3.71,10.735,14.167,18.056,24.856,22.974,30.792,14.168,68.585,13.652,98.938-1.349,10.2-5.04,20.27-12.609,22.56-23.327A25.872,25.872,0,0,0,486.747,268.565Z" style="fill:#4f424c"/><path d="M383.351,312.758c-23.227,7.019-50.275,4.641-72.927-3.818,0,0,18.2-31.8,17.217-56.267-3.376-34.673-25.776-52.191-37.632-60.392-7.041-2.637-16.042-9.345-23.188-14.262-19.185-7.879-34.655-17.88-30.752-38.945-6.207-19.794,9.546-30.9,21.527-42.535a.9.9,0,0,0-.484-1.586c-4.774-.4-9.6.772-14.176,2.332-14.258,6.425-21.083,24.982-27.358,34.369l-.28,21.223a58.212,58.212,0,0,0,6.1,14.855s38.323,23.606,49.927,39.456c14.8,20.216,25.2,67.407-32.663,83.028-23.769,6.417-59.612,22.977-59.612,22.977a117.97,117.97,0,0,0-22.165,16.24s-38.868,55.682,20.619,137.719c13.5,10.074,133.5,4.9,133.5,4.9s20.028,20.225,39.4,17.46c-25.439-11.176-13.363-29.566-34.561-37.146-10.8-4.62-20.99.806-31.635-1.223-68.4-4.306-71.49-146.893,75.472-121.235a36.751,36.751,0,0,0,9.37.422C376.925,329.712,383.351,312.758,383.351,312.758Z" style="fill:#e57e80"/><path d="M266.822,178.018A125.325,125.325,0,0,1,244.3,157.363c-7.009-8.082-8.075-15.755-9.426-24.542,0,0-7.824,21.246-16.388,8.188-4.969-8.076,2.973-18.969,5.457-27.613a7.406,7.406,0,0,1-.544-2.964c-4.227-8.457-16.244-25.337-43.291-20.105a.9.9,0,0,0-.177,1.719c13.873,5.646,32.715,11.232,32.831,37.246l1.31,11.614c.059.264.126.513.192.763-.064-.065-.127-.125-.192-.191l1.226,11.4a58.212,58.212,0,0,0,6.1,14.855s31.072,19.143,45.728,34.527C261.6,194.209,256.555,183.549,266.822,178.018Z" style="fill:#bc5b65"/><path d="M258.847,475.577c3.776-9.87,4.971-20.235,6.591-30.573-16.911-8.669-36.776-29.044-20.262-75.834,3.113-8.82,15.682-29.367,47.546-38.234,6.777-7.27,14.546-13.569,21.581-20.6-1.3-.444-2.6-.905-3.879-1.4,3.759-6.251,25.862-48.2,13.374-74.645-15.407,3.858-14.061,22.34-16.2,35.668A53.652,53.652,0,0,1,289.681,301.5c-9.929,8.465-22.541,12.958-33.96,19.27-13.929,7.7-31.212,15.006-40.939,27.605-9.6,10.249-23.019,47.148-41.608,45.615-25.265-5.757-23.523-45.033-16.286-64.55-43.185,42.253-13.178,114.422,14.786,143.3C179.282,478.413,222.526,477.477,258.847,475.577Z" style="fill:#bc5b65"/><path d="M392.126,323.64c15.54-6.564,21.85-22.239,21.85-22.239l-6.65-4.265c-4.476,5.792-12.49,11.824-23.98,15.6-2.774,7.212-8.32,12.8-14.3,17.577C376.923,329.7,384.546,326.842,392.126,323.64Z" style="fill:#bc5b65"/><path d="M240.919,465.946c3.855-14.7-3.273-29.245-9.487-42.194-13.574-25.09-14.227-56.047,2.1-80.077,8.007-12.117,20.013-20.6,31.064-29.714,58.889-48.232,39.654-103.147-21.284-136.9-2.628-1.357-5.916,2.26-3.351,4.343,9.784,7.946,20.866,13.881,30.191,22.529,39.877,35.372,26.74,77.834-11.778,107.305C247.8,319.8,236.84,328.019,229,339.321c-15,21.658-18.621,50.936-8.54,75.37,6.983,16.923,18.6,31.547,17.1,50.8-.152,1.945,2.879,2.292,3.361.455Z" style="fill:#4f424c"/><path d="M242.753,189.565c3.193,2.3,6.405,4.475,9.51,6.666-8.476-17.924-16.494-36.915-16.187-57.158-1.476-14.158,7.139-27.305,14.37-35.475-11.157,7.7-19.228,18.633-19.958,33.167C229.946,155.078,235.284,172.84,242.753,189.565Z" style="fill:#4f424c"/><path d="M269.852,279.414c60.129-43.781-17.119-99.1-48.45-111.684,12.488,21.234,35.358,27.336,47.114,43.073,12.194,16.324,24.024,51.91-30.686,76.386-19.577,8.75-40.271,15.106-58.778,26q21.729-8.811,44.143-15.792C238.915,292.511,256.248,289.226,269.852,279.414Z" style="fill:#4f424c"/><path d="M211.315,154.454c-4.766-.9-9.4-3.4-11.521-7.575-17.908-32.634-67.2-34.121-95.587-14-4.777,3.615-10.283,5.981-16.413,5.991,0,0-13.413,18.6,2.109,41.839s39.347,39.124,79.777,34.431,51.969-46.99,51.969-46.99Z" style="fill:#8fad96"/><path d="M242.914,196.231c4.994-15.434-7.066-31.178-7.066-31.178-6.656-4.663-15.892-8.265-24.533-10.6,2.281,8.025.958,17.619-4.885,23.746a2.9,2.9,0,0,1-5-1.905,14.488,14.488,0,0,0-1.147-5.182,2.561,2.561,0,0,0-4.757.167c-2.958,7.966-7.616,11.943-17.792,14.521a2.557,2.557,0,0,0,.115,4.98c3.294-.035,5.13,3.871,1.987,5.657a55.119,55.119,0,0,1-59.661-7.112,3.141,3.141,0,0,1,2.386-5.525,34.4,34.4,0,0,0,5.313.114,2.555,2.555,0,0,0,.95-4.85c-11.8-5.684-20.674-14.594-22.265-28.357a2.559,2.559,0,0,0-4.709-1.09,24.752,24.752,0,0,0-3.8,10.53,3.135,3.135,0,0,1-5.741,1.326,30.991,30.991,0,0,1-4.512-22.614c-4.155.221-8.342.212-12.417,1.081,0,0-26.583,6.026-23.774,41.683,0,0,.624,46.892,66.163,46.892S233.243,226.124,242.914,196.231Z" style="fill:#617a68"/><path d="M466.009,152.063c-.537-4.692-5.22-13.818-14.793-21.876,1.313,11.107-7.385,22.455-16.847,21.343-14.916-.317-8.858,21.513-42.681,23.6-16.281.649-46.055.046-56.3-14.13-5.176-9.125,1.531-20.419,9.76-25.473-11.842,1.864-23.271,7.436-30.531,17.206-3.41,4.456-6,9.849-5.753,15.455,1.167,16.212,19.532,22.2,33.489,22.974,20.233,1.535,40.562,1.463,60.833,2.305,10.154.316,20.271-.7,30.429-.748C469.02,192.544,466.953,155.989,466.009,152.063Z" style="fill:#4f424c"/><path d="M180.642,378.734c6.442-5.4,14.843-22.562,15.013-30.992.2-11.324-13.172-7.583-18.352-2.385-7.8,7.832-27.5,52.872-4.017,52.652,17.164-.162,24.83-23.212,30.147-35.784,3.38-7.992,8.8-18.9,6.427-27.909-2.737-10.389-15.323-11.973-24.281-10.094-15.636,3.278-25.386,15.918-31.834,29.762-12.784,30.979-.825,71.8,23.44,94.018,2.08,1.774,5.811-.543,4.051-3.124-4.56-6.688-9.79-12.816-13.858-19.848-9.417-16.286-14.339-35.638-11.765-54.425,2.191-13.779,11.3-32.885,24.808-38.49,9.941-4.583,27.341-4.445,23.091,11.127-2.574,11.711-8.351,22.956-13.569,33.65-2.911,5.967-7.523,12.352-14.184,14.459-13.917,4.3-3.99-25.335-1.128-30.739,2.718-5.592,6.14-12.722,12.7-14.332,2-.255,2.246-.432,2.237,1.108-.028,5.212-2.872,10.77-5.108,15.331a145.644,145.644,0,0,1-7.442,13.217c-1.474,2.35,1.715,4.394,3.626,2.8Z" style="fill:#4f424c"/><path d="M210.271,320.511c9.615-2.268,19.353-7.577,28.118-12.024,24.836-12.114,49.722-34.763,48.9-64.523a2.486,2.486,0,0,0-4.968,0c-1.713,28.145-24.9,48.183-48.69,59.855-8.156,4.256-17.536,7.343-25.085,12.6a2.249,2.249,0,0,0,1.725,4.091Z" style="fill:#4f424c"/><path d="M203.875,352.544c-11.889,19.231-13.973,44.746-6.746,66.024,8.146,23.248,26.731,40.605,44.841,56.418,2.186,1.762,6.37-.637,4.307-3.323-4.563-5.942-11.081-10.6-16.435-15.821-21.622-20.01-35.445-48.058-29.321-77.891,1.48-8.254,4.614-15.952,6.588-24.044a1.778,1.778,0,0,0-3.234-1.363Z" style="fill:#4f424c"/><path d="M212.748,129.292a88.822,88.822,0,0,0,2.555,23.583c.307-19.772,10-37.913,10-37.913a32.009,32.009,0,0,0-1.9-4.53A64.442,64.442,0,0,0,212.748,129.292Z" style="fill:#4f424c"/><path d="M413.976,301.4c-5.448,8.013-21.053,25.7-52.347,24.889-34.041-.877-37.786-4.853-36.065-12.738a116.538,116.538,0,0,1-15.14-4.612c22.509-24.184,33.987-69.907-5.986-105.074,0,0,49.339,68.759-17.272,109.31-18.081,11.006-62.622,33.409-67.183,68.916-4.71,36.671,28.993,65.46,7.741,80.965-6.48,4.728-14.88,2.961-21.243-.459-12.592-6.768-25.27-16.947-33.066-28.567-2.012-3-5.9.727-4.747,4.51,7.1,18.484,6.966,14.922,3.007,34.2,7.091,8.368,14.047,15.36,19.629,20.793h85.721A20.436,20.436,0,0,0,295.637,482.2c3.162-6.708,10.7-6.281,10.7-6.281s7.088-.954,12.268,7.225c5.058,7.987,18.871,11.389,42.6,12.281a.892.892,0,0,0,.3-1.746,76.727,76.727,0,0,1-11.1-4.164c-18.737-1.54-23.436-11.415-32.273-19.618-5.839-5.421-15.722-4.855-22.1-3.741-8.5,1.61-15.187-7.315-11.828-15.01-48.02-16.954-47.932-58-35.242-81.216,5.1-10.78,27.647-34.146,63.88-38.21,14.712-1.866,31.451,1.65,46.676.741,22.466.038,47.507-7.5,59.43-27.862Z" style="fill:#4f424c"/><path d="M287.864,198.164c35.293,44.744,19.028,104.15-28.233,132.549-3.349,2.127-.186,7.526,3.113,5.323,51.025-31.862,67.2-96.053,27.259-143.747-6.393-4.382-13.959-8.2-17.88-10.662A115.026,115.026,0,0,1,287.864,198.164Z" style="fill:#4f424c"/><path d="M174.805,406.939c.674,7.787,3.794,15.756,6.643,22.984,5.339,13.678,13.017,26.822,24.294,36.436,4.416,3.74,10.486,8.974,16.5,9.174a2.606,2.606,0,0,0,1.823-4.4c-4.591-3.857-10.473-5.91-14.9-10.363-10.644-9.342-17.749-21.941-23.018-34.93-2.663-6.511-4.413-13.692-7.787-19.864-.872-1.6-3.726-.955-3.56.964Z" style="fill:#4f424c"/><path d="M239.434,167.91a35.185,35.185,0,0,0-3.592-2.848c8.067,16.565,5.492,47.185-30.417,38.936a15.4,15.4,0,0,0-15.333,5.269c-8.487,10.325-25.784,10.709-26.013,10.713a88.089,88.089,0,0,1-19.151-4.644c-31.764-11.753-61.292,10.983-60.721-23.092a9,9,0,0,0-4.771-8.213c-20-10.275-18.56-39.842-4.057-44.079-11.248,2.263-21.346,8.935-26.832,17.973-2.2,3.628-3.749,7.657-6.874,10.7a36.971,36.971,0,0,1-7.741,5.189c-7.966,4.516-15.624,9.716-21.227,16.479-16.9,20.009-4.866,41.8,18.7,49.544,12.873,4.332,26.981,4.453,40.746,4.521l82.544.4c20.658.1,41.91.108,61.113-6.66C248.514,227.1,266.958,193.414,239.434,167.91Z" style="fill:#4f424c"/><path d="M138.306,177.671c.913,3.39,2.51,8.137,6.359,9.138,2.071.539,4.094-2.314,2.235-3.839a13.5,13.5,0,0,1-5.145-6.753c-.91-1.977-3.991-.562-3.449,1.454Z" style="fill:#617a68"/><path d="M150.132,179.1c1.508,2.747,4.456,6.642,7.993,6.046a2.055,2.055,0,0,0,1.219-3c-1.632-2.252-4.737-2.875-6.267-5.324-1.361-1.715-3.933.474-2.945,2.273Z" style="fill:#617a68"/><path d="M366.389,153.32c4.426-.015,4.415-6.745,0-6.773C361.964,146.563,361.974,153.292,366.389,153.32Z" style="fill:#617a68"/><path d="M285.081,56.6c3.44-2.3,6.957-7.473,6.758-11.769-.1-2.074-2.971-3.075-4.062-1.1-.932,1.686-1.315,3.617-2.232,5.325a55.3,55.3,0,0,1-3.222,4.786C281.2,55.5,283.43,57.7,285.081,56.6Z" style="fill:#617a68"/><path d="M299.845,52.39a10.926,10.926,0,0,0,3.2-7.575c0-1.81-2.7-2.714-3.56-.964a31.7,31.7,0,0,0-2.517,6.863,1.738,1.738,0,0,0,2.88,1.676Z" style="fill:#617a68"/><path d="M412.5,246.706c2,4.367,6.058,9.453,11.358,9a2.116,2.116,0,0,0,1.254-3.082c-2.287-3.2-6.6-4.808-8.908-8.083a2.147,2.147,0,0,0-3.7,2.165Z" style="fill:#617a68"/><path d="M426.962,245.845c.943,2.7,4.876,5.251,7.715,4.622a2.458,2.458,0,0,0,1.45-3.564c-.683-1.186-1.976-1.645-3.094-2.325a10.8,10.8,0,0,0-3.217-1.587c-1.565-.353-3.531,1.1-2.854,2.854Z" style="fill:#617a68"/></svg>