<?xml version="1.0" encoding="UTF-8"?>
<!DOCTYPE svg PUBLIC "-//W3C//DTD SVG 1.1//EN" "http://www.w3.org/Graphics/SVG/1.1/DTD/svg11.dtd">
<!-- Creator: CorelDRAW -->
<svg xmlns="http://www.w3.org/2000/svg" xml:space="preserve" width="1.70666in" height="1.70666in" version="1.1" style="shape-rendering:geometricPrecision; text-rendering:geometricPrecision; image-rendering:optimizeQuality; fill-rule:evenodd; clip-rule:evenodd"
viewBox="0 0 1707 1707"
 xmlns:xlink="http://www.w3.org/1999/xlink">
 <defs>
  <style type="text/css">
   <![CDATA[
    .fil0 {fill:#A7A7A7}
    .fil3 {fill:#DBDBDB}
    .fil1 {fill:#F0F0F0}
    .fil2 {fill:#FFEB92}
   ]]>
  </style>
 </defs>
 <g id="Layer_x0020_1">
  <metadata id="CorelCorpID_0Corel-Layer"/>
  <path class="fil0" d="M1180 1706l-653 0c-62,0 -113,-51 -113,-113 0,-53 37,-98 87,-110 9,-45 45,-80 91,-89 16,-41 49,-73 90,-87 0,-16 -1,-31 -2,-47 -204,-15 -427,-60 -427,-163 0,-106 226,-146 387,-161 -16,-83 -34,-154 -51,-209l-304 0c-96,0 -175,-78 -175,-175 0,-69 41,-131 102,-159 12,-139 154,-230 285,-183 28,-61 89,-103 160,-103 70,-123 240,-143 339,-42 129,-78 298,-1 322,149 103,-4 187,80 183,182 58,30 96,90 96,156 0,97 -79,175 -175,175l-303 0c-17,56 -35,126 -51,209 162,16 385,55 385,161 0,103 -222,148 -426,163 -2,34 -3,69 -4,104 77,-10 148,42 164,116 59,4 106,53 106,113 0,62 -51,113 -113,113zm-617 -1059c-14,-38 -23,-58 -24,-59 -22,-48 51,-81 73,-34 5,11 111,243 143,631 64,2 134,2 198,0 3,-40 21,-202 29,-229 21,-113 45,-205 66,-273 1,-5 2,-10 5,-15 22,-69 39,-109 41,-113 22,-48 95,-16 73,32 0,1 -9,22 -23,60l278 0c110,0 130,-158 25,-186 -22,-6 -34,-27 -29,-49 19,-73 -53,-138 -124,-112 -27,9 -56,-12 -53,-41 9,-122 -136,-191 -225,-109 -19,16 -48,13 -61,-8 -59,-91 -197,-79 -238,22 -13,34 -45,23 -61,23 -48,0 -88,36 -94,84 -3,30 -37,45 -62,29 -91,-61 -214,8 -209,119 2,19 -11,37 -30,41 -107,28 -87,187 24,187l278 0zm199 656c40,9 74,34 95,68 30,-6 61,1 86,18 0,-43 2,-84 4,-124 -65,2 -121,2 -187,0 1,12 2,25 2,38zm-108 -288c-209,19 -304,62 -319,82 19,26 138,67 339,83 -5,-59 -12,-114 -20,-165zm400 0c-8,51 -15,106 -21,165 201,-16 320,-57 339,-83 -16,-20 -110,-63 -318,-82zm-201 58c-22,0 -40,-18 -40,-40l0 -257c0,-53 80,-53 80,0l0 257c0,22 -18,40 -40,40zm-326 487c-44,0 -44,66 0,66l653 0c43,0 43,-66 0,-66 -15,0 -32,16 -55,-1 -21,-15 -15,-34 -15,-48 0,-70 -93,-94 -128,-33 -16,30 -61,26 -72,-7 -8,-21 -34,-29 -51,-16 -23,17 -56,5 -63,-23 -17,-73 -124,-68 -134,6 -3,22 -23,38 -45,35 -23,-4 -42,17 -37,40 6,27 -19,53 -47,48 -2,-1 -4,-1 -6,-1z"/>
  <path class="fil1" d="M1054 1015c-8,51 -15,106 -21,165 201,-16 320,-57 339,-83 -16,-20 -110,-63 -318,-82z"/>
  <path class="fil1" d="M674 1180c-5,-59 -12,-114 -20,-165 -209,19 -304,62 -319,82 19,26 138,67 339,83z"/>
  <path class="fil2" d="M947 1265c-65,2 -121,2 -187,0 1,12 2,25 2,38 40,9 74,34 95,68 30,-6 61,1 86,18 0,-43 2,-84 4,-124z"/>
  <path class="fil3" d="M859 1455c-23,17 -56,5 -63,-23 -17,-73 -124,-68 -134,6 -3,22 -23,38 -45,35 -23,-4 -42,17 -37,40 6,27 -19,53 -47,48 -2,-1 -4,-1 -6,-1 -44,0 -44,66 0,66l653 0c43,0 43,-66 0,-66 -15,0 -32,16 -55,-1 -21,-15 -15,-34 -15,-48 0,-70 -93,-94 -128,-33 -16,30 -61,26 -72,-7 -8,-21 -34,-29 -51,-16z"/>
  <path class="fil2" d="M893 776l0 257c0,22 -18,40 -40,40 -22,0 -40,-18 -40,-40l0 -257c0,-53 80,-53 80,0zm-138 409c64,2 134,2 198,0 3,-40 21,-202 29,-229 21,-113 45,-205 66,-273 1,-5 2,-10 5,-15 22,-69 39,-109 41,-113 22,-48 95,-16 73,32 0,1 -9,22 -23,60l278 0c110,0 130,-158 25,-186 -22,-6 -34,-27 -29,-49 19,-73 -53,-138 -124,-112 -27,9 -56,-12 -53,-41 9,-122 -136,-191 -225,-109 -19,16 -48,13 -61,-8 -59,-91 -197,-79 -238,22 -13,34 -45,23 -61,23 -48,0 -88,36 -94,84 -3,30 -37,45 -62,29 -91,-61 -214,8 -209,119 2,19 -11,37 -30,41 -107,28 -87,187 24,187l278 0c-14,-38 -23,-58 -24,-59 -22,-48 51,-81 73,-34 5,11 111,243 143,631z"/>
 </g>
</svg>
