<?xml version="1.0" encoding="UTF-8" standalone="no"?> <svg xmlns="http://www.w3.org/2000/svg" viewBox="0 0 64 64"><g id="Layer_26" data-name="Layer 26"><path d="M58,9.56h-16V4a1,1,0,0,0-1-1H22.92a1,1,0,0,0-1,1V9.56H6a3,3,0,0,0-3,3V42.2a3,3,0,0,0,3,3h17c-.05.14-.11.28-.15.43H20.38a1,1,0,0,0-1,1v3.59a1,1,0,0,0,1,1h2.39a9.21,9.21,0,0,0,.72,1.75l-1.68,1.69a1,1,0,0,0,0,1.41l2.54,2.55a1,1,0,0,0,1.42,0l1.68-1.69a10,10,0,0,0,1.75.73V60a1,1,0,0,0,1,1h3.6a1,1,0,0,0,1-1V57.62a10,10,0,0,0,1.75-.73l1.68,1.69a1,1,0,0,0,.71.29,1,1,0,0,0,.71-.29L42.19,56a1,1,0,0,0,0-1.41l-1.68-1.69a9.21,9.21,0,0,0,.72-1.75h2.39a1,1,0,0,0,1-1V46.59a1,1,0,0,0-1-1H41.23c0-.15-.1-.29-.15-.43H58a3,3,0,0,0,3-3V12.52A3,3,0,0,0,58,9.56ZM23.92,5H40.08V9.56H23.92ZM6,11.56H58a1,1,0,0,1,1,1v10.8H35.76v-3a1,1,0,0,0-1-1H29.24a1,1,0,0,0-1,1v3H5V12.52A1,1,0,0,1,6,11.56ZM30.24,24.32v-3h3.52v6.05H30.24ZM42.62,49.18H40.46a1.08,1.08,0,0,0-1,.8,8.28,8.28,0,0,1-1.1,2.66,1,1,0,0,0,.17,1.16l1.52,1.53-1.13,1.13-1.52-1.53a1.05,1.05,0,0,0-1.17-.17,8.06,8.06,0,0,1-2.66,1.1,1.09,1.09,0,0,0-.79,1V59H31.2V56.84a1.09,1.09,0,0,0-.79-1,8.06,8.06,0,0,1-2.66-1.1,1.05,1.05,0,0,0-1.17.17l-1.52,1.53-1.13-1.13,1.52-1.53a1,1,0,0,0,.17-1.16A8.28,8.28,0,0,1,24.52,50a1.08,1.08,0,0,0-1-.8H21.38V47.59h2.16a1.05,1.05,0,0,0,1-.8,8.28,8.28,0,0,1,1.1-2.66A1,1,0,0,0,25.45,43l-1.52-1.53,1.13-1.13,1.52,1.53a1,1,0,0,0,1.14.19,8.28,8.28,0,0,1,2.69-1.13,1.07,1.07,0,0,0,.79-1V37.77h1.6v2.16a1.07,1.07,0,0,0,.79,1,9.08,9.08,0,0,1,2.78,1.17,1,1,0,0,0,1.05-.23l1.52-1.53,1.13,1.13L38.55,43a1,1,0,0,0-.17,1.16,8.28,8.28,0,0,1,1.1,2.66,1.05,1.05,0,0,0,1,.8h2.16Zm15.42-6H41.18c.58-.64,1.91-1.47,1-2.42l-2.54-2.55a1,1,0,0,0-1.42,0l-1.68,1.69a9.48,9.48,0,0,0-1.75-.72V36.77a1,1,0,0,0-1-1H30.2a1,1,0,0,0-1,1v2.39a9.48,9.48,0,0,0-1.75.72l-1.68-1.69a1,1,0,0,0-1.42,0l-2.54,2.55c-.9.94.43,1.79,1,2.42H6a1,1,0,0,1-1-1V25.32H28.24v3a1,1,0,0,0,1,1h5.52a1,1,0,0,0,1-1v-3H59V42.2A1,1,0,0,1,58,43.16Z"/><path d="M32,43c-7.11.23-7.11,10.54,0,10.77C39.11,53.54,39.11,43.23,32,43Zm0,8.77A3.39,3.39,0,0,1,32,45,3.39,3.39,0,0,1,32,51.77Z"/></g></svg>