<svg fill="#40C057" xmlns="http://www.w3.org/2000/svg"  viewBox="0 0 48 48" width="48px" height="48px"><path d="M 13.5 6 C 9.3754991 6 6 9.3754991 6 13.5 L 6 34.5 C 6 38.624501 9.3754991 42 13.5 42 L 34.5 42 C 38.624501 42 42 38.624501 42 34.5 L 42 13.5 C 42 9.3754991 38.624501 6 34.5 6 L 13.5 6 z M 13.5 9 L 34.5 9 C 37.003499 9 39 10.996501 39 13.5 L 39 34.5 C 39 37.003499 37.003499 39 34.5 39 L 13.5 39 C 10.996501 39 9 37.003499 9 34.5 L 9 13.5 C 9 10.996501 10.996501 9 13.5 9 z M 31 12 C 29.895 12 29 12.895 29 14 L 29 20.564453 L 19 21.869141 L 19 17 C 19 15.895 18.105 15 17 15 L 15 15 C 13.895 15 13 15.895 13 17 L 13 34 C 13 35.105 13.895 36 15 36 L 17 36 C 18.105 36 19 35.105 19 34 L 19 26.869141 L 29 25.566406 L 29 31 C 29 32.105 29.895 33 31 33 L 33 33 C 34.105 33 35 32.105 35 31 L 35 14 C 35 12.895 34.105 12 33 12 L 31 12 z"/></svg>